<?xml version="1.0" encoding="UTF-8"?><svg xmlns="http://www.w3.org/2000/svg" xmlns:xlink="http://www.w3.org/1999/xlink" fill-opacity="1" color-rendering="auto" color-interpolation="auto" text-rendering="auto" stroke="black" stroke-linecap="square" width="400" stroke-miterlimit="10" shape-rendering="auto" stroke-opacity="1" fill="black" stroke-dasharray="none" font-weight="normal" stroke-width="1" height="130" font-family="'Dialog'" font-style="normal" stroke-linejoin="miter" font-size="12px" stroke-dashoffset="0" image-rendering="auto">
  <!--Generated by ySVG 2.5-->
  <defs id="genericDefs"/>
  <g>
    <defs id="defs1">
      <linearGradient x1="100" gradientUnits="userSpaceOnUse" x2="140" y1="10" y2="50" id="linearGradient1" spreadMethod="reflect">
        <stop stop-opacity="1" stop-color="rgb(124,191,51)" offset="0%"/>
        <stop stop-opacity="1" stop-color="rgb(51,153,102)" offset="100%"/>
      </linearGradient>
      <linearGradient x1="370" gradientUnits="userSpaceOnUse" x2="410" y1="10" y2="50" id="linearGradient2" spreadMethod="reflect">
        <stop stop-opacity="1" stop-color="rgb(124,191,51)" offset="0%"/>
        <stop stop-opacity="1" stop-color="rgb(51,153,102)" offset="100%"/>
      </linearGradient>
      <clipPath clipPathUnits="userSpaceOnUse" id="clipPath1">
        <path d="M0 0 L400 0 L400 130 L0 130 L0 0 Z"/>
      </clipPath>
      <clipPath clipPathUnits="userSpaceOnUse" id="clipPath2">
        <path d="M55 -35 L455 -35 L455 95 L55 95 L55 -35 Z"/>
      </clipPath>
    </defs>
    <g fill="url(#linearGradient1)" text-rendering="geometricPrecision" shape-rendering="geometricPrecision" transform="matrix(1,0,0,1,-55,35)" stroke="url(#linearGradient1)">
      <path d="M100 10 L140 10 L140 50 L100 50 Z" stroke="none" clip-path="url(#clipPath2)"/>
    </g>
    <g text-rendering="geometricPrecision" stroke-miterlimit="1.45" shape-rendering="geometricPrecision" transform="matrix(1,0,0,1,-55,35)" stroke-linecap="butt">
      <path fill="none" d="M100 10 L140 10 L140 50 L100 50 Z" clip-path="url(#clipPath2)"/>
    </g>
    <g stroke-linecap="butt" font-size="10px" transform="matrix(1,0,0,1,-55,35)" fill="white" text-rendering="geometricPrecision" font-family="sans-serif" shape-rendering="geometricPrecision" stroke="white" stroke-miterlimit="1.45">
      <text x="108.8916" xml:space="preserve" y="33.9282" clip-path="url(#clipPath2)" stroke="none">( i, j )</text>
    </g>
    <g text-rendering="geometricPrecision" stroke-miterlimit="1.45" shape-rendering="geometricPrecision" transform="matrix(1,0,0,1,-55,35)" stroke-linecap="butt">
      <path fill="none" d="M100 -30 L140 -30 L140 10 L100 10 Z" clip-path="url(#clipPath2)"/>
      <text x="117.2192" font-size="10px" y="-6.0718" clip-path="url(#clipPath2)" font-family="sans-serif" stroke="none" xml:space="preserve">0</text>
    </g>
    <g text-rendering="geometricPrecision" stroke-miterlimit="1.45" shape-rendering="geometricPrecision" transform="matrix(1,0,0,1,-55,35)" stroke-linecap="butt">
      <path fill="none" d="M140 -30 L180 -30 L180 10 L140 10 Z" clip-path="url(#clipPath2)"/>
      <text x="157.2192" font-size="10px" y="-6.0718" clip-path="url(#clipPath2)" font-family="sans-serif" stroke="none" xml:space="preserve">1</text>
    </g>
    <g text-rendering="geometricPrecision" stroke-miterlimit="1.45" shape-rendering="geometricPrecision" transform="matrix(1,0,0,1,-55,35)" stroke-linecap="butt">
      <path fill="none" d="M140 10 L180 10 L180 50 L140 50 Z" clip-path="url(#clipPath2)"/>
      <text x="157.2192" font-size="10px" y="33.9282" clip-path="url(#clipPath2)" font-family="sans-serif" stroke="none" xml:space="preserve">0</text>
    </g>
    <g text-rendering="geometricPrecision" stroke-miterlimit="1.45" shape-rendering="geometricPrecision" transform="matrix(1,0,0,1,-55,35)" stroke-linecap="butt">
      <path fill="none" d="M60 -30 L100 -30 L100 10 L60 10 Z" clip-path="url(#clipPath2)"/>
      <text x="77.2192" font-size="10px" y="-6.0718" clip-path="url(#clipPath2)" font-family="sans-serif" stroke="none" xml:space="preserve">0</text>
    </g>
    <g text-rendering="geometricPrecision" stroke-miterlimit="1.45" shape-rendering="geometricPrecision" transform="matrix(1,0,0,1,-55,35)" stroke-linecap="butt">
      <path fill="none" d="M60 10 L100 10 L100 50 L60 50 Z" clip-path="url(#clipPath2)"/>
      <text x="77.2192" font-size="10px" y="33.9282" clip-path="url(#clipPath2)" font-family="sans-serif" stroke="none" xml:space="preserve">0</text>
    </g>
    <g text-rendering="geometricPrecision" stroke-miterlimit="1.45" shape-rendering="geometricPrecision" transform="matrix(1,0,0,1,-55,35)" stroke-linecap="butt">
      <path fill="none" d="M60 50 L100 50 L100 90 L60 90 Z" clip-path="url(#clipPath2)"/>
      <text x="77.2192" font-size="10px" y="73.9282" clip-path="url(#clipPath2)" font-family="sans-serif" stroke="none" xml:space="preserve">1</text>
    </g>
    <g text-rendering="geometricPrecision" stroke-miterlimit="1.45" shape-rendering="geometricPrecision" transform="matrix(1,0,0,1,-55,35)" stroke-linecap="butt">
      <path fill="none" d="M140 50 L180 50 L180 90 L140 90 Z" clip-path="url(#clipPath2)"/>
      <text x="157.2192" font-size="10px" y="73.9282" clip-path="url(#clipPath2)" font-family="sans-serif" stroke="none" xml:space="preserve">0</text>
    </g>
    <g font-size="8px" stroke-linecap="butt" transform="matrix(1,0,0,1,-55,35)" text-rendering="geometricPrecision" font-family="sans-serif" shape-rendering="geometricPrecision" font-weight="bold" stroke-miterlimit="1.45">
      <text x="223.0742" xml:space="preserve" y="50.043" clip-path="url(#clipPath2)" stroke="none">écriture des résultats</text>
    </g>
    <g font-size="10px" stroke-linecap="butt" transform="matrix(1,0,0,1,-55,35)" text-rendering="geometricPrecision" font-family="sans-serif" shape-rendering="geometricPrecision" font-weight="bold" stroke-miterlimit="1.45">
      <text x="202" xml:space="preserve" y="15.8027" clip-path="url(#clipPath2)" stroke="none">Calcul de présence</text>
    </g>
    <g fill="url(#linearGradient2)" text-rendering="geometricPrecision" shape-rendering="geometricPrecision" transform="matrix(1,0,0,1,-55,35)" stroke="url(#linearGradient2)">
      <path d="M370 10 L410 10 L410 50 L370 50 Z" stroke="none" clip-path="url(#clipPath2)"/>
    </g>
    <g text-rendering="geometricPrecision" stroke-miterlimit="1.45" shape-rendering="geometricPrecision" transform="matrix(1,0,0,1,-55,35)" stroke-linecap="butt">
      <path fill="none" d="M370 10 L410 10 L410 50 L370 50 Z" clip-path="url(#clipPath2)"/>
    </g>
    <g stroke-linecap="butt" font-size="10px" transform="matrix(1,0,0,1,-55,35)" fill="white" text-rendering="geometricPrecision" font-family="sans-serif" shape-rendering="geometricPrecision" stroke="white" font-weight="bold" stroke-miterlimit="1.45">
      <text x="387.2192" xml:space="preserve" y="33.9282" clip-path="url(#clipPath2)" stroke="none">3</text>
    </g>
    <g text-rendering="geometricPrecision" stroke-miterlimit="1.45" shape-rendering="geometricPrecision" transform="matrix(1,0,0,1,-55,35)" stroke-linecap="butt">
      <path fill="none" d="M370 -30 L410 -30 L410 10 L370 10 Z" clip-path="url(#clipPath2)"/>
    </g>
    <g text-rendering="geometricPrecision" stroke-miterlimit="1.45" shape-rendering="geometricPrecision" transform="matrix(1,0,0,1,-55,35)" stroke-linecap="butt">
      <path fill="none" d="M410 -30 L450 -30 L450 10 L410 10 Z" clip-path="url(#clipPath2)"/>
    </g>
    <g text-rendering="geometricPrecision" stroke-miterlimit="1.45" shape-rendering="geometricPrecision" transform="matrix(1,0,0,1,-55,35)" stroke-linecap="butt">
      <path fill="none" d="M330 -30 L370 -30 L370 10 L330 10 Z" clip-path="url(#clipPath2)"/>
    </g>
    <g text-rendering="geometricPrecision" stroke-miterlimit="1.45" shape-rendering="geometricPrecision" transform="matrix(1,0,0,1,-55,35)" stroke-linecap="butt">
      <path fill="none" d="M330 10 L370 10 L370 50 L330 50 Z" clip-path="url(#clipPath2)"/>
    </g>
    <g text-rendering="geometricPrecision" stroke-miterlimit="1.45" shape-rendering="geometricPrecision" transform="matrix(1,0,0,1,-55,35)" stroke-linecap="butt">
      <path fill="none" d="M330 50 L370 50 L370 90 L330 90 Z" clip-path="url(#clipPath2)"/>
    </g>
    <g text-rendering="geometricPrecision" stroke-miterlimit="1.45" shape-rendering="geometricPrecision" transform="matrix(1,0,0,1,-55,35)" stroke-linecap="butt">
      <path fill="none" d="M370 50 L410 50 L410 90 L370 90 Z" clip-path="url(#clipPath2)"/>
    </g>
    <g text-rendering="geometricPrecision" stroke-miterlimit="1.45" shape-rendering="geometricPrecision" transform="matrix(1,0,0,1,-55,35)" stroke-linecap="butt">
      <path fill="none" d="M410 50 L450 50 L450 90 L410 90 Z" clip-path="url(#clipPath2)"/>
    </g>
    <g text-rendering="geometricPrecision" stroke-miterlimit="1.45" shape-rendering="geometricPrecision" transform="matrix(1,0,0,1,-55,35)" stroke-linecap="butt">
      <path fill="none" d="M100 50 L140 50 L140 90 L100 90 Z" clip-path="url(#clipPath2)"/>
      <text x="117.2192" font-size="10px" y="73.9282" clip-path="url(#clipPath2)" font-family="sans-serif" stroke="none" xml:space="preserve">1</text>
    </g>
    <g text-rendering="geometricPrecision" stroke-miterlimit="1.45" shape-rendering="geometricPrecision" transform="matrix(1,0,0,1,-55,35)" stroke-linecap="butt">
      <path fill="none" d="M410 10 L450 10 L450 50 L410 50 Z" clip-path="url(#clipPath2)"/>
    </g>
    <g text-rendering="geometricPrecision" stroke-miterlimit="1.45" stroke-width="2" shape-rendering="geometricPrecision" transform="matrix(1,0,0,1,-55,35)" stroke-linecap="butt">
      <path fill="none" d="M219.9756 30 L281.036 30" clip-path="url(#clipPath2)"/>
    </g>
    <g text-rendering="geometricPrecision" stroke-miterlimit="1.45" stroke-width="2" shape-rendering="geometricPrecision" transform="matrix(1,0,0,1,-55,35)" stroke-linecap="butt">
      <path d="M290.036 30 L276.536 24.375 L279.911 30 L276.536 35.625 Z" stroke="none" clip-path="url(#clipPath2)"/>
    </g>
  </g>
</svg>
