<?xml version="1.0" encoding="UTF-8"?><svg xmlns="http://www.w3.org/2000/svg" xmlns:xlink="http://www.w3.org/1999/xlink" fill-opacity="1" color-rendering="auto" color-interpolation="auto" text-rendering="auto" stroke="black" stroke-linecap="square" width="841" stroke-miterlimit="10" shape-rendering="auto" stroke-opacity="1" fill="black" stroke-dasharray="none" font-weight="normal" stroke-width="1" height="307" font-family="'Dialog'" font-style="normal" stroke-linejoin="miter" font-size="12px" stroke-dashoffset="0" image-rendering="auto">
  <!--Generated by ySVG 2.5-->
  <defs id="genericDefs"/>
  <g>
    <defs id="defs1">
      <linearGradient x1="259.684" gradientUnits="userSpaceOnUse" x2="820" y1="124.5348" y2="154.5348" id="linearGradient1" spreadMethod="reflect">
        <stop stop-opacity="1" stop-color="rgb(12,135,218)" offset="0%"/>
        <stop stop-opacity="1" stop-color="rgb(12,135,218)" offset="100%"/>
      </linearGradient>
      <linearGradient x1="890" gradientUnits="userSpaceOnUse" x2="1090" y1="124.5348" y2="154.5348" id="linearGradient2" spreadMethod="reflect">
        <stop stop-opacity="1" stop-color="rgb(124,191,51)" offset="0%"/>
        <stop stop-opacity="1" stop-color="rgb(124,191,51)" offset="100%"/>
      </linearGradient>
      <linearGradient x1="317.104" gradientUnits="userSpaceOnUse" x2="437.104" y1="230.3348" y2="270.3348" id="linearGradient3" spreadMethod="reflect">
        <stop stop-opacity="1" stop-color="rgb(234,234,234)" offset="0%"/>
        <stop stop-opacity="1" stop-color="white" offset="100%"/>
      </linearGradient>
      <linearGradient x1="635" gradientUnits="userSpaceOnUse" x2="805" y1="230.3348" y2="270.3348" id="linearGradient4" spreadMethod="reflect">
        <stop stop-opacity="1" stop-color="rgb(234,234,234)" offset="0%"/>
        <stop stop-opacity="1" stop-color="white" offset="100%"/>
      </linearGradient>
      <linearGradient x1="907.5" gradientUnits="userSpaceOnUse" x2="1077.5" y1="230.3348" y2="270.3348" id="linearGradient5" spreadMethod="reflect">
        <stop stop-opacity="1" stop-color="white" offset="0%"/>
        <stop stop-opacity="1" stop-color="rgb(234,234,234)" offset="100%"/>
      </linearGradient>
      <linearGradient x1="317.104" gradientUnits="userSpaceOnUse" x2="367.104" y1="354.5126" y2="384.5126" id="linearGradient6" spreadMethod="reflect">
        <stop stop-opacity="1" stop-color="rgb(234,234,234)" offset="0%"/>
        <stop stop-opacity="1" stop-color="white" offset="100%"/>
      </linearGradient>
      <linearGradient x1="386.764" gradientUnits="userSpaceOnUse" x2="436.764" y1="354.5126" y2="384.5126" id="linearGradient7" spreadMethod="reflect">
        <stop stop-opacity="1" stop-color="rgb(234,234,234)" offset="0%"/>
        <stop stop-opacity="1" stop-color="white" offset="100%"/>
      </linearGradient>
      <linearGradient x1="506.25" gradientUnits="userSpaceOnUse" x2="596.25" y1="222.3348" y2="278.3348" id="linearGradient8" spreadMethod="reflect">
        <stop stop-opacity="1" stop-color="rgb(234,234,234)" offset="0%"/>
        <stop stop-opacity="1" stop-color="rgb(204,204,204)" offset="100%"/>
      </linearGradient>
      <linearGradient x1="307.104" gradientUnits="userSpaceOnUse" x2="447.104" y1="285" y2="315" id="linearGradient9" spreadMethod="reflect">
        <stop stop-opacity="1" stop-color="rgb(234,234,234)" offset="0%"/>
        <stop stop-opacity="1" stop-color="white" offset="100%"/>
      </linearGradient>
      <clipPath clipPathUnits="userSpaceOnUse" id="clipPath1">
        <path d="M0 0 L841 0 L841 307 L0 307 L0 0 Z"/>
      </clipPath>
      <clipPath clipPathUnits="userSpaceOnUse" id="clipPath2">
        <path d="M254 119 L1095 119 L1095 426 L254 426 L254 119 Z"/>
      </clipPath>
      <clipPath clipPathUnits="userSpaceOnUse" id="clipPath3">
        <path d="M254 209.5359 L254 426 L1095 426 L1095 209.5359 Z"/>
      </clipPath>
      <clipPath clipPathUnits="userSpaceOnUse" id="clipPath4">
        <path d="M254 119 L254 209.5359 L1095 209.5359 L1095 119 Z"/>
      </clipPath>
    </defs>
    <g fill="url(#linearGradient1)" text-rendering="geometricPrecision" shape-rendering="geometricPrecision" transform="matrix(1,0,0,1,-254,-119)" stroke="url(#linearGradient1)">
      <path d="M259.684 124.5348 L820 124.5348 L820 154.5348 L259.684 154.5348 Z" stroke="none" clip-path="url(#clipPath2)"/>
    </g>
    <g stroke-linecap="butt" transform="matrix(1,0,0,1,-254,-119)" fill="white" text-rendering="geometricPrecision" font-family="sans-serif" shape-rendering="geometricPrecision" stroke="white" font-weight="bold" stroke-miterlimit="1.45">
      <text x="527.174" xml:space="preserve" y="144.2487" clip-path="url(#clipPath2)" stroke="none">CPU</text>
    </g>
    <g fill="url(#linearGradient2)" text-rendering="geometricPrecision" shape-rendering="geometricPrecision" transform="matrix(1,0,0,1,-254,-119)" stroke="url(#linearGradient2)">
      <path d="M890 124.5348 L1090 124.5348 L1090 154.5348 L890 154.5348 Z" stroke="none" clip-path="url(#clipPath2)"/>
    </g>
    <g stroke-linecap="butt" transform="matrix(1,0,0,1,-254,-119)" fill="white" text-rendering="geometricPrecision" font-family="sans-serif" shape-rendering="geometricPrecision" stroke="white" font-weight="bold" stroke-miterlimit="1.45">
      <text x="976.998" xml:space="preserve" y="144.2487" clip-path="url(#clipPath2)" stroke="none">GPU</text>
    </g>
    <g fill="white" text-rendering="geometricPrecision" shape-rendering="geometricPrecision" transform="matrix(1,0,0,1,-254,-119)" stroke="white">
      <rect x="259.684" y="182.8348" clip-path="url(#clipPath3)" width="222.816" rx="4" ry="4" height="237.36" stroke="none"/>
      <rect x="259.684" y="182.8348" clip-path="url(#clipPath4)" fill="rgb(204,204,204)" width="222.816" rx="4" ry="4" height="237.36" stroke="none"/>
    </g>
    <g text-rendering="geometricPrecision" stroke-miterlimit="1.45" shape-rendering="geometricPrecision" transform="matrix(1,0,0,1,-254,-119)" stroke-linecap="butt">
      <rect x="259.684" y="182.8348" clip-path="url(#clipPath2)" fill="none" width="222.816" rx="4" ry="4" height="237.36"/>
      <line y2="209.536" fill="none" x1="259.684" clip-path="url(#clipPath2)" x2="482.5" y1="209.536"/>
      <text x="352.4123" xml:space="preserve" y="200.8992" clip-path="url(#clipPath2)" font-family="sans-serif" stroke="none">Agents</text>
    </g>
    <g fill="url(#linearGradient3)" text-rendering="geometricPrecision" shape-rendering="geometricPrecision" transform="matrix(1,0,0,1,-254,-119)" stroke="url(#linearGradient3)">
      <path d="M317.104 230.3348 L437.104 230.3348 L437.104 270.3348 L317.104 270.3348 Z" stroke="none" clip-path="url(#clipPath2)"/>
    </g>
    <g text-rendering="geometricPrecision" stroke-miterlimit="1.45" shape-rendering="geometricPrecision" transform="matrix(1,0,0,1,-254,-119)" stroke-linecap="butt">
      <path fill="none" d="M317.104 230.3348 L437.104 230.3348 L437.104 270.3348 L317.104 270.3348 Z" clip-path="url(#clipPath2)"/>
      <text x="347.7603" xml:space="preserve" y="255.0486" clip-path="url(#clipPath2)" font-family="sans-serif" stroke="none">Mise à jour</text>
    </g>
    <g fill="white" text-rendering="geometricPrecision" shape-rendering="geometricPrecision" transform="matrix(1,0,0,1,-254,-119)" stroke="white">
      <rect x="620" y="182.8348" clip-path="url(#clipPath3)" width="200" rx="4" ry="4" height="160" stroke="none"/>
      <rect x="620" y="182.8348" clip-path="url(#clipPath4)" fill="rgb(204,204,204)" width="200" rx="4" ry="4" height="160" stroke="none"/>
    </g>
    <g text-rendering="geometricPrecision" stroke-miterlimit="1.45" shape-rendering="geometricPrecision" transform="matrix(1,0,0,1,-254,-119)" stroke-linecap="butt">
      <rect x="620" y="182.8348" clip-path="url(#clipPath2)" fill="none" width="200" rx="4" ry="4" height="160"/>
      <line y2="209.536" fill="none" x1="620" clip-path="url(#clipPath2)" x2="820" y1="209.536"/>
      <text x="679.6436" xml:space="preserve" y="200.8992" clip-path="url(#clipPath2)" font-family="sans-serif" stroke="none">Environnement</text>
    </g>
    <g fill="url(#linearGradient4)" text-rendering="geometricPrecision" shape-rendering="geometricPrecision" transform="matrix(1,0,0,1,-254,-119)" stroke="url(#linearGradient4)">
      <path d="M635 230.3348 L805 230.3348 L805 270.3348 L635 270.3348 Z" stroke="none" clip-path="url(#clipPath2)"/>
    </g>
    <g text-rendering="geometricPrecision" stroke-miterlimit="1.45" shape-rendering="geometricPrecision" transform="matrix(1,0,0,1,-254,-119)" stroke-linecap="butt">
      <path fill="none" d="M635 230.3348 L805 230.3348 L805 270.3348 L635 270.3348 Z" clip-path="url(#clipPath2)"/>
      <text x="652.626" xml:space="preserve" y="255.0486" clip-path="url(#clipPath2)" font-family="sans-serif" stroke="none">Données sur le voisinage</text>
    </g>
    <g text-rendering="geometricPrecision" stroke-miterlimit="1.45" stroke-dasharray="6,2" shape-rendering="geometricPrecision" transform="matrix(1,0,0,1,-254,-119)" stroke-linecap="butt">
      <path fill="none" d="M890 182.8348 L1090 182.8348 L1090 342.8348 L890 342.8348 Z" clip-path="url(#clipPath2)"/>
      <text x="896" y="200.8992" clip-path="url(#clipPath2)" font-family="sans-serif" stroke-dasharray="none" stroke="none" xml:space="preserve">Module GPU</text>
    </g>
    <g fill="url(#linearGradient5)" text-rendering="geometricPrecision" shape-rendering="geometricPrecision" transform="matrix(1,0,0,1,-254,-119)" stroke="url(#linearGradient5)">
      <path d="M907.5 230.3348 L1077.5 230.3348 L1077.5 270.3348 L907.5 270.3348 Z" stroke="none" clip-path="url(#clipPath2)"/>
    </g>
    <g text-rendering="geometricPrecision" stroke-miterlimit="1.45" shape-rendering="geometricPrecision" transform="matrix(1,0,0,1,-254,-119)" stroke-linecap="butt">
      <path fill="none" d="M907.5 230.3348 L1077.5 230.3348 L1077.5 270.3348 L907.5 270.3348 Z" clip-path="url(#clipPath2)"/>
      <text x="966.1475" xml:space="preserve" y="255.0486" clip-path="url(#clipPath2)" font-family="sans-serif" stroke="none">Voisinage</text>
    </g>
    <g fill="url(#linearGradient6)" text-rendering="geometricPrecision" shape-rendering="geometricPrecision" transform="matrix(1,0,0,1,-254,-119)" stroke="url(#linearGradient6)">
      <path d="M317.104 354.5126 L367.104 354.5126 L367.104 384.5126 L317.104 384.5126 Z" stroke="none" clip-path="url(#clipPath2)"/>
    </g>
    <g text-rendering="geometricPrecision" stroke-miterlimit="1.45" shape-rendering="geometricPrecision" transform="matrix(1,0,0,1,-254,-119)" stroke-linecap="butt">
      <path fill="none" d="M317.104 354.5126 L367.104 354.5126 L367.104 384.5126 L317.104 384.5126 Z" clip-path="url(#clipPath2)"/>
      <text x="327.4321" xml:space="preserve" y="374.2265" clip-path="url(#clipPath2)" font-family="sans-serif" stroke="none">Move</text>
    </g>
    <g fill="url(#linearGradient7)" text-rendering="geometricPrecision" shape-rendering="geometricPrecision" transform="matrix(1,0,0,1,-254,-119)" stroke="url(#linearGradient7)">
      <path d="M386.764 354.5126 L436.764 354.5126 L436.764 384.5126 L386.764 384.5126 Z" stroke="none" clip-path="url(#clipPath2)"/>
    </g>
    <g text-rendering="geometricPrecision" stroke-miterlimit="1.45" shape-rendering="geometricPrecision" transform="matrix(1,0,0,1,-254,-119)" stroke-linecap="butt">
      <path fill="none" d="M386.764 354.5126 L436.764 354.5126 L436.764 384.5126 L386.764 384.5126 Z" clip-path="url(#clipPath2)"/>
      <text x="399.7581" xml:space="preserve" y="374.2265" clip-path="url(#clipPath2)" font-family="sans-serif" stroke="none">Stay</text>
    </g>
    <g fill="url(#linearGradient8)" text-rendering="geometricPrecision" shape-rendering="geometricPrecision" transform="matrix(1,0,0,1,-254,-119)" stroke="url(#linearGradient8)">
      <path d="M551.25 222.3348 L596.25 250.3348 L551.25 278.3348 L506.25 250.3348 Z" stroke="none" clip-path="url(#clipPath2)"/>
    </g>
    <g text-rendering="geometricPrecision" stroke-miterlimit="1.45" shape-rendering="geometricPrecision" transform="matrix(1,0,0,1,-254,-119)" stroke-linecap="butt">
      <path fill="none" d="M551.25 222.3348 L596.25 250.3348 L551.25 278.3348 L506.25 250.3348 Z" clip-path="url(#clipPath2)"/>
      <text x="524.5752" xml:space="preserve" y="255.0486" clip-path="url(#clipPath2)" font-family="sans-serif" stroke="none">GPGPU ?</text>
    </g>
    <g fill="url(#linearGradient9)" text-rendering="geometricPrecision" shape-rendering="geometricPrecision" transform="matrix(1,0,0,1,-254,-119)" stroke="url(#linearGradient9)">
      <path d="M307.104 285 L447.104 285 L447.104 315 L307.104 315 Z" stroke="none" clip-path="url(#clipPath2)"/>
    </g>
    <g text-rendering="geometricPrecision" stroke-miterlimit="1.45" shape-rendering="geometricPrecision" transform="matrix(1,0,0,1,-254,-119)" stroke-linecap="butt">
      <path fill="none" d="M307.104 285 L447.104 285 L447.104 315 L307.104 315 Z" clip-path="url(#clipPath2)"/>
      <text x="320.4087" xml:space="preserve" y="304.7139" clip-path="url(#clipPath2)" font-family="sans-serif" stroke="none">Détection des voisins</text>
    </g>
    <g stroke-linecap="round" transform="matrix(1,0,0,1,-254,-119)" stroke-dashoffset="2" text-rendering="geometricPrecision" shape-rendering="geometricPrecision" stroke-dasharray="0,4" stroke-miterlimit="1.45">
      <path fill="none" d="M905 280 L1075 280 L1075 320 L905 320 Z" clip-path="url(#clipPath2)"/>
    </g>
    <g text-rendering="geometricPrecision" stroke-miterlimit="1.45" shape-rendering="geometricPrecision" transform="matrix(1,0,0,1,-254,-119)" stroke-linecap="butt">
      <path fill="none" d="M812.9899 250.3348 L899.4887 250.3348" clip-path="url(#clipPath2)"/>
    </g>
    <g text-rendering="geometricPrecision" stroke-miterlimit="1.45" shape-rendering="geometricPrecision" transform="matrix(1,0,0,1,-254,-119)" stroke-linecap="butt">
      <path d="M804.9899 250.3348 L816.9899 255.3348 L813.9899 250.3348 L816.9899 245.3348 Z" stroke="none" clip-path="url(#clipPath2)"/>
      <path d="M907.4887 250.3348 L895.4887 245.3348 L898.4887 250.3348 L895.4887 255.3348 Z" clip-path="url(#clipPath2)" stroke="none"/>
      <path fill="none" d="M720 270.3678 L720 330 L377.104 330 L377.104 338.1474 L342.104 338.1474 L342.104 346.5345" clip-path="url(#clipPath2)"/>
      <path d="M342.104 354.5345 L347.104 342.5345 L342.104 345.5345 L337.104 342.5345 Z" clip-path="url(#clipPath2)" stroke="none"/>
      <path fill="none" d="M342.104 384.5066 L342.104 403.7082 L287.104 403.7082 L287.104 250.3348 L309.1187 250.3348" clip-path="url(#clipPath2)"/>
      <path d="M317.1187 250.3348 L305.1187 245.3348 L308.1187 250.3348 L305.1187 255.3348 Z" clip-path="url(#clipPath2)" stroke="none"/>
      <path fill="none" d="M411.764 384.5066 L411.764 403.7082 L287.104 403.7082 L287.104 250.3348 L309.1187 250.3348" clip-path="url(#clipPath2)"/>
      <path d="M317.1187 250.3348 L305.1187 245.3348 L308.1187 250.3348 L305.1187 255.3348 Z" clip-path="url(#clipPath2)" stroke="none"/>
      <path fill="none" d="M437.0942 250.3348 L498.2399 250.3348" clip-path="url(#clipPath2)"/>
      <path d="M506.2399 250.3348 L494.2399 245.3348 L497.2399 250.3348 L494.2399 255.3348 Z" clip-path="url(#clipPath2)" stroke="none"/>
      <path fill="none" d="M596.2802 250.3348 L626.9728 250.3348" clip-path="url(#clipPath2)"/>
      <path d="M634.9728 250.3348 L622.9728 245.3348 L625.9728 250.3348 L622.9728 255.3348 Z" clip-path="url(#clipPath2)" stroke="none"/>
      <text x="596.8694" xml:space="preserve" y="241.843" clip-path="url(#clipPath2)" font-family="sans-serif" stroke="none">oui</text>
      <path fill="none" d="M551.25 278.32 L551.25 300 L455.0904 300" clip-path="url(#clipPath2)"/>
      <path d="M447.0904 300 L459.0904 305 L456.0904 300 L459.0904 295 Z" clip-path="url(#clipPath2)" stroke="none"/>
      <text x="521.7992" xml:space="preserve" y="291.9248" clip-path="url(#clipPath2)" font-family="sans-serif" stroke="none">non</text>
      <path fill="none" d="M377.104 314.9707 L377.104 330 L377.104 338.1474 L342.104 338.1474 L342.104 346.5345" clip-path="url(#clipPath2)"/>
      <path d="M342.104 354.5345 L347.104 342.5345 L342.104 345.5345 L337.104 342.5345 Z" clip-path="url(#clipPath2)" stroke="none"/>
      <path fill="none" d="M377.104 315.015 L377.104 330 L377.104 338.1474 L411.764 338.1474 L411.764 346.5345" clip-path="url(#clipPath2)"/>
      <path d="M411.764 354.5345 L416.764 342.5345 L411.764 345.5345 L406.764 342.5345 Z" clip-path="url(#clipPath2)" stroke="none"/>
    </g>
  </g>
</svg>
