<?xml version="1.0" encoding="UTF-8"?><svg xmlns="http://www.w3.org/2000/svg" xmlns:xlink="http://www.w3.org/1999/xlink" fill-opacity="1" color-rendering="auto" color-interpolation="auto" text-rendering="auto" stroke="black" stroke-linecap="square" width="699" stroke-miterlimit="10" shape-rendering="auto" stroke-opacity="1" fill="black" stroke-dasharray="none" font-weight="normal" stroke-width="1" height="236" font-family="'Dialog'" font-style="normal" stroke-linejoin="miter" font-size="12px" stroke-dashoffset="0" image-rendering="auto">
  <!--Generated by ySVG 2.5-->
  <defs id="genericDefs"/>
  <g>
    <defs id="defs1">
      <linearGradient x1="431.4" gradientUnits="userSpaceOnUse" x2="719" y1="135" y2="165" id="linearGradient1" spreadMethod="reflect">
        <stop stop-opacity="1" stop-color="rgb(12,135,218)" offset="0%"/>
        <stop stop-opacity="1" stop-color="rgb(12,135,218)" offset="100%"/>
      </linearGradient>
      <linearGradient x1="913.6" gradientUnits="userSpaceOnUse" x2="1120" y1="135" y2="165" id="linearGradient2" spreadMethod="reflect">
        <stop stop-opacity="1" stop-color="rgb(124,191,51)" offset="0%"/>
        <stop stop-opacity="1" stop-color="rgb(124,191,51)" offset="100%"/>
      </linearGradient>
      <linearGradient x1="780" gradientUnits="userSpaceOnUse" x2="870" y1="224.8" y2="280.8" id="linearGradient3" spreadMethod="reflect">
        <stop stop-opacity="1" stop-color="rgb(234,234,234)" offset="0%"/>
        <stop stop-opacity="1" stop-color="rgb(204,204,204)" offset="100%"/>
      </linearGradient>
      <linearGradient x1="464" gradientUnits="userSpaceOnUse" x2="664" y1="315" y2="345" id="linearGradient4" spreadMethod="reflect">
        <stop stop-opacity="1" stop-color="rgb(234,234,234)" offset="0%"/>
        <stop stop-opacity="1" stop-color="white" offset="100%"/>
      </linearGradient>
      <linearGradient x1="474" gradientUnits="userSpaceOnUse" x2="654" y1="237.8" y2="267.8" id="linearGradient5" spreadMethod="reflect">
        <stop stop-opacity="1" stop-color="rgb(234,234,234)" offset="0%"/>
        <stop stop-opacity="1" stop-color="white" offset="100%"/>
      </linearGradient>
      <linearGradient x1="935" gradientUnits="userSpaceOnUse" x2="1105" y1="232.8" y2="272.8" id="linearGradient6" spreadMethod="reflect">
        <stop stop-opacity="1" stop-color="white" offset="0%"/>
        <stop stop-opacity="1" stop-color="rgb(234,234,234)" offset="100%"/>
      </linearGradient>
      <linearGradient x1="560" gradientUnits="userSpaceOnUse" x2="700" y1="276.4" y2="306.4" id="linearGradient7" spreadMethod="reflect">
        <stop stop-opacity="1" stop-color="rgb(234,234,234)" offset="0%"/>
        <stop stop-opacity="1" stop-color="white" offset="100%"/>
      </linearGradient>
      <clipPath clipPathUnits="userSpaceOnUse" id="clipPath1">
        <path d="M0 0 L699 0 L699 236 L0 236 L0 0 Z"/>
      </clipPath>
      <clipPath clipPathUnits="userSpaceOnUse" id="clipPath2">
        <path d="M426 130 L1125 130 L1125 366 L426 366 L426 130 Z"/>
      </clipPath>
      <clipPath clipPathUnits="userSpaceOnUse" id="clipPath3">
        <path d="M426 220.0012 L426 366 L1125 366 L1125 220.0012 Z"/>
      </clipPath>
      <clipPath clipPathUnits="userSpaceOnUse" id="clipPath4">
        <path d="M426 130 L426 220.0012 L1125 220.0012 L1125 130 Z"/>
      </clipPath>
    </defs>
    <g fill="url(#linearGradient1)" text-rendering="geometricPrecision" shape-rendering="geometricPrecision" transform="matrix(1,0,0,1,-426,-130)" stroke="url(#linearGradient1)">
      <path d="M431.4 135 L719 135 L719 165 L431.4 165 Z" stroke="none" clip-path="url(#clipPath2)"/>
    </g>
    <g stroke-linecap="butt" transform="matrix(1,0,0,1,-426,-130)" fill="white" text-rendering="geometricPrecision" font-family="sans-serif" shape-rendering="geometricPrecision" stroke="white" font-weight="bold" stroke-miterlimit="1.45">
      <text x="562.532" xml:space="preserve" y="154.7139" clip-path="url(#clipPath2)" stroke="none">CPU</text>
    </g>
    <g fill="url(#linearGradient2)" text-rendering="geometricPrecision" shape-rendering="geometricPrecision" transform="matrix(1,0,0,1,-426,-130)" stroke="url(#linearGradient2)">
      <path d="M913.6 135 L1120 135 L1120 165 L913.6 165 Z" stroke="none" clip-path="url(#clipPath2)"/>
    </g>
    <g stroke-linecap="butt" transform="matrix(1,0,0,1,-426,-130)" fill="white" text-rendering="geometricPrecision" font-family="sans-serif" shape-rendering="geometricPrecision" stroke="white" font-weight="bold" stroke-miterlimit="1.45">
      <text x="1003.798" xml:space="preserve" y="154.7139" clip-path="url(#clipPath2)" stroke="none">GPU</text>
    </g>
    <g fill="url(#linearGradient3)" text-rendering="geometricPrecision" shape-rendering="geometricPrecision" transform="matrix(1,0,0,1,-426,-130)" stroke="url(#linearGradient3)">
      <path d="M825 224.8 L870 252.8 L825 280.8 L780 252.8 Z" stroke="none" clip-path="url(#clipPath2)"/>
    </g>
    <g text-rendering="geometricPrecision" stroke-miterlimit="1.45" shape-rendering="geometricPrecision" transform="matrix(1,0,0,1,-426,-130)" stroke-linecap="butt">
      <path fill="none" d="M825 224.8 L870 252.8 L825 280.8 L780 252.8 Z" clip-path="url(#clipPath2)"/>
      <text x="798.3252" xml:space="preserve" y="257.5139" clip-path="url(#clipPath2)" font-family="sans-serif" stroke="none">GPGPU ?</text>
    </g>
    <g fill="white" text-rendering="geometricPrecision" shape-rendering="geometricPrecision" transform="matrix(1,0,0,1,-426,-130)" stroke="white">
      <rect x="431.4" y="193.3" clip-path="url(#clipPath3)" width="287.6" rx="4" ry="4" height="167" stroke="none"/>
      <rect x="431.4" y="193.3" clip-path="url(#clipPath4)" fill="rgb(204,204,204)" width="287.6" rx="4" ry="4" height="167" stroke="none"/>
    </g>
    <g text-rendering="geometricPrecision" stroke-miterlimit="1.45" shape-rendering="geometricPrecision" transform="matrix(1,0,0,1,-426,-130)" stroke-linecap="butt">
      <rect x="431.4" y="193.3" clip-path="url(#clipPath2)" fill="none" width="287.6" rx="4" ry="4" height="167"/>
      <line y2="220.0012" fill="none" x1="431.4" clip-path="url(#clipPath2)" x2="719" y1="220.0012"/>
      <text x="534.8436" xml:space="preserve" y="211.3645" clip-path="url(#clipPath2)" font-family="sans-serif" stroke="none">Environnement</text>
    </g>
    <g fill="url(#linearGradient4)" text-rendering="geometricPrecision" shape-rendering="geometricPrecision" transform="matrix(1,0,0,1,-426,-130)" stroke="url(#linearGradient4)">
      <path d="M464 315 L664 315 L664 345 L464 345 Z" stroke="none" clip-path="url(#clipPath2)"/>
    </g>
    <g text-rendering="geometricPrecision" stroke-miterlimit="1.45" shape-rendering="geometricPrecision" transform="matrix(1,0,0,1,-426,-130)" stroke-linecap="butt">
      <path fill="none" d="M464 315 L664 315 L664 345 L464 345 Z" clip-path="url(#clipPath2)"/>
      <text x="479.625" xml:space="preserve" y="334.7139" clip-path="url(#clipPath2)" font-family="sans-serif" stroke="none">Mise à jour de la grille des états</text>
    </g>
    <g fill="url(#linearGradient5)" text-rendering="geometricPrecision" shape-rendering="geometricPrecision" transform="matrix(1,0,0,1,-426,-130)" stroke="url(#linearGradient5)">
      <path d="M474 237.8 L654 237.8 L654 267.8 L474 267.8 Z" stroke="none" clip-path="url(#clipPath2)"/>
    </g>
    <g text-rendering="geometricPrecision" stroke-miterlimit="1.45" shape-rendering="geometricPrecision" transform="matrix(1,0,0,1,-426,-130)" stroke-linecap="butt">
      <path fill="none" d="M474 237.8 L654 237.8 L654 267.8 L474 267.8 Z" clip-path="url(#clipPath2)"/>
      <text x="506.9678" xml:space="preserve" y="257.5139" clip-path="url(#clipPath2)" font-family="sans-serif" stroke="none">Calcul du pas suivant</text>
    </g>
    <g text-rendering="geometricPrecision" stroke-miterlimit="1.45" stroke-dasharray="6,2" shape-rendering="geometricPrecision" transform="matrix(1,0,0,1,-426,-130)" stroke-linecap="butt">
      <path fill="none" d="M913.6 193.3 L1120 193.3 L1120 360.3 L913.6 360.3 Z" clip-path="url(#clipPath2)"/>
      <text x="919.6" y="211.3645" clip-path="url(#clipPath2)" font-family="sans-serif" stroke-dasharray="none" stroke="none" xml:space="preserve">Module GPU</text>
    </g>
    <g fill="url(#linearGradient6)" text-rendering="geometricPrecision" shape-rendering="geometricPrecision" transform="matrix(1,0,0,1,-426,-130)" stroke="url(#linearGradient6)">
      <path d="M935 232.8 L1105 232.8 L1105 272.8 L935 272.8 Z" stroke="none" clip-path="url(#clipPath2)"/>
    </g>
    <g text-rendering="geometricPrecision" stroke-miterlimit="1.45" shape-rendering="geometricPrecision" transform="matrix(1,0,0,1,-426,-130)" stroke-linecap="butt">
      <path fill="none" d="M935 232.8 L1105 232.8 L1105 272.8 L935 272.8 Z" clip-path="url(#clipPath2)"/>
      <text x="993.6475" xml:space="preserve" y="257.5139" clip-path="url(#clipPath2)" font-family="sans-serif" stroke="none">Voisinage</text>
    </g>
    <g fill="url(#linearGradient7)" text-rendering="geometricPrecision" shape-rendering="geometricPrecision" transform="matrix(1,0,0,1,-426,-130)" stroke="url(#linearGradient7)">
      <path d="M560 276.4 L700 276.4 L700 306.4 L560 306.4 Z" stroke="none" clip-path="url(#clipPath2)"/>
    </g>
    <g text-rendering="geometricPrecision" stroke-miterlimit="1.45" shape-rendering="geometricPrecision" transform="matrix(1,0,0,1,-426,-130)" stroke-linecap="butt">
      <path fill="none" d="M560 276.4 L700 276.4 L700 306.4 L560 306.4 Z" clip-path="url(#clipPath2)"/>
      <text x="573.3047" xml:space="preserve" y="296.1139" clip-path="url(#clipPath2)" font-family="sans-serif" stroke="none">Détection des voisins</text>
    </g>
    <g text-rendering="geometricPrecision" stroke-miterlimit="1.45" shape-rendering="geometricPrecision" transform="matrix(1,0,0,1,-426,-130)" stroke-linecap="butt">
      <path fill="none" d="M463.9995 330 L450 330 L450 252.8 L466.019 252.8" clip-path="url(#clipPath2)"/>
    </g>
    <g text-rendering="geometricPrecision" stroke-miterlimit="1.45" shape-rendering="geometricPrecision" transform="matrix(1,0,0,1,-426,-130)" stroke-linecap="butt">
      <path d="M474.019 252.8 L462.019 247.8 L465.019 252.8 L462.019 257.8 Z" stroke="none" clip-path="url(#clipPath2)"/>
      <path fill="none" d="M654.0055 252.8 L772.0388 252.8" clip-path="url(#clipPath2)"/>
      <path d="M780.0388 252.8 L768.0388 247.8 L771.0388 252.8 L768.0388 257.8 Z" clip-path="url(#clipPath2)" stroke="none"/>
      <path fill="none" d="M869.989 252.8 L926.9962 252.8" clip-path="url(#clipPath2)"/>
      <path d="M934.9962 252.8 L922.9962 247.8 L925.9962 252.8 L922.9962 257.8 Z" clip-path="url(#clipPath2)" stroke="none"/>
      <text x="876.0775" xml:space="preserve" y="245.2609" clip-path="url(#clipPath2)" font-family="sans-serif" stroke="none">oui</text>
      <path fill="none" d="M1020 272.8162 L1020 330 L672.0005 330" clip-path="url(#clipPath2)"/>
      <path d="M664.0005 330 L676.0005 335 L673.0005 330 L676.0005 325 Z" clip-path="url(#clipPath2)" stroke="none"/>
      <path fill="none" d="M825 280.8076 L825 291.4 L707.9915 291.4" clip-path="url(#clipPath2)"/>
      <path d="M699.9915 291.4 L711.9915 296.4 L708.9915 291.4 L711.9915 286.4 Z" clip-path="url(#clipPath2)" stroke="none"/>
      <text x="796.2439" xml:space="preserve" y="287.483" clip-path="url(#clipPath2)" font-family="sans-serif" stroke="none">non</text>
      <path fill="none" d="M560.0098 291.4 L510 291.4 L510 306.9663" clip-path="url(#clipPath2)"/>
      <path d="M510 314.9663 L515 302.9663 L510 305.9663 L505 302.9663 Z" clip-path="url(#clipPath2)" stroke="none"/>
    </g>
  </g>
</svg>
