<?xml version="1.0" encoding="UTF-8"?><svg xmlns="http://www.w3.org/2000/svg" xmlns:xlink="http://www.w3.org/1999/xlink" fill-opacity="1" color-rendering="auto" color-interpolation="auto" text-rendering="auto" stroke="black" stroke-linecap="square" width="890" stroke-miterlimit="10" shape-rendering="auto" stroke-opacity="1" fill="black" stroke-dasharray="none" font-weight="normal" stroke-width="1" height="259" font-family="'Dialog'" font-style="normal" stroke-linejoin="miter" font-size="12px" stroke-dashoffset="0" image-rendering="auto">
  <!--Generated by ySVG 2.5-->
  <defs id="genericDefs"/>
  <g>
    <defs id="defs1">
      <linearGradient x1="240" gradientUnits="userSpaceOnUse" x2="740" y1="135" y2="165" id="linearGradient1" spreadMethod="reflect">
        <stop stop-opacity="1" stop-color="rgb(12,135,218)" offset="0%"/>
        <stop stop-opacity="1" stop-color="rgb(12,135,218)" offset="100%"/>
      </linearGradient>
      <linearGradient x1="920" gradientUnits="userSpaceOnUse" x2="1120" y1="135" y2="165" id="linearGradient2" spreadMethod="reflect">
        <stop stop-opacity="1" stop-color="rgb(124,191,51)" offset="0%"/>
        <stop stop-opacity="1" stop-color="rgb(124,191,51)" offset="100%"/>
      </linearGradient>
      <linearGradient x1="792.5" gradientUnits="userSpaceOnUse" x2="882.5" y1="222.4652" y2="278.4652" id="linearGradient3" spreadMethod="reflect">
        <stop stop-opacity="1" stop-color="rgb(234,234,234)" offset="0%"/>
        <stop stop-opacity="1" stop-color="rgb(204,204,204)" offset="100%"/>
      </linearGradient>
      <linearGradient x1="322.84" gradientUnits="userSpaceOnUse" x2="442.84" y1="255" y2="285" id="linearGradient4" spreadMethod="reflect">
        <stop stop-opacity="1" stop-color="rgb(234,234,234)" offset="0%"/>
        <stop stop-opacity="1" stop-color="white" offset="100%"/>
      </linearGradient>
      <linearGradient x1="555" gradientUnits="userSpaceOnUse" x2="725" y1="255" y2="285" id="linearGradient5" spreadMethod="reflect">
        <stop stop-opacity="1" stop-color="rgb(234,234,234)" offset="0%"/>
        <stop stop-opacity="1" stop-color="white" offset="100%"/>
      </linearGradient>
      <linearGradient x1="940" gradientUnits="userSpaceOnUse" x2="1100" y1="230.4652" y2="270.4652" id="linearGradient6" spreadMethod="reflect">
        <stop stop-opacity="1" stop-color="white" offset="0%"/>
        <stop stop-opacity="1" stop-color="rgb(234,234,234)" offset="100%"/>
      </linearGradient>
      <linearGradient x1="277.84" gradientUnits="userSpaceOnUse" x2="327.84" y1="324.4074" y2="354.4074" id="linearGradient7" spreadMethod="reflect">
        <stop stop-opacity="1" stop-color="rgb(234,234,234)" offset="0%"/>
        <stop stop-opacity="1" stop-color="white" offset="100%"/>
      </linearGradient>
      <linearGradient x1="357.84" gradientUnits="userSpaceOnUse" x2="407.84" y1="324.4074" y2="354.4074" id="linearGradient8" spreadMethod="reflect">
        <stop stop-opacity="1" stop-color="rgb(234,234,234)" offset="0%"/>
        <stop stop-opacity="1" stop-color="white" offset="100%"/>
      </linearGradient>
      <linearGradient x1="437.84" gradientUnits="userSpaceOnUse" x2="487.84" y1="324.4074" y2="354.4074" id="linearGradient9" spreadMethod="reflect">
        <stop stop-opacity="1" stop-color="rgb(234,234,234)" offset="0%"/>
        <stop stop-opacity="1" stop-color="white" offset="100%"/>
      </linearGradient>
      <linearGradient x1="640" gradientUnits="userSpaceOnUse" x2="720" y1="304.2536" y2="334.2536" id="linearGradient10" spreadMethod="reflect">
        <stop stop-opacity="1" stop-color="rgb(234,234,234)" offset="0%"/>
        <stop stop-opacity="1" stop-color="white" offset="100%"/>
      </linearGradient>
      <clipPath clipPathUnits="userSpaceOnUse" id="clipPath1">
        <path d="M0 0 L890 0 L890 259 L0 259 L0 0 Z"/>
      </clipPath>
      <clipPath clipPathUnits="userSpaceOnUse" id="clipPath2">
        <path d="M235 130 L1125 130 L1125 389 L235 389 L235 130 Z"/>
      </clipPath>
      <clipPath clipPathUnits="userSpaceOnUse" id="clipPath3">
        <path d="M235 220.0012 L235 389 L1125 389 L1125 220.0012 Z"/>
      </clipPath>
      <clipPath clipPathUnits="userSpaceOnUse" id="clipPath4">
        <path d="M235 130 L235 220.0012 L1125 220.0012 L1125 130 Z"/>
      </clipPath>
    </defs>
    <g fill="url(#linearGradient1)" text-rendering="geometricPrecision" shape-rendering="geometricPrecision" transform="matrix(1,0,0,1,-235,-130)" stroke="url(#linearGradient1)">
      <path d="M240 135 L740 135 L740 165 L240 165 Z" stroke="none" clip-path="url(#clipPath2)"/>
    </g>
    <g stroke-linecap="butt" transform="matrix(1,0,0,1,-235,-130)" fill="white" text-rendering="geometricPrecision" font-family="sans-serif" shape-rendering="geometricPrecision" stroke="white" font-weight="bold" stroke-miterlimit="1.45">
      <text x="477.332" xml:space="preserve" y="154.7139" clip-path="url(#clipPath2)" stroke="none">CPU</text>
    </g>
    <g fill="url(#linearGradient2)" text-rendering="geometricPrecision" shape-rendering="geometricPrecision" transform="matrix(1,0,0,1,-235,-130)" stroke="url(#linearGradient2)">
      <path d="M920 135 L1120 135 L1120 165 L920 165 Z" stroke="none" clip-path="url(#clipPath2)"/>
    </g>
    <g stroke-linecap="butt" transform="matrix(1,0,0,1,-235,-130)" fill="white" text-rendering="geometricPrecision" font-family="sans-serif" shape-rendering="geometricPrecision" stroke="white" font-weight="bold" stroke-miterlimit="1.45">
      <text x="1006.998" xml:space="preserve" y="154.7139" clip-path="url(#clipPath2)" stroke="none">GPU</text>
    </g>
    <g fill="url(#linearGradient3)" text-rendering="geometricPrecision" shape-rendering="geometricPrecision" transform="matrix(1,0,0,1,-235,-130)" stroke="url(#linearGradient3)">
      <path d="M837.5 222.4652 L882.5 250.4652 L837.5 278.4652 L792.5 250.4652 Z" stroke="none" clip-path="url(#clipPath2)"/>
    </g>
    <g text-rendering="geometricPrecision" stroke-miterlimit="1.45" shape-rendering="geometricPrecision" transform="matrix(1,0,0,1,-235,-130)" stroke-linecap="butt">
      <path fill="none" d="M837.5 222.4652 L882.5 250.4652 L837.5 278.4652 L792.5 250.4652 Z" clip-path="url(#clipPath2)"/>
      <text x="810.8252" xml:space="preserve" y="255.1791" clip-path="url(#clipPath2)" font-family="sans-serif" stroke="none">GPGPU ?</text>
    </g>
    <g fill="white" text-rendering="geometricPrecision" shape-rendering="geometricPrecision" transform="matrix(1,0,0,1,-235,-130)" stroke="white">
      <rect x="240" y="193.3" clip-path="url(#clipPath3)" width="270" rx="4" ry="4" height="190" stroke="none"/>
      <rect x="240" y="193.3" clip-path="url(#clipPath4)" fill="rgb(204,204,204)" width="270" rx="4" ry="4" height="190" stroke="none"/>
    </g>
    <g text-rendering="geometricPrecision" stroke-miterlimit="1.45" shape-rendering="geometricPrecision" transform="matrix(1,0,0,1,-235,-130)" stroke-linecap="butt">
      <rect x="240" y="193.3" clip-path="url(#clipPath2)" fill="none" width="270" rx="4" ry="4" height="190"/>
      <line y2="220.0012" fill="none" x1="240" clip-path="url(#clipPath2)" x2="510" y1="220.0012"/>
      <text x="356.3203" xml:space="preserve" y="211.3645" clip-path="url(#clipPath2)" font-family="sans-serif" stroke="none">Agents</text>
    </g>
    <g fill="url(#linearGradient4)" text-rendering="geometricPrecision" shape-rendering="geometricPrecision" transform="matrix(1,0,0,1,-235,-130)" stroke="url(#linearGradient4)">
      <path d="M322.84 255 L442.84 255 L442.84 285 L322.84 285 Z" stroke="none" clip-path="url(#clipPath2)"/>
    </g>
    <g text-rendering="geometricPrecision" stroke-miterlimit="1.45" shape-rendering="geometricPrecision" transform="matrix(1,0,0,1,-235,-130)" stroke-linecap="butt">
      <path fill="none" d="M322.84 255 L442.84 255 L442.84 285 L322.84 285 Z" clip-path="url(#clipPath2)"/>
      <text x="353.4962" xml:space="preserve" y="274.7139" clip-path="url(#clipPath2)" font-family="sans-serif" stroke="none">Mise à jour</text>
    </g>
    <g fill="white" text-rendering="geometricPrecision" shape-rendering="geometricPrecision" transform="matrix(1,0,0,1,-235,-130)" stroke="white">
      <rect x="534" y="193.3" clip-path="url(#clipPath3)" width="206" rx="4" ry="4" height="161.1074" stroke="none"/>
      <rect x="534" y="193.3" clip-path="url(#clipPath4)" fill="rgb(204,204,204)" width="206" rx="4" ry="4" height="161.1074" stroke="none"/>
    </g>
    <g text-rendering="geometricPrecision" stroke-miterlimit="1.45" shape-rendering="geometricPrecision" transform="matrix(1,0,0,1,-235,-130)" stroke-linecap="butt">
      <rect x="534" y="193.3" clip-path="url(#clipPath2)" fill="none" width="206" rx="4" ry="4" height="161.1074"/>
      <line y2="220.0012" fill="none" x1="534" clip-path="url(#clipPath2)" x2="740" y1="220.0012"/>
      <text x="596.6436" xml:space="preserve" y="211.3645" clip-path="url(#clipPath2)" font-family="sans-serif" stroke="none">Environnement</text>
    </g>
    <g fill="url(#linearGradient5)" text-rendering="geometricPrecision" shape-rendering="geometricPrecision" transform="matrix(1,0,0,1,-235,-130)" stroke="url(#linearGradient5)">
      <path d="M555 255 L725 255 L725 285 L555 285 Z" stroke="none" clip-path="url(#clipPath2)"/>
    </g>
    <g text-rendering="geometricPrecision" stroke-miterlimit="1.45" shape-rendering="geometricPrecision" transform="matrix(1,0,0,1,-235,-130)" stroke-linecap="butt">
      <path fill="none" d="M555 255 L725 255 L725 285 L555 285 Z" clip-path="url(#clipPath2)"/>
      <text x="586.2959" xml:space="preserve" y="274.7139" clip-path="url(#clipPath2)" font-family="sans-serif" stroke="none">Données de chaleur</text>
    </g>
    <g text-rendering="geometricPrecision" stroke-miterlimit="1.45" stroke-dasharray="6,2" shape-rendering="geometricPrecision" transform="matrix(1,0,0,1,-235,-130)" stroke-linecap="butt">
      <path fill="none" d="M920 193.3 L1120 193.3 L1120 354.4074 L920 354.4074 Z" clip-path="url(#clipPath2)"/>
      <text x="926" y="211.3645" clip-path="url(#clipPath2)" font-family="sans-serif" stroke-dasharray="none" stroke="none" xml:space="preserve">Module GPU</text>
    </g>
    <g fill="url(#linearGradient6)" text-rendering="geometricPrecision" shape-rendering="geometricPrecision" transform="matrix(1,0,0,1,-235,-130)" stroke="url(#linearGradient6)">
      <path d="M940 230.4652 L1100 230.4652 L1100 270.4652 L940 270.4652 Z" stroke="none" clip-path="url(#clipPath2)"/>
    </g>
    <g text-rendering="geometricPrecision" stroke-miterlimit="1.45" shape-rendering="geometricPrecision" transform="matrix(1,0,0,1,-235,-130)" stroke-linecap="butt">
      <path fill="none" d="M940 230.4652 L1100 230.4652 L1100 270.4652 L940 270.4652 Z" clip-path="url(#clipPath2)"/>
      <text x="996.6562" xml:space="preserve" y="255.1791" clip-path="url(#clipPath2)" font-family="sans-serif" stroke="none">Diffusion</text>
    </g>
    <g fill="url(#linearGradient7)" text-rendering="geometricPrecision" shape-rendering="geometricPrecision" transform="matrix(1,0,0,1,-235,-130)" stroke="url(#linearGradient7)">
      <path d="M277.84 324.4074 L327.84 324.4074 L327.84 354.4074 L277.84 354.4074 Z" stroke="none" clip-path="url(#clipPath2)"/>
    </g>
    <g text-rendering="geometricPrecision" stroke-miterlimit="1.45" shape-rendering="geometricPrecision" transform="matrix(1,0,0,1,-235,-130)" stroke-linecap="butt">
      <path fill="none" d="M277.84 324.4074 L327.84 324.4074 L327.84 354.4074 L277.84 354.4074 Z" clip-path="url(#clipPath2)"/>
      <text x="286.1642" xml:space="preserve" y="344.1212" clip-path="url(#clipPath2)" font-family="sans-serif" stroke="none">Vivant</text>
    </g>
    <g fill="url(#linearGradient8)" text-rendering="geometricPrecision" shape-rendering="geometricPrecision" transform="matrix(1,0,0,1,-235,-130)" stroke="url(#linearGradient8)">
      <path d="M357.84 324.4074 L407.84 324.4074 L407.84 354.4074 L357.84 354.4074 Z" stroke="none" clip-path="url(#clipPath2)"/>
    </g>
    <g text-rendering="geometricPrecision" stroke-miterlimit="1.45" shape-rendering="geometricPrecision" transform="matrix(1,0,0,1,-235,-130)" stroke-linecap="butt">
      <path fill="none" d="M357.84 324.4074 L407.84 324.4074 L407.84 354.4074 L357.84 354.4074 Z" clip-path="url(#clipPath2)"/>
      <text x="365.4933" xml:space="preserve" y="344.1212" clip-path="url(#clipPath2)" font-family="sans-serif" stroke="none">En feu</text>
    </g>
    <g fill="url(#linearGradient9)" text-rendering="geometricPrecision" shape-rendering="geometricPrecision" transform="matrix(1,0,0,1,-235,-130)" stroke="url(#linearGradient9)">
      <path d="M437.84 324.4074 L487.84 324.4074 L487.84 354.4074 L437.84 354.4074 Z" stroke="none" clip-path="url(#clipPath2)"/>
    </g>
    <g text-rendering="geometricPrecision" stroke-miterlimit="1.45" shape-rendering="geometricPrecision" transform="matrix(1,0,0,1,-235,-130)" stroke-linecap="butt">
      <path fill="none" d="M437.84 324.4074 L487.84 324.4074 L487.84 354.4074 L437.84 354.4074 Z" clip-path="url(#clipPath2)"/>
      <text x="450.84" xml:space="preserve" y="344.1212" clip-path="url(#clipPath2)" font-family="sans-serif" stroke="none">Mort</text>
    </g>
    <g fill="url(#linearGradient10)" text-rendering="geometricPrecision" shape-rendering="geometricPrecision" transform="matrix(1,0,0,1,-235,-130)" stroke="url(#linearGradient10)">
      <path d="M640 304.2536 L720 304.2536 L720 334.2536 L640 334.2536 Z" stroke="none" clip-path="url(#clipPath2)"/>
    </g>
    <g text-rendering="geometricPrecision" stroke-miterlimit="1.45" shape-rendering="geometricPrecision" transform="matrix(1,0,0,1,-235,-130)" stroke-linecap="butt">
      <path fill="none" d="M640 304.2536 L720 304.2536 L720 334.2536 L640 334.2536 Z" clip-path="url(#clipPath2)"/>
      <text x="656.6562" xml:space="preserve" y="323.9675" clip-path="url(#clipPath2)" font-family="sans-serif" stroke="none">Diffusion</text>
    </g>
    <g text-rendering="geometricPrecision" stroke-miterlimit="1.45" shape-rendering="geometricPrecision" transform="matrix(1,0,0,1,-235,-130)" stroke-linecap="butt">
      <path fill="none" d="M555.0229 270 L450.8266 270" clip-path="url(#clipPath2)"/>
    </g>
    <g text-rendering="geometricPrecision" stroke-miterlimit="1.45" shape-rendering="geometricPrecision" transform="matrix(1,0,0,1,-235,-130)" stroke-linecap="butt">
      <path d="M442.8266 270 L454.8266 275 L451.8266 270 L454.8266 265 Z" stroke="none" clip-path="url(#clipPath2)"/>
      <path fill="none" d="M724.9976 270 L750 270 L750 250.4652 L784.511 250.4652" clip-path="url(#clipPath2)"/>
      <path d="M792.511 250.4652 L780.511 245.4652 L783.511 250.4652 L780.511 255.4652 Z" clip-path="url(#clipPath2)" stroke="none"/>
      <path fill="none" d="M882.4567 250.4652 L931.9791 250.4652" clip-path="url(#clipPath2)"/>
      <path d="M939.9791 250.4652 L927.9791 245.4652 L930.9791 250.4652 L927.9791 255.4652 Z" clip-path="url(#clipPath2)" stroke="none"/>
      <text x="888.9523" xml:space="preserve" y="243.1174" clip-path="url(#clipPath2)" font-family="sans-serif" stroke="none">oui</text>
      <path fill="none" d="M1020 270.5096 L1020 341.8925 L600 341.8925 L600 293.0298" clip-path="url(#clipPath2)"/>
      <path d="M600 285.0298 L595 297.0298 L600 294.0298 L605 297.0298 Z" clip-path="url(#clipPath2)" stroke="none"/>
      <path fill="none" d="M382.84 285.025 L382.84 305.2074 L302.84 305.2074 L302.84 316.4115" clip-path="url(#clipPath2)"/>
      <path d="M302.84 324.4115 L307.84 312.4115 L302.84 315.4115 L297.84 312.4115 Z" clip-path="url(#clipPath2)" stroke="none"/>
      <path fill="none" d="M302.84 354.3834 L302.84 370.7682 L262.84 370.7682 L262.84 234.1018 L640 234.1018 L640 247.0307" clip-path="url(#clipPath2)"/>
      <path d="M640 255.0307 L645 243.0307 L640 246.0307 L635 243.0307 Z" clip-path="url(#clipPath2)" stroke="none"/>
      <path fill="none" d="M382.84 285.0134 L382.84 316.4012" clip-path="url(#clipPath2)"/>
      <path d="M382.84 324.4012 L387.84 312.4012 L382.84 315.4012 L377.84 312.4012 Z" clip-path="url(#clipPath2)" stroke="none"/>
      <path fill="none" d="M382.84 354.3834 L382.84 370.7682 L262.84 370.7682 L262.84 234.1018 L640 234.1018 L640 247.0307" clip-path="url(#clipPath2)"/>
      <path d="M640 255.0307 L645 243.0307 L640 246.0307 L635 243.0307 Z" clip-path="url(#clipPath2)" stroke="none"/>
      <path fill="none" d="M382.84 285.025 L382.84 305.2074 L462.84 305.2074 L462.84 316.4115" clip-path="url(#clipPath2)"/>
      <path d="M462.84 324.4115 L467.84 312.4115 L462.84 315.4115 L457.84 312.4115 Z" clip-path="url(#clipPath2)" stroke="none"/>
      <path fill="none" d="M462.84 354.3834 L462.84 370.7682 L262.84 370.7682 L262.84 234.1018 L640 234.1018 L640 247.0307" clip-path="url(#clipPath2)"/>
      <path d="M640 255.0307 L645 243.0307 L640 246.0307 L635 243.0307 Z" clip-path="url(#clipPath2)" stroke="none"/>
      <path fill="none" d="M837.5 278.4441 L837.5 319.2536 L728.0189 319.2536" clip-path="url(#clipPath2)"/>
      <path d="M720.0189 319.2536 L732.0189 324.2536 L729.0189 319.2536 L732.0189 314.2536 Z" clip-path="url(#clipPath2)" stroke="none"/>
      <text x="811.1724" xml:space="preserve" y="293.0886" clip-path="url(#clipPath2)" font-family="sans-serif" stroke="none">non</text>
      <path fill="none" d="M680 304.2997 L680 293.0296" clip-path="url(#clipPath2)"/>
      <path d="M680 285.0296 L675 297.0296 L680 294.0296 L685 297.0296 Z" clip-path="url(#clipPath2)" stroke="none"/>
    </g>
  </g>
</svg>
