<?xml version="1.0" encoding="UTF-8"?><svg xmlns="http://www.w3.org/2000/svg" xmlns:xlink="http://www.w3.org/1999/xlink" fill-opacity="1" color-rendering="auto" color-interpolation="auto" text-rendering="auto" stroke="black" stroke-linecap="square" width="1052" stroke-miterlimit="10" shape-rendering="auto" stroke-opacity="1" fill="black" stroke-dasharray="none" font-weight="normal" stroke-width="1" height="345" font-family="'Dialog'" font-style="normal" stroke-linejoin="miter" font-size="12px" stroke-dashoffset="0" image-rendering="auto">
  <!--Generated by ySVG 2.5-->
  <defs id="genericDefs"/>
  <g>
    <defs id="defs1">
      <linearGradient x1="245.75" gradientUnits="userSpaceOnUse" x2="395.75" y1="285" y2="315" id="linearGradient1" spreadMethod="reflect">
        <stop stop-opacity="1" stop-color="rgb(234,234,234)" offset="0%"/>
        <stop stop-opacity="1" stop-color="rgb(204,204,204)" offset="100%"/>
      </linearGradient>
      <linearGradient x1="198.75" gradientUnits="userSpaceOnUse" x2="228.75" y1="340" y2="550" id="linearGradient2" spreadMethod="reflect">
        <stop stop-opacity="1" stop-color="rgb(232,238,247)" offset="0%"/>
        <stop stop-opacity="1" stop-color="rgb(232,238,247)" offset="100%"/>
      </linearGradient>
      <linearGradient x1="497.75" gradientUnits="userSpaceOnUse" x2="647.75" y1="285" y2="315" id="linearGradient3" spreadMethod="reflect">
        <stop stop-opacity="1" stop-color="rgb(234,234,234)" offset="0%"/>
        <stop stop-opacity="1" stop-color="rgb(204,204,204)" offset="100%"/>
      </linearGradient>
      <linearGradient x1="450.75" gradientUnits="userSpaceOnUse" x2="480.75" y1="340" y2="550" id="linearGradient4" spreadMethod="reflect">
        <stop stop-opacity="1" stop-color="rgb(232,238,247)" offset="0%"/>
        <stop stop-opacity="1" stop-color="rgb(232,238,247)" offset="100%"/>
      </linearGradient>
      <linearGradient x1="749.75" gradientUnits="userSpaceOnUse" x2="909.75" y1="285" y2="315" id="linearGradient5" spreadMethod="reflect">
        <stop stop-opacity="1" stop-color="rgb(234,234,234)" offset="0%"/>
        <stop stop-opacity="1" stop-color="rgb(204,204,204)" offset="100%"/>
      </linearGradient>
      <linearGradient x1="704.75" gradientUnits="userSpaceOnUse" x2="734.75" y1="340" y2="550" id="linearGradient6" spreadMethod="reflect">
        <stop stop-opacity="1" stop-color="rgb(232,238,247)" offset="0%"/>
        <stop stop-opacity="1" stop-color="rgb(232,238,247)" offset="100%"/>
      </linearGradient>
      <linearGradient x1="1019.25" gradientUnits="userSpaceOnUse" x2="1214.25" y1="285" y2="315" id="linearGradient7" spreadMethod="reflect">
        <stop stop-opacity="1" stop-color="rgb(234,234,234)" offset="0%"/>
        <stop stop-opacity="1" stop-color="rgb(204,204,204)" offset="100%"/>
      </linearGradient>
      <linearGradient x1="964.75" gradientUnits="userSpaceOnUse" x2="994.75" y1="340" y2="550" id="linearGradient8" spreadMethod="reflect">
        <stop stop-opacity="1" stop-color="rgb(232,238,247)" offset="0%"/>
        <stop stop-opacity="1" stop-color="rgb(232,238,247)" offset="100%"/>
      </linearGradient>
      <clipPath clipPathUnits="userSpaceOnUse" id="clipPath1">
        <path d="M0 0 L1052 0 L1052 345 L0 345 L0 0 Z"/>
      </clipPath>
      <clipPath clipPathUnits="userSpaceOnUse" id="clipPath2">
        <path d="M168 275 L1220 275 L1220 620 L168 620 L168 275 Z"/>
      </clipPath>
      <clipPath clipPathUnits="userSpaceOnUse" id="clipPath3">
        <path d="M196.0176 -36.3994 L196.0176 1015.6006 L-148.9824 1015.6006 L-148.9824 -36.3994 L196.0176 -36.3994 Z"/>
      </clipPath>
      <clipPath clipPathUnits="userSpaceOnUse" id="clipPath4">
        <path d="M196.0176 -288.3994 L196.0176 763.6006 L-148.9824 763.6006 L-148.9824 -288.3994 L196.0176 -288.3994 Z"/>
      </clipPath>
      <clipPath clipPathUnits="userSpaceOnUse" id="clipPath5">
        <path d="M196.0176 -542.3994 L196.0176 509.6006 L-148.9824 509.6006 L-148.9824 -542.3994 L196.0176 -542.3994 Z"/>
      </clipPath>
      <clipPath clipPathUnits="userSpaceOnUse" id="clipPath6">
        <path d="M196.0176 -802.3994 L196.0176 249.6006 L-148.9824 249.6006 L-148.9824 -802.3994 L196.0176 -802.3994 Z"/>
      </clipPath>
    </defs>
    <g fill="url(#linearGradient1)" text-rendering="geometricPrecision" shape-rendering="geometricPrecision" transform="matrix(1,0,0,1,-168,-275)" stroke="url(#linearGradient1)">
      <path d="M245.75 285 L395.75 285 L395.75 315 L245.75 315 Z" stroke="none" clip-path="url(#clipPath2)"/>
    </g>
    <g text-rendering="geometricPrecision" stroke-miterlimit="1.45" shape-rendering="geometricPrecision" transform="matrix(1,0,0,1,-168,-275)" stroke-linecap="butt">
      <path fill="none" d="M245.75 285 L395.75 285 L395.75 315 L245.75 315 Z" clip-path="url(#clipPath2)"/>
      <text x="290.0703" xml:space="preserve" y="304.7139" clip-path="url(#clipPath2)" font-family="sans-serif" stroke="none">Instructions</text>
    </g>
    <g fill="url(#linearGradient2)" text-rendering="geometricPrecision" shape-rendering="geometricPrecision" transform="matrix(1,0,0,1,-168,-275)" stroke="url(#linearGradient2)">
      <path d="M198.75 340 L228.75 340 L228.75 550 L198.75 550 Z" stroke="none" clip-path="url(#clipPath2)"/>
    </g>
    <g text-rendering="geometricPrecision" stroke-miterlimit="1.45" shape-rendering="geometricPrecision" transform="matrix(1,0,0,1,-168,-275)" stroke-linecap="butt">
      <path fill="none" d="M198.75 340 L228.75 340 L228.75 550 L198.75 550 Z" clip-path="url(#clipPath2)"/>
    </g>
    <g text-rendering="geometricPrecision" stroke-miterlimit="1.45" shape-rendering="geometricPrecision" font-family="sans-serif" transform="matrix(-0,-1,1,-0,36.3994,196.0176)" stroke-linecap="butt">
      <text x="2" xml:space="preserve" y="14.0645" clip-path="url(#clipPath3)" stroke="none">Données</text>
    </g>
    <g text-rendering="geometricPrecision" stroke-miterlimit="1.45" shape-rendering="geometricPrecision" transform="matrix(1,0,0,1,-168,-275)" stroke-linecap="butt">
      <path fill="none" d="M305.75 430 L335.75 430 L335.75 460 L305.75 460 Z" clip-path="url(#clipPath2)"/>
      <text x="312.415" xml:space="preserve" y="449.7139" clip-path="url(#clipPath2)" font-family="sans-serif" stroke="none">PU</text>
    </g>
    <g fill="url(#linearGradient3)" text-rendering="geometricPrecision" shape-rendering="geometricPrecision" transform="matrix(1,0,0,1,-168,-275)" stroke="url(#linearGradient3)">
      <path d="M497.75 285 L647.75 285 L647.75 315 L497.75 315 Z" stroke="none" clip-path="url(#clipPath2)"/>
    </g>
    <g text-rendering="geometricPrecision" stroke-miterlimit="1.45" shape-rendering="geometricPrecision" transform="matrix(1,0,0,1,-168,-275)" stroke-linecap="butt">
      <path fill="none" d="M497.75 285 L647.75 285 L647.75 315 L497.75 315 Z" clip-path="url(#clipPath2)"/>
      <text x="542.0703" xml:space="preserve" y="304.7139" clip-path="url(#clipPath2)" font-family="sans-serif" stroke="none">Instructions</text>
    </g>
    <g fill="url(#linearGradient4)" text-rendering="geometricPrecision" shape-rendering="geometricPrecision" transform="matrix(1,0,0,1,-168,-275)" stroke="url(#linearGradient4)">
      <path d="M450.75 340 L480.75 340 L480.75 550 L450.75 550 Z" stroke="none" clip-path="url(#clipPath2)"/>
    </g>
    <g text-rendering="geometricPrecision" stroke-miterlimit="1.45" shape-rendering="geometricPrecision" transform="matrix(1,0,0,1,-168,-275)" stroke-linecap="butt">
      <path fill="none" d="M450.75 340 L480.75 340 L480.75 550 L450.75 550 Z" clip-path="url(#clipPath2)"/>
    </g>
    <g text-rendering="geometricPrecision" stroke-miterlimit="1.45" shape-rendering="geometricPrecision" font-family="sans-serif" transform="matrix(-0,-1,1,-0,288.3994,196.0176)" stroke-linecap="butt">
      <text x="2" xml:space="preserve" y="14.0645" clip-path="url(#clipPath4)" stroke="none">Données</text>
    </g>
    <g text-rendering="geometricPrecision" stroke-miterlimit="1.45" shape-rendering="geometricPrecision" transform="matrix(1,0,0,1,-168,-275)" stroke-linecap="butt">
      <path fill="none" d="M557.75 430 L587.75 430 L587.75 460 L557.75 460 Z" clip-path="url(#clipPath2)"/>
      <text x="564.415" xml:space="preserve" y="449.7139" clip-path="url(#clipPath2)" font-family="sans-serif" stroke="none">PU</text>
    </g>
    <g text-rendering="geometricPrecision" stroke-miterlimit="1.45" shape-rendering="geometricPrecision" transform="matrix(1,0,0,1,-168,-275)" stroke-linecap="butt">
      <path fill="none" d="M587.75 460 L617.75 460 L617.75 490 L587.75 490 Z" clip-path="url(#clipPath2)"/>
      <text x="594.415" xml:space="preserve" y="479.7139" clip-path="url(#clipPath2)" font-family="sans-serif" stroke="none">PU</text>
    </g>
    <g fill="url(#linearGradient5)" text-rendering="geometricPrecision" shape-rendering="geometricPrecision" transform="matrix(1,0,0,1,-168,-275)" stroke="url(#linearGradient5)">
      <path d="M749.75 285 L909.75 285 L909.75 315 L749.75 315 Z" stroke="none" clip-path="url(#clipPath2)"/>
    </g>
    <g text-rendering="geometricPrecision" stroke-miterlimit="1.45" shape-rendering="geometricPrecision" transform="matrix(1,0,0,1,-168,-275)" stroke-linecap="butt">
      <path fill="none" d="M749.75 285 L909.75 285 L909.75 315 L749.75 315 Z" clip-path="url(#clipPath2)"/>
      <text x="799.0703" xml:space="preserve" y="304.7139" clip-path="url(#clipPath2)" font-family="sans-serif" stroke="none">Instructions</text>
    </g>
    <g fill="url(#linearGradient6)" text-rendering="geometricPrecision" shape-rendering="geometricPrecision" transform="matrix(1,0,0,1,-168,-275)" stroke="url(#linearGradient6)">
      <path d="M704.75 340 L734.75 340 L734.75 550 L704.75 550 Z" stroke="none" clip-path="url(#clipPath2)"/>
    </g>
    <g text-rendering="geometricPrecision" stroke-miterlimit="1.45" shape-rendering="geometricPrecision" transform="matrix(1,0,0,1,-168,-275)" stroke-linecap="butt">
      <path fill="none" d="M704.75 340 L734.75 340 L734.75 550 L704.75 550 Z" clip-path="url(#clipPath2)"/>
    </g>
    <g text-rendering="geometricPrecision" stroke-miterlimit="1.45" shape-rendering="geometricPrecision" font-family="sans-serif" transform="matrix(-0,-1,1,-0,542.3994,196.0176)" stroke-linecap="butt">
      <text x="2" xml:space="preserve" y="14.0645" clip-path="url(#clipPath5)" stroke="none">Données</text>
    </g>
    <g text-rendering="geometricPrecision" stroke-miterlimit="1.45" shape-rendering="geometricPrecision" transform="matrix(1,0,0,1,-168,-275)" stroke-linecap="butt">
      <path fill="none" d="M809.75 415 L839.75 415 L839.75 445 L809.75 445 Z" clip-path="url(#clipPath2)"/>
      <text x="816.415" xml:space="preserve" y="434.7139" clip-path="url(#clipPath2)" font-family="sans-serif" stroke="none">PU</text>
    </g>
    <g text-rendering="geometricPrecision" stroke-miterlimit="1.45" shape-rendering="geometricPrecision" transform="matrix(1,0,0,1,-168,-275)" stroke-linecap="butt">
      <path fill="none" d="M839.75 445 L869.75 445 L869.75 475 L839.75 475 Z" clip-path="url(#clipPath2)"/>
      <text x="846.415" xml:space="preserve" y="464.7139" clip-path="url(#clipPath2)" font-family="sans-serif" stroke="none">PU</text>
    </g>
    <g text-rendering="geometricPrecision" stroke-miterlimit="1.45" shape-rendering="geometricPrecision" transform="matrix(1,0,0,1,-168,-275)" stroke-linecap="butt">
      <path fill="none" d="M779.75 385 L809.75 385 L809.75 415 L779.75 415 Z" clip-path="url(#clipPath2)"/>
      <text x="786.415" xml:space="preserve" y="404.7139" clip-path="url(#clipPath2)" font-family="sans-serif" stroke="none">PU</text>
    </g>
    <g text-rendering="geometricPrecision" stroke-miterlimit="1.45" shape-rendering="geometricPrecision" transform="matrix(1,0,0,1,-168,-275)" stroke-linecap="butt">
      <path fill="none" d="M869.75 475 L899.75 475 L899.75 505 L869.75 505 Z" clip-path="url(#clipPath2)"/>
      <text x="876.415" xml:space="preserve" y="494.7139" clip-path="url(#clipPath2)" font-family="sans-serif" stroke="none">PU</text>
    </g>
    <g fill="url(#linearGradient7)" text-rendering="geometricPrecision" shape-rendering="geometricPrecision" transform="matrix(1,0,0,1,-168,-275)" stroke="url(#linearGradient7)">
      <path d="M1019.25 285 L1214.25 285 L1214.25 315 L1019.25 315 Z" stroke="none" clip-path="url(#clipPath2)"/>
    </g>
    <g text-rendering="geometricPrecision" stroke-miterlimit="1.45" shape-rendering="geometricPrecision" transform="matrix(1,0,0,1,-168,-275)" stroke-linecap="butt">
      <path fill="none" d="M1019.25 285 L1214.25 285 L1214.25 315 L1019.25 315 Z" clip-path="url(#clipPath2)"/>
      <text x="1086.0703" xml:space="preserve" y="304.7139" clip-path="url(#clipPath2)" font-family="sans-serif" stroke="none">Instructions</text>
    </g>
    <g fill="url(#linearGradient8)" text-rendering="geometricPrecision" shape-rendering="geometricPrecision" transform="matrix(1,0,0,1,-168,-275)" stroke="url(#linearGradient8)">
      <path d="M964.75 340 L994.75 340 L994.75 550 L964.75 550 Z" stroke="none" clip-path="url(#clipPath2)"/>
    </g>
    <g text-rendering="geometricPrecision" stroke-miterlimit="1.45" shape-rendering="geometricPrecision" transform="matrix(1,0,0,1,-168,-275)" stroke-linecap="butt">
      <path fill="none" d="M964.75 340 L994.75 340 L994.75 550 L964.75 550 Z" clip-path="url(#clipPath2)"/>
    </g>
    <g text-rendering="geometricPrecision" stroke-miterlimit="1.45" shape-rendering="geometricPrecision" font-family="sans-serif" transform="matrix(-0,-1,1,-0,802.3994,196.0176)" stroke-linecap="butt">
      <text x="2" xml:space="preserve" y="14.0645" clip-path="url(#clipPath6)" stroke="none">Données</text>
    </g>
    <g text-rendering="geometricPrecision" stroke-miterlimit="1.45" shape-rendering="geometricPrecision" transform="matrix(1,0,0,1,-168,-275)" stroke-linecap="butt">
      <path fill="none" d="M1062.25 392.6 L1092.25 392.6 L1092.25 422.6 L1062.25 422.6 Z" clip-path="url(#clipPath2)"/>
      <text x="1068.915" xml:space="preserve" y="412.3139" clip-path="url(#clipPath2)" font-family="sans-serif" stroke="none">PU</text>
    </g>
    <g text-rendering="geometricPrecision" stroke-miterlimit="1.45" shape-rendering="geometricPrecision" transform="matrix(1,0,0,1,-168,-275)" stroke-linecap="butt">
      <path fill="none" d="M1062.25 440.2 L1092.25 440.2 L1092.25 470.2 L1062.25 470.2 Z" clip-path="url(#clipPath2)"/>
      <text x="1068.915" xml:space="preserve" y="459.9139" clip-path="url(#clipPath2)" font-family="sans-serif" stroke="none">PU</text>
    </g>
    <g text-rendering="geometricPrecision" stroke-miterlimit="1.45" shape-rendering="geometricPrecision" transform="matrix(1,0,0,1,-168,-275)" stroke-linecap="butt">
      <path fill="none" d="M1062.25 487.8 L1092.25 487.8 L1092.25 517.8 L1062.25 517.8 Z" clip-path="url(#clipPath2)"/>
      <text x="1068.915" xml:space="preserve" y="507.5139" clip-path="url(#clipPath2)" font-family="sans-serif" stroke="none">PU</text>
    </g>
    <g text-rendering="geometricPrecision" stroke-miterlimit="1.45" shape-rendering="geometricPrecision" transform="matrix(1,0,0,1,-168,-275)" stroke-linecap="butt">
      <path fill="none" d="M1062.25 345 L1092.25 345 L1092.25 375 L1062.25 375 Z" clip-path="url(#clipPath2)"/>
      <text x="1068.915" xml:space="preserve" y="364.7139" clip-path="url(#clipPath2)" font-family="sans-serif" stroke="none">PU</text>
    </g>
    <g text-rendering="geometricPrecision" stroke-miterlimit="1.45" shape-rendering="geometricPrecision" transform="matrix(1,0,0,1,-168,-275)" stroke-linecap="butt">
      <path fill="none" d="M1152.25 415 L1182.25 415 L1182.25 445 L1152.25 445 Z" clip-path="url(#clipPath2)"/>
      <text x="1158.915" xml:space="preserve" y="434.7139" clip-path="url(#clipPath2)" font-family="sans-serif" stroke="none">PU</text>
    </g>
    <g text-rendering="geometricPrecision" stroke-miterlimit="1.45" shape-rendering="geometricPrecision" transform="matrix(1,0,0,1,-168,-275)" stroke-linecap="butt">
      <path fill="none" d="M1152.25 462.6 L1182.25 462.6 L1182.25 492.6 L1152.25 492.6 Z" clip-path="url(#clipPath2)"/>
      <text x="1158.915" xml:space="preserve" y="482.3139" clip-path="url(#clipPath2)" font-family="sans-serif" stroke="none">PU</text>
    </g>
    <g text-rendering="geometricPrecision" stroke-miterlimit="1.45" shape-rendering="geometricPrecision" transform="matrix(1,0,0,1,-168,-275)" stroke-linecap="butt">
      <path fill="none" d="M1152.25 510.2 L1182.25 510.2 L1182.25 540.2 L1152.25 540.2 Z" clip-path="url(#clipPath2)"/>
      <text x="1158.915" xml:space="preserve" y="529.9139" clip-path="url(#clipPath2)" font-family="sans-serif" stroke="none">PU</text>
    </g>
    <g text-rendering="geometricPrecision" stroke-miterlimit="1.45" shape-rendering="geometricPrecision" transform="matrix(1,0,0,1,-168,-275)" stroke-linecap="butt">
      <path fill="none" d="M1152.25 367.4 L1182.25 367.4 L1182.25 397.4 L1152.25 397.4 Z" clip-path="url(#clipPath2)"/>
      <text x="1158.915" xml:space="preserve" y="387.1139" clip-path="url(#clipPath2)" font-family="sans-serif" stroke="none">PU</text>
    </g>
    <g stroke-linecap="butt" transform="matrix(1,0,0,1,-168,-275)" text-rendering="geometricPrecision" font-family="sans-serif" shape-rendering="geometricPrecision" font-weight="bold" stroke-miterlimit="1.45">
      <text x="199.7461" xml:space="preserve" y="304.7139" clip-path="url(#clipPath2)" stroke="none">SISD</text>
    </g>
    <g stroke-linecap="butt" transform="matrix(1,0,0,1,-168,-275)" text-rendering="geometricPrecision" font-family="sans-serif" shape-rendering="geometricPrecision" font-weight="bold" stroke-miterlimit="1.45">
      <text x="450.75" xml:space="preserve" y="304.7139" clip-path="url(#clipPath2)" stroke="none">MISD</text>
    </g>
    <g stroke-linecap="butt" transform="matrix(1,0,0,1,-168,-275)" text-rendering="geometricPrecision" font-family="sans-serif" shape-rendering="geometricPrecision" font-weight="bold" stroke-miterlimit="1.45">
      <text x="702.75" xml:space="preserve" y="304.7139" clip-path="url(#clipPath2)" stroke="none">SIMD</text>
    </g>
    <g stroke-linecap="butt" transform="matrix(1,0,0,1,-168,-275)" text-rendering="geometricPrecision" font-family="sans-serif" shape-rendering="geometricPrecision" font-weight="bold" stroke-miterlimit="1.45">
      <text x="963.7539" xml:space="preserve" y="304.7139" clip-path="url(#clipPath2)" stroke="none">MIMD</text>
    </g>
    <g text-rendering="geometricPrecision" stroke-miterlimit="1.45" shape-rendering="geometricPrecision" transform="matrix(1,0,0,1,-168,-275)" stroke-linecap="butt">
      <path fill="none" d="M198.75 585 L228.75 585 L228.75 615 L198.75 615 Z" clip-path="url(#clipPath2)"/>
      <text x="205.415" xml:space="preserve" y="604.7139" clip-path="url(#clipPath2)" font-family="sans-serif" stroke="none">PU</text>
    </g>
    <g text-rendering="geometricPrecision" stroke-miterlimit="1.45" shape-rendering="geometricPrecision" font-family="sans-serif" transform="matrix(1,0,0,1,-168,-275)" stroke-linecap="butt">
      <text x="252.377" xml:space="preserve" y="604.7139" clip-path="url(#clipPath2)" stroke="none">Unité de traitement (Processing Unit)</text>
    </g>
    <g text-rendering="geometricPrecision" stroke-miterlimit="1.45" shape-rendering="geometricPrecision" transform="matrix(1,0,0,1,-168,-275)" stroke-linecap="butt">
      <path fill="none" d="M228.7708 445 L297.7944 445" clip-path="url(#clipPath2)"/>
      <path d="M305.7944 445 L293.7944 440 L296.7944 445 L293.7944 450 Z" clip-path="url(#clipPath2)" stroke="none"/>
      <path fill="none" d="M320.75 314.9744 L320.75 421.9848" clip-path="url(#clipPath2)"/>
      <path d="M320.75 429.9848 L325.75 417.9848 L320.75 420.9848 L315.75 417.9848 Z" clip-path="url(#clipPath2)" stroke="none"/>
      <path fill="none" d="M480.7708 445 L549.7944 445" clip-path="url(#clipPath2)"/>
      <path d="M557.7944 445 L545.7944 440 L548.7944 445 L545.7944 450 Z" clip-path="url(#clipPath2)" stroke="none"/>
      <path fill="none" d="M572.75 314.9744 L572.75 421.9848" clip-path="url(#clipPath2)"/>
      <path d="M572.75 429.9848 L577.75 417.9848 L572.75 420.9848 L567.75 417.9848 Z" clip-path="url(#clipPath2)" stroke="none"/>
      <path fill="none" d="M602.75 314.9761 L602.75 452.0368" clip-path="url(#clipPath2)"/>
      <path d="M602.75 460.0368 L607.75 448.0368 L602.75 451.0368 L597.75 448.0368 Z" clip-path="url(#clipPath2)" stroke="none"/>
      <path fill="none" d="M480.7588 445 L512.75 445 L512.75 475 L579.7646 475" clip-path="url(#clipPath2)"/>
      <path d="M587.7646 475 L575.7646 470 L578.7646 475 L575.7646 480 Z" clip-path="url(#clipPath2)" stroke="none"/>
      <path fill="none" d="M734.7556 430 L801.7656 430" clip-path="url(#clipPath2)"/>
      <path d="M809.7656 430 L797.7656 425 L800.7656 430 L797.7656 435 Z" clip-path="url(#clipPath2)" stroke="none"/>
      <path fill="none" d="M884.75 314.9719 L884.75 390 L824.75 390 L824.75 406.9609" clip-path="url(#clipPath2)"/>
      <path d="M824.75 414.9609 L829.75 402.9609 L824.75 405.9609 L819.75 402.9609 Z" clip-path="url(#clipPath2)" stroke="none"/>
      <path fill="none" d="M734.7639 460 L831.7224 460" clip-path="url(#clipPath2)"/>
      <path d="M839.7224 460 L827.7224 455 L830.7224 460 L827.7224 465 Z" clip-path="url(#clipPath2)" stroke="none"/>
      <path fill="none" d="M884.75 314.9885 L884.75 420 L854.75 420 L854.75 436.9609" clip-path="url(#clipPath2)"/>
      <path d="M854.75 444.9609 L859.75 432.9609 L854.75 435.9609 L849.75 432.9609 Z" clip-path="url(#clipPath2)" stroke="none"/>
      <path fill="none" d="M734.7656 400 L771.7246 400" clip-path="url(#clipPath2)"/>
      <path d="M779.7246 400 L767.7246 395 L770.7246 400 L767.7246 405 Z" clip-path="url(#clipPath2)" stroke="none"/>
      <path fill="none" d="M884.75 315.0295 L884.75 365.0678 L794.75 365.0678 L794.75 377.0242" clip-path="url(#clipPath2)"/>
      <path d="M794.75 385.0242 L799.75 373.0242 L794.75 376.0242 L789.75 373.0242 Z" clip-path="url(#clipPath2)" stroke="none"/>
      <path fill="none" d="M734.7546 490 L861.7725 490" clip-path="url(#clipPath2)"/>
      <path d="M869.7725 490 L857.7725 485 L860.7725 490 L857.7725 495 Z" clip-path="url(#clipPath2)" stroke="none"/>
      <path fill="none" d="M884.75 315.0143 L884.75 467.0049" clip-path="url(#clipPath2)"/>
      <path d="M884.75 475.0049 L889.75 463.0049 L884.75 466.0049 L879.75 463.0049 Z" clip-path="url(#clipPath2)" stroke="none"/>
      <path fill="none" d="M994.7329 407.6 L1054.2213 407.6" clip-path="url(#clipPath2)"/>
      <path d="M1062.2213 407.6 L1050.2213 402.6 L1053.2213 407.6 L1050.2213 412.6 Z" clip-path="url(#clipPath2)" stroke="none"/>
      <path fill="none" d="M1116.75 314.9999 L1116.75 407.6 L1100.2554 407.6" clip-path="url(#clipPath2)"/>
      <path d="M1092.2554 407.6 L1104.2554 412.6 L1101.2554 407.6 L1104.2554 402.6 Z" clip-path="url(#clipPath2)" stroke="none"/>
      <path fill="none" d="M994.772 455.2 L1054.2284 455.2" clip-path="url(#clipPath2)"/>
      <path d="M1062.2284 455.2 L1050.2284 450.2 L1053.2284 455.2 L1050.2284 460.2 Z" clip-path="url(#clipPath2)" stroke="none"/>
      <path fill="none" d="M1116.75 314.9668 L1116.75 455.2 L1100.2554 455.2" clip-path="url(#clipPath2)"/>
      <path d="M1092.2554 455.2 L1104.2554 460.2 L1101.2554 455.2 L1104.2554 450.2 Z" clip-path="url(#clipPath2)" stroke="none"/>
      <path fill="none" d="M994.7929 502.8 L1054.2322 502.8" clip-path="url(#clipPath2)"/>
      <path d="M1062.2322 502.8 L1050.2322 497.8 L1053.2322 502.8 L1050.2322 507.8 Z" clip-path="url(#clipPath2)" stroke="none"/>
      <path fill="none" d="M1116.75 315.002 L1116.75 502.8 L1100.2554 502.8" clip-path="url(#clipPath2)"/>
      <path d="M1092.2554 502.8 L1104.2554 507.8 L1101.2554 502.8 L1104.2554 497.8 Z" clip-path="url(#clipPath2)" stroke="none"/>
      <path fill="none" d="M994.7916 360 L1054.2319 360" clip-path="url(#clipPath2)"/>
      <path d="M1062.2319 360 L1050.2319 355 L1053.2319 360 L1050.2319 365 Z" clip-path="url(#clipPath2)" stroke="none"/>
      <path fill="none" d="M1116.75 314.9707 L1116.75 360 L1100.2554 360" clip-path="url(#clipPath2)"/>
      <path d="M1092.2554 360 L1104.2554 365 L1101.2554 360 L1104.2554 355 Z" clip-path="url(#clipPath2)" stroke="none"/>
      <path fill="none" d="M994.718 430 L1144.2124 430" clip-path="url(#clipPath2)"/>
      <path d="M1152.2124 430 L1140.2124 425 L1143.2124 430 L1140.2124 435 Z" clip-path="url(#clipPath2)" stroke="none"/>
      <path fill="none" d="M1203.1248 315.025 L1203.1248 430 L1190.2795 430" clip-path="url(#clipPath2)"/>
      <path d="M1182.2795 430 L1194.2795 435 L1191.2795 430 L1194.2795 425 Z" clip-path="url(#clipPath2)" stroke="none"/>
      <path fill="none" d="M994.7075 477.6 L1144.2115 477.6" clip-path="url(#clipPath2)"/>
      <path d="M1152.2115 477.6 L1140.2115 472.6 L1143.2115 477.6 L1140.2115 482.6 Z" clip-path="url(#clipPath2)" stroke="none"/>
      <path fill="none" d="M1203.1248 315.0335 L1203.1248 477.6 L1190.2795 477.6" clip-path="url(#clipPath2)"/>
      <path d="M1182.2795 477.6 L1194.2795 482.6 L1191.2795 477.6 L1194.2795 472.6 Z" clip-path="url(#clipPath2)" stroke="none"/>
      <path fill="none" d="M994.7814 525.2 L1144.2179 525.2" clip-path="url(#clipPath2)"/>
      <path d="M1152.2179 525.2 L1140.2179 520.2 L1143.2179 525.2 L1140.2179 530.2 Z" clip-path="url(#clipPath2)" stroke="none"/>
      <path fill="none" d="M1203.1248 314.9801 L1203.1248 525.2 L1190.2795 525.2" clip-path="url(#clipPath2)"/>
      <path d="M1182.2795 525.2 L1194.2795 530.2 L1191.2795 525.2 L1194.2795 520.2 Z" clip-path="url(#clipPath2)" stroke="none"/>
      <path fill="none" d="M994.7075 382.4 L1144.2115 382.4" clip-path="url(#clipPath2)"/>
      <path d="M1152.2115 382.4 L1140.2115 377.4 L1143.2115 382.4 L1140.2115 387.4 Z" clip-path="url(#clipPath2)" stroke="none"/>
      <path fill="none" d="M1203.1248 315.0253 L1203.1248 382.4 L1190.2795 382.4" clip-path="url(#clipPath2)"/>
      <path d="M1182.2795 382.4 L1194.2795 387.4 L1191.2795 382.4 L1194.2795 377.4 Z" clip-path="url(#clipPath2)" stroke="none"/>
    </g>
  </g>
</svg>
