<?xml version="1.0" encoding="UTF-8"?><svg xmlns="http://www.w3.org/2000/svg" xmlns:xlink="http://www.w3.org/1999/xlink" fill-opacity="1" color-rendering="auto" color-interpolation="auto" text-rendering="auto" stroke="black" stroke-linecap="square" width="787" stroke-miterlimit="10" shape-rendering="auto" stroke-opacity="1" fill="black" stroke-dasharray="none" font-weight="normal" stroke-width="1" height="382" font-family="'Dialog'" font-style="normal" stroke-linejoin="miter" font-size="12px" stroke-dashoffset="0" image-rendering="auto">
  <!--Generated by ySVG 2.5-->
  <defs id="genericDefs"/>
  <g>
    <defs id="defs1">
      <linearGradient x1="268.7438" gradientUnits="userSpaceOnUse" x2="1044.1368" y1="622.764" y2="652.764" id="linearGradient1" spreadMethod="reflect">
        <stop stop-opacity="1" stop-color="rgb(124,191,51)" offset="0%"/>
        <stop stop-opacity="1" stop-color="rgb(124,191,51)" offset="100%"/>
      </linearGradient>
      <linearGradient x1="614.1368" gradientUnits="userSpaceOnUse" x2="644.1368" y1="765.128" y2="953.492" id="linearGradient2" spreadMethod="reflect">
        <stop stop-opacity="1" stop-color="rgb(124,191,51)" offset="0%"/>
        <stop stop-opacity="1" stop-color="rgb(124,191,51)" offset="100%"/>
      </linearGradient>
      <linearGradient x1="692.1368" gradientUnits="userSpaceOnUse" x2="712.1368" y1="839.328" y2="879.328" id="linearGradient3" spreadMethod="reflect">
        <stop stop-opacity="1" stop-color="rgb(124,191,51)" offset="0%"/>
        <stop stop-opacity="1" stop-color="rgb(124,191,51)" offset="100%"/>
      </linearGradient>
      <linearGradient x1="268.7438" gradientUnits="userSpaceOnUse" x2="298.7438" y1="765.128" y2="932.4" id="linearGradient4" spreadMethod="reflect">
        <stop stop-opacity="1" stop-color="rgb(124,191,51)" offset="0%"/>
        <stop stop-opacity="1" stop-color="rgb(124,191,51)" offset="100%"/>
      </linearGradient>
      <linearGradient x1="442.3278" gradientUnits="userSpaceOnUse" x2="484.3278" y1="778.764" y2="820.764" id="linearGradient5" spreadMethod="reflect">
        <stop stop-opacity="1" stop-color="rgb(51,153,102)" offset="0%"/>
        <stop stop-opacity="1" stop-color="rgb(124,191,51)" offset="100%"/>
      </linearGradient>
      <linearGradient x1="342.2946" gradientUnits="userSpaceOnUse" x2="382.2946" y1="683.764" y2="723.764" id="linearGradient6" spreadMethod="reflect">
        <stop stop-opacity="1" stop-color="rgb(51,153,102)" offset="0%"/>
        <stop stop-opacity="1" stop-color="rgb(124,191,51)" offset="100%"/>
      </linearGradient>
      <linearGradient x1="775.6368" gradientUnits="userSpaceOnUse" x2="795.6368" y1="839.328" y2="879.328" id="linearGradient7" spreadMethod="reflect">
        <stop stop-opacity="1" stop-color="rgb(124,191,51)" offset="0%"/>
        <stop stop-opacity="1" stop-color="rgb(124,191,51)" offset="100%"/>
      </linearGradient>
      <linearGradient x1="859.1368" gradientUnits="userSpaceOnUse" x2="879.1368" y1="839.328" y2="879.328" id="linearGradient8" spreadMethod="reflect">
        <stop stop-opacity="1" stop-color="rgb(124,191,51)" offset="0%"/>
        <stop stop-opacity="1" stop-color="rgb(124,191,51)" offset="100%"/>
      </linearGradient>
      <linearGradient x1="692.1368" gradientUnits="userSpaceOnUse" x2="712.1368" y1="899.328" y2="939.328" id="linearGradient9" spreadMethod="reflect">
        <stop stop-opacity="1" stop-color="rgb(124,191,51)" offset="0%"/>
        <stop stop-opacity="1" stop-color="rgb(124,191,51)" offset="100%"/>
      </linearGradient>
      <linearGradient x1="775.6368" gradientUnits="userSpaceOnUse" x2="795.6368" y1="899.328" y2="939.328" id="linearGradient10" spreadMethod="reflect">
        <stop stop-opacity="1" stop-color="rgb(124,191,51)" offset="0%"/>
        <stop stop-opacity="1" stop-color="rgb(124,191,51)" offset="100%"/>
      </linearGradient>
      <linearGradient x1="859.1368" gradientUnits="userSpaceOnUse" x2="879.1368" y1="899.328" y2="939.328" id="linearGradient11" spreadMethod="reflect">
        <stop stop-opacity="1" stop-color="rgb(124,191,51)" offset="0%"/>
        <stop stop-opacity="1" stop-color="rgb(124,191,51)" offset="100%"/>
      </linearGradient>
      <linearGradient x1="692.1368" gradientUnits="userSpaceOnUse" x2="712.1368" y1="779.328" y2="819.328" id="linearGradient12" spreadMethod="reflect">
        <stop stop-opacity="1" stop-color="rgb(124,191,51)" offset="0%"/>
        <stop stop-opacity="1" stop-color="rgb(124,191,51)" offset="100%"/>
      </linearGradient>
      <linearGradient x1="775.6368" gradientUnits="userSpaceOnUse" x2="795.6368" y1="779.328" y2="819.328" id="linearGradient13" spreadMethod="reflect">
        <stop stop-opacity="1" stop-color="rgb(124,191,51)" offset="0%"/>
        <stop stop-opacity="1" stop-color="rgb(124,191,51)" offset="100%"/>
      </linearGradient>
      <linearGradient x1="859.1368" gradientUnits="userSpaceOnUse" x2="931.1368" y1="779.328" y2="821.328" id="linearGradient14" spreadMethod="reflect">
        <stop stop-opacity="1" stop-color="rgb(51,153,102)" offset="0%"/>
        <stop stop-opacity="1" stop-color="rgb(124,191,51)" offset="100%"/>
      </linearGradient>
      <linearGradient x1="282.0771" gradientUnits="userSpaceOnUse" x2="308.7438" y1="683.764" y2="683.764" id="linearGradient15" spreadMethod="reflect">
        <stop stop-opacity="1" stop-color="rgb(255,204,0)" offset="0%"/>
        <stop stop-opacity="1" stop-color="rgb(255,204,153)" offset="100%"/>
      </linearGradient>
      <clipPath clipPathUnits="userSpaceOnUse" id="clipPath1">
        <path d="M0 0 L787 0 L787 382 L0 382 L0 0 Z"/>
      </clipPath>
      <clipPath clipPathUnits="userSpaceOnUse" id="clipPath2">
        <path d="M263 617 L1050 617 L1050 999 L263 999 L263 617 Z"/>
      </clipPath>
      <clipPath clipPathUnits="userSpaceOnUse" id="clipPath3">
        <path d="M256.644 -356.7862 L256.644 430.2138 L-125.356 430.2138 L-125.356 -356.7862 L256.644 -356.7862 Z"/>
      </clipPath>
      <clipPath clipPathUnits="userSpaceOnUse" id="clipPath4">
        <path d="M255.163 -431.0113 L255.163 355.9887 L-126.837 355.9887 L-126.837 -431.0113 L255.163 -431.0113 Z"/>
      </clipPath>
      <clipPath clipPathUnits="userSpaceOnUse" id="clipPath5">
        <path d="M246.766 -11.3932 L246.766 775.6068 L-135.234 775.6068 L-135.234 -11.3932 L246.766 -11.3932 Z"/>
      </clipPath>
      <clipPath clipPathUnits="userSpaceOnUse" id="clipPath6">
        <path d="M255.163 -514.5113 L255.163 272.4887 L-126.837 272.4887 L-126.837 -514.5113 L255.163 -514.5113 Z"/>
      </clipPath>
      <clipPath clipPathUnits="userSpaceOnUse" id="clipPath7">
        <path d="M255.163 -598.0113 L255.163 188.9887 L-126.837 188.9887 L-126.837 -598.0113 L255.163 -598.0113 Z"/>
      </clipPath>
      <clipPath clipPathUnits="userSpaceOnUse" id="clipPath8">
        <path d="M315.163 -431.0113 L315.163 355.9887 L-66.837 355.9887 L-66.837 -431.0113 L315.163 -431.0113 Z"/>
      </clipPath>
      <clipPath clipPathUnits="userSpaceOnUse" id="clipPath9">
        <path d="M315.163 -514.5113 L315.163 272.4887 L-66.837 272.4887 L-66.837 -514.5113 L315.163 -514.5113 Z"/>
      </clipPath>
      <clipPath clipPathUnits="userSpaceOnUse" id="clipPath10">
        <path d="M315.163 -598.0113 L315.163 188.9887 L-66.837 188.9887 L-66.837 -598.0113 L315.163 -598.0113 Z"/>
      </clipPath>
      <clipPath clipPathUnits="userSpaceOnUse" id="clipPath11">
        <path d="M195.163 -431.0113 L195.163 355.9887 L-186.837 355.9887 L-186.837 -431.0113 L195.163 -431.0113 Z"/>
      </clipPath>
      <clipPath clipPathUnits="userSpaceOnUse" id="clipPath12">
        <path d="M195.163 -514.5113 L195.163 272.4887 L-186.837 272.4887 L-186.837 -514.5113 L195.163 -514.5113 Z"/>
      </clipPath>
      <clipPath clipPathUnits="userSpaceOnUse" id="clipPath13">
        <path d="M196.163 -598.0113 L196.163 188.9887 L-185.837 188.9887 L-185.837 -598.0113 L196.163 -598.0113 Z"/>
      </clipPath>
    </defs>
    <g fill="url(#linearGradient1)" text-rendering="geometricPrecision" shape-rendering="geometricPrecision" transform="matrix(1,0,0,1,-263,-617)" stroke="url(#linearGradient1)">
      <path d="M268.7438 622.764 L1044.1368 622.764 L1044.1368 652.764 L268.7438 652.764 Z" stroke="none" clip-path="url(#clipPath2)"/>
    </g>
    <g stroke-linecap="butt" transform="matrix(1,0,0,1,-263,-617)" fill="white" text-rendering="geometricPrecision" font-family="sans-serif" shape-rendering="geometricPrecision" stroke="white" font-weight="bold" stroke-miterlimit="1.45">
      <text x="643.4384" xml:space="preserve" y="642.4778" clip-path="url(#clipPath2)" stroke="none">GPU</text>
    </g>
    <g fill="url(#linearGradient2)" text-rendering="geometricPrecision" shape-rendering="geometricPrecision" transform="matrix(1,0,0,1,-263,-617)" stroke="url(#linearGradient2)">
      <path d="M614.1368 765.128 L644.1368 765.128 L644.1368 953.492 L614.1368 953.492 Z" stroke="none" clip-path="url(#clipPath2)"/>
    </g>
    <g stroke-linecap="butt" transform="matrix(-0,-1,1,-0,356.7862,256.644)" fill="white" text-rendering="geometricPrecision" font-family="sans-serif" shape-rendering="geometricPrecision" stroke="white" font-weight="bold" stroke-miterlimit="1.45">
      <text x="2" xml:space="preserve" y="14.0645" clip-path="url(#clipPath3)" stroke="none">Grid</text>
    </g>
    <g fill="url(#linearGradient3)" text-rendering="geometricPrecision" shape-rendering="geometricPrecision" transform="matrix(1,0,0,1,-263,-617)" stroke="url(#linearGradient3)">
      <path d="M692.1368 839.328 L712.1368 839.328 L712.1368 879.328 L692.1368 879.328 Z" stroke="none" clip-path="url(#clipPath2)"/>
    </g>
    <g stroke-linecap="butt" font-size="10px" transform="matrix(-0,-1,1,-0,431.0113,255.163)" fill="white" text-rendering="geometricPrecision" font-family="sans-serif" shape-rendering="geometricPrecision" stroke="white" font-weight="bold" stroke-miterlimit="1.45">
      <text x="2" xml:space="preserve" y="12.0537" clip-path="url(#clipPath4)" stroke="none">Bloc</text>
    </g>
    <g fill="url(#linearGradient4)" text-rendering="geometricPrecision" shape-rendering="geometricPrecision" transform="matrix(1,0,0,1,-263,-617)" stroke="url(#linearGradient4)">
      <path d="M268.7438 765.128 L298.7438 765.128 L298.7438 932.4 L268.7438 932.4 Z" stroke="none" clip-path="url(#clipPath2)"/>
    </g>
    <g stroke-linecap="butt" transform="matrix(-0,-1,1,-0,11.3932,246.766)" fill="white" text-rendering="geometricPrecision" font-family="sans-serif" shape-rendering="geometricPrecision" stroke="white" font-weight="bold" stroke-miterlimit="1.45">
      <text x="2" xml:space="preserve" y="14.0645" clip-path="url(#clipPath5)" stroke="none">Bloc</text>
    </g>
    <g text-rendering="geometricPrecision" stroke-miterlimit="1.45" stroke-dasharray="6,2" shape-rendering="geometricPrecision" transform="matrix(1,0,0,1,-263,-617)" stroke-linecap="butt">
      <path fill="none" d="M268.7438 765.128 L550.3038 765.128 L550.3038 932.4 L268.7438 932.4 Z" clip-path="url(#clipPath2)"/>
    </g>
    <g text-rendering="geometricPrecision" stroke-miterlimit="1.45" stroke-dasharray="6,2" shape-rendering="geometricPrecision" transform="matrix(1,0,0,1,-263,-617)" stroke-linecap="butt">
      <path fill="none" d="M614.1368 765.128 L1044.1368 765.128 L1044.1368 953.528 L614.1368 953.528 Z" clip-path="url(#clipPath2)"/>
    </g>
    <g text-rendering="geometricPrecision" stroke-miterlimit="1.45" shape-rendering="geometricPrecision" transform="matrix(1,0,0,1,-263,-617)" stroke-linecap="butt">
      <path fill="none" d="M346.3278 778.764 L386.3278 778.764 L386.3278 818.764 L346.3278 818.764 Z" clip-path="url(#clipPath2)"/>
      <text x="352.3239" xml:space="preserve" y="803.4778" clip-path="url(#clipPath2)" font-family="sans-serif" stroke="none">(0, 0)</text>
    </g>
    <g text-rendering="geometricPrecision" stroke-miterlimit="1.45" shape-rendering="geometricPrecision" transform="matrix(1,0,0,1,-263,-617)" stroke-linecap="butt">
      <path fill="none" d="M394.3278 778.764 L434.3278 778.764 L434.3278 818.764 L394.3278 818.764 Z" clip-path="url(#clipPath2)"/>
      <text x="400.3239" xml:space="preserve" y="803.4778" clip-path="url(#clipPath2)" font-family="sans-serif" stroke="none">(0, 1)</text>
    </g>
    <g text-rendering="geometricPrecision" stroke-miterlimit="1.45" shape-rendering="geometricPrecision" transform="matrix(1,0,0,1,-263,-617)" stroke-linecap="butt">
      <path fill="none" d="M442.3278 878.764 L482.3278 878.764 L482.3278 918.764 L442.3278 918.764 Z" clip-path="url(#clipPath2)"/>
      <text x="448.3239" xml:space="preserve" y="903.4778" clip-path="url(#clipPath2)" font-family="sans-serif" stroke="none">(2, 2)</text>
    </g>
    <g text-rendering="geometricPrecision" stroke-miterlimit="1.45" shape-rendering="geometricPrecision" transform="matrix(1,0,0,1,-263,-617)" stroke-linecap="butt">
      <path fill="none" d="M346.3278 828.764 L386.3278 828.764 L386.3278 868.764 L346.3278 868.764 Z" clip-path="url(#clipPath2)"/>
      <text x="352.3239" xml:space="preserve" y="853.4778" clip-path="url(#clipPath2)" font-family="sans-serif" stroke="none">(1, 0)</text>
    </g>
    <g text-rendering="geometricPrecision" stroke-miterlimit="1.45" shape-rendering="geometricPrecision" transform="matrix(1,0,0,1,-263,-617)" stroke-linecap="butt">
      <path fill="none" d="M394.3278 828.764 L434.3278 828.764 L434.3278 868.764 L394.3278 868.764 Z" clip-path="url(#clipPath2)"/>
      <text x="400.3239" xml:space="preserve" y="853.4778" clip-path="url(#clipPath2)" font-family="sans-serif" stroke="none">(1, 1)</text>
    </g>
    <g text-rendering="geometricPrecision" stroke-miterlimit="1.45" shape-rendering="geometricPrecision" transform="matrix(1,0,0,1,-263,-617)" stroke-linecap="butt">
      <path fill="none" d="M442.3278 828.764 L482.3278 828.764 L482.3278 868.764 L442.3278 868.764 Z" clip-path="url(#clipPath2)"/>
      <text x="448.3239" xml:space="preserve" y="853.4778" clip-path="url(#clipPath2)" font-family="sans-serif" stroke="none">(1, 2)</text>
    </g>
    <g text-rendering="geometricPrecision" stroke-miterlimit="1.45" shape-rendering="geometricPrecision" transform="matrix(1,0,0,1,-263,-617)" stroke-linecap="butt">
      <path fill="none" d="M346.3278 878.764 L386.3278 878.764 L386.3278 918.764 L346.3278 918.764 Z" clip-path="url(#clipPath2)"/>
      <text x="352.3239" xml:space="preserve" y="903.4778" clip-path="url(#clipPath2)" font-family="sans-serif" stroke="none">(2, 0)</text>
    </g>
    <g text-rendering="geometricPrecision" stroke-miterlimit="1.45" shape-rendering="geometricPrecision" transform="matrix(1,0,0,1,-263,-617)" stroke-linecap="butt">
      <path fill="none" d="M394.3278 878.764 L434.3278 878.764 L434.3278 918.764 L394.3278 918.764 Z" clip-path="url(#clipPath2)"/>
      <text x="400.3239" xml:space="preserve" y="903.4778" clip-path="url(#clipPath2)" font-family="sans-serif" stroke="none">(2, 1)</text>
    </g>
    <g fill="url(#linearGradient5)" text-rendering="geometricPrecision" shape-rendering="geometricPrecision" transform="matrix(1,0,0,1,-263,-617)" stroke="url(#linearGradient5)">
      <path d="M442.3278 778.764 L484.3278 778.764 L484.3278 820.764 L442.3278 820.764 Z" stroke="none" clip-path="url(#clipPath2)"/>
    </g>
    <g text-rendering="geometricPrecision" stroke-miterlimit="1.45" shape-rendering="geometricPrecision" transform="matrix(1,0,0,1,-263,-617)" stroke-linecap="butt">
      <path fill="none" d="M442.3278 778.764 L484.3278 778.764 L484.3278 820.764 L442.3278 820.764 Z" clip-path="url(#clipPath2)"/>
      <text x="449.3239" y="804.4778" clip-path="url(#clipPath2)" font-family="sans-serif" stroke="none" font-weight="bold" xml:space="preserve">(0, 2)</text>
    </g>
    <g stroke-linecap="butt" transform="matrix(1,0,0,1,-263,-617)" text-rendering="geometricPrecision" font-family="sans-serif" shape-rendering="geometricPrecision" font-weight="bold" stroke-miterlimit="1.45">
      <text x="729.627" xml:space="preserve" y="973.2419" clip-path="url(#clipPath2)" stroke="none">Grille globale composée de 3 x 3 blocs</text>
    </g>
    <g stroke-linecap="round" transform="matrix(1,0,0,1,-263,-617)" stroke-dashoffset="2" text-rendering="geometricPrecision" shape-rendering="geometricPrecision" stroke-dasharray="0,4" stroke-miterlimit="1.45">
      <path fill="none" d="M490.3278 778.764 L530.3278 778.764 L530.3278 818.764 L490.3278 818.764 Z" clip-path="url(#clipPath2)"/>
    </g>
    <g stroke-linecap="round" transform="matrix(1,0,0,1,-263,-617)" stroke-dashoffset="2" text-rendering="geometricPrecision" shape-rendering="geometricPrecision" stroke-dasharray="0,4" stroke-miterlimit="1.45">
      <path fill="none" d="M490.3278 828.764 L530.3278 828.764 L530.3278 868.764 L490.3278 868.764 Z" clip-path="url(#clipPath2)"/>
    </g>
    <g stroke-linecap="round" transform="matrix(1,0,0,1,-263,-617)" stroke-dashoffset="2" text-rendering="geometricPrecision" shape-rendering="geometricPrecision" stroke-dasharray="0,4" stroke-miterlimit="1.45">
      <path fill="none" d="M490.3278 878.764 L530.3278 878.764 L530.3278 918.764 L490.3278 918.764 Z" clip-path="url(#clipPath2)"/>
    </g>
    <g stroke-linecap="butt" transform="matrix(1,0,0,1,-263,-617)" text-rendering="geometricPrecision" font-family="sans-serif" shape-rendering="geometricPrecision" font-weight="bold" stroke-miterlimit="1.45">
      <text x="343.6374" xml:space="preserve" y="951.0779" clip-path="url(#clipPath2)" stroke="none">Bloc (2, 2) : 3 x 3 threads</text>
    </g>
    <g stroke-linecap="butt" transform="matrix(1,0,0,1,-263,-617)" text-rendering="geometricPrecision" font-family="sans-serif" shape-rendering="geometricPrecision" font-style="italic" stroke-miterlimit="1.45">
      <text x="329.6276" xml:space="preserve" y="973.7273" clip-path="url(#clipPath2)" stroke="none">blockDim.x = 3     blockIdx.x = 2</text>
      <text x="329.6276" xml:space="preserve" y="988.4285" clip-path="url(#clipPath2)" stroke="none">blockDim.y = 3     blockIdx.y = 0</text>
    </g>
    <g fill="url(#linearGradient6)" text-rendering="geometricPrecision" shape-rendering="geometricPrecision" transform="matrix(1,0,0,1,-263,-617)" stroke="url(#linearGradient6)">
      <path d="M342.2946 683.764 L382.2946 683.764 L382.2946 723.764 L342.2946 723.764 Z" stroke="none" clip-path="url(#clipPath2)"/>
    </g>
    <g text-rendering="geometricPrecision" stroke-miterlimit="1.45" shape-rendering="geometricPrecision" transform="matrix(1,0,0,1,-263,-617)" stroke-linecap="butt">
      <path fill="none" d="M342.2946 683.764 L382.2946 683.764 L382.2946 723.764 L342.2946 723.764 Z" clip-path="url(#clipPath2)"/>
      <text x="351.6306" y="708.4778" clip-path="url(#clipPath2)" font-family="sans-serif" stroke="none" font-weight="bold" xml:space="preserve">(i, j)</text>
    </g>
    <g stroke-linecap="butt" transform="matrix(1,0,0,1,-263,-617)" text-rendering="geometricPrecision" font-family="sans-serif" shape-rendering="geometricPrecision" font-weight="bold" stroke-miterlimit="1.45">
      <text x="436.1707" xml:space="preserve" y="708.4778" clip-path="url(#clipPath2)" stroke="none">Thread (0, 2)</text>
      <text x="431.9871" y="731.1273" clip-path="url(#clipPath2)" font-style="italic" stroke="none" font-weight="normal" xml:space="preserve">threadIdx.x = 2</text>
      <text x="431.9871" y="745.8284" clip-path="url(#clipPath2)" font-style="italic" stroke="none" font-weight="normal" xml:space="preserve">threadIdx.y = 0</text>
    </g>
    <g text-rendering="geometricPrecision" stroke-miterlimit="1.45" shape-rendering="geometricPrecision" transform="matrix(1,0,0,1,-263,-617)" stroke-linecap="butt">
      <path fill="none" d="M692.1368 839.328 L762.1368 839.328 L762.1368 879.328 L692.1368 879.328 Z" clip-path="url(#clipPath2)"/>
      <text x="728.129" xml:space="preserve" y="864.0419" clip-path="url(#clipPath2)" font-family="sans-serif" stroke="none">(1, 0)</text>
    </g>
    <g fill="url(#linearGradient7)" text-rendering="geometricPrecision" shape-rendering="geometricPrecision" transform="matrix(1,0,0,1,-263,-617)" stroke="url(#linearGradient7)">
      <path d="M775.6368 839.328 L795.6368 839.328 L795.6368 879.328 L775.6368 879.328 Z" stroke="none" clip-path="url(#clipPath2)"/>
    </g>
    <g stroke-linecap="butt" font-size="10px" transform="matrix(-0,-1,1,-0,514.5113,255.163)" fill="white" text-rendering="geometricPrecision" font-family="sans-serif" shape-rendering="geometricPrecision" stroke="white" font-weight="bold" stroke-miterlimit="1.45">
      <text x="2" xml:space="preserve" y="12.0537" clip-path="url(#clipPath6)" stroke="none">Bloc</text>
    </g>
    <g text-rendering="geometricPrecision" stroke-miterlimit="1.45" shape-rendering="geometricPrecision" transform="matrix(1,0,0,1,-263,-617)" stroke-linecap="butt">
      <path fill="none" d="M775.6368 839.328 L845.6368 839.328 L845.6368 879.328 L775.6368 879.328 Z" clip-path="url(#clipPath2)"/>
      <text x="811.629" xml:space="preserve" y="864.0419" clip-path="url(#clipPath2)" font-family="sans-serif" stroke="none">(1, 1)</text>
    </g>
    <g fill="url(#linearGradient8)" text-rendering="geometricPrecision" shape-rendering="geometricPrecision" transform="matrix(1,0,0,1,-263,-617)" stroke="url(#linearGradient8)">
      <path d="M859.1368 839.328 L879.1368 839.328 L879.1368 879.328 L859.1368 879.328 Z" stroke="none" clip-path="url(#clipPath2)"/>
    </g>
    <g stroke-linecap="butt" font-size="10px" transform="matrix(-0,-1,1,-0,598.0113,255.163)" fill="white" text-rendering="geometricPrecision" font-family="sans-serif" shape-rendering="geometricPrecision" stroke="white" font-weight="bold" stroke-miterlimit="1.45">
      <text x="2" xml:space="preserve" y="12.0537" clip-path="url(#clipPath7)" stroke="none">Bloc</text>
    </g>
    <g text-rendering="geometricPrecision" stroke-miterlimit="1.45" shape-rendering="geometricPrecision" transform="matrix(1,0,0,1,-263,-617)" stroke-linecap="butt">
      <path fill="none" d="M859.1368 839.328 L929.1368 839.328 L929.1368 879.328 L859.1368 879.328 Z" clip-path="url(#clipPath2)"/>
      <text x="895.129" xml:space="preserve" y="864.0419" clip-path="url(#clipPath2)" font-family="sans-serif" stroke="none">(1, 2)</text>
    </g>
    <g fill="url(#linearGradient9)" text-rendering="geometricPrecision" shape-rendering="geometricPrecision" transform="matrix(1,0,0,1,-263,-617)" stroke="url(#linearGradient9)">
      <path d="M692.1368 899.328 L712.1368 899.328 L712.1368 939.328 L692.1368 939.328 Z" stroke="none" clip-path="url(#clipPath2)"/>
    </g>
    <g stroke-linecap="butt" font-size="10px" transform="matrix(-0,-1,1,-0,431.0113,315.163)" fill="white" text-rendering="geometricPrecision" font-family="sans-serif" shape-rendering="geometricPrecision" stroke="white" font-weight="bold" stroke-miterlimit="1.45">
      <text x="2" xml:space="preserve" y="12.0537" clip-path="url(#clipPath8)" stroke="none">Bloc</text>
    </g>
    <g text-rendering="geometricPrecision" stroke-miterlimit="1.45" shape-rendering="geometricPrecision" transform="matrix(1,0,0,1,-263,-617)" stroke-linecap="butt">
      <path fill="none" d="M692.1368 899.328 L762.1368 899.328 L762.1368 939.328 L692.1368 939.328 Z" clip-path="url(#clipPath2)"/>
      <text x="728.129" xml:space="preserve" y="924.0419" clip-path="url(#clipPath2)" font-family="sans-serif" stroke="none">(2, 0)</text>
    </g>
    <g fill="url(#linearGradient10)" text-rendering="geometricPrecision" shape-rendering="geometricPrecision" transform="matrix(1,0,0,1,-263,-617)" stroke="url(#linearGradient10)">
      <path d="M775.6368 899.328 L795.6368 899.328 L795.6368 939.328 L775.6368 939.328 Z" stroke="none" clip-path="url(#clipPath2)"/>
    </g>
    <g stroke-linecap="butt" font-size="10px" transform="matrix(-0,-1,1,-0,514.5113,315.163)" fill="white" text-rendering="geometricPrecision" font-family="sans-serif" shape-rendering="geometricPrecision" stroke="white" font-weight="bold" stroke-miterlimit="1.45">
      <text x="2" xml:space="preserve" y="12.0537" clip-path="url(#clipPath9)" stroke="none">Bloc</text>
    </g>
    <g text-rendering="geometricPrecision" stroke-miterlimit="1.45" shape-rendering="geometricPrecision" transform="matrix(1,0,0,1,-263,-617)" stroke-linecap="butt">
      <path fill="none" d="M775.6368 899.328 L845.6368 899.328 L845.6368 939.328 L775.6368 939.328 Z" clip-path="url(#clipPath2)"/>
      <text x="811.629" xml:space="preserve" y="924.0419" clip-path="url(#clipPath2)" font-family="sans-serif" stroke="none">(2, 1)</text>
    </g>
    <g fill="url(#linearGradient11)" text-rendering="geometricPrecision" shape-rendering="geometricPrecision" transform="matrix(1,0,0,1,-263,-617)" stroke="url(#linearGradient11)">
      <path d="M859.1368 899.328 L879.1368 899.328 L879.1368 939.328 L859.1368 939.328 Z" stroke="none" clip-path="url(#clipPath2)"/>
    </g>
    <g stroke-linecap="butt" font-size="10px" transform="matrix(-0,-1,1,-0,598.0113,315.163)" fill="white" text-rendering="geometricPrecision" font-family="sans-serif" shape-rendering="geometricPrecision" stroke="white" font-weight="bold" stroke-miterlimit="1.45">
      <text x="2" xml:space="preserve" y="12.0537" clip-path="url(#clipPath10)" stroke="none">Bloc</text>
    </g>
    <g text-rendering="geometricPrecision" stroke-miterlimit="1.45" shape-rendering="geometricPrecision" transform="matrix(1,0,0,1,-263,-617)" stroke-linecap="butt">
      <path fill="none" d="M859.1368 899.328 L929.1368 899.328 L929.1368 939.328 L859.1368 939.328 Z" clip-path="url(#clipPath2)"/>
      <text x="895.129" xml:space="preserve" y="924.0419" clip-path="url(#clipPath2)" font-family="sans-serif" stroke="none">(2, 2)</text>
    </g>
    <g fill="url(#linearGradient12)" text-rendering="geometricPrecision" shape-rendering="geometricPrecision" transform="matrix(1,0,0,1,-263,-617)" stroke="url(#linearGradient12)">
      <path d="M692.1368 779.328 L712.1368 779.328 L712.1368 819.328 L692.1368 819.328 Z" stroke="none" clip-path="url(#clipPath2)"/>
    </g>
    <g stroke-linecap="butt" font-size="10px" transform="matrix(-0,-1,1,-0,431.0113,195.163)" fill="white" text-rendering="geometricPrecision" font-family="sans-serif" shape-rendering="geometricPrecision" stroke="white" font-weight="bold" stroke-miterlimit="1.45">
      <text x="2" xml:space="preserve" y="12.0537" clip-path="url(#clipPath11)" stroke="none">Bloc</text>
    </g>
    <g text-rendering="geometricPrecision" stroke-miterlimit="1.45" shape-rendering="geometricPrecision" transform="matrix(1,0,0,1,-263,-617)" stroke-linecap="butt">
      <path fill="none" d="M692.1368 779.328 L762.1368 779.328 L762.1368 819.328 L692.1368 819.328 Z" clip-path="url(#clipPath2)"/>
      <text x="728.129" xml:space="preserve" y="804.0419" clip-path="url(#clipPath2)" font-family="sans-serif" stroke="none">(0, 0)</text>
    </g>
    <g fill="url(#linearGradient13)" text-rendering="geometricPrecision" shape-rendering="geometricPrecision" transform="matrix(1,0,0,1,-263,-617)" stroke="url(#linearGradient13)">
      <path d="M775.6368 779.328 L795.6368 779.328 L795.6368 819.328 L775.6368 819.328 Z" stroke="none" clip-path="url(#clipPath2)"/>
    </g>
    <g stroke-linecap="butt" font-size="10px" transform="matrix(-0,-1,1,-0,514.5113,195.163)" fill="white" text-rendering="geometricPrecision" font-family="sans-serif" shape-rendering="geometricPrecision" stroke="white" font-weight="bold" stroke-miterlimit="1.45">
      <text x="2" xml:space="preserve" y="12.0537" clip-path="url(#clipPath12)" stroke="none">Bloc</text>
    </g>
    <g text-rendering="geometricPrecision" stroke-miterlimit="1.45" shape-rendering="geometricPrecision" transform="matrix(1,0,0,1,-263,-617)" stroke-linecap="butt">
      <path fill="none" d="M775.6368 779.328 L845.6368 779.328 L845.6368 819.328 L775.6368 819.328 Z" clip-path="url(#clipPath2)"/>
      <text x="811.629" xml:space="preserve" y="804.0419" clip-path="url(#clipPath2)" font-family="sans-serif" stroke="none">(0, 1)</text>
    </g>
    <g fill="url(#linearGradient14)" text-rendering="geometricPrecision" shape-rendering="geometricPrecision" transform="matrix(1,0,0,1,-263,-617)" stroke="url(#linearGradient14)">
      <path d="M859.1368 779.328 L931.1368 779.328 L931.1368 821.328 L859.1368 821.328 Z" stroke="none" clip-path="url(#clipPath2)"/>
    </g>
    <g text-rendering="geometricPrecision" stroke-miterlimit="1.45" shape-rendering="geometricPrecision" transform="matrix(1,0,0,1,-263,-617)" stroke-linecap="butt">
      <path fill="none" d="M859.1368 779.328 L931.1368 779.328 L931.1368 821.328 L859.1368 821.328 Z" clip-path="url(#clipPath2)"/>
      <text x="897.129" y="805.0419" clip-path="url(#clipPath2)" font-family="sans-serif" stroke="none" font-weight="bold" xml:space="preserve">(0, 2)</text>
    </g>
    <g stroke-linecap="round" transform="matrix(1,0,0,1,-263,-617)" stroke-dashoffset="2" text-rendering="geometricPrecision" shape-rendering="geometricPrecision" stroke-dasharray="0,4" stroke-miterlimit="1.45">
      <path fill="none" d="M947.6368 839.328 L1017.6368 839.328 L1017.6368 879.328 L947.6368 879.328 Z" clip-path="url(#clipPath2)"/>
    </g>
    <g stroke-linecap="round" transform="matrix(1,0,0,1,-263,-617)" stroke-dashoffset="2" text-rendering="geometricPrecision" shape-rendering="geometricPrecision" stroke-dasharray="0,4" stroke-miterlimit="1.45">
      <path fill="none" d="M947.6368 899.328 L1017.6368 899.328 L1017.6368 939.328 L947.6368 939.328 Z" clip-path="url(#clipPath2)"/>
    </g>
    <g stroke-linecap="round" transform="matrix(1,0,0,1,-263,-617)" stroke-dashoffset="2" text-rendering="geometricPrecision" shape-rendering="geometricPrecision" stroke-dasharray="0,4" stroke-miterlimit="1.45">
      <path fill="none" d="M947.6368 779.328 L1017.6368 779.328 L1017.6368 819.328 L947.6368 819.328 Z" clip-path="url(#clipPath2)"/>
    </g>
    <g stroke-linecap="butt" font-size="10px" transform="matrix(-0,-1,1,-0,598.0113,196.163)" fill="white" text-rendering="geometricPrecision" font-family="sans-serif" shape-rendering="geometricPrecision" stroke="white" font-weight="bold" stroke-miterlimit="1.45">
      <text x="2" xml:space="preserve" y="12.0537" clip-path="url(#clipPath13)" stroke="none">Bloc</text>
    </g>
    <g fill="url(#linearGradient15)" text-rendering="geometricPrecision" shape-rendering="geometricPrecision" transform="matrix(1,0,0,1,-263,-617)" stroke="url(#linearGradient15)">
      <rect x="268.7438" width="40" height="40" y="683.764" clip-path="url(#clipPath2)" stroke="none"/>
    </g>
    <g text-rendering="geometricPrecision" stroke-miterlimit="1.45" shape-rendering="geometricPrecision" font-family="sans-serif" transform="matrix(1,0,0,1,-263,-617)" stroke-linecap="butt">
      <text x="280.4088" xml:space="preserve" y="708.4778" clip-path="url(#clipPath2)" stroke="none">PU</text>
      <rect fill="none" x="268.7438" width="40" height="40" y="683.764" clip-path="url(#clipPath2)"/>
      <text x="322.0153" xml:space="preserve" y="708.4778" clip-path="url(#clipPath2)" stroke="none">=</text>
      <text x="656.3232" xml:space="preserve" y="708.4778" clip-path="url(#clipPath2)" font-weight="bold" stroke="none">Coordonées globales du thread :</text>
      <text x="888.8047" xml:space="preserve" y="701.1273" clip-path="url(#clipPath2)" stroke="none">i = 2 x 3 + 2 = 8 </text>
      <text x="888.8047" xml:space="preserve" y="715.8284" clip-path="url(#clipPath2)" stroke="none">j = 0 x 3 + 0 = 0</text>
      <path fill="none" d="M550.3243 848.764 L606.1073 848.764" clip-path="url(#clipPath2)"/>
      <path d="M614.1073 848.764 L602.1073 843.764 L605.1073 848.764 L602.1073 853.764 Z" clip-path="url(#clipPath2)" stroke="none"/>
      <path fill="none" d="M362.2946 723.748 L362.2946 757.1241" clip-path="url(#clipPath2)"/>
      <path d="M362.2946 765.1241 L367.2946 753.1241 L362.2946 756.1241 L357.2946 753.1241 Z" clip-path="url(#clipPath2)" stroke="none"/>
    </g>
  </g>
</svg>
