<?xml version="1.0" encoding="UTF-8"?><svg xmlns="http://www.w3.org/2000/svg" xmlns:xlink="http://www.w3.org/1999/xlink" fill-opacity="1" color-rendering="auto" color-interpolation="auto" text-rendering="auto" stroke="black" stroke-linecap="square" width="815" stroke-miterlimit="10" shape-rendering="auto" stroke-opacity="1" fill="black" stroke-dasharray="none" font-weight="normal" stroke-width="1" height="190" font-family="'Dialog'" font-style="normal" stroke-linejoin="miter" font-size="12px" stroke-dashoffset="0" image-rendering="auto">
  <!--Generated by ySVG 2.5-->
  <defs id="genericDefs"/>
  <g>
    <defs id="defs1">
      <linearGradient x1="-265" gradientUnits="userSpaceOnUse" x2="335" y1="-265" y2="-235" id="linearGradient1" spreadMethod="reflect">
        <stop stop-opacity="1" stop-color="rgb(12,135,218)" offset="0%"/>
        <stop stop-opacity="1" stop-color="rgb(12,135,218)" offset="100%"/>
      </linearGradient>
      <linearGradient x1="400" gradientUnits="userSpaceOnUse" x2="540" y1="-265" y2="-235" id="linearGradient2" spreadMethod="reflect">
        <stop stop-opacity="1" stop-color="rgb(124,191,51)" offset="0%"/>
        <stop stop-opacity="1" stop-color="rgb(124,191,51)" offset="100%"/>
      </linearGradient>
      <linearGradient x1="-30" gradientUnits="userSpaceOnUse" x2="130" y1="-200" y2="-160" id="linearGradient3" spreadMethod="reflect">
        <stop stop-opacity="1" stop-color="rgb(234,234,234)" offset="0%"/>
        <stop stop-opacity="1" stop-color="rgb(204,204,204)" offset="100%"/>
      </linearGradient>
      <linearGradient x1="195" gradientUnits="userSpaceOnUse" x2="335" y1="-200" y2="-160" id="linearGradient4" spreadMethod="reflect">
        <stop stop-opacity="1" stop-color="rgb(234,234,234)" offset="0%"/>
        <stop stop-opacity="1" stop-color="rgb(204,204,204)" offset="100%"/>
      </linearGradient>
      <linearGradient x1="400" gradientUnits="userSpaceOnUse" x2="540" y1="-200" y2="-160" id="linearGradient5" spreadMethod="reflect">
        <stop stop-opacity="1" stop-color="rgb(234,234,234)" offset="0%"/>
        <stop stop-opacity="1" stop-color="rgb(204,204,204)" offset="100%"/>
      </linearGradient>
      <linearGradient x1="195" gradientUnits="userSpaceOnUse" x2="335" y1="-125" y2="-85" id="linearGradient6" spreadMethod="reflect">
        <stop stop-opacity="1" stop-color="rgb(234,234,234)" offset="0%"/>
        <stop stop-opacity="1" stop-color="rgb(204,204,204)" offset="100%"/>
      </linearGradient>
      <linearGradient x1="-265" gradientUnits="userSpaceOnUse" x2="-95" y1="-200" y2="-160" id="linearGradient7" spreadMethod="reflect">
        <stop stop-opacity="1" stop-color="rgb(234,234,234)" offset="0%"/>
        <stop stop-opacity="1" stop-color="rgb(204,204,204)" offset="100%"/>
      </linearGradient>
      <linearGradient x1="-265" gradientUnits="userSpaceOnUse" x2="-95" y1="-125" y2="-85" id="linearGradient8" spreadMethod="reflect">
        <stop stop-opacity="1" stop-color="rgb(234,234,234)" offset="0%"/>
        <stop stop-opacity="1" stop-color="rgb(204,204,204)" offset="100%"/>
      </linearGradient>
      <clipPath clipPathUnits="userSpaceOnUse" id="clipPath1">
        <path d="M0 0 L815 0 L815 190 L0 190 L0 0 Z"/>
      </clipPath>
      <clipPath clipPathUnits="userSpaceOnUse" id="clipPath2">
        <path d="M-270 -270 L545 -270 L545 -80 L-270 -80 L-270 -270 Z"/>
      </clipPath>
    </defs>
    <g fill="url(#linearGradient1)" text-rendering="geometricPrecision" shape-rendering="geometricPrecision" transform="matrix(1,0,0,1,270,270)" stroke="url(#linearGradient1)">
      <path d="M-265 -265 L335 -265 L335 -235 L-265 -235 Z" stroke="none" clip-path="url(#clipPath2)"/>
    </g>
    <g stroke-linecap="butt" transform="matrix(1,0,0,1,270,270)" fill="white" text-rendering="geometricPrecision" font-family="sans-serif" shape-rendering="geometricPrecision" stroke="white" font-weight="bold" stroke-miterlimit="1.45">
      <text x="22.332" xml:space="preserve" y="-245.2861" clip-path="url(#clipPath2)" stroke="none">CPU</text>
    </g>
    <g fill="url(#linearGradient2)" text-rendering="geometricPrecision" shape-rendering="geometricPrecision" transform="matrix(1,0,0,1,270,270)" stroke="url(#linearGradient2)">
      <path d="M400 -265 L540 -265 L540 -235 L400 -235 Z" stroke="none" clip-path="url(#clipPath2)"/>
    </g>
    <g stroke-linecap="butt" transform="matrix(1,0,0,1,270,270)" fill="white" text-rendering="geometricPrecision" font-family="sans-serif" shape-rendering="geometricPrecision" stroke="white" font-weight="bold" stroke-miterlimit="1.45">
      <text x="456.998" xml:space="preserve" y="-245.2861" clip-path="url(#clipPath2)" stroke="none">GPU</text>
    </g>
    <g fill="url(#linearGradient3)" text-rendering="geometricPrecision" shape-rendering="geometricPrecision" transform="matrix(1,0,0,1,270,270)" stroke="url(#linearGradient3)">
      <path d="M-30 -200 L130 -200 L130 -160 L-30 -160 Z" stroke="none" clip-path="url(#clipPath2)"/>
    </g>
    <g text-rendering="geometricPrecision" stroke-miterlimit="1.45" shape-rendering="geometricPrecision" transform="matrix(1,0,0,1,270,270)" stroke-linecap="butt">
      <path fill="none" d="M-30 -200 L130 -200 L130 -160 L-30 -160 Z" clip-path="url(#clipPath2)"/>
      <text x="23.6562" xml:space="preserve" y="-182.6367" clip-path="url(#clipPath2)" font-family="sans-serif" stroke="none">(2) Copie </text>
      <text x="-15.3701" xml:space="preserve" y="-167.9355" clip-path="url(#clipPath2)" font-family="sans-serif" stroke="none">des données sur le GPU</text>
    </g>
    <g fill="url(#linearGradient4)" text-rendering="geometricPrecision" shape-rendering="geometricPrecision" transform="matrix(1,0,0,1,270,270)" stroke="url(#linearGradient4)">
      <path d="M195 -200 L335 -200 L335 -160 L195 -160 Z" stroke="none" clip-path="url(#clipPath2)"/>
    </g>
    <g text-rendering="geometricPrecision" stroke-miterlimit="1.45" shape-rendering="geometricPrecision" transform="matrix(1,0,0,1,270,270)" stroke-linecap="butt">
      <path fill="none" d="M195 -200 L335 -200 L335 -160 L195 -160 Z" clip-path="url(#clipPath2)"/>
      <text x="222.9824" xml:space="preserve" y="-182.6367" clip-path="url(#clipPath2)" font-family="sans-serif" stroke="none">(3) Initialisation </text>
      <text x="234.3174" xml:space="preserve" y="-167.9355" clip-path="url(#clipPath2)" font-family="sans-serif" stroke="none">des kernels</text>
    </g>
    <g fill="url(#linearGradient5)" text-rendering="geometricPrecision" shape-rendering="geometricPrecision" transform="matrix(1,0,0,1,270,270)" stroke="url(#linearGradient5)">
      <path d="M400 -200 L540 -200 L540 -160 L400 -160 Z" stroke="none" clip-path="url(#clipPath2)"/>
    </g>
    <g text-rendering="geometricPrecision" stroke-miterlimit="1.45" shape-rendering="geometricPrecision" transform="matrix(1,0,0,1,270,270)" stroke-linecap="butt">
      <path fill="none" d="M400 -200 L540 -200 L540 -160 L400 -160 Z" clip-path="url(#clipPath2)"/>
      <text x="434.6504" xml:space="preserve" y="-182.6367" clip-path="url(#clipPath2)" font-family="sans-serif" stroke="none">(4) Exécution</text>
      <text x="439.3174" xml:space="preserve" y="-167.9355" clip-path="url(#clipPath2)" font-family="sans-serif" stroke="none">des kernels</text>
    </g>
    <g fill="url(#linearGradient6)" text-rendering="geometricPrecision" shape-rendering="geometricPrecision" transform="matrix(1,0,0,1,270,270)" stroke="url(#linearGradient6)">
      <path d="M195 -125 L335 -125 L335 -85 L195 -85 Z" stroke="none" clip-path="url(#clipPath2)"/>
    </g>
    <g text-rendering="geometricPrecision" stroke-miterlimit="1.45" shape-rendering="geometricPrecision" transform="matrix(1,0,0,1,270,270)" stroke-linecap="butt">
      <path fill="none" d="M195 -125 L335 -125 L335 -85 L195 -85 Z" clip-path="url(#clipPath2)"/>
      <text x="240.3232" xml:space="preserve" y="-107.6367" clip-path="url(#clipPath2)" font-family="sans-serif" stroke="none">(5) Copie</text>
      <text x="232.6504" xml:space="preserve" y="-92.9355" clip-path="url(#clipPath2)" font-family="sans-serif" stroke="none">des résulats</text>
    </g>
    <g fill="url(#linearGradient7)" text-rendering="geometricPrecision" shape-rendering="geometricPrecision" transform="matrix(1,0,0,1,270,270)" stroke="url(#linearGradient7)">
      <path d="M-265 -200 L-95 -200 L-95 -160 L-265 -160 Z" stroke="none" clip-path="url(#clipPath2)"/>
    </g>
    <g text-rendering="geometricPrecision" stroke-miterlimit="1.45" shape-rendering="geometricPrecision" transform="matrix(1,0,0,1,270,270)" stroke-linecap="butt">
      <path fill="none" d="M-265 -200 L-95 -200 L-95 -160 L-265 -160 Z" clip-path="url(#clipPath2)"/>
      <text x="-215.0156" xml:space="preserve" y="-182.6367" clip-path="url(#clipPath2)" font-family="sans-serif" stroke="none">(1) Allocation</text>
      <text x="-251.6924" xml:space="preserve" y="-167.9355" clip-path="url(#clipPath2)" font-family="sans-serif" stroke="none">des ressources sur le GPU</text>
    </g>
    <g fill="url(#linearGradient8)" text-rendering="geometricPrecision" shape-rendering="geometricPrecision" transform="matrix(1,0,0,1,270,270)" stroke="url(#linearGradient8)">
      <path d="M-265 -125 L-95 -125 L-95 -85 L-265 -85 Z" stroke="none" clip-path="url(#clipPath2)"/>
    </g>
    <g text-rendering="geometricPrecision" stroke-miterlimit="1.45" shape-rendering="geometricPrecision" transform="matrix(1,0,0,1,270,270)" stroke-linecap="butt">
      <path fill="none" d="M-265 -125 L-95 -125 L-95 -85 L-265 -85 Z" clip-path="url(#clipPath2)"/>
      <text x="-215.3525" xml:space="preserve" y="-107.6367" clip-path="url(#clipPath2)" font-family="sans-serif" stroke="none">(6) Libération</text>
      <text x="-251.6924" xml:space="preserve" y="-92.9355" clip-path="url(#clipPath2)" font-family="sans-serif" stroke="none">des ressources sur le GPU</text>
    </g>
    <g text-rendering="geometricPrecision" stroke-miterlimit="1.45" shape-rendering="geometricPrecision" transform="matrix(1,0,0,1,270,270)" stroke-linecap="butt">
      <path fill="none" d="M130.0214 -180 L186.9732 -180" clip-path="url(#clipPath2)"/>
    </g>
    <g text-rendering="geometricPrecision" stroke-miterlimit="1.45" shape-rendering="geometricPrecision" transform="matrix(1,0,0,1,270,270)" stroke-linecap="butt">
      <path d="M194.9732 -180 L182.9732 -185 L185.9732 -180 L182.9732 -175 Z" stroke="none" clip-path="url(#clipPath2)"/>
      <path fill="none" d="M334.9933 -180 L392.0246 -180" clip-path="url(#clipPath2)"/>
      <path d="M400.0246 -180 L388.0246 -185 L391.0246 -180 L388.0246 -175 Z" clip-path="url(#clipPath2)" stroke="none"/>
      <path fill="none" d="M490.4512 -200.0158 L490.5 -200.5 L490.0835 -204.6315 L488.889 -208.4795 L486.9989 -211.9617 L484.4957 -214.9957 L481.4617 -217.4989 L477.9795 -219.389 L474.1315 -220.5835 L470 -221 L465.8685 -220.5835 L462.0205 -219.389 L458.5383 -217.4989 L455.5043 -214.9957 L453.0011 -211.9617 L451.111 -208.4795 L450.9298 -207.8957 L450.9218 -207.7961" clip-path="url(#clipPath2)"/>
      <path d="M449.5315 -199.9178 L456.5409 -210.8662 L451.0956 -208.7808 L446.6931 -212.6042 Z" clip-path="url(#clipPath2)" stroke="none"/>
      <path fill="none" d="M470 -159.9683 L470 -105 L342.9933 -105" clip-path="url(#clipPath2)"/>
      <path d="M334.9933 -105 L346.9933 -100 L343.9933 -105 L346.9933 -110 Z" clip-path="url(#clipPath2)" stroke="none"/>
      <path fill="none" d="M194.9888 -113.8712 L50 -113.8712 L50 -152.0128" clip-path="url(#clipPath2)"/>
      <path d="M50 -160.0128 L45 -148.0128 L50 -151.0128 L55 -148.0128 Z" clip-path="url(#clipPath2)" stroke="none"/>
      <path fill="none" d="M-95.0134 -180 L-37.9769 -180" clip-path="url(#clipPath2)"/>
      <path d="M-29.9769 -180 L-41.9769 -185 L-38.9769 -180 L-41.9769 -175 Z" clip-path="url(#clipPath2)" stroke="none"/>
      <path fill="none" d="M194.976 -96.2636 L-86.9965 -96.2636" clip-path="url(#clipPath2)"/>
      <path d="M-94.9965 -96.2636 L-82.9965 -91.2636 L-85.9965 -96.2636 L-82.9965 -101.2636 Z" clip-path="url(#clipPath2)" stroke="none"/>
    </g>
  </g>
</svg>
