<?xml version="1.0" encoding="UTF-8"?><svg xmlns="http://www.w3.org/2000/svg" xmlns:xlink="http://www.w3.org/1999/xlink" fill-opacity="1" color-rendering="auto" color-interpolation="auto" text-rendering="auto" stroke="black" stroke-linecap="square" width="760" stroke-miterlimit="10" shape-rendering="auto" stroke-opacity="1" fill="black" stroke-dasharray="none" font-weight="normal" stroke-width="1" height="286" font-family="'Dialog'" font-style="normal" stroke-linejoin="miter" font-size="12px" stroke-dashoffset="0" image-rendering="auto">
  <!--Generated by ySVG 2.5-->
  <defs id="genericDefs"/>
  <g>
    <defs id="defs1">
      <linearGradient x1="260" gradientUnits="userSpaceOnUse" x2="520" y1="291.7012" y2="335" id="linearGradient1" spreadMethod="reflect">
        <stop stop-opacity="1" stop-color="white" offset="0%"/>
        <stop stop-opacity="1" stop-color="white" offset="100%"/>
      </linearGradient>
      <linearGradient x1="710" gradientUnits="userSpaceOnUse" x2="970" y1="291.7012" y2="335" id="linearGradient2" spreadMethod="reflect">
        <stop stop-opacity="1" stop-color="white" offset="0%"/>
        <stop stop-opacity="1" stop-color="white" offset="100%"/>
      </linearGradient>
      <linearGradient x1="260" gradientUnits="userSpaceOnUse" x2="520" y1="441.7012" y2="485" id="linearGradient3" spreadMethod="reflect">
        <stop stop-opacity="1" stop-color="white" offset="0%"/>
        <stop stop-opacity="1" stop-color="white" offset="100%"/>
      </linearGradient>
      <linearGradient x1="710" gradientUnits="userSpaceOnUse" x2="970" y1="441.7012" y2="485" id="linearGradient4" spreadMethod="reflect">
        <stop stop-opacity="1" stop-color="white" offset="0%"/>
        <stop stop-opacity="1" stop-color="white" offset="100%"/>
      </linearGradient>
      <clipPath clipPathUnits="userSpaceOnUse" id="clipPath1">
        <path d="M0 0 L760 0 L760 286 L0 286 L0 0 Z"/>
      </clipPath>
      <clipPath clipPathUnits="userSpaceOnUse" id="clipPath2">
        <path d="M235 247 L995 247 L995 533 L235 533 L235 247 Z"/>
      </clipPath>
      <clipPath clipPathUnits="userSpaceOnUse" id="clipPath3">
        <path d="M235 291.7012 L235 533 L995 533 L995 291.7012 Z"/>
      </clipPath>
      <clipPath clipPathUnits="userSpaceOnUse" id="clipPath4">
        <path d="M235 247 L235 291.7012 L995 291.7012 L995 247 Z"/>
      </clipPath>
      <clipPath clipPathUnits="userSpaceOnUse" id="clipPath5">
        <path d="M235 441.7012 L235 533 L995 533 L995 441.7012 Z"/>
      </clipPath>
      <clipPath clipPathUnits="userSpaceOnUse" id="clipPath6">
        <path d="M235 247 L235 441.7012 L995 441.7012 L995 247 Z"/>
      </clipPath>
    </defs>
    <g text-rendering="geometricPrecision" stroke-miterlimit="1.45" stroke-dasharray="6,2" shape-rendering="geometricPrecision" transform="matrix(1,0,0,1,-235,-247)" stroke-linecap="butt">
      <path fill="none" d="M240 252.5 L990 252.5 L990 527.5 L240 527.5 Z" clip-path="url(#clipPath2)"/>
      <text x="519.6562" y="518.8633" clip-path="url(#clipPath2)" font-family="sans-serif" stroke-dasharray="none" stroke="none" font-weight="bold" xml:space="preserve">modèle de simulation multi-agent</text>
    </g>
    <g fill="url(#linearGradient1)" text-rendering="geometricPrecision" shape-rendering="geometricPrecision" transform="matrix(1,0,0,1,-235,-247)" stroke="url(#linearGradient1)">
      <rect x="260" y="265" clip-path="url(#clipPath3)" width="260" rx="4" ry="4" height="70" stroke="none"/>
      <rect x="260" y="265" clip-path="url(#clipPath4)" fill="rgb(204,204,204)" width="260" rx="4" ry="4" height="70" stroke="none"/>
    </g>
    <g text-rendering="geometricPrecision" stroke-miterlimit="1.45" shape-rendering="geometricPrecision" transform="matrix(1,0,0,1,-235,-247)" stroke-linecap="butt">
      <rect x="260" y="265" clip-path="url(#clipPath2)" fill="none" width="260" rx="4" ry="4" height="70"/>
      <line y2="291.7012" fill="none" x1="260" clip-path="url(#clipPath2)" x2="520" y1="291.7012"/>
      <text x="347.3174" xml:space="preserve" y="283.0645" clip-path="url(#clipPath2)" font-family="sans-serif" stroke="none">Comportements</text>
      <text x="308.959" xml:space="preserve" y="311.6621" clip-path="url(#clipPath2)" font-family="sans-serif" stroke="none">modélisation des architectures</text>
      <text x="337.6318" xml:space="preserve" y="326.3633" clip-path="url(#clipPath2)" font-family="sans-serif" stroke="none">internes des agents</text>
    </g>
    <g fill="url(#linearGradient2)" text-rendering="geometricPrecision" shape-rendering="geometricPrecision" transform="matrix(1,0,0,1,-235,-247)" stroke="url(#linearGradient2)">
      <rect x="710" y="265" clip-path="url(#clipPath3)" width="260" rx="4" ry="4" height="70" stroke="none"/>
      <rect x="710" y="265" clip-path="url(#clipPath4)" fill="rgb(204,204,204)" width="260" rx="4" ry="4" height="70" stroke="none"/>
    </g>
    <g text-rendering="geometricPrecision" stroke-miterlimit="1.45" shape-rendering="geometricPrecision" transform="matrix(1,0,0,1,-235,-247)" stroke-linecap="butt">
      <rect x="710" y="265" clip-path="url(#clipPath2)" fill="none" width="260" rx="4" ry="4" height="70"/>
      <line y2="291.7012" fill="none" x1="710" clip-path="url(#clipPath2)" x2="970" y1="291.7012"/>
      <text x="799.6436" xml:space="preserve" y="283.0645" clip-path="url(#clipPath2)" font-family="sans-serif" stroke="none">Environnement</text>
      <text x="735.5977" xml:space="preserve" y="311.6621" clip-path="url(#clipPath2)" font-family="sans-serif" stroke="none">modélisation du monde physique et de </text>
      <text x="754.9453" xml:space="preserve" y="326.3633" clip-path="url(#clipPath2)" font-family="sans-serif" stroke="none">la dynamique environnementale</text>
    </g>
    <g fill="url(#linearGradient3)" text-rendering="geometricPrecision" shape-rendering="geometricPrecision" transform="matrix(1,0,0,1,-235,-247)" stroke="url(#linearGradient3)">
      <rect x="260" y="415" clip-path="url(#clipPath5)" width="260" rx="4" ry="4" height="70" stroke="none"/>
      <rect x="260" y="415" clip-path="url(#clipPath6)" fill="rgb(204,204,204)" width="260" rx="4" ry="4" height="70" stroke="none"/>
    </g>
    <g text-rendering="geometricPrecision" stroke-miterlimit="1.45" shape-rendering="geometricPrecision" transform="matrix(1,0,0,1,-235,-247)" stroke-linecap="butt">
      <rect x="260" y="415" clip-path="url(#clipPath2)" fill="none" width="260" rx="4" ry="4" height="70"/>
      <line y2="441.7012" fill="none" x1="260" clip-path="url(#clipPath2)" x2="520" y1="441.7012"/>
      <text x="351.6416" xml:space="preserve" y="433.0645" clip-path="url(#clipPath2)" font-family="sans-serif" stroke="none">Ordonnanceur</text>
      <text x="308.9502" xml:space="preserve" y="461.6621" clip-path="url(#clipPath2)" font-family="sans-serif" stroke="none">modélisation de la dynamique </text>
      <text x="329.6396" xml:space="preserve" y="476.3633" clip-path="url(#clipPath2)" font-family="sans-serif" stroke="none">temporelle du système</text>
    </g>
    <g fill="url(#linearGradient4)" text-rendering="geometricPrecision" shape-rendering="geometricPrecision" transform="matrix(1,0,0,1,-235,-247)" stroke="url(#linearGradient4)">
      <rect x="710" y="415" clip-path="url(#clipPath5)" width="260" rx="4" ry="4" height="70" stroke="none"/>
      <rect x="710" y="415" clip-path="url(#clipPath6)" fill="rgb(204,204,204)" width="260" rx="4" ry="4" height="70" stroke="none"/>
    </g>
    <g text-rendering="geometricPrecision" stroke-miterlimit="1.45" shape-rendering="geometricPrecision" transform="matrix(1,0,0,1,-235,-247)" stroke-linecap="butt">
      <rect x="710" y="415" clip-path="url(#clipPath2)" fill="none" width="260" rx="4" ry="4" height="70"/>
      <line y2="441.7012" fill="none" x1="710" clip-path="url(#clipPath2)" x2="970" y1="441.7012"/>
      <text x="799.6436" xml:space="preserve" y="433.0645" clip-path="url(#clipPath2)" font-family="sans-serif" stroke="none">Environnement</text>
      <text x="759.958" xml:space="preserve" y="461.6621" clip-path="url(#clipPath2)" font-family="sans-serif" stroke="none">modélisation et traitement des</text>
      <text x="772.96" xml:space="preserve" y="476.3633" clip-path="url(#clipPath2)" font-family="sans-serif" stroke="none">événements concourants</text>
    </g>
    <g text-rendering="geometricPrecision" stroke-miterlimit="1.45" shape-rendering="geometricPrecision" transform="matrix(1,0,0,1,-235,-247)" stroke-linecap="butt">
      <path fill="none" d="M527.9957 300 L702.0374 300" clip-path="url(#clipPath2)"/>
    </g>
    <g text-rendering="geometricPrecision" stroke-miterlimit="1.45" shape-rendering="geometricPrecision" transform="matrix(1,0,0,1,-235,-247)" stroke-linecap="butt">
      <path d="M519.9957 300 L531.9957 305 L528.9957 300 L531.9957 295 Z" stroke="none" clip-path="url(#clipPath2)"/>
      <path d="M710.0374 300 L698.0374 295 L701.0374 300 L698.0374 305 Z" clip-path="url(#clipPath2)" stroke="none"/>
      <text x="532.125" xml:space="preserve" y="278.6621" clip-path="url(#clipPath2)" font-family="sans-serif" stroke="none">définitions des conditions </text>
      <text x="535.6436" xml:space="preserve" y="293.3633" clip-path="url(#clipPath2)" font-family="sans-serif" stroke="none">d'action et de perception</text>
      <path fill="none" d="M390 415.0269 L390 343.0192" clip-path="url(#clipPath2)"/>
      <path d="M390 335.0192 L385 347.0192 L390 344.0192 L395 347.0192 Z" clip-path="url(#clipPath2)" stroke="none"/>
      <text x="398.6543" xml:space="preserve" y="379.7139" clip-path="url(#clipPath2)" font-family="sans-serif" stroke="none">contrôle</text>
      <path fill="none" d="M495.0018 414.9994 L727.4202 337.5266" clip-path="url(#clipPath2)"/>
      <path d="M735.0097 334.9968 L722.0444 334.0481 L726.4716 337.8428 L725.2066 343.5349 Z" clip-path="url(#clipPath2)" stroke="none"/>
      <text x="470.2543" xml:space="preserve" y="398.3139" clip-path="url(#clipPath2)" font-family="sans-serif" stroke="none">contrôle</text>
      <path fill="none" d="M519.9957 450 L702.0374 450" clip-path="url(#clipPath2)"/>
      <path d="M710.0374 450 L698.0374 445 L701.0374 450 L698.0374 455 Z" clip-path="url(#clipPath2)" stroke="none"/>
      <text x="593.6543" xml:space="preserve" y="443.3633" clip-path="url(#clipPath2)" font-family="sans-serif" stroke="none">contrôle</text>
      <path fill="none" d="M840 334.9731 L840 406.9808" clip-path="url(#clipPath2)"/>
      <path d="M840 414.9808 L845 402.9808 L840 405.9808 L835 402.9808 Z" clip-path="url(#clipPath2)" stroke="none"/>
      <text x="780.6436" xml:space="preserve" y="379.9139" clip-path="url(#clipPath2)" font-family="sans-serif" stroke="none">engendre</text>
      <path fill="none" d="M495.0018 335.0006 L727.4202 412.4734" clip-path="url(#clipPath2)"/>
      <path d="M735.0097 415.0032 L725.2066 406.4651 L726.4716 412.1572 L722.0444 415.9519 Z" clip-path="url(#clipPath2)" stroke="none"/>
      <text x="525.375" xml:space="preserve" y="378.7604" clip-path="url(#clipPath2)" font-family="sans-serif" stroke="none">engendre</text>
    </g>
  </g>
</svg>
