<?xml version="1.0" encoding="UTF-8"?><svg xmlns="http://www.w3.org/2000/svg" xmlns:xlink="http://www.w3.org/1999/xlink" fill-opacity="1" color-rendering="auto" color-interpolation="auto" text-rendering="auto" stroke="black" stroke-linecap="square" width="801" stroke-miterlimit="10" shape-rendering="auto" stroke-opacity="1" fill="black" stroke-dasharray="none" font-weight="normal" stroke-width="1" height="251" font-family="'Dialog'" font-style="normal" stroke-linejoin="miter" font-size="12px" stroke-dashoffset="0" image-rendering="auto">
  <!--Generated by ySVG 2.5-->
  <defs id="genericDefs"/>
  <g>
    <defs id="defs1">
      <linearGradient x1="530" gradientUnits="userSpaceOnUse" x2="610" y1="306.7012" y2="320" id="linearGradient1" spreadMethod="reflect">
        <stop stop-opacity="1" stop-color="white" offset="0%"/>
        <stop stop-opacity="1" stop-color="white" offset="100%"/>
      </linearGradient>
      <linearGradient x1="770" gradientUnits="userSpaceOnUse" x2="850" y1="306.7012" y2="320" id="linearGradient2" spreadMethod="reflect">
        <stop stop-opacity="1" stop-color="white" offset="0%"/>
        <stop stop-opacity="1" stop-color="white" offset="100%"/>
      </linearGradient>
      <linearGradient x1="1010" gradientUnits="userSpaceOnUse" x2="1090" y1="306.7012" y2="320" id="linearGradient3" spreadMethod="reflect">
        <stop stop-opacity="1" stop-color="white" offset="0%"/>
        <stop stop-opacity="1" stop-color="white" offset="100%"/>
      </linearGradient>
      <clipPath clipPathUnits="userSpaceOnUse" id="clipPath1">
        <path d="M0 0 L801 0 L801 251 L0 251 L0 0 Z"/>
      </clipPath>
      <clipPath clipPathUnits="userSpaceOnUse" id="clipPath2">
        <path d="M345 185 L1146 185 L1146 436 L345 436 L345 185 Z"/>
      </clipPath>
      <clipPath clipPathUnits="userSpaceOnUse" id="clipPath3">
        <path d="M345 306.7012 L345 436 L1146 436 L1146 306.7012 Z"/>
      </clipPath>
      <clipPath clipPathUnits="userSpaceOnUse" id="clipPath4">
        <path d="M345 185 L345 306.7012 L1146 306.7012 L1146 185 Z"/>
      </clipPath>
    </defs>
    <g text-rendering="geometricPrecision" stroke-miterlimit="1.45" stroke-dasharray="6,2" shape-rendering="geometricPrecision" transform="matrix(1,0,0,1,-345,-185)" stroke-linecap="butt">
      <path fill="none" d="M390.3684 190.4912 L1140.3684 190.4912 L1140.3684 430.4912 L390.3684 430.4912 Z" clip-path="url(#clipPath2)"/>
    </g>
    <g fill="url(#linearGradient1)" text-rendering="geometricPrecision" shape-rendering="geometricPrecision" transform="matrix(1,0,0,1,-345,-185)" stroke="url(#linearGradient1)">
      <rect x="530" y="280" clip-path="url(#clipPath3)" width="80" rx="4" ry="4" height="40" stroke="none"/>
      <rect x="530" y="280" clip-path="url(#clipPath4)" fill="rgb(204,204,204)" width="80" rx="4" ry="4" height="40" stroke="none"/>
    </g>
    <g text-rendering="geometricPrecision" stroke-miterlimit="1.45" shape-rendering="geometricPrecision" transform="matrix(1,0,0,1,-345,-185)" stroke-linecap="butt">
      <rect x="530" y="280" clip-path="url(#clipPath2)" fill="none" width="80" rx="4" ry="4" height="40"/>
      <line y2="306.7012" fill="none" x1="530" clip-path="url(#clipPath2)" x2="610" y1="306.7012"/>
      <text x="544.6553" xml:space="preserve" y="298.0645" clip-path="url(#clipPath2)" font-family="sans-serif" stroke="none">Agent (A)</text>
    </g>
    <g fill="url(#linearGradient2)" text-rendering="geometricPrecision" shape-rendering="geometricPrecision" transform="matrix(1,0,0,1,-345,-185)" stroke="url(#linearGradient2)">
      <rect x="770" y="280" clip-path="url(#clipPath3)" width="80" rx="4" ry="4" height="40" stroke="none"/>
      <rect x="770" y="280" clip-path="url(#clipPath4)" fill="rgb(204,204,204)" width="80" rx="4" ry="4" height="40" stroke="none"/>
    </g>
    <g text-rendering="geometricPrecision" stroke-miterlimit="1.45" shape-rendering="geometricPrecision" transform="matrix(1,0,0,1,-345,-185)" stroke-linecap="butt">
      <rect x="770" y="280" clip-path="url(#clipPath2)" fill="none" width="80" rx="4" ry="4" height="40"/>
      <line y2="306.7012" fill="none" x1="770" clip-path="url(#clipPath2)" x2="850" y1="306.7012"/>
      <text x="784.6553" xml:space="preserve" y="298.0645" clip-path="url(#clipPath2)" font-family="sans-serif" stroke="none">Agent (A)</text>
    </g>
    <g fill="url(#linearGradient3)" text-rendering="geometricPrecision" shape-rendering="geometricPrecision" transform="matrix(1,0,0,1,-345,-185)" stroke="url(#linearGradient3)">
      <rect x="1010" y="280" clip-path="url(#clipPath3)" width="80" rx="4" ry="4" height="40" stroke="none"/>
      <rect x="1010" y="280" clip-path="url(#clipPath4)" fill="rgb(204,204,204)" width="80" rx="4" ry="4" height="40" stroke="none"/>
    </g>
    <g text-rendering="geometricPrecision" stroke-miterlimit="1.45" shape-rendering="geometricPrecision" transform="matrix(1,0,0,1,-345,-185)" stroke-linecap="butt">
      <rect x="1010" y="280" clip-path="url(#clipPath2)" fill="none" width="80" rx="4" ry="4" height="40"/>
      <line y2="306.7012" fill="none" x1="1010" clip-path="url(#clipPath2)" x2="1090" y1="306.7012"/>
      <text x="1024.6553" xml:space="preserve" y="298.0645" clip-path="url(#clipPath2)" font-family="sans-serif" stroke="none">Agent (A)</text>
    </g>
    <g fill="rgb(234,234,234)" text-rendering="geometricPrecision" shape-rendering="geometricPrecision" transform="matrix(1,0,0,1,-345,-185)" stroke="rgb(234,234,234)">
      <ellipse rx="40" ry="20" clip-path="url(#clipPath2)" cx="690" cy="390" stroke="none"/>
    </g>
    <g text-rendering="geometricPrecision" stroke-miterlimit="1.45" shape-rendering="geometricPrecision" transform="matrix(1,0,0,1,-345,-185)" stroke-linecap="butt">
      <ellipse rx="40" fill="none" ry="20" clip-path="url(#clipPath2)" cx="690" cy="390"/>
      <text x="665.3291" xml:space="preserve" y="394.7139" clip-path="url(#clipPath2)" font-family="sans-serif" stroke="none">Objet (O)</text>
    </g>
    <g fill="rgb(234,234,234)" text-rendering="geometricPrecision" shape-rendering="geometricPrecision" transform="matrix(1,0,0,1,-345,-185)" stroke="rgb(234,234,234)">
      <ellipse rx="40" ry="20" clip-path="url(#clipPath2)" cx="930" cy="390" stroke="none"/>
    </g>
    <g text-rendering="geometricPrecision" stroke-miterlimit="1.45" shape-rendering="geometricPrecision" transform="matrix(1,0,0,1,-345,-185)" stroke-linecap="butt">
      <ellipse rx="40" fill="none" ry="20" clip-path="url(#clipPath2)" cx="930" cy="390"/>
      <text x="905.3291" xml:space="preserve" y="394.7139" clip-path="url(#clipPath2)" font-family="sans-serif" stroke="none">Objet (O)</text>
    </g>
    <g stroke-linecap="butt" transform="matrix(1,0,0,1,-345,-185)" text-rendering="geometricPrecision" font-family="sans-serif" shape-rendering="geometricPrecision" font-weight="bold" stroke-miterlimit="1.45">
      <text x="483.6641" xml:space="preserve" y="234.7139" clip-path="url(#clipPath2)" stroke="none">Environment (E)</text>
    </g>
    <g text-rendering="geometricPrecision" stroke-miterlimit="1.45" shape-rendering="geometricPrecision" transform="matrix(1,0,0,1,-345,-185)" stroke-linecap="butt">
      <rect x="450" y="210" clip-path="url(#clipPath2)" fill="none" width="160" rx="4" ry="4" height="40"/>
      <path fill="none" d="M617.9902 300 L762.0078 300" clip-path="url(#clipPath2)"/>
      <path d="M609.9902 300 L621.9902 305 L618.9902 300 L621.9902 295 Z" clip-path="url(#clipPath2)" stroke="none"/>
      <path d="M770.0078 300 L758.0078 295 L761.0078 300 L758.0078 305 Z" clip-path="url(#clipPath2)" stroke="none"/>
      <text x="657.9902" xml:space="preserve" y="293.3633" clip-path="url(#clipPath2)" font-family="sans-serif" stroke="none">Relation (R)</text>
      <path fill="none" d="M857.9902 300 L1002.0078 300" clip-path="url(#clipPath2)"/>
      <path d="M849.9902 300 L861.9902 305 L858.9902 300 L861.9902 295 Z" clip-path="url(#clipPath2)" stroke="none"/>
      <path d="M1010.0078 300 L998.0078 295 L1001.0078 300 L998.0078 305 Z" clip-path="url(#clipPath2)" stroke="none"/>
      <text x="897.9902" xml:space="preserve" y="293.3633" clip-path="url(#clipPath2)" font-family="sans-serif" stroke="none">Relation (R)</text>
      <path fill="none" d="M570 319.9951 L570 390 L642.0098 390" clip-path="url(#clipPath2)"/>
      <path d="M650.0098 390 L638.0098 385 L641.0098 390 L638.0098 395 Z" clip-path="url(#clipPath2)" stroke="none"/>
      <text x="501.9805" xml:space="preserve" y="384.3633" clip-path="url(#clipPath2)" font-family="sans-serif" stroke="none">Relation (R)</text>
      <path fill="none" d="M1050 319.9951 L1050 390 L977.9902 390" clip-path="url(#clipPath2)"/>
      <path d="M969.9902 390 L981.9902 395 L978.9902 390 L981.9902 385 Z" clip-path="url(#clipPath2)" stroke="none"/>
      <text x="1054" xml:space="preserve" y="384.3633" clip-path="url(#clipPath2)" font-family="sans-serif" stroke="none">Relation (R)</text>
      <path fill="none" d="M529.9731 300 L420 300 L420 230 L441.9976 230" clip-path="url(#clipPath2)"/>
      <path d="M449.9976 230 L437.9976 225 L440.9976 230 L437.9976 235 Z" clip-path="url(#clipPath2)" stroke="none"/>
      <text x="453.8555" xml:space="preserve" y="316.0645" clip-path="url(#clipPath2)" font-family="sans-serif" stroke="none">Relation (R)</text>
      <path fill="none" d="M810 280.0049 L810 230 L618.0146 230" clip-path="url(#clipPath2)"/>
      <path d="M610.0146 230 L622.0146 235 L619.0146 230 L622.0146 225 Z" clip-path="url(#clipPath2)" stroke="none"/>
    </g>
  </g>
</svg>
