<?xml version="1.0" encoding="UTF-8"?><svg xmlns="http://www.w3.org/2000/svg" xmlns:xlink="http://www.w3.org/1999/xlink" fill-opacity="1" color-rendering="auto" color-interpolation="auto" text-rendering="auto" stroke="black" stroke-linecap="square" width="1150" stroke-miterlimit="10" shape-rendering="auto" stroke-opacity="1" fill="black" stroke-dasharray="none" font-weight="normal" stroke-width="1" height="299" font-family="'Dialog'" font-style="normal" stroke-linejoin="miter" font-size="12px" stroke-dashoffset="0" image-rendering="auto">
  <!--Generated by ySVG 2.5-->
  <defs id="genericDefs"/>
  <g>
    <defs id="defs1">
      <linearGradient x1="580.178" gradientUnits="userSpaceOnUse" x2="740.178" y1="340.2496" y2="500" id="linearGradient1" spreadMethod="reflect">
        <stop stop-opacity="1" stop-color="white" offset="0%"/>
        <stop stop-opacity="1" stop-color="white" offset="100%"/>
      </linearGradient>
      <linearGradient x1="336.125" gradientUnits="userSpaceOnUse" x2="925.125" y1="255" y2="285" id="linearGradient2" spreadMethod="reflect">
        <stop stop-opacity="1" stop-color="rgb(12,135,218)" offset="0%"/>
        <stop stop-opacity="1" stop-color="rgb(12,135,218)" offset="100%"/>
      </linearGradient>
      <linearGradient x1="955.125" gradientUnits="userSpaceOnUse" x2="1475.332" y1="255" y2="285" id="linearGradient3" spreadMethod="reflect">
        <stop stop-opacity="1" stop-color="rgb(124,191,51)" offset="0%"/>
        <stop stop-opacity="1" stop-color="rgb(124,191,51)" offset="100%"/>
      </linearGradient>
      <linearGradient x1="592" gradientUnits="userSpaceOnUse" x2="622" y1="379.2496" y2="409.2496" id="linearGradient4" spreadMethod="reflect">
        <stop stop-opacity="1" stop-color="rgb(51,153,102)" offset="0%"/>
        <stop stop-opacity="1" stop-color="rgb(124,191,51)" offset="100%"/>
      </linearGradient>
      <linearGradient x1="628" gradientUnits="userSpaceOnUse" x2="658" y1="379.2496" y2="409.2496" id="linearGradient5" spreadMethod="reflect">
        <stop stop-opacity="1" stop-color="rgb(51,153,102)" offset="0%"/>
        <stop stop-opacity="1" stop-color="rgb(124,191,51)" offset="100%"/>
      </linearGradient>
      <linearGradient x1="664" gradientUnits="userSpaceOnUse" x2="694" y1="379.2496" y2="409.2496" id="linearGradient6" spreadMethod="reflect">
        <stop stop-opacity="1" stop-color="rgb(51,153,102)" offset="0%"/>
        <stop stop-opacity="1" stop-color="rgb(124,191,51)" offset="100%"/>
      </linearGradient>
      <linearGradient x1="592" gradientUnits="userSpaceOnUse" x2="622" y1="419.2496" y2="449.2496" id="linearGradient7" spreadMethod="reflect">
        <stop stop-opacity="1" stop-color="rgb(51,153,102)" offset="0%"/>
        <stop stop-opacity="1" stop-color="rgb(124,191,51)" offset="100%"/>
      </linearGradient>
      <linearGradient x1="628" gradientUnits="userSpaceOnUse" x2="658" y1="419.2496" y2="449.2496" id="linearGradient8" spreadMethod="reflect">
        <stop stop-opacity="1" stop-color="rgb(51,153,102)" offset="0%"/>
        <stop stop-opacity="1" stop-color="rgb(124,191,51)" offset="100%"/>
      </linearGradient>
      <linearGradient x1="664" gradientUnits="userSpaceOnUse" x2="694" y1="419.2496" y2="449.2496" id="linearGradient9" spreadMethod="reflect">
        <stop stop-opacity="1" stop-color="rgb(51,153,102)" offset="0%"/>
        <stop stop-opacity="1" stop-color="rgb(124,191,51)" offset="100%"/>
      </linearGradient>
      <linearGradient x1="1186" gradientUnits="userSpaceOnUse" x2="1226" y1="340" y2="380" id="linearGradient10" spreadMethod="reflect">
        <stop stop-opacity="1" stop-color="rgb(51,153,102)" offset="0%"/>
        <stop stop-opacity="1" stop-color="rgb(124,191,51)" offset="100%"/>
      </linearGradient>
      <linearGradient x1="1234" gradientUnits="userSpaceOnUse" x2="1274" y1="340" y2="380" id="linearGradient11" spreadMethod="reflect">
        <stop stop-opacity="1" stop-color="rgb(51,153,102)" offset="0%"/>
        <stop stop-opacity="1" stop-color="rgb(124,191,51)" offset="100%"/>
      </linearGradient>
      <linearGradient x1="1282" gradientUnits="userSpaceOnUse" x2="1322" y1="340" y2="380" id="linearGradient12" spreadMethod="reflect">
        <stop stop-opacity="1" stop-color="rgb(51,153,102)" offset="0%"/>
        <stop stop-opacity="1" stop-color="rgb(124,191,51)" offset="100%"/>
      </linearGradient>
      <linearGradient x1="1186" gradientUnits="userSpaceOnUse" x2="1226" y1="390" y2="430" id="linearGradient13" spreadMethod="reflect">
        <stop stop-opacity="1" stop-color="rgb(51,153,102)" offset="0%"/>
        <stop stop-opacity="1" stop-color="rgb(124,191,51)" offset="100%"/>
      </linearGradient>
      <linearGradient x1="1234" gradientUnits="userSpaceOnUse" x2="1274" y1="390" y2="430" id="linearGradient14" spreadMethod="reflect">
        <stop stop-opacity="1" stop-color="rgb(51,153,102)" offset="0%"/>
        <stop stop-opacity="1" stop-color="rgb(124,191,51)" offset="100%"/>
      </linearGradient>
      <linearGradient x1="1282" gradientUnits="userSpaceOnUse" x2="1322" y1="390" y2="430" id="linearGradient15" spreadMethod="reflect">
        <stop stop-opacity="1" stop-color="rgb(51,153,102)" offset="0%"/>
        <stop stop-opacity="1" stop-color="rgb(124,191,51)" offset="100%"/>
      </linearGradient>
      <linearGradient x1="965" gradientUnits="userSpaceOnUse" x2="1075" y1="337.1652" y2="377.1652" id="linearGradient16" spreadMethod="reflect">
        <stop stop-opacity="1" stop-color="white" offset="0%"/>
        <stop stop-opacity="1" stop-color="rgb(234,234,234)" offset="100%"/>
      </linearGradient>
      <linearGradient x1="965" gradientUnits="userSpaceOnUse" x2="1075" y1="386.7" y2="426.7" id="linearGradient17" spreadMethod="reflect">
        <stop stop-opacity="1" stop-color="white" offset="0%"/>
        <stop stop-opacity="1" stop-color="rgb(234,234,234)" offset="100%"/>
      </linearGradient>
      <linearGradient x1="749" gradientUnits="userSpaceOnUse" x2="909" y1="386.7" y2="540" id="linearGradient18" spreadMethod="reflect">
        <stop stop-opacity="1" stop-color="white" offset="0%"/>
        <stop stop-opacity="1" stop-color="white" offset="100%"/>
      </linearGradient>
      <linearGradient x1="760" gradientUnits="userSpaceOnUse" x2="790" y1="415" y2="445" id="linearGradient19" spreadMethod="reflect">
        <stop stop-opacity="1" stop-color="rgb(51,153,102)" offset="0%"/>
        <stop stop-opacity="1" stop-color="rgb(124,191,51)" offset="100%"/>
      </linearGradient>
      <linearGradient x1="796" gradientUnits="userSpaceOnUse" x2="826" y1="415" y2="445" id="linearGradient20" spreadMethod="reflect">
        <stop stop-opacity="1" stop-color="rgb(51,153,102)" offset="0%"/>
        <stop stop-opacity="1" stop-color="rgb(124,191,51)" offset="100%"/>
      </linearGradient>
      <linearGradient x1="832" gradientUnits="userSpaceOnUse" x2="862" y1="415" y2="445" id="linearGradient21" spreadMethod="reflect">
        <stop stop-opacity="1" stop-color="rgb(51,153,102)" offset="0%"/>
        <stop stop-opacity="1" stop-color="rgb(124,191,51)" offset="100%"/>
      </linearGradient>
      <linearGradient x1="760" gradientUnits="userSpaceOnUse" x2="790" y1="455" y2="485" id="linearGradient22" spreadMethod="reflect">
        <stop stop-opacity="1" stop-color="rgb(51,153,102)" offset="0%"/>
        <stop stop-opacity="1" stop-color="rgb(124,191,51)" offset="100%"/>
      </linearGradient>
      <linearGradient x1="796" gradientUnits="userSpaceOnUse" x2="826" y1="455" y2="485" id="linearGradient23" spreadMethod="reflect">
        <stop stop-opacity="1" stop-color="rgb(51,153,102)" offset="0%"/>
        <stop stop-opacity="1" stop-color="rgb(124,191,51)" offset="100%"/>
      </linearGradient>
      <linearGradient x1="832" gradientUnits="userSpaceOnUse" x2="862" y1="455" y2="485" id="linearGradient24" spreadMethod="reflect">
        <stop stop-opacity="1" stop-color="rgb(51,153,102)" offset="0%"/>
        <stop stop-opacity="1" stop-color="rgb(124,191,51)" offset="100%"/>
      </linearGradient>
      <clipPath clipPathUnits="userSpaceOnUse" id="clipPath1">
        <path d="M0 0 L1150 0 L1150 299 L0 299 L0 0 Z"/>
      </clipPath>
      <clipPath clipPathUnits="userSpaceOnUse" id="clipPath2">
        <path d="M331 250 L1481 250 L1481 549 L331 549 L331 250 Z"/>
      </clipPath>
      <clipPath clipPathUnits="userSpaceOnUse" id="clipPath3">
        <path d="M331 326.7012 L331 549 L1481 549 L1481 326.7012 Z"/>
      </clipPath>
      <clipPath clipPathUnits="userSpaceOnUse" id="clipPath4">
        <path d="M331 250 L331 326.7012 L1481 326.7012 L1481 250 Z"/>
      </clipPath>
      <clipPath clipPathUnits="userSpaceOnUse" id="clipPath5">
        <path d="M331 416.7012 L331 549 L1481 549 L1481 416.7012 Z"/>
      </clipPath>
      <clipPath clipPathUnits="userSpaceOnUse" id="clipPath6">
        <path d="M331 250 L331 416.7012 L1481 416.7012 L1481 250 Z"/>
      </clipPath>
    </defs>
    <g fill="white" text-rendering="geometricPrecision" shape-rendering="geometricPrecision" transform="matrix(1,0,0,1,-331,-250)" stroke="white">
      <rect x="563.125" y="300" clip-path="url(#clipPath3)" width="362" rx="4" ry="4" height="243.6" stroke="none"/>
      <rect x="563.125" y="300" clip-path="url(#clipPath4)" fill="rgb(204,204,204)" width="362" rx="4" ry="4" height="243.6" stroke="none"/>
    </g>
    <g text-rendering="geometricPrecision" stroke-miterlimit="1.45" shape-rendering="geometricPrecision" transform="matrix(1,0,0,1,-331,-250)" stroke-linecap="butt">
      <rect x="563.125" y="300" clip-path="url(#clipPath2)" fill="none" width="362" rx="4" ry="4" height="243.6"/>
      <line y2="326.7012" fill="none" x1="563.125" clip-path="url(#clipPath2)" x2="925.125" y1="326.7012"/>
      <text x="676.7598" xml:space="preserve" y="318.0645" clip-path="url(#clipPath2)" font-family="sans-serif" stroke="none">Environnement discrétisé</text>
    </g>
    <g fill="url(#linearGradient1)" text-rendering="geometricPrecision" shape-rendering="geometricPrecision" transform="matrix(1,0,0,1,-331,-250)" stroke="url(#linearGradient1)">
      <path d="M580.178 340.2496 L740.178 340.2496 L740.178 500 L580.178 500 Z" stroke="none" clip-path="url(#clipPath2)"/>
    </g>
    <g text-rendering="geometricPrecision" stroke-miterlimit="1.45" shape-rendering="geometricPrecision" transform="matrix(1,0,0,1,-331,-250)" stroke-linecap="butt">
      <path fill="none" d="M580.178 340.2496 L740.178 340.2496 L740.178 500 L580.178 500 Z" clip-path="url(#clipPath2)"/>
      <text x="586.178" xml:space="preserve" y="358.3141" clip-path="url(#clipPath2)" font-family="sans-serif" stroke="none">Tableau de données</text>
    </g>
    <g fill="url(#linearGradient2)" text-rendering="geometricPrecision" shape-rendering="geometricPrecision" transform="matrix(1,0,0,1,-331,-250)" stroke="url(#linearGradient2)">
      <path d="M336.125 255 L925.125 255 L925.125 285 L336.125 285 Z" stroke="none" clip-path="url(#clipPath2)"/>
    </g>
    <g stroke-linecap="butt" transform="matrix(1,0,0,1,-331,-250)" fill="white" text-rendering="geometricPrecision" font-family="sans-serif" shape-rendering="geometricPrecision" stroke="white" font-weight="bold" stroke-miterlimit="1.45">
      <text x="617.957" xml:space="preserve" y="274.7139" clip-path="url(#clipPath2)" stroke="none">CPU</text>
    </g>
    <g fill="url(#linearGradient3)" text-rendering="geometricPrecision" shape-rendering="geometricPrecision" transform="matrix(1,0,0,1,-331,-250)" stroke="url(#linearGradient3)">
      <path d="M955.125 255 L1475.332 255 L1475.332 285 L955.125 285 Z" stroke="none" clip-path="url(#clipPath2)"/>
    </g>
    <g stroke-linecap="butt" transform="matrix(1,0,0,1,-331,-250)" fill="white" text-rendering="geometricPrecision" font-family="sans-serif" shape-rendering="geometricPrecision" stroke="white" font-weight="bold" stroke-miterlimit="1.45">
      <text x="1202.2266" xml:space="preserve" y="274.7139" clip-path="url(#clipPath2)" stroke="none">GPU</text>
    </g>
    <g fill="white" text-rendering="geometricPrecision" shape-rendering="geometricPrecision" transform="matrix(1,0,0,1,-331,-250)" stroke="white">
      <rect x="336.125" y="390" clip-path="url(#clipPath5)" width="110" rx="4" ry="4" height="60" stroke="none"/>
      <rect x="336.125" y="390" clip-path="url(#clipPath6)" fill="rgb(204,204,204)" width="110" rx="4" ry="4" height="60" stroke="none"/>
    </g>
    <g text-rendering="geometricPrecision" stroke-miterlimit="1.45" shape-rendering="geometricPrecision" transform="matrix(1,0,0,1,-331,-250)" stroke-linecap="butt">
      <rect x="336.125" y="390" clip-path="url(#clipPath2)" fill="none" width="110" rx="4" ry="4" height="60"/>
      <line y2="416.7012" fill="none" x1="336.125" clip-path="url(#clipPath2)" x2="446.125" y1="416.7012"/>
      <text x="372.4453" xml:space="preserve" y="408.0645" clip-path="url(#clipPath2)" font-family="sans-serif" stroke="none">Agents</text>
    </g>
    <g fill="url(#linearGradient4)" text-rendering="geometricPrecision" shape-rendering="geometricPrecision" transform="matrix(1,0,0,1,-331,-250)" stroke="url(#linearGradient4)">
      <path d="M592 379.2496 L622 379.2496 L622 409.2496 L592 409.2496 Z" stroke="none" clip-path="url(#clipPath2)"/>
    </g>
    <g text-rendering="geometricPrecision" stroke-miterlimit="1.45" shape-rendering="geometricPrecision" transform="matrix(1,0,0,1,-331,-250)" stroke-linecap="butt">
      <path fill="none" d="M592 379.2496 L622 379.2496 L622 409.2496 L592 409.2496 Z" clip-path="url(#clipPath2)"/>
      <text x="598.6592" y="398.9635" clip-path="url(#clipPath2)" font-family="sans-serif" stroke="none" font-weight="bold" xml:space="preserve">0,0</text>
    </g>
    <g fill="url(#linearGradient5)" text-rendering="geometricPrecision" shape-rendering="geometricPrecision" transform="matrix(1,0,0,1,-331,-250)" stroke="url(#linearGradient5)">
      <path d="M628 379.2496 L658 379.2496 L658 409.2496 L628 409.2496 Z" stroke="none" clip-path="url(#clipPath2)"/>
    </g>
    <g text-rendering="geometricPrecision" stroke-miterlimit="1.45" shape-rendering="geometricPrecision" transform="matrix(1,0,0,1,-331,-250)" stroke-linecap="butt">
      <path fill="none" d="M628 379.2496 L658 379.2496 L658 409.2496 L628 409.2496 Z" clip-path="url(#clipPath2)"/>
      <text x="634.6592" y="398.9635" clip-path="url(#clipPath2)" font-family="sans-serif" stroke="none" font-weight="bold" xml:space="preserve">0,1</text>
    </g>
    <g fill="url(#linearGradient6)" text-rendering="geometricPrecision" shape-rendering="geometricPrecision" transform="matrix(1,0,0,1,-331,-250)" stroke="url(#linearGradient6)">
      <path d="M664 379.2496 L694 379.2496 L694 409.2496 L664 409.2496 Z" stroke="none" clip-path="url(#clipPath2)"/>
    </g>
    <g text-rendering="geometricPrecision" stroke-miterlimit="1.45" shape-rendering="geometricPrecision" transform="matrix(1,0,0,1,-331,-250)" stroke-linecap="butt">
      <path fill="none" d="M664 379.2496 L694 379.2496 L694 409.2496 L664 409.2496 Z" clip-path="url(#clipPath2)"/>
      <text x="670.6592" y="398.9635" clip-path="url(#clipPath2)" font-family="sans-serif" stroke="none" font-weight="bold" xml:space="preserve">0,2</text>
    </g>
    <g fill="url(#linearGradient7)" text-rendering="geometricPrecision" shape-rendering="geometricPrecision" transform="matrix(1,0,0,1,-331,-250)" stroke="url(#linearGradient7)">
      <path d="M592 419.2496 L622 419.2496 L622 449.2496 L592 449.2496 Z" stroke="none" clip-path="url(#clipPath2)"/>
    </g>
    <g text-rendering="geometricPrecision" stroke-miterlimit="1.45" shape-rendering="geometricPrecision" transform="matrix(1,0,0,1,-331,-250)" stroke-linecap="butt">
      <path fill="none" d="M592 419.2496 L622 419.2496 L622 449.2496 L592 449.2496 Z" clip-path="url(#clipPath2)"/>
      <text x="598.6592" y="438.9635" clip-path="url(#clipPath2)" font-family="sans-serif" stroke="none" font-weight="bold" xml:space="preserve">1,0</text>
    </g>
    <g fill="url(#linearGradient8)" text-rendering="geometricPrecision" shape-rendering="geometricPrecision" transform="matrix(1,0,0,1,-331,-250)" stroke="url(#linearGradient8)">
      <path d="M628 419.2496 L658 419.2496 L658 449.2496 L628 449.2496 Z" stroke="none" clip-path="url(#clipPath2)"/>
    </g>
    <g text-rendering="geometricPrecision" stroke-miterlimit="1.45" shape-rendering="geometricPrecision" transform="matrix(1,0,0,1,-331,-250)" stroke-linecap="butt">
      <path fill="none" d="M628 419.2496 L658 419.2496 L658 449.2496 L628 449.2496 Z" clip-path="url(#clipPath2)"/>
      <text x="634.6592" y="438.9635" clip-path="url(#clipPath2)" font-family="sans-serif" stroke="none" font-weight="bold" xml:space="preserve">1,1</text>
    </g>
    <g fill="url(#linearGradient9)" text-rendering="geometricPrecision" shape-rendering="geometricPrecision" transform="matrix(1,0,0,1,-331,-250)" stroke="url(#linearGradient9)">
      <path d="M664 419.2496 L694 419.2496 L694 449.2496 L664 449.2496 Z" stroke="none" clip-path="url(#clipPath2)"/>
    </g>
    <g text-rendering="geometricPrecision" stroke-miterlimit="1.45" shape-rendering="geometricPrecision" transform="matrix(1,0,0,1,-331,-250)" stroke-linecap="butt">
      <path fill="none" d="M664 419.2496 L694 419.2496 L694 449.2496 L664 449.2496 Z" clip-path="url(#clipPath2)"/>
      <text x="670.6592" y="438.9635" clip-path="url(#clipPath2)" font-family="sans-serif" stroke="none" font-weight="bold" xml:space="preserve">1,2</text>
    </g>
    <g stroke-linecap="round" transform="matrix(1,0,0,1,-331,-250)" stroke-dashoffset="2" text-rendering="geometricPrecision" shape-rendering="geometricPrecision" stroke-dasharray="0,4" stroke-miterlimit="1.45">
      <path fill="none" d="M700 379.2496 L730 379.2496 L730 409.2496 L700 409.2496 Z" clip-path="url(#clipPath2)"/>
    </g>
    <g stroke-linecap="round" transform="matrix(1,0,0,1,-331,-250)" stroke-dashoffset="2" text-rendering="geometricPrecision" shape-rendering="geometricPrecision" stroke-dasharray="0,4" stroke-miterlimit="1.45">
      <path fill="none" d="M700 419.2496 L730 419.2496 L730 449.2496 L700 449.2496 Z" clip-path="url(#clipPath2)"/>
    </g>
    <g stroke-linecap="round" transform="matrix(1,0,0,1,-331,-250)" stroke-dashoffset="2" text-rendering="geometricPrecision" shape-rendering="geometricPrecision" stroke-dasharray="0,4" stroke-miterlimit="1.45">
      <path fill="none" d="M592 459.2496 L622 459.2496 L622 489.2496 L592 489.2496 Z" clip-path="url(#clipPath2)"/>
    </g>
    <g stroke-linecap="round" transform="matrix(1,0,0,1,-331,-250)" stroke-dashoffset="2" text-rendering="geometricPrecision" shape-rendering="geometricPrecision" stroke-dasharray="0,4" stroke-miterlimit="1.45">
      <path fill="none" d="M628 459.2496 L658 459.2496 L658 489.2496 L628 489.2496 Z" clip-path="url(#clipPath2)"/>
    </g>
    <g stroke-linecap="round" transform="matrix(1,0,0,1,-331,-250)" stroke-dashoffset="2" text-rendering="geometricPrecision" shape-rendering="geometricPrecision" stroke-dasharray="0,4" stroke-miterlimit="1.45">
      <path fill="none" d="M664 459.2496 L694 459.2496 L694 489.2496 L664 489.2496 Z" clip-path="url(#clipPath2)"/>
    </g>
    <g stroke-linecap="round" transform="matrix(1,0,0,1,-331,-250)" stroke-dashoffset="2" text-rendering="geometricPrecision" shape-rendering="geometricPrecision" stroke-dasharray="0,4" stroke-miterlimit="1.45">
      <path fill="none" d="M700 459.2496 L730 459.2496 L730 489.2496 L700 489.2496 Z" clip-path="url(#clipPath2)"/>
    </g>
    <g text-rendering="geometricPrecision" stroke-miterlimit="1.45" stroke-dasharray="6,2" shape-rendering="geometricPrecision" transform="matrix(1,0,0,1,-331,-250)" stroke-linecap="butt">
      <path fill="none" d="M1177.828 300 L1475.332 300 L1475.332 540 L1177.828 540 Z" clip-path="url(#clipPath2)"/>
      <text x="1183.828" y="318.0645" clip-path="url(#clipPath2)" font-family="sans-serif" stroke-dasharray="none" stroke="none" xml:space="preserve">Grille globale de threads</text>
    </g>
    <g fill="url(#linearGradient10)" text-rendering="geometricPrecision" shape-rendering="geometricPrecision" transform="matrix(1,0,0,1,-331,-250)" stroke="url(#linearGradient10)">
      <path d="M1186 340 L1226 340 L1226 380 L1186 380 Z" stroke="none" clip-path="url(#clipPath2)"/>
    </g>
    <g text-rendering="geometricPrecision" stroke-miterlimit="1.45" shape-rendering="geometricPrecision" transform="matrix(1,0,0,1,-331,-250)" stroke-linecap="butt">
      <path fill="none" d="M1186 340 L1226 340 L1226 380 L1186 380 Z" clip-path="url(#clipPath2)"/>
      <text x="1191.9961" y="364.7139" clip-path="url(#clipPath2)" font-family="sans-serif" stroke="none" font-weight="bold" xml:space="preserve">(0, 0)</text>
    </g>
    <g fill="url(#linearGradient11)" text-rendering="geometricPrecision" shape-rendering="geometricPrecision" transform="matrix(1,0,0,1,-331,-250)" stroke="url(#linearGradient11)">
      <path d="M1234 340 L1274 340 L1274 380 L1234 380 Z" stroke="none" clip-path="url(#clipPath2)"/>
    </g>
    <g text-rendering="geometricPrecision" stroke-miterlimit="1.45" shape-rendering="geometricPrecision" transform="matrix(1,0,0,1,-331,-250)" stroke-linecap="butt">
      <path fill="none" d="M1234 340 L1274 340 L1274 380 L1234 380 Z" clip-path="url(#clipPath2)"/>
      <text x="1239.9961" y="364.7139" clip-path="url(#clipPath2)" font-family="sans-serif" stroke="none" font-weight="bold" xml:space="preserve">(0, 1)</text>
    </g>
    <g fill="url(#linearGradient12)" text-rendering="geometricPrecision" shape-rendering="geometricPrecision" transform="matrix(1,0,0,1,-331,-250)" stroke="url(#linearGradient12)">
      <path d="M1282 340 L1322 340 L1322 380 L1282 380 Z" stroke="none" clip-path="url(#clipPath2)"/>
    </g>
    <g text-rendering="geometricPrecision" stroke-miterlimit="1.45" shape-rendering="geometricPrecision" transform="matrix(1,0,0,1,-331,-250)" stroke-linecap="butt">
      <path fill="none" d="M1282 340 L1322 340 L1322 380 L1282 380 Z" clip-path="url(#clipPath2)"/>
      <text x="1287.9961" y="364.7139" clip-path="url(#clipPath2)" font-family="sans-serif" stroke="none" font-weight="bold" xml:space="preserve">(0, 2)</text>
    </g>
    <g text-rendering="geometricPrecision" stroke-miterlimit="1.45" shape-rendering="geometricPrecision" transform="matrix(1,0,0,1,-331,-250)" stroke-linecap="butt">
      <path fill="none" d="M1330 340 L1370 340 L1370 380 L1330 380 Z" clip-path="url(#clipPath2)"/>
      <text x="1335.9961" xml:space="preserve" y="364.7139" clip-path="url(#clipPath2)" font-family="sans-serif" stroke="none">(0, 3)</text>
    </g>
    <g text-rendering="geometricPrecision" stroke-miterlimit="1.45" shape-rendering="geometricPrecision" transform="matrix(1,0,0,1,-331,-250)" stroke-linecap="butt">
      <path fill="none" d="M1378 340 L1418 340 L1418 380 L1378 380 Z" clip-path="url(#clipPath2)"/>
      <text x="1383.9961" xml:space="preserve" y="364.7139" clip-path="url(#clipPath2)" font-family="sans-serif" stroke="none">(0, 4)</text>
    </g>
    <g fill="url(#linearGradient13)" text-rendering="geometricPrecision" shape-rendering="geometricPrecision" transform="matrix(1,0,0,1,-331,-250)" stroke="url(#linearGradient13)">
      <path d="M1186 390 L1226 390 L1226 430 L1186 430 Z" stroke="none" clip-path="url(#clipPath2)"/>
    </g>
    <g text-rendering="geometricPrecision" stroke-miterlimit="1.45" shape-rendering="geometricPrecision" transform="matrix(1,0,0,1,-331,-250)" stroke-linecap="butt">
      <path fill="none" d="M1186 390 L1226 390 L1226 430 L1186 430 Z" clip-path="url(#clipPath2)"/>
      <text x="1191.9961" y="414.7139" clip-path="url(#clipPath2)" font-family="sans-serif" stroke="none" font-weight="bold" xml:space="preserve">(1, 0)</text>
    </g>
    <g fill="url(#linearGradient14)" text-rendering="geometricPrecision" shape-rendering="geometricPrecision" transform="matrix(1,0,0,1,-331,-250)" stroke="url(#linearGradient14)">
      <path d="M1234 390 L1274 390 L1274 430 L1234 430 Z" stroke="none" clip-path="url(#clipPath2)"/>
    </g>
    <g text-rendering="geometricPrecision" stroke-miterlimit="1.45" shape-rendering="geometricPrecision" transform="matrix(1,0,0,1,-331,-250)" stroke-linecap="butt">
      <path fill="none" d="M1234 390 L1274 390 L1274 430 L1234 430 Z" clip-path="url(#clipPath2)"/>
      <text x="1239.9961" y="414.7139" clip-path="url(#clipPath2)" font-family="sans-serif" stroke="none" font-weight="bold" xml:space="preserve">(1, 1)</text>
    </g>
    <g fill="url(#linearGradient15)" text-rendering="geometricPrecision" shape-rendering="geometricPrecision" transform="matrix(1,0,0,1,-331,-250)" stroke="url(#linearGradient15)">
      <path d="M1282 390 L1322 390 L1322 430 L1282 430 Z" stroke="none" clip-path="url(#clipPath2)"/>
    </g>
    <g text-rendering="geometricPrecision" stroke-miterlimit="1.45" shape-rendering="geometricPrecision" transform="matrix(1,0,0,1,-331,-250)" stroke-linecap="butt">
      <path fill="none" d="M1282 390 L1322 390 L1322 430 L1282 430 Z" clip-path="url(#clipPath2)"/>
      <text x="1287.9961" y="414.7139" clip-path="url(#clipPath2)" font-family="sans-serif" stroke="none" font-weight="bold" xml:space="preserve">(1, 2)</text>
    </g>
    <g text-rendering="geometricPrecision" stroke-miterlimit="1.45" shape-rendering="geometricPrecision" transform="matrix(1,0,0,1,-331,-250)" stroke-linecap="butt">
      <path fill="none" d="M1330 390 L1370 390 L1370 430 L1330 430 Z" clip-path="url(#clipPath2)"/>
      <text x="1335.9961" xml:space="preserve" y="414.7139" clip-path="url(#clipPath2)" font-family="sans-serif" stroke="none">(1, 3)</text>
    </g>
    <g text-rendering="geometricPrecision" stroke-miterlimit="1.45" shape-rendering="geometricPrecision" transform="matrix(1,0,0,1,-331,-250)" stroke-linecap="butt">
      <path fill="none" d="M1378 390 L1418 390 L1418 430 L1378 430 Z" clip-path="url(#clipPath2)"/>
      <text x="1383.9961" xml:space="preserve" y="414.7139" clip-path="url(#clipPath2)" font-family="sans-serif" stroke="none">(1, 4)</text>
    </g>
    <g text-rendering="geometricPrecision" stroke-miterlimit="1.45" shape-rendering="geometricPrecision" transform="matrix(1,0,0,1,-331,-250)" stroke-linecap="butt">
      <path fill="none" d="M1186 440 L1226 440 L1226 480 L1186 480 Z" clip-path="url(#clipPath2)"/>
      <text x="1191.9961" xml:space="preserve" y="464.7139" clip-path="url(#clipPath2)" font-family="sans-serif" stroke="none">(2, 0)</text>
    </g>
    <g text-rendering="geometricPrecision" stroke-miterlimit="1.45" shape-rendering="geometricPrecision" transform="matrix(1,0,0,1,-331,-250)" stroke-linecap="butt">
      <path fill="none" d="M1234 440 L1274 440 L1274 480 L1234 480 Z" clip-path="url(#clipPath2)"/>
      <text x="1239.9961" xml:space="preserve" y="464.7139" clip-path="url(#clipPath2)" font-family="sans-serif" stroke="none">(2, 1)</text>
    </g>
    <g text-rendering="geometricPrecision" stroke-miterlimit="1.45" shape-rendering="geometricPrecision" transform="matrix(1,0,0,1,-331,-250)" stroke-linecap="butt">
      <path fill="none" d="M1330 440 L1370 440 L1370 480 L1330 480 Z" clip-path="url(#clipPath2)"/>
      <text x="1335.9961" xml:space="preserve" y="464.7139" clip-path="url(#clipPath2)" font-family="sans-serif" stroke="none">(2, 3)</text>
    </g>
    <g text-rendering="geometricPrecision" stroke-miterlimit="1.45" shape-rendering="geometricPrecision" transform="matrix(1,0,0,1,-331,-250)" stroke-linecap="butt">
      <path fill="none" d="M1378 440 L1418 440 L1418 480 L1378 480 Z" clip-path="url(#clipPath2)"/>
      <text x="1383.9961" xml:space="preserve" y="464.7139" clip-path="url(#clipPath2)" font-family="sans-serif" stroke="none">(2, 4)</text>
    </g>
    <g stroke-linecap="round" transform="matrix(1,0,0,1,-331,-250)" stroke-dashoffset="2" text-rendering="geometricPrecision" shape-rendering="geometricPrecision" stroke-dasharray="0,4" stroke-miterlimit="1.45">
      <path fill="none" d="M1426 340 L1466 340 L1466 380 L1426 380 Z" clip-path="url(#clipPath2)"/>
    </g>
    <g stroke-linecap="round" transform="matrix(1,0,0,1,-331,-250)" stroke-dashoffset="2" text-rendering="geometricPrecision" shape-rendering="geometricPrecision" stroke-dasharray="0,4" stroke-miterlimit="1.45">
      <path fill="none" d="M1426 390 L1466 390 L1466 430 L1426 430 Z" clip-path="url(#clipPath2)"/>
    </g>
    <g stroke-linecap="round" transform="matrix(1,0,0,1,-331,-250)" stroke-dashoffset="2" text-rendering="geometricPrecision" shape-rendering="geometricPrecision" stroke-dasharray="0,4" stroke-miterlimit="1.45">
      <path fill="none" d="M1426 440 L1466 440 L1466 480 L1426 480 Z" clip-path="url(#clipPath2)"/>
    </g>
    <g stroke-linecap="round" transform="matrix(1,0,0,1,-331,-250)" stroke-dashoffset="2" text-rendering="geometricPrecision" shape-rendering="geometricPrecision" stroke-dasharray="0,4" stroke-miterlimit="1.45">
      <path fill="none" d="M1186 490 L1226 490 L1226 530 L1186 530 Z" clip-path="url(#clipPath2)"/>
    </g>
    <g stroke-linecap="round" transform="matrix(1,0,0,1,-331,-250)" stroke-dashoffset="2" text-rendering="geometricPrecision" shape-rendering="geometricPrecision" stroke-dasharray="0,4" stroke-miterlimit="1.45">
      <path fill="none" d="M1234 490 L1274 490 L1274 530 L1234 530 Z" clip-path="url(#clipPath2)"/>
    </g>
    <g stroke-linecap="round" transform="matrix(1,0,0,1,-331,-250)" stroke-dashoffset="2" text-rendering="geometricPrecision" shape-rendering="geometricPrecision" stroke-dasharray="0,4" stroke-miterlimit="1.45">
      <path fill="none" d="M1282 490 L1322 490 L1322 530 L1282 530 Z" clip-path="url(#clipPath2)"/>
    </g>
    <g stroke-linecap="round" transform="matrix(1,0,0,1,-331,-250)" stroke-dashoffset="2" text-rendering="geometricPrecision" shape-rendering="geometricPrecision" stroke-dasharray="0,4" stroke-miterlimit="1.45">
      <path fill="none" d="M1330 490 L1370 490 L1370 530 L1330 530 Z" clip-path="url(#clipPath2)"/>
    </g>
    <g stroke-linecap="round" transform="matrix(1,0,0,1,-331,-250)" stroke-dashoffset="2" text-rendering="geometricPrecision" shape-rendering="geometricPrecision" stroke-dasharray="0,4" stroke-miterlimit="1.45">
      <path fill="none" d="M1378 490 L1418 490 L1418 530 L1378 530 Z" clip-path="url(#clipPath2)"/>
    </g>
    <g stroke-linecap="round" transform="matrix(1,0,0,1,-331,-250)" stroke-dashoffset="2" text-rendering="geometricPrecision" shape-rendering="geometricPrecision" stroke-dasharray="0,4" stroke-miterlimit="1.45">
      <path fill="none" d="M1426 490 L1466 490 L1466 530 L1426 530 Z" clip-path="url(#clipPath2)"/>
    </g>
    <g text-rendering="geometricPrecision" stroke-miterlimit="1.45" shape-rendering="geometricPrecision" font-family="sans-serif" transform="matrix(1,0,0,1,-331,-250)" stroke-linecap="butt">
      <text x="1436.0039" xml:space="preserve" y="514.7139" clip-path="url(#clipPath2)" stroke="none">(i, j)</text>
    </g>
    <g text-rendering="geometricPrecision" stroke-miterlimit="1.45" stroke-dasharray="6,2" shape-rendering="geometricPrecision" transform="matrix(1,0,0,1,-331,-250)" stroke-linecap="butt">
      <path fill="none" d="M955.125 300 L1090.325 300 L1090.325 500 L955.125 500 Z" clip-path="url(#clipPath2)"/>
      <text x="961.125" y="318.0645" clip-path="url(#clipPath2)" font-family="sans-serif" stroke-dasharray="none" stroke="none" xml:space="preserve">Modules GPU</text>
    </g>
    <g fill="url(#linearGradient16)" text-rendering="geometricPrecision" shape-rendering="geometricPrecision" transform="matrix(1,0,0,1,-331,-250)" stroke="url(#linearGradient16)">
      <path d="M965 337.1652 L1075 337.1652 L1075 377.1652 L965 377.1652 Z" stroke="none" clip-path="url(#clipPath2)"/>
    </g>
    <g text-rendering="geometricPrecision" stroke-miterlimit="1.45" shape-rendering="geometricPrecision" transform="matrix(1,0,0,1,-331,-250)" stroke-linecap="butt">
      <path fill="none" d="M965 337.1652 L1075 337.1652 L1075 377.1652 L965 377.1652 Z" clip-path="url(#clipPath2)"/>
      <text x="997.6523" xml:space="preserve" y="361.8791" clip-path="url(#clipPath2)" font-family="sans-serif" stroke="none">Kernel 1</text>
    </g>
    <g fill="url(#linearGradient17)" text-rendering="geometricPrecision" shape-rendering="geometricPrecision" transform="matrix(1,0,0,1,-331,-250)" stroke="url(#linearGradient17)">
      <path d="M965 386.7 L1075 386.7 L1075 426.7 L965 426.7 Z" stroke="none" clip-path="url(#clipPath2)"/>
    </g>
    <g text-rendering="geometricPrecision" stroke-miterlimit="1.45" shape-rendering="geometricPrecision" transform="matrix(1,0,0,1,-331,-250)" stroke-linecap="butt">
      <path fill="none" d="M965 386.7 L1075 386.7 L1075 426.7 L965 426.7 Z" clip-path="url(#clipPath2)"/>
      <text x="997.6523" xml:space="preserve" y="411.4139" clip-path="url(#clipPath2)" font-family="sans-serif" stroke="none">Kernel 2</text>
    </g>
    <g text-rendering="geometricPrecision" stroke-miterlimit="1.45" shape-rendering="geometricPrecision" transform="matrix(1,0,0,1,-331,-250)" stroke-linecap="butt">
      <path fill="none" d="M1282 440 L1322 440 L1322 480 L1282 480 Z" clip-path="url(#clipPath2)"/>
      <text x="1287.9961" xml:space="preserve" y="464.7139" clip-path="url(#clipPath2)" font-family="sans-serif" stroke="none">(2, 2)</text>
    </g>
    <g fill="url(#linearGradient18)" text-rendering="geometricPrecision" shape-rendering="geometricPrecision" transform="matrix(1,0,0,1,-331,-250)" stroke="url(#linearGradient18)">
      <path d="M749 386.7 L909 386.7 L909 540 L749 540 Z" stroke="none" clip-path="url(#clipPath2)"/>
    </g>
    <g text-rendering="geometricPrecision" stroke-miterlimit="1.45" shape-rendering="geometricPrecision" transform="matrix(1,0,0,1,-331,-250)" stroke-linecap="butt">
      <path fill="none" d="M749 386.7 L909 386.7 L909 540 L749 540 Z" clip-path="url(#clipPath2)"/>
      <text x="755" xml:space="preserve" y="404.7645" clip-path="url(#clipPath2)" font-family="sans-serif" stroke="none">Tableau résultat</text>
    </g>
    <g fill="url(#linearGradient19)" text-rendering="geometricPrecision" shape-rendering="geometricPrecision" transform="matrix(1,0,0,1,-331,-250)" stroke="url(#linearGradient19)">
      <path d="M760 415 L790 415 L790 445 L760 445 Z" stroke="none" clip-path="url(#clipPath2)"/>
    </g>
    <g text-rendering="geometricPrecision" stroke-miterlimit="1.45" shape-rendering="geometricPrecision" transform="matrix(1,0,0,1,-331,-250)" stroke-linecap="butt">
      <path fill="none" d="M760 415 L790 415 L790 445 L760 445 Z" clip-path="url(#clipPath2)"/>
      <text x="766.6592" y="434.7139" clip-path="url(#clipPath2)" font-family="sans-serif" stroke="none" font-weight="bold" xml:space="preserve">0,0</text>
    </g>
    <g fill="url(#linearGradient20)" text-rendering="geometricPrecision" shape-rendering="geometricPrecision" transform="matrix(1,0,0,1,-331,-250)" stroke="url(#linearGradient20)">
      <path d="M796 415 L826 415 L826 445 L796 445 Z" stroke="none" clip-path="url(#clipPath2)"/>
    </g>
    <g text-rendering="geometricPrecision" stroke-miterlimit="1.45" shape-rendering="geometricPrecision" transform="matrix(1,0,0,1,-331,-250)" stroke-linecap="butt">
      <path fill="none" d="M796 415 L826 415 L826 445 L796 445 Z" clip-path="url(#clipPath2)"/>
      <text x="802.6592" y="434.7139" clip-path="url(#clipPath2)" font-family="sans-serif" stroke="none" font-weight="bold" xml:space="preserve">0,1</text>
    </g>
    <g fill="url(#linearGradient21)" text-rendering="geometricPrecision" shape-rendering="geometricPrecision" transform="matrix(1,0,0,1,-331,-250)" stroke="url(#linearGradient21)">
      <path d="M832 415 L862 415 L862 445 L832 445 Z" stroke="none" clip-path="url(#clipPath2)"/>
    </g>
    <g text-rendering="geometricPrecision" stroke-miterlimit="1.45" shape-rendering="geometricPrecision" transform="matrix(1,0,0,1,-331,-250)" stroke-linecap="butt">
      <path fill="none" d="M832 415 L862 415 L862 445 L832 445 Z" clip-path="url(#clipPath2)"/>
      <text x="838.6592" y="434.7139" clip-path="url(#clipPath2)" font-family="sans-serif" stroke="none" font-weight="bold" xml:space="preserve">0,2</text>
    </g>
    <g fill="url(#linearGradient22)" text-rendering="geometricPrecision" shape-rendering="geometricPrecision" transform="matrix(1,0,0,1,-331,-250)" stroke="url(#linearGradient22)">
      <path d="M760 455 L790 455 L790 485 L760 485 Z" stroke="none" clip-path="url(#clipPath2)"/>
    </g>
    <g text-rendering="geometricPrecision" stroke-miterlimit="1.45" shape-rendering="geometricPrecision" transform="matrix(1,0,0,1,-331,-250)" stroke-linecap="butt">
      <path fill="none" d="M760 455 L790 455 L790 485 L760 485 Z" clip-path="url(#clipPath2)"/>
      <text x="766.6592" y="474.7139" clip-path="url(#clipPath2)" font-family="sans-serif" stroke="none" font-weight="bold" xml:space="preserve">1,0</text>
    </g>
    <g fill="url(#linearGradient23)" text-rendering="geometricPrecision" shape-rendering="geometricPrecision" transform="matrix(1,0,0,1,-331,-250)" stroke="url(#linearGradient23)">
      <path d="M796 455 L826 455 L826 485 L796 485 Z" stroke="none" clip-path="url(#clipPath2)"/>
    </g>
    <g text-rendering="geometricPrecision" stroke-miterlimit="1.45" shape-rendering="geometricPrecision" transform="matrix(1,0,0,1,-331,-250)" stroke-linecap="butt">
      <path fill="none" d="M796 455 L826 455 L826 485 L796 485 Z" clip-path="url(#clipPath2)"/>
      <text x="802.6592" y="474.7139" clip-path="url(#clipPath2)" font-family="sans-serif" stroke="none" font-weight="bold" xml:space="preserve">1,1</text>
    </g>
    <g fill="url(#linearGradient24)" text-rendering="geometricPrecision" shape-rendering="geometricPrecision" transform="matrix(1,0,0,1,-331,-250)" stroke="url(#linearGradient24)">
      <path d="M832 455 L862 455 L862 485 L832 485 Z" stroke="none" clip-path="url(#clipPath2)"/>
    </g>
    <g text-rendering="geometricPrecision" stroke-miterlimit="1.45" shape-rendering="geometricPrecision" transform="matrix(1,0,0,1,-331,-250)" stroke-linecap="butt">
      <path fill="none" d="M832 455 L862 455 L862 485 L832 485 Z" clip-path="url(#clipPath2)"/>
      <text x="838.6592" y="474.7139" clip-path="url(#clipPath2)" font-family="sans-serif" stroke="none" font-weight="bold" xml:space="preserve">1,2</text>
    </g>
    <g stroke-linecap="round" transform="matrix(1,0,0,1,-331,-250)" stroke-dashoffset="2" text-rendering="geometricPrecision" shape-rendering="geometricPrecision" stroke-dasharray="0,4" stroke-miterlimit="1.45">
      <path fill="none" d="M868 415 L898 415 L898 445 L868 445 Z" clip-path="url(#clipPath2)"/>
    </g>
    <g stroke-linecap="round" transform="matrix(1,0,0,1,-331,-250)" stroke-dashoffset="2" text-rendering="geometricPrecision" shape-rendering="geometricPrecision" stroke-dasharray="0,4" stroke-miterlimit="1.45">
      <path fill="none" d="M868 455 L898 455 L898 485 L868 485 Z" clip-path="url(#clipPath2)"/>
    </g>
    <g stroke-linecap="round" transform="matrix(1,0,0,1,-331,-250)" stroke-dashoffset="2" text-rendering="geometricPrecision" shape-rendering="geometricPrecision" stroke-dasharray="0,4" stroke-miterlimit="1.45">
      <path fill="none" d="M760 495 L790 495 L790 525 L760 525 Z" clip-path="url(#clipPath2)"/>
    </g>
    <g stroke-linecap="round" transform="matrix(1,0,0,1,-331,-250)" stroke-dashoffset="2" text-rendering="geometricPrecision" shape-rendering="geometricPrecision" stroke-dasharray="0,4" stroke-miterlimit="1.45">
      <path fill="none" d="M796 495 L826 495 L826 525 L796 525 Z" clip-path="url(#clipPath2)"/>
    </g>
    <g stroke-linecap="round" transform="matrix(1,0,0,1,-331,-250)" stroke-dashoffset="2" text-rendering="geometricPrecision" shape-rendering="geometricPrecision" stroke-dasharray="0,4" stroke-miterlimit="1.45">
      <path fill="none" d="M832 495 L862 495 L862 525 L832 525 Z" clip-path="url(#clipPath2)"/>
    </g>
    <g stroke-linecap="round" transform="matrix(1,0,0,1,-331,-250)" stroke-dashoffset="2" text-rendering="geometricPrecision" shape-rendering="geometricPrecision" stroke-dasharray="0,4" stroke-miterlimit="1.45">
      <path fill="none" d="M868 495 L898 495 L898 525 L868 525 Z" clip-path="url(#clipPath2)"/>
    </g>
    <g stroke-linecap="round" transform="matrix(1,0,0,1,-331,-250)" stroke-dashoffset="2" text-rendering="geometricPrecision" shape-rendering="geometricPrecision" stroke-dasharray="0,4" stroke-miterlimit="1.45">
      <path fill="none" d="M965 436.2348 L1075 436.2348 L1075 476.2348 L965 476.2348 Z" clip-path="url(#clipPath2)"/>
    </g>
    <g text-rendering="geometricPrecision" stroke-miterlimit="1.45" shape-rendering="geometricPrecision" font-family="sans-serif" transform="matrix(1,0,0,1,-331,-250)" stroke-linecap="butt">
      <text x="466.6875" xml:space="preserve" y="437.3141" clip-path="url(#clipPath2)" stroke="none">de l'information</text>
    </g>
    <g text-rendering="geometricPrecision" stroke-miterlimit="1.45" shape-rendering="geometricPrecision" transform="matrix(1,0,0,1,-331,-250)" stroke-linecap="butt">
      <path fill="none" d="M446.1377 420.0255 L572.2003 420.084" clip-path="url(#clipPath2)"/>
      <path d="M580.2003 420.0877 L568.2026 415.0821 L571.2003 420.0835 L568.1979 425.0821 Z" clip-path="url(#clipPath2)" stroke="none"/>
      <text x="481.2166" xml:space="preserve" y="413.7671" clip-path="url(#clipPath2)" font-family="sans-serif" stroke="none">déposent</text>
      <path fill="none" d="M740.2034 357.388 L956.9765 357.2154" clip-path="url(#clipPath2)"/>
      <path d="M964.9765 357.209 L952.9725 352.2186 L955.9765 357.2162 L952.9805 362.2186 Z" clip-path="url(#clipPath2)" stroke="none"/>
      <text x="757.123" xml:space="preserve" y="350.882" clip-path="url(#clipPath2)" font-family="sans-serif" stroke="none">envoyé aux kernels</text>
      <path fill="none" d="M1074.9916 357.1652 L1169.8203 357.1652" clip-path="url(#clipPath2)"/>
      <path d="M1177.8203 357.1652 L1165.8203 352.1652 L1168.8203 357.1652 L1165.8203 362.1652 Z" clip-path="url(#clipPath2)" stroke="none"/>
      <text x="1111.2673" xml:space="preserve" y="346.5629" clip-path="url(#clipPath2)" font-family="sans-serif" stroke="none">traité par</text>
      <path fill="none" d="M1177.8188 526.4153 L917.0319 526.9673" clip-path="url(#clipPath2)"/>
      <path d="M909.0319 526.9842 L921.0424 531.9588 L918.0319 526.9651 L921.0212 521.9589 Z" clip-path="url(#clipPath2)" stroke="none"/>
      <text x="1011.3008" xml:space="preserve" y="520.2057" clip-path="url(#clipPath2)" font-family="sans-serif" stroke="none">les résultats sont écrits dans</text>
      <path fill="none" d="M749.0068 526.826 L390 526.3588 L390.7231 457.9909" clip-path="url(#clipPath2)"/>
      <path d="M390.8078 449.9913 L385.6811 461.9378 L390.7126 458.9908 L395.6805 462.0435 Z" clip-path="url(#clipPath2)" stroke="none"/>
      <text x="402.1614" xml:space="preserve" y="517.4099" clip-path="url(#clipPath2)" font-family="sans-serif" stroke="none">perçoivent</text>
    </g>
  </g>
</svg>
