<?xml version="1.0" encoding="UTF-8"?><svg xmlns="http://www.w3.org/2000/svg" xmlns:xlink="http://www.w3.org/1999/xlink" fill-opacity="1" color-rendering="auto" color-interpolation="auto" text-rendering="auto" stroke="black" stroke-linecap="square" width="851" stroke-miterlimit="10" shape-rendering="auto" stroke-opacity="1" fill="black" stroke-dasharray="none" font-weight="normal" stroke-width="1" height="183" font-family="'Dialog'" font-style="normal" stroke-linejoin="miter" font-size="12px" stroke-dashoffset="0" image-rendering="auto">
  <!--Generated by ySVG 2.5-->
  <defs id="genericDefs"/>
  <g>
    <defs id="defs1">
      <linearGradient x1="273.7086" gradientUnits="userSpaceOnUse" x2="373.7086" y1="245" y2="295" id="linearGradient1" spreadMethod="reflect">
        <stop stop-opacity="1" stop-color="rgb(234,234,234)" offset="0%"/>
        <stop stop-opacity="1" stop-color="rgb(204,204,204)" offset="100%"/>
      </linearGradient>
      <linearGradient x1="410" gradientUnits="userSpaceOnUse" x2="490" y1="250" y2="290" id="linearGradient2" spreadMethod="reflect">
        <stop stop-opacity="1" stop-color="rgb(234,234,234)" offset="0%"/>
        <stop stop-opacity="1" stop-color="rgb(204,204,204)" offset="100%"/>
      </linearGradient>
      <linearGradient x1="545" gradientUnits="userSpaceOnUse" x2="625" y1="250" y2="290" id="linearGradient3" spreadMethod="reflect">
        <stop stop-opacity="1" stop-color="rgb(234,234,234)" offset="0%"/>
        <stop stop-opacity="1" stop-color="rgb(204,204,204)" offset="100%"/>
      </linearGradient>
      <linearGradient x1="670" gradientUnits="userSpaceOnUse" x2="770" y1="250" y2="290" id="linearGradient4" spreadMethod="reflect">
        <stop stop-opacity="1" stop-color="rgb(234,234,234)" offset="0%"/>
        <stop stop-opacity="1" stop-color="rgb(204,204,204)" offset="100%"/>
      </linearGradient>
      <linearGradient x1="815" gradientUnits="userSpaceOnUse" x2="915" y1="215" y2="265" id="linearGradient5" spreadMethod="reflect">
        <stop stop-opacity="1" stop-color="rgb(234,234,234)" offset="0%"/>
        <stop stop-opacity="1" stop-color="rgb(204,204,204)" offset="100%"/>
      </linearGradient>
      <linearGradient x1="670" gradientUnits="userSpaceOnUse" x2="770" y1="190" y2="230" id="linearGradient6" spreadMethod="reflect">
        <stop stop-opacity="1" stop-color="rgb(234,234,234)" offset="0%"/>
        <stop stop-opacity="1" stop-color="rgb(204,204,204)" offset="100%"/>
      </linearGradient>
      <linearGradient x1="137.4171" gradientUnits="userSpaceOnUse" x2="237.4171" y1="245" y2="295" id="linearGradient7" spreadMethod="reflect">
        <stop stop-opacity="1" stop-color="rgb(234,234,234)" offset="0%"/>
        <stop stop-opacity="1" stop-color="rgb(204,204,204)" offset="100%"/>
      </linearGradient>
      <clipPath clipPathUnits="userSpaceOnUse" id="clipPath1">
        <path d="M0 0 L851 0 L851 183 L0 183 L0 0 Z"/>
      </clipPath>
      <clipPath clipPathUnits="userSpaceOnUse" id="clipPath2">
        <path d="M100 154 L951 154 L951 337 L100 337 L100 154 Z"/>
      </clipPath>
    </defs>
    <g fill="url(#linearGradient1)" text-rendering="geometricPrecision" shape-rendering="geometricPrecision" transform="matrix(1,0,0,1,-100,-154)" stroke="url(#linearGradient1)">
      <path d="M273.7086 245 L373.7086 245 L373.7086 295 L273.7086 295 Z" stroke="none" clip-path="url(#clipPath2)"/>
    </g>
    <g text-rendering="geometricPrecision" stroke-miterlimit="1.45" shape-rendering="geometricPrecision" transform="matrix(1,0,0,1,-100,-154)" stroke-linecap="butt">
      <path fill="none" d="M273.7086 245 L373.7086 245 L373.7086 295 L273.7086 295 Z" clip-path="url(#clipPath2)"/>
      <text x="298.6949" xml:space="preserve" y="260.0127" clip-path="url(#clipPath2)" font-family="sans-serif" stroke="none">Calcul du</text>
      <text x="301.689" xml:space="preserve" y="274.7139" clip-path="url(#clipPath2)" font-family="sans-serif" stroke="none">bonheur</text>
      <text x="312.0425" xml:space="preserve" y="289.415" clip-path="url(#clipPath2)" font-family="sans-serif" stroke="none">(C5)</text>
    </g>
    <g fill="url(#linearGradient2)" text-rendering="geometricPrecision" shape-rendering="geometricPrecision" transform="matrix(1,0,0,1,-100,-154)" stroke="url(#linearGradient2)">
      <path d="M450 250 L490 270 L450 290 L410 270 Z" stroke="none" clip-path="url(#clipPath2)"/>
    </g>
    <g text-rendering="geometricPrecision" stroke-miterlimit="1.45" shape-rendering="geometricPrecision" transform="matrix(1,0,0,1,-100,-154)" stroke-linecap="butt">
      <path fill="none" d="M450 250 L490 270 L450 290 L410 270 Z" clip-path="url(#clipPath2)"/>
      <text x="401.9795" xml:space="preserve" y="308.0645" clip-path="url(#clipPath2)" font-family="sans-serif" stroke="none">Ma cellule est-elle</text>
      <text x="417.9814" xml:space="preserve" y="322.7656" clip-path="url(#clipPath2)" font-family="sans-serif" stroke="none">trop froide ?</text>
    </g>
    <g fill="url(#linearGradient3)" text-rendering="geometricPrecision" shape-rendering="geometricPrecision" transform="matrix(1,0,0,1,-100,-154)" stroke="url(#linearGradient3)">
      <path d="M585 250 L625 270 L585 290 L545 270 Z" stroke="none" clip-path="url(#clipPath2)"/>
    </g>
    <g text-rendering="geometricPrecision" stroke-miterlimit="1.45" shape-rendering="geometricPrecision" transform="matrix(1,0,0,1,-100,-154)" stroke-linecap="butt">
      <path fill="none" d="M585 250 L625 270 L585 290 L545 270 Z" clip-path="url(#clipPath2)"/>
      <text x="536.9795" xml:space="preserve" y="308.0645" clip-path="url(#clipPath2)" font-family="sans-serif" stroke="none">Ma cellule est-elle</text>
      <text x="548.3057" xml:space="preserve" y="322.7656" clip-path="url(#clipPath2)" font-family="sans-serif" stroke="none">trop chaude ?</text>
    </g>
    <g fill="url(#linearGradient4)" text-rendering="geometricPrecision" shape-rendering="geometricPrecision" transform="matrix(1,0,0,1,-100,-154)" stroke="url(#linearGradient4)">
      <path d="M670 250 L770 250 L770 290 L670 290 Z" stroke="none" clip-path="url(#clipPath2)"/>
    </g>
    <g text-rendering="geometricPrecision" stroke-miterlimit="1.45" shape-rendering="geometricPrecision" transform="matrix(1,0,0,1,-100,-154)" stroke-linecap="butt">
      <path fill="none" d="M670 250 L770 250 L770 290 L670 290 Z" clip-path="url(#clipPath2)"/>
      <text x="680.6396" xml:space="preserve" y="274.7139" clip-path="url(#clipPath2)" font-family="sans-serif" stroke="none">Ne pas bouger</text>
    </g>
    <g fill="url(#linearGradient5)" text-rendering="geometricPrecision" shape-rendering="geometricPrecision" transform="matrix(1,0,0,1,-100,-154)" stroke="url(#linearGradient5)">
      <path d="M815 215 L915 215 L915 265 L815 265 Z" stroke="none" clip-path="url(#clipPath2)"/>
    </g>
    <g text-rendering="geometricPrecision" stroke-miterlimit="1.45" shape-rendering="geometricPrecision" transform="matrix(1,0,0,1,-100,-154)" stroke-linecap="butt">
      <path fill="none" d="M815 215 L915 215 L915 265 L815 265 Z" clip-path="url(#clipPath2)"/>
      <text x="833.9863" xml:space="preserve" y="230.0127" clip-path="url(#clipPath2)" font-family="sans-serif" stroke="none">Emettre de </text>
      <text x="838.9844" xml:space="preserve" y="244.7139" clip-path="url(#clipPath2)" font-family="sans-serif" stroke="none">la chaleur</text>
      <text x="853.334" xml:space="preserve" y="259.415" clip-path="url(#clipPath2)" font-family="sans-serif" stroke="none">(C3)</text>
    </g>
    <g fill="url(#linearGradient6)" text-rendering="geometricPrecision" shape-rendering="geometricPrecision" transform="matrix(1,0,0,1,-100,-154)" stroke="url(#linearGradient6)">
      <path d="M670 190 L770 190 L770 230 L670 230 Z" stroke="none" clip-path="url(#clipPath2)"/>
    </g>
    <g text-rendering="geometricPrecision" stroke-miterlimit="1.45" shape-rendering="geometricPrecision" transform="matrix(1,0,0,1,-100,-154)" stroke-linecap="butt">
      <path fill="none" d="M670 190 L770 190 L770 230 L670 230 Z" clip-path="url(#clipPath2)"/>
      <text x="682.9805" xml:space="preserve" y="207.3633" clip-path="url(#clipPath2)" font-family="sans-serif" stroke="none">Déplacement </text>
      <text x="708.334" xml:space="preserve" y="222.0645" clip-path="url(#clipPath2)" font-family="sans-serif" stroke="none">(C2)</text>
    </g>
    <g fill="url(#linearGradient7)" text-rendering="geometricPrecision" shape-rendering="geometricPrecision" transform="matrix(1,0,0,1,-100,-154)" stroke="url(#linearGradient7)">
      <path d="M137.4171 245 L237.4171 245 L237.4171 295 L137.4171 295 Z" stroke="none" clip-path="url(#clipPath2)"/>
    </g>
    <g text-rendering="geometricPrecision" stroke-miterlimit="1.45" shape-rendering="geometricPrecision" transform="matrix(1,0,0,1,-100,-154)" stroke-linecap="butt">
      <path fill="none" d="M137.4171 245 L237.4171 245 L237.4171 295 L137.4171 295 Z" clip-path="url(#clipPath2)"/>
      <text x="151.7306" xml:space="preserve" y="260.0127" clip-path="url(#clipPath2)" font-family="sans-serif" stroke="none">Différence de</text>
      <text x="155.0675" xml:space="preserve" y="274.7139" clip-path="url(#clipPath2)" font-family="sans-serif" stroke="none">température</text>
      <text x="175.7511" xml:space="preserve" y="289.415" clip-path="url(#clipPath2)" font-family="sans-serif" stroke="none">(C4)</text>
    </g>
    <g stroke-linecap="round" transform="matrix(1,0,0,1,-100,-154)" stroke-dashoffset="2" fill="silver" text-rendering="geometricPrecision" shape-rendering="geometricPrecision" stroke-dasharray="0,4" stroke="silver" stroke-miterlimit="1.45">
      <path fill="none" d="M105.5 159.4 L945.5 159.4 L945.5 331.4 L105.5 331.4 Z" clip-path="url(#clipPath2)"/>
    </g>
    <g text-rendering="geometricPrecision" stroke-miterlimit="1.45" shape-rendering="geometricPrecision" transform="matrix(1,0,0,1,-100,-154)" stroke-linecap="butt">
      <path fill="none" d="M373.6886 270 L402.0185 270" clip-path="url(#clipPath2)"/>
    </g>
    <g text-rendering="geometricPrecision" stroke-miterlimit="1.45" shape-rendering="geometricPrecision" transform="matrix(1,0,0,1,-100,-154)" stroke-linecap="butt">
      <path d="M410.0185 270 L398.0185 265 L401.0185 270 L398.0185 275 Z" stroke="none" clip-path="url(#clipPath2)"/>
      <path fill="none" d="M489.9792 270 L536.9595 270" clip-path="url(#clipPath2)"/>
      <path d="M544.9595 270 L532.9595 265 L535.9595 270 L532.9595 275 Z" clip-path="url(#clipPath2)" stroke="none"/>
      <text x="491.9813" xml:space="preserve" y="262.851" clip-path="url(#clipPath2)" font-family="sans-serif" stroke="none">non</text>
      <path fill="none" d="M624.9792 270 L662.0306 270" clip-path="url(#clipPath2)"/>
      <path d="M670.0306 270 L658.0306 265 L661.0306 270 L658.0306 275 Z" clip-path="url(#clipPath2)" stroke="none"/>
      <text x="628.1733" xml:space="preserve" y="262.851" clip-path="url(#clipPath2)" font-family="sans-serif" stroke="none">non</text>
      <path fill="none" d="M770.0156 270 L783.504 270 L783.504 240 L806.9802 240" clip-path="url(#clipPath2)"/>
      <path d="M814.9802 240 L802.9802 235 L805.9802 240 L802.9802 245 Z" clip-path="url(#clipPath2)" stroke="none"/>
      <path fill="none" d="M450 249.9902 L450 210 L662.0012 210" clip-path="url(#clipPath2)"/>
      <path d="M670.0012 210 L658.0012 205 L661.0012 210 L658.0012 215 Z" clip-path="url(#clipPath2)" stroke="none"/>
      <text x="471.9932" xml:space="preserve" y="227.5386" clip-path="url(#clipPath2)" font-family="sans-serif" stroke="none">oui</text>
      <path fill="none" d="M585 249.9902 L585 210 L662.0012 210" clip-path="url(#clipPath2)"/>
      <path d="M670.0012 210 L658.0012 205 L661.0012 210 L658.0012 215 Z" clip-path="url(#clipPath2)" stroke="none"/>
      <text x="606.9932" xml:space="preserve" y="227.5386" clip-path="url(#clipPath2)" font-family="sans-serif" stroke="none">oui</text>
      <path fill="none" d="M770.0203 210 L783.5099 210 L783.5099 240 L806.9839 240" clip-path="url(#clipPath2)"/>
      <path d="M814.9839 240 L802.9839 235 L805.9839 240 L802.9839 245 Z" clip-path="url(#clipPath2)" stroke="none"/>
      <path fill="none" d="M865 215.0098 L865 180 L187.4171 180 L187.4171 236.9951" clip-path="url(#clipPath2)"/>
      <path d="M187.4171 244.9951 L192.4171 232.9951 L187.4171 235.9951 L182.4171 232.9951 Z" clip-path="url(#clipPath2)" stroke="none"/>
      <path fill="none" d="M237.4283 270 L265.7014 270" clip-path="url(#clipPath2)"/>
      <path d="M273.7014 270 L261.7014 265 L264.7014 270 L261.7014 275 Z" clip-path="url(#clipPath2)" stroke="none"/>
    </g>
  </g>
</svg>
