<?xml version="1.0" encoding="UTF-8"?><svg xmlns="http://www.w3.org/2000/svg" xmlns:xlink="http://www.w3.org/1999/xlink" fill-opacity="1" color-rendering="auto" color-interpolation="auto" text-rendering="auto" stroke="black" stroke-linecap="square" width="436" stroke-miterlimit="10" shape-rendering="auto" stroke-opacity="1" fill="black" stroke-dasharray="none" font-weight="normal" stroke-width="1" height="130" font-family="'Dialog'" font-style="normal" stroke-linejoin="miter" font-size="12px" stroke-dashoffset="0" image-rendering="auto">
  <!--Generated by ySVG 2.5-->
  <defs id="genericDefs"/>
  <g>
    <defs id="defs1">
      <linearGradient x1="20" gradientUnits="userSpaceOnUse" x2="60" y1="10" y2="50" id="linearGradient1" spreadMethod="reflect">
        <stop stop-opacity="1" stop-color="rgb(124,191,51)" offset="0%"/>
        <stop stop-opacity="1" stop-color="rgb(51,153,102)" offset="100%"/>
      </linearGradient>
      <linearGradient x1="325.1552" gradientUnits="userSpaceOnUse" x2="365.1552" y1="10" y2="50" id="linearGradient2" spreadMethod="reflect">
        <stop stop-opacity="1" stop-color="rgb(124,191,51)" offset="0%"/>
        <stop stop-opacity="1" stop-color="rgb(51,153,102)" offset="100%"/>
      </linearGradient>
      <clipPath clipPathUnits="userSpaceOnUse" id="clipPath1">
        <path d="M0 0 L436 0 L436 130 L0 130 L0 0 Z"/>
      </clipPath>
      <clipPath clipPathUnits="userSpaceOnUse" id="clipPath2">
        <path d="M-25 -35 L411 -35 L411 95 L-25 95 L-25 -35 Z"/>
      </clipPath>
    </defs>
    <g fill="url(#linearGradient1)" text-rendering="geometricPrecision" shape-rendering="geometricPrecision" transform="matrix(1,0,0,1,25,35)" stroke="url(#linearGradient1)">
      <path d="M20 10 L60 10 L60 50 L20 50 Z" stroke="none" clip-path="url(#clipPath2)"/>
    </g>
    <g text-rendering="geometricPrecision" stroke-miterlimit="1.45" shape-rendering="geometricPrecision" transform="matrix(1,0,0,1,25,35)" stroke-linecap="butt">
      <path fill="none" d="M20 10 L60 10 L60 50 L20 50 Z" clip-path="url(#clipPath2)"/>
    </g>
    <g stroke-linecap="butt" font-size="10px" transform="matrix(1,0,0,1,25,35)" fill="white" text-rendering="geometricPrecision" font-family="sans-serif" shape-rendering="geometricPrecision" stroke="white" stroke-miterlimit="1.45">
      <text x="28.8916" xml:space="preserve" y="33.9282" clip-path="url(#clipPath2)" stroke="none">( i, j )</text>
    </g>
    <g text-rendering="geometricPrecision" stroke-miterlimit="1.45" shape-rendering="geometricPrecision" transform="matrix(1,0,0,1,25,35)" stroke-linecap="butt">
      <path fill="none" d="M20 -30 L60 -30 L60 10 L20 10 Z" clip-path="url(#clipPath2)"/>
      <text x="31.6577" font-size="10px" y="-6.0718" clip-path="url(#clipPath2)" font-family="sans-serif" stroke="none" xml:space="preserve">215</text>
    </g>
    <g text-rendering="geometricPrecision" stroke-miterlimit="1.45" shape-rendering="geometricPrecision" transform="matrix(1,0,0,1,25,35)" stroke-linecap="butt">
      <path fill="none" d="M60 -30 L100 -30 L100 10 L60 10 Z" clip-path="url(#clipPath2)"/>
      <text x="74.4385" font-size="10px" y="-6.0718" clip-path="url(#clipPath2)" font-family="sans-serif" stroke="none" xml:space="preserve">13</text>
    </g>
    <g text-rendering="geometricPrecision" stroke-miterlimit="1.45" shape-rendering="geometricPrecision" transform="matrix(1,0,0,1,25,35)" stroke-linecap="butt">
      <path fill="none" d="M60 10 L100 10 L100 50 L60 50 Z" clip-path="url(#clipPath2)"/>
      <text x="77.2192" font-size="10px" y="33.9282" clip-path="url(#clipPath2)" font-family="sans-serif" stroke="none" xml:space="preserve">0</text>
    </g>
    <g text-rendering="geometricPrecision" stroke-miterlimit="1.45" shape-rendering="geometricPrecision" transform="matrix(1,0,0,1,25,35)" stroke-linecap="butt">
      <path fill="none" d="M-20 -30 L20 -30 L20 10 L-20 10 Z" clip-path="url(#clipPath2)"/>
      <text x="-5.5615" font-size="10px" y="-6.0718" clip-path="url(#clipPath2)" font-family="sans-serif" stroke="none" xml:space="preserve">42</text>
    </g>
    <g text-rendering="geometricPrecision" stroke-miterlimit="1.45" shape-rendering="geometricPrecision" transform="matrix(1,0,0,1,25,35)" stroke-linecap="butt">
      <path fill="none" d="M-20 10 L20 10 L20 50 L-20 50 Z" clip-path="url(#clipPath2)"/>
      <text x="-2.7808" font-size="10px" y="33.9282" clip-path="url(#clipPath2)" font-family="sans-serif" stroke="none" xml:space="preserve">0</text>
    </g>
    <g text-rendering="geometricPrecision" stroke-miterlimit="1.45" shape-rendering="geometricPrecision" transform="matrix(1,0,0,1,25,35)" stroke-linecap="butt">
      <path fill="none" d="M-20 50 L20 50 L20 90 L-20 90 Z" clip-path="url(#clipPath2)"/>
      <text x="-8.3423" font-size="10px" y="73.9282" clip-path="url(#clipPath2)" font-family="sans-serif" stroke="none" xml:space="preserve">124</text>
    </g>
    <g text-rendering="geometricPrecision" stroke-miterlimit="1.45" shape-rendering="geometricPrecision" transform="matrix(1,0,0,1,25,35)" stroke-linecap="butt">
      <path fill="none" d="M60 50 L100 50 L100 90 L60 90 Z" clip-path="url(#clipPath2)"/>
      <text x="77.2192" font-size="10px" y="73.9282" clip-path="url(#clipPath2)" font-family="sans-serif" stroke="none" xml:space="preserve">0</text>
    </g>
    <g font-size="8px" stroke-linecap="butt" transform="matrix(1,0,0,1,25,35)" text-rendering="geometricPrecision" font-family="sans-serif" shape-rendering="geometricPrecision" font-weight="bold" stroke-miterlimit="1.45">
      <text x="155.0742" xml:space="preserve" y="50.043" clip-path="url(#clipPath2)" stroke="none">écriture des résultats</text>
    </g>
    <g font-size="10px" stroke-linecap="butt" transform="matrix(1,0,0,1,25,35)" text-rendering="geometricPrecision" font-family="sans-serif" shape-rendering="geometricPrecision" font-weight="bold" stroke-miterlimit="1.45">
      <text x="130" xml:space="preserve" y="15.8027" clip-path="url(#clipPath2)" stroke="none">Calcul de la moyenne</text>
    </g>
    <g fill="url(#linearGradient2)" text-rendering="geometricPrecision" shape-rendering="geometricPrecision" transform="matrix(1,0,0,1,25,35)" stroke="url(#linearGradient2)">
      <path d="M325.1552 10 L365.1552 10 L365.1552 50 L325.1552 50 Z" stroke="none" clip-path="url(#clipPath2)"/>
    </g>
    <g text-rendering="geometricPrecision" stroke-miterlimit="1.45" shape-rendering="geometricPrecision" transform="matrix(1,0,0,1,25,35)" stroke-linecap="butt">
      <path fill="none" d="M325.1552 10 L365.1552 10 L365.1552 50 L325.1552 50 Z" clip-path="url(#clipPath2)"/>
    </g>
    <g stroke-linecap="butt" font-size="10px" transform="matrix(1,0,0,1,25,35)" fill="white" text-rendering="geometricPrecision" font-family="sans-serif" shape-rendering="geometricPrecision" stroke="white" font-weight="bold" stroke-miterlimit="1.45">
      <text x="339.5937" xml:space="preserve" y="33.9282" clip-path="url(#clipPath2)" stroke="none">58</text>
    </g>
    <g text-rendering="geometricPrecision" stroke-miterlimit="1.45" shape-rendering="geometricPrecision" transform="matrix(1,0,0,1,25,35)" stroke-linecap="butt">
      <path fill="none" d="M325.1552 -30 L365.1552 -30 L365.1552 10 L325.1552 10 Z" clip-path="url(#clipPath2)"/>
    </g>
    <g text-rendering="geometricPrecision" stroke-miterlimit="1.45" shape-rendering="geometricPrecision" transform="matrix(1,0,0,1,25,35)" stroke-linecap="butt">
      <path fill="none" d="M365.1552 -30 L405.1552 -30 L405.1552 10 L365.1552 10 Z" clip-path="url(#clipPath2)"/>
    </g>
    <g text-rendering="geometricPrecision" stroke-miterlimit="1.45" shape-rendering="geometricPrecision" transform="matrix(1,0,0,1,25,35)" stroke-linecap="butt">
      <path fill="none" d="M285.1552 -30 L325.1552 -30 L325.1552 10 L285.1552 10 Z" clip-path="url(#clipPath2)"/>
    </g>
    <g text-rendering="geometricPrecision" stroke-miterlimit="1.45" shape-rendering="geometricPrecision" transform="matrix(1,0,0,1,25,35)" stroke-linecap="butt">
      <path fill="none" d="M285.1552 10 L325.1552 10 L325.1552 50 L285.1552 50 Z" clip-path="url(#clipPath2)"/>
    </g>
    <g text-rendering="geometricPrecision" stroke-miterlimit="1.45" shape-rendering="geometricPrecision" transform="matrix(1,0,0,1,25,35)" stroke-linecap="butt">
      <path fill="none" d="M285.1552 50 L325.1552 50 L325.1552 90 L285.1552 90 Z" clip-path="url(#clipPath2)"/>
    </g>
    <g text-rendering="geometricPrecision" stroke-miterlimit="1.45" shape-rendering="geometricPrecision" transform="matrix(1,0,0,1,25,35)" stroke-linecap="butt">
      <path fill="none" d="M325.1552 50 L365.1552 50 L365.1552 90 L325.1552 90 Z" clip-path="url(#clipPath2)"/>
    </g>
    <g text-rendering="geometricPrecision" stroke-miterlimit="1.45" shape-rendering="geometricPrecision" transform="matrix(1,0,0,1,25,35)" stroke-linecap="butt">
      <path fill="none" d="M365.1552 50 L405.1552 50 L405.1552 90 L365.1552 90 Z" clip-path="url(#clipPath2)"/>
    </g>
    <g text-rendering="geometricPrecision" stroke-miterlimit="1.45" shape-rendering="geometricPrecision" transform="matrix(1,0,0,1,25,35)" stroke-linecap="butt">
      <path fill="none" d="M20 50 L60 50 L60 90 L20 90 Z" clip-path="url(#clipPath2)"/>
      <text x="34.4385" font-size="10px" y="73.9282" clip-path="url(#clipPath2)" font-family="sans-serif" stroke="none" xml:space="preserve">70</text>
    </g>
    <g text-rendering="geometricPrecision" stroke-miterlimit="1.45" shape-rendering="geometricPrecision" transform="matrix(1,0,0,1,25,35)" stroke-linecap="butt">
      <path fill="none" d="M365.1552 10 L405.1552 10 L405.1552 50 L365.1552 50 Z" clip-path="url(#clipPath2)"/>
    </g>
    <g text-rendering="geometricPrecision" stroke-miterlimit="1.45" stroke-width="2" shape-rendering="geometricPrecision" transform="matrix(1,0,0,1,25,35)" stroke-linecap="butt">
      <path fill="none" d="M149.9756 30 L211.036 30" clip-path="url(#clipPath2)"/>
    </g>
    <g text-rendering="geometricPrecision" stroke-miterlimit="1.45" stroke-width="2" shape-rendering="geometricPrecision" transform="matrix(1,0,0,1,25,35)" stroke-linecap="butt">
      <path d="M220.036 30 L206.536 24.375 L209.911 30 L206.536 35.625 Z" stroke="none" clip-path="url(#clipPath2)"/>
    </g>
  </g>
</svg>
