<?xml version="1.0" encoding="UTF-8"?><svg xmlns="http://www.w3.org/2000/svg" xmlns:xlink="http://www.w3.org/1999/xlink" fill-opacity="1" color-rendering="auto" color-interpolation="auto" text-rendering="auto" stroke="black" stroke-linecap="square" width="850" stroke-miterlimit="10" shape-rendering="auto" stroke-opacity="1" fill="black" stroke-dasharray="none" font-weight="normal" stroke-width="1" height="250" font-family="'Dialog'" font-style="normal" stroke-linejoin="miter" font-size="12px" stroke-dashoffset="0" image-rendering="auto">
  <!--Generated by ySVG 2.5-->
  <defs id="genericDefs"/>
  <g>
    <defs id="defs1">
      <linearGradient x1="440" gradientUnits="userSpaceOnUse" x2="520" y1="345" y2="375" id="linearGradient1" spreadMethod="reflect">
        <stop stop-opacity="1" stop-color="rgb(234,234,234)" offset="0%"/>
        <stop stop-opacity="1" stop-color="rgb(204,204,204)" offset="100%"/>
      </linearGradient>
      <linearGradient x1="440" gradientUnits="userSpaceOnUse" x2="520" y1="285" y2="315" id="linearGradient2" spreadMethod="reflect">
        <stop stop-opacity="1" stop-color="rgb(234,234,234)" offset="0%"/>
        <stop stop-opacity="1" stop-color="rgb(204,204,204)" offset="100%"/>
      </linearGradient>
      <linearGradient x1="440" gradientUnits="userSpaceOnUse" x2="520" y1="405" y2="435" id="linearGradient3" spreadMethod="reflect">
        <stop stop-opacity="1" stop-color="rgb(234,234,234)" offset="0%"/>
        <stop stop-opacity="1" stop-color="rgb(204,204,204)" offset="100%"/>
      </linearGradient>
      <linearGradient x1="414.5653" gradientUnits="userSpaceOnUse" x2="545.4347" y1="465" y2="495" id="linearGradient4" spreadMethod="reflect">
        <stop stop-opacity="1" stop-color="rgb(234,234,234)" offset="0%"/>
        <stop stop-opacity="1" stop-color="rgb(204,204,204)" offset="100%"/>
      </linearGradient>
      <linearGradient x1="67.0653" gradientUnits="userSpaceOnUse" x2="197.9347" y1="465" y2="495" id="linearGradient5" spreadMethod="reflect">
        <stop stop-opacity="1" stop-color="rgb(234,234,234)" offset="0%"/>
        <stop stop-opacity="1" stop-color="rgb(204,204,204)" offset="100%"/>
      </linearGradient>
      <linearGradient x1="-145" gradientUnits="userSpaceOnUse" x2="20" y1="325" y2="395" id="linearGradient6" spreadMethod="reflect">
        <stop stop-opacity="1" stop-color="rgb(234,234,234)" offset="0%"/>
        <stop stop-opacity="1" stop-color="rgb(204,204,204)" offset="100%"/>
      </linearGradient>
      <linearGradient x1="50" gradientUnits="userSpaceOnUse" x2="215" y1="325" y2="395" id="linearGradient7" spreadMethod="reflect">
        <stop stop-opacity="1" stop-color="rgb(234,234,234)" offset="0%"/>
        <stop stop-opacity="1" stop-color="rgb(204,204,204)" offset="100%"/>
      </linearGradient>
      <linearGradient x1="245" gradientUnits="userSpaceOnUse" x2="410" y1="325" y2="395" id="linearGradient8" spreadMethod="reflect">
        <stop stop-opacity="1" stop-color="rgb(234,234,234)" offset="0%"/>
        <stop stop-opacity="1" stop-color="rgb(204,204,204)" offset="100%"/>
      </linearGradient>
      <clipPath clipPathUnits="userSpaceOnUse" id="clipPath1">
        <path d="M0 0 L850 0 L850 250 L0 250 L0 0 Z"/>
      </clipPath>
      <clipPath clipPathUnits="userSpaceOnUse" id="clipPath2">
        <path d="M-245 265 L605 265 L605 515 L-245 515 L-245 265 Z"/>
      </clipPath>
    </defs>
    <g stroke-linecap="round" transform="matrix(1,0,0,1,245,-265)" stroke-dashoffset="2" fill="silver" text-rendering="geometricPrecision" shape-rendering="geometricPrecision" stroke-dasharray="0,4" stroke="silver" stroke-miterlimit="1.45">
      <path fill="none" d="M-240 270 L600 270 L600 509.92 L-240 509.92 Z" clip-path="url(#clipPath2)"/>
    </g>
    <g fill="url(#linearGradient1)" text-rendering="geometricPrecision" shape-rendering="geometricPrecision" transform="matrix(1,0,0,1,245,-265)" stroke="url(#linearGradient1)">
      <path d="M440 345 L520 345 L520 375 L440 375 Z" stroke="none" clip-path="url(#clipPath2)"/>
    </g>
    <g text-rendering="geometricPrecision" stroke-miterlimit="1.45" shape-rendering="geometricPrecision" transform="matrix(1,0,0,1,245,-265)" stroke-linecap="butt">
      <path fill="none" d="M440 345 L520 345 L520 375 L440 375 Z" clip-path="url(#clipPath2)"/>
      <text x="449.9824" xml:space="preserve" y="364.7139" clip-path="url(#clipPath2)" font-family="sans-serif" stroke="none">Alignement</text>
    </g>
    <g fill="url(#linearGradient2)" text-rendering="geometricPrecision" shape-rendering="geometricPrecision" transform="matrix(1,0,0,1,245,-265)" stroke="url(#linearGradient2)">
      <path d="M440 285 L520 285 L520 315 L440 315 Z" stroke="none" clip-path="url(#clipPath2)"/>
    </g>
    <g text-rendering="geometricPrecision" stroke-miterlimit="1.45" shape-rendering="geometricPrecision" transform="matrix(1,0,0,1,245,-265)" stroke-linecap="butt">
      <path fill="none" d="M440 285 L520 285 L520 315 L440 315 Z" clip-path="url(#clipPath2)"/>
      <text x="450.9785" xml:space="preserve" y="304.7139" clip-path="url(#clipPath2)" font-family="sans-serif" stroke="none">Séparation</text>
    </g>
    <g fill="url(#linearGradient3)" text-rendering="geometricPrecision" shape-rendering="geometricPrecision" transform="matrix(1,0,0,1,245,-265)" stroke="url(#linearGradient3)">
      <path d="M440 405 L520 405 L520 435 L440 435 Z" stroke="none" clip-path="url(#clipPath2)"/>
    </g>
    <g text-rendering="geometricPrecision" stroke-miterlimit="1.45" shape-rendering="geometricPrecision" transform="matrix(1,0,0,1,245,-265)" stroke-linecap="butt">
      <path fill="none" d="M440 405 L520 405 L520 435 L440 435 Z" clip-path="url(#clipPath2)"/>
      <text x="454.6494" xml:space="preserve" y="424.7139" clip-path="url(#clipPath2)" font-family="sans-serif" stroke="none">Cohésion</text>
    </g>
    <g fill="url(#linearGradient4)" text-rendering="geometricPrecision" shape-rendering="geometricPrecision" transform="matrix(1,0,0,1,245,-265)" stroke="url(#linearGradient4)">
      <path d="M414.5653 465 L545.4347 465 L545.4347 495 L414.5653 495 Z" stroke="none" clip-path="url(#clipPath2)"/>
    </g>
    <g text-rendering="geometricPrecision" stroke-miterlimit="1.45" shape-rendering="geometricPrecision" transform="matrix(1,0,0,1,245,-265)" stroke-linecap="butt">
      <path fill="none" d="M414.5653 465 L545.4347 465 L545.4347 495 L414.5653 495 Z" clip-path="url(#clipPath2)"/>
      <text x="430.9688" xml:space="preserve" y="484.7139" clip-path="url(#clipPath2)" font-family="sans-serif" stroke="none">Adaptation vitesse</text>
    </g>
    <g fill="url(#linearGradient5)" text-rendering="geometricPrecision" shape-rendering="geometricPrecision" transform="matrix(1,0,0,1,245,-265)" stroke="url(#linearGradient5)">
      <path d="M67.0653 465 L197.9347 465 L197.9347 495 L67.0653 495 Z" stroke="none" clip-path="url(#clipPath2)"/>
    </g>
    <g text-rendering="geometricPrecision" stroke-miterlimit="1.45" shape-rendering="geometricPrecision" transform="matrix(1,0,0,1,245,-265)" stroke-linecap="butt">
      <path fill="none" d="M67.0653 465 L197.9347 465 L197.9347 495 L67.0653 495 Z" clip-path="url(#clipPath2)"/>
      <text x="97.1475" xml:space="preserve" y="484.7139" clip-path="url(#clipPath2)" font-family="sans-serif" stroke="none">Déplacement</text>
    </g>
    <g fill="url(#linearGradient6)" text-rendering="geometricPrecision" shape-rendering="geometricPrecision" transform="matrix(1,0,0,1,245,-265)" stroke="url(#linearGradient6)">
      <path d="M-62.5 325 L20 360 L-62.5 395 L-145 360 Z" stroke="none" clip-path="url(#clipPath2)"/>
    </g>
    <g text-rendering="geometricPrecision" stroke-miterlimit="1.45" shape-rendering="geometricPrecision" transform="matrix(1,0,0,1,245,-265)" stroke-linecap="butt">
      <path fill="none" d="M-62.5 325 L20 360 L-62.5 395 L-145 360 Z" clip-path="url(#clipPath2)"/>
      <text x="-110.5264" xml:space="preserve" y="357.3633" clip-path="url(#clipPath2)" font-family="sans-serif" stroke="none">plusProcheVoisin </text>
      <text x="-77.0107" xml:space="preserve" y="372.0645" clip-path="url(#clipPath2)" font-family="sans-serif" stroke="none">= null</text>
    </g>
    <g fill="url(#linearGradient7)" text-rendering="geometricPrecision" shape-rendering="geometricPrecision" transform="matrix(1,0,0,1,245,-265)" stroke="url(#linearGradient7)">
      <path d="M132.5 325 L215 360 L132.5 395 L50 360 Z" stroke="none" clip-path="url(#clipPath2)"/>
    </g>
    <g text-rendering="geometricPrecision" stroke-miterlimit="1.45" shape-rendering="geometricPrecision" transform="matrix(1,0,0,1,245,-265)" stroke-linecap="butt">
      <path fill="none" d="M132.5 325 L215 360 L132.5 395 L50 360 Z" clip-path="url(#clipPath2)"/>
      <text x="87.4736" xml:space="preserve" y="364.7139" clip-path="url(#clipPath2)" font-family="sans-serif" stroke="none">est trop proche ?</text>
    </g>
    <g fill="url(#linearGradient8)" text-rendering="geometricPrecision" shape-rendering="geometricPrecision" transform="matrix(1,0,0,1,245,-265)" stroke="url(#linearGradient8)">
      <path d="M327.5 325 L410 360 L327.5 395 L245 360 Z" stroke="none" clip-path="url(#clipPath2)"/>
    </g>
    <g text-rendering="geometricPrecision" stroke-miterlimit="1.45" shape-rendering="geometricPrecision" transform="matrix(1,0,0,1,245,-265)" stroke-linecap="butt">
      <path fill="none" d="M327.5 325 L410 360 L327.5 395 L245 360 Z" clip-path="url(#clipPath2)"/>
      <text x="280.9766" xml:space="preserve" y="357.3633" clip-path="url(#clipPath2)" font-family="sans-serif" stroke="none">nombreVoisins &gt; </text>
      <text x="289.8096" xml:space="preserve" y="372.0645" clip-path="url(#clipPath2)" font-family="sans-serif" stroke="none">seuilCohésion</text>
    </g>
    <g text-rendering="geometricPrecision" stroke-miterlimit="1.45" shape-rendering="geometricPrecision" transform="matrix(1,0,0,1,245,-265)" stroke-linecap="butt">
      <path fill="none" d="M520.0342 360 L570 360 L570 480 L553.4346 480" clip-path="url(#clipPath2)"/>
    </g>
    <g text-rendering="geometricPrecision" stroke-miterlimit="1.45" shape-rendering="geometricPrecision" transform="matrix(1,0,0,1,245,-265)" stroke-linecap="butt">
      <path d="M545.4346 480 L557.4346 485 L554.4346 480 L557.4346 475 Z" stroke="none" clip-path="url(#clipPath2)"/>
      <path fill="none" d="M520.0342 300 L570 300 L570 480 L553.4346 480" clip-path="url(#clipPath2)"/>
      <path d="M545.4346 480 L557.4346 485 L554.4346 480 L557.4346 475 Z" clip-path="url(#clipPath2)" stroke="none"/>
      <path fill="none" d="M520.0342 420 L570 420 L570 480 L553.4346 480" clip-path="url(#clipPath2)"/>
      <path d="M545.4346 480 L557.4346 485 L554.4346 480 L557.4346 475 Z" clip-path="url(#clipPath2)" stroke="none"/>
      <path fill="none" d="M414.5468 480 L205.9506 480" clip-path="url(#clipPath2)"/>
      <path d="M197.9506 480 L209.9506 485 L206.9506 480 L209.9506 475 Z" clip-path="url(#clipPath2)" stroke="none"/>
      <path fill="none" d="M67.0688 480 L-210 480 L-210 360 L-152.9928 360" clip-path="url(#clipPath2)"/>
      <path d="M-144.9928 360 L-156.9928 355 L-153.9928 360 L-156.9928 365 Z" clip-path="url(#clipPath2)" stroke="none"/>
      <text x="-220.3235" xml:space="preserve" y="352.1019" clip-path="url(#clipPath2)" font-family="sans-serif" stroke="none">perception</text>
      <path fill="none" d="M-62.5 395.0098 L-62.5 420 L132.5 420 L132.5 456.9707" clip-path="url(#clipPath2)"/>
      <path d="M132.5 464.9707 L137.5 452.9707 L132.5 455.9707 L127.5 452.9707 Z" clip-path="url(#clipPath2)" stroke="none"/>
      <text x="-57.4629" xml:space="preserve" y="412.1463" clip-path="url(#clipPath2)" font-family="sans-serif" stroke="none">oui</text>
      <path fill="none" d="M20.0037 360 L42.0228 360" clip-path="url(#clipPath2)"/>
      <path d="M50.0228 360 L38.0228 355 L41.0228 360 L38.0228 365 Z" clip-path="url(#clipPath2)" stroke="none"/>
      <text x="23.2453" xml:space="preserve" y="352.3738" clip-path="url(#clipPath2)" font-family="sans-serif" stroke="none">non</text>
      <path fill="none" d="M132.5 324.9902 L132.5 300 L390 300 L431.9658 300" clip-path="url(#clipPath2)"/>
      <path d="M439.9658 300 L427.9658 295 L430.9658 300 L427.9658 305 Z" clip-path="url(#clipPath2)" stroke="none"/>
      <text x="139.6623" xml:space="preserve" y="317.6384" clip-path="url(#clipPath2)" font-family="sans-serif" stroke="none">oui</text>
      <path fill="none" d="M215.0037 360 L237.0228 360" clip-path="url(#clipPath2)"/>
      <path d="M245.0228 360 L233.0228 355 L236.0228 360 L233.0228 365 Z" clip-path="url(#clipPath2)" stroke="none"/>
      <text x="216.7813" xml:space="preserve" y="352.8858" clip-path="url(#clipPath2)" font-family="sans-serif" stroke="none">non</text>
      <path fill="none" d="M409.9677 360 L432.0255 360" clip-path="url(#clipPath2)"/>
      <path d="M440.0255 360 L428.0255 355 L431.0255 360 L428.0255 365 Z" clip-path="url(#clipPath2)" stroke="none"/>
      <text x="412.3573" xml:space="preserve" y="353.3978" clip-path="url(#clipPath2)" font-family="sans-serif" stroke="none">non</text>
      <path fill="none" d="M327.5 395.0098 L327.5 420 L431.9762 420" clip-path="url(#clipPath2)"/>
      <path d="M439.9762 420 L427.9762 415 L430.9762 420 L427.9762 425 Z" clip-path="url(#clipPath2)" stroke="none"/>
      <text x="334.4892" xml:space="preserve" y="411.7658" clip-path="url(#clipPath2)" font-family="sans-serif" stroke="none">oui</text>
    </g>
  </g>
</svg>
