<?xml version="1.0" encoding="UTF-8"?><svg xmlns="http://www.w3.org/2000/svg" xmlns:xlink="http://www.w3.org/1999/xlink" fill-opacity="1" color-rendering="auto" color-interpolation="auto" text-rendering="auto" stroke="black" stroke-linecap="square" width="875" stroke-miterlimit="10" shape-rendering="auto" stroke-opacity="1" fill="black" stroke-dasharray="none" font-weight="normal" stroke-width="1" height="210" font-family="'Dialog'" font-style="normal" stroke-linejoin="miter" font-size="12px" stroke-dashoffset="0" image-rendering="auto">
  <!--Generated by ySVG 2.5-->
  <defs id="genericDefs"/>
  <g>
    <defs id="defs1">
      <linearGradient x1="355" gradientUnits="userSpaceOnUse" x2="395" y1="40" y2="80" id="linearGradient1" spreadMethod="reflect">
        <stop stop-opacity="1" stop-color="rgb(124,191,51)" offset="0%"/>
        <stop stop-opacity="1" stop-color="rgb(124,191,51)" offset="100%"/>
      </linearGradient>
      <linearGradient x1="737.5" gradientUnits="userSpaceOnUse" x2="947.5" y1="-32.3056" y2="30.9932" id="linearGradient2" spreadMethod="reflect">
        <stop stop-opacity="1" stop-color="white" offset="0%"/>
        <stop stop-opacity="1" stop-color="white" offset="100%"/>
      </linearGradient>
      <linearGradient x1="585" gradientUnits="userSpaceOnUse" x2="815" y1="-20" y2="20" id="linearGradient3" spreadMethod="reflect">
        <stop stop-opacity="1" stop-color="rgb(232,238,247)" offset="0%"/>
        <stop stop-opacity="1" stop-color="rgb(204,204,204)" offset="100%"/>
      </linearGradient>
      <linearGradient x1="870" gradientUnits="userSpaceOnUse" x2="1080" y1="-20" y2="20" id="linearGradient4" spreadMethod="reflect">
        <stop stop-opacity="1" stop-color="rgb(234,234,234)" offset="0%"/>
        <stop stop-opacity="1" stop-color="rgb(204,204,204)" offset="100%"/>
      </linearGradient>
      <clipPath clipPathUnits="userSpaceOnUse" id="clipPath1">
        <path d="M0 0 L875 0 L875 210 L0 210 L0 0 Z"/>
      </clipPath>
      <clipPath clipPathUnits="userSpaceOnUse" id="clipPath2">
        <path d="M210 -65 L1085 -65 L1085 145 L210 145 L210 -65 Z"/>
      </clipPath>
      <clipPath clipPathUnits="userSpaceOnUse" id="clipPath3">
        <path d="M140.002 -155.6494 L140.002 719.3506 L-69.998 719.3506 L-69.998 -155.6494 L140.002 -155.6494 Z"/>
      </clipPath>
      <clipPath clipPathUnits="userSpaceOnUse" id="clipPath4">
        <path d="M210 -32.3056 L210 145 L1085 145 L1085 -32.3056 Z"/>
      </clipPath>
      <clipPath clipPathUnits="userSpaceOnUse" id="clipPath5">
        <path d="M210 -65 L210 -32.3056 L1085 -32.3056 L1085 -65 Z"/>
      </clipPath>
    </defs>
    <g fill="url(#linearGradient1)" text-rendering="geometricPrecision" shape-rendering="geometricPrecision" transform="matrix(1,0,0,1,-210,65)" stroke="url(#linearGradient1)">
      <path d="M355 40 L395 40 L395 80 L355 80 Z" stroke="none" clip-path="url(#clipPath2)"/>
    </g>
    <g stroke-linecap="butt" transform="matrix(-0,-1,1,-0,155.6494,140.002)" fill="white" text-rendering="geometricPrecision" font-family="sans-serif" shape-rendering="geometricPrecision" stroke="white" font-weight="bold" stroke-miterlimit="1.45">
      <text x="2" xml:space="preserve" y="14.0645" clip-path="url(#clipPath3)" stroke="none">GPU</text>
    </g>
    <g text-rendering="geometricPrecision" stroke-miterlimit="1.45" shape-rendering="geometricPrecision" transform="matrix(1,0,0,1,-210,65)" stroke-linecap="butt">
      <path fill="none" d="M355 40 L605 40 L605 80 L355 80 Z" clip-path="url(#clipPath2)"/>
      <text x="431.9434" xml:space="preserve" y="57.3633" clip-path="url(#clipPath2)" font-family="sans-serif" stroke="none">Calcul de l'orientation moyenne</text>
      <text x="473.123" xml:space="preserve" y="72.0645" clip-path="url(#clipPath2)" font-family="sans-serif" stroke="none">(flockCentering)</text>
    </g>
    <g fill="url(#linearGradient2)" text-rendering="geometricPrecision" shape-rendering="geometricPrecision" transform="matrix(1,0,0,1,-210,65)" stroke="url(#linearGradient2)">
      <rect x="737.5" y="-59.0068" clip-path="url(#clipPath4)" width="210" rx="4" ry="4" height="90" stroke="none"/>
      <rect x="737.5" y="-59.0068" clip-path="url(#clipPath5)" fill="rgb(204,204,204)" width="210" rx="4" ry="4" height="90" stroke="none"/>
    </g>
    <g text-rendering="geometricPrecision" stroke-miterlimit="1.45" shape-rendering="geometricPrecision" transform="matrix(1,0,0,1,-210,65)" stroke-linecap="butt">
      <rect x="737.5" y="-59.0068" clip-path="url(#clipPath2)" fill="none" width="210" rx="4" ry="4" height="90"/>
      <line y2="-32.3056" fill="none" x1="737.5" clip-path="url(#clipPath2)" x2="947.5" y1="-32.3056"/>
      <text x="817.1553" xml:space="preserve" y="-40.9423" clip-path="url(#clipPath2)" font-family="sans-serif" stroke="none">Agent (A)</text>
    </g>
    <g stroke-linecap="butt" transform="matrix(1,0,0,1,-210,65)" text-rendering="geometricPrecision" font-family="sans-serif" shape-rendering="geometricPrecision" font-weight="bold" stroke-miterlimit="1.45">
      <text x="248.6641" xml:space="preserve" y="4.7139" clip-path="url(#clipPath2)" stroke="none">Environment (E)</text>
    </g>
    <g text-rendering="geometricPrecision" stroke-miterlimit="1.45" shape-rendering="geometricPrecision" transform="matrix(1,0,0,1,-210,65)" stroke-linecap="butt">
      <rect x="215" y="-20" clip-path="url(#clipPath2)" fill="none" width="160" rx="4" ry="4" height="40"/>
    </g>
    <g fill="url(#linearGradient3)" text-rendering="geometricPrecision" shape-rendering="geometricPrecision" transform="matrix(1,0,0,1,-210,65)" stroke="url(#linearGradient3)">
      <path d="M585 -20 L815 -20 L815 20 L585 20 Z" stroke="none" clip-path="url(#clipPath2)"/>
    </g>
    <g text-rendering="geometricPrecision" stroke-miterlimit="1.45" shape-rendering="geometricPrecision" transform="matrix(1,0,0,1,-210,65)" stroke-linecap="butt">
      <path fill="none" d="M585 -20 L815 -20 L815 20 L585 20 Z" clip-path="url(#clipPath2)"/>
      <text x="604.46" xml:space="preserve" y="-2.6367" clip-path="url(#clipPath2)" font-family="sans-serif" stroke="none">Perception de l'orientation moyenne</text>
      <text x="628.2842" xml:space="preserve" y="12.0645" clip-path="url(#clipPath2)" font-family="sans-serif" stroke="none">en fonction de leur position</text>
    </g>
    <g fill="white" text-rendering="geometricPrecision" shape-rendering="geometricPrecision" transform="matrix(1,0,0,1,-210,65)" stroke="white">
      <path d="M430 -20 L530 -20 L530 20 L430 20 Z" stroke="none" clip-path="url(#clipPath2)"/>
    </g>
    <g text-rendering="geometricPrecision" stroke-miterlimit="1.45" shape-rendering="geometricPrecision" transform="matrix(1,0,0,1,-210,65)" stroke-linecap="butt">
      <path fill="none" d="M430 -20 L530 -20 L530 20 L430 20 Z" clip-path="url(#clipPath2)"/>
      <text x="441.9873" xml:space="preserve" y="-2.6367" clip-path="url(#clipPath2)" font-family="sans-serif" stroke="none">Pré-traitement</text>
      <text x="445.6377" xml:space="preserve" y="12.0645" clip-path="url(#clipPath2)" font-family="sans-serif" stroke="none">des données</text>
    </g>
    <g fill="url(#linearGradient4)" text-rendering="geometricPrecision" shape-rendering="geometricPrecision" transform="matrix(1,0,0,1,-210,65)" stroke="url(#linearGradient4)">
      <path d="M870 -20 L1080 -20 L1080 20 L870 20 Z" stroke="none" clip-path="url(#clipPath2)"/>
    </g>
    <g text-rendering="geometricPrecision" stroke-miterlimit="1.45" shape-rendering="geometricPrecision" transform="matrix(1,0,0,1,-210,65)" stroke-linecap="butt">
      <path fill="none" d="M870 -20 L1080 -20 L1080 20 L870 20 Z" clip-path="url(#clipPath2)"/>
      <text x="892.4707" xml:space="preserve" y="-2.6367" clip-path="url(#clipPath2)" font-family="sans-serif" stroke="none">Modification de l'orientation en </text>
      <text x="901.2861" xml:space="preserve" y="12.0645" clip-path="url(#clipPath2)" font-family="sans-serif" stroke="none">fonction de la valeur perçue</text>
    </g>
    <g text-rendering="geometricPrecision" stroke-miterlimit="1.45" shape-rendering="geometricPrecision" transform="matrix(1,0,0,1,-210,65)" stroke-linecap="butt">
      <path fill="none" d="M215 100 L375 100 L375 140 L215 140 Z" clip-path="url(#clipPath2)"/>
      <text x="229.29" xml:space="preserve" y="117.3633" clip-path="url(#clipPath2)" font-family="sans-serif" stroke="none">Tableau des orientations</text>
      <text x="255.3145" xml:space="preserve" y="132.0645" clip-path="url(#clipPath2)" font-family="sans-serif" stroke="none">(headingArray)</text>
    </g>
    <g text-rendering="geometricPrecision" stroke-miterlimit="1.45" shape-rendering="geometricPrecision" transform="matrix(1,0,0,1,-210,65)" stroke-linecap="butt">
      <path fill="none" d="M375.0139 0 L421.9916 0" clip-path="url(#clipPath2)"/>
      <path d="M429.9916 0 L417.9916 -5 L420.9916 0 L417.9916 5 Z" clip-path="url(#clipPath2)" stroke="none"/>
      <path fill="none" d="M480 20.0098 L480 39.9658" clip-path="url(#clipPath2)"/>
      <path fill="none" d="M529.978 0 L576.9778 0" clip-path="url(#clipPath2)"/>
      <path d="M584.9778 0 L572.9778 -5 L575.9778 0 L572.9778 5 Z" clip-path="url(#clipPath2)" stroke="none"/>
      <path fill="none" d="M814.975 0 L862.0226 0" clip-path="url(#clipPath2)"/>
      <path d="M870.0226 0 L858.0226 -5 L861.0226 0 L858.0226 5 Z" clip-path="url(#clipPath2)" stroke="none"/>
      <path fill="none" d="M1050 20.0098 L1050 120 L383.0436 120" clip-path="url(#clipPath2)"/>
      <path d="M375.0436 120 L387.0436 125 L384.0436 120 L387.0436 115 Z" clip-path="url(#clipPath2)" stroke="none"/>
      <text x="900.9031" xml:space="preserve" y="62.5633" clip-path="url(#clipPath2)" font-family="sans-serif" stroke="none">déposent leur orientation</text>
      <text x="908.2449" xml:space="preserve" y="77.2645" clip-path="url(#clipPath2)" font-family="sans-serif" stroke="none">à chaque pas de temps</text>
      <path fill="none" d="M295 99.9902 L295 27.9688" clip-path="url(#clipPath2)"/>
      <path d="M295 19.9688 L290 31.9688 L295 28.9688 L300 31.9688 Z" clip-path="url(#clipPath2)" stroke="none"/>
    </g>
  </g>
</svg>
