<?xml version="1.0" encoding="UTF-8"?><svg xmlns="http://www.w3.org/2000/svg" xmlns:xlink="http://www.w3.org/1999/xlink" fill-opacity="1" color-rendering="auto" color-interpolation="auto" text-rendering="auto" stroke="black" stroke-linecap="square" width="430" stroke-miterlimit="10" shape-rendering="auto" stroke-opacity="1" fill="black" stroke-dasharray="none" font-weight="normal" stroke-width="1" height="130" font-family="'Dialog'" font-style="normal" stroke-linejoin="miter" font-size="12px" stroke-dashoffset="0" image-rendering="auto">
  <!--Generated by ySVG 2.5-->
  <defs id="genericDefs"/>
  <g>
    <defs id="defs1">
      <linearGradient x1="90" gradientUnits="userSpaceOnUse" x2="130" y1="10" y2="50" id="linearGradient1" spreadMethod="reflect">
        <stop stop-opacity="1" stop-color="rgb(124,191,51)" offset="0%"/>
        <stop stop-opacity="1" stop-color="rgb(51,153,102)" offset="100%"/>
      </linearGradient>
      <linearGradient x1="380" gradientUnits="userSpaceOnUse" x2="440" y1="0" y2="60" id="linearGradient2" spreadMethod="reflect">
        <stop stop-opacity="1" stop-color="rgb(124,191,51)" offset="0%"/>
        <stop stop-opacity="1" stop-color="rgb(51,153,102)" offset="100%"/>
      </linearGradient>
      <clipPath clipPathUnits="userSpaceOnUse" id="clipPath1">
        <path d="M0 0 L430 0 L430 130 L0 130 L0 0 Z"/>
      </clipPath>
      <clipPath clipPathUnits="userSpaceOnUse" id="clipPath2">
        <path d="M45 -35 L475 -35 L475 95 L45 95 L45 -35 Z"/>
      </clipPath>
    </defs>
    <g fill="url(#linearGradient1)" text-rendering="geometricPrecision" shape-rendering="geometricPrecision" transform="matrix(1,0,0,1,-45,35)" stroke="url(#linearGradient1)">
      <path d="M90 10 L130 10 L130 50 L90 50 Z" stroke="none" clip-path="url(#clipPath2)"/>
    </g>
    <g text-rendering="geometricPrecision" stroke-miterlimit="1.45" shape-rendering="geometricPrecision" transform="matrix(1,0,0,1,-45,35)" stroke-linecap="butt">
      <path fill="none" d="M90 10 L130 10 L130 50 L90 50 Z" clip-path="url(#clipPath2)"/>
    </g>
    <g text-rendering="geometricPrecision" stroke-miterlimit="1.45" shape-rendering="geometricPrecision" transform="matrix(1,0,0,1,-45,35)" stroke-linecap="butt">
      <path fill="none" d="M90 -30 L130 -30 L130 10 L90 10 Z" clip-path="url(#clipPath2)"/>
      <text x="104.4385" font-size="10px" y="-6.0718" clip-path="url(#clipPath2)" font-family="sans-serif" stroke="none" xml:space="preserve">84</text>
    </g>
    <g text-rendering="geometricPrecision" stroke-miterlimit="1.45" shape-rendering="geometricPrecision" transform="matrix(1,0,0,1,-45,35)" stroke-linecap="butt">
      <path fill="none" d="M130 -30 L170 -30 L170 10 L130 10 Z" clip-path="url(#clipPath2)"/>
      <text x="147.2192" font-size="10px" y="-6.0718" clip-path="url(#clipPath2)" font-family="sans-serif" stroke="none" xml:space="preserve">3</text>
    </g>
    <g text-rendering="geometricPrecision" stroke-miterlimit="1.45" shape-rendering="geometricPrecision" transform="matrix(1,0,0,1,-45,35)" stroke-linecap="butt">
      <path fill="none" d="M130 10 L170 10 L170 50 L130 50 Z" clip-path="url(#clipPath2)"/>
      <text x="147.2192" font-size="10px" y="33.9282" clip-path="url(#clipPath2)" font-family="sans-serif" stroke="none" xml:space="preserve">4</text>
    </g>
    <g text-rendering="geometricPrecision" stroke-miterlimit="1.45" shape-rendering="geometricPrecision" transform="matrix(1,0,0,1,-45,35)" stroke-linecap="butt">
      <path fill="none" d="M50 -30 L90 -30 L90 10 L50 10 Z" clip-path="url(#clipPath2)"/>
      <text x="67.2192" font-size="10px" y="-6.0718" clip-path="url(#clipPath2)" font-family="sans-serif" stroke="none" xml:space="preserve">5</text>
    </g>
    <g text-rendering="geometricPrecision" stroke-miterlimit="1.45" shape-rendering="geometricPrecision" transform="matrix(1,0,0,1,-45,35)" stroke-linecap="butt">
      <path fill="none" d="M50 10 L90 10 L90 50 L50 50 Z" clip-path="url(#clipPath2)"/>
      <text x="67.2192" font-size="10px" y="33.9282" clip-path="url(#clipPath2)" font-family="sans-serif" stroke="none" xml:space="preserve">2</text>
    </g>
    <g text-rendering="geometricPrecision" stroke-miterlimit="1.45" shape-rendering="geometricPrecision" transform="matrix(1,0,0,1,-45,35)" stroke-linecap="butt">
      <path fill="none" d="M50 50 L90 50 L90 90 L50 90 Z" clip-path="url(#clipPath2)"/>
      <text x="67.2192" font-size="10px" y="73.9282" clip-path="url(#clipPath2)" font-family="sans-serif" stroke="none" xml:space="preserve">1</text>
    </g>
    <g text-rendering="geometricPrecision" stroke-miterlimit="1.45" shape-rendering="geometricPrecision" transform="matrix(1,0,0,1,-45,35)" stroke-linecap="butt">
      <path fill="none" d="M90 50 L130 50 L130 90 L90 90 Z" clip-path="url(#clipPath2)"/>
      <text x="107.2192" font-size="10px" y="73.9282" clip-path="url(#clipPath2)" font-family="sans-serif" stroke="none" xml:space="preserve">5</text>
    </g>
    <g text-rendering="geometricPrecision" stroke-miterlimit="1.45" shape-rendering="geometricPrecision" transform="matrix(1,0,0,1,-45,35)" stroke-linecap="butt">
      <path fill="none" d="M130 50 L170 50 L170 90 L130 90 Z" clip-path="url(#clipPath2)"/>
      <text x="144.4385" font-size="10px" y="73.9282" clip-path="url(#clipPath2)" font-family="sans-serif" stroke="none" xml:space="preserve">42</text>
    </g>
    <g font-size="9px" stroke-linecap="butt" transform="matrix(1,0,0,1,-45,35)" text-rendering="geometricPrecision" font-family="sans-serif" shape-rendering="geometricPrecision" font-weight="bold" stroke-miterlimit="1.45">
      <text x="220.9585" xml:space="preserve" y="51.0483" clip-path="url(#clipPath2)" stroke="none">écriture des résultats</text>
    </g>
    <g font-size="10px" stroke-linecap="butt" transform="matrix(1,0,0,1,-45,35)" text-rendering="geometricPrecision" font-family="sans-serif" shape-rendering="geometricPrecision" font-weight="bold" stroke-miterlimit="1.45">
      <text x="200" xml:space="preserve" y="15.8027" clip-path="url(#clipPath2)" stroke="none">Calcul des directions</text>
    </g>
    <g text-rendering="geometricPrecision" stroke-miterlimit="1.45" shape-rendering="geometricPrecision" transform="matrix(1,0,0,1,-45,35)" stroke-linecap="butt">
      <path fill="none" d="M430 10 L470 10 L470 50 L430 50 Z" clip-path="url(#clipPath2)"/>
    </g>
    <g text-rendering="geometricPrecision" stroke-miterlimit="1.45" shape-rendering="geometricPrecision" transform="matrix(1,0,0,1,-45,35)" stroke-linecap="butt">
      <path fill="none" d="M350 10 L390 10 L390 50 L350 50 Z" clip-path="url(#clipPath2)"/>
    </g>
    <g text-rendering="geometricPrecision" stroke-miterlimit="1.45" shape-rendering="geometricPrecision" transform="matrix(1,0,0,1,-45,35)" stroke-linecap="butt">
      <path fill="none" d="M350 50 L390 50 L390 90 L350 90 Z" clip-path="url(#clipPath2)"/>
    </g>
    <g text-rendering="geometricPrecision" stroke-miterlimit="1.45" shape-rendering="geometricPrecision" transform="matrix(1,0,0,1,-45,35)" stroke-linecap="butt">
      <path fill="none" d="M390 50 L430 50 L430 90 L390 90 Z" clip-path="url(#clipPath2)"/>
    </g>
    <g text-rendering="geometricPrecision" stroke-miterlimit="1.45" shape-rendering="geometricPrecision" transform="matrix(1,0,0,1,-45,35)" stroke-linecap="butt">
      <path fill="none" d="M430 50 L470 50 L470 90 L430 90 Z" clip-path="url(#clipPath2)"/>
    </g>
    <g text-rendering="geometricPrecision" stroke-miterlimit="1.45" shape-rendering="geometricPrecision" transform="matrix(1,0,0,1,-45,35)" stroke-linecap="butt">
      <path fill="none" d="M390 -30 L430 -30 L430 10 L390 10 Z" clip-path="url(#clipPath2)"/>
    </g>
    <g text-rendering="geometricPrecision" stroke-miterlimit="1.45" shape-rendering="geometricPrecision" transform="matrix(1,0,0,1,-45,35)" stroke-linecap="butt">
      <path fill="none" d="M430 -30 L470 -30 L470 10 L430 10 Z" clip-path="url(#clipPath2)"/>
    </g>
    <g text-rendering="geometricPrecision" stroke-miterlimit="1.45" shape-rendering="geometricPrecision" transform="matrix(1,0,0,1,-45,35)" stroke-linecap="butt">
      <path fill="none" d="M350 -30 L390 -30 L390 10 L350 10 Z" clip-path="url(#clipPath2)"/>
    </g>
    <g fill="url(#linearGradient2)" text-rendering="geometricPrecision" shape-rendering="geometricPrecision" transform="matrix(1,0,0,1,-45,35)" stroke="url(#linearGradient2)">
      <path d="M380 0 L440 0 L440 60 L380 60 Z" stroke="none" clip-path="url(#clipPath2)"/>
    </g>
    <g text-rendering="geometricPrecision" stroke-miterlimit="1.45" shape-rendering="geometricPrecision" transform="matrix(1,0,0,1,-45,35)" stroke-linecap="butt">
      <path fill="none" d="M380 0 L440 0 L440 60 L380 60 Z" clip-path="url(#clipPath2)"/>
    </g>
    <g stroke-linecap="butt" font-size="8px" transform="matrix(1,0,0,1,-45,35)" fill="white" text-rendering="geometricPrecision" font-family="sans-serif" shape-rendering="geometricPrecision" stroke="white" font-weight="bold" stroke-miterlimit="1.45">
      <text x="395.1094" xml:space="preserve" y="43.3524" clip-path="url(#clipPath2)" stroke="none">Dir. min</text>
      <text x="401.7266" xml:space="preserve" y="53.1531" clip-path="url(#clipPath2)" stroke="none">225°</text>
    </g>
    <g stroke-linecap="butt" font-size="8px" transform="matrix(1,0,0,1,-45,35)" fill="white" text-rendering="geometricPrecision" font-family="sans-serif" shape-rendering="geometricPrecision" stroke="white" font-weight="bold" stroke-miterlimit="1.45">
      <text x="394.2148" xml:space="preserve" y="18.2422" clip-path="url(#clipPath2)" stroke="none">Dir. max</text>
      <text x="403.9512" xml:space="preserve" y="28.043" clip-path="url(#clipPath2)" stroke="none">90°</text>
    </g>
    <g text-rendering="geometricPrecision" stroke-miterlimit="1.45" stroke-width="2" shape-rendering="geometricPrecision" transform="matrix(1,0,0,1,-45,35)" stroke-linecap="butt">
      <path fill="none" d="M219.9756 30 L281.036 30" clip-path="url(#clipPath2)"/>
    </g>
    <g text-rendering="geometricPrecision" stroke-miterlimit="1.45" stroke-width="2" shape-rendering="geometricPrecision" transform="matrix(1,0,0,1,-45,35)" stroke-linecap="butt">
      <path d="M290.036 30 L276.536 24.375 L279.911 30 L276.536 35.625 Z" stroke="none" clip-path="url(#clipPath2)"/>
      <path fill="none" d="M390.0195 49.9805 L376.3607 63.6393" clip-path="url(#clipPath2)"/>
      <path d="M369.9967 70.0033 L383.5201 64.4348 L377.1562 62.8438 L375.5652 56.4798 Z" clip-path="url(#clipPath2)" stroke="none"/>
      <path fill="none" d="M410 9.9609 L410 -1.0228" clip-path="url(#clipPath2)"/>
      <path d="M410 -10.0228 L404.375 3.4772 L410 0.1022 L415.625 3.4772 Z" clip-path="url(#clipPath2)" stroke="none"/>
    </g>
  </g>
</svg>
