<?xml version="1.0" encoding="UTF-8"?><svg xmlns="http://www.w3.org/2000/svg" xmlns:xlink="http://www.w3.org/1999/xlink" fill-opacity="1" color-rendering="auto" color-interpolation="auto" text-rendering="auto" stroke="black" stroke-linecap="square" width="941" stroke-miterlimit="10" shape-rendering="auto" stroke-opacity="1" fill="black" stroke-dasharray="none" font-weight="normal" stroke-width="1" height="240" font-family="'Dialog'" font-style="normal" stroke-linejoin="miter" font-size="12px" stroke-dashoffset="0" image-rendering="auto">
  <!--Generated by ySVG 2.5-->
  <defs id="genericDefs"/>
  <g>
    <defs id="defs1">
      <linearGradient x1="309.5" gradientUnits="userSpaceOnUse" x2="985" y1="178.3" y2="208.3" id="linearGradient1" spreadMethod="reflect">
        <stop stop-opacity="1" stop-color="rgb(12,135,218)" offset="0%"/>
        <stop stop-opacity="1" stop-color="rgb(12,135,218)" offset="100%"/>
      </linearGradient>
      <linearGradient x1="1040" gradientUnits="userSpaceOnUse" x2="1240" y1="178.3" y2="208.3" id="linearGradient2" spreadMethod="reflect">
        <stop stop-opacity="1" stop-color="rgb(124,191,51)" offset="0%"/>
        <stop stop-opacity="1" stop-color="rgb(124,191,51)" offset="100%"/>
      </linearGradient>
      <linearGradient x1="720" gradientUnits="userSpaceOnUse" x2="810" y1="289.9652" y2="345.9652" id="linearGradient3" spreadMethod="reflect">
        <stop stop-opacity="1" stop-color="rgb(234,234,234)" offset="0%"/>
        <stop stop-opacity="1" stop-color="rgb(204,204,204)" offset="100%"/>
      </linearGradient>
      <linearGradient x1="309.5" gradientUnits="userSpaceOnUse" x2="419.5" y1="314.6664" y2="347.9652" id="linearGradient4" spreadMethod="reflect">
        <stop stop-opacity="1" stop-color="white" offset="0%"/>
        <stop stop-opacity="1" stop-color="white" offset="100%"/>
      </linearGradient>
      <linearGradient x1="1055" gradientUnits="userSpaceOnUse" x2="1225" y1="260.4652" y2="300.4652" id="linearGradient5" spreadMethod="reflect">
        <stop stop-opacity="1" stop-color="white" offset="0%"/>
        <stop stop-opacity="1" stop-color="rgb(234,234,234)" offset="100%"/>
      </linearGradient>
      <linearGradient x1="525" gradientUnits="userSpaceOnUse" x2="675" y1="277.1664" y2="385.4652" id="linearGradient6" spreadMethod="reflect">
        <stop stop-opacity="1" stop-color="white" offset="0%"/>
        <stop stop-opacity="1" stop-color="white" offset="100%"/>
      </linearGradient>
      <linearGradient x1="855" gradientUnits="userSpaceOnUse" x2="985" y1="277.1664" y2="310.4652" id="linearGradient7" spreadMethod="reflect">
        <stop stop-opacity="1" stop-color="white" offset="0%"/>
        <stop stop-opacity="1" stop-color="white" offset="100%"/>
      </linearGradient>
      <linearGradient x1="855" gradientUnits="userSpaceOnUse" x2="985" y1="352.1664" y2="385.4652" id="linearGradient8" spreadMethod="reflect">
        <stop stop-opacity="1" stop-color="white" offset="0%"/>
        <stop stop-opacity="1" stop-color="white" offset="100%"/>
      </linearGradient>
      <linearGradient x1="1055" gradientUnits="userSpaceOnUse" x2="1225" y1="310" y2="350" id="linearGradient9" spreadMethod="reflect">
        <stop stop-opacity="1" stop-color="white" offset="0%"/>
        <stop stop-opacity="1" stop-color="rgb(234,234,234)" offset="100%"/>
      </linearGradient>
      <clipPath clipPathUnits="userSpaceOnUse" id="clipPath1">
        <path d="M0 0 L941 0 L941 240 L0 240 L0 0 Z"/>
      </clipPath>
      <clipPath clipPathUnits="userSpaceOnUse" id="clipPath2">
        <path d="M304 173 L1245 173 L1245 413 L304 413 L304 173 Z"/>
      </clipPath>
      <clipPath clipPathUnits="userSpaceOnUse" id="clipPath3">
        <path d="M304 314.6664 L304 413 L1245 413 L1245 314.6664 Z"/>
      </clipPath>
      <clipPath clipPathUnits="userSpaceOnUse" id="clipPath4">
        <path d="M304 173 L304 314.6664 L1245 314.6664 L1245 173 Z"/>
      </clipPath>
      <clipPath clipPathUnits="userSpaceOnUse" id="clipPath5">
        <path d="M304 277.1664 L304 413 L1245 413 L1245 277.1664 Z"/>
      </clipPath>
      <clipPath clipPathUnits="userSpaceOnUse" id="clipPath6">
        <path d="M304 173 L304 277.1664 L1245 277.1664 L1245 173 Z"/>
      </clipPath>
      <clipPath clipPathUnits="userSpaceOnUse" id="clipPath7">
        <path d="M304 352.1664 L304 413 L1245 413 L1245 352.1664 Z"/>
      </clipPath>
      <clipPath clipPathUnits="userSpaceOnUse" id="clipPath8">
        <path d="M304 173 L304 352.1664 L1245 352.1664 L1245 173 Z"/>
      </clipPath>
    </defs>
    <g fill="url(#linearGradient1)" text-rendering="geometricPrecision" shape-rendering="geometricPrecision" transform="matrix(1,0,0,1,-304,-173)" stroke="url(#linearGradient1)">
      <path d="M309.5 178.3 L985 178.3 L985 208.3 L309.5 208.3 Z" stroke="none" clip-path="url(#clipPath2)"/>
    </g>
    <g stroke-linecap="butt" transform="matrix(1,0,0,1,-304,-173)" fill="white" text-rendering="geometricPrecision" font-family="sans-serif" shape-rendering="geometricPrecision" stroke="white" font-weight="bold" stroke-miterlimit="1.45">
      <text x="634.582" xml:space="preserve" y="198.0139" clip-path="url(#clipPath2)" stroke="none">CPU</text>
    </g>
    <g fill="url(#linearGradient2)" text-rendering="geometricPrecision" shape-rendering="geometricPrecision" transform="matrix(1,0,0,1,-304,-173)" stroke="url(#linearGradient2)">
      <path d="M1040 178.3 L1240 178.3 L1240 208.3 L1040 208.3 Z" stroke="none" clip-path="url(#clipPath2)"/>
    </g>
    <g stroke-linecap="butt" transform="matrix(1,0,0,1,-304,-173)" fill="white" text-rendering="geometricPrecision" font-family="sans-serif" shape-rendering="geometricPrecision" stroke="white" font-weight="bold" stroke-miterlimit="1.45">
      <text x="1126.998" xml:space="preserve" y="198.0139" clip-path="url(#clipPath2)" stroke="none">GPU</text>
    </g>
    <g fill="url(#linearGradient3)" text-rendering="geometricPrecision" shape-rendering="geometricPrecision" transform="matrix(1,0,0,1,-304,-173)" stroke="url(#linearGradient3)">
      <path d="M765 289.9652 L810 317.9652 L765 345.9652 L720 317.9652 Z" stroke="none" clip-path="url(#clipPath2)"/>
    </g>
    <g text-rendering="geometricPrecision" stroke-miterlimit="1.45" shape-rendering="geometricPrecision" transform="matrix(1,0,0,1,-304,-173)" stroke-linecap="butt">
      <path fill="none" d="M765 289.9652 L810 317.9652 L765 345.9652 L720 317.9652 Z" clip-path="url(#clipPath2)"/>
      <text x="738.3252" xml:space="preserve" y="322.6791" clip-path="url(#clipPath2)" font-family="sans-serif" stroke="none">GPGPU ?</text>
    </g>
    <g fill="url(#linearGradient4)" text-rendering="geometricPrecision" shape-rendering="geometricPrecision" transform="matrix(1,0,0,1,-304,-173)" stroke="url(#linearGradient4)">
      <rect x="309.5" y="287.9652" clip-path="url(#clipPath3)" width="110" rx="4" ry="4" height="60" stroke="none"/>
      <rect x="309.5" y="287.9652" clip-path="url(#clipPath4)" fill="rgb(204,204,204)" width="110" rx="4" ry="4" height="60" stroke="none"/>
    </g>
    <g text-rendering="geometricPrecision" stroke-miterlimit="1.45" shape-rendering="geometricPrecision" transform="matrix(1,0,0,1,-304,-173)" stroke-linecap="butt">
      <rect x="309.5" y="287.9652" clip-path="url(#clipPath2)" fill="none" width="110" rx="4" ry="4" height="60"/>
      <line y2="314.6664" fill="none" x1="309.5" clip-path="url(#clipPath2)" x2="419.5" y1="314.6664"/>
      <text x="345.8203" xml:space="preserve" y="306.0297" clip-path="url(#clipPath2)" font-family="sans-serif" stroke="none">Agents</text>
    </g>
    <g text-rendering="geometricPrecision" stroke-miterlimit="1.45" stroke-dasharray="6,2" shape-rendering="geometricPrecision" transform="matrix(1,0,0,1,-304,-173)" stroke-linecap="butt">
      <path fill="none" d="M1040 223.3 L1240 223.3 L1240 407.9 L1040 407.9 Z" clip-path="url(#clipPath2)"/>
      <text x="1046" y="241.3645" clip-path="url(#clipPath2)" font-family="sans-serif" stroke-dasharray="none" stroke="none" xml:space="preserve">Modules GPU</text>
    </g>
    <g fill="url(#linearGradient5)" text-rendering="geometricPrecision" shape-rendering="geometricPrecision" transform="matrix(1,0,0,1,-304,-173)" stroke="url(#linearGradient5)">
      <path d="M1055 260.4652 L1225 260.4652 L1225 300.4652 L1055 300.4652 Z" stroke="none" clip-path="url(#clipPath2)"/>
    </g>
    <g text-rendering="geometricPrecision" stroke-miterlimit="1.45" shape-rendering="geometricPrecision" transform="matrix(1,0,0,1,-304,-173)" stroke-linecap="butt">
      <path fill="none" d="M1055 260.4652 L1225 260.4652 L1225 300.4652 L1055 300.4652 Z" clip-path="url(#clipPath2)"/>
      <text x="1116.6562" xml:space="preserve" y="285.1791" clip-path="url(#clipPath2)" font-family="sans-serif" stroke="none">Diffusion</text>
    </g>
    <g stroke-linecap="round" transform="matrix(1,0,0,1,-304,-173)" stroke-dashoffset="2" text-rendering="geometricPrecision" shape-rendering="geometricPrecision" stroke-dasharray="0,4" stroke-miterlimit="1.45">
      <path fill="none" d="M1055 359.5348 L1225 359.5348 L1225 399.5348 L1055 399.5348 Z" clip-path="url(#clipPath2)"/>
    </g>
    <g fill="url(#linearGradient6)" text-rendering="geometricPrecision" shape-rendering="geometricPrecision" transform="matrix(1,0,0,1,-304,-173)" stroke="url(#linearGradient6)">
      <rect x="525" y="250.4652" clip-path="url(#clipPath5)" width="150" rx="4" ry="4" height="135" stroke="none"/>
      <rect x="525" y="250.4652" clip-path="url(#clipPath6)" fill="rgb(204,204,204)" width="150" rx="4" ry="4" height="135" stroke="none"/>
    </g>
    <g text-rendering="geometricPrecision" stroke-miterlimit="1.45" shape-rendering="geometricPrecision" transform="matrix(1,0,0,1,-304,-173)" stroke-linecap="butt">
      <rect x="525" y="250.4652" clip-path="url(#clipPath2)" fill="none" width="150" rx="4" ry="4" height="135"/>
      <line y2="277.1664" fill="none" x1="525" clip-path="url(#clipPath2)" x2="675" y1="277.1664"/>
      <text x="565.9805" xml:space="preserve" y="268.5297" clip-path="url(#clipPath2)" font-family="sans-serif" stroke="none">Pheromones</text>
      <text x="529" xml:space="preserve" y="295.2308" clip-path="url(#clipPath2)" font-family="sans-serif" stroke="none">+ diffusion()</text>
      <text x="529" xml:space="preserve" y="309.932" clip-path="url(#clipPath2)" font-family="sans-serif" stroke="none">+ évaporation()</text>
      <text x="529" xml:space="preserve" y="324.6332" clip-path="url(#clipPath2)" font-family="sans-serif" stroke="none">+ gradients()</text>
    </g>
    <g fill="url(#linearGradient7)" text-rendering="geometricPrecision" shape-rendering="geometricPrecision" transform="matrix(1,0,0,1,-304,-173)" stroke="url(#linearGradient7)">
      <rect x="855" y="250.4652" clip-path="url(#clipPath5)" width="130" rx="4" ry="4" height="60" stroke="none"/>
      <rect x="855" y="250.4652" clip-path="url(#clipPath6)" fill="rgb(204,204,204)" width="130" rx="4" ry="4" height="60" stroke="none"/>
    </g>
    <g text-rendering="geometricPrecision" stroke-miterlimit="1.45" shape-rendering="geometricPrecision" transform="matrix(1,0,0,1,-304,-173)" stroke-linecap="butt">
      <rect x="855" y="250.4652" clip-path="url(#clipPath2)" fill="none" width="130" rx="4" ry="4" height="60"/>
      <line y2="277.1664" fill="none" x1="855" clip-path="url(#clipPath2)" x2="985" y1="277.1664"/>
      <text x="874.6367" xml:space="preserve" y="268.5297" clip-path="url(#clipPath2)" font-family="sans-serif" stroke="none">CudaPheromone</text>
    </g>
    <g fill="url(#linearGradient8)" text-rendering="geometricPrecision" shape-rendering="geometricPrecision" transform="matrix(1,0,0,1,-304,-173)" stroke="url(#linearGradient8)">
      <rect x="855" y="325.4652" clip-path="url(#clipPath7)" width="130" rx="4" ry="4" height="60" stroke="none"/>
      <rect x="855" y="325.4652" clip-path="url(#clipPath8)" fill="rgb(204,204,204)" width="130" rx="4" ry="4" height="60" stroke="none"/>
    </g>
    <g text-rendering="geometricPrecision" stroke-miterlimit="1.45" shape-rendering="geometricPrecision" transform="matrix(1,0,0,1,-304,-173)" stroke-linecap="butt">
      <rect x="855" y="325.4652" clip-path="url(#clipPath2)" fill="none" width="130" rx="4" ry="4" height="60"/>
      <line y2="352.1664" fill="none" x1="855" clip-path="url(#clipPath2)" x2="985" y1="352.1664"/>
      <text x="876.3066" xml:space="preserve" y="343.5297" clip-path="url(#clipPath2)" font-family="sans-serif" stroke="none">JavaPheromone</text>
    </g>
    <g fill="url(#linearGradient9)" text-rendering="geometricPrecision" shape-rendering="geometricPrecision" transform="matrix(1,0,0,1,-304,-173)" stroke="url(#linearGradient9)">
      <path d="M1055 310 L1225 310 L1225 350 L1055 350 Z" stroke="none" clip-path="url(#clipPath2)"/>
    </g>
    <g text-rendering="geometricPrecision" stroke-miterlimit="1.45" shape-rendering="geometricPrecision" transform="matrix(1,0,0,1,-304,-173)" stroke-linecap="butt">
      <path fill="none" d="M1055 310 L1225 310 L1225 350 L1055 350 Z" clip-path="url(#clipPath2)"/>
      <text x="1076.625" xml:space="preserve" y="334.7139" clip-path="url(#clipPath2)" font-family="sans-serif" stroke="none">Perception de gradients</text>
    </g>
    <g text-rendering="geometricPrecision" stroke-miterlimit="1.45" shape-rendering="geometricPrecision" transform="matrix(1,0,0,1,-304,-173)" stroke-linecap="butt">
      <path fill="none" d="M419.4941 317.9652 L525.0389 317.9652" clip-path="url(#clipPath2)"/>
    </g>
    <g text-rendering="geometricPrecision" stroke-miterlimit="1.45" shape-rendering="geometricPrecision" font-family="sans-serif" transform="matrix(1,0,0,1,-304,-173)" stroke-linecap="butt">
      <text x="444.6475" xml:space="preserve" y="310.8791" clip-path="url(#clipPath2)" stroke="none">manipulent</text>
      <path fill="none" d="M674.967 317.9652 L712.0275 317.9652" clip-path="url(#clipPath2)"/>
      <path d="M720.0275 317.9652 L708.0275 312.9652 L711.0275 317.9652 L708.0275 322.9652 Z" clip-path="url(#clipPath2)" stroke="none"/>
      <path fill="none" d="M765 289.9501 L765 280.4652 L847.0256 280.4652" clip-path="url(#clipPath2)"/>
      <path d="M855.0256 280.4652 L843.0256 275.4652 L846.0256 280.4652 L843.0256 285.4652 Z" clip-path="url(#clipPath2)" stroke="none"/>
      <text x="739.9131" xml:space="preserve" y="282.6135" clip-path="url(#clipPath2)" stroke="none">oui</text>
      <path fill="none" d="M993.0024 280.4652 L1046.9952 280.4652" clip-path="url(#clipPath2)"/>
      <path d="M985.0024 280.4652 L997.0024 285.4652 L994.0024 280.4652 L997.0024 275.4652 Z" clip-path="url(#clipPath2)" stroke="none"/>
      <path d="M1054.9952 280.4652 L1042.9952 275.4652 L1045.9952 280.4652 L1042.9952 285.4652 Z" clip-path="url(#clipPath2)" stroke="none"/>
      <path fill="none" d="M765 345.9488 L765 357.1652 L847.0305 357.1652" clip-path="url(#clipPath2)"/>
      <path d="M855.0305 357.1652 L843.0305 352.1652 L846.0305 357.1652 L843.0305 362.1652 Z" clip-path="url(#clipPath2)" stroke="none"/>
      <text x="739.1893" xml:space="preserve" y="362.6135" clip-path="url(#clipPath2)" stroke="none">non</text>
      <path fill="none" d="M993.0146 295.9652 L1020 295.9652 L1020 330 L1047.0098 330" clip-path="url(#clipPath2)"/>
      <path d="M985.0146 295.9652 L997.0146 300.9652 L994.0146 295.9652 L997.0146 290.9652 Z" clip-path="url(#clipPath2)" stroke="none"/>
      <path d="M1055.0098 330 L1043.0098 325 L1046.0098 330 L1043.0098 335 Z" clip-path="url(#clipPath2)" stroke="none"/>
    </g>
  </g>
</svg>
