<?xml version="1.0" encoding="UTF-8"?><svg xmlns="http://www.w3.org/2000/svg" xmlns:xlink="http://www.w3.org/1999/xlink" fill-opacity="1" color-rendering="auto" color-interpolation="auto" text-rendering="auto" stroke="black" stroke-linecap="square" width="840" stroke-miterlimit="10" shape-rendering="auto" stroke-opacity="1" fill="black" stroke-dasharray="none" font-weight="normal" stroke-width="1" height="172" font-family="'Dialog'" font-style="normal" stroke-linejoin="miter" font-size="12px" stroke-dashoffset="0" image-rendering="auto">
  <!--Generated by ySVG 2.5-->
  <defs id="genericDefs"/>
  <g>
    <defs id="defs1">
      <linearGradient x1="-123" gradientUnits="userSpaceOnUse" x2="-93" y1="409.2068" y2="449.2068" id="linearGradient1" spreadMethod="reflect">
        <stop stop-opacity="1" stop-color="rgb(124,191,51)" offset="0%"/>
        <stop stop-opacity="1" stop-color="rgb(124,191,51)" offset="100%"/>
      </linearGradient>
      <linearGradient x1="95" gradientUnits="userSpaceOnUse" x2="445" y1="435.9046" y2="540.0034" id="linearGradient2" spreadMethod="reflect">
        <stop stop-opacity="1" stop-color="white" offset="0%"/>
        <stop stop-opacity="1" stop-color="white" offset="100%"/>
      </linearGradient>
      <linearGradient x1="120" gradientUnits="userSpaceOnUse" x2="420" y1="452.2068" y2="532.2068" id="linearGradient3" spreadMethod="reflect">
        <stop stop-opacity="1" stop-color="rgb(234,234,234)" offset="0%"/>
        <stop stop-opacity="1" stop-color="rgb(234,234,234)" offset="100%"/>
      </linearGradient>
      <linearGradient x1="416" gradientUnits="userSpaceOnUse" x2="516" y1="484.2068" y2="514.2068" id="linearGradient4" spreadMethod="reflect">
        <stop stop-opacity="1" stop-color="rgb(232,238,247)" offset="0%"/>
        <stop stop-opacity="1" stop-color="rgb(204,204,204)" offset="100%"/>
      </linearGradient>
      <linearGradient x1="220" gradientUnits="userSpaceOnUse" x2="320" y1="479.2068" y2="519.2068" id="linearGradient5" spreadMethod="reflect">
        <stop stop-opacity="1" stop-color="rgb(232,238,247)" offset="0%"/>
        <stop stop-opacity="1" stop-color="rgb(204,204,204)" offset="100%"/>
      </linearGradient>
      <linearGradient x1="24" gradientUnits="userSpaceOnUse" x2="124" y1="484.2068" y2="514.2068" id="linearGradient6" spreadMethod="reflect">
        <stop stop-opacity="1" stop-color="rgb(232,238,247)" offset="0%"/>
        <stop stop-opacity="1" stop-color="rgb(204,204,204)" offset="100%"/>
      </linearGradient>
      <clipPath clipPathUnits="userSpaceOnUse" id="clipPath1">
        <path d="M0 0 L840 0 L840 172 L0 172 L0 0 Z"/>
      </clipPath>
      <clipPath clipPathUnits="userSpaceOnUse" id="clipPath2">
        <path d="M-295 404 L545 404 L545 576 L-295 576 L-295 404 Z"/>
      </clipPath>
      <clipPath clipPathUnits="userSpaceOnUse" id="clipPath3">
        <path d="M40.2087 -177.6494 L40.2087 662.3506 L-131.7913 662.3506 L-131.7913 -177.6494 L40.2087 -177.6494 Z"/>
      </clipPath>
      <clipPath clipPathUnits="userSpaceOnUse" id="clipPath4">
        <path d="M-295 435.9046 L-295 576 L545 576 L545 435.9046 Z"/>
      </clipPath>
      <clipPath clipPathUnits="userSpaceOnUse" id="clipPath5">
        <path d="M-295 404 L-295 435.9046 L545 435.9046 L545 404 Z"/>
      </clipPath>
    </defs>
    <g fill="url(#linearGradient1)" text-rendering="geometricPrecision" shape-rendering="geometricPrecision" transform="matrix(1,0,0,1,295,-404)" stroke="url(#linearGradient1)">
      <path d="M-123 409.2068 L-93 409.2068 L-93 449.2068 L-123 449.2068 Z" stroke="none" clip-path="url(#clipPath2)"/>
    </g>
    <g stroke-linecap="butt" transform="matrix(-0,-1,1,-0,177.6494,40.2087)" fill="white" text-rendering="geometricPrecision" font-family="sans-serif" shape-rendering="geometricPrecision" stroke="white" font-weight="bold" stroke-miterlimit="1.45">
      <text x="2" xml:space="preserve" y="14.0645" clip-path="url(#clipPath3)" stroke="none">GPU</text>
    </g>
    <g fill="url(#linearGradient2)" text-rendering="geometricPrecision" shape-rendering="geometricPrecision" transform="matrix(1,0,0,1,295,-404)" stroke="url(#linearGradient2)">
      <rect x="95" y="409.2034" clip-path="url(#clipPath4)" width="350" rx="4" ry="4" height="130.8" stroke="none"/>
      <rect x="95" y="409.2034" clip-path="url(#clipPath5)" fill="rgb(204,204,204)" width="350" rx="4" ry="4" height="130.8" stroke="none"/>
    </g>
    <g text-rendering="geometricPrecision" stroke-miterlimit="1.45" shape-rendering="geometricPrecision" transform="matrix(1,0,0,1,295,-404)" stroke-linecap="butt">
      <rect x="95" y="409.2034" clip-path="url(#clipPath2)" fill="none" width="350" rx="4" ry="4" height="130.8"/>
      <line y2="435.9046" fill="none" x1="95" clip-path="url(#clipPath2)" x2="445" y1="435.9046"/>
      <text x="244.6553" xml:space="preserve" y="427.2679" clip-path="url(#clipPath2)" font-family="sans-serif" stroke="none">Agent (A)</text>
    </g>
    <g fill="url(#linearGradient3)" text-rendering="geometricPrecision" shape-rendering="geometricPrecision" transform="matrix(1,0,0,1,295,-404)" stroke="url(#linearGradient3)">
      <path d="M120 452.2068 L420 452.2068 L420 532.2068 L120 532.2068 Z" stroke="none" clip-path="url(#clipPath2)"/>
    </g>
    <g text-rendering="geometricPrecision" stroke-miterlimit="1.45" shape-rendering="geometricPrecision" transform="matrix(1,0,0,1,295,-404)" stroke-linecap="butt">
      <path fill="none" d="M120 452.2068 L420 452.2068 L420 532.2068 L120 532.2068 Z" clip-path="url(#clipPath2)"/>
      <text x="225.6445" xml:space="preserve" y="470.2712" clip-path="url(#clipPath2)" font-family="sans-serif" stroke="none">Structure interne</text>
    </g>
    <g fill="white" text-rendering="geometricPrecision" shape-rendering="geometricPrecision" transform="matrix(1,0,0,1,295,-404)" stroke="white">
      <path d="M-103 479.2068 L-3 479.2068 L-3 519.2068 L-103 519.2068 Z" stroke="none" clip-path="url(#clipPath2)"/>
    </g>
    <g stroke-linecap="butt" transform="matrix(1,0,0,1,295,-404)" fill="red" text-rendering="geometricPrecision" shape-rendering="geometricPrecision" stroke="red" stroke-miterlimit="1.45">
      <path fill="none" d="M-103 479.2068 L-3 479.2068 L-3 519.2068 L-103 519.2068 Z" clip-path="url(#clipPath2)"/>
      <text x="-91.0127" y="496.5701" clip-path="url(#clipPath2)" fill="black" font-family="sans-serif" stroke="none" xml:space="preserve">Pré-traitement</text>
      <text x="-87.3623" y="511.2712" clip-path="url(#clipPath2)" fill="black" font-family="sans-serif" stroke="none" xml:space="preserve">des données</text>
    </g>
    <g fill="url(#linearGradient4)" text-rendering="geometricPrecision" shape-rendering="geometricPrecision" transform="matrix(1,0,0,1,295,-404)" stroke="url(#linearGradient4)">
      <path d="M416 484.2068 L516 484.2068 L516 514.2068 L416 514.2068 Z" stroke="none" clip-path="url(#clipPath2)"/>
    </g>
    <g text-rendering="geometricPrecision" stroke-miterlimit="1.45" shape-rendering="geometricPrecision" transform="matrix(1,0,0,1,295,-404)" stroke-linecap="butt">
      <path fill="none" d="M416 484.2068 L516 484.2068 L516 514.2068 L416 514.2068 Z" clip-path="url(#clipPath2)"/>
      <text x="446.3242" xml:space="preserve" y="503.9207" clip-path="url(#clipPath2)" font-family="sans-serif" stroke="none">Actions</text>
    </g>
    <g fill="url(#linearGradient5)" text-rendering="geometricPrecision" shape-rendering="geometricPrecision" transform="matrix(1,0,0,1,295,-404)" stroke="url(#linearGradient5)">
      <path d="M220 479.2068 L320 479.2068 L320 519.2068 L220 519.2068 Z" stroke="none" clip-path="url(#clipPath2)"/>
    </g>
    <g text-rendering="geometricPrecision" stroke-miterlimit="1.45" shape-rendering="geometricPrecision" transform="matrix(1,0,0,1,295,-404)" stroke-linecap="butt">
      <path fill="none" d="M220 479.2068 L320 479.2068 L320 519.2068 L220 519.2068 Z" clip-path="url(#clipPath2)"/>
      <text x="237.9814" xml:space="preserve" y="503.9207" clip-path="url(#clipPath2)" font-family="sans-serif" stroke="none">Délibération</text>
    </g>
    <g fill="url(#linearGradient6)" text-rendering="geometricPrecision" shape-rendering="geometricPrecision" transform="matrix(1,0,0,1,295,-404)" stroke="url(#linearGradient6)">
      <path d="M24 484.2068 L124 484.2068 L124 514.2068 L24 514.2068 Z" stroke="none" clip-path="url(#clipPath2)"/>
    </g>
    <g text-rendering="geometricPrecision" stroke-miterlimit="1.45" shape-rendering="geometricPrecision" transform="matrix(1,0,0,1,295,-404)" stroke-linecap="butt">
      <path fill="none" d="M24 484.2068 L124 484.2068 L124 514.2068 L24 514.2068 Z" clip-path="url(#clipPath2)"/>
      <text x="42.3154" xml:space="preserve" y="503.9207" clip-path="url(#clipPath2)" font-family="sans-serif" stroke="none">Perceptions</text>
    </g>
    <g stroke-linecap="butt" transform="matrix(1,0,0,1,295,-404)" text-rendering="geometricPrecision" font-family="sans-serif" shape-rendering="geometricPrecision" font-weight="bold" stroke-miterlimit="1.45">
      <text x="-256.3359" xml:space="preserve" y="503.9207" clip-path="url(#clipPath2)" stroke="none">Environment (E)</text>
    </g>
    <g text-rendering="geometricPrecision" stroke-miterlimit="1.45" shape-rendering="geometricPrecision" transform="matrix(1,0,0,1,295,-404)" stroke-linecap="butt">
      <rect x="-290" y="479.2068" clip-path="url(#clipPath2)" fill="none" width="160" rx="4" ry="4" height="40"/>
    </g>
    <g text-rendering="geometricPrecision" stroke-miterlimit="1.45" shape-rendering="geometricPrecision" transform="matrix(1,0,0,1,295,-404)" stroke-linecap="butt">
      <path fill="none" d="M-123 409.2068 L17 409.2068 L17 449.2068 L-123 449.2068 Z" clip-path="url(#clipPath2)"/>
      <text x="-77.0527" xml:space="preserve" y="433.9207" clip-path="url(#clipPath2)" font-family="sans-serif" stroke="none">Module de calcul</text>
    </g>
    <g text-rendering="geometricPrecision" stroke-miterlimit="1.45" shape-rendering="geometricPrecision" transform="matrix(1,0,0,1,295,-404)" stroke-linecap="butt">
      <path fill="none" d="M320.0049 499.2068 L407.9924 499.2068" clip-path="url(#clipPath2)"/>
      <path d="M415.9924 499.2068 L403.9924 494.2068 L406.9924 499.2068 L403.9924 504.2068 Z" clip-path="url(#clipPath2)" stroke="none"/>
      <path fill="none" d="M-2.9875 499.2068 L15.9656 499.2068" clip-path="url(#clipPath2)"/>
      <path d="M23.9656 499.2068 L11.9656 494.2068 L14.9656 499.2068 L11.9656 504.2068 Z" clip-path="url(#clipPath2)" stroke="none"/>
      <path fill="none" d="M124.0049 499.2068 L211.9924 499.2068" clip-path="url(#clipPath2)"/>
      <path d="M219.9924 499.2068 L207.9924 494.2068 L210.9924 499.2068 L207.9924 504.2068 Z" clip-path="url(#clipPath2)" stroke="none"/>
      <path fill="none" d="M515.9717 499.2068 L540 499.2068 L540 570 L-210 570 L-210 527.2211" clip-path="url(#clipPath2)"/>
      <path d="M-210 519.2211 L-215 531.2211 L-210 528.2211 L-205 531.2211 Z" clip-path="url(#clipPath2)" stroke="none"/>
      <path fill="none" d="M-130.0051 499.2068 L-110.9706 499.2068" clip-path="url(#clipPath2)"/>
      <path d="M-102.9706 499.2068 L-114.9706 494.2068 L-111.9706 499.2068 L-114.9706 504.2068 Z" clip-path="url(#clipPath2)" stroke="none"/>
      <path fill="none" d="M-53 471.2117 L-53 457.1794" clip-path="url(#clipPath2)"/>
      <path d="M-53 479.2117 L-48 467.2117 L-53 470.2117 L-58 467.2117 Z" clip-path="url(#clipPath2)" stroke="none"/>
      <path d="M-53 449.1794 L-58 461.1794 L-53 458.1794 L-48 461.1794 Z" clip-path="url(#clipPath2)" stroke="none"/>
    </g>
  </g>
</svg>
