<?xml version="1.0" encoding="UTF-8"?><svg xmlns="http://www.w3.org/2000/svg" xmlns:xlink="http://www.w3.org/1999/xlink" fill-opacity="1" color-rendering="auto" color-interpolation="auto" text-rendering="auto" stroke="black" stroke-linecap="square" width="890" stroke-miterlimit="10" shape-rendering="auto" stroke-opacity="1" fill="black" stroke-dasharray="none" font-weight="normal" stroke-width="1" height="224" font-family="'Dialog'" font-style="normal" stroke-linejoin="miter" font-size="12px" stroke-dashoffset="0" image-rendering="auto">
  <!--Generated by ySVG 2.5-->
  <defs id="genericDefs"/>
  <g>
    <defs id="defs1">
      <linearGradient x1="240" gradientUnits="userSpaceOnUse" x2="890" y1="135" y2="165" id="linearGradient1" spreadMethod="reflect">
        <stop stop-opacity="1" stop-color="rgb(12,135,218)" offset="0%"/>
        <stop stop-opacity="1" stop-color="rgb(12,135,218)" offset="100%"/>
      </linearGradient>
      <linearGradient x1="920" gradientUnits="userSpaceOnUse" x2="1120" y1="135" y2="165" id="linearGradient2" spreadMethod="reflect">
        <stop stop-opacity="1" stop-color="rgb(124,191,51)" offset="0%"/>
        <stop stop-opacity="1" stop-color="rgb(124,191,51)" offset="100%"/>
      </linearGradient>
      <linearGradient x1="570" gradientUnits="userSpaceOnUse" x2="660" y1="259" y2="315" id="linearGradient3" spreadMethod="reflect">
        <stop stop-opacity="1" stop-color="rgb(234,234,234)" offset="0%"/>
        <stop stop-opacity="1" stop-color="rgb(204,204,204)" offset="100%"/>
      </linearGradient>
      <linearGradient x1="240" gradientUnits="userSpaceOnUse" x2="540" y1="220.0012" y2="328.3" id="linearGradient4" spreadMethod="reflect">
        <stop stop-opacity="1" stop-color="white" offset="0%"/>
        <stop stop-opacity="1" stop-color="white" offset="100%"/>
      </linearGradient>
      <linearGradient x1="261.5269" gradientUnits="userSpaceOnUse" x2="381.5269" y1="230.4652" y2="260.4652" id="linearGradient5" spreadMethod="reflect">
        <stop stop-opacity="1" stop-color="rgb(234,234,234)" offset="0%"/>
        <stop stop-opacity="1" stop-color="white" offset="100%"/>
      </linearGradient>
      <linearGradient x1="261.5269" gradientUnits="userSpaceOnUse" x2="381.5269" y1="272" y2="302" id="linearGradient6" spreadMethod="reflect">
        <stop stop-opacity="1" stop-color="rgb(234,234,234)" offset="0%"/>
        <stop stop-opacity="1" stop-color="white" offset="100%"/>
      </linearGradient>
      <linearGradient x1="398.4731" gradientUnits="userSpaceOnUse" x2="518.4731" y1="230.4652" y2="260.4652" id="linearGradient7" spreadMethod="reflect">
        <stop stop-opacity="1" stop-color="rgb(234,234,234)" offset="0%"/>
        <stop stop-opacity="1" stop-color="white" offset="100%"/>
      </linearGradient>
      <linearGradient x1="398.4731" gradientUnits="userSpaceOnUse" x2="518.4731" y1="272" y2="302" id="linearGradient8" spreadMethod="reflect">
        <stop stop-opacity="1" stop-color="rgb(234,234,234)" offset="0%"/>
        <stop stop-opacity="1" stop-color="white" offset="100%"/>
      </linearGradient>
      <linearGradient x1="690" gradientUnits="userSpaceOnUse" x2="890" y1="220.0012" y2="328.3" id="linearGradient9" spreadMethod="reflect">
        <stop stop-opacity="1" stop-color="white" offset="0%"/>
        <stop stop-opacity="1" stop-color="white" offset="100%"/>
      </linearGradient>
      <linearGradient x1="705" gradientUnits="userSpaceOnUse" x2="875" y1="230.4652" y2="270.4652" id="linearGradient10" spreadMethod="reflect">
        <stop stop-opacity="1" stop-color="rgb(234,234,234)" offset="0%"/>
        <stop stop-opacity="1" stop-color="white" offset="100%"/>
      </linearGradient>
      <linearGradient x1="935" gradientUnits="userSpaceOnUse" x2="1105" y1="230.4652" y2="270.4652" id="linearGradient11" spreadMethod="reflect">
        <stop stop-opacity="1" stop-color="white" offset="0%"/>
        <stop stop-opacity="1" stop-color="rgb(234,234,234)" offset="100%"/>
      </linearGradient>
      <clipPath clipPathUnits="userSpaceOnUse" id="clipPath1">
        <path d="M0 0 L890 0 L890 224 L0 224 L0 0 Z"/>
      </clipPath>
      <clipPath clipPathUnits="userSpaceOnUse" id="clipPath2">
        <path d="M235 130 L1125 130 L1125 354 L235 354 L235 130 Z"/>
      </clipPath>
      <clipPath clipPathUnits="userSpaceOnUse" id="clipPath3">
        <path d="M235 220.0012 L235 354 L1125 354 L1125 220.0012 Z"/>
      </clipPath>
      <clipPath clipPathUnits="userSpaceOnUse" id="clipPath4">
        <path d="M235 130 L235 220.0012 L1125 220.0012 L1125 130 Z"/>
      </clipPath>
    </defs>
    <g fill="url(#linearGradient1)" text-rendering="geometricPrecision" shape-rendering="geometricPrecision" transform="matrix(1,0,0,1,-235,-130)" stroke="url(#linearGradient1)">
      <path d="M240 135 L890 135 L890 165 L240 165 Z" stroke="none" clip-path="url(#clipPath2)"/>
    </g>
    <g stroke-linecap="butt" transform="matrix(1,0,0,1,-235,-130)" fill="white" text-rendering="geometricPrecision" font-family="sans-serif" shape-rendering="geometricPrecision" stroke="white" font-weight="bold" stroke-miterlimit="1.45">
      <text x="552.332" xml:space="preserve" y="154.7139" clip-path="url(#clipPath2)" stroke="none">CPU</text>
    </g>
    <g fill="url(#linearGradient2)" text-rendering="geometricPrecision" shape-rendering="geometricPrecision" transform="matrix(1,0,0,1,-235,-130)" stroke="url(#linearGradient2)">
      <path d="M920 135 L1120 135 L1120 165 L920 165 Z" stroke="none" clip-path="url(#clipPath2)"/>
    </g>
    <g stroke-linecap="butt" transform="matrix(1,0,0,1,-235,-130)" fill="white" text-rendering="geometricPrecision" font-family="sans-serif" shape-rendering="geometricPrecision" stroke="white" font-weight="bold" stroke-miterlimit="1.45">
      <text x="1006.998" xml:space="preserve" y="154.7139" clip-path="url(#clipPath2)" stroke="none">GPU</text>
    </g>
    <g fill="url(#linearGradient3)" text-rendering="geometricPrecision" shape-rendering="geometricPrecision" transform="matrix(1,0,0,1,-235,-130)" stroke="url(#linearGradient3)">
      <path d="M615 259 L660 287 L615 315 L570 287 Z" stroke="none" clip-path="url(#clipPath2)"/>
    </g>
    <g text-rendering="geometricPrecision" stroke-miterlimit="1.45" shape-rendering="geometricPrecision" transform="matrix(1,0,0,1,-235,-130)" stroke-linecap="butt">
      <path fill="none" d="M615 259 L660 287 L615 315 L570 287 Z" clip-path="url(#clipPath2)"/>
      <text x="588.3252" xml:space="preserve" y="291.7139" clip-path="url(#clipPath2)" font-family="sans-serif" stroke="none">GPGPU ?</text>
    </g>
    <g fill="url(#linearGradient4)" text-rendering="geometricPrecision" shape-rendering="geometricPrecision" transform="matrix(1,0,0,1,-235,-130)" stroke="url(#linearGradient4)">
      <rect x="240" y="193.3" clip-path="url(#clipPath3)" width="300" rx="4" ry="4" height="135" stroke="none"/>
      <rect x="240" y="193.3" clip-path="url(#clipPath4)" fill="rgb(204,204,204)" width="300" rx="4" ry="4" height="135" stroke="none"/>
    </g>
    <g text-rendering="geometricPrecision" stroke-miterlimit="1.45" shape-rendering="geometricPrecision" transform="matrix(1,0,0,1,-235,-130)" stroke-linecap="butt">
      <rect x="240" y="193.3" clip-path="url(#clipPath2)" fill="none" width="300" rx="4" ry="4" height="135"/>
      <line y2="220.0012" fill="none" x1="240" clip-path="url(#clipPath2)" x2="540" y1="220.0012"/>
      <text x="371.3203" xml:space="preserve" y="211.3645" clip-path="url(#clipPath2)" font-family="sans-serif" stroke="none">Agents</text>
    </g>
    <g fill="url(#linearGradient5)" text-rendering="geometricPrecision" shape-rendering="geometricPrecision" transform="matrix(1,0,0,1,-235,-130)" stroke="url(#linearGradient5)">
      <path d="M261.5269 230.4652 L381.5269 230.4652 L381.5269 260.4652 L261.5269 260.4652 Z" stroke="none" clip-path="url(#clipPath2)"/>
    </g>
    <g text-rendering="geometricPrecision" stroke-miterlimit="1.45" shape-rendering="geometricPrecision" transform="matrix(1,0,0,1,-235,-130)" stroke-linecap="butt">
      <path fill="none" d="M261.5269 230.4652 L381.5269 230.4652 L381.5269 260.4652 L261.5269 260.4652 Z" clip-path="url(#clipPath2)"/>
      <text x="277.5054" xml:space="preserve" y="250.1791" clip-path="url(#clipPath2)" font-family="sans-serif" stroke="none">Séparation (R.1)</text>
    </g>
    <g fill="url(#linearGradient6)" text-rendering="geometricPrecision" shape-rendering="geometricPrecision" transform="matrix(1,0,0,1,-235,-130)" stroke="url(#linearGradient6)">
      <path d="M261.5269 272 L381.5269 272 L381.5269 302 L261.5269 302 Z" stroke="none" clip-path="url(#clipPath2)"/>
    </g>
    <g text-rendering="geometricPrecision" stroke-miterlimit="1.45" shape-rendering="geometricPrecision" transform="matrix(1,0,0,1,-235,-130)" stroke-linecap="butt">
      <path fill="none" d="M261.5269 272 L381.5269 272 L381.5269 302 L261.5269 302 Z" clip-path="url(#clipPath2)"/>
      <text x="286.8511" xml:space="preserve" y="291.7139" clip-path="url(#clipPath2)" font-family="sans-serif" stroke="none">Vitesse (R.3)</text>
    </g>
    <g fill="url(#linearGradient7)" text-rendering="geometricPrecision" shape-rendering="geometricPrecision" transform="matrix(1,0,0,1,-235,-130)" stroke="url(#linearGradient7)">
      <path d="M398.4731 230.4652 L518.4731 230.4652 L518.4731 260.4652 L398.4731 260.4652 Z" stroke="none" clip-path="url(#clipPath2)"/>
    </g>
    <g text-rendering="geometricPrecision" stroke-miterlimit="1.45" shape-rendering="geometricPrecision" transform="matrix(1,0,0,1,-235,-130)" stroke-linecap="butt">
      <path fill="none" d="M398.4731 230.4652 L518.4731 230.4652 L518.4731 260.4652 L398.4731 260.4652 Z" clip-path="url(#clipPath2)"/>
      <text x="413.4555" xml:space="preserve" y="250.1791" clip-path="url(#clipPath2)" font-family="sans-serif" stroke="none">Alignement (R.2)</text>
    </g>
    <g fill="url(#linearGradient8)" text-rendering="geometricPrecision" shape-rendering="geometricPrecision" transform="matrix(1,0,0,1,-235,-130)" stroke="url(#linearGradient8)">
      <path d="M398.4731 272 L518.4731 272 L518.4731 302 L398.4731 302 Z" stroke="none" clip-path="url(#clipPath2)"/>
    </g>
    <g text-rendering="geometricPrecision" stroke-miterlimit="1.45" shape-rendering="geometricPrecision" transform="matrix(1,0,0,1,-235,-130)" stroke-linecap="butt">
      <path fill="none" d="M398.4731 272 L518.4731 272 L518.4731 302 L398.4731 302 Z" clip-path="url(#clipPath2)"/>
      <text x="418.1225" xml:space="preserve" y="291.7139" clip-path="url(#clipPath2)" font-family="sans-serif" stroke="none">Cohésion (R.2)</text>
    </g>
    <g fill="url(#linearGradient9)" text-rendering="geometricPrecision" shape-rendering="geometricPrecision" transform="matrix(1,0,0,1,-235,-130)" stroke="url(#linearGradient9)">
      <rect x="690" y="193.3" clip-path="url(#clipPath3)" width="200" rx="4" ry="4" height="135" stroke="none"/>
      <rect x="690" y="193.3" clip-path="url(#clipPath4)" fill="rgb(204,204,204)" width="200" rx="4" ry="4" height="135" stroke="none"/>
    </g>
    <g text-rendering="geometricPrecision" stroke-miterlimit="1.45" shape-rendering="geometricPrecision" transform="matrix(1,0,0,1,-235,-130)" stroke-linecap="butt">
      <rect x="690" y="193.3" clip-path="url(#clipPath2)" fill="none" width="200" rx="4" ry="4" height="135"/>
      <line y2="220.0012" fill="none" x1="690" clip-path="url(#clipPath2)" x2="890" y1="220.0012"/>
      <text x="749.6436" xml:space="preserve" y="211.3645" clip-path="url(#clipPath2)" font-family="sans-serif" stroke="none">Environnement</text>
    </g>
    <g fill="url(#linearGradient10)" text-rendering="geometricPrecision" shape-rendering="geometricPrecision" transform="matrix(1,0,0,1,-235,-130)" stroke="url(#linearGradient10)">
      <path d="M705 230.4652 L875 230.4652 L875 270.4652 L705 270.4652 Z" stroke="none" clip-path="url(#clipPath2)"/>
    </g>
    <g text-rendering="geometricPrecision" stroke-miterlimit="1.45" shape-rendering="geometricPrecision" transform="matrix(1,0,0,1,-235,-130)" stroke-linecap="butt">
      <path fill="none" d="M705 230.4652 L875 230.4652 L875 270.4652 L705 270.4652 Z" clip-path="url(#clipPath2)"/>
      <text x="720.2881" xml:space="preserve" y="247.8285" clip-path="url(#clipPath2)" font-family="sans-serif" stroke="none">Données des orientations </text>
      <text x="762.3174" xml:space="preserve" y="262.5297" clip-path="url(#clipPath2)" font-family="sans-serif" stroke="none">moyennes</text>
    </g>
    <g text-rendering="geometricPrecision" stroke-miterlimit="1.45" stroke-dasharray="6,2" shape-rendering="geometricPrecision" transform="matrix(1,0,0,1,-235,-130)" stroke-linecap="butt">
      <path fill="none" d="M920 193.3 L1120 193.3 L1120 328.3 L920 328.3 Z" clip-path="url(#clipPath2)"/>
      <text x="926" y="211.3645" clip-path="url(#clipPath2)" font-family="sans-serif" stroke-dasharray="none" stroke="none" xml:space="preserve">Module GPU</text>
    </g>
    <g fill="url(#linearGradient11)" text-rendering="geometricPrecision" shape-rendering="geometricPrecision" transform="matrix(1,0,0,1,-235,-130)" stroke="url(#linearGradient11)">
      <path d="M935 230.4652 L1105 230.4652 L1105 270.4652 L935 270.4652 Z" stroke="none" clip-path="url(#clipPath2)"/>
    </g>
    <g text-rendering="geometricPrecision" stroke-miterlimit="1.45" shape-rendering="geometricPrecision" transform="matrix(1,0,0,1,-235,-130)" stroke-linecap="butt">
      <path fill="none" d="M935 230.4652 L1105 230.4652 L1105 270.4652 L935 270.4652 Z" clip-path="url(#clipPath2)"/>
      <text x="997.6523" xml:space="preserve" y="255.1791" clip-path="url(#clipPath2)" font-family="sans-serif" stroke="none">Average</text>
    </g>
    <g stroke-linecap="round" transform="matrix(1,0,0,1,-235,-130)" stroke-dashoffset="2" text-rendering="geometricPrecision" shape-rendering="geometricPrecision" stroke-dasharray="0,4" stroke-miterlimit="1.45">
      <path fill="none" d="M935 280 L1105 280 L1105 320 L935 320 Z" clip-path="url(#clipPath2)"/>
    </g>
    <g text-rendering="geometricPrecision" stroke-miterlimit="1.45" shape-rendering="geometricPrecision" transform="matrix(1,0,0,1,-235,-130)" stroke-linecap="butt">
      <path fill="none" d="M615 314.9861 L615 348.3 L450 348.3 L450 310.0182" clip-path="url(#clipPath2)"/>
    </g>
    <g text-rendering="geometricPrecision" stroke-miterlimit="1.45" shape-rendering="geometricPrecision" transform="matrix(1,0,0,1,-235,-130)" stroke-linecap="butt">
      <path d="M450 302.0182 L445 314.0182 L450 311.0182 L455 314.0182 Z" stroke="none" clip-path="url(#clipPath2)"/>
      <text x="588.6479" xml:space="preserve" y="330.3774" clip-path="url(#clipPath2)" font-family="sans-serif" stroke="none">non</text>
      <path fill="none" d="M518.5082 287 L562.0051 287" clip-path="url(#clipPath2)"/>
      <path d="M570.0051 287 L558.0051 282 L561.0051 287 L558.0051 292 Z" clip-path="url(#clipPath2)" stroke="none"/>
      <path fill="none" d="M615 258.9924 L615 250.4652 L697.0208 250.4652" clip-path="url(#clipPath2)"/>
      <path d="M705.0208 250.4652 L693.0208 245.4652 L696.0208 250.4652 L693.0208 255.4652 Z" clip-path="url(#clipPath2)" stroke="none"/>
      <text x="622.1658" xml:space="preserve" y="243.0235" clip-path="url(#clipPath2)" font-family="sans-serif" stroke="none">oui</text>
      <path fill="none" d="M789.7954 270.4812 L789 348.3 L450 348.3 L450 310.0282" clip-path="url(#clipPath2)"/>
      <path d="M450 302.0282 L445 314.0282 L450 311.0282 L455 314.0282 Z" clip-path="url(#clipPath2)" stroke="none"/>
      <path fill="none" d="M875.0308 241.8965 L927.0239 241.8965" clip-path="url(#clipPath2)"/>
      <path d="M935.0239 241.8965 L923.0239 236.8965 L926.0239 241.8965 L923.0239 246.8965 Z" clip-path="url(#clipPath2)" stroke="none"/>
      <path fill="none" d="M935.0038 260.7826 L883.0023 260.7826" clip-path="url(#clipPath2)"/>
      <path d="M875.0023 260.7826 L887.0023 265.7826 L884.0023 260.7826 L887.0023 255.7826 Z" clip-path="url(#clipPath2)" stroke="none"/>
    </g>
  </g>
</svg>
