<?xml version="1.0" encoding="UTF-8"?><svg xmlns="http://www.w3.org/2000/svg" xmlns:xlink="http://www.w3.org/1999/xlink" fill-opacity="1" color-rendering="auto" color-interpolation="auto" text-rendering="auto" stroke="black" stroke-linecap="square" width="840" stroke-miterlimit="10" shape-rendering="auto" stroke-opacity="1" fill="black" stroke-dasharray="none" font-weight="normal" stroke-width="1" height="166" font-family="'Dialog'" font-style="normal" stroke-linejoin="miter" font-size="12px" stroke-dashoffset="0" image-rendering="auto">
  <!--Generated by ySVG 2.5-->
  <defs id="genericDefs"/>
  <g>
    <defs id="defs1">
      <linearGradient x1="95" gradientUnits="userSpaceOnUse" x2="445" y1="262.4448" y2="366.5436" id="linearGradient1" spreadMethod="reflect">
        <stop stop-opacity="1" stop-color="white" offset="0%"/>
        <stop stop-opacity="1" stop-color="white" offset="100%"/>
      </linearGradient>
      <linearGradient x1="120" gradientUnits="userSpaceOnUse" x2="420" y1="279.3504" y2="359.3504" id="linearGradient2" spreadMethod="reflect">
        <stop stop-opacity="1" stop-color="rgb(234,234,234)" offset="0%"/>
        <stop stop-opacity="1" stop-color="rgb(234,234,234)" offset="100%"/>
      </linearGradient>
      <linearGradient x1="24" gradientUnits="userSpaceOnUse" x2="124" y1="311.3504" y2="341.3504" id="linearGradient3" spreadMethod="reflect">
        <stop stop-opacity="1" stop-color="rgb(232,238,247)" offset="0%"/>
        <stop stop-opacity="1" stop-color="rgb(204,204,204)" offset="100%"/>
      </linearGradient>
      <linearGradient x1="286" gradientUnits="userSpaceOnUse" x2="386" y1="306.3504" y2="346.3504" id="linearGradient4" spreadMethod="reflect">
        <stop stop-opacity="1" stop-color="rgb(232,238,247)" offset="0%"/>
        <stop stop-opacity="1" stop-color="rgb(204,204,204)" offset="100%"/>
      </linearGradient>
      <linearGradient x1="416" gradientUnits="userSpaceOnUse" x2="516" y1="311.3504" y2="341.3504" id="linearGradient5" spreadMethod="reflect">
        <stop stop-opacity="1" stop-color="rgb(232,238,247)" offset="0%"/>
        <stop stop-opacity="1" stop-color="rgb(204,204,204)" offset="100%"/>
      </linearGradient>
      <clipPath clipPathUnits="userSpaceOnUse" id="clipPath1">
        <path d="M0 0 L840 0 L840 166 L0 166 L0 0 Z"/>
      </clipPath>
      <clipPath clipPathUnits="userSpaceOnUse" id="clipPath2">
        <path d="M-295 230 L545 230 L545 396 L-295 396 L-295 230 Z"/>
      </clipPath>
      <clipPath clipPathUnits="userSpaceOnUse" id="clipPath3">
        <path d="M-295 262.4448 L-295 396 L545 396 L545 262.4448 Z"/>
      </clipPath>
      <clipPath clipPathUnits="userSpaceOnUse" id="clipPath4">
        <path d="M-295 230 L-295 262.4448 L545 262.4448 L545 230 Z"/>
      </clipPath>
    </defs>
    <g fill="url(#linearGradient1)" text-rendering="geometricPrecision" shape-rendering="geometricPrecision" transform="matrix(1,0,0,1,295,-230)" stroke="url(#linearGradient1)">
      <rect x="95" y="235.7436" clip-path="url(#clipPath3)" width="350" rx="4" ry="4" height="130.8" stroke="none"/>
      <rect x="95" y="235.7436" clip-path="url(#clipPath4)" fill="rgb(204,204,204)" width="350" rx="4" ry="4" height="130.8" stroke="none"/>
    </g>
    <g text-rendering="geometricPrecision" stroke-miterlimit="1.45" shape-rendering="geometricPrecision" transform="matrix(1,0,0,1,295,-230)" stroke-linecap="butt">
      <rect x="95" y="235.7436" clip-path="url(#clipPath2)" fill="none" width="350" rx="4" ry="4" height="130.8"/>
      <line y2="262.4448" fill="none" x1="95" clip-path="url(#clipPath2)" x2="445" y1="262.4448"/>
      <text x="244.6553" xml:space="preserve" y="253.8081" clip-path="url(#clipPath2)" font-family="sans-serif" stroke="none">Agent (A)</text>
    </g>
    <g stroke-linecap="butt" transform="matrix(1,0,0,1,295,-230)" text-rendering="geometricPrecision" font-family="sans-serif" shape-rendering="geometricPrecision" font-weight="bold" stroke-miterlimit="1.45">
      <text x="-256.3359" xml:space="preserve" y="331.0643" clip-path="url(#clipPath2)" stroke="none">Environment (E)</text>
    </g>
    <g text-rendering="geometricPrecision" stroke-miterlimit="1.45" shape-rendering="geometricPrecision" transform="matrix(1,0,0,1,295,-230)" stroke-linecap="butt">
      <rect x="-290" y="306.3504" clip-path="url(#clipPath2)" fill="none" width="160" rx="4" ry="4" height="40"/>
    </g>
    <g fill="url(#linearGradient2)" text-rendering="geometricPrecision" shape-rendering="geometricPrecision" transform="matrix(1,0,0,1,295,-230)" stroke="url(#linearGradient2)">
      <path d="M120 279.3504 L420 279.3504 L420 359.3504 L120 359.3504 Z" stroke="none" clip-path="url(#clipPath2)"/>
    </g>
    <g text-rendering="geometricPrecision" stroke-miterlimit="1.45" shape-rendering="geometricPrecision" transform="matrix(1,0,0,1,295,-230)" stroke-linecap="butt">
      <path fill="none" d="M120 279.3504 L420 279.3504 L420 359.3504 L120 359.3504 Z" clip-path="url(#clipPath2)"/>
      <text x="225.6445" xml:space="preserve" y="297.4149" clip-path="url(#clipPath2)" font-family="sans-serif" stroke="none">Structure interne</text>
    </g>
    <g fill="url(#linearGradient3)" text-rendering="geometricPrecision" shape-rendering="geometricPrecision" transform="matrix(1,0,0,1,295,-230)" stroke="url(#linearGradient3)">
      <path d="M24 311.3504 L124 311.3504 L124 341.3504 L24 341.3504 Z" stroke="none" clip-path="url(#clipPath2)"/>
    </g>
    <g text-rendering="geometricPrecision" stroke-miterlimit="1.45" shape-rendering="geometricPrecision" transform="matrix(1,0,0,1,295,-230)" stroke-linecap="butt">
      <path fill="none" d="M24 311.3504 L124 311.3504 L124 341.3504 L24 341.3504 Z" clip-path="url(#clipPath2)"/>
      <text x="42.3154" xml:space="preserve" y="331.0643" clip-path="url(#clipPath2)" font-family="sans-serif" stroke="none">Perceptions</text>
    </g>
    <g fill="url(#linearGradient4)" text-rendering="geometricPrecision" shape-rendering="geometricPrecision" transform="matrix(1,0,0,1,295,-230)" stroke="url(#linearGradient4)">
      <path d="M286 306.3504 L386 306.3504 L386 346.3504 L286 346.3504 Z" stroke="none" clip-path="url(#clipPath2)"/>
    </g>
    <g text-rendering="geometricPrecision" stroke-miterlimit="1.45" shape-rendering="geometricPrecision" transform="matrix(1,0,0,1,295,-230)" stroke-linecap="butt">
      <path fill="none" d="M286 306.3504 L386 306.3504 L386 346.3504 L286 346.3504 Z" clip-path="url(#clipPath2)"/>
      <text x="303.9814" xml:space="preserve" y="331.0643" clip-path="url(#clipPath2)" font-family="sans-serif" stroke="none">Délibération</text>
    </g>
    <g fill="url(#linearGradient5)" text-rendering="geometricPrecision" shape-rendering="geometricPrecision" transform="matrix(1,0,0,1,295,-230)" stroke="url(#linearGradient5)">
      <path d="M416 311.3504 L516 311.3504 L516 341.3504 L416 341.3504 Z" stroke="none" clip-path="url(#clipPath2)"/>
    </g>
    <g text-rendering="geometricPrecision" stroke-miterlimit="1.45" shape-rendering="geometricPrecision" transform="matrix(1,0,0,1,295,-230)" stroke-linecap="butt">
      <path fill="none" d="M416 311.3504 L516 311.3504 L516 341.3504 L416 341.3504 Z" clip-path="url(#clipPath2)"/>
      <text x="446.3242" xml:space="preserve" y="331.0643" clip-path="url(#clipPath2)" font-family="sans-serif" stroke="none">Actions</text>
    </g>
    <g fill="white" text-rendering="geometricPrecision" shape-rendering="geometricPrecision" transform="matrix(1,0,0,1,295,-230)" stroke="white">
      <path d="M154 306.3504 L254 306.3504 L254 346.3504 L154 346.3504 Z" stroke="none" clip-path="url(#clipPath2)"/>
    </g>
    <g stroke-linecap="butt" transform="matrix(1,0,0,1,295,-230)" fill="red" text-rendering="geometricPrecision" shape-rendering="geometricPrecision" stroke="red" stroke-miterlimit="1.45">
      <path fill="none" d="M154 306.3504 L254 306.3504 L254 346.3504 L154 346.3504 Z" clip-path="url(#clipPath2)"/>
      <text x="165.9873" y="323.7137" clip-path="url(#clipPath2)" fill="black" font-family="sans-serif" stroke="none" xml:space="preserve">Pré-traitement</text>
      <text x="169.6377" y="338.4149" clip-path="url(#clipPath2)" fill="black" font-family="sans-serif" stroke="none" xml:space="preserve">des données</text>
    </g>
    <g text-rendering="geometricPrecision" stroke-miterlimit="1.45" shape-rendering="geometricPrecision" transform="matrix(1,0,0,1,295,-230)" stroke-linecap="butt">
      <path fill="none" d="M-130.021 326.3504 L16.0408 326.3504" clip-path="url(#clipPath2)"/>
      <path d="M24.0408 326.3504 L12.0408 321.3504 L15.0408 326.3504 L12.0408 331.3504 Z" clip-path="url(#clipPath2)" stroke="none"/>
      <path fill="none" d="M385.9878 326.3504 L408.0314 326.3504" clip-path="url(#clipPath2)"/>
      <path d="M416.0314 326.3504 L404.0314 321.3504 L407.0314 326.3504 L404.0314 331.3504 Z" clip-path="url(#clipPath2)" stroke="none"/>
      <path fill="none" d="M515.9717 326.3504 L540 326.3504 L540 390 L-210 390 L-210 354.3341" clip-path="url(#clipPath2)"/>
      <path d="M-210 346.3341 L-215 358.3341 L-210 355.3341 L-205 358.3341 Z" clip-path="url(#clipPath2)" stroke="none"/>
      <path fill="none" d="M123.9878 326.3504 L146.0314 326.3504" clip-path="url(#clipPath2)"/>
      <path d="M154.0314 326.3504 L142.0314 321.3504 L145.0314 326.3504 L142.0314 331.3504 Z" clip-path="url(#clipPath2)" stroke="none"/>
      <path fill="none" d="M253.9834 326.3504 L277.9811 326.3504" clip-path="url(#clipPath2)"/>
      <path d="M285.9811 326.3504 L273.9811 321.3504 L276.9811 326.3504 L273.9811 331.3504 Z" clip-path="url(#clipPath2)" stroke="none"/>
    </g>
  </g>
</svg>
