<?xml version="1.0" encoding="UTF-8"?><svg xmlns="http://www.w3.org/2000/svg" xmlns:xlink="http://www.w3.org/1999/xlink" fill-opacity="1" color-rendering="auto" color-interpolation="auto" text-rendering="auto" stroke="black" stroke-linecap="square" width="820" stroke-miterlimit="10" shape-rendering="auto" stroke-opacity="1" fill="black" stroke-dasharray="none" font-weight="normal" stroke-width="1" height="160" font-family="'Dialog'" font-style="normal" stroke-linejoin="miter" font-size="12px" stroke-dashoffset="0" image-rendering="auto">
  <!--Generated by ySVG 2.5-->
  <defs id="genericDefs"/>
  <g>
    <defs id="defs1">
      <linearGradient x1="597.6" gradientUnits="userSpaceOnUse" x2="841" y1="207.6944" y2="270.9932" id="linearGradient1" spreadMethod="reflect">
        <stop stop-opacity="1" stop-color="white" offset="0%"/>
        <stop stop-opacity="1" stop-color="white" offset="100%"/>
      </linearGradient>
      <linearGradient x1="527" gradientUnits="userSpaceOnUse" x2="627" y1="225" y2="255" id="linearGradient2" spreadMethod="reflect">
        <stop stop-opacity="1" stop-color="rgb(232,238,247)" offset="0%"/>
        <stop stop-opacity="1" stop-color="rgb(204,204,204)" offset="100%"/>
      </linearGradient>
      <linearGradient x1="813" gradientUnits="userSpaceOnUse" x2="1023" y1="220" y2="260" id="linearGradient3" spreadMethod="reflect">
        <stop stop-opacity="1" stop-color="rgb(234,234,234)" offset="0%"/>
        <stop stop-opacity="1" stop-color="rgb(204,204,204)" offset="100%"/>
      </linearGradient>
      <clipPath clipPathUnits="userSpaceOnUse" id="clipPath1">
        <path d="M0 0 L820 0 L820 160 L0 160 L0 0 Z"/>
      </clipPath>
      <clipPath clipPathUnits="userSpaceOnUse" id="clipPath2">
        <path d="M208 175 L1028 175 L1028 335 L208 335 L208 175 Z"/>
      </clipPath>
      <clipPath clipPathUnits="userSpaceOnUse" id="clipPath3">
        <path d="M208 207.6944 L208 335 L1028 335 L1028 207.6944 Z"/>
      </clipPath>
      <clipPath clipPathUnits="userSpaceOnUse" id="clipPath4">
        <path d="M208 175 L208 207.6944 L1028 207.6944 L1028 175 Z"/>
      </clipPath>
    </defs>
    <g text-rendering="geometricPrecision" stroke-miterlimit="1.45" shape-rendering="geometricPrecision" transform="matrix(1,0,0,1,-208,-175)" stroke-linecap="butt">
      <path fill="none" d="M599 290 L841 290 L841 330 L599 330 Z" clip-path="url(#clipPath2)"/>
      <text x="636.4717" xml:space="preserve" y="314.7139" clip-path="url(#clipPath2)" font-family="sans-serif" stroke="none">Calcul de l'orientation moyenne</text>
    </g>
    <g fill="url(#linearGradient1)" text-rendering="geometricPrecision" shape-rendering="geometricPrecision" transform="matrix(1,0,0,1,-208,-175)" stroke="url(#linearGradient1)">
      <rect x="597.6" y="180.9932" clip-path="url(#clipPath3)" width="243.4" rx="4" ry="4" height="90" stroke="none"/>
      <rect x="597.6" y="180.9932" clip-path="url(#clipPath4)" fill="rgb(204,204,204)" width="243.4" rx="4" ry="4" height="90" stroke="none"/>
    </g>
    <g text-rendering="geometricPrecision" stroke-miterlimit="1.45" shape-rendering="geometricPrecision" transform="matrix(1,0,0,1,-208,-175)" stroke-linecap="butt">
      <rect x="597.6" y="180.9932" clip-path="url(#clipPath2)" fill="none" width="243.4" rx="4" ry="4" height="90"/>
      <line y2="207.6944" fill="none" x1="597.6" clip-path="url(#clipPath2)" x2="841" y1="207.6944"/>
      <text x="693.9553" xml:space="preserve" y="199.0577" clip-path="url(#clipPath2)" font-family="sans-serif" stroke="none">Agent (A)</text>
    </g>
    <g stroke-linecap="butt" transform="matrix(1,0,0,1,-208,-175)" text-rendering="geometricPrecision" font-family="sans-serif" shape-rendering="geometricPrecision" font-weight="bold" stroke-miterlimit="1.45">
      <text x="246.6641" xml:space="preserve" y="244.7139" clip-path="url(#clipPath2)" stroke="none">Environment (E)</text>
    </g>
    <g text-rendering="geometricPrecision" stroke-miterlimit="1.45" shape-rendering="geometricPrecision" transform="matrix(1,0,0,1,-208,-175)" stroke-linecap="butt">
      <rect x="213" y="220" clip-path="url(#clipPath2)" fill="none" width="160" rx="4" ry="4" height="40"/>
    </g>
    <g fill="url(#linearGradient2)" text-rendering="geometricPrecision" shape-rendering="geometricPrecision" transform="matrix(1,0,0,1,-208,-175)" stroke="url(#linearGradient2)">
      <path d="M527 225 L627 225 L627 255 L527 255 Z" stroke="none" clip-path="url(#clipPath2)"/>
    </g>
    <g text-rendering="geometricPrecision" stroke-miterlimit="1.45" shape-rendering="geometricPrecision" transform="matrix(1,0,0,1,-208,-175)" stroke-linecap="butt">
      <path fill="none" d="M527 225 L627 225 L627 255 L527 255 Z" clip-path="url(#clipPath2)"/>
      <text x="545.3154" xml:space="preserve" y="244.7139" clip-path="url(#clipPath2)" font-family="sans-serif" stroke="none">Perceptions</text>
    </g>
    <g fill="white" text-rendering="geometricPrecision" shape-rendering="geometricPrecision" transform="matrix(1,0,0,1,-208,-175)" stroke="white">
      <path d="M670 220 L770 220 L770 260 L670 260 Z" stroke="none" clip-path="url(#clipPath2)"/>
    </g>
    <g text-rendering="geometricPrecision" stroke-miterlimit="1.45" shape-rendering="geometricPrecision" transform="matrix(1,0,0,1,-208,-175)" stroke-linecap="butt">
      <path fill="none" d="M670 220 L770 220 L770 260 L670 260 Z" clip-path="url(#clipPath2)"/>
      <text x="681.9873" xml:space="preserve" y="237.3633" clip-path="url(#clipPath2)" font-family="sans-serif" stroke="none">Pré-traitement</text>
      <text x="685.6377" xml:space="preserve" y="252.0645" clip-path="url(#clipPath2)" font-family="sans-serif" stroke="none">des données</text>
    </g>
    <g fill="url(#linearGradient3)" text-rendering="geometricPrecision" shape-rendering="geometricPrecision" transform="matrix(1,0,0,1,-208,-175)" stroke="url(#linearGradient3)">
      <path d="M813 220 L1023 220 L1023 260 L813 260 Z" stroke="none" clip-path="url(#clipPath2)"/>
    </g>
    <g text-rendering="geometricPrecision" stroke-miterlimit="1.45" shape-rendering="geometricPrecision" transform="matrix(1,0,0,1,-208,-175)" stroke-linecap="butt">
      <path fill="none" d="M813 220 L1023 220 L1023 260 L813 260 Z" clip-path="url(#clipPath2)"/>
      <text x="835.4707" xml:space="preserve" y="237.3633" clip-path="url(#clipPath2)" font-family="sans-serif" stroke="none">Modification de l'orientation en </text>
      <text x="842.6191" xml:space="preserve" y="252.0645" clip-path="url(#clipPath2)" font-family="sans-serif" stroke="none">fonction de la valeur trouvée</text>
    </g>
    <g text-rendering="geometricPrecision" stroke-miterlimit="1.45" shape-rendering="geometricPrecision" transform="matrix(1,0,0,1,-208,-175)" stroke-linecap="butt">
      <path fill="none" d="M372.979 240 L519.0408 240" clip-path="url(#clipPath2)"/>
      <path d="M527.0408 240 L515.0408 235 L518.0408 240 L515.0408 245 Z" clip-path="url(#clipPath2)" stroke="none"/>
      <text x="402.6416" xml:space="preserve" y="260.0127" clip-path="url(#clipPath2)" font-family="sans-serif" stroke="none">récupèrent la liste</text>
      <text x="393.9727" xml:space="preserve" y="274.7139" clip-path="url(#clipPath2)" font-family="sans-serif" stroke="none">des voisins présents </text>
      <text x="380.2939" xml:space="preserve" y="289.415" clip-path="url(#clipPath2)" font-family="sans-serif" stroke="none">dans leur champ de vision</text>
      <path fill="none" d="M627.0291 240 L662.019 240" clip-path="url(#clipPath2)"/>
      <path d="M670.019 240 L658.019 235 L661.019 240 L658.019 245 Z" clip-path="url(#clipPath2)" stroke="none"/>
      <path fill="none" d="M720 259.9951 L720 290.0273" clip-path="url(#clipPath2)"/>
      <path fill="none" d="M770.0317 240 L804.9844 240" clip-path="url(#clipPath2)"/>
      <path d="M812.9844 240 L800.9844 235 L803.9844 240 L800.9844 245 Z" clip-path="url(#clipPath2)" stroke="none"/>
    </g>
  </g>
</svg>
