<?xml version="1.0" encoding="UTF-8"?><svg xmlns="http://www.w3.org/2000/svg" xmlns:xlink="http://www.w3.org/1999/xlink" fill-opacity="1" color-rendering="auto" color-interpolation="auto" text-rendering="auto" stroke="black" stroke-linecap="square" width="1000" stroke-miterlimit="10" shape-rendering="auto" stroke-opacity="1" fill="black" stroke-dasharray="none" font-weight="normal" stroke-width="1" height="1190" font-family="'Dialog'" font-style="normal" stroke-linejoin="miter" font-size="12px" stroke-dashoffset="0" image-rendering="auto">
  <!--Generated by ySVG 2.5-->
  <defs id="genericDefs"/>
  <g>
    <defs id="defs1">
      <linearGradient x1="707.5" gradientUnits="userSpaceOnUse" x2="882.5" y1="100" y2="140" id="linearGradient1" spreadMethod="reflect">
        <stop stop-opacity="1" stop-color="rgb(234,234,234)" offset="0%"/>
        <stop stop-opacity="1" stop-color="rgb(204,204,204)" offset="100%"/>
      </linearGradient>
      <linearGradient x1="695" gradientUnits="userSpaceOnUse" x2="895" y1="213.7093" y2="253.7093" id="linearGradient2" spreadMethod="reflect">
        <stop stop-opacity="1" stop-color="white" offset="0%"/>
        <stop stop-opacity="1" stop-color="rgb(234,234,234)" offset="100%"/>
      </linearGradient>
      <linearGradient x1="655" gradientUnits="userSpaceOnUse" x2="935" y1="327.4186" y2="367.4186" id="linearGradient3" spreadMethod="reflect">
        <stop stop-opacity="1" stop-color="white" offset="0%"/>
        <stop stop-opacity="1" stop-color="rgb(234,234,234)" offset="100%"/>
      </linearGradient>
      <linearGradient x1="558.7491" gradientUnits="userSpaceOnUse" x2="608.7491" y1="477.8769" y2="517.8769" id="linearGradient4" spreadMethod="reflect">
        <stop stop-opacity="1" stop-color="white" offset="0%"/>
        <stop stop-opacity="1" stop-color="rgb(234,234,234)" offset="100%"/>
      </linearGradient>
      <linearGradient x1="655" gradientUnits="userSpaceOnUse" x2="755" y1="397.4186" y2="437.4186" id="linearGradient5" spreadMethod="reflect">
        <stop stop-opacity="1" stop-color="white" offset="0%"/>
        <stop stop-opacity="1" stop-color="rgb(234,234,234)" offset="100%"/>
      </linearGradient>
      <linearGradient x1="655" gradientUnits="userSpaceOnUse" x2="755" y1="477.8769" y2="517.8769" id="linearGradient6" spreadMethod="reflect">
        <stop stop-opacity="1" stop-color="white" offset="0%"/>
        <stop stop-opacity="1" stop-color="rgb(234,234,234)" offset="100%"/>
      </linearGradient>
      <linearGradient x1="558.7491" gradientUnits="userSpaceOnUse" x2="608.7491" y1="397.4186" y2="437.4186" id="linearGradient7" spreadMethod="reflect">
        <stop stop-opacity="1" stop-color="white" offset="0%"/>
        <stop stop-opacity="1" stop-color="rgb(234,234,234)" offset="100%"/>
      </linearGradient>
      <linearGradient x1="795" gradientUnits="userSpaceOnUse" x2="935" y1="432.6477" y2="482.6477" id="linearGradient8" spreadMethod="reflect">
        <stop stop-opacity="1" stop-color="white" offset="0%"/>
        <stop stop-opacity="1" stop-color="rgb(234,234,234)" offset="100%"/>
      </linearGradient>
      <linearGradient x1="995" gradientUnits="userSpaceOnUse" x2="1045" y1="437.6477" y2="477.6477" id="linearGradient9" spreadMethod="reflect">
        <stop stop-opacity="1" stop-color="white" offset="0%"/>
        <stop stop-opacity="1" stop-color="rgb(234,234,234)" offset="100%"/>
      </linearGradient>
      <linearGradient x1="905" gradientUnits="userSpaceOnUse" x2="1075" y1="610" y2="650" id="linearGradient10" spreadMethod="reflect">
        <stop stop-opacity="1" stop-color="white" offset="0%"/>
        <stop stop-opacity="1" stop-color="rgb(234,234,234)" offset="100%"/>
      </linearGradient>
      <linearGradient x1="770" gradientUnits="userSpaceOnUse" x2="820" y1="610" y2="650" id="linearGradient11" spreadMethod="reflect">
        <stop stop-opacity="1" stop-color="white" offset="0%"/>
        <stop stop-opacity="1" stop-color="rgb(234,234,234)" offset="100%"/>
      </linearGradient>
      <linearGradient x1="770" gradientUnits="userSpaceOnUse" x2="820" y1="800" y2="840" id="linearGradient12" spreadMethod="reflect">
        <stop stop-opacity="1" stop-color="white" offset="0%"/>
        <stop stop-opacity="1" stop-color="rgb(234,234,234)" offset="100%"/>
      </linearGradient>
      <linearGradient x1="770" gradientUnits="userSpaceOnUse" x2="820" y1="870" y2="910" id="linearGradient13" spreadMethod="reflect">
        <stop stop-opacity="1" stop-color="white" offset="0%"/>
        <stop stop-opacity="1" stop-color="rgb(234,234,234)" offset="100%"/>
      </linearGradient>
      <linearGradient x1="770" gradientUnits="userSpaceOnUse" x2="820" y1="730" y2="770" id="linearGradient14" spreadMethod="reflect">
        <stop stop-opacity="1" stop-color="white" offset="0%"/>
        <stop stop-opacity="1" stop-color="rgb(234,234,234)" offset="100%"/>
      </linearGradient>
      <linearGradient x1="710" gradientUnits="userSpaceOnUse" x2="880" y1="980" y2="1020" id="linearGradient15" spreadMethod="reflect">
        <stop stop-opacity="1" stop-color="white" offset="0%"/>
        <stop stop-opacity="1" stop-color="rgb(234,234,234)" offset="100%"/>
      </linearGradient>
      <linearGradient x1="710.8" gradientUnits="userSpaceOnUse" x2="880.8" y1="1050" y2="1090" id="linearGradient16" spreadMethod="reflect">
        <stop stop-opacity="1" stop-color="white" offset="0%"/>
        <stop stop-opacity="1" stop-color="rgb(234,234,234)" offset="100%"/>
      </linearGradient>
      <linearGradient x1="710.8" gradientUnits="userSpaceOnUse" x2="880.8" y1="1120" y2="1160" id="linearGradient17" spreadMethod="reflect">
        <stop stop-opacity="1" stop-color="white" offset="0%"/>
        <stop stop-opacity="1" stop-color="rgb(234,234,234)" offset="100%"/>
      </linearGradient>
      <linearGradient x1="715.8" gradientUnits="userSpaceOnUse" x2="875.8" y1="1240" y2="1280" id="linearGradient18" spreadMethod="reflect">
        <stop stop-opacity="1" stop-color="rgb(234,234,234)" offset="0%"/>
        <stop stop-opacity="1" stop-color="rgb(204,204,204)" offset="100%"/>
      </linearGradient>
      <clipPath clipPathUnits="userSpaceOnUse" id="clipPath1">
        <path d="M0 0 L1000 0 L1000 1190 L0 1190 L0 0 Z"/>
      </clipPath>
      <clipPath clipPathUnits="userSpaceOnUse" id="clipPath2">
        <path d="M310 95 L1310 95 L1310 1285 L310 1285 L310 95 Z"/>
      </clipPath>
    </defs>
    <g stroke-linecap="butt" transform="matrix(1,0,0,1,-310,-95)" text-rendering="geometricPrecision" font-family="sans-serif" shape-rendering="geometricPrecision" font-weight="bold" stroke-miterlimit="1.45">
      <text x="347" xml:space="preserve" y="209.0645" clip-path="url(#clipPath2)" stroke="none">Etape 1 : décomposition</text>
    </g>
    <g stroke-linecap="butt" transform="matrix(1,0,0,1,-310,-95)" text-rendering="geometricPrecision" font-family="sans-serif" shape-rendering="geometricPrecision" font-weight="bold" stroke-miterlimit="1.45">
      <text x="347" xml:space="preserve" y="319.6284" clip-path="url(#clipPath2)" stroke="none">Etape 2 : identification des calculs compatibles</text>
      <text x="347" xml:space="preserve" y="599.0645" clip-path="url(#clipPath2)" stroke="none">Etape 3 : réutilisation</text>
      <text x="347" xml:space="preserve" y="719.0645" clip-path="url(#clipPath2)" stroke="none">Etape 4 : compatibilité avec l'architecture GPU</text>
    </g>
    <g fill="url(#linearGradient1)" text-rendering="geometricPrecision" shape-rendering="geometricPrecision" transform="matrix(1,0,0,1,-310,-95)" stroke="url(#linearGradient1)">
      <path d="M707.5 100 L882.5 100 L882.5 140 L707.5 140 Z" stroke="none" clip-path="url(#clipPath2)"/>
    </g>
    <g text-rendering="geometricPrecision" stroke-miterlimit="1.45" shape-rendering="geometricPrecision" transform="matrix(1,0,0,1,-310,-95)" stroke-linecap="butt">
      <path fill="none" d="M707.5 100 L882.5 100 L882.5 140 L707.5 140 Z" clip-path="url(#clipPath2)"/>
      <rect fill="none" x="710.5" width="169" height="34" y="103" clip-path="url(#clipPath2)"/>
      <text x="739.2949" xml:space="preserve" y="124.7139" clip-path="url(#clipPath2)" font-family="sans-serif" stroke="none">Début de la méthode</text>
    </g>
    <g fill="url(#linearGradient2)" text-rendering="geometricPrecision" shape-rendering="geometricPrecision" transform="matrix(1,0,0,1,-310,-95)" stroke="url(#linearGradient2)">
      <path d="M695 213.7093 L895 213.7093 L895 253.7093 L695 253.7093 Z" stroke="none" clip-path="url(#clipPath2)"/>
    </g>
    <g text-rendering="geometricPrecision" stroke-miterlimit="1.45" shape-rendering="geometricPrecision" transform="matrix(1,0,0,1,-310,-95)" stroke-linecap="butt">
      <path fill="none" d="M695 213.7093 L895 213.7093 L895 253.7093 L695 253.7093 Z" clip-path="url(#clipPath2)"/>
      <text x="718.6348" xml:space="preserve" y="231.0726" clip-path="url(#clipPath2)" font-family="sans-serif" stroke="none">Décomposer tous les calculs</text>
      <text x="729.627" xml:space="preserve" y="245.7737" clip-path="url(#clipPath2)" font-family="sans-serif" stroke="none">présents dans le modèle</text>
    </g>
    <g stroke-linecap="butt" transform="matrix(1,0,0,1,-310,-95)" text-rendering="geometricPrecision" font-family="sans-serif" shape-rendering="geometricPrecision" font-weight="bold" stroke-miterlimit="1.45">
      <text x="347" xml:space="preserve" y="976.0645" clip-path="url(#clipPath2)" stroke="none">Etape 5 : implémentation</text>
    </g>
    <g fill="url(#linearGradient3)" text-rendering="geometricPrecision" shape-rendering="geometricPrecision" transform="matrix(1,0,0,1,-310,-95)" stroke="url(#linearGradient3)">
      <path d="M655 327.4186 L935 327.4186 L935 367.4186 L655 367.4186 Z" stroke="none" clip-path="url(#clipPath2)"/>
    </g>
    <g text-rendering="geometricPrecision" stroke-miterlimit="1.45" shape-rendering="geometricPrecision" transform="matrix(1,0,0,1,-310,-95)" stroke-linecap="butt">
      <path fill="none" d="M655 327.4186 L935 327.4186 L935 367.4186 L655 367.4186 Z" clip-path="url(#clipPath2)"/>
      <text x="694.6201" xml:space="preserve" y="344.7819" clip-path="url(#clipPath2)" font-family="sans-serif" stroke="none">Identifier les calculs compatibles avec</text>
      <text x="682.6055" xml:space="preserve" y="359.483" clip-path="url(#clipPath2)" font-family="sans-serif" stroke="none">les critères du principe de délégation GPU</text>
    </g>
    <g fill="url(#linearGradient4)" text-rendering="geometricPrecision" shape-rendering="geometricPrecision" transform="matrix(1,0,0,1,-310,-95)" stroke="url(#linearGradient4)">
      <path d="M583.7491 477.8769 L608.7491 497.8769 L583.7491 517.8769 L558.7491 497.8769 Z" stroke="none" clip-path="url(#clipPath2)"/>
    </g>
    <g text-rendering="geometricPrecision" stroke-miterlimit="1.45" shape-rendering="geometricPrecision" transform="matrix(1,0,0,1,-310,-95)" stroke-linecap="butt">
      <path fill="none" d="M583.7491 477.8769 L608.7491 497.8769 L583.7491 517.8769 L558.7491 497.8769 Z" clip-path="url(#clipPath2)"/>
      <text x="411.3331" xml:space="preserve" y="487.8896" clip-path="url(#clipPath2)" font-family="sans-serif" stroke="none">Les calculs de perceptions</text>
      <text x="416.671" xml:space="preserve" y="502.5908" clip-path="url(#clipPath2)" font-family="sans-serif" stroke="none">ne modifient pas les états</text>
      <text x="484.0303" xml:space="preserve" y="517.2919" clip-path="url(#clipPath2)" font-family="sans-serif" stroke="none">des agents ?</text>
    </g>
    <g fill="url(#linearGradient5)" text-rendering="geometricPrecision" shape-rendering="geometricPrecision" transform="matrix(1,0,0,1,-310,-95)" stroke="url(#linearGradient5)">
      <path d="M655 397.4186 L755 397.4186 L755 437.4186 L655 437.4186 Z" stroke="none" clip-path="url(#clipPath2)"/>
    </g>
    <g text-rendering="geometricPrecision" stroke-miterlimit="1.45" shape-rendering="geometricPrecision" transform="matrix(1,0,0,1,-310,-95)" stroke-linecap="butt">
      <path fill="none" d="M655 397.4186 L755 397.4186 L755 437.4186 L655 437.4186 Z" clip-path="url(#clipPath2)"/>
      <text x="665.9766" xml:space="preserve" y="414.7819" clip-path="url(#clipPath2)" font-family="sans-serif" stroke="none">Ajout du calcul</text>
      <text x="682.9893" xml:space="preserve" y="429.483" clip-path="url(#clipPath2)" font-family="sans-serif" stroke="none">à la liste</text>
    </g>
    <g fill="url(#linearGradient6)" text-rendering="geometricPrecision" shape-rendering="geometricPrecision" transform="matrix(1,0,0,1,-310,-95)" stroke="url(#linearGradient6)">
      <path d="M655 477.8769 L755 477.8769 L755 517.8769 L655 517.8769 Z" stroke="none" clip-path="url(#clipPath2)"/>
    </g>
    <g text-rendering="geometricPrecision" stroke-miterlimit="1.45" shape-rendering="geometricPrecision" transform="matrix(1,0,0,1,-310,-95)" stroke-linecap="butt">
      <path fill="none" d="M655 477.8769 L755 477.8769 L755 517.8769 L655 517.8769 Z" clip-path="url(#clipPath2)"/>
      <text x="665.9766" xml:space="preserve" y="495.2402" clip-path="url(#clipPath2)" font-family="sans-serif" stroke="none">Ajout du calcul</text>
      <text x="682.9893" xml:space="preserve" y="509.9413" clip-path="url(#clipPath2)" font-family="sans-serif" stroke="none">à la liste</text>
    </g>
    <g fill="url(#linearGradient7)" text-rendering="geometricPrecision" shape-rendering="geometricPrecision" transform="matrix(1,0,0,1,-310,-95)" stroke="url(#linearGradient7)">
      <path d="M583.7491 397.4186 L608.7491 417.4186 L583.7491 437.4186 L558.7491 417.4186 Z" stroke="none" clip-path="url(#clipPath2)"/>
    </g>
    <g text-rendering="geometricPrecision" stroke-miterlimit="1.45" shape-rendering="geometricPrecision" transform="matrix(1,0,0,1,-310,-95)" stroke-linecap="butt">
      <path fill="none" d="M583.7491 397.4186 L608.7491 417.4186 L583.7491 437.4186 L558.7491 417.4186 Z" clip-path="url(#clipPath2)"/>
      <text x="396.3565" xml:space="preserve" y="407.4313" clip-path="url(#clipPath2)" font-family="sans-serif" stroke="none">L'environnement contient des</text>
      <text x="408.6671" xml:space="preserve" y="422.1324" clip-path="url(#clipPath2)" font-family="sans-serif" stroke="none">calculs ou des dynamiques</text>
      <text x="441.3448" xml:space="preserve" y="436.8336" clip-path="url(#clipPath2)" font-family="sans-serif" stroke="none">environnementales ?</text>
    </g>
    <g fill="url(#linearGradient8)" text-rendering="geometricPrecision" shape-rendering="geometricPrecision" transform="matrix(1,0,0,1,-310,-95)" stroke="url(#linearGradient8)">
      <rect x="795" width="140" height="50" y="432.6477" clip-path="url(#clipPath2)" stroke="none"/>
    </g>
    <g text-rendering="geometricPrecision" stroke-miterlimit="1.45" shape-rendering="geometricPrecision" transform="matrix(1,0,0,1,-310,-95)" stroke-linecap="butt">
      <rect fill="none" x="795" width="140" height="50" y="432.6477" clip-path="url(#clipPath2)"/>
      <path fill="none" d="M805 432.6477 L805 482.6477 M795 442.6477 L935 442.6477 M805 432.6477 Z" clip-path="url(#clipPath2)"/>
      <text x="851.2959" xml:space="preserve" y="459.3098" clip-path="url(#clipPath2)" font-family="sans-serif" stroke="none">Liste des </text>
      <text x="824.9551" xml:space="preserve" y="474.011" clip-path="url(#clipPath2)" font-family="sans-serif" stroke="none">calculs compatibles</text>
    </g>
    <g fill="url(#linearGradient9)" text-rendering="geometricPrecision" shape-rendering="geometricPrecision" transform="matrix(1,0,0,1,-310,-95)" stroke="url(#linearGradient9)">
      <path d="M1020 437.6477 L1045 457.6477 L1020 477.6477 L995 457.6477 Z" stroke="none" clip-path="url(#clipPath2)"/>
    </g>
    <g text-rendering="geometricPrecision" stroke-miterlimit="1.45" shape-rendering="geometricPrecision" transform="matrix(1,0,0,1,-310,-95)" stroke-linecap="butt">
      <path fill="none" d="M1020 437.6477 L1045 457.6477 L1020 477.6477 L995 457.6477 Z" clip-path="url(#clipPath2)"/>
      <text x="962.3027" xml:space="preserve" y="429.011" clip-path="url(#clipPath2)" font-family="sans-serif" stroke="none">La liste est-elle vide ?</text>
    </g>
    <g fill="url(#linearGradient10)" text-rendering="geometricPrecision" shape-rendering="geometricPrecision" transform="matrix(1,0,0,1,-310,-95)" stroke="url(#linearGradient10)">
      <path d="M905 610 L1075 610 L1075 650 L905 650 Z" stroke="none" clip-path="url(#clipPath2)"/>
    </g>
    <g text-rendering="geometricPrecision" stroke-miterlimit="1.45" shape-rendering="geometricPrecision" transform="matrix(1,0,0,1,-310,-95)" stroke-linecap="butt">
      <path fill="none" d="M905 610 L1075 610 L1075 650 L905 650 Z" clip-path="url(#clipPath2)"/>
      <text x="927.6299" xml:space="preserve" y="634.7139" clip-path="url(#clipPath2)" font-family="sans-serif" stroke="none">Réutilisation du module</text>
    </g>
    <g fill="url(#linearGradient11)" text-rendering="geometricPrecision" shape-rendering="geometricPrecision" transform="matrix(1,0,0,1,-310,-95)" stroke="url(#linearGradient11)">
      <path d="M795 610 L820 630 L795 650 L770 630 Z" stroke="none" clip-path="url(#clipPath2)"/>
    </g>
    <g text-rendering="geometricPrecision" stroke-miterlimit="1.45" shape-rendering="geometricPrecision" transform="matrix(1,0,0,1,-310,-95)" stroke-linecap="butt">
      <path fill="none" d="M795 610 L820 630 L795 650 L770 630 Z" clip-path="url(#clipPath2)"/>
      <text x="623.2461" xml:space="preserve" y="627.3633" clip-path="url(#clipPath2)" font-family="sans-serif" stroke="none">Module déjà existant pour </text>
      <text x="655.2734" xml:space="preserve" y="642.0645" clip-path="url(#clipPath2)" font-family="sans-serif" stroke="none">le calcul considéré ?</text>
    </g>
    <g fill="url(#linearGradient12)" text-rendering="geometricPrecision" shape-rendering="geometricPrecision" transform="matrix(1,0,0,1,-310,-95)" stroke="url(#linearGradient12)">
      <path d="M795 800 L820 820 L795 840 L770 820 Z" stroke="none" clip-path="url(#clipPath2)"/>
    </g>
    <g text-rendering="geometricPrecision" stroke-miterlimit="1.45" shape-rendering="geometricPrecision" transform="matrix(1,0,0,1,-310,-95)" stroke-linecap="butt">
      <path fill="none" d="M795 800 L820 820 L795 840 L770 820 Z" clip-path="url(#clipPath2)"/>
      <text x="826" xml:space="preserve" y="817.3633" clip-path="url(#clipPath2)" font-family="sans-serif" stroke="none">Les calculs sont-ils effectués par un grand</text>
      <text x="826" xml:space="preserve" y="832.0645" clip-path="url(#clipPath2)" font-family="sans-serif" stroke="none">nombre d'agents ou sur beaucoup de cellules ?</text>
    </g>
    <g fill="url(#linearGradient13)" text-rendering="geometricPrecision" shape-rendering="geometricPrecision" transform="matrix(1,0,0,1,-310,-95)" stroke="url(#linearGradient13)">
      <path d="M795 870 L820 890 L795 910 L770 890 Z" stroke="none" clip-path="url(#clipPath2)"/>
    </g>
    <g text-rendering="geometricPrecision" stroke-miterlimit="1.45" shape-rendering="geometricPrecision" transform="matrix(1,0,0,1,-310,-95)" stroke-linecap="butt">
      <path fill="none" d="M795 870 L820 890 L795 910 L770 890 Z" clip-path="url(#clipPath2)"/>
      <text x="826" xml:space="preserve" y="887.3633" clip-path="url(#clipPath2)" font-family="sans-serif" stroke="none">Les structures de données sont-elles indépendantes et</text>
      <text x="826" xml:space="preserve" y="902.0645" clip-path="url(#clipPath2)" font-family="sans-serif" stroke="none">peuvent être adaptées à l'architecture des GPU ?</text>
    </g>
    <g fill="url(#linearGradient14)" text-rendering="geometricPrecision" shape-rendering="geometricPrecision" transform="matrix(1,0,0,1,-310,-95)" stroke="url(#linearGradient14)">
      <path d="M795 730 L820 750 L795 770 L770 750 Z" stroke="none" clip-path="url(#clipPath2)"/>
    </g>
    <g text-rendering="geometricPrecision" stroke-miterlimit="1.45" shape-rendering="geometricPrecision" transform="matrix(1,0,0,1,-310,-95)" stroke-linecap="butt">
      <path fill="none" d="M795 730 L820 750 L795 770 L770 750 Z" clip-path="url(#clipPath2)"/>
      <text x="826" xml:space="preserve" y="747.3633" clip-path="url(#clipPath2)" font-family="sans-serif" stroke="none">Les calculs peuvent-ils être distribués sur </text>
      <text x="826" xml:space="preserve" y="762.0645" clip-path="url(#clipPath2)" font-family="sans-serif" stroke="none">la grille de threads du GPU ?</text>
    </g>
    <g fill="url(#linearGradient15)" text-rendering="geometricPrecision" shape-rendering="geometricPrecision" transform="matrix(1,0,0,1,-310,-95)" stroke="url(#linearGradient15)">
      <path d="M710 980 L880 980 L880 1020 L710 1020 Z" stroke="none" clip-path="url(#clipPath2)"/>
    </g>
    <g text-rendering="geometricPrecision" stroke-miterlimit="1.45" shape-rendering="geometricPrecision" transform="matrix(1,0,0,1,-310,-95)" stroke-linecap="butt">
      <path fill="none" d="M710 980 L880 980 L880 1020 L710 1020 Z" clip-path="url(#clipPath2)"/>
      <text x="739.9717" xml:space="preserve" y="1004.7139" clip-path="url(#clipPath2)" font-family="sans-serif" stroke="none">Création des kernels</text>
    </g>
    <g fill="url(#linearGradient16)" text-rendering="geometricPrecision" shape-rendering="geometricPrecision" transform="matrix(1,0,0,1,-310,-95)" stroke="url(#linearGradient16)">
      <path d="M710.8 1050 L880.8 1050 L880.8 1090 L710.8 1090 Z" stroke="none" clip-path="url(#clipPath2)"/>
    </g>
    <g text-rendering="geometricPrecision" stroke-miterlimit="1.45" shape-rendering="geometricPrecision" transform="matrix(1,0,0,1,-310,-95)" stroke-linecap="butt">
      <path fill="none" d="M710.8 1050 L880.8 1050 L880.8 1090 L710.8 1090 Z" clip-path="url(#clipPath2)"/>
      <text x="754.1017" xml:space="preserve" y="1067.3633" clip-path="url(#clipPath2)" font-family="sans-serif" stroke="none">Adaptation des </text>
      <text x="736.4299" xml:space="preserve" y="1082.0645" clip-path="url(#clipPath2)" font-family="sans-serif" stroke="none">structures de données</text>
    </g>
    <g fill="url(#linearGradient17)" text-rendering="geometricPrecision" shape-rendering="geometricPrecision" transform="matrix(1,0,0,1,-310,-95)" stroke="url(#linearGradient17)">
      <path d="M710.8 1120 L880.8 1120 L880.8 1160 L710.8 1160 Z" stroke="none" clip-path="url(#clipPath2)"/>
    </g>
    <g text-rendering="geometricPrecision" stroke-miterlimit="1.45" shape-rendering="geometricPrecision" transform="matrix(1,0,0,1,-310,-95)" stroke-linecap="butt">
      <path fill="none" d="M710.8 1120 L880.8 1120 L880.8 1160 L710.8 1160 Z" clip-path="url(#clipPath2)"/>
      <text x="739.2892" xml:space="preserve" y="1137.3633" clip-path="url(#clipPath2)" font-family="sans-serif" stroke="none">Lier l'API des agents </text>
      <text x="734.7746" xml:space="preserve" y="1152.0645" clip-path="url(#clipPath2)" font-family="sans-serif" stroke="none">avec les modules GPU</text>
    </g>
    <g fill="url(#linearGradient18)" text-rendering="geometricPrecision" shape-rendering="geometricPrecision" transform="matrix(1,0,0,1,-310,-95)" stroke="url(#linearGradient18)">
      <path d="M715.8 1240 L875.8 1240 L875.8 1280 L715.8 1280 Z" stroke="none" clip-path="url(#clipPath2)"/>
    </g>
    <g text-rendering="geometricPrecision" stroke-miterlimit="1.45" shape-rendering="geometricPrecision" transform="matrix(1,0,0,1,-310,-95)" stroke-linecap="butt">
      <path fill="none" d="M715.8 1240 L875.8 1240 L875.8 1280 L715.8 1280 Z" clip-path="url(#clipPath2)"/>
      <rect fill="none" x="718.8" width="154" height="34" y="1243" clip-path="url(#clipPath2)"/>
      <text x="747.7707" xml:space="preserve" y="1264.7139" clip-path="url(#clipPath2)" font-family="sans-serif" stroke="none">Fin de la méthode</text>
    </g>
    <g text-rendering="geometricPrecision" stroke-miterlimit="1.45" stroke-dasharray="6,2" shape-rendering="geometricPrecision" transform="matrix(1,0,0,1,-310,-95)" stroke-linecap="butt">
      <path fill="none" d="M345 180 L1275 180" clip-path="url(#clipPath2)"/>
      <path fill="none" d="M345 290.5639 L1275 290.5639" clip-path="url(#clipPath2)"/>
      <path fill="none" d="M345 570 L1275 570" clip-path="url(#clipPath2)"/>
      <path fill="none" d="M345 690 L1275 690" clip-path="url(#clipPath2)"/>
      <path fill="none" stroke-dasharray="none" d="M795 140.0157 L795 205.7171" clip-path="url(#clipPath2)"/>
      <path stroke-dasharray="none" d="M795 213.7171 L800 201.7171 L795 204.7171 L790 201.7171 Z" clip-path="url(#clipPath2)" stroke="none"/>
      <path fill="none" d="M345 947 L1275 947" clip-path="url(#clipPath2)"/>
      <path fill="none" stroke-dasharray="none" d="M795 253.725 L795 319.4264" clip-path="url(#clipPath2)"/>
      <path stroke-dasharray="none" d="M795 327.4264 L800 315.4264 L795 318.4264 L790 315.4264 Z" clip-path="url(#clipPath2)" stroke="none"/>
      <path fill="none" stroke-dasharray="none" d="M707.3584 437.4224 L707.3584 455.8114 L583.7491 455.8114 L583.7491 469.8712" clip-path="url(#clipPath2)"/>
      <path stroke-dasharray="none" d="M583.7491 477.8712 L588.7491 465.8712 L583.7491 468.8712 L578.7491 465.8712 Z" clip-path="url(#clipPath2)" stroke="none"/>
      <path fill="none" stroke-dasharray="none" d="M608.763 497.8769 L646.9549 497.8769" clip-path="url(#clipPath2)"/>
      <path stroke-dasharray="none" d="M654.9549 497.8769 L642.9549 492.8769 L645.9549 497.8769 L642.9549 502.8769 Z" clip-path="url(#clipPath2)" stroke="none"/>
      <text x="615.222" y="514.58" clip-path="url(#clipPath2)" font-family="sans-serif" stroke-dasharray="none" stroke="none" xml:space="preserve">oui</text>
      <path fill="none" stroke-dasharray="none" d="M654.9998 347.4186 L583.7491 347.4186 L583.7491 389.4235" clip-path="url(#clipPath2)"/>
      <path stroke-dasharray="none" d="M583.7491 397.4235 L588.7491 385.4235 L583.7491 388.4235 L578.7491 385.4235 Z" clip-path="url(#clipPath2)" stroke="none"/>
      <path fill="none" stroke-dasharray="none" d="M583.7491 437.4153 L583.7491 469.8903" clip-path="url(#clipPath2)"/>
      <path stroke-dasharray="none" d="M583.7491 477.8903 L588.7491 465.8903 L583.7491 468.8903 L578.7491 465.8903 Z" clip-path="url(#clipPath2)" stroke="none"/>
      <text x="558.3893" y="451.9724" clip-path="url(#clipPath2)" font-family="sans-serif" stroke-dasharray="none" stroke="none" xml:space="preserve">non</text>
      <path fill="none" stroke-dasharray="none" d="M608.763 417.4186 L646.9549 417.4186" clip-path="url(#clipPath2)"/>
      <path stroke-dasharray="none" d="M654.9549 417.4186 L642.9549 412.4186 L645.9549 417.4186 L642.9549 422.4186 Z" clip-path="url(#clipPath2)" stroke="none"/>
      <text x="615.5068" y="434.2283" clip-path="url(#clipPath2)" font-family="sans-serif" stroke-dasharray="none" stroke="none" xml:space="preserve">oui</text>
      <path fill="none" stroke-dasharray="0,4" d="M755.0098 417.4186 L780 417.4186 L780 457.6477 L794.9829 457.6477" stroke-dashoffset="2" clip-path="url(#clipPath2)" stroke-linecap="round"/>
      <path fill="none" stroke-dasharray="0,4" d="M755.0098 497.8769 L780 497.8769 L780 457.6477 L794.9829 457.6477" stroke-dashoffset="2" clip-path="url(#clipPath2)" stroke-linecap="round"/>
      <path fill="none" stroke-dasharray="none" d="M934.9695 457.6477 L986.9642 457.6477" clip-path="url(#clipPath2)"/>
      <path stroke-dasharray="none" d="M994.9642 457.6477 L982.9642 452.6477 L985.9642 457.6477 L982.9642 462.6477 Z" clip-path="url(#clipPath2)" stroke="none"/>
      <path fill="none" d="M345 1200 L1275 1200" clip-path="url(#clipPath2)"/>
      <path fill="none" stroke-dasharray="none" d="M1019.6794 477.3914 L1018.6626 540 L794.2 540 L794.7527 602.181" clip-path="url(#clipPath2)"/>
      <path stroke-dasharray="none" d="M794.8239 610.1807 L799.717 598.1367 L794.7438 601.181 L789.7174 598.2256 Z" clip-path="url(#clipPath2)" stroke="none"/>
      <text x="992.7119" y="494.7139" clip-path="url(#clipPath2)" font-family="sans-serif" stroke-dasharray="none" stroke="none" xml:space="preserve">non</text>
      <path fill="none" stroke-dasharray="none" d="M819.9939 630 L897.0385 630" clip-path="url(#clipPath2)"/>
      <path stroke-dasharray="none" d="M905.0385 630 L893.0385 625 L896.0385 630 L893.0385 635 Z" clip-path="url(#clipPath2)" stroke="none"/>
      <text x="826.3891" y="623.2696" clip-path="url(#clipPath2)" font-family="sans-serif" stroke-dasharray="none" stroke="none" xml:space="preserve">oui</text>
      <path fill="none" stroke-dasharray="none" d="M795 839.9951 L795 862.0273" clip-path="url(#clipPath2)"/>
      <path stroke-dasharray="none" d="M795 870.0273 L800 858.0273 L795 861.0273 L790 858.0273 Z" clip-path="url(#clipPath2)" stroke="none"/>
      <text x="801.7591" y="854.2996" clip-path="url(#clipPath2)" font-family="sans-serif" stroke-dasharray="none" stroke="none" xml:space="preserve">oui</text>
      <path fill="none" stroke-dasharray="none" d="M795 650.0098 L795 722.0312" clip-path="url(#clipPath2)"/>
      <path stroke-dasharray="none" d="M795 730.0312 L800 718.0312 L795 721.0312 L790 718.0312 Z" clip-path="url(#clipPath2)" stroke="none"/>
      <text x="768.7119" y="667.7139" clip-path="url(#clipPath2)" font-family="sans-serif" stroke-dasharray="none" stroke="none" xml:space="preserve">non</text>
      <path fill="none" stroke-dasharray="none" d="M795 769.9951 L795 792.0273" clip-path="url(#clipPath2)"/>
      <path stroke-dasharray="none" d="M795 800.0273 L800 788.0273 L795 791.0273 L790 788.0273 Z" clip-path="url(#clipPath2)" stroke="none"/>
      <text x="801.1191" y="783.8996" clip-path="url(#clipPath2)" font-family="sans-serif" stroke-dasharray="none" stroke="none" xml:space="preserve">oui</text>
      <path fill="none" stroke-dasharray="none" d="M795 910.0073 L795 972.0065" clip-path="url(#clipPath2)"/>
      <path stroke-dasharray="none" d="M795 980.0065 L800 968.0065 L795 971.0065 L790 968.0065 Z" clip-path="url(#clipPath2)" stroke="none"/>
      <text x="801.2711" y="925.7076" clip-path="url(#clipPath2)" font-family="sans-serif" stroke-dasharray="none" stroke="none" xml:space="preserve">oui</text>
      <path fill="none" stroke-dasharray="none" d="M795.2285 1019.9951 L795.4803 1042.0278" clip-path="url(#clipPath2)"/>
      <path stroke-dasharray="none" d="M795.5717 1050.0273 L800.4343 1037.9711 L795.4689 1041.028 L790.435 1038.0852 Z" clip-path="url(#clipPath2)" stroke="none"/>
      <path fill="none" stroke-dasharray="none" d="M1074.9792 630 L1200 630 L1200 1077.5 L888.8105 1077.5" clip-path="url(#clipPath2)"/>
      <path stroke-dasharray="none" d="M880.8105 1077.5 L892.8105 1082.5 L889.8105 1077.5 L892.8105 1072.5 Z" clip-path="url(#clipPath2)" stroke="none"/>
      <path fill="none" stroke-dasharray="none" d="M795.8 1089.9951 L795.8 1112.0273" clip-path="url(#clipPath2)"/>
      <path stroke-dasharray="none" d="M795.8 1120.0273 L800.8 1108.0273 L795.8 1111.0273 L790.8 1108.0273 Z" clip-path="url(#clipPath2)" stroke="none"/>
      <path fill="none" stroke-dasharray="none" d="M795.8 1089.9951 L795.8 1112.0273" clip-path="url(#clipPath2)"/>
      <path stroke-dasharray="none" d="M795.8 1120.0273 L800.8 1108.0273 L795.8 1111.0273 L790.8 1108.0273 Z" clip-path="url(#clipPath2)" stroke="none"/>
      <path fill="none" stroke-dasharray="none" d="M795.8 1160.0098 L795.8 1232.0312" clip-path="url(#clipPath2)"/>
      <path stroke-dasharray="none" d="M795.8 1240.0312 L800.8 1228.0312 L795.8 1231.0312 L790.8 1228.0312 Z" clip-path="url(#clipPath2)" stroke="none"/>
      <path fill="none" stroke-dasharray="none" d="M1044.9902 457.6477 L1260 457.6477 L1260 1260 L883.7827 1260" clip-path="url(#clipPath2)"/>
      <path stroke-dasharray="none" d="M875.7827 1260 L887.7827 1265 L884.7827 1260 L887.7827 1255 Z" clip-path="url(#clipPath2)" stroke="none"/>
      <text x="1051.5919" y="473.8224" clip-path="url(#clipPath2)" font-family="sans-serif" stroke-dasharray="none" stroke="none" xml:space="preserve">oui</text>
      <path fill="none" stroke-dasharray="none" d="M769.9841 750 L630 750 L630 1260 L707.774 1260" clip-path="url(#clipPath2)"/>
      <path stroke-dasharray="none" d="M715.774 1260 L703.774 1255 L706.774 1260 L703.774 1265 Z" clip-path="url(#clipPath2)" stroke="none"/>
      <text x="743.028" y="742.3024" clip-path="url(#clipPath2)" font-family="sans-serif" stroke-dasharray="none" stroke="none" xml:space="preserve">non</text>
      <path fill="none" stroke-dasharray="none" d="M769.9841 820 L630 820 L630 1260 L707.774 1260" clip-path="url(#clipPath2)"/>
      <path stroke-dasharray="none" d="M715.774 1260 L703.774 1255 L706.774 1260 L703.774 1265 Z" clip-path="url(#clipPath2)" stroke="none"/>
      <text x="744.308" y="812.7024" clip-path="url(#clipPath2)" font-family="sans-serif" stroke-dasharray="none" stroke="none" xml:space="preserve">non</text>
      <path fill="none" stroke-dasharray="none" d="M769.9841 890 L630 890 L630 1260 L707.774 1260" clip-path="url(#clipPath2)"/>
      <path stroke-dasharray="none" d="M715.774 1260 L703.774 1255 L706.774 1260 L703.774 1265 Z" clip-path="url(#clipPath2)" stroke="none"/>
      <text x="743.028" y="882.4624" clip-path="url(#clipPath2)" font-family="sans-serif" stroke-dasharray="none" stroke="none" xml:space="preserve">non</text>
    </g>
  </g>
</svg>
