<?xml version="1.0" encoding="UTF-8"?><svg xmlns="http://www.w3.org/2000/svg" xmlns:xlink="http://www.w3.org/1999/xlink" fill-opacity="1" color-rendering="auto" color-interpolation="auto" text-rendering="auto" stroke="black" stroke-linecap="square" width="851" stroke-miterlimit="10" shape-rendering="auto" stroke-opacity="1" fill="black" stroke-dasharray="none" font-weight="normal" stroke-width="1" height="251" font-family="'Dialog'" font-style="normal" stroke-linejoin="miter" font-size="12px" stroke-dashoffset="0" image-rendering="auto">
  <!--Generated by ySVG 2.5-->
  <defs id="genericDefs"/>
  <g>
    <defs id="defs1">
      <linearGradient x1="-221.2984" gradientUnits="userSpaceOnUse" x2="-141.2984" y1="30" y2="70" id="linearGradient1" spreadMethod="reflect">
        <stop stop-opacity="1" stop-color="rgb(234,234,234)" offset="0%"/>
        <stop stop-opacity="1" stop-color="rgb(204,204,204)" offset="100%"/>
      </linearGradient>
      <linearGradient x1="-141.2984" gradientUnits="userSpaceOnUse" x2="-61.2984" y1="70" y2="110" id="linearGradient2" spreadMethod="reflect">
        <stop stop-opacity="1" stop-color="rgb(234,234,234)" offset="0%"/>
        <stop stop-opacity="1" stop-color="rgb(204,204,204)" offset="100%"/>
      </linearGradient>
      <linearGradient x1="-220.5584" gradientUnits="userSpaceOnUse" x2="-120.5584" y1="130" y2="170" id="linearGradient3" spreadMethod="reflect">
        <stop stop-opacity="1" stop-color="rgb(234,234,234)" offset="0%"/>
        <stop stop-opacity="1" stop-color="rgb(204,204,204)" offset="100%"/>
      </linearGradient>
      <linearGradient x1="-30.5584" gradientUnits="userSpaceOnUse" x2="49.4416" y1="70" y2="110" id="linearGradient4" spreadMethod="reflect">
        <stop stop-opacity="1" stop-color="rgb(234,234,234)" offset="0%"/>
        <stop stop-opacity="1" stop-color="rgb(204,204,204)" offset="100%"/>
      </linearGradient>
      <linearGradient x1="-220.5584" gradientUnits="userSpaceOnUse" x2="-120.5584" y1="190" y2="230" id="linearGradient5" spreadMethod="reflect">
        <stop stop-opacity="1" stop-color="rgb(234,234,234)" offset="0%"/>
        <stop stop-opacity="1" stop-color="rgb(204,204,204)" offset="100%"/>
      </linearGradient>
      <linearGradient x1="-65.5584" gradientUnits="userSpaceOnUse" x2="54.4416" y1="130" y2="170" id="linearGradient6" spreadMethod="reflect">
        <stop stop-opacity="1" stop-color="rgb(234,234,234)" offset="0%"/>
        <stop stop-opacity="1" stop-color="rgb(204,204,204)" offset="100%"/>
      </linearGradient>
      <linearGradient x1="79.4416" gradientUnits="userSpaceOnUse" x2="179.4416" y1="30" y2="70" id="linearGradient7" spreadMethod="reflect">
        <stop stop-opacity="1" stop-color="rgb(234,234,234)" offset="0%"/>
        <stop stop-opacity="1" stop-color="rgb(204,204,204)" offset="100%"/>
      </linearGradient>
      <linearGradient x1="179.4416" gradientUnits="userSpaceOnUse" x2="259.4416" y1="70" y2="110" id="linearGradient8" spreadMethod="reflect">
        <stop stop-opacity="1" stop-color="rgb(234,234,234)" offset="0%"/>
        <stop stop-opacity="1" stop-color="rgb(204,204,204)" offset="100%"/>
      </linearGradient>
      <linearGradient x1="84.4416" gradientUnits="userSpaceOnUse" x2="174.4416" y1="130" y2="170" id="linearGradient9" spreadMethod="reflect">
        <stop stop-opacity="1" stop-color="rgb(234,234,234)" offset="0%"/>
        <stop stop-opacity="1" stop-color="rgb(204,204,204)" offset="100%"/>
      </linearGradient>
      <linearGradient x1="321.8856" gradientUnits="userSpaceOnUse" x2="401.8856" y1="70" y2="110" id="linearGradient10" spreadMethod="reflect">
        <stop stop-opacity="1" stop-color="rgb(234,234,234)" offset="0%"/>
        <stop stop-opacity="1" stop-color="rgb(204,204,204)" offset="100%"/>
      </linearGradient>
      <linearGradient x1="431.8856" gradientUnits="userSpaceOnUse" x2="541.8856" y1="130" y2="170" id="linearGradient11" spreadMethod="reflect">
        <stop stop-opacity="1" stop-color="rgb(234,234,234)" offset="0%"/>
        <stop stop-opacity="1" stop-color="rgb(204,204,204)" offset="100%"/>
      </linearGradient>
      <linearGradient x1="410" gradientUnits="userSpaceOnUse" x2="490" y1="38.808" y2="78.808" id="linearGradient12" spreadMethod="reflect">
        <stop stop-opacity="1" stop-color="rgb(234,234,234)" offset="0%"/>
        <stop stop-opacity="1" stop-color="rgb(204,204,204)" offset="100%"/>
      </linearGradient>
      <linearGradient x1="540" gradientUnits="userSpaceOnUse" x2="600" y1="38.808" y2="78.808" id="linearGradient13" spreadMethod="reflect">
        <stop stop-opacity="1" stop-color="rgb(234,234,234)" offset="0%"/>
        <stop stop-opacity="1" stop-color="rgb(204,204,204)" offset="100%"/>
      </linearGradient>
      <clipPath clipPathUnits="userSpaceOnUse" id="clipPath1">
        <path d="M0 0 L851 0 L851 251 L0 251 L0 0 Z"/>
      </clipPath>
      <clipPath clipPathUnits="userSpaceOnUse" id="clipPath2">
        <path d="M-237 -6 L614 -6 L614 245 L-237 245 L-237 -6 Z"/>
      </clipPath>
    </defs>
    <g stroke-linecap="round" transform="matrix(1,0,0,1,237,6)" stroke-dashoffset="2" fill="silver" text-rendering="geometricPrecision" shape-rendering="geometricPrecision" stroke-dasharray="0,4" stroke="silver" stroke-miterlimit="1.45">
      <path fill="none" d="M67.4 -0.08 L608.1221 -0.08 L608.1221 239.8432 L67.4 239.8432 Z" clip-path="url(#clipPath2)"/>
    </g>
    <g stroke-linecap="butt" transform="matrix(1,0,0,1,237,6)" text-rendering="geometricPrecision" font-family="sans-serif" shape-rendering="geometricPrecision" font-weight="bold" stroke-miterlimit="1.45">
      <text x="73.4" xml:space="preserve" y="17.9845" clip-path="url(#clipPath2)" stroke="none">Comportement d'une proie</text>
    </g>
    <g stroke-linecap="round" transform="matrix(1,0,0,1,237,6)" stroke-dashoffset="2" fill="silver" text-rendering="geometricPrecision" shape-rendering="geometricPrecision" stroke-dasharray="0,4" stroke="silver" stroke-miterlimit="1.45">
      <path fill="none" d="M-231.9168 -0.08 L62.7232 -0.08 L62.7232 239.8432 L-231.9168 239.8432 Z" clip-path="url(#clipPath2)"/>
    </g>
    <g stroke-linecap="butt" transform="matrix(1,0,0,1,237,6)" text-rendering="geometricPrecision" font-family="sans-serif" shape-rendering="geometricPrecision" font-weight="bold" stroke-miterlimit="1.45">
      <text x="-225.9168" xml:space="preserve" y="17.9845" clip-path="url(#clipPath2)" stroke="none">Comportement d'un prédateur</text>
    </g>
    <g fill="url(#linearGradient1)" text-rendering="geometricPrecision" shape-rendering="geometricPrecision" transform="matrix(1,0,0,1,237,6)" stroke="url(#linearGradient1)">
      <path d="M-221.2984 30 L-141.2984 30 L-141.2984 70 L-221.2984 70 Z" stroke="none" clip-path="url(#clipPath2)"/>
    </g>
    <g text-rendering="geometricPrecision" stroke-miterlimit="1.45" shape-rendering="geometricPrecision" transform="matrix(1,0,0,1,237,6)" stroke-linecap="butt">
      <path fill="none" d="M-221.2984 30 L-141.2984 30 L-141.2984 70 L-221.2984 70 Z" clip-path="url(#clipPath2)"/>
      <text x="-211.981" xml:space="preserve" y="47.3633" clip-path="url(#clipPath2)" font-family="sans-serif" stroke="none">Recherche </text>
      <text x="-210.8004" xml:space="preserve" y="62.0645" clip-path="url(#clipPath2)" font-family="sans-serif" stroke="none">d'une proie</text>
    </g>
    <g fill="url(#linearGradient2)" text-rendering="geometricPrecision" shape-rendering="geometricPrecision" transform="matrix(1,0,0,1,237,6)" stroke="url(#linearGradient2)">
      <path d="M-101.2984 70 L-61.2984 90 L-101.2984 110 L-141.2984 90 Z" stroke="none" clip-path="url(#clipPath2)"/>
    </g>
    <g text-rendering="geometricPrecision" stroke-miterlimit="1.45" shape-rendering="geometricPrecision" transform="matrix(1,0,0,1,237,6)" stroke-linecap="butt">
      <path fill="none" d="M-101.2984 70 L-61.2984 90 L-101.2984 110 L-141.2984 90 Z" clip-path="url(#clipPath2)"/>
      <text x="-106.8405" xml:space="preserve" y="41.8956" clip-path="url(#clipPath2)" font-family="sans-serif" stroke="none">présence d'une proie </text>
      <text x="-94.6764" xml:space="preserve" y="56.5968" clip-path="url(#clipPath2)" font-family="sans-serif" stroke="none">dans mon FOV ?</text>
    </g>
    <g fill="url(#linearGradient3)" text-rendering="geometricPrecision" shape-rendering="geometricPrecision" transform="matrix(1,0,0,1,237,6)" stroke="url(#linearGradient3)">
      <path d="M-220.5584 130 L-120.5584 130 L-120.5584 170 L-220.5584 170 Z" stroke="none" clip-path="url(#clipPath2)"/>
    </g>
    <g text-rendering="geometricPrecision" stroke-miterlimit="1.45" shape-rendering="geometricPrecision" transform="matrix(1,0,0,1,237,6)" stroke-linecap="butt">
      <path fill="none" d="M-220.5584 130 L-120.5584 130 L-120.5584 170 L-220.5584 170 Z" clip-path="url(#clipPath2)"/>
      <text x="-206.5818" xml:space="preserve" y="147.3633" clip-path="url(#clipPath2)" font-family="sans-serif" stroke="none">Changement </text>
      <text x="-193.2371" xml:space="preserve" y="162.0645" clip-path="url(#clipPath2)" font-family="sans-serif" stroke="none">direction</text>
    </g>
    <g fill="url(#linearGradient4)" text-rendering="geometricPrecision" shape-rendering="geometricPrecision" transform="matrix(1,0,0,1,237,6)" stroke="url(#linearGradient4)">
      <path d="M-30.5584 70 L49.4416 70 L49.4416 110 L-30.5584 110 Z" stroke="none" clip-path="url(#clipPath2)"/>
    </g>
    <g text-rendering="geometricPrecision" stroke-miterlimit="1.45" shape-rendering="geometricPrecision" transform="matrix(1,0,0,1,237,6)" stroke-linecap="butt">
      <path fill="none" d="M-30.5584 70 L49.4416 70 L49.4416 110 L-30.5584 110 Z" clip-path="url(#clipPath2)"/>
      <text x="-21.2381" xml:space="preserve" y="94.7139" clip-path="url(#clipPath2)" font-family="sans-serif" stroke="none">Cibler proie</text>
    </g>
    <g fill="url(#linearGradient5)" text-rendering="geometricPrecision" shape-rendering="geometricPrecision" transform="matrix(1,0,0,1,237,6)" stroke="url(#linearGradient5)">
      <path d="M-220.5584 190 L-120.5584 190 L-120.5584 230 L-220.5584 230 Z" stroke="none" clip-path="url(#clipPath2)"/>
    </g>
    <g text-rendering="geometricPrecision" stroke-miterlimit="1.45" shape-rendering="geometricPrecision" transform="matrix(1,0,0,1,237,6)" stroke-linecap="butt">
      <path fill="none" d="M-220.5584 190 L-120.5584 190 L-120.5584 230 L-220.5584 230 Z" clip-path="url(#clipPath2)"/>
      <text x="-205.9109" xml:space="preserve" y="207.3633" clip-path="url(#clipPath2)" font-family="sans-serif" stroke="none">Déplacement</text>
      <text x="-182.2244" xml:space="preserve" y="222.0645" clip-path="url(#clipPath2)" font-family="sans-serif" stroke="none">(C2)</text>
    </g>
    <g fill="url(#linearGradient6)" text-rendering="geometricPrecision" shape-rendering="geometricPrecision" transform="matrix(1,0,0,1,237,6)" stroke="url(#linearGradient6)">
      <path d="M-65.5584 130 L54.4416 130 L54.4416 170 L-65.5584 170 Z" stroke="none" clip-path="url(#clipPath2)"/>
    </g>
    <g text-rendering="geometricPrecision" stroke-miterlimit="1.45" shape-rendering="geometricPrecision" transform="matrix(1,0,0,1,237,6)" stroke-linecap="butt">
      <path fill="none" d="M-65.5584 130 L54.4416 130 L54.4416 170 L-65.5584 170 Z" clip-path="url(#clipPath2)"/>
      <text x="-48.2439" xml:space="preserve" y="147.3633" clip-path="url(#clipPath2)" font-family="sans-serif" stroke="none">Calcul direction </text>
      <text x="-54.3934" xml:space="preserve" y="162.0645" clip-path="url(#clipPath2)" font-family="sans-serif" stroke="none">d'interception (C1)</text>
    </g>
    <g fill="url(#linearGradient7)" text-rendering="geometricPrecision" shape-rendering="geometricPrecision" transform="matrix(1,0,0,1,237,6)" stroke="url(#linearGradient7)">
      <path d="M79.4416 30 L179.4416 30 L179.4416 70 L79.4416 70 Z" stroke="none" clip-path="url(#clipPath2)"/>
    </g>
    <g text-rendering="geometricPrecision" stroke-miterlimit="1.45" shape-rendering="geometricPrecision" transform="matrix(1,0,0,1,237,6)" stroke-linecap="butt">
      <path fill="none" d="M79.4416 30 L179.4416 30 L179.4416 70 L79.4416 70 Z" clip-path="url(#clipPath2)"/>
      <text x="89.7502" xml:space="preserve" y="47.3633" clip-path="url(#clipPath2)" font-family="sans-serif" stroke="none">Regarder dans</text>
      <text x="103.7687" xml:space="preserve" y="62.0645" clip-path="url(#clipPath2)" font-family="sans-serif" stroke="none">mon FOV</text>
    </g>
    <g fill="url(#linearGradient8)" text-rendering="geometricPrecision" shape-rendering="geometricPrecision" transform="matrix(1,0,0,1,237,6)" stroke="url(#linearGradient8)">
      <path d="M219.4416 70 L259.4416 90 L219.4416 110 L179.4416 90 Z" stroke="none" clip-path="url(#clipPath2)"/>
    </g>
    <g text-rendering="geometricPrecision" stroke-miterlimit="1.45" shape-rendering="geometricPrecision" transform="matrix(1,0,0,1,237,6)" stroke-linecap="butt">
      <path fill="none" d="M219.4416 70 L259.4416 90 L219.4416 110 L179.4416 90 Z" clip-path="url(#clipPath2)"/>
      <text x="205.9966" xml:space="preserve" y="43.9629" clip-path="url(#clipPath2)" font-family="sans-serif" stroke="none">présence d'un prédateur </text>
      <text x="227.1665" xml:space="preserve" y="58.6641" clip-path="url(#clipPath2)" font-family="sans-serif" stroke="none">dans mon FOV ?</text>
    </g>
    <g fill="url(#linearGradient9)" text-rendering="geometricPrecision" shape-rendering="geometricPrecision" transform="matrix(1,0,0,1,237,6)" stroke="url(#linearGradient9)">
      <path d="M84.4416 130 L174.4416 130 L174.4416 170 L84.4416 170 Z" stroke="none" clip-path="url(#clipPath2)"/>
    </g>
    <g text-rendering="geometricPrecision" stroke-miterlimit="1.45" shape-rendering="geometricPrecision" transform="matrix(1,0,0,1,237,6)" stroke-linecap="butt">
      <path fill="none" d="M84.4416 130 L174.4416 130 L174.4416 170 L84.4416 170 Z" clip-path="url(#clipPath2)"/>
      <text x="94.0891" xml:space="preserve" y="147.3633" clip-path="url(#clipPath2)" font-family="sans-serif" stroke="none">Déplacement</text>
      <text x="117.7756" xml:space="preserve" y="162.0645" clip-path="url(#clipPath2)" font-family="sans-serif" stroke="none">(C4)</text>
    </g>
    <g fill="url(#linearGradient10)" text-rendering="geometricPrecision" shape-rendering="geometricPrecision" transform="matrix(1,0,0,1,237,6)" stroke="url(#linearGradient10)">
      <path d="M361.8856 70 L401.8856 90 L361.8856 110 L321.8856 90 Z" stroke="none" clip-path="url(#clipPath2)"/>
    </g>
    <g text-rendering="geometricPrecision" stroke-miterlimit="1.45" shape-rendering="geometricPrecision" transform="matrix(1,0,0,1,237,6)" stroke-linecap="butt">
      <path fill="none" d="M361.8856 70 L401.8856 90 L361.8856 110 L321.8856 90 Z" clip-path="url(#clipPath2)"/>
      <text x="314.1961" xml:space="preserve" y="128.0645" clip-path="url(#clipPath2)" font-family="sans-serif" stroke="none">Suis-je ciblée par </text>
      <text x="316.8563" xml:space="preserve" y="142.7656" clip-path="url(#clipPath2)" font-family="sans-serif" stroke="none">des prédateurs ?</text>
    </g>
    <g fill="url(#linearGradient11)" text-rendering="geometricPrecision" shape-rendering="geometricPrecision" transform="matrix(1,0,0,1,237,6)" stroke="url(#linearGradient11)">
      <path d="M431.8856 130 L541.8856 130 L541.8856 170 L431.8856 170 Z" stroke="none" clip-path="url(#clipPath2)"/>
    </g>
    <g text-rendering="geometricPrecision" stroke-miterlimit="1.45" shape-rendering="geometricPrecision" transform="matrix(1,0,0,1,237,6)" stroke-linecap="butt">
      <path fill="none" d="M431.8856 130 L541.8856 130 L541.8856 170 L431.8856 170 Z" clip-path="url(#clipPath2)"/>
      <text x="444.2" xml:space="preserve" y="147.3633" clip-path="url(#clipPath2)" font-family="sans-serif" stroke="none">Calcul direction </text>
      <text x="453.8709" xml:space="preserve" y="162.0645" clip-path="url(#clipPath2)" font-family="sans-serif" stroke="none">de fuite (C3)</text>
    </g>
    <g fill="url(#linearGradient12)" text-rendering="geometricPrecision" shape-rendering="geometricPrecision" transform="matrix(1,0,0,1,237,6)" stroke="url(#linearGradient12)">
      <path d="M450 38.808 L490 58.808 L450 78.808 L410 58.808 Z" stroke="none" clip-path="url(#clipPath2)"/>
    </g>
    <g text-rendering="geometricPrecision" stroke-miterlimit="1.45" shape-rendering="geometricPrecision" transform="matrix(1,0,0,1,237,6)" stroke-linecap="butt">
      <path fill="none" d="M450 38.808 L490 58.808 L450 78.808 L410 58.808 Z" clip-path="url(#clipPath2)"/>
      <text x="400.6436" xml:space="preserve" y="15.4701" clip-path="url(#clipPath2)" font-family="sans-serif" stroke="none">Un prédateur est-il</text>
      <text x="407.9824" xml:space="preserve" y="30.1713" clip-path="url(#clipPath2)" font-family="sans-serif" stroke="none">sur ma cellule ?</text>
    </g>
    <g fill="url(#linearGradient13)" text-rendering="geometricPrecision" shape-rendering="geometricPrecision" transform="matrix(1,0,0,1,237,6)" stroke="url(#linearGradient13)">
      <path d="M540 38.808 L600 38.808 L600 78.808 L540 78.808 Z" stroke="none" clip-path="url(#clipPath2)"/>
    </g>
    <g text-rendering="geometricPrecision" stroke-miterlimit="1.45" shape-rendering="geometricPrecision" transform="matrix(1,0,0,1,237,6)" stroke-linecap="butt">
      <path fill="none" d="M540 38.808 L600 38.808 L600 78.808 L540 78.808 Z" clip-path="url(#clipPath2)"/>
      <text x="552.999" xml:space="preserve" y="63.5219" clip-path="url(#clipPath2)" font-family="sans-serif" stroke="none">Mourir</text>
    </g>
    <g text-rendering="geometricPrecision" stroke-miterlimit="1.45" shape-rendering="geometricPrecision" transform="matrix(1,0,0,1,237,6)" stroke-linecap="butt">
      <path fill="none" d="M-141.3375 50 L-101.2984 50 L-101.2984 62.0391" clip-path="url(#clipPath2)"/>
    </g>
    <g text-rendering="geometricPrecision" stroke-miterlimit="1.45" shape-rendering="geometricPrecision" transform="matrix(1,0,0,1,237,6)" stroke-linecap="butt">
      <path d="M-101.2984 70.0391 L-96.2984 58.0391 L-101.2984 61.0391 L-106.2984 58.0391 Z" stroke="none" clip-path="url(#clipPath2)"/>
      <path fill="none" d="M-141.3055 90 L-170.5584 90 L-170.5584 121.9902" clip-path="url(#clipPath2)"/>
      <path d="M-170.5584 129.9902 L-165.5584 117.9902 L-170.5584 120.9902 L-175.5584 117.9902 Z" clip-path="url(#clipPath2)" stroke="none"/>
      <text x="-163.9789" xml:space="preserve" y="107.2163" clip-path="url(#clipPath2)" font-family="sans-serif" stroke="none">non</text>
      <path fill="none" d="M-61.312 90 L-38.53 90" clip-path="url(#clipPath2)"/>
      <path d="M-30.53 90 L-42.53 85 L-39.53 90 L-42.53 95 Z" clip-path="url(#clipPath2)" stroke="none"/>
      <text x="-63.4035" xml:space="preserve" y="106.8818" clip-path="url(#clipPath2)" font-family="sans-serif" stroke="none">oui</text>
      <path fill="none" d="M-170.5584 170.0098 L-170.5584 181.9658" clip-path="url(#clipPath2)"/>
      <path d="M-170.5584 189.9658 L-165.5584 177.9658 L-170.5584 180.9658 L-175.5584 177.9658 Z" clip-path="url(#clipPath2)" stroke="none"/>
      <path fill="none" d="M9.4416 109.9961 L9.4416 122.0066" clip-path="url(#clipPath2)"/>
      <path d="M9.4416 130.0066 L14.4416 118.0066 L9.4416 121.0066 L4.4416 118.0066 Z" clip-path="url(#clipPath2)" stroke="none"/>
      <path fill="none" d="M-5.5584 170.0098 L-5.5584 210 L-112.5669 210" clip-path="url(#clipPath2)"/>
      <path d="M-120.5669 210 L-108.5669 215 L-111.5669 210 L-108.5669 205 Z" clip-path="url(#clipPath2)" stroke="none"/>
      <path fill="none" d="M179.4074 50 L219.4416 50 L219.4416 62.0391" clip-path="url(#clipPath2)"/>
      <path d="M219.4416 70.0391 L224.4416 58.0391 L219.4416 61.0391 L214.4416 58.0391 Z" clip-path="url(#clipPath2)" stroke="none"/>
      <path fill="none" d="M179.4805 90 L120 90 L120 121.9731" clip-path="url(#clipPath2)"/>
      <path d="M120 129.9731 L125 117.9731 L120 120.9731 L115 117.9731 Z" clip-path="url(#clipPath2)" stroke="none"/>
      <text x="156.6458" xml:space="preserve" y="104.5698" clip-path="url(#clipPath2)" font-family="sans-serif" stroke="none">non</text>
      <path fill="none" d="M259.4692 90 L313.9042 90" clip-path="url(#clipPath2)"/>
      <path d="M321.9042 90 L309.9042 85 L312.9042 90 L309.9042 95 Z" clip-path="url(#clipPath2)" stroke="none"/>
      <text x="264.5118" xml:space="preserve" y="104.2459" clip-path="url(#clipPath2)" font-family="sans-serif" stroke="none">oui</text>
      <path fill="none" d="M401.8555 90 L450 90 L450 121.9856" clip-path="url(#clipPath2)"/>
      <path d="M450 129.9857 L455 117.9857 L450 120.9857 L445 117.9857 Z" clip-path="url(#clipPath2)" stroke="none"/>
      <text x="406.2009" xml:space="preserve" y="104.2303" clip-path="url(#clipPath2)" font-family="sans-serif" stroke="none">non</text>
      <path fill="none" d="M486.8856 170.0098 L486.8856 210 L120 210 L120 178.0059" clip-path="url(#clipPath2)"/>
      <path d="M120 170.0059 L115 182.0059 L120 179.0059 L125 182.0059 Z" clip-path="url(#clipPath2)" stroke="none"/>
      <path fill="none" d="M361.8856 69.9872 L361.8856 58.808 L402.0302 58.808" clip-path="url(#clipPath2)"/>
      <path d="M410.0302 58.808 L398.0302 53.808 L401.0302 58.808 L398.0302 63.808 Z" clip-path="url(#clipPath2)" stroke="none"/>
      <text x="366.92" xml:space="preserve" y="53.3276" clip-path="url(#clipPath2)" font-family="sans-serif" stroke="none">oui</text>
      <path fill="none" d="M450 78.7934 L450 121.9936" clip-path="url(#clipPath2)"/>
      <path d="M450 129.9936 L455 117.9936 L450 120.9936 L445 117.9936 Z" clip-path="url(#clipPath2)" stroke="none"/>
      <text x="456.2805" xml:space="preserve" y="90.369" clip-path="url(#clipPath2)" font-family="sans-serif" stroke="none">non</text>
      <path fill="none" d="M489.9902 58.808 L532.0354 58.808" clip-path="url(#clipPath2)"/>
      <path d="M540.0354 58.808 L528.0354 53.808 L531.0354 58.808 L528.0354 63.808 Z" clip-path="url(#clipPath2)" stroke="none"/>
      <text x="496.4296" xml:space="preserve" y="52.4346" clip-path="url(#clipPath2)" font-family="sans-serif" stroke="none">oui</text>
    </g>
  </g>
</svg>
