<?xml version="1.0" encoding="UTF-8"?><svg xmlns="http://www.w3.org/2000/svg" xmlns:xlink="http://www.w3.org/1999/xlink" fill-opacity="1" color-rendering="auto" color-interpolation="auto" text-rendering="auto" stroke="black" stroke-linecap="square" width="680" stroke-miterlimit="10" shape-rendering="auto" stroke-opacity="1" fill="black" stroke-dasharray="none" font-weight="normal" stroke-width="1" height="294" font-family="'Dialog'" font-style="normal" stroke-linejoin="miter" font-size="12px" stroke-dashoffset="0" image-rendering="auto">
  <!--Generated by ySVG 2.5-->
  <defs id="genericDefs"/>
  <g>
    <defs id="defs1">
      <linearGradient x1="1069.2" gradientUnits="userSpaceOnUse" x2="1189.2" y1="360" y2="420" id="linearGradient1" spreadMethod="reflect">
        <stop stop-opacity="1" stop-color="rgb(12,135,218)" offset="0%"/>
        <stop stop-opacity="1" stop-color="rgb(12,135,218)" offset="100%"/>
      </linearGradient>
      <linearGradient x1="1189.2" gradientUnits="userSpaceOnUse" x2="1309.2" y1="290" y2="350" id="linearGradient2" spreadMethod="reflect">
        <stop stop-opacity="1" stop-color="rgb(124,191,51)" offset="0%"/>
        <stop stop-opacity="1" stop-color="rgb(124,191,51)" offset="100%"/>
      </linearGradient>
      <linearGradient x1="949.2" gradientUnits="userSpaceOnUse" x2="1069.2" y1="220" y2="280" id="linearGradient3" spreadMethod="reflect">
        <stop stop-opacity="1" stop-color="rgb(12,135,218)" offset="0%"/>
        <stop stop-opacity="1" stop-color="rgb(12,135,218)" offset="100%"/>
      </linearGradient>
      <linearGradient x1="669.2" gradientUnits="userSpaceOnUse" x2="919.2" y1="263" y2="273" id="linearGradient4" spreadMethod="reflect">
        <stop stop-opacity="1" stop-color="silver" offset="0%"/>
        <stop stop-opacity="1" stop-color="rgb(12,135,218)" offset="100%"/>
      </linearGradient>
      <linearGradient x1="669.2" gradientUnits="userSpaceOnUse" x2="919.2" y1="245" y2="255" id="linearGradient5" spreadMethod="reflect">
        <stop stop-opacity="1" stop-color="silver" offset="0%"/>
        <stop stop-opacity="1" stop-color="rgb(12,135,218)" offset="100%"/>
      </linearGradient>
      <linearGradient x1="669.2" gradientUnits="userSpaceOnUse" x2="919.2" y1="227" y2="237" id="linearGradient6" spreadMethod="reflect">
        <stop stop-opacity="1" stop-color="silver" offset="0%"/>
        <stop stop-opacity="1" stop-color="rgb(12,135,218)" offset="100%"/>
      </linearGradient>
      <linearGradient x1="669.2" gradientUnits="userSpaceOnUse" x2="919.2" y1="403" y2="413" id="linearGradient7" spreadMethod="reflect">
        <stop stop-opacity="1" stop-color="silver" offset="0%"/>
        <stop stop-opacity="1" stop-color="rgb(12,135,218)" offset="100%"/>
      </linearGradient>
      <linearGradient x1="669.2" gradientUnits="userSpaceOnUse" x2="919.2" y1="385" y2="395" id="linearGradient8" spreadMethod="reflect">
        <stop stop-opacity="1" stop-color="silver" offset="0%"/>
        <stop stop-opacity="1" stop-color="rgb(12,135,218)" offset="100%"/>
      </linearGradient>
      <linearGradient x1="669.2" gradientUnits="userSpaceOnUse" x2="919.2" y1="367" y2="377" id="linearGradient9" spreadMethod="reflect">
        <stop stop-opacity="1" stop-color="silver" offset="0%"/>
        <stop stop-opacity="1" stop-color="rgb(12,135,218)" offset="100%"/>
      </linearGradient>
      <linearGradient x1="669.2" gradientUnits="userSpaceOnUse" x2="919.2" y1="315" y2="325" id="linearGradient10" spreadMethod="reflect">
        <stop stop-opacity="1" stop-color="silver" offset="0%"/>
        <stop stop-opacity="1" stop-color="rgb(124,191,51)" offset="100%"/>
      </linearGradient>
      <linearGradient x1="669.2" gradientUnits="userSpaceOnUse" x2="919.2" y1="333" y2="343" id="linearGradient11" spreadMethod="reflect">
        <stop stop-opacity="1" stop-color="silver" offset="0%"/>
        <stop stop-opacity="1" stop-color="rgb(124,191,51)" offset="100%"/>
      </linearGradient>
      <linearGradient x1="669.2" gradientUnits="userSpaceOnUse" x2="919.2" y1="297" y2="307" id="linearGradient12" spreadMethod="reflect">
        <stop stop-opacity="1" stop-color="silver" offset="0%"/>
        <stop stop-opacity="1" stop-color="rgb(124,191,51)" offset="100%"/>
      </linearGradient>
      <linearGradient x1="669.2" gradientUnits="userSpaceOnUse" x2="919.2" y1="200" y2="210" id="linearGradient13" spreadMethod="reflect">
        <stop stop-opacity="1" stop-color="silver" offset="0%"/>
        <stop stop-opacity="1" stop-color="silver" offset="100%"/>
      </linearGradient>
      <linearGradient x1="669.2" gradientUnits="userSpaceOnUse" x2="919.2" y1="182" y2="192" id="linearGradient14" spreadMethod="reflect">
        <stop stop-opacity="1" stop-color="silver" offset="0%"/>
        <stop stop-opacity="1" stop-color="silver" offset="100%"/>
      </linearGradient>
      <linearGradient x1="669.2" gradientUnits="userSpaceOnUse" x2="919.2" y1="430" y2="440" id="linearGradient15" spreadMethod="reflect">
        <stop stop-opacity="1" stop-color="silver" offset="0%"/>
        <stop stop-opacity="1" stop-color="silver" offset="100%"/>
      </linearGradient>
      <linearGradient x1="1189.2" gradientUnits="userSpaceOnUse" x2="1309.2" y1="156.5" y2="176.5" id="linearGradient16" spreadMethod="reflect">
        <stop stop-opacity="1" stop-color="rgb(124,191,51)" offset="0%"/>
        <stop stop-opacity="1" stop-color="rgb(124,191,51)" offset="100%"/>
      </linearGradient>
      <linearGradient x1="949.2" gradientUnits="userSpaceOnUse" x2="1189.2" y1="156.5" y2="176.5" id="linearGradient17" spreadMethod="reflect">
        <stop stop-opacity="1" stop-color="rgb(12,135,218)" offset="0%"/>
        <stop stop-opacity="1" stop-color="rgb(12,135,218)" offset="100%"/>
      </linearGradient>
      <clipPath clipPathUnits="userSpaceOnUse" id="clipPath1">
        <path d="M0 0 L680 0 L680 294 L0 294 L0 0 Z"/>
      </clipPath>
      <clipPath clipPathUnits="userSpaceOnUse" id="clipPath2">
        <path d="M635 151 L1315 151 L1315 445 L635 445 L635 151 Z"/>
      </clipPath>
    </defs>
    <g fill="url(#linearGradient1)" text-rendering="geometricPrecision" shape-rendering="geometricPrecision" transform="matrix(1,0,0,1,-635,-151)" stroke="url(#linearGradient1)">
      <path d="M1069.2 360 L1189.2 360 L1189.2 420 L1069.2 420 Z" stroke="none" clip-path="url(#clipPath2)"/>
    </g>
    <g stroke-linecap="butt" transform="matrix(1,0,0,1,-635,-151)" fill="white" text-rendering="geometricPrecision" font-family="sans-serif" shape-rendering="geometricPrecision" stroke="white" font-weight="bold" stroke-miterlimit="1.45">
      <text x="1101.1921" xml:space="preserve" y="387.3633" clip-path="url(#clipPath2)" stroke="none">exécution</text>
      <text x="1101.1921" xml:space="preserve" y="402.0645" clip-path="url(#clipPath2)" stroke="none">fonction</text>
    </g>
    <g fill="url(#linearGradient2)" text-rendering="geometricPrecision" shape-rendering="geometricPrecision" transform="matrix(1,0,0,1,-635,-151)" stroke="url(#linearGradient2)">
      <path d="M1189.2 290 L1309.2 290 L1309.2 350 L1189.2 350 Z" stroke="none" clip-path="url(#clipPath2)"/>
    </g>
    <g stroke-linecap="butt" transform="matrix(1,0,0,1,-635,-151)" fill="white" text-rendering="geometricPrecision" font-family="sans-serif" shape-rendering="geometricPrecision" stroke="white" font-weight="bold" stroke-miterlimit="1.45">
      <text x="1221.1921" xml:space="preserve" y="317.3633" clip-path="url(#clipPath2)" stroke="none">exécution</text>
      <text x="1221.1921" xml:space="preserve" y="332.0645" clip-path="url(#clipPath2)" stroke="none">kernel</text>
    </g>
    <g fill="url(#linearGradient3)" text-rendering="geometricPrecision" shape-rendering="geometricPrecision" transform="matrix(1,0,0,1,-635,-151)" stroke="url(#linearGradient3)">
      <path d="M949.2 220 L1069.2 220 L1069.2 280 L949.2 280 Z" stroke="none" clip-path="url(#clipPath2)"/>
    </g>
    <g stroke-linecap="butt" transform="matrix(1,0,0,1,-635,-151)" fill="white" text-rendering="geometricPrecision" font-family="sans-serif" shape-rendering="geometricPrecision" stroke="white" font-weight="bold" stroke-miterlimit="1.45">
      <text x="981.1922" xml:space="preserve" y="247.3633" clip-path="url(#clipPath2)" stroke="none">exécution</text>
      <text x="981.1922" xml:space="preserve" y="262.0645" clip-path="url(#clipPath2)" stroke="none">fonction</text>
    </g>
    <g text-rendering="geometricPrecision" stroke-miterlimit="1.45" stroke-dasharray="6,2" shape-rendering="geometricPrecision" transform="matrix(1,0,0,1,-635,-151)" stroke-linecap="butt">
      <path fill="none" d="M640.2 290 L1309.2 290 L1309.2 350 L640.2 350 Z" clip-path="url(#clipPath2)"/>
    </g>
    <g text-rendering="geometricPrecision" stroke-miterlimit="1.45" stroke-dasharray="6,2" shape-rendering="geometricPrecision" transform="matrix(1,0,0,1,-635,-151)" stroke-linecap="butt">
      <path fill="none" d="M640.2 360 L1189.2 360 L1189.2 420 L640.2 420 Z" clip-path="url(#clipPath2)"/>
    </g>
    <g text-rendering="geometricPrecision" stroke-miterlimit="1.45" stroke-dasharray="6,2" shape-rendering="geometricPrecision" transform="matrix(1,0,0,1,-635,-151)" stroke-linecap="butt">
      <path fill="none" d="M640.2 220 L1069.2 220 L1069.2 280 L640.2 280 Z" clip-path="url(#clipPath2)"/>
    </g>
    <g fill="url(#linearGradient4)" text-rendering="geometricPrecision" shape-rendering="geometricPrecision" transform="matrix(1,0,0,1,-635,-151)" stroke="url(#linearGradient4)">
      <path d="M669.2 263 L919.2 263 L919.2 273 L669.2 273 Z" stroke="none" clip-path="url(#clipPath2)"/>
    </g>
    <g text-rendering="geometricPrecision" stroke-miterlimit="1.45" shape-rendering="geometricPrecision" transform="matrix(1,0,0,1,-635,-151)" stroke-linecap="butt">
      <path fill="none" d="M669.2 263 L919.2 263 L919.2 273 L669.2 273 Z" clip-path="url(#clipPath2)"/>
    </g>
    <g fill="url(#linearGradient5)" text-rendering="geometricPrecision" shape-rendering="geometricPrecision" transform="matrix(1,0,0,1,-635,-151)" stroke="url(#linearGradient5)">
      <path d="M669.2 245 L919.2 245 L919.2 255 L669.2 255 Z" stroke="none" clip-path="url(#clipPath2)"/>
    </g>
    <g text-rendering="geometricPrecision" stroke-miterlimit="1.45" shape-rendering="geometricPrecision" transform="matrix(1,0,0,1,-635,-151)" stroke-linecap="butt">
      <path fill="none" d="M669.2 245 L919.2 245 L919.2 255 L669.2 255 Z" clip-path="url(#clipPath2)"/>
    </g>
    <g fill="url(#linearGradient6)" text-rendering="geometricPrecision" shape-rendering="geometricPrecision" transform="matrix(1,0,0,1,-635,-151)" stroke="url(#linearGradient6)">
      <path d="M669.2 227 L919.2 227 L919.2 237 L669.2 237 Z" stroke="none" clip-path="url(#clipPath2)"/>
    </g>
    <g text-rendering="geometricPrecision" stroke-miterlimit="1.45" shape-rendering="geometricPrecision" transform="matrix(1,0,0,1,-635,-151)" stroke-linecap="butt">
      <path fill="none" d="M669.2 227 L919.2 227 L919.2 237 L669.2 237 Z" clip-path="url(#clipPath2)"/>
    </g>
    <g fill="url(#linearGradient7)" text-rendering="geometricPrecision" shape-rendering="geometricPrecision" transform="matrix(1,0,0,1,-635,-151)" stroke="url(#linearGradient7)">
      <path d="M669.2 403 L919.2 403 L919.2 413 L669.2 413 Z" stroke="none" clip-path="url(#clipPath2)"/>
    </g>
    <g text-rendering="geometricPrecision" stroke-miterlimit="1.45" shape-rendering="geometricPrecision" transform="matrix(1,0,0,1,-635,-151)" stroke-linecap="butt">
      <path fill="none" d="M669.2 403 L919.2 403 L919.2 413 L669.2 413 Z" clip-path="url(#clipPath2)"/>
    </g>
    <g fill="url(#linearGradient8)" text-rendering="geometricPrecision" shape-rendering="geometricPrecision" transform="matrix(1,0,0,1,-635,-151)" stroke="url(#linearGradient8)">
      <path d="M669.2 385 L919.2 385 L919.2 395 L669.2 395 Z" stroke="none" clip-path="url(#clipPath2)"/>
    </g>
    <g text-rendering="geometricPrecision" stroke-miterlimit="1.45" shape-rendering="geometricPrecision" transform="matrix(1,0,0,1,-635,-151)" stroke-linecap="butt">
      <path fill="none" d="M669.2 385 L919.2 385 L919.2 395 L669.2 395 Z" clip-path="url(#clipPath2)"/>
    </g>
    <g fill="url(#linearGradient9)" text-rendering="geometricPrecision" shape-rendering="geometricPrecision" transform="matrix(1,0,0,1,-635,-151)" stroke="url(#linearGradient9)">
      <path d="M669.2 367 L919.2 367 L919.2 377 L669.2 377 Z" stroke="none" clip-path="url(#clipPath2)"/>
    </g>
    <g text-rendering="geometricPrecision" stroke-miterlimit="1.45" shape-rendering="geometricPrecision" transform="matrix(1,0,0,1,-635,-151)" stroke-linecap="butt">
      <path fill="none" d="M669.2 367 L919.2 367 L919.2 377 L669.2 377 Z" clip-path="url(#clipPath2)"/>
    </g>
    <g fill="url(#linearGradient10)" text-rendering="geometricPrecision" shape-rendering="geometricPrecision" transform="matrix(1,0,0,1,-635,-151)" stroke="url(#linearGradient10)">
      <path d="M669.2 315 L919.2 315 L919.2 325 L669.2 325 Z" stroke="none" clip-path="url(#clipPath2)"/>
    </g>
    <g text-rendering="geometricPrecision" stroke-miterlimit="1.45" shape-rendering="geometricPrecision" transform="matrix(1,0,0,1,-635,-151)" stroke-linecap="butt">
      <path fill="none" d="M669.2 315 L919.2 315 L919.2 325 L669.2 325 Z" clip-path="url(#clipPath2)"/>
    </g>
    <g fill="url(#linearGradient11)" text-rendering="geometricPrecision" shape-rendering="geometricPrecision" transform="matrix(1,0,0,1,-635,-151)" stroke="url(#linearGradient11)">
      <path d="M669.2 333 L919.2 333 L919.2 343 L669.2 343 Z" stroke="none" clip-path="url(#clipPath2)"/>
    </g>
    <g text-rendering="geometricPrecision" stroke-miterlimit="1.45" shape-rendering="geometricPrecision" transform="matrix(1,0,0,1,-635,-151)" stroke-linecap="butt">
      <path fill="none" d="M669.2 333 L919.2 333 L919.2 343 L669.2 343 Z" clip-path="url(#clipPath2)"/>
    </g>
    <g fill="url(#linearGradient12)" text-rendering="geometricPrecision" shape-rendering="geometricPrecision" transform="matrix(1,0,0,1,-635,-151)" stroke="url(#linearGradient12)">
      <path d="M669.2 297 L919.2 297 L919.2 307 L669.2 307 Z" stroke="none" clip-path="url(#clipPath2)"/>
    </g>
    <g text-rendering="geometricPrecision" stroke-miterlimit="1.45" shape-rendering="geometricPrecision" transform="matrix(1,0,0,1,-635,-151)" stroke-linecap="butt">
      <path fill="none" d="M669.2 297 L919.2 297 L919.2 307 L669.2 307 Z" clip-path="url(#clipPath2)"/>
    </g>
    <g fill="url(#linearGradient13)" text-rendering="geometricPrecision" shape-rendering="geometricPrecision" transform="matrix(1,0,0,1,-635,-151)" stroke="url(#linearGradient13)">
      <path d="M669.2 200 L919.2 200 L919.2 210 L669.2 210 Z" stroke="none" clip-path="url(#clipPath2)"/>
    </g>
    <g text-rendering="geometricPrecision" stroke-miterlimit="1.45" shape-rendering="geometricPrecision" transform="matrix(1,0,0,1,-635,-151)" stroke-linecap="butt">
      <path fill="none" d="M669.2 200 L919.2 200 L919.2 210 L669.2 210 Z" clip-path="url(#clipPath2)"/>
    </g>
    <g fill="url(#linearGradient14)" text-rendering="geometricPrecision" shape-rendering="geometricPrecision" transform="matrix(1,0,0,1,-635,-151)" stroke="url(#linearGradient14)">
      <path d="M669.2 182 L919.2 182 L919.2 192 L669.2 192 Z" stroke="none" clip-path="url(#clipPath2)"/>
    </g>
    <g text-rendering="geometricPrecision" stroke-miterlimit="1.45" shape-rendering="geometricPrecision" transform="matrix(1,0,0,1,-635,-151)" stroke-linecap="butt">
      <path fill="none" d="M669.2 182 L919.2 182 L919.2 192 L669.2 192 Z" clip-path="url(#clipPath2)"/>
    </g>
    <g fill="url(#linearGradient15)" text-rendering="geometricPrecision" shape-rendering="geometricPrecision" transform="matrix(1,0,0,1,-635,-151)" stroke="url(#linearGradient15)">
      <path d="M669.2 430 L919.2 430 L919.2 440 L669.2 440 Z" stroke="none" clip-path="url(#clipPath2)"/>
    </g>
    <g text-rendering="geometricPrecision" stroke-miterlimit="1.45" shape-rendering="geometricPrecision" transform="matrix(1,0,0,1,-635,-151)" stroke-linecap="butt">
      <path fill="none" d="M669.2 430 L919.2 430 L919.2 440 L669.2 440 Z" clip-path="url(#clipPath2)"/>
    </g>
    <g text-rendering="geometricPrecision" stroke-miterlimit="1.45" shape-rendering="geometricPrecision" font-family="sans-serif" transform="matrix(1,0,0,1,-635,-151)" stroke-linecap="butt">
      <text x="705.8201" xml:space="preserve" y="171.2139" clip-path="url(#clipPath2)" stroke="none">Code source, modèle multi-agent</text>
    </g>
    <g fill="url(#linearGradient16)" text-rendering="geometricPrecision" shape-rendering="geometricPrecision" transform="matrix(1,0,0,1,-635,-151)" stroke="url(#linearGradient16)">
      <path d="M1189.2 156.5 L1309.2 156.5 L1309.2 176.5 L1189.2 176.5 Z" stroke="none" clip-path="url(#clipPath2)"/>
    </g>
    <g stroke-linecap="butt" transform="matrix(1,0,0,1,-635,-151)" fill="white" text-rendering="geometricPrecision" font-family="sans-serif" shape-rendering="geometricPrecision" stroke="white" font-weight="bold" stroke-miterlimit="1.45">
      <text x="1236.198" xml:space="preserve" y="171.2139" clip-path="url(#clipPath2)" stroke="none">GPU</text>
    </g>
    <g fill="url(#linearGradient17)" text-rendering="geometricPrecision" shape-rendering="geometricPrecision" transform="matrix(1,0,0,1,-635,-151)" stroke="url(#linearGradient17)">
      <path d="M949.2 156.5 L1189.2 156.5 L1189.2 176.5 L949.2 176.5 Z" stroke="none" clip-path="url(#clipPath2)"/>
    </g>
    <g stroke-linecap="butt" transform="matrix(1,0,0,1,-635,-151)" fill="white" text-rendering="geometricPrecision" font-family="sans-serif" shape-rendering="geometricPrecision" stroke="white" font-weight="bold" stroke-miterlimit="1.45">
      <text x="1056.532" xml:space="preserve" y="171.2139" clip-path="url(#clipPath2)" stroke="none">CPU</text>
    </g>
  </g>
</svg>
