<?xml version="1.0" encoding="UTF-8"?><svg xmlns="http://www.w3.org/2000/svg" xmlns:xlink="http://www.w3.org/1999/xlink" fill-opacity="1" color-rendering="auto" color-interpolation="auto" text-rendering="auto" stroke="black" stroke-linecap="square" width="1040" stroke-miterlimit="10" shape-rendering="auto" stroke-opacity="1" fill="black" stroke-dasharray="none" font-weight="normal" stroke-width="1" height="604" font-family="'Dialog'" font-style="normal" stroke-linejoin="miter" font-size="12px" stroke-dashoffset="0" image-rendering="auto">
  <!--Generated by ySVG 2.5-->
  <defs id="genericDefs"/>
  <g>
    <defs id="defs1">
      <linearGradient x1="250" gradientUnits="userSpaceOnUse" x2="1170" y1="100" y2="130" id="linearGradient1" spreadMethod="reflect">
        <stop stop-opacity="1" stop-color="rgb(124,191,51)" offset="0%"/>
        <stop stop-opacity="1" stop-color="rgb(124,191,51)" offset="100%"/>
      </linearGradient>
      <linearGradient x1="342" gradientUnits="userSpaceOnUse" x2="642" y1="220" y2="260" id="linearGradient2" spreadMethod="reflect">
        <stop stop-opacity="1" stop-color="rgb(234,234,234)" offset="0%"/>
        <stop stop-opacity="1" stop-color="rgb(204,204,204)" offset="100%"/>
      </linearGradient>
      <linearGradient x1="342" gradientUnits="userSpaceOnUse" x2="422" y1="287.5" y2="327.5" id="linearGradient3" spreadMethod="reflect">
        <stop stop-opacity="1" stop-color="rgb(234,234,234)" offset="0%"/>
        <stop stop-opacity="1" stop-color="rgb(204,204,204)" offset="100%"/>
      </linearGradient>
      <linearGradient x1="562" gradientUnits="userSpaceOnUse" x2="642" y1="287.5" y2="327.5" id="linearGradient4" spreadMethod="reflect">
        <stop stop-opacity="1" stop-color="rgb(234,234,234)" offset="0%"/>
        <stop stop-opacity="1" stop-color="rgb(204,204,204)" offset="100%"/>
      </linearGradient>
      <linearGradient x1="342" gradientUnits="userSpaceOnUse" x2="422" y1="430" y2="470" id="linearGradient5" spreadMethod="reflect">
        <stop stop-opacity="1" stop-color="rgb(234,234,234)" offset="0%"/>
        <stop stop-opacity="1" stop-color="rgb(204,204,204)" offset="100%"/>
      </linearGradient>
      <linearGradient x1="562" gradientUnits="userSpaceOnUse" x2="642" y1="430" y2="470" id="linearGradient6" spreadMethod="reflect">
        <stop stop-opacity="1" stop-color="rgb(234,234,234)" offset="0%"/>
        <stop stop-opacity="1" stop-color="rgb(204,204,204)" offset="100%"/>
      </linearGradient>
      <linearGradient x1="315" gradientUnits="userSpaceOnUse" x2="465" y1="358.75" y2="398.75" id="linearGradient7" spreadMethod="reflect">
        <stop stop-opacity="1" stop-color="rgb(51,153,102)" offset="0%"/>
        <stop stop-opacity="1" stop-color="rgb(124,191,51)" offset="100%"/>
      </linearGradient>
      <linearGradient x1="525" gradientUnits="userSpaceOnUse" x2="675" y1="358.75" y2="398.75" id="linearGradient8" spreadMethod="reflect">
        <stop stop-opacity="1" stop-color="rgb(51,153,102)" offset="0%"/>
        <stop stop-opacity="1" stop-color="rgb(124,191,51)" offset="100%"/>
      </linearGradient>
      <linearGradient x1="772" gradientUnits="userSpaceOnUse" x2="1072" y1="220" y2="260" id="linearGradient9" spreadMethod="reflect">
        <stop stop-opacity="1" stop-color="rgb(234,234,234)" offset="0%"/>
        <stop stop-opacity="1" stop-color="rgb(204,204,204)" offset="100%"/>
      </linearGradient>
      <linearGradient x1="772" gradientUnits="userSpaceOnUse" x2="852" y1="287.5" y2="327.5" id="linearGradient10" spreadMethod="reflect">
        <stop stop-opacity="1" stop-color="rgb(234,234,234)" offset="0%"/>
        <stop stop-opacity="1" stop-color="rgb(204,204,204)" offset="100%"/>
      </linearGradient>
      <linearGradient x1="992" gradientUnits="userSpaceOnUse" x2="1072" y1="287.5" y2="327.5" id="linearGradient11" spreadMethod="reflect">
        <stop stop-opacity="1" stop-color="rgb(234,234,234)" offset="0%"/>
        <stop stop-opacity="1" stop-color="rgb(204,204,204)" offset="100%"/>
      </linearGradient>
      <linearGradient x1="772" gradientUnits="userSpaceOnUse" x2="852" y1="430" y2="470" id="linearGradient12" spreadMethod="reflect">
        <stop stop-opacity="1" stop-color="rgb(234,234,234)" offset="0%"/>
        <stop stop-opacity="1" stop-color="rgb(204,204,204)" offset="100%"/>
      </linearGradient>
      <linearGradient x1="992" gradientUnits="userSpaceOnUse" x2="1072" y1="430" y2="470" id="linearGradient13" spreadMethod="reflect">
        <stop stop-opacity="1" stop-color="rgb(234,234,234)" offset="0%"/>
        <stop stop-opacity="1" stop-color="rgb(204,204,204)" offset="100%"/>
      </linearGradient>
      <linearGradient x1="745" gradientUnits="userSpaceOnUse" x2="895" y1="358.75" y2="398.75" id="linearGradient14" spreadMethod="reflect">
        <stop stop-opacity="1" stop-color="rgb(51,153,102)" offset="0%"/>
        <stop stop-opacity="1" stop-color="rgb(124,191,51)" offset="100%"/>
      </linearGradient>
      <linearGradient x1="955" gradientUnits="userSpaceOnUse" x2="1105" y1="358.75" y2="398.75" id="linearGradient15" spreadMethod="reflect">
        <stop stop-opacity="1" stop-color="rgb(51,153,102)" offset="0%"/>
        <stop stop-opacity="1" stop-color="rgb(124,191,51)" offset="100%"/>
      </linearGradient>
      <linearGradient x1="292" gradientUnits="userSpaceOnUse" x2="1122" y1="520" y2="560" id="linearGradient16" spreadMethod="reflect">
        <stop stop-opacity="1" stop-color="rgb(234,234,234)" offset="0%"/>
        <stop stop-opacity="1" stop-color="rgb(204,204,204)" offset="100%"/>
      </linearGradient>
      <linearGradient x1="292" gradientUnits="userSpaceOnUse" x2="1122" y1="586.875" y2="626.875" id="linearGradient17" spreadMethod="reflect">
        <stop stop-opacity="1" stop-color="rgb(234,234,234)" offset="0%"/>
        <stop stop-opacity="1" stop-color="rgb(204,204,204)" offset="100%"/>
      </linearGradient>
      <linearGradient x1="292" gradientUnits="userSpaceOnUse" x2="332" y1="653.75" y2="693.75" id="linearGradient18" spreadMethod="reflect">
        <stop stop-opacity="1" stop-color="rgb(234,234,234)" offset="0%"/>
        <stop stop-opacity="1" stop-color="rgb(204,204,204)" offset="100%"/>
      </linearGradient>
      <linearGradient x1="722" gradientUnits="userSpaceOnUse" x2="762" y1="653.75" y2="693.75" id="linearGradient19" spreadMethod="reflect">
        <stop stop-opacity="1" stop-color="rgb(51,153,102)" offset="0%"/>
        <stop stop-opacity="1" stop-color="rgb(124,191,51)" offset="100%"/>
      </linearGradient>
      <linearGradient x1="140" gradientUnits="userSpaceOnUse" x2="220" y1="415.9784" y2="636.1384" id="linearGradient20" spreadMethod="reflect">
        <stop stop-opacity="1" stop-color="rgb(12,135,218)" offset="0%"/>
        <stop stop-opacity="1" stop-color="rgb(12,135,218)" offset="100%"/>
      </linearGradient>
      <clipPath clipPathUnits="userSpaceOnUse" id="clipPath1">
        <path d="M0 0 L1040 0 L1040 604 L0 604 L0 0 Z"/>
      </clipPath>
      <clipPath clipPathUnits="userSpaceOnUse" id="clipPath2">
        <path d="M135 95 L1175 95 L1175 699 L135 699 L135 95 Z"/>
      </clipPath>
    </defs>
    <g text-rendering="geometricPrecision" stroke-miterlimit="1.45" stroke-dasharray="6,2" shape-rendering="geometricPrecision" transform="matrix(1,0,0,1,-135,-95)" stroke-linecap="butt">
      <path fill="none" d="M250 161.6384 L1170 161.6384 L1170 636.1384 L250 636.1384 Z" clip-path="url(#clipPath2)"/>
      <text x="256" y="179.7029" clip-path="url(#clipPath2)" font-family="sans-serif" stroke-dasharray="none" stroke="none" font-weight="bold" xml:space="preserve">Grille</text>
    </g>
    <g fill="url(#linearGradient1)" text-rendering="geometricPrecision" shape-rendering="geometricPrecision" transform="matrix(1,0,0,1,-135,-95)" stroke="url(#linearGradient1)">
      <path d="M250 100 L1170 100 L1170 130 L250 130 Z" stroke="none" clip-path="url(#clipPath2)"/>
    </g>
    <g stroke-linecap="butt" transform="matrix(1,0,0,1,-135,-95)" fill="white" text-rendering="geometricPrecision" font-family="sans-serif" shape-rendering="geometricPrecision" stroke="white" font-weight="bold" stroke-miterlimit="1.45">
      <text x="696.998" xml:space="preserve" y="119.7139" clip-path="url(#clipPath2)" stroke="none">GPU</text>
    </g>
    <g text-rendering="geometricPrecision" stroke-miterlimit="1.45" stroke-dasharray="4,3,0,3" shape-rendering="geometricPrecision" transform="matrix(1,0,0,1,-135,-95)" stroke-linecap="round">
      <path fill="none" d="M292 193.125 L692 193.125 L692 493.125 L292 493.125 Z" clip-path="url(#clipPath2)"/>
    </g>
    <g stroke-linecap="butt" transform="matrix(1,0,0,1,-135,-95)" text-rendering="geometricPrecision" font-family="sans-serif" shape-rendering="geometricPrecision" font-weight="bold" stroke-miterlimit="1.45">
      <text x="298" xml:space="preserve" y="211.1895" clip-path="url(#clipPath2)" stroke="none">Bloc 0</text>
    </g>
    <g fill="url(#linearGradient2)" text-rendering="geometricPrecision" shape-rendering="geometricPrecision" transform="matrix(1,0,0,1,-135,-95)" stroke="url(#linearGradient2)">
      <path d="M342 220 L642 220 L642 260 L342 260 Z" stroke="none" clip-path="url(#clipPath2)"/>
    </g>
    <g text-rendering="geometricPrecision" stroke-miterlimit="1.45" shape-rendering="geometricPrecision" transform="matrix(1,0,0,1,-135,-95)" stroke-linecap="butt">
      <path fill="none" d="M342 220 L642 220 L642 260 L342 260 Z" clip-path="url(#clipPath2)"/>
      <text x="443.3086" xml:space="preserve" y="244.7139" clip-path="url(#clipPath2)" font-family="sans-serif" stroke="none">Mémoire partagée</text>
    </g>
    <g fill="url(#linearGradient3)" text-rendering="geometricPrecision" shape-rendering="geometricPrecision" transform="matrix(1,0,0,1,-135,-95)" stroke="url(#linearGradient3)">
      <path d="M342 287.5 L422 287.5 L422 327.5 L342 327.5 Z" stroke="none" clip-path="url(#clipPath2)"/>
    </g>
    <g text-rendering="geometricPrecision" stroke-miterlimit="1.45" shape-rendering="geometricPrecision" transform="matrix(1,0,0,1,-135,-95)" stroke-linecap="butt">
      <path fill="none" d="M342 287.5 L422 287.5 L422 327.5 L342 327.5 Z" clip-path="url(#clipPath2)"/>
      <text x="356.6582" xml:space="preserve" y="312.2139" clip-path="url(#clipPath2)" font-family="sans-serif" stroke="none">Registres</text>
    </g>
    <g fill="url(#linearGradient4)" text-rendering="geometricPrecision" shape-rendering="geometricPrecision" transform="matrix(1,0,0,1,-135,-95)" stroke="url(#linearGradient4)">
      <path d="M562 287.5 L642 287.5 L642 327.5 L562 327.5 Z" stroke="none" clip-path="url(#clipPath2)"/>
    </g>
    <g text-rendering="geometricPrecision" stroke-miterlimit="1.45" shape-rendering="geometricPrecision" transform="matrix(1,0,0,1,-135,-95)" stroke-linecap="butt">
      <path fill="none" d="M562 287.5 L642 287.5 L642 327.5 L562 327.5 Z" clip-path="url(#clipPath2)"/>
      <text x="576.6582" xml:space="preserve" y="312.2139" clip-path="url(#clipPath2)" font-family="sans-serif" stroke="none">Registres</text>
    </g>
    <g fill="url(#linearGradient5)" text-rendering="geometricPrecision" shape-rendering="geometricPrecision" transform="matrix(1,0,0,1,-135,-95)" stroke="url(#linearGradient5)">
      <path d="M342 430 L422 430 L422 470 L342 470 Z" stroke="none" clip-path="url(#clipPath2)"/>
    </g>
    <g text-rendering="geometricPrecision" stroke-miterlimit="1.45" shape-rendering="geometricPrecision" transform="matrix(1,0,0,1,-135,-95)" stroke-linecap="butt">
      <path fill="none" d="M342 430 L422 430 L422 470 L342 470 Z" clip-path="url(#clipPath2)"/>
      <text x="358.6621" xml:space="preserve" y="447.3633" clip-path="url(#clipPath2)" font-family="sans-serif" stroke="none">Mémoire</text>
      <text x="366.3232" xml:space="preserve" y="462.0645" clip-path="url(#clipPath2)" font-family="sans-serif" stroke="none">locale</text>
    </g>
    <g fill="url(#linearGradient6)" text-rendering="geometricPrecision" shape-rendering="geometricPrecision" transform="matrix(1,0,0,1,-135,-95)" stroke="url(#linearGradient6)">
      <path d="M562 430 L642 430 L642 470 L562 470 Z" stroke="none" clip-path="url(#clipPath2)"/>
    </g>
    <g text-rendering="geometricPrecision" stroke-miterlimit="1.45" shape-rendering="geometricPrecision" transform="matrix(1,0,0,1,-135,-95)" stroke-linecap="butt">
      <path fill="none" d="M562 430 L642 430 L642 470 L562 470 Z" clip-path="url(#clipPath2)"/>
      <text x="578.6621" xml:space="preserve" y="447.3633" clip-path="url(#clipPath2)" font-family="sans-serif" stroke="none">Mémoire</text>
      <text x="586.3232" xml:space="preserve" y="462.0645" clip-path="url(#clipPath2)" font-family="sans-serif" stroke="none">locale</text>
    </g>
    <g fill="url(#linearGradient7)" text-rendering="geometricPrecision" shape-rendering="geometricPrecision" transform="matrix(1,0,0,1,-135,-95)" stroke="url(#linearGradient7)">
      <path d="M315 358.75 L465 358.75 L465 398.75 L315 398.75 Z" stroke="none" clip-path="url(#clipPath2)"/>
    </g>
    <g text-rendering="geometricPrecision" stroke-miterlimit="1.45" shape-rendering="geometricPrecision" transform="matrix(1,0,0,1,-135,-95)" stroke-linecap="butt">
      <path fill="none" d="M315 358.75 L465 358.75 L465 398.75 L315 398.75 Z" clip-path="url(#clipPath2)"/>
      <text x="354.3252" y="383.4639" clip-path="url(#clipPath2)" font-family="sans-serif" stroke="none" font-weight="bold" xml:space="preserve">Thread (0, 0)</text>
    </g>
    <g fill="url(#linearGradient8)" text-rendering="geometricPrecision" shape-rendering="geometricPrecision" transform="matrix(1,0,0,1,-135,-95)" stroke="url(#linearGradient8)">
      <path d="M525 358.75 L675 358.75 L675 398.75 L525 398.75 Z" stroke="none" clip-path="url(#clipPath2)"/>
    </g>
    <g text-rendering="geometricPrecision" stroke-miterlimit="1.45" shape-rendering="geometricPrecision" transform="matrix(1,0,0,1,-135,-95)" stroke-linecap="butt">
      <path fill="none" d="M525 358.75 L675 358.75 L675 398.75 L525 398.75 Z" clip-path="url(#clipPath2)"/>
      <text x="564.3252" y="383.4639" clip-path="url(#clipPath2)" font-family="sans-serif" stroke="none" font-weight="bold" xml:space="preserve">Thread (0, 1)</text>
    </g>
    <g text-rendering="geometricPrecision" stroke-miterlimit="1.45" stroke-dasharray="4,3,0,3" shape-rendering="geometricPrecision" transform="matrix(1,0,0,1,-135,-95)" stroke-linecap="round">
      <path fill="none" d="M722 193.125 L1122 193.125 L1122 493.125 L722 493.125 Z" clip-path="url(#clipPath2)"/>
    </g>
    <g stroke-linecap="butt" transform="matrix(1,0,0,1,-135,-95)" text-rendering="geometricPrecision" font-family="sans-serif" shape-rendering="geometricPrecision" font-weight="bold" stroke-miterlimit="1.45">
      <text x="728" xml:space="preserve" y="211.1895" clip-path="url(#clipPath2)" stroke="none">Bloc 1</text>
    </g>
    <g fill="url(#linearGradient9)" text-rendering="geometricPrecision" shape-rendering="geometricPrecision" transform="matrix(1,0,0,1,-135,-95)" stroke="url(#linearGradient9)">
      <path d="M772 220 L1072 220 L1072 260 L772 260 Z" stroke="none" clip-path="url(#clipPath2)"/>
    </g>
    <g text-rendering="geometricPrecision" stroke-miterlimit="1.45" shape-rendering="geometricPrecision" transform="matrix(1,0,0,1,-135,-95)" stroke-linecap="butt">
      <path fill="none" d="M772 220 L1072 220 L1072 260 L772 260 Z" clip-path="url(#clipPath2)"/>
      <text x="873.3086" xml:space="preserve" y="244.7139" clip-path="url(#clipPath2)" font-family="sans-serif" stroke="none">Mémoire partagée</text>
    </g>
    <g fill="url(#linearGradient10)" text-rendering="geometricPrecision" shape-rendering="geometricPrecision" transform="matrix(1,0,0,1,-135,-95)" stroke="url(#linearGradient10)">
      <path d="M772 287.5 L852 287.5 L852 327.5 L772 327.5 Z" stroke="none" clip-path="url(#clipPath2)"/>
    </g>
    <g text-rendering="geometricPrecision" stroke-miterlimit="1.45" shape-rendering="geometricPrecision" transform="matrix(1,0,0,1,-135,-95)" stroke-linecap="butt">
      <path fill="none" d="M772 287.5 L852 287.5 L852 327.5 L772 327.5 Z" clip-path="url(#clipPath2)"/>
      <text x="786.6582" xml:space="preserve" y="312.2139" clip-path="url(#clipPath2)" font-family="sans-serif" stroke="none">Registres</text>
    </g>
    <g fill="url(#linearGradient11)" text-rendering="geometricPrecision" shape-rendering="geometricPrecision" transform="matrix(1,0,0,1,-135,-95)" stroke="url(#linearGradient11)">
      <path d="M992 287.5 L1072 287.5 L1072 327.5 L992 327.5 Z" stroke="none" clip-path="url(#clipPath2)"/>
    </g>
    <g text-rendering="geometricPrecision" stroke-miterlimit="1.45" shape-rendering="geometricPrecision" transform="matrix(1,0,0,1,-135,-95)" stroke-linecap="butt">
      <path fill="none" d="M992 287.5 L1072 287.5 L1072 327.5 L992 327.5 Z" clip-path="url(#clipPath2)"/>
      <text x="1006.6582" xml:space="preserve" y="312.2139" clip-path="url(#clipPath2)" font-family="sans-serif" stroke="none">Registres</text>
    </g>
    <g fill="url(#linearGradient12)" text-rendering="geometricPrecision" shape-rendering="geometricPrecision" transform="matrix(1,0,0,1,-135,-95)" stroke="url(#linearGradient12)">
      <path d="M772 430 L852 430 L852 470 L772 470 Z" stroke="none" clip-path="url(#clipPath2)"/>
    </g>
    <g text-rendering="geometricPrecision" stroke-miterlimit="1.45" shape-rendering="geometricPrecision" transform="matrix(1,0,0,1,-135,-95)" stroke-linecap="butt">
      <path fill="none" d="M772 430 L852 430 L852 470 L772 470 Z" clip-path="url(#clipPath2)"/>
      <text x="788.6621" xml:space="preserve" y="447.3633" clip-path="url(#clipPath2)" font-family="sans-serif" stroke="none">Mémoire</text>
      <text x="796.3232" xml:space="preserve" y="462.0645" clip-path="url(#clipPath2)" font-family="sans-serif" stroke="none">locale</text>
    </g>
    <g fill="url(#linearGradient13)" text-rendering="geometricPrecision" shape-rendering="geometricPrecision" transform="matrix(1,0,0,1,-135,-95)" stroke="url(#linearGradient13)">
      <path d="M992 430 L1072 430 L1072 470 L992 470 Z" stroke="none" clip-path="url(#clipPath2)"/>
    </g>
    <g text-rendering="geometricPrecision" stroke-miterlimit="1.45" shape-rendering="geometricPrecision" transform="matrix(1,0,0,1,-135,-95)" stroke-linecap="butt">
      <path fill="none" d="M992 430 L1072 430 L1072 470 L992 470 Z" clip-path="url(#clipPath2)"/>
      <text x="1008.6621" xml:space="preserve" y="447.3633" clip-path="url(#clipPath2)" font-family="sans-serif" stroke="none">Mémoire</text>
      <text x="1016.3232" xml:space="preserve" y="462.0645" clip-path="url(#clipPath2)" font-family="sans-serif" stroke="none">locale</text>
    </g>
    <g fill="url(#linearGradient14)" text-rendering="geometricPrecision" shape-rendering="geometricPrecision" transform="matrix(1,0,0,1,-135,-95)" stroke="url(#linearGradient14)">
      <path d="M745 358.75 L895 358.75 L895 398.75 L745 398.75 Z" stroke="none" clip-path="url(#clipPath2)"/>
    </g>
    <g text-rendering="geometricPrecision" stroke-miterlimit="1.45" shape-rendering="geometricPrecision" transform="matrix(1,0,0,1,-135,-95)" stroke-linecap="butt">
      <path fill="none" d="M745 358.75 L895 358.75 L895 398.75 L745 398.75 Z" clip-path="url(#clipPath2)"/>
      <text x="784.3252" y="383.4639" clip-path="url(#clipPath2)" font-family="sans-serif" stroke="none" font-weight="bold" xml:space="preserve">Thread (1, 0)</text>
    </g>
    <g fill="url(#linearGradient15)" text-rendering="geometricPrecision" shape-rendering="geometricPrecision" transform="matrix(1,0,0,1,-135,-95)" stroke="url(#linearGradient15)">
      <path d="M955 358.75 L1105 358.75 L1105 398.75 L955 398.75 Z" stroke="none" clip-path="url(#clipPath2)"/>
    </g>
    <g text-rendering="geometricPrecision" stroke-miterlimit="1.45" shape-rendering="geometricPrecision" transform="matrix(1,0,0,1,-135,-95)" stroke-linecap="butt">
      <path fill="none" d="M955 358.75 L1105 358.75 L1105 398.75 L955 398.75 Z" clip-path="url(#clipPath2)"/>
      <text x="994.3252" y="383.4639" clip-path="url(#clipPath2)" font-family="sans-serif" stroke="none" font-weight="bold" xml:space="preserve">Thread (1, 1)</text>
    </g>
    <g fill="url(#linearGradient16)" text-rendering="geometricPrecision" shape-rendering="geometricPrecision" transform="matrix(1,0,0,1,-135,-95)" stroke="url(#linearGradient16)">
      <path d="M292 520 L1122 520 L1122 560 L292 560 Z" stroke="none" clip-path="url(#clipPath2)"/>
    </g>
    <g text-rendering="geometricPrecision" stroke-miterlimit="1.45" shape-rendering="geometricPrecision" transform="matrix(1,0,0,1,-135,-95)" stroke-linecap="butt">
      <path fill="none" d="M292 520 L1122 520 L1122 560 L292 560 Z" clip-path="url(#clipPath2)"/>
      <text x="662.6445" xml:space="preserve" y="544.7139" clip-path="url(#clipPath2)" font-family="sans-serif" stroke="none">Mémoire globale</text>
    </g>
    <g fill="url(#linearGradient17)" text-rendering="geometricPrecision" shape-rendering="geometricPrecision" transform="matrix(1,0,0,1,-135,-95)" stroke="url(#linearGradient17)">
      <path d="M292 586.875 L1122 586.875 L1122 626.875 L292 626.875 Z" stroke="none" clip-path="url(#clipPath2)"/>
    </g>
    <g text-rendering="geometricPrecision" stroke-miterlimit="1.45" shape-rendering="geometricPrecision" transform="matrix(1,0,0,1,-135,-95)" stroke-linecap="butt">
      <path fill="none" d="M292 586.875 L1122 586.875 L1122 626.875 L292 626.875 Z" clip-path="url(#clipPath2)"/>
      <text x="648.9775" xml:space="preserve" y="611.5889" clip-path="url(#clipPath2)" font-family="sans-serif" stroke="none">Mémoires spécifiques</text>
    </g>
    <g fill="url(#linearGradient18)" text-rendering="geometricPrecision" shape-rendering="geometricPrecision" transform="matrix(1,0,0,1,-135,-95)" stroke="url(#linearGradient18)">
      <path d="M292 653.75 L332 653.75 L332 693.75 L292 693.75 Z" stroke="none" clip-path="url(#clipPath2)"/>
    </g>
    <g text-rendering="geometricPrecision" stroke-miterlimit="1.45" shape-rendering="geometricPrecision" transform="matrix(1,0,0,1,-135,-95)" stroke-linecap="butt">
      <path fill="none" d="M292 653.75 L332 653.75 L332 693.75 L292 693.75 Z" clip-path="url(#clipPath2)"/>
      <text x="344" xml:space="preserve" y="678.4639" clip-path="url(#clipPath2)" font-family="sans-serif" stroke="none">Mémoire</text>
    </g>
    <g fill="url(#linearGradient19)" text-rendering="geometricPrecision" shape-rendering="geometricPrecision" transform="matrix(1,0,0,1,-135,-95)" stroke="url(#linearGradient19)">
      <path d="M722 653.75 L762 653.75 L762 693.75 L722 693.75 Z" stroke="none" clip-path="url(#clipPath2)"/>
    </g>
    <g text-rendering="geometricPrecision" stroke-miterlimit="1.45" shape-rendering="geometricPrecision" transform="matrix(1,0,0,1,-135,-95)" stroke-linecap="butt">
      <path fill="none" d="M722 653.75 L762 653.75 L762 693.75 L722 693.75 Z" clip-path="url(#clipPath2)"/>
      <text x="774" y="678.4639" clip-path="url(#clipPath2)" font-family="sans-serif" stroke="none" font-weight="bold" xml:space="preserve">Unité de traitement</text>
    </g>
    <g fill="url(#linearGradient20)" text-rendering="geometricPrecision" shape-rendering="geometricPrecision" transform="matrix(1,0,0,1,-135,-95)" stroke="url(#linearGradient20)">
      <path d="M140 415.9784 L220 415.9784 L220 636.1384 L140 636.1384 Z" stroke="none" clip-path="url(#clipPath2)"/>
    </g>
    <g stroke-linecap="butt" transform="matrix(1,0,0,1,-135,-95)" fill="white" text-rendering="geometricPrecision" font-family="sans-serif" shape-rendering="geometricPrecision" stroke="white" font-weight="bold" stroke-miterlimit="1.45">
      <text x="167.332" xml:space="preserve" y="434.0428" clip-path="url(#clipPath2)" stroke="none">CPU</text>
    </g>
    <g text-rendering="geometricPrecision" stroke-miterlimit="1.45" shape-rendering="geometricPrecision" transform="matrix(1,0,0,1,-135,-95)" stroke-linecap="butt">
      <path fill="none" d="M443 260.0016 L443 350.7559" clip-path="url(#clipPath2)"/>
    </g>
    <g text-rendering="geometricPrecision" stroke-miterlimit="1.45" shape-rendering="geometricPrecision" transform="matrix(1,0,0,1,-135,-95)" stroke-linecap="butt">
      <path d="M443 358.7559 L448 346.7559 L443 349.7559 L438 346.7559 Z" stroke="none" clip-path="url(#clipPath2)"/>
      <path fill="none" d="M382 327.5293 L382 350.7351" clip-path="url(#clipPath2)"/>
      <path d="M382 358.7351 L387 346.7351 L382 349.7351 L377 346.7351 Z" clip-path="url(#clipPath2)" stroke="none"/>
      <path fill="none" d="M382 430.0302 L382 406.7061" clip-path="url(#clipPath2)"/>
      <path d="M382 398.7061 L377 410.7061 L382 407.7061 L387 410.7061 Z" clip-path="url(#clipPath2)" stroke="none"/>
      <path fill="none" d="M443 358.7367 L443 267.9957" clip-path="url(#clipPath2)"/>
      <path d="M443 259.9957 L438 271.9957 L443 268.9957 L448 271.9957 Z" clip-path="url(#clipPath2)" stroke="none"/>
      <path fill="none" d="M382 358.769 L382 335.5019" clip-path="url(#clipPath2)"/>
      <path d="M382 327.5019 L377 339.5019 L382 336.5019 L387 339.5019 Z" clip-path="url(#clipPath2)" stroke="none"/>
      <path fill="none" d="M382 398.773 L382 422.0145" clip-path="url(#clipPath2)"/>
      <path d="M382 430.0145 L387 418.0145 L382 421.0145 L377 418.0145 Z" clip-path="url(#clipPath2)" stroke="none"/>
      <path fill="none" d="M545 260.0096 L545 350.76" clip-path="url(#clipPath2)"/>
      <path d="M545 358.76 L550 346.76 L545 349.76 L540 346.76 Z" clip-path="url(#clipPath2)" stroke="none"/>
      <path fill="none" d="M602 327.5041 L602 350.749" clip-path="url(#clipPath2)"/>
      <path d="M602 358.749 L607 346.749 L602 349.749 L597 346.749 Z" clip-path="url(#clipPath2)" stroke="none"/>
      <path fill="none" d="M602 430.0302 L602 406.7061" clip-path="url(#clipPath2)"/>
      <path d="M602 398.7061 L597 410.7061 L602 407.7061 L607 410.7061 Z" clip-path="url(#clipPath2)" stroke="none"/>
      <path fill="none" d="M545 358.7512 L545 268.0209" clip-path="url(#clipPath2)"/>
      <path d="M545 260.0209 L540 272.0209 L545 269.0209 L550 272.0209 Z" clip-path="url(#clipPath2)" stroke="none"/>
      <path fill="none" d="M602 358.7389 L602 335.4998" clip-path="url(#clipPath2)"/>
      <path d="M602 327.4998 L597 339.4998 L602 336.4998 L607 339.4998 Z" clip-path="url(#clipPath2)" stroke="none"/>
      <path fill="none" d="M602 398.7707 L602 422.0135" clip-path="url(#clipPath2)"/>
      <path d="M602 430.0135 L607 418.0135 L602 421.0135 L597 418.0135 Z" clip-path="url(#clipPath2)" stroke="none"/>
      <path fill="none" d="M873 260.0016 L873 350.7559" clip-path="url(#clipPath2)"/>
      <path d="M873 358.7559 L878 346.7559 L873 349.7559 L868 346.7559 Z" clip-path="url(#clipPath2)" stroke="none"/>
      <path fill="none" d="M812 327.5293 L812 350.7351" clip-path="url(#clipPath2)"/>
      <path d="M812 358.7351 L817 346.7351 L812 349.7351 L807 346.7351 Z" clip-path="url(#clipPath2)" stroke="none"/>
      <path fill="none" d="M812 430.0302 L812 406.7061" clip-path="url(#clipPath2)"/>
      <path d="M812 398.7061 L807 410.7061 L812 407.7061 L817 410.7061 Z" clip-path="url(#clipPath2)" stroke="none"/>
      <path fill="none" d="M873 358.7367 L873 267.9957" clip-path="url(#clipPath2)"/>
      <path d="M873 259.9957 L868 271.9957 L873 268.9957 L878 271.9957 Z" clip-path="url(#clipPath2)" stroke="none"/>
      <path fill="none" d="M812 358.769 L812 335.5019" clip-path="url(#clipPath2)"/>
      <path d="M812 327.5019 L807 339.5019 L812 336.5019 L817 339.5019 Z" clip-path="url(#clipPath2)" stroke="none"/>
      <path fill="none" d="M812 398.773 L812 422.0145" clip-path="url(#clipPath2)"/>
      <path d="M812 430.0145 L817 418.0145 L812 421.0145 L807 418.0145 Z" clip-path="url(#clipPath2)" stroke="none"/>
      <path fill="none" d="M975 260.0096 L975 350.76" clip-path="url(#clipPath2)"/>
      <path d="M975 358.76 L980 346.76 L975 349.76 L970 346.76 Z" clip-path="url(#clipPath2)" stroke="none"/>
      <path fill="none" d="M1032 327.5041 L1032 350.749" clip-path="url(#clipPath2)"/>
      <path d="M1032 358.749 L1037 346.749 L1032 349.749 L1027 346.749 Z" clip-path="url(#clipPath2)" stroke="none"/>
      <path fill="none" d="M1032 430.0302 L1032 406.7061" clip-path="url(#clipPath2)"/>
      <path d="M1032 398.7061 L1027 410.7061 L1032 407.7061 L1037 410.7061 Z" clip-path="url(#clipPath2)" stroke="none"/>
      <path fill="none" d="M975 358.7512 L975 268.0209" clip-path="url(#clipPath2)"/>
      <path d="M975 260.0209 L970 272.0209 L975 269.0209 L980 272.0209 Z" clip-path="url(#clipPath2)" stroke="none"/>
      <path fill="none" d="M1032 358.7389 L1032 335.4998" clip-path="url(#clipPath2)"/>
      <path d="M1032 327.4998 L1027 339.4998 L1032 336.4998 L1037 339.4998 Z" clip-path="url(#clipPath2)" stroke="none"/>
      <path fill="none" d="M1032 398.7707 L1032 422.0135" clip-path="url(#clipPath2)"/>
      <path d="M1032 430.0135 L1037 418.0135 L1032 421.0135 L1027 418.0135 Z" clip-path="url(#clipPath2)" stroke="none"/>
      <path fill="none" d="M443.4229 406.7773 L443.4229 511.972" clip-path="url(#clipPath2)"/>
      <path d="M443.4229 398.7773 L438.4229 410.7773 L443.4229 407.7773 L448.4229 410.7773 Z" clip-path="url(#clipPath2)" stroke="none"/>
      <path d="M443.4229 519.972 L448.4229 507.972 L443.4229 510.972 L438.4229 507.972 Z" clip-path="url(#clipPath2)" stroke="none"/>
      <path fill="none" d="M656.2229 406.7212 L656.2229 511.9972" clip-path="url(#clipPath2)"/>
      <path d="M656.2229 398.7212 L651.2229 410.7212 L656.2229 407.7212 L661.2229 410.7212 Z" clip-path="url(#clipPath2)" stroke="none"/>
      <path d="M656.2229 519.9972 L661.2229 507.9972 L656.2229 510.9972 L651.2229 507.9972 Z" clip-path="url(#clipPath2)" stroke="none"/>
      <path fill="none" d="M874.3341 406.7849 L874.3341 512.0148" clip-path="url(#clipPath2)"/>
      <path d="M874.3341 398.7849 L869.3341 410.7849 L874.3341 407.7849 L879.3341 410.7849 Z" clip-path="url(#clipPath2)" stroke="none"/>
      <path d="M874.3341 520.0148 L879.3341 508.0148 L874.3341 511.0148 L869.3341 508.0148 Z" clip-path="url(#clipPath2)" stroke="none"/>
      <path fill="none" d="M1089.3741 406.7773 L1089.3741 511.9731" clip-path="url(#clipPath2)"/>
      <path d="M1089.3741 398.7773 L1084.3741 410.7773 L1089.3741 407.7773 L1094.3741 410.7773 Z" clip-path="url(#clipPath2)" stroke="none"/>
      <path d="M1089.3741 519.9731 L1094.3741 507.9731 L1089.3741 510.9731 L1084.3741 507.9731 Z" clip-path="url(#clipPath2)" stroke="none"/>
      <path fill="none" d="M327.4229 406.7673 L327.4229 586.8707" clip-path="url(#clipPath2)"/>
      <path d="M327.4229 398.7673 L322.4229 410.7673 L327.4229 407.7673 L332.4229 410.7673 Z" clip-path="url(#clipPath2)" stroke="none"/>
      <path fill="none" d="M546.6229 586.8994 L546.6229 406.7374" clip-path="url(#clipPath2)"/>
      <path d="M546.6229 398.7374 L541.6229 410.7374 L546.6229 407.7374 L551.6229 410.7374 Z" clip-path="url(#clipPath2)" stroke="none"/>
      <path fill="none" d="M780 586.8682 L780 510 L757.0805 510 L757.0805 406.7513" clip-path="url(#clipPath2)"/>
      <path d="M757.0805 398.7513 L752.0805 410.7513 L757.0805 407.7513 L762.0805 410.7513 Z" clip-path="url(#clipPath2)" stroke="none"/>
      <path fill="none" d="M974.2752 586.8481 L974.2752 406.7303" clip-path="url(#clipPath2)"/>
      <path d="M974.2752 398.7303 L969.2752 410.7303 L974.2752 407.7303 L979.2752 410.7303 Z" clip-path="url(#clipPath2)" stroke="none"/>
      <path fill="none" d="M283.9871 540 L227.9749 540" clip-path="url(#clipPath2)"/>
      <path d="M291.9871 540 L279.9871 535 L282.9871 540 L279.9871 545 Z" clip-path="url(#clipPath2)" stroke="none"/>
      <path d="M219.9749 540 L231.9749 545 L228.9749 540 L231.9749 535 Z" clip-path="url(#clipPath2)" stroke="none"/>
      <path fill="none" d="M283.9926 606.875 L228.0044 606.875" clip-path="url(#clipPath2)"/>
      <path d="M291.9926 606.875 L279.9926 601.875 L282.9926 606.875 L279.9926 611.875 Z" clip-path="url(#clipPath2)" stroke="none"/>
      <path d="M220.0044 606.875 L232.0044 611.875 L229.0044 606.875 L232.0044 601.875 Z" clip-path="url(#clipPath2)" stroke="none"/>
    </g>
  </g>
</svg>
