<svg
xmlns="http://www.w3.org/2000/svg"
xmlns:xlink="http://www.w3.org/1999/xlink"
width="243mm" height="138mm" viewBox="0 0 24300 13800">
 <path fill="rgb(255,255,255)" stroke="none" d="M 12139,13798 L 6,13798 6,-1 24272,-1 24272,13798 12139,13798 Z"/>
 <path fill="none" stroke="rgb(0,0,0)" stroke-width="30" stroke-linejoin="round" d="M 12210,12057 L 3282,12057 3282,1438 21138,1438 21138,12057 12210,12057 Z"/>
 <path fill="none" stroke="rgb(0,0,0)" stroke-width="30" stroke-linejoin="round" d="M 21138,12056 L 3282,12056"/>
 <path fill="none" stroke="rgb(0,0,0)" stroke-width="30" stroke-linejoin="round" d="M 21138,10994 L 3282,10994"/>
 <path fill="none" stroke="rgb(0,0,0)" stroke-width="30" stroke-linejoin="round" d="M 21138,9932 L 3282,9932"/>
 <path fill="none" stroke="rgb(0,0,0)" stroke-width="30" stroke-linejoin="round" d="M 21138,8870 L 3282,8870"/>
 <path fill="none" stroke="rgb(0,0,0)" stroke-width="30" stroke-linejoin="round" d="M 21138,7807 L 3282,7807"/>
 <path fill="none" stroke="rgb(0,0,0)" stroke-width="30" stroke-linejoin="round" d="M 21138,6746 L 3282,6746"/>
 <path fill="none" stroke="rgb(0,0,0)" stroke-width="30" stroke-linejoin="round" d="M 21138,5684 L 3282,5684"/>
 <path fill="none" stroke="rgb(0,0,0)" stroke-width="30" stroke-linejoin="round" d="M 21138,4622 L 3282,4622"/>
 <path fill="none" stroke="rgb(0,0,0)" stroke-width="30" stroke-linejoin="round" d="M 21138,3560 L 3282,3560"/>
 <path fill="none" stroke="rgb(0,0,0)" stroke-width="30" stroke-linejoin="round" d="M 21138,2498 L 3282,2498"/>
 <path fill="none" stroke="rgb(0,0,0)" stroke-width="30" stroke-linejoin="round" d="M 21138,1436 L 3282,1436"/>
 <path fill="none" stroke="rgb(0,0,0)" stroke-width="30" stroke-linejoin="round" d="M 3282,12206 L 3282,12056"/>
 <path fill="none" stroke="rgb(0,0,0)" stroke-width="30" stroke-linejoin="round" d="M 3282,12206 L 3282,12056"/>
 <path fill="none" stroke="rgb(0,0,0)" stroke-width="30" stroke-linejoin="round" d="M 3697,12206 L 3697,12056"/>
 <path fill="none" stroke="rgb(0,0,0)" stroke-width="30" stroke-linejoin="round" d="M 3697,12206 L 3697,12056"/>
 <path fill="none" stroke="rgb(0,0,0)" stroke-width="30" stroke-linejoin="round" d="M 4112,12206 L 4112,12056"/>
 <path fill="none" stroke="rgb(0,0,0)" stroke-width="30" stroke-linejoin="round" d="M 4112,12206 L 4112,12056"/>
 <path fill="none" stroke="rgb(0,0,0)" stroke-width="30" stroke-linejoin="round" d="M 4527,12206 L 4527,12056"/>
 <path fill="none" stroke="rgb(0,0,0)" stroke-width="30" stroke-linejoin="round" d="M 4527,12206 L 4527,12056"/>
 <path fill="none" stroke="rgb(0,0,0)" stroke-width="30" stroke-linejoin="round" d="M 4943,12206 L 4943,12056"/>
 <path fill="none" stroke="rgb(0,0,0)" stroke-width="30" stroke-linejoin="round" d="M 4943,12206 L 4943,12056"/>
 <path fill="none" stroke="rgb(0,0,0)" stroke-width="30" stroke-linejoin="round" d="M 5358,12206 L 5358,12056"/>
 <path fill="none" stroke="rgb(0,0,0)" stroke-width="30" stroke-linejoin="round" d="M 5358,12206 L 5358,12056"/>
 <path fill="none" stroke="rgb(0,0,0)" stroke-width="30" stroke-linejoin="round" d="M 5773,12206 L 5773,12056"/>
 <path fill="none" stroke="rgb(0,0,0)" stroke-width="30" stroke-linejoin="round" d="M 5773,12206 L 5773,12056"/>
 <path fill="none" stroke="rgb(0,0,0)" stroke-width="30" stroke-linejoin="round" d="M 6188,12206 L 6188,12056"/>
 <path fill="none" stroke="rgb(0,0,0)" stroke-width="30" stroke-linejoin="round" d="M 6188,12206 L 6188,12056"/>
 <path fill="none" stroke="rgb(0,0,0)" stroke-width="30" stroke-linejoin="round" d="M 6604,12206 L 6604,12056"/>
 <path fill="none" stroke="rgb(0,0,0)" stroke-width="30" stroke-linejoin="round" d="M 6604,12206 L 6604,12056"/>
 <path fill="none" stroke="rgb(0,0,0)" stroke-width="30" stroke-linejoin="round" d="M 7019,12206 L 7019,12056"/>
 <path fill="none" stroke="rgb(0,0,0)" stroke-width="30" stroke-linejoin="round" d="M 7019,12206 L 7019,12056"/>
 <path fill="none" stroke="rgb(0,0,0)" stroke-width="30" stroke-linejoin="round" d="M 7434,12206 L 7434,12056"/>
 <path fill="none" stroke="rgb(0,0,0)" stroke-width="30" stroke-linejoin="round" d="M 7434,12206 L 7434,12056"/>
 <path fill="none" stroke="rgb(0,0,0)" stroke-width="30" stroke-linejoin="round" d="M 7850,12206 L 7850,12056"/>
 <path fill="none" stroke="rgb(0,0,0)" stroke-width="30" stroke-linejoin="round" d="M 7850,12206 L 7850,12056"/>
 <path fill="none" stroke="rgb(0,0,0)" stroke-width="30" stroke-linejoin="round" d="M 8265,12206 L 8265,12056"/>
 <path fill="none" stroke="rgb(0,0,0)" stroke-width="30" stroke-linejoin="round" d="M 8265,12206 L 8265,12056"/>
 <path fill="none" stroke="rgb(0,0,0)" stroke-width="30" stroke-linejoin="round" d="M 8680,12206 L 8680,12056"/>
 <path fill="none" stroke="rgb(0,0,0)" stroke-width="30" stroke-linejoin="round" d="M 8680,12206 L 8680,12056"/>
 <path fill="none" stroke="rgb(0,0,0)" stroke-width="30" stroke-linejoin="round" d="M 9095,12206 L 9095,12056"/>
 <path fill="none" stroke="rgb(0,0,0)" stroke-width="30" stroke-linejoin="round" d="M 9095,12206 L 9095,12056"/>
 <path fill="none" stroke="rgb(0,0,0)" stroke-width="30" stroke-linejoin="round" d="M 9511,12206 L 9511,12056"/>
 <path fill="none" stroke="rgb(0,0,0)" stroke-width="30" stroke-linejoin="round" d="M 9511,12206 L 9511,12056"/>
 <path fill="none" stroke="rgb(0,0,0)" stroke-width="30" stroke-linejoin="round" d="M 9926,12206 L 9926,12056"/>
 <path fill="none" stroke="rgb(0,0,0)" stroke-width="30" stroke-linejoin="round" d="M 9926,12206 L 9926,12056"/>
 <path fill="none" stroke="rgb(0,0,0)" stroke-width="30" stroke-linejoin="round" d="M 10341,12206 L 10341,12056"/>
 <path fill="none" stroke="rgb(0,0,0)" stroke-width="30" stroke-linejoin="round" d="M 10341,12206 L 10341,12056"/>
 <path fill="none" stroke="rgb(0,0,0)" stroke-width="30" stroke-linejoin="round" d="M 10757,12206 L 10757,12056"/>
 <path fill="none" stroke="rgb(0,0,0)" stroke-width="30" stroke-linejoin="round" d="M 10757,12206 L 10757,12056"/>
 <path fill="none" stroke="rgb(0,0,0)" stroke-width="30" stroke-linejoin="round" d="M 11172,12206 L 11172,12056"/>
 <path fill="none" stroke="rgb(0,0,0)" stroke-width="30" stroke-linejoin="round" d="M 11172,12206 L 11172,12056"/>
 <path fill="none" stroke="rgb(0,0,0)" stroke-width="30" stroke-linejoin="round" d="M 11587,12206 L 11587,12056"/>
 <path fill="none" stroke="rgb(0,0,0)" stroke-width="30" stroke-linejoin="round" d="M 11587,12206 L 11587,12056"/>
 <path fill="none" stroke="rgb(0,0,0)" stroke-width="30" stroke-linejoin="round" d="M 12002,12206 L 12002,12056"/>
 <path fill="none" stroke="rgb(0,0,0)" stroke-width="30" stroke-linejoin="round" d="M 12002,12206 L 12002,12056"/>
 <path fill="none" stroke="rgb(0,0,0)" stroke-width="30" stroke-linejoin="round" d="M 12417,12206 L 12417,12056"/>
 <path fill="none" stroke="rgb(0,0,0)" stroke-width="30" stroke-linejoin="round" d="M 12417,12206 L 12417,12056"/>
 <path fill="none" stroke="rgb(0,0,0)" stroke-width="30" stroke-linejoin="round" d="M 12832,12206 L 12832,12056"/>
 <path fill="none" stroke="rgb(0,0,0)" stroke-width="30" stroke-linejoin="round" d="M 12832,12206 L 12832,12056"/>
 <path fill="none" stroke="rgb(0,0,0)" stroke-width="30" stroke-linejoin="round" d="M 13247,12206 L 13247,12056"/>
 <path fill="none" stroke="rgb(0,0,0)" stroke-width="30" stroke-linejoin="round" d="M 13247,12206 L 13247,12056"/>
 <path fill="none" stroke="rgb(0,0,0)" stroke-width="30" stroke-linejoin="round" d="M 13662,12206 L 13662,12056"/>
 <path fill="none" stroke="rgb(0,0,0)" stroke-width="30" stroke-linejoin="round" d="M 13662,12206 L 13662,12056"/>
 <path fill="none" stroke="rgb(0,0,0)" stroke-width="30" stroke-linejoin="round" d="M 14078,12206 L 14078,12056"/>
 <path fill="none" stroke="rgb(0,0,0)" stroke-width="30" stroke-linejoin="round" d="M 14078,12206 L 14078,12056"/>
 <path fill="none" stroke="rgb(0,0,0)" stroke-width="30" stroke-linejoin="round" d="M 14493,12206 L 14493,12056"/>
 <path fill="none" stroke="rgb(0,0,0)" stroke-width="30" stroke-linejoin="round" d="M 14493,12206 L 14493,12056"/>
 <path fill="none" stroke="rgb(0,0,0)" stroke-width="30" stroke-linejoin="round" d="M 14908,12206 L 14908,12056"/>
 <path fill="none" stroke="rgb(0,0,0)" stroke-width="30" stroke-linejoin="round" d="M 14908,12206 L 14908,12056"/>
 <path fill="none" stroke="rgb(0,0,0)" stroke-width="30" stroke-linejoin="round" d="M 15324,12206 L 15324,12056"/>
 <path fill="none" stroke="rgb(0,0,0)" stroke-width="30" stroke-linejoin="round" d="M 15324,12206 L 15324,12056"/>
 <path fill="none" stroke="rgb(0,0,0)" stroke-width="30" stroke-linejoin="round" d="M 15739,12206 L 15739,12056"/>
 <path fill="none" stroke="rgb(0,0,0)" stroke-width="30" stroke-linejoin="round" d="M 15739,12206 L 15739,12056"/>
 <path fill="none" stroke="rgb(0,0,0)" stroke-width="30" stroke-linejoin="round" d="M 16154,12206 L 16154,12056"/>
 <path fill="none" stroke="rgb(0,0,0)" stroke-width="30" stroke-linejoin="round" d="M 16154,12206 L 16154,12056"/>
 <path fill="none" stroke="rgb(0,0,0)" stroke-width="30" stroke-linejoin="round" d="M 16569,12206 L 16569,12056"/>
 <path fill="none" stroke="rgb(0,0,0)" stroke-width="30" stroke-linejoin="round" d="M 16569,12206 L 16569,12056"/>
 <path fill="none" stroke="rgb(0,0,0)" stroke-width="30" stroke-linejoin="round" d="M 16985,12206 L 16985,12056"/>
 <path fill="none" stroke="rgb(0,0,0)" stroke-width="30" stroke-linejoin="round" d="M 16985,12206 L 16985,12056"/>
 <path fill="none" stroke="rgb(0,0,0)" stroke-width="30" stroke-linejoin="round" d="M 17400,12206 L 17400,12056"/>
 <path fill="none" stroke="rgb(0,0,0)" stroke-width="30" stroke-linejoin="round" d="M 17400,12206 L 17400,12056"/>
 <path fill="none" stroke="rgb(0,0,0)" stroke-width="30" stroke-linejoin="round" d="M 17815,12206 L 17815,12056"/>
 <path fill="none" stroke="rgb(0,0,0)" stroke-width="30" stroke-linejoin="round" d="M 17815,12206 L 17815,12056"/>
 <path fill="none" stroke="rgb(0,0,0)" stroke-width="30" stroke-linejoin="round" d="M 18231,12206 L 18231,12056"/>
 <path fill="none" stroke="rgb(0,0,0)" stroke-width="30" stroke-linejoin="round" d="M 18231,12206 L 18231,12056"/>
 <path fill="none" stroke="rgb(0,0,0)" stroke-width="30" stroke-linejoin="round" d="M 18646,12206 L 18646,12056"/>
 <path fill="none" stroke="rgb(0,0,0)" stroke-width="30" stroke-linejoin="round" d="M 18646,12206 L 18646,12056"/>
 <path fill="none" stroke="rgb(0,0,0)" stroke-width="30" stroke-linejoin="round" d="M 19061,12206 L 19061,12056"/>
 <path fill="none" stroke="rgb(0,0,0)" stroke-width="30" stroke-linejoin="round" d="M 19061,12206 L 19061,12056"/>
 <path fill="none" stroke="rgb(0,0,0)" stroke-width="30" stroke-linejoin="round" d="M 19476,12206 L 19476,12056"/>
 <path fill="none" stroke="rgb(0,0,0)" stroke-width="30" stroke-linejoin="round" d="M 19476,12206 L 19476,12056"/>
 <path fill="none" stroke="rgb(0,0,0)" stroke-width="30" stroke-linejoin="round" d="M 19892,12206 L 19892,12056"/>
 <path fill="none" stroke="rgb(0,0,0)" stroke-width="30" stroke-linejoin="round" d="M 19892,12206 L 19892,12056"/>
 <path fill="none" stroke="rgb(0,0,0)" stroke-width="30" stroke-linejoin="round" d="M 20307,12206 L 20307,12056"/>
 <path fill="none" stroke="rgb(0,0,0)" stroke-width="30" stroke-linejoin="round" d="M 20307,12206 L 20307,12056"/>
 <path fill="none" stroke="rgb(0,0,0)" stroke-width="30" stroke-linejoin="round" d="M 20722,12206 L 20722,12056"/>
 <path fill="none" stroke="rgb(0,0,0)" stroke-width="30" stroke-linejoin="round" d="M 20722,12206 L 20722,12056"/>
 <path fill="none" stroke="rgb(0,0,0)" stroke-width="30" stroke-linejoin="round" d="M 21138,12206 L 21138,12056"/>
 <path fill="none" stroke="rgb(0,0,0)" stroke-width="30" stroke-linejoin="round" d="M 21138,12206 L 21138,12056"/>
 <path fill="none" stroke="rgb(0,0,0)" stroke-width="30" stroke-linejoin="round" d="M 3282,12056 L 21138,12056"/>
 <path fill="none" stroke="rgb(0,0,0)" stroke-width="30" stroke-linejoin="round" d="M 3132,12056 L 3282,12056"/>
 <path fill="none" stroke="rgb(0,0,0)" stroke-width="30" stroke-linejoin="round" d="M 3132,12056 L 3282,12056"/>
 <path fill="none" stroke="rgb(0,0,0)" stroke-width="30" stroke-linejoin="round" d="M 3132,10994 L 3282,10994"/>
 <path fill="none" stroke="rgb(0,0,0)" stroke-width="30" stroke-linejoin="round" d="M 3132,10994 L 3282,10994"/>
 <path fill="none" stroke="rgb(0,0,0)" stroke-width="30" stroke-linejoin="round" d="M 3132,9932 L 3282,9932"/>
 <path fill="none" stroke="rgb(0,0,0)" stroke-width="30" stroke-linejoin="round" d="M 3132,9932 L 3282,9932"/>
 <path fill="none" stroke="rgb(0,0,0)" stroke-width="30" stroke-linejoin="round" d="M 3132,8870 L 3282,8870"/>
 <path fill="none" stroke="rgb(0,0,0)" stroke-width="30" stroke-linejoin="round" d="M 3132,8870 L 3282,8870"/>
 <path fill="none" stroke="rgb(0,0,0)" stroke-width="30" stroke-linejoin="round" d="M 3132,7807 L 3282,7807"/>
 <path fill="none" stroke="rgb(0,0,0)" stroke-width="30" stroke-linejoin="round" d="M 3132,7807 L 3282,7807"/>
 <path fill="none" stroke="rgb(0,0,0)" stroke-width="30" stroke-linejoin="round" d="M 3132,6746 L 3282,6746"/>
 <path fill="none" stroke="rgb(0,0,0)" stroke-width="30" stroke-linejoin="round" d="M 3132,6746 L 3282,6746"/>
 <path fill="none" stroke="rgb(0,0,0)" stroke-width="30" stroke-linejoin="round" d="M 3132,5684 L 3282,5684"/>
 <path fill="none" stroke="rgb(0,0,0)" stroke-width="30" stroke-linejoin="round" d="M 3132,5684 L 3282,5684"/>
 <path fill="none" stroke="rgb(0,0,0)" stroke-width="30" stroke-linejoin="round" d="M 3132,4622 L 3282,4622"/>
 <path fill="none" stroke="rgb(0,0,0)" stroke-width="30" stroke-linejoin="round" d="M 3132,4622 L 3282,4622"/>
 <path fill="none" stroke="rgb(0,0,0)" stroke-width="30" stroke-linejoin="round" d="M 3132,3560 L 3282,3560"/>
 <path fill="none" stroke="rgb(0,0,0)" stroke-width="30" stroke-linejoin="round" d="M 3132,3560 L 3282,3560"/>
 <path fill="none" stroke="rgb(0,0,0)" stroke-width="30" stroke-linejoin="round" d="M 3132,2498 L 3282,2498"/>
 <path fill="none" stroke="rgb(0,0,0)" stroke-width="30" stroke-linejoin="round" d="M 3132,2498 L 3282,2498"/>
 <path fill="none" stroke="rgb(0,0,0)" stroke-width="30" stroke-linejoin="round" d="M 3132,1436 L 3282,1436"/>
 <path fill="none" stroke="rgb(0,0,0)" stroke-width="30" stroke-linejoin="round" d="M 3132,1436 L 3282,1436"/>
 <path fill="none" stroke="rgb(0,0,0)" stroke-width="30" stroke-linejoin="round" d="M 3282,12056 L 3282,1437"/>
 <path fill="none" stroke="rgb(0,69,134)" stroke-width="80" stroke-linejoin="round" d="M 3282,7736 L 3697,7630 4112,7456 4527,7363 4943,7176 5358,7085 5773,6989 6188,6849 6604,6625 7019,6510 7434,6370 7850,6246 8265,6118 8680,5995 9095,5889 9511,5743 9926,5646 10341,5548 10757,5317 11172,5189 11587,5075 12002,4917 12417,4718 12832,4567 13247,4380 13662,4238 14078,4149 14493,4039 14908,3888 15324,3727 15739,3488 16154,3317 16569,3184 16985,3092 17400,3018 17815,2880 18231,2744 18646,2636 19061,2402 19476,2276 19892,2110 20307,2076 20722,2034 21138,1978"/>
 <path fill="rgb(0,69,134)" stroke="rgb(0,69,134)" stroke-linejoin="round" d="M 3157,7611 L 3157,7861 3407,7861 3407,7611 3157,7611 Z"/>
 <path fill="rgb(0,69,134)" stroke="rgb(0,69,134)" stroke-linejoin="round" d="M 3572,7505 L 3572,7755 3822,7755 3822,7505 3572,7505 Z"/>
 <path fill="rgb(0,69,134)" stroke="rgb(0,69,134)" stroke-linejoin="round" d="M 3987,7331 L 3987,7581 4237,7581 4237,7331 3987,7331 Z"/>
 <path fill="rgb(0,69,134)" stroke="rgb(0,69,134)" stroke-linejoin="round" d="M 4402,7238 L 4402,7488 4652,7488 4652,7238 4402,7238 Z"/>
 <path fill="rgb(0,69,134)" stroke="rgb(0,69,134)" stroke-linejoin="round" d="M 4818,7051 L 4818,7301 5068,7301 5068,7051 4818,7051 Z"/>
 <path fill="rgb(0,69,134)" stroke="rgb(0,69,134)" stroke-linejoin="round" d="M 5233,6960 L 5233,7210 5483,7210 5483,6960 5233,6960 Z"/>
 <path fill="rgb(0,69,134)" stroke="rgb(0,69,134)" stroke-linejoin="round" d="M 5648,6865 L 5648,7114 5898,7114 5898,6865 5648,6865 Z"/>
 <path fill="rgb(0,69,134)" stroke="rgb(0,69,134)" stroke-linejoin="round" d="M 6063,6724 L 6063,6973 6313,6973 6313,6724 6063,6724 Z"/>
 <path fill="rgb(0,69,134)" stroke="rgb(0,69,134)" stroke-linejoin="round" d="M 6479,6500 L 6479,6750 6729,6750 6729,6500 6479,6500 Z"/>
 <path fill="rgb(0,69,134)" stroke="rgb(0,69,134)" stroke-linejoin="round" d="M 6894,6385 L 6894,6635 7144,6635 7144,6385 6894,6385 Z"/>
 <path fill="rgb(0,69,134)" stroke="rgb(0,69,134)" stroke-linejoin="round" d="M 7309,6245 L 7309,6495 7559,6495 7559,6245 7309,6245 Z"/>
 <path fill="rgb(0,69,134)" stroke="rgb(0,69,134)" stroke-linejoin="round" d="M 7725,6121 L 7725,6371 7975,6371 7975,6121 7725,6121 Z"/>
 <path fill="rgb(0,69,134)" stroke="rgb(0,69,134)" stroke-linejoin="round" d="M 8140,5993 L 8140,6243 8390,6243 8390,5993 8140,5993 Z"/>
 <path fill="rgb(0,69,134)" stroke="rgb(0,69,134)" stroke-linejoin="round" d="M 8555,5870 L 8555,6120 8805,6120 8805,5870 8555,5870 Z"/>
 <path fill="rgb(0,69,134)" stroke="rgb(0,69,134)" stroke-linejoin="round" d="M 8970,5764 L 8970,6014 9220,6014 9220,5764 8970,5764 Z"/>
 <path fill="rgb(0,69,134)" stroke="rgb(0,69,134)" stroke-linejoin="round" d="M 9386,5618 L 9386,5868 9636,5868 9636,5618 9386,5618 Z"/>
 <path fill="rgb(0,69,134)" stroke="rgb(0,69,134)" stroke-linejoin="round" d="M 9801,5521 L 9801,5771 10051,5771 10051,5521 9801,5521 Z"/>
 <path fill="rgb(0,69,134)" stroke="rgb(0,69,134)" stroke-linejoin="round" d="M 10216,5423 L 10216,5673 10466,5673 10466,5423 10216,5423 Z"/>
 <path fill="rgb(0,69,134)" stroke="rgb(0,69,134)" stroke-linejoin="round" d="M 10632,5192 L 10632,5442 10882,5442 10882,5192 10632,5192 Z"/>
 <path fill="rgb(0,69,134)" stroke="rgb(0,69,134)" stroke-linejoin="round" d="M 11047,5064 L 11047,5314 11297,5314 11297,5064 11047,5064 Z"/>
 <path fill="rgb(0,69,134)" stroke="rgb(0,69,134)" stroke-linejoin="round" d="M 11462,4950 L 11462,5200 11712,5200 11712,4950 11462,4950 Z"/>
 <path fill="rgb(0,69,134)" stroke="rgb(0,69,134)" stroke-linejoin="round" d="M 11877,4792 L 11877,5042 12127,5042 12127,4792 11877,4792 Z"/>
 <path fill="rgb(0,69,134)" stroke="rgb(0,69,134)" stroke-linejoin="round" d="M 12292,4593 L 12292,4843 12542,4843 12542,4593 12292,4593 Z"/>
 <path fill="rgb(0,69,134)" stroke="rgb(0,69,134)" stroke-linejoin="round" d="M 12707,4442 L 12707,4692 12957,4692 12957,4442 12707,4442 Z"/>
 <path fill="rgb(0,69,134)" stroke="rgb(0,69,134)" stroke-linejoin="round" d="M 13122,4255 L 13122,4505 13372,4505 13372,4255 13122,4255 Z"/>
 <path fill="rgb(0,69,134)" stroke="rgb(0,69,134)" stroke-linejoin="round" d="M 13537,4113 L 13537,4363 13787,4363 13787,4113 13537,4113 Z"/>
 <path fill="rgb(0,69,134)" stroke="rgb(0,69,134)" stroke-linejoin="round" d="M 13953,4024 L 13953,4274 14203,4274 14203,4024 13953,4024 Z"/>
 <path fill="rgb(0,69,134)" stroke="rgb(0,69,134)" stroke-linejoin="round" d="M 14368,3914 L 14368,4164 14618,4164 14618,3914 14368,3914 Z"/>
 <path fill="rgb(0,69,134)" stroke="rgb(0,69,134)" stroke-linejoin="round" d="M 14783,3763 L 14783,4013 15033,4013 15033,3763 14783,3763 Z"/>
 <path fill="rgb(0,69,134)" stroke="rgb(0,69,134)" stroke-linejoin="round" d="M 15199,3602 L 15199,3852 15449,3852 15449,3602 15199,3602 Z"/>
 <path fill="rgb(0,69,134)" stroke="rgb(0,69,134)" stroke-linejoin="round" d="M 15614,3363 L 15614,3613 15864,3613 15864,3363 15614,3363 Z"/>
 <path fill="rgb(0,69,134)" stroke="rgb(0,69,134)" stroke-linejoin="round" d="M 16029,3192 L 16029,3442 16279,3442 16279,3192 16029,3192 Z"/>
 <path fill="rgb(0,69,134)" stroke="rgb(0,69,134)" stroke-linejoin="round" d="M 16444,3059 L 16444,3309 16694,3309 16694,3059 16444,3059 Z"/>
 <path fill="rgb(0,69,134)" stroke="rgb(0,69,134)" stroke-linejoin="round" d="M 16860,2967 L 16860,3217 17110,3217 17110,2967 16860,2967 Z"/>
 <path fill="rgb(0,69,134)" stroke="rgb(0,69,134)" stroke-linejoin="round" d="M 17275,2893 L 17275,3143 17525,3143 17525,2893 17275,2893 Z"/>
 <path fill="rgb(0,69,134)" stroke="rgb(0,69,134)" stroke-linejoin="round" d="M 17690,2755 L 17690,3005 17940,3005 17940,2755 17690,2755 Z"/>
 <path fill="rgb(0,69,134)" stroke="rgb(0,69,134)" stroke-linejoin="round" d="M 18106,2619 L 18106,2869 18356,2869 18356,2619 18106,2619 Z"/>
 <path fill="rgb(0,69,134)" stroke="rgb(0,69,134)" stroke-linejoin="round" d="M 18521,2511 L 18521,2761 18771,2761 18771,2511 18521,2511 Z"/>
 <path fill="rgb(0,69,134)" stroke="rgb(0,69,134)" stroke-linejoin="round" d="M 18936,2277 L 18936,2527 19186,2527 19186,2277 18936,2277 Z"/>
 <path fill="rgb(0,69,134)" stroke="rgb(0,69,134)" stroke-linejoin="round" d="M 19351,2151 L 19351,2401 19601,2401 19601,2151 19351,2151 Z"/>
 <path fill="rgb(0,69,134)" stroke="rgb(0,69,134)" stroke-linejoin="round" d="M 19767,1985 L 19767,2235 20017,2235 20017,1985 19767,1985 Z"/>
 <path fill="rgb(0,69,134)" stroke="rgb(0,69,134)" stroke-linejoin="round" d="M 20182,1951 L 20182,2201 20432,2201 20432,1951 20182,1951 Z"/>
 <path fill="rgb(0,69,134)" stroke="rgb(0,69,134)" stroke-linejoin="round" d="M 20597,1909 L 20597,2159 20847,2159 20847,1909 20597,1909 Z"/>
 <path fill="rgb(0,69,134)" stroke="rgb(0,69,134)" stroke-linejoin="round" d="M 21013,1853 L 21013,2103 21263,2103 21263,1853 21013,1853 Z"/>
 <path fill="none" stroke="rgb(255,66,14)" stroke-width="80" stroke-linejoin="round" d="M 3282,9113 L 3697,8770 4112,8705 4527,8625 4943,8625 5358,8625 5773,8506 6188,8269 6604,7777 7019,7673 7434,7673 7850,7673 8265,7461 8680,7408 9095,7408 9511,7071 9926,6896 10341,6896 10757,6158 11172,6158 11587,6158 12002,6158 12417,6158 12832,5844 13247,5540 13662,5209 14078,5209 14493,5209 14908,5209 15324,4963 15739,4611 16154,4576 16569,4576 16985,4362 17400,4362 17815,4188 18231,3654 18646,3538 19061,3334 19476,3300 19892,2998 20307,2998 20722,2998 21138,2998"/>
 <path fill="rgb(255,66,14)" stroke="rgb(255,66,14)" stroke-linejoin="round" d="M 3157,9113 L 3282,9238 3407,9113 3282,8988 3157,9113 Z"/>
 <path fill="rgb(255,66,14)" stroke="rgb(255,66,14)" stroke-linejoin="round" d="M 3572,8770 L 3697,8895 3822,8770 3697,8645 3572,8770 Z"/>
 <path fill="rgb(255,66,14)" stroke="rgb(255,66,14)" stroke-linejoin="round" d="M 3987,8705 L 4112,8830 4237,8705 4112,8580 3987,8705 Z"/>
 <path fill="rgb(255,66,14)" stroke="rgb(255,66,14)" stroke-linejoin="round" d="M 4402,8625 L 4527,8750 4652,8625 4527,8500 4402,8625 Z"/>
 <path fill="rgb(255,66,14)" stroke="rgb(255,66,14)" stroke-linejoin="round" d="M 4818,8625 L 4943,8750 5068,8625 4943,8500 4818,8625 Z"/>
 <path fill="rgb(255,66,14)" stroke="rgb(255,66,14)" stroke-linejoin="round" d="M 5233,8625 L 5358,8750 5483,8625 5358,8500 5233,8625 Z"/>
 <path fill="rgb(255,66,14)" stroke="rgb(255,66,14)" stroke-linejoin="round" d="M 5648,8506 L 5773,8631 5898,8506 5773,8381 5648,8506 Z"/>
 <path fill="rgb(255,66,14)" stroke="rgb(255,66,14)" stroke-linejoin="round" d="M 6063,8269 L 6188,8394 6313,8269 6188,8144 6063,8269 Z"/>
 <path fill="rgb(255,66,14)" stroke="rgb(255,66,14)" stroke-linejoin="round" d="M 6479,7777 L 6604,7902 6729,7777 6604,7652 6479,7777 Z"/>
 <path fill="rgb(255,66,14)" stroke="rgb(255,66,14)" stroke-linejoin="round" d="M 6894,7673 L 7019,7798 7144,7673 7019,7548 6894,7673 Z"/>
 <path fill="rgb(255,66,14)" stroke="rgb(255,66,14)" stroke-linejoin="round" d="M 7309,7673 L 7434,7798 7559,7673 7434,7548 7309,7673 Z"/>
 <path fill="rgb(255,66,14)" stroke="rgb(255,66,14)" stroke-linejoin="round" d="M 7725,7673 L 7850,7798 7975,7673 7850,7548 7725,7673 Z"/>
 <path fill="rgb(255,66,14)" stroke="rgb(255,66,14)" stroke-linejoin="round" d="M 8140,7461 L 8265,7586 8390,7461 8265,7336 8140,7461 Z"/>
 <path fill="rgb(255,66,14)" stroke="rgb(255,66,14)" stroke-linejoin="round" d="M 8555,7408 L 8680,7533 8805,7408 8680,7283 8555,7408 Z"/>
 <path fill="rgb(255,66,14)" stroke="rgb(255,66,14)" stroke-linejoin="round" d="M 8970,7408 L 9095,7533 9220,7408 9095,7283 8970,7408 Z"/>
 <path fill="rgb(255,66,14)" stroke="rgb(255,66,14)" stroke-linejoin="round" d="M 9386,7071 L 9511,7196 9636,7071 9511,6946 9386,7071 Z"/>
 <path fill="rgb(255,66,14)" stroke="rgb(255,66,14)" stroke-linejoin="round" d="M 9801,6896 L 9926,7020 10051,6896 9926,6771 9801,6896 Z"/>
 <path fill="rgb(255,66,14)" stroke="rgb(255,66,14)" stroke-linejoin="round" d="M 10216,6896 L 10341,7020 10466,6896 10341,6771 10216,6896 Z"/>
 <path fill="rgb(255,66,14)" stroke="rgb(255,66,14)" stroke-linejoin="round" d="M 10632,6158 L 10757,6283 10882,6158 10757,6033 10632,6158 Z"/>
 <path fill="rgb(255,66,14)" stroke="rgb(255,66,14)" stroke-linejoin="round" d="M 11047,6158 L 11172,6283 11297,6158 11172,6033 11047,6158 Z"/>
 <path fill="rgb(255,66,14)" stroke="rgb(255,66,14)" stroke-linejoin="round" d="M 11462,6158 L 11587,6283 11712,6158 11587,6033 11462,6158 Z"/>
 <path fill="rgb(255,66,14)" stroke="rgb(255,66,14)" stroke-linejoin="round" d="M 11877,6158 L 12002,6283 12127,6158 12002,6033 11877,6158 Z"/>
 <path fill="rgb(255,66,14)" stroke="rgb(255,66,14)" stroke-linejoin="round" d="M 12292,6158 L 12417,6283 12542,6158 12417,6033 12292,6158 Z"/>
 <path fill="rgb(255,66,14)" stroke="rgb(255,66,14)" stroke-linejoin="round" d="M 12707,5844 L 12832,5969 12957,5844 12832,5719 12707,5844 Z"/>
 <path fill="rgb(255,66,14)" stroke="rgb(255,66,14)" stroke-linejoin="round" d="M 13122,5540 L 13247,5665 13372,5540 13247,5415 13122,5540 Z"/>
 <path fill="rgb(255,66,14)" stroke="rgb(255,66,14)" stroke-linejoin="round" d="M 13537,5209 L 13662,5334 13787,5209 13662,5084 13537,5209 Z"/>
 <path fill="rgb(255,66,14)" stroke="rgb(255,66,14)" stroke-linejoin="round" d="M 13953,5209 L 14078,5334 14203,5209 14078,5084 13953,5209 Z"/>
 <path fill="rgb(255,66,14)" stroke="rgb(255,66,14)" stroke-linejoin="round" d="M 14368,5209 L 14493,5334 14618,5209 14493,5084 14368,5209 Z"/>
 <path fill="rgb(255,66,14)" stroke="rgb(255,66,14)" stroke-linejoin="round" d="M 14783,5209 L 14908,5334 15033,5209 14908,5084 14783,5209 Z"/>
 <path fill="rgb(255,66,14)" stroke="rgb(255,66,14)" stroke-linejoin="round" d="M 15199,4963 L 15324,5088 15449,4963 15324,4838 15199,4963 Z"/>
 <path fill="rgb(255,66,14)" stroke="rgb(255,66,14)" stroke-linejoin="round" d="M 15614,4611 L 15739,4736 15864,4611 15739,4486 15614,4611 Z"/>
 <path fill="rgb(255,66,14)" stroke="rgb(255,66,14)" stroke-linejoin="round" d="M 16029,4576 L 16154,4701 16279,4576 16154,4451 16029,4576 Z"/>
 <path fill="rgb(255,66,14)" stroke="rgb(255,66,14)" stroke-linejoin="round" d="M 16444,4576 L 16569,4701 16694,4576 16569,4451 16444,4576 Z"/>
 <path fill="rgb(255,66,14)" stroke="rgb(255,66,14)" stroke-linejoin="round" d="M 16860,4362 L 16985,4487 17110,4362 16985,4237 16860,4362 Z"/>
 <path fill="rgb(255,66,14)" stroke="rgb(255,66,14)" stroke-linejoin="round" d="M 17275,4362 L 17400,4487 17525,4362 17400,4237 17275,4362 Z"/>
 <path fill="rgb(255,66,14)" stroke="rgb(255,66,14)" stroke-linejoin="round" d="M 17690,4188 L 17815,4313 17940,4188 17815,4063 17690,4188 Z"/>
 <path fill="rgb(255,66,14)" stroke="rgb(255,66,14)" stroke-linejoin="round" d="M 18106,3654 L 18231,3779 18356,3654 18231,3529 18106,3654 Z"/>
 <path fill="rgb(255,66,14)" stroke="rgb(255,66,14)" stroke-linejoin="round" d="M 18521,3538 L 18646,3663 18771,3538 18646,3413 18521,3538 Z"/>
 <path fill="rgb(255,66,14)" stroke="rgb(255,66,14)" stroke-linejoin="round" d="M 18936,3334 L 19061,3459 19186,3334 19061,3209 18936,3334 Z"/>
 <path fill="rgb(255,66,14)" stroke="rgb(255,66,14)" stroke-linejoin="round" d="M 19351,3300 L 19476,3425 19601,3300 19476,3175 19351,3300 Z"/>
 <path fill="rgb(255,66,14)" stroke="rgb(255,66,14)" stroke-linejoin="round" d="M 19767,2998 L 19892,3123 20017,2998 19892,2873 19767,2998 Z"/>
 <path fill="rgb(255,66,14)" stroke="rgb(255,66,14)" stroke-linejoin="round" d="M 20182,2998 L 20307,3123 20432,2998 20307,2873 20182,2998 Z"/>
 <path fill="rgb(255,66,14)" stroke="rgb(255,66,14)" stroke-linejoin="round" d="M 20597,2998 L 20722,3123 20847,2998 20722,2873 20597,2998 Z"/>
 <path fill="rgb(255,66,14)" stroke="rgb(255,66,14)" stroke-linejoin="round" d="M 21013,2998 L 21138,3123 21263,2998 21138,2873 21013,2998 Z"/>
 <path fill="none" stroke="rgb(255,211,32)" stroke-width="80" stroke-linejoin="round" d="M 3282,11394 L 3697,11342 4112,11085 4527,10945 4943,10685 5358,10573 5773,10441 6188,10288 6604,10054 7019,9955 7434,9797 7850,9684 8265,9514 8680,9379 9095,9250 9511,9143 9926,9049 10341,8897 10757,8735 11172,8561 11587,8456 12002,8228 12417,8025 12832,7882 13247,7735 13662,7577 14078,7481 14493,7343 14908,7167 15324,6987 15739,6780 16154,6640 16569,6499 16985,6426 17400,6330 17815,6223 18231,6105 18646,5996 19061,5914 19476,5809 19892,5700 20307,5609 20722,5551 21138,5487"/>
 <path fill="rgb(255,211,32)" stroke="rgb(255,211,32)" stroke-linejoin="round" d="M 3157,11269 L 3282,11519 3407,11269 3157,11269 Z"/>
 <path fill="rgb(255,211,32)" stroke="rgb(255,211,32)" stroke-linejoin="round" d="M 3572,11217 L 3697,11467 3822,11217 3572,11217 Z"/>
 <path fill="rgb(255,211,32)" stroke="rgb(255,211,32)" stroke-linejoin="round" d="M 3987,10960 L 4112,11210 4237,10960 3987,10960 Z"/>
 <path fill="rgb(255,211,32)" stroke="rgb(255,211,32)" stroke-linejoin="round" d="M 4402,10820 L 4527,11070 4652,10820 4402,10820 Z"/>
 <path fill="rgb(255,211,32)" stroke="rgb(255,211,32)" stroke-linejoin="round" d="M 4818,10560 L 4943,10810 5068,10560 4818,10560 Z"/>
 <path fill="rgb(255,211,32)" stroke="rgb(255,211,32)" stroke-linejoin="round" d="M 5233,10448 L 5358,10698 5483,10448 5233,10448 Z"/>
 <path fill="rgb(255,211,32)" stroke="rgb(255,211,32)" stroke-linejoin="round" d="M 5648,10316 L 5773,10566 5898,10316 5648,10316 Z"/>
 <path fill="rgb(255,211,32)" stroke="rgb(255,211,32)" stroke-linejoin="round" d="M 6063,10163 L 6188,10413 6313,10163 6063,10163 Z"/>
 <path fill="rgb(255,211,32)" stroke="rgb(255,211,32)" stroke-linejoin="round" d="M 6479,9929 L 6604,10179 6729,9929 6479,9929 Z"/>
 <path fill="rgb(255,211,32)" stroke="rgb(255,211,32)" stroke-linejoin="round" d="M 6894,9830 L 7019,10080 7144,9830 6894,9830 Z"/>
 <path fill="rgb(255,211,32)" stroke="rgb(255,211,32)" stroke-linejoin="round" d="M 7309,9672 L 7434,9922 7559,9672 7309,9672 Z"/>
 <path fill="rgb(255,211,32)" stroke="rgb(255,211,32)" stroke-linejoin="round" d="M 7725,9559 L 7850,9809 7975,9559 7725,9559 Z"/>
 <path fill="rgb(255,211,32)" stroke="rgb(255,211,32)" stroke-linejoin="round" d="M 8140,9389 L 8265,9639 8390,9389 8140,9389 Z"/>
 <path fill="rgb(255,211,32)" stroke="rgb(255,211,32)" stroke-linejoin="round" d="M 8555,9254 L 8680,9504 8805,9254 8555,9254 Z"/>
 <path fill="rgb(255,211,32)" stroke="rgb(255,211,32)" stroke-linejoin="round" d="M 8970,9125 L 9095,9375 9220,9125 8970,9125 Z"/>
 <path fill="rgb(255,211,32)" stroke="rgb(255,211,32)" stroke-linejoin="round" d="M 9386,9018 L 9511,9268 9636,9018 9386,9018 Z"/>
 <path fill="rgb(255,211,32)" stroke="rgb(255,211,32)" stroke-linejoin="round" d="M 9801,8924 L 9926,9174 10051,8924 9801,8924 Z"/>
 <path fill="rgb(255,211,32)" stroke="rgb(255,211,32)" stroke-linejoin="round" d="M 10216,8772 L 10341,9022 10466,8772 10216,8772 Z"/>
 <path fill="rgb(255,211,32)" stroke="rgb(255,211,32)" stroke-linejoin="round" d="M 10632,8610 L 10757,8860 10882,8610 10632,8610 Z"/>
 <path fill="rgb(255,211,32)" stroke="rgb(255,211,32)" stroke-linejoin="round" d="M 11047,8436 L 11172,8686 11297,8436 11047,8436 Z"/>
 <path fill="rgb(255,211,32)" stroke="rgb(255,211,32)" stroke-linejoin="round" d="M 11462,8331 L 11587,8581 11712,8331 11462,8331 Z"/>
 <path fill="rgb(255,211,32)" stroke="rgb(255,211,32)" stroke-linejoin="round" d="M 11877,8103 L 12002,8353 12127,8103 11877,8103 Z"/>
 <path fill="rgb(255,211,32)" stroke="rgb(255,211,32)" stroke-linejoin="round" d="M 12292,7900 L 12417,8150 12542,7900 12292,7900 Z"/>
 <path fill="rgb(255,211,32)" stroke="rgb(255,211,32)" stroke-linejoin="round" d="M 12707,7757 L 12832,8007 12957,7757 12707,7757 Z"/>
 <path fill="rgb(255,211,32)" stroke="rgb(255,211,32)" stroke-linejoin="round" d="M 13122,7610 L 13247,7860 13372,7610 13122,7610 Z"/>
 <path fill="rgb(255,211,32)" stroke="rgb(255,211,32)" stroke-linejoin="round" d="M 13537,7452 L 13662,7702 13787,7452 13537,7452 Z"/>
 <path fill="rgb(255,211,32)" stroke="rgb(255,211,32)" stroke-linejoin="round" d="M 13953,7356 L 14078,7606 14203,7356 13953,7356 Z"/>
 <path fill="rgb(255,211,32)" stroke="rgb(255,211,32)" stroke-linejoin="round" d="M 14368,7218 L 14493,7468 14618,7218 14368,7218 Z"/>
 <path fill="rgb(255,211,32)" stroke="rgb(255,211,32)" stroke-linejoin="round" d="M 14783,7042 L 14908,7292 15033,7042 14783,7042 Z"/>
 <path fill="rgb(255,211,32)" stroke="rgb(255,211,32)" stroke-linejoin="round" d="M 15199,6863 L 15324,7112 15449,6863 15199,6863 Z"/>
 <path fill="rgb(255,211,32)" stroke="rgb(255,211,32)" stroke-linejoin="round" d="M 15614,6655 L 15739,6904 15864,6655 15614,6655 Z"/>
 <path fill="rgb(255,211,32)" stroke="rgb(255,211,32)" stroke-linejoin="round" d="M 16029,6515 L 16154,6765 16279,6515 16029,6515 Z"/>
 <path fill="rgb(255,211,32)" stroke="rgb(255,211,32)" stroke-linejoin="round" d="M 16444,6374 L 16569,6624 16694,6374 16444,6374 Z"/>
 <path fill="rgb(255,211,32)" stroke="rgb(255,211,32)" stroke-linejoin="round" d="M 16860,6301 L 16985,6551 17110,6301 16860,6301 Z"/>
 <path fill="rgb(255,211,32)" stroke="rgb(255,211,32)" stroke-linejoin="round" d="M 17275,6205 L 17400,6455 17525,6205 17275,6205 Z"/>
 <path fill="rgb(255,211,32)" stroke="rgb(255,211,32)" stroke-linejoin="round" d="M 17690,6098 L 17815,6348 17940,6098 17690,6098 Z"/>
 <path fill="rgb(255,211,32)" stroke="rgb(255,211,32)" stroke-linejoin="round" d="M 18106,5980 L 18231,6230 18356,5980 18106,5980 Z"/>
 <path fill="rgb(255,211,32)" stroke="rgb(255,211,32)" stroke-linejoin="round" d="M 18521,5871 L 18646,6121 18771,5871 18521,5871 Z"/>
 <path fill="rgb(255,211,32)" stroke="rgb(255,211,32)" stroke-linejoin="round" d="M 18936,5789 L 19061,6039 19186,5789 18936,5789 Z"/>
 <path fill="rgb(255,211,32)" stroke="rgb(255,211,32)" stroke-linejoin="round" d="M 19351,5684 L 19476,5934 19601,5684 19351,5684 Z"/>
 <path fill="rgb(255,211,32)" stroke="rgb(255,211,32)" stroke-linejoin="round" d="M 19767,5575 L 19892,5825 20017,5575 19767,5575 Z"/>
 <path fill="rgb(255,211,32)" stroke="rgb(255,211,32)" stroke-linejoin="round" d="M 20182,5484 L 20307,5734 20432,5484 20182,5484 Z"/>
 <path fill="rgb(255,211,32)" stroke="rgb(255,211,32)" stroke-linejoin="round" d="M 20597,5426 L 20722,5676 20847,5426 20597,5426 Z"/>
 <path fill="rgb(255,211,32)" stroke="rgb(255,211,32)" stroke-linejoin="round" d="M 21013,5362 L 21138,5612 21263,5362 21013,5362 Z"/>
 <text class="TextShape"><tspan class="TextParagraph" font-family="Arial, sans-serif" font-size="353px" font-weight="400"><tspan class="TextPosition" x="2885" y="13022"><tspan fill="rgb(0,0,0)" stroke="none">1993</tspan></tspan></tspan></text>
 <text class="TextShape"><tspan class="TextParagraph" font-family="Arial, sans-serif" font-size="353px" font-weight="400"><tspan class="TextPosition" x="4533" y="12624"><tspan fill="rgb(0,0,0)" stroke="none">1995</tspan></tspan></tspan></text>
 <text class="TextShape"><tspan class="TextParagraph" font-family="Arial, sans-serif" font-size="353px" font-weight="400"><tspan class="TextPosition" x="8685" y="13022"><tspan fill="rgb(0,0,0)" stroke="none">2000</tspan></tspan></tspan></text>
 <text class="TextShape"><tspan class="TextParagraph" font-family="Arial, sans-serif" font-size="353px" font-weight="400"><tspan class="TextPosition" x="12838" y="12624"><tspan fill="rgb(0,0,0)" stroke="none">2005</tspan></tspan></tspan></text>
 <text class="TextShape"><tspan class="TextParagraph" font-family="Arial, sans-serif" font-size="353px" font-weight="400"><tspan class="TextPosition" x="17004" y="13022"><tspan fill="rgb(0,0,0)" stroke="none">2010</tspan></tspan></tspan></text>
 <text class="TextShape"><tspan class="TextParagraph" font-family="Arial, sans-serif" font-size="353px" font-weight="400"><tspan class="TextPosition" x="20326" y="12624"><tspan fill="rgb(0,0,0)" stroke="none">2014</tspan></tspan></tspan></text>
 <text class="TextShape"><tspan class="TextParagraph" font-family="Arial, sans-serif" font-size="353px" font-weight="400"><tspan class="TextPosition" x="2556" y="12177"><tspan fill="rgb(0,0,0)" stroke="none">0.1</tspan></tspan></tspan></text>
 <text class="TextShape"><tspan class="TextParagraph" font-family="Arial, sans-serif" font-size="353px" font-weight="400"><tspan class="TextPosition" x="2847" y="11115"><tspan fill="rgb(0,0,0)" stroke="none">1</tspan></tspan></tspan></text>
 <text class="TextShape"><tspan class="TextParagraph" font-family="Arial, sans-serif" font-size="353px" font-weight="400"><tspan class="TextPosition" x="2635" y="10053"><tspan fill="rgb(0,0,0)" stroke="none">10</tspan></tspan></tspan></text>
 <text class="TextShape"><tspan class="TextParagraph" font-family="Arial, sans-serif" font-size="353px" font-weight="400"><tspan class="TextPosition" x="2423" y="8991"><tspan fill="rgb(0,0,0)" stroke="none">100</tspan></tspan></tspan></text>
 <text class="TextShape"><tspan class="TextParagraph" font-family="Arial, sans-serif" font-size="353px" font-weight="400"><tspan class="TextPosition" x="2212" y="7928"><tspan fill="rgb(0,0,0)" stroke="none">1000</tspan></tspan></tspan></text>
 <text class="TextShape"><tspan class="TextParagraph" font-family="Arial, sans-serif" font-size="353px" font-weight="400"><tspan class="TextPosition" x="2000" y="6866"><tspan fill="rgb(0,0,0)" stroke="none">10000</tspan></tspan></tspan></text>
 <text class="TextShape"><tspan class="TextParagraph" font-family="Arial, sans-serif" font-size="353px" font-weight="400"><tspan class="TextPosition" x="1788" y="5804"><tspan fill="rgb(0,0,0)" stroke="none">100000</tspan></tspan></tspan></text>
 <text class="TextShape"><tspan class="TextParagraph" font-family="Arial, sans-serif" font-size="353px" font-weight="400"><tspan class="TextPosition" x="1577" y="4742"><tspan fill="rgb(0,0,0)" stroke="none">1000000</tspan></tspan></tspan></text>
 <text class="TextShape"><tspan class="TextParagraph" font-family="Arial, sans-serif" font-size="353px" font-weight="400"><tspan class="TextPosition" x="1365" y="3680"><tspan fill="rgb(0,0,0)" stroke="none">10000000</tspan></tspan></tspan></text>
 <text class="TextShape"><tspan class="TextParagraph" font-family="Arial, sans-serif" font-size="353px" font-weight="400"><tspan class="TextPosition" x="1153" y="2618"><tspan fill="rgb(0,0,0)" stroke="none">100000000</tspan></tspan></tspan></text>
 <text class="TextShape"><tspan class="TextParagraph" font-family="Arial, sans-serif" font-size="353px" font-weight="400"><tspan class="TextPosition" x="942" y="1556"><tspan fill="rgb(0,0,0)" stroke="none">1000000000</tspan></tspan></tspan></text>
 <path fill="none" stroke="rgb(0,69,134)" stroke-width="80" stroke-linejoin="round" d="M 22224,6400 L 23024,6400"/>
 <path fill="rgb(0,69,134)" stroke="rgb(0,69,134)" stroke-linejoin="round" d="M 22518,6295 L 22518,6505 22729,6505 22729,6295 22518,6295 Z"/>
 <path fill="none" stroke="rgb(255,66,14)" stroke-width="80" stroke-linejoin="round" d="M 22224,6898 L 23024,6898"/>
 <path fill="rgb(255,66,14)" stroke="rgb(255,66,14)" stroke-linejoin="round" d="M 22518,6898 L 22624,7002 22729,6898 22624,6793 22518,6898 Z"/>
 <path fill="none" stroke="rgb(255,211,32)" stroke-width="80" stroke-linejoin="round" d="M 22224,7395 L 23024,7395"/>
 <path fill="rgb(255,211,32)" stroke="rgb(255,211,32)" stroke-linejoin="round" d="M 22518,7290 L 22624,7500 22729,7290 22518,7290 Z"/>
 <text class="TextShape"><tspan class="TextParagraph" font-family="Arial, sans-serif" font-size="353px" font-weight="400"><tspan class="TextPosition" x="23124" y="6520"><tspan fill="rgb(0,0,0)" stroke="none">Sum</tspan></tspan></tspan></text>
 <text class="TextShape"><tspan class="TextParagraph" font-family="Arial, sans-serif" font-size="353px" font-weight="400"><tspan class="TextPosition" x="23124" y="7017"><tspan fill="rgb(0,0,0)" stroke="none">Top</tspan></tspan></tspan></text>
 <text class="TextShape"><tspan class="TextParagraph" font-family="Arial, sans-serif" font-size="353px" font-weight="400"><tspan class="TextPosition" x="23124" y="7515"><tspan fill="rgb(0,0,0)" stroke="none">#500</tspan></tspan></tspan></text>
</svg>