<?xml version="1.0" encoding="UTF-8" standalone="no"?>
<svg
   xmlns:dc="http://purl.org/dc/elements/1.1/"
   xmlns:cc="http://creativecommons.org/ns#"
   xmlns:rdf="http://www.w3.org/1999/02/22-rdf-syntax-ns#"
   xmlns:svg="http://www.w3.org/2000/svg"
   xmlns="http://www.w3.org/2000/svg"
   viewBox="0 0 1373.3333 420"
   height="420"
   width="1373.3333"
   xml:space="preserve"
   id="svg2"
   version="1.1"><metadata
     id="metadata8"><rdf:RDF><cc:Work
         rdf:about=""><dc:format>image/svg+xml</dc:format><dc:type
           rdf:resource="http://purl.org/dc/dcmitype/StillImage" /></cc:Work></rdf:RDF></metadata><defs
     id="defs6"><linearGradient
       id="linearGradient24"
       spreadMethod="pad"
       gradientTransform="matrix(10,0,0,-10,450,4650)"
       gradientUnits="userSpaceOnUse"
       y2="255"
       x2="-10"
       y1="165"
       x1="-30"><stop
         id="stop20"
         offset="0"
         style="stop-opacity:1;stop-color:#7cbf33" /><stop
         id="stop22"
         offset="1"
         style="stop-opacity:1;stop-color:#7cbf33" /></linearGradient><clipPath
       id="clipPath38"
       clipPathUnits="userSpaceOnUse"><path
         id="path36"
         d="M 0,0 H 10300 V 990.309 H 0 Z" /></clipPath><linearGradient
       id="linearGradient44"
       spreadMethod="pad"
       gradientTransform="matrix(10,0,0,-10,450,4650)"
       gradientUnits="userSpaceOnUse"
       y2="380"
       x2="640"
       y1="365.96899"
       x1="560"><stop
         id="stop40"
         offset="0"
         style="stop-opacity:1;stop-color:#ffffff" /><stop
         id="stop42"
         offset="1"
         style="stop-opacity:1;stop-color:#ffffff" /></linearGradient><clipPath
       id="clipPath54"
       clipPathUnits="userSpaceOnUse"><path
         id="path52"
         d="m 0,990.309 h 10300 v 2159.69 H 0 Z" /></clipPath><clipPath
       id="clipPath70"
       clipPathUnits="userSpaceOnUse"><path
         id="path68"
         d="M 0,0 H 10300 V 1590.31 H 0 Z" /></clipPath><linearGradient
       id="linearGradient76"
       spreadMethod="pad"
       gradientTransform="matrix(10,0,0,-10,450,4650)"
       gradientUnits="userSpaceOnUse"
       y2="320"
       x2="780"
       y1="305.96899"
       x1="660"><stop
         id="stop72"
         offset="0"
         style="stop-opacity:1;stop-color:#ffffff" /><stop
         id="stop74"
         offset="1"
         style="stop-opacity:1;stop-color:#ffffff" /></linearGradient><clipPath
       id="clipPath86"
       clipPathUnits="userSpaceOnUse"><path
         id="path84"
         d="M 0,1590.31 H 10300 V 3150 H 0 Z" /></clipPath><clipPath
       id="clipPath102"
       clipPathUnits="userSpaceOnUse"><path
         id="path100"
         d="M 0,0 H 10300 V 390.309 H 0 Z" /></clipPath><linearGradient
       id="linearGradient108"
       spreadMethod="pad"
       gradientTransform="matrix(10,0,0,-10,450,4650)"
       gradientUnits="userSpaceOnUse"
       y2="440"
       x2="780"
       y1="425.96899"
       x1="660"><stop
         id="stop104"
         offset="0"
         style="stop-opacity:1;stop-color:#ffffff" /><stop
         id="stop106"
         offset="1"
         style="stop-opacity:1;stop-color:#ffffff" /></linearGradient><clipPath
       id="clipPath118"
       clipPathUnits="userSpaceOnUse"><path
         id="path116"
         d="m 0,390.309 h 10300 v 2759.69 H 0 Z" /></clipPath><linearGradient
       id="linearGradient132"
       spreadMethod="pad"
       gradientTransform="matrix(10,0,0,-10,450,4650)"
       gradientUnits="userSpaceOnUse"
       y2="380"
       x2="970"
       y1="340"
       x1="890"><stop
         id="stop128"
         offset="0"
         style="stop-opacity:1;stop-color:#eaeaea" /><stop
         id="stop130"
         offset="1"
         style="stop-opacity:1;stop-color:#ffffff" /></linearGradient><clipPath
       id="clipPath148"
       clipPathUnits="userSpaceOnUse"><path
         id="path146"
         d="M 0,0 H 10300 V 1590.31 H 0 Z" /></clipPath><linearGradient
       id="linearGradient154"
       spreadMethod="pad"
       gradientTransform="matrix(10,0,0,-10,450,4650)"
       gradientUnits="userSpaceOnUse"
       y2="320"
       x2="360"
       y1="305.96899"
       x1="240"><stop
         id="stop150"
         offset="0"
         style="stop-opacity:1;stop-color:#ffffff" /><stop
         id="stop152"
         offset="1"
         style="stop-opacity:1;stop-color:#ffffff" /></linearGradient><clipPath
       id="clipPath164"
       clipPathUnits="userSpaceOnUse"><path
         id="path162"
         d="M 0,1590.31 H 10300 V 3150 H 0 Z" /></clipPath><clipPath
       id="clipPath180"
       clipPathUnits="userSpaceOnUse"><path
         id="path178"
         d="M 0,0 H 10300 V 390.309 H 0 Z" /></clipPath><linearGradient
       id="linearGradient186"
       spreadMethod="pad"
       gradientTransform="matrix(10,0,0,-10,450,4650)"
       gradientUnits="userSpaceOnUse"
       y2="440"
       x2="360"
       y1="425.96899"
       x1="240"><stop
         id="stop182"
         offset="0"
         style="stop-opacity:1;stop-color:#ffffff" /><stop
         id="stop184"
         offset="1"
         style="stop-opacity:1;stop-color:#ffffff" /></linearGradient><clipPath
       id="clipPath196"
       clipPathUnits="userSpaceOnUse"><path
         id="path194"
         d="m 0,390.309 h 10300 v 2759.69 H 0 Z" /></clipPath><clipPath
       id="clipPath212"
       clipPathUnits="userSpaceOnUse"><path
         id="path210"
         d="M 0,0 H 10300 V 990.309 H 0 Z" /></clipPath><linearGradient
       id="linearGradient218"
       spreadMethod="pad"
       gradientTransform="matrix(10,0,0,-10,450,4650)"
       gradientUnits="userSpaceOnUse"
       y2="380"
       x2="240"
       y1="365.96899"
       x1="120"><stop
         id="stop214"
         offset="0"
         style="stop-opacity:1;stop-color:#ffffff" /><stop
         id="stop216"
         offset="1"
         style="stop-opacity:1;stop-color:#ffffff" /></linearGradient><clipPath
       id="clipPath228"
       clipPathUnits="userSpaceOnUse"><path
         id="path226"
         d="m 0,990.309 h 10300 v 2159.69 H 0 Z" /></clipPath><linearGradient
       id="linearGradient242"
       spreadMethod="pad"
       gradientTransform="matrix(10,0,0,-10,450,4650)"
       gradientUnits="userSpaceOnUse"
       y2="328"
       x2="495"
       y1="272"
       x1="405"><stop
         id="stop238"
         offset="0"
         style="stop-opacity:1;stop-color:#eaeaea" /><stop
         id="stop240"
         offset="1"
         style="stop-opacity:1;stop-color:#ffffff" /></linearGradient><linearGradient
       id="linearGradient254"
       spreadMethod="pad"
       gradientTransform="matrix(10,0,0,-10,450,4650)"
       gradientUnits="userSpaceOnUse"
       y2="450"
       x2="-10"
       y1="270"
       x1="-30"><stop
         id="stop250"
         offset="0"
         style="stop-opacity:1;stop-color:#0c87da" /><stop
         id="stop252"
         offset="1"
         style="stop-opacity:1;stop-color:#0c87da" /></linearGradient><clipPath
       id="clipPath266"
       clipPathUnits="userSpaceOnUse"><path
         id="path264"
         d="M 0,0 H 10300 V 2490.31 H 0 Z" /></clipPath><linearGradient
       id="linearGradient272"
       spreadMethod="pad"
       gradientTransform="matrix(10,0,0,-10,450,4650)"
       gradientUnits="userSpaceOnUse"
       y2="230"
       x2="600"
       y1="215.96899"
       x1="480"><stop
         id="stop268"
         offset="0"
         style="stop-opacity:1;stop-color:#ffffff" /><stop
         id="stop270"
         offset="1"
         style="stop-opacity:1;stop-color:#ffffff" /></linearGradient><clipPath
       id="clipPath282"
       clipPathUnits="userSpaceOnUse"><path
         id="path280"
         d="m 0,2490.31 h 10300 v 659.688 H 0 Z" /></clipPath><linearGradient
       id="linearGradient298"
       spreadMethod="pad"
       gradientTransform="matrix(10,0,0,-10,450,4650)"
       gradientUnits="userSpaceOnUse"
       y2="380"
       x2="95"
       y1="340"
       x1="15"><stop
         id="stop294"
         offset="0"
         style="stop-opacity:1;stop-color:#eaeaea" /><stop
         id="stop296"
         offset="1"
         style="stop-opacity:1;stop-color:#ffffff" /></linearGradient></defs><g
     transform="matrix(1.3333333,0,0,-1.3333333,0,420)"
     id="g10"><g
       transform="scale(0.1)"
       id="g12"><path
         id="path14"
         style="fill:#ffffff;fill-opacity:1;fill-rule:nonzero;stroke:none"
         d="M 0,3150 H 10300 V 0 H 0 v 3150" /><path
         id="path16"
         style="fill:#ffffff;fill-opacity:1;fill-rule:nonzero;stroke:none"
         d="M 0,3150 H 10300 V 0 H 0 v 3150" /><path
         id="path18"
         style="fill:#ffffff;fill-opacity:1;fill-rule:nonzero;stroke:none"
         d="M 0,3150 H 10300 V 0 H 0 v 3150" /><path
         id="path26"
         style="fill:url(#linearGradient24);fill-opacity:1;fill-rule:nonzero;stroke:none"
         d="m 150,2100 h 200 v 900 H 150 Z" /><path
         id="path28"
         style="fill:#ffffff;fill-opacity:1;fill-rule:nonzero;stroke:none"
         d="m 284.98,2497.75 c 2.813,-5.63 4.895,-11.46 6.25,-17.5 1.356,-6.04 2.032,-12.29 2.032,-18.75 0,-14.59 -4.09,-26.15 -12.266,-34.69 -8.176,-8.54 -19.191,-12.81 -33.047,-12.81 -14.168,0 -25.285,4.35 -33.359,13.04 -8.074,8.7 -12.11,20.6 -12.11,35.71 0,5.73 0.547,11.27 1.641,16.64 1.094,5.36 2.734,10.39 4.922,15.07 h 17.969 c -2.707,-4.89 -4.739,-9.73 -6.094,-14.53 -1.355,-4.79 -2.031,-9.63 -2.031,-14.53 0,-8.95 2.5,-15.86 7.5,-20.7 5,-4.84 12.187,-7.27 21.562,-7.27 9.168,0 16.278,2.35 21.328,7.03 5.051,4.69 7.578,11.31 7.578,19.85 0,2.4 -0.128,4.61 -0.39,6.64 -0.262,2.03 -0.703,3.83 -1.328,5.39 h -17.032 v -13.75 h -15.156 v 35.16 z m -80.937,19.9 v 37.34 c 0,11.15 2.473,19.69 7.422,25.63 4.949,5.93 12.004,8.9 21.172,8.9 9.168,0 16.222,-2.97 21.172,-8.9 4.949,-5.94 7.421,-14.48 7.421,-25.63 v -14.84 h 30.313 v -22.5 z m 16.406,22.5 h 24.375 v 12.5 c 0,4.37 -1.066,7.76 -3.203,10.15 -2.137,2.4 -5.129,3.6 -8.984,3.6 -3.957,0 -6.981,-1.2 -9.063,-3.6 -2.082,-2.39 -3.125,-5.78 -3.125,-10.15 z m -16.406,65.45 v 22.5 h 52.5 c 7.187,0 12.344,1.17 15.469,3.51 3.125,2.35 4.687,6.23 4.687,11.64 0,5.32 -1.562,9.17 -4.687,11.57 -3.125,2.39 -8.282,3.59 -15.469,3.59 h -52.5 v 22.5 h 52.5 c 12.395,0 21.613,-3.1 27.656,-9.3 6.043,-6.19 9.063,-15.65 9.063,-28.36 0,-12.7 -3.02,-22.16 -9.063,-28.36 -6.043,-6.19 -15.261,-9.29 -27.656,-9.29 h -52.5" /><path
         id="path30"
         style="fill:none;stroke:#000000;stroke-width:10;stroke-linecap:butt;stroke-linejoin:miter;stroke-miterlimit:1.45000005;stroke-dasharray:60, 20;stroke-dashoffset:0;stroke-opacity:1"
         d="m 150,2100 h 8700 v 900 H 150 Z" /><g
         id="g32"><g
           clip-path="url(#clipPath38)"
           id="g34"><path
             id="path46"
             style="fill:url(#linearGradient44);fill-opacity:1;fill-rule:nonzero;stroke:none"
             d="M 6050,1210 V 890 c 0,-22.09 17.91,-40 40,-40 h 720 c 22.09,0 40,17.91 40,40 v 320 c 0,22.09 -17.91,40 -40,40 h -720 c -22.09,0 -40,-17.91 -40,-40" /></g></g><g
         id="g48"><g
           clip-path="url(#clipPath54)"
           id="g50"><path
             id="path56"
             style="fill:#0c87da;fill-opacity:1;fill-rule:nonzero;stroke:none"
             d="M 6050,1210 V 890 c 0,-22.09 17.91,-40 40,-40 h 720 c 22.09,0 40,17.91 40,40 v 320 c 0,22.09 -17.91,40 -40,40 h -720 c -22.09,0 -40,-17.91 -40,-40" /></g></g><path
         id="path58"
         style="fill:none;stroke:#000000;stroke-width:10;stroke-linecap:butt;stroke-linejoin:miter;stroke-miterlimit:1.45000005;stroke-dasharray:none;stroke-opacity:1"
         d="M 6050,1210 V 890 c 0,-22.09 17.91,-40 40,-40 h 720 c 22.09,0 40,17.91 40,40 v 320 c 0,22.09 -17.91,40 -40,40 h -720 c -22.09,0 -40,-17.91 -40,-40 z" /><path
         id="path60"
         style="fill:none;stroke:#000000;stroke-width:10;stroke-linecap:butt;stroke-linejoin:miter;stroke-miterlimit:1.45000005;stroke-dasharray:none;stroke-opacity:1"
         d="m 6050,990.309 h 800" /><path
         id="path62"
         style="fill:#ffffff;fill-opacity:1;fill-rule:nonzero;stroke:none"
         d="m 6247.83,1078.61 -33.44,87.5 h 12.35 l 27.81,-73.59 27.66,73.59 h 12.34 l -33.28,-87.5 z m 58.97,65.63 h 10.78 v -65.63 h -10.78 z m 0,25.62 h 10.78 v -13.75 h -10.78 z m 89.59,-55.78 v -5.15 h -49.69 c 0.52,-7.5 2.79,-13.18 6.8,-17.04 4.01,-3.85 9.55,-5.78 16.64,-5.78 4.16,0 8.2,0.5 12.11,1.49 3.9,0.99 7.78,2.52 11.64,4.61 v -10.32 c -3.96,-1.56 -7.97,-2.78 -12.03,-3.67 -4.07,-0.88 -8.18,-1.33 -12.35,-1.33 -10.41,0 -18.7,3.05 -24.84,9.15 -6.15,6.09 -9.22,14.34 -9.22,24.76 0,10.73 2.92,19.25 8.75,25.55 5.83,6.3 13.65,9.45 23.44,9.45 8.85,0 15.86,-2.84 21.01,-8.51 5.16,-5.68 7.74,-13.42 7.74,-23.21 z m -10.78,3.28 c -0.11,5.84 -1.78,10.52 -5,14.07 -3.23,3.54 -7.5,5.31 -12.82,5.31 -6.04,0 -10.86,-1.72 -14.45,-5.16 -3.59,-3.44 -5.65,-8.23 -6.17,-14.37 z m 22.1,26.88 h 10.79 l 13.59,-51.25 13.28,51.25 h 12.81 l 13.44,-51.25 13.44,51.25 h 10.78 l -17.19,-65.63 H 6466 l -14.22,53.75 -14.07,-53.75 h -12.81 z m 160.65,-30.16 v -5.15 h -49.69 c 0.52,-7.5 2.79,-13.18 6.8,-17.04 4.01,-3.85 9.56,-5.78 16.64,-5.78 4.17,0 8.2,0.5 12.11,1.49 3.9,0.99 7.79,2.52 11.64,4.61 v -10.32 c -3.96,-1.56 -7.97,-2.78 -12.03,-3.67 -4.06,-0.88 -8.18,-1.33 -12.35,-1.33 -10.41,0 -18.69,3.05 -24.84,9.15 -6.15,6.09 -9.22,14.34 -9.22,24.76 0,10.73 2.92,19.25 8.75,25.55 5.84,6.3 13.65,9.45 23.44,9.45 8.85,0 15.86,-2.84 21.01,-8.51 5.16,-5.68 7.74,-13.42 7.74,-23.21 z m -10.78,3.28 c -0.11,5.84 -1.77,10.52 -5,14.07 -3.23,3.54 -7.5,5.31 -12.81,5.31 -6.05,0 -10.86,-1.72 -14.46,-5.16 -3.59,-3.44 -5.65,-8.23 -6.17,-14.37 z m 66.48,16.88 c -1.25,0.62 -2.58,1.12 -3.98,1.48 -1.41,0.37 -3,0.55 -4.77,0.55 -6.04,0 -10.7,-1.98 -13.98,-5.94 -3.28,-3.96 -4.92,-9.69 -4.92,-17.19 v -34.53 h -10.79 v 65.63 h 10.79 v -10.16 c 2.29,3.96 5.26,6.9 8.9,8.83 3.65,1.93 8.08,2.89 13.28,2.89 0.73,0 1.54,-0.05 2.43,-0.16 0.88,-0.1 1.84,-0.26 2.89,-0.46 z m 53.09,8.12 v -10.31 c -3.02,1.56 -6.17,2.74 -9.45,3.52 -3.29,0.78 -6.7,1.17 -10.24,1.17 -5.31,0 -9.32,-0.81 -12.03,-2.42 -2.71,-1.62 -4.06,-4.09 -4.06,-7.43 0,-2.5 0.96,-4.45 2.89,-5.85 1.92,-1.41 5.81,-2.74 11.64,-3.99 l 3.59,-0.94 c 7.71,-1.56 13.18,-3.85 16.41,-6.87 3.23,-3.02 4.84,-7.19 4.84,-12.5 0,-6.15 -2.42,-10.99 -7.26,-14.53 -4.85,-3.54 -11.49,-5.32 -19.93,-5.32 -3.54,0 -7.21,0.34 -11.01,1.02 -3.8,0.68 -7.79,1.69 -11.95,3.05 v 11.25 c 3.95,-2.09 7.86,-3.65 11.71,-4.69 3.86,-1.04 7.71,-1.56 11.57,-1.56 5,0 8.88,0.86 11.64,2.58 2.76,1.71 4.14,4.19 4.14,7.42 0,2.91 -0.99,5.15 -2.97,6.72 -1.98,1.56 -6.3,3.07 -12.97,4.53 l -3.75,0.78 c -6.67,1.46 -11.48,3.64 -14.45,6.56 -2.97,2.92 -4.46,6.88 -4.46,11.88 0,6.25 2.19,11.04 6.57,14.37 4.37,3.33 10.57,5 18.59,5 3.96,0 7.71,-0.29 11.25,-0.86 3.54,-0.57 6.77,-1.43 9.69,-2.58" /><g
         id="g64"><g
           clip-path="url(#clipPath70)"
           id="g66"><path
             id="path78"
             style="fill:url(#linearGradient76);fill-opacity:1;fill-rule:nonzero;stroke:none"
             d="m 7050,1810 v -320 c 0,-22.09 17.91,-40 40,-40 h 1120 c 22.09,0 40,17.91 40,40 v 320 c 0,22.09 -17.91,40 -40,40 H 7090 c -22.09,0 -40,-17.91 -40,-40" /></g></g><g
         id="g80"><g
           clip-path="url(#clipPath86)"
           id="g82"><path
             id="path88"
             style="fill:#0c87da;fill-opacity:1;fill-rule:nonzero;stroke:none"
             d="m 7050,1810 v -320 c 0,-22.09 17.91,-40 40,-40 h 1120 c 22.09,0 40,17.91 40,40 v 320 c 0,22.09 -17.91,40 -40,40 H 7090 c -22.09,0 -40,-17.91 -40,-40" /></g></g><path
         id="path90"
         style="fill:none;stroke:#000000;stroke-width:10;stroke-linecap:butt;stroke-linejoin:miter;stroke-miterlimit:1.45000005;stroke-dasharray:none;stroke-opacity:1"
         d="m 7050,1810 v -320 c 0,-22.09 17.91,-40 40,-40 h 1120 c 22.09,0 40,17.91 40,40 v 320 c 0,22.09 -17.91,40 -40,40 H 7090 c -22.09,0 -40,-17.91 -40,-40 z" /><path
         id="path92"
         style="fill:none;stroke:#000000;stroke-width:10;stroke-linecap:butt;stroke-linejoin:miter;stroke-miterlimit:1.45000005;stroke-dasharray:none;stroke-opacity:1"
         d="M 7050,1590.31 H 8250" /><path
         id="path94"
         style="fill:#ffffff;fill-opacity:1;fill-rule:nonzero;stroke:none"
         d="m 7125.71,1756.43 v -32.97 h 14.85 c 5.52,0 9.79,1.43 12.81,4.29 3.02,2.87 4.53,6.96 4.53,12.27 0,5.21 -1.51,9.24 -4.53,12.11 -3.02,2.86 -7.29,4.3 -12.81,4.3 z m -11.87,9.68 h 26.72 c 9.89,0 17.34,-2.21 22.34,-6.64 5,-4.42 7.5,-10.91 7.5,-19.45 0,-8.65 -2.5,-15.18 -7.5,-19.61 -5,-4.43 -12.45,-6.64 -22.34,-6.64 h -14.85 v -35.16 h -11.87 z m 126.58,-47.81 v -39.69 h -10.78 v 39.22 c 0,6.25 -1.23,10.91 -3.67,13.99 -2.45,3.07 -6.07,4.61 -10.86,4.61 -5.84,0 -10.45,-1.85 -13.83,-5.55 -3.39,-3.7 -5.08,-8.78 -5.08,-15.24 v -37.03 h -10.78 v 91.25 h 10.78 v -35.78 c 2.61,3.96 5.65,6.9 9.14,8.83 3.49,1.93 7.53,2.89 12.11,2.89 7.5,0 13.2,-2.32 17.11,-6.95 3.91,-4.64 5.86,-11.49 5.86,-20.55 z m 77.62,-4.22 v -5.15 h -49.69 c 0.52,-7.5 2.79,-13.18 6.8,-17.04 4.01,-3.85 9.55,-5.78 16.64,-5.78 4.16,0 8.2,0.5 12.11,1.49 3.9,0.99 7.78,2.52 11.64,4.61 v -10.32 c -3.96,-1.56 -7.97,-2.78 -12.03,-3.67 -4.07,-0.88 -8.18,-1.33 -12.35,-1.33 -10.41,0 -18.7,3.05 -24.84,9.15 -6.15,6.09 -9.22,14.34 -9.22,24.76 0,10.73 2.92,19.25 8.75,25.55 5.83,6.3 13.65,9.45 23.44,9.45 8.85,0 15.86,-2.84 21.01,-8.51 5.16,-5.68 7.74,-13.42 7.74,-23.21 z m -10.78,3.28 c -0.11,5.84 -1.77,10.52 -5,14.07 -3.23,3.54 -7.5,5.31 -12.82,5.31 -6.04,0 -10.86,-1.72 -14.45,-5.16 -3.59,-3.44 -5.65,-8.23 -6.17,-14.37 z m 66.48,16.88 c -1.25,0.62 -2.58,1.12 -3.98,1.48 -1.41,0.37 -3,0.55 -4.77,0.55 -6.04,0 -10.7,-1.98 -13.98,-5.94 -3.29,-3.96 -4.93,-9.69 -4.93,-17.19 v -34.53 h -10.78 v 65.63 h 10.78 v -10.16 c 2.3,3.96 5.26,6.9 8.91,8.83 3.65,1.93 8.07,2.89 13.28,2.89 0.73,0 1.54,-0.05 2.42,-0.16 0.89,-0.1 1.85,-0.26 2.89,-0.46 z m 36.68,2.5 c -5.73,0 -10.29,-2.27 -13.67,-6.8 -3.39,-4.53 -5.08,-10.7 -5.08,-18.51 0,-7.92 1.67,-14.12 5,-18.6 3.33,-4.48 7.92,-6.72 13.75,-6.72 5.73,0 10.29,2.27 13.67,6.8 3.39,4.53 5.08,10.7 5.08,18.52 0,7.7 -1.69,13.85 -5.08,18.43 -3.38,4.59 -7.94,6.88 -13.67,6.88 z m 0,9.06 c 9.37,0 16.74,-3.05 22.11,-9.14 5.36,-6.09 8.05,-14.51 8.05,-25.23 0,-10.73 -2.69,-19.17 -8.05,-25.32 -5.37,-6.14 -12.74,-9.22 -22.11,-9.22 -9.38,0 -16.74,3.08 -22.11,9.22 -5.36,6.15 -8.05,14.59 -8.05,25.32 0,10.72 2.69,19.14 8.05,25.23 5.37,6.09 12.73,9.14 22.11,9.14 z m 99.04,-14.22 c 2.71,4.9 5.94,8.49 9.69,10.78 3.75,2.29 8.18,3.44 13.28,3.44 6.88,0 12.16,-2.4 15.86,-7.19 3.7,-4.79 5.55,-11.56 5.55,-20.31 v -39.69 h -10.78 v 39.22 c 0,6.36 -1.12,11.04 -3.36,14.06 -2.24,3.03 -5.65,4.54 -10.24,4.54 -5.62,0 -10.05,-1.85 -13.28,-5.55 -3.23,-3.7 -4.84,-8.78 -4.84,-15.24 v -37.03 h -10.78 v 39.22 c 0,6.36 -1.12,11.04 -3.36,14.06 -2.24,3.03 -5.71,4.54 -10.39,4.54 -5.52,0 -9.9,-1.85 -13.13,-5.55 -3.23,-3.7 -4.84,-8.78 -4.84,-15.24 v -37.03 h -10.78 v 65.63 h 10.78 v -10.16 c 2.5,3.96 5.47,6.9 8.9,8.83 3.44,1.93 7.5,2.89 12.19,2.89 4.79,0 8.86,-1.2 12.19,-3.59 3.33,-2.4 5.78,-5.94 7.34,-10.63 z m 91.27,5.16 c -5.73,0 -10.28,-2.27 -13.67,-6.8 -3.38,-4.53 -5.08,-10.7 -5.08,-18.51 0,-7.92 1.67,-14.12 5,-18.6 3.34,-4.48 7.92,-6.72 13.75,-6.72 5.73,0 10.29,2.27 13.67,6.8 3.39,4.53 5.08,10.7 5.08,18.52 0,7.7 -1.69,13.85 -5.08,18.43 -3.38,4.59 -7.94,6.88 -13.67,6.88 z m 0,9.06 c 9.38,0 16.75,-3.05 22.11,-9.14 5.37,-6.09 8.05,-14.51 8.05,-25.23 0,-10.73 -2.68,-19.17 -8.05,-25.32 -5.36,-6.14 -12.73,-9.22 -22.11,-9.22 -9.37,0 -16.74,3.08 -22.11,9.22 -5.36,6.15 -8.04,14.59 -8.04,25.32 0,10.72 2.68,19.14 8.04,25.23 5.37,6.09 12.74,9.14 22.11,9.14 z m 102.64,-27.5 v -39.69 h -10.78 v 39.22 c 0,6.25 -1.23,10.91 -3.67,13.99 -2.45,3.07 -6.07,4.61 -10.86,4.61 -5.84,0 -10.45,-1.85 -13.83,-5.55 -3.39,-3.7 -5.08,-8.78 -5.08,-15.24 v -37.03 h -10.78 v 65.63 h 10.78 v -10.16 c 2.6,3.96 5.65,6.9 9.14,8.83 3.49,1.93 7.53,2.89 12.11,2.89 7.5,0 13.2,-2.32 17.11,-6.95 3.91,-4.64 5.86,-11.49 5.86,-20.55 z m 77.62,-4.22 v -5.15 h -49.69 c 0.52,-7.5 2.79,-13.18 6.8,-17.04 4.01,-3.85 9.55,-5.78 16.64,-5.78 4.16,0 8.2,0.5 12.11,1.49 3.9,0.99 7.78,2.52 11.64,4.61 v -10.32 c -3.96,-1.56 -7.97,-2.78 -12.03,-3.67 -4.07,-0.88 -8.18,-1.33 -12.35,-1.33 -10.42,0 -18.7,3.05 -24.84,9.15 -6.15,6.09 -9.22,14.34 -9.22,24.76 0,10.73 2.92,19.25 8.75,25.55 5.83,6.3 13.64,9.45 23.44,9.45 8.85,0 15.86,-2.84 21.01,-8.51 5.16,-5.68 7.74,-13.42 7.74,-23.21 z m -10.78,3.28 c -0.11,5.84 -1.78,10.52 -5,14.07 -3.23,3.54 -7.5,5.31 -12.82,5.31 -6.04,0 -10.86,-1.72 -14.45,-5.16 -3.59,-3.44 -5.65,-8.23 -6.17,-14.37 z m 51.48,-38.75 -33.44,87.5 h 12.35 l 27.81,-73.59 27.65,73.59 h 12.35 l -33.28,-87.5 z m 58.96,65.63 h 10.79 v -65.63 h -10.79 z m 0,25.62 h 10.79 v -13.75 h -10.79 z m 89.59,-55.78 v -5.15 h -49.68 c 0.52,-7.5 2.78,-13.18 6.79,-17.04 4.01,-3.85 9.56,-5.78 16.64,-5.78 4.17,0 8.21,0.5 12.11,1.49 3.91,0.99 7.79,2.52 11.64,4.61 v -10.32 c -3.95,-1.56 -7.96,-2.78 -12.03,-3.67 -4.06,-0.88 -8.17,-1.33 -12.34,-1.33 -10.42,0 -18.7,3.05 -24.84,9.15 -6.15,6.09 -9.22,14.34 -9.22,24.76 0,10.73 2.91,19.25 8.75,25.55 5.83,6.3 13.64,9.45 23.43,9.45 8.86,0 15.86,-2.84 21.02,-8.51 5.16,-5.68 7.73,-13.42 7.73,-23.21 z m -10.78,3.28 c -0.1,5.84 -1.77,10.52 -5,14.07 -3.23,3.54 -7.5,5.31 -12.81,5.31 -6.04,0 -10.86,-1.72 -14.45,-5.16 -3.6,-3.44 -5.65,-8.23 -6.17,-14.37 z m 22.11,26.88 h 10.78 l 13.6,-51.25 13.28,51.25 h 12.81 l 13.44,-51.25 13.44,51.25 h 10.78 l -17.19,-65.63 h -12.66 l -14.22,53.75 -14.06,-53.75 h -12.81 z m 160.65,-30.16 v -5.15 h -49.69 c 0.52,-7.5 2.79,-13.18 6.8,-17.04 4.01,-3.85 9.55,-5.78 16.64,-5.78 4.16,0 8.2,0.5 12.11,1.49 3.9,0.99 7.78,2.52 11.64,4.61 v -10.32 c -3.96,-1.56 -7.97,-2.78 -12.03,-3.67 -4.07,-0.88 -8.18,-1.33 -12.35,-1.33 -10.41,0 -18.7,3.05 -24.84,9.15 -6.15,6.09 -9.22,14.34 -9.22,24.76 0,10.73 2.92,19.25 8.75,25.55 5.83,6.3 13.65,9.45 23.44,9.45 8.85,0 15.86,-2.84 21.01,-8.51 5.16,-5.68 7.74,-13.42 7.74,-23.21 z m -10.78,3.28 c -0.11,5.84 -1.78,10.52 -5,14.07 -3.23,3.54 -7.5,5.31 -12.82,5.31 -6.04,0 -10.86,-1.72 -14.45,-5.16 -3.59,-3.44 -5.65,-8.23 -6.17,-14.37 z m 66.48,16.88 c -1.25,0.62 -2.58,1.12 -3.98,1.48 -1.41,0.37 -3,0.55 -4.77,0.55 -6.04,0 -10.7,-1.98 -13.98,-5.94 -3.29,-3.96 -4.93,-9.69 -4.93,-17.19 v -34.53 h -10.78 v 65.63 h 10.78 v -10.16 c 2.3,3.96 5.26,6.9 8.91,8.83 3.65,1.93 8.07,2.89 13.28,2.89 0.73,0 1.54,-0.05 2.42,-0.16 0.89,-0.1 1.85,-0.26 2.89,-0.46 l 0.16,-10.94" /><g
         id="g96"><g
           clip-path="url(#clipPath102)"
           id="g98"><path
             id="path110"
             style="fill:url(#linearGradient108);fill-opacity:1;fill-rule:nonzero;stroke:none"
             d="M 7050,610 V 290 c 0,-22.09 17.91,-40 40,-40 h 1120 c 22.09,0 40,17.91 40,40 v 320 c 0,22.09 -17.91,40 -40,40 H 7090 c -22.09,0 -40,-17.91 -40,-40" /></g></g><g
         id="g112"><g
           clip-path="url(#clipPath118)"
           id="g114"><path
             id="path120"
             style="fill:#0c87da;fill-opacity:1;fill-rule:nonzero;stroke:none"
             d="M 7050,610 V 290 c 0,-22.09 17.91,-40 40,-40 h 1120 c 22.09,0 40,17.91 40,40 v 320 c 0,22.09 -17.91,40 -40,40 H 7090 c -22.09,0 -40,-17.91 -40,-40" /></g></g><path
         id="path122"
         style="fill:none;stroke:#000000;stroke-width:10;stroke-linecap:butt;stroke-linejoin:miter;stroke-miterlimit:1.45000005;stroke-dasharray:none;stroke-opacity:1"
         d="M 7050,610 V 290 c 0,-22.09 17.91,-40 40,-40 h 1120 c 22.09,0 40,17.91 40,40 v 320 c 0,22.09 -17.91,40 -40,40 H 7090 c -22.09,0 -40,-17.91 -40,-40 z" /><path
         id="path124"
         style="fill:none;stroke:#000000;stroke-width:10;stroke-linecap:butt;stroke-linejoin:miter;stroke-miterlimit:1.45000005;stroke-dasharray:none;stroke-opacity:1"
         d="M 7050,390.309 H 8250" /><path
         id="path126"
         style="fill:#ffffff;fill-opacity:1;fill-rule:nonzero;stroke:none"
         d="m 7265.75,556.43 v -68.129 h 14.38 c 12.08,0 20.91,2.738 26.48,8.199 5.57,5.469 8.36,14.141 8.36,26.02 0,11.671 -2.79,20.23 -8.36,25.699 -5.57,5.472 -14.4,8.211 -26.48,8.211 z m -11.87,9.679 h 24.37 c 16.98,0 29.43,-3.507 37.35,-10.539 7.91,-7.031 11.87,-18.05 11.87,-33.05 0,-15.098 -3.98,-26.2 -11.95,-33.278 -7.97,-7.094 -20.39,-10.633 -37.27,-10.633 h -24.37 z m 148.18,-52.027 v -5.152 h -49.69 c 0.52,-7.5 2.79,-13.18 6.8,-17.039 4.01,-3.852 9.56,-5.782 16.64,-5.782 4.17,0 8.2,0.5 12.11,1.493 3.91,0.988 7.79,2.519 11.64,4.609 v -10.32 c -3.96,-1.559 -7.97,-2.782 -12.03,-3.672 -4.06,-0.879 -8.18,-1.328 -12.34,-1.328 -10.42,0 -18.7,3.05 -24.85,9.148 -6.14,6.09 -9.22,14.34 -9.22,24.762 0,10.73 2.92,19.25 8.75,25.551 5.84,6.3 13.65,9.449 23.44,9.449 8.85,0 15.86,-2.84 21.02,-8.512 5.15,-5.68 7.73,-13.418 7.73,-23.207 z m -10.78,3.277 c -0.1,5.84 -1.77,10.52 -5,14.071 -3.23,3.539 -7.5,5.312 -12.81,5.312 -6.04,0 -10.86,-1.722 -14.46,-5.16 -3.59,-3.441 -5.65,-8.23 -6.17,-14.371 z m 61.64,52.5 v -9.058 h -10.31 c -3.86,0 -6.54,-0.781 -8.05,-2.34 -1.51,-1.57 -2.27,-4.383 -2.27,-8.441 v -5.778 h 17.82 v -8.441 h -17.82 v -57.192 h -10.78 v 57.192 h -10.31 v 8.441 h 10.31 v 4.528 c 0,7.289 1.7,12.628 5.08,16.019 3.39,3.383 8.78,5.07 16.17,5.07 z m 38.81,-58.277 c -8.65,0 -14.66,-0.992 -18.05,-2.973 -3.38,-1.98 -5.08,-5.359 -5.08,-10.148 0,-3.859 1.28,-6.902 3.83,-9.141 2.55,-2.238 5.97,-3.359 10.24,-3.359 6.04,0 10.86,2.109 14.45,6.328 3.59,4.211 5.39,9.859 5.39,16.953 v 2.34 z m 21.56,4.527 v -37.5 h -10.78 v 10 c -2.5,-3.961 -5.57,-6.898 -9.22,-8.82 -3.64,-1.93 -8.12,-2.898 -13.44,-2.898 -6.77,0 -12.13,1.91 -16.09,5.711 -3.96,3.8 -5.94,8.828 -5.94,15.078 0,7.39 2.48,12.961 7.42,16.711 4.95,3.75 12.32,5.629 22.11,5.629 h 15.16 v 1.089 c 0,5 -1.64,8.86 -4.92,11.571 -3.28,2.699 -7.84,4.062 -13.67,4.062 -3.75,0 -7.43,-0.472 -11.02,-1.41 -3.59,-0.941 -7,-2.293 -10.23,-4.062 v 10 c 3.95,1.562 7.78,2.71 11.48,3.441 3.7,0.73 7.32,1.09 10.86,1.09 9.48,0 16.56,-2.449 21.25,-7.34 4.69,-4.902 7.03,-12.352 7.03,-22.352 z m 21.04,-11.558 v 39.691 h 10.78 v -39.383 c 0,-6.14 1.22,-10.777 3.67,-13.898 2.45,-3.129 6.07,-4.691 10.86,-4.691 5.83,0 10.44,1.851 13.83,5.55 3.38,3.692 5.07,8.77 5.07,15.231 v 37.191 h 10.79 v -65.633 h -10.79 v 10.161 c -2.6,-4.059 -5.62,-7.059 -9.06,-8.981 -3.44,-1.93 -7.45,-2.898 -12.03,-2.898 -7.6,0 -13.36,2.351 -17.26,7.039 -3.91,4.679 -5.86,11.562 -5.86,20.621 z m 87.93,58.277 v -18.586 h 22.18 v -8.441 h -22.18 V 500.18 c 0,-5.321 0.73,-8.731 2.18,-10.239 1.46,-1.511 4.43,-2.261 8.91,-2.261 h 11.09 v -9.071 h -11.09 c -8.33,0 -14.09,1.571 -17.27,4.692 -3.17,3.129 -4.76,8.75 -4.76,16.879 v 35.621 h -7.81 v 8.441 h 7.81 v 18.586 z m 59.39,-84.219 -33.44,87.5 h 12.35 l 27.81,-73.589 27.66,73.589 h 12.34 l -33.28,-87.5 z m 58.97,65.633 h 10.78 v -65.633 h -10.78 z m 0,25.617 h 10.78 v -13.75 h -10.78 z m 89.59,-55.777 v -5.152 h -49.69 c 0.52,-7.5 2.78,-13.18 6.79,-17.039 4.01,-3.852 9.56,-5.782 16.65,-5.782 4.16,0 8.2,0.5 12.1,1.493 3.91,0.988 7.79,2.519 11.65,4.609 v -10.32 c -3.96,-1.559 -7.97,-2.782 -12.04,-3.672 -4.06,-0.879 -8.17,-1.328 -12.34,-1.328 -10.42,0 -18.7,3.05 -24.84,9.148 -6.15,6.09 -9.22,14.34 -9.22,24.762 0,10.73 2.91,19.25 8.75,25.551 5.83,6.3 13.64,9.449 23.44,9.449 8.85,0 15.85,-2.84 21.01,-8.512 5.16,-5.68 7.74,-13.418 7.74,-23.207 z m -10.79,3.277 c -0.1,5.84 -1.77,10.52 -5,14.071 -3.23,3.539 -7.5,5.312 -12.81,5.312 -6.04,0 -10.86,-1.722 -14.45,-5.16 -3.6,-3.441 -5.65,-8.23 -6.17,-14.371 z m 22.11,26.883 h 10.78 l 13.6,-51.25 13.28,51.25 H 7892 l 13.44,-51.25 13.44,51.25 h 10.78 l -17.19,-65.633 h -12.66 l -14.21,53.75 -14.07,-53.75 h -12.81 z m 160.65,-30.16 v -5.152 h -49.69 c 0.52,-7.5 2.79,-13.18 6.8,-17.039 4.01,-3.852 9.55,-5.782 16.64,-5.782 4.16,0 8.2,0.5 12.11,1.493 3.9,0.988 7.78,2.519 11.64,4.609 v -10.32 c -3.96,-1.559 -7.97,-2.782 -12.03,-3.672 -4.07,-0.879 -8.18,-1.328 -12.35,-1.328 -10.41,0 -18.7,3.05 -24.84,9.148 -6.15,6.09 -9.22,14.34 -9.22,24.762 0,10.73 2.92,19.25 8.75,25.551 5.83,6.3 13.65,9.449 23.44,9.449 8.85,0 15.86,-2.84 21.01,-8.512 5.16,-5.68 7.74,-13.418 7.74,-23.207 z m -10.78,3.277 c -0.11,5.84 -1.77,10.52 -5,14.071 -3.23,3.539 -7.5,5.312 -12.82,5.312 -6.04,0 -10.86,-1.722 -14.45,-5.16 -3.59,-3.441 -5.65,-8.23 -6.17,-14.371 z m 66.48,16.883 c -1.25,0.617 -2.58,1.117 -3.98,1.477 -1.41,0.371 -3,0.551 -4.77,0.551 -6.04,0 -10.7,-1.981 -13.98,-5.938 -3.28,-3.961 -4.93,-9.691 -4.93,-17.191 v -34.532 h -10.78 v 65.633 h 10.78 v -10.16 c 2.3,3.957 5.27,6.898 8.91,8.828 3.65,1.93 8.07,2.891 13.28,2.891 0.73,0 1.54,-0.051 2.42,-0.16 0.89,-0.102 1.85,-0.262 2.89,-0.461 l 0.16,-10.938" /><path
         id="path134"
         style="fill:url(#linearGradient132);fill-opacity:1;fill-rule:nonzero;stroke:none"
         d="m 9350,850 h 800 v 400 h -800 z" /><path
         id="path136"
         style="fill:none;stroke:#000000;stroke-width:10;stroke-linecap:butt;stroke-linejoin:miter;stroke-miterlimit:1.45000005;stroke-dasharray:none;stroke-opacity:1"
         d="m 9350,850 h 800 v 400 h -800 z" /><path
         id="path138"
         style="fill:none;stroke:#000000;stroke-width:10;stroke-linecap:butt;stroke-linejoin:miter;stroke-miterlimit:1.45000005;stroke-dasharray:none;stroke-opacity:1"
         d="m 9380,1220 h 740 V 880 h -740 z" /><path
         id="path140"
         style="fill:#000000;fill-opacity:1;fill-rule:nonzero;stroke:none"
         d="m 9508.35,1084.24 -16.09,-43.44 h 32.18 z m -6.72,11.72 h 13.44 l 33.28,-87.5 h -12.34 l -7.97,22.5 h -39.38 l -7.97,-22.5 h -12.5 z m 92.25,3.75 v -9.07 h -10.32 c -3.85,0 -6.53,-0.78 -8.04,-2.34 -1.51,-1.56 -2.27,-4.37 -2.27,-8.44 v -5.78 h 17.81 v -8.44 h -17.81 v -57.18 h -10.78 v 57.18 h -10.31 v 8.44 h 10.31 v 4.53 c 0,7.29 1.69,12.63 5.08,16.02 3.38,3.38 8.77,5.08 16.17,5.08 z m 42.24,0 v -9.07 h -10.31 c -3.85,0 -6.54,-0.78 -8.05,-2.34 -1.51,-1.56 -2.26,-4.37 -2.26,-8.44 v -5.78 h 17.81 v -8.44 h -17.81 v -57.18 h -10.78 v 57.18 h -10.32 v 8.44 h 10.32 v 4.53 c 0,7.29 1.69,12.63 5.07,16.02 3.39,3.38 8.78,5.08 16.18,5.08 z m 8.97,-25.63 h 10.78 v -65.62 h -10.78 z m 0,25.63 h 10.78 v -13.75 h -10.78 z m 80.68,-28.13 v -10.15 c -3.12,1.77 -6.2,3.07 -9.22,3.9 -3.02,0.84 -6.09,1.25 -9.22,1.25 -7.08,0 -12.55,-2.21 -16.4,-6.64 -3.86,-4.43 -5.78,-10.65 -5.78,-18.67 0,-8.02 1.92,-14.25 5.78,-18.67 3.85,-4.43 9.32,-6.64 16.4,-6.64 3.13,0 6.2,0.41 9.22,1.25 3.02,0.83 6.1,2.08 9.22,3.75 v -10 c -3.02,-1.36 -6.14,-2.4 -9.37,-3.13 -3.23,-0.73 -6.67,-1.09 -10.32,-1.09 -9.89,0 -17.76,3.1 -23.59,9.3 -5.83,6.19 -8.75,14.6 -8.75,25.23 0,10.62 2.94,19.01 8.83,25.16 5.88,6.14 13.98,9.21 24.3,9.21 3.22,0 6.43,-0.33 9.6,-1.01 3.18,-0.68 6.28,-1.69 9.3,-3.05 z m 73.32,-23.44 v -39.68 h -10.78 v 39.22 c 0,6.25 -1.22,10.91 -3.67,13.98 -2.45,3.07 -6.07,4.61 -10.86,4.61 -5.83,0 -10.44,-1.85 -13.83,-5.55 -3.38,-3.7 -5.08,-8.77 -5.08,-15.23 v -37.03 h -10.78 v 91.25 h 10.78 v -35.78 c 2.61,3.95 5.65,6.9 9.14,8.82 3.49,1.93 7.53,2.89 12.11,2.89 7.5,0 13.21,-2.31 17.11,-6.95 3.91,-4.63 5.86,-11.48 5.86,-20.55 z m 51.21,-6.71 c -8.64,0 -14.66,-0.99 -18.04,-2.97 -3.39,-1.98 -5.08,-5.37 -5.08,-10.16 0,-3.85 1.27,-6.9 3.83,-9.14 2.55,-2.24 5.96,-3.36 10.23,-3.36 6.04,0 10.86,2.11 14.45,6.33 3.6,4.22 5.39,9.87 5.39,16.95 v 2.35 z m 21.57,4.53 v -37.5 h -10.79 v 10 c -2.5,-3.96 -5.57,-6.9 -9.21,-8.83 -3.65,-1.93 -8.13,-2.89 -13.44,-2.89 -6.77,0 -12.14,1.9 -16.1,5.7 -3.95,3.8 -5.93,8.83 -5.93,15.08 0,7.4 2.47,12.97 7.42,16.72 4.95,3.75 12.32,5.62 22.11,5.62 h 15.15 v 1.1 c 0,5 -1.64,8.85 -4.92,11.56 -3.28,2.71 -7.84,4.06 -13.67,4.06 -3.75,0 -7.42,-0.47 -11.02,-1.4 -3.59,-0.94 -7,-2.3 -10.23,-4.07 v 10 c 3.96,1.57 7.79,2.71 11.48,3.44 3.7,0.73 7.32,1.09 10.86,1.09 9.48,0 16.57,-2.44 21.25,-7.34 4.69,-4.9 7.04,-12.34 7.04,-22.34 z m 65.41,-3.91 c 0,7.81 -1.62,13.85 -4.85,18.13 -3.23,4.27 -7.76,6.4 -13.59,6.4 -5.73,0 -10.21,-2.13 -13.44,-6.4 -3.23,-4.28 -4.84,-10.32 -4.84,-18.13 0,-7.81 1.61,-13.85 4.84,-18.12 3.23,-4.28 7.71,-6.41 13.44,-6.41 5.83,0 10.36,2.13 13.59,6.41 3.23,4.27 4.85,10.31 4.85,18.12 z m 10.78,-25.47 c 0,-11.14 -2.48,-19.451 -7.43,-24.92 -4.94,-5.469 -12.57,-8.199 -22.89,-8.199 -3.75,0 -7.31,0.277 -10.7,0.859 -3.38,0.571 -6.64,1.43 -9.76,2.571 v 10.468 c 3.12,-1.66 6.25,-2.91 9.37,-3.75 3.13,-0.828 6.25,-1.25 9.38,-1.25 7.08,0 12.39,1.852 15.93,5.551 3.54,3.7 5.32,9.3 5.32,16.8 v 5.31 c -2.3,-3.85 -5.16,-6.75 -8.6,-8.67 -3.44,-1.93 -7.6,-2.89 -12.5,-2.89 -8.02,0 -14.5,3.07 -19.45,9.22 -4.95,6.14 -7.42,14.27 -7.42,24.37 0,10.1 2.47,18.23 7.42,24.38 4.95,6.14 11.43,9.21 19.45,9.21 4.9,0 9.06,-0.96 12.5,-2.89 3.44,-1.92 6.3,-4.81 8.6,-8.67 v 10 h 10.78 z m 78.34,27.35 v -5.16 h -49.67 c 0.52,-7.5 2.78,-13.18 6.8,-17.03 4.01,-3.86 9.55,-5.78 16.67,-5.78 4.1,0 8.2,0.49 12.1,1.48 3.9,0.99 7.8,2.53 11.6,4.61 v -10.31 c -3.9,-1.56 -8,-2.79 -12,-3.67 -4.1,-0.89 -8.2,-1.33 -12.36,-1.33 -10.42,0 -18.7,3.05 -24.84,9.14 -6.15,6.09 -9.22,14.35 -9.22,24.76 0,10.73 2.92,19.25 8.75,25.55 5.83,6.3 13.64,9.45 23.44,9.45 8.83,0 15.83,-2.83 21.03,-8.51 5.1,-5.68 7.7,-13.41 7.7,-23.2 z m -10.8,3.28 c -0.1,5.83 -1.7,10.52 -5,14.06 -3.2,3.54 -7.5,5.31 -12.78,5.31 -6.04,0 -10.86,-1.72 -14.45,-5.15 -3.59,-3.44 -5.65,-8.23 -6.17,-14.38 l 38.4,0.16" /><g
         id="g142"><g
           clip-path="url(#clipPath148)"
           id="g144"><path
             id="path156"
             style="fill:url(#linearGradient154);fill-opacity:1;fill-rule:nonzero;stroke:none"
             d="m 2850,1810 v -320 c 0,-22.09 17.91,-40 40,-40 h 1120 c 22.09,0 40,17.91 40,40 v 320 c 0,22.09 -17.91,40 -40,40 H 2890 c -22.09,0 -40,-17.91 -40,-40" /></g></g><g
         id="g158"><g
           clip-path="url(#clipPath164)"
           id="g160"><path
             id="path166"
             style="fill:#0c87da;fill-opacity:1;fill-rule:nonzero;stroke:none"
             d="m 2850,1810 v -320 c 0,-22.09 17.91,-40 40,-40 h 1120 c 22.09,0 40,17.91 40,40 v 320 c 0,22.09 -17.91,40 -40,40 H 2890 c -22.09,0 -40,-17.91 -40,-40" /></g></g><path
         id="path168"
         style="fill:none;stroke:#000000;stroke-width:10;stroke-linecap:butt;stroke-linejoin:miter;stroke-miterlimit:1.45000005;stroke-dasharray:none;stroke-opacity:1"
         d="m 2850,1810 v -320 c 0,-22.09 17.91,-40 40,-40 h 1120 c 22.09,0 40,17.91 40,40 v 320 c 0,22.09 -17.91,40 -40,40 H 2890 c -22.09,0 -40,-17.91 -40,-40 z" /><path
         id="path170"
         style="fill:none;stroke:#000000;stroke-width:10;stroke-linecap:butt;stroke-linejoin:miter;stroke-miterlimit:1.45000005;stroke-dasharray:none;stroke-opacity:1"
         d="M 2850,1590.31 H 4050" /><path
         id="path172"
         style="fill:#ffffff;fill-opacity:1;fill-rule:nonzero;stroke:none"
         d="m 3002.34,1766.11 h 55.32 v -10 h -43.44 v -25.93 h 41.72 v -9.85 h -41.72 v -31.72 h 44.53 v -10 h -56.41 z m 130.04,-47.81 v -39.69 h -10.78 v 39.22 c 0,6.25 -1.22,10.91 -3.67,13.99 -2.45,3.07 -6.07,4.61 -10.86,4.61 -5.83,0 -10.44,-1.85 -13.83,-5.55 -3.38,-3.7 -5.08,-8.78 -5.08,-15.24 v -37.03 h -10.78 v 65.63 h 10.78 v -10.16 c 2.61,3.96 5.66,6.9 9.14,8.83 3.49,1.93 7.53,2.89 12.11,2.89 7.5,0 13.21,-2.32 17.11,-6.95 3.91,-4.64 5.86,-11.49 5.86,-20.55 z m 13.71,25.94 h 11.41 l 20.47,-55 20.62,55 H 3210 l -24.69,-65.63 h -14.69 z m 78.68,0 h 10.78 v -65.63 h -10.78 z m 0,25.62 h 10.78 v -13.75 h -10.78 z m 71.46,-35.62 c -1.25,0.62 -2.58,1.12 -3.98,1.48 -1.41,0.37 -3,0.55 -4.77,0.55 -6.04,0 -10.7,-1.98 -13.98,-5.94 -3.29,-3.96 -4.93,-9.69 -4.93,-17.19 v -34.53 h -10.78 v 65.63 h 10.78 v -10.16 c 2.3,3.96 5.26,6.9 8.91,8.83 3.65,1.93 8.07,2.89 13.28,2.89 0.73,0 1.54,-0.05 2.42,-0.16 0.89,-0.1 1.85,-0.26 2.89,-0.46 z m 36.68,2.5 c -5.73,0 -10.29,-2.27 -13.67,-6.8 -3.39,-4.53 -5.08,-10.7 -5.08,-18.51 0,-7.92 1.67,-14.12 5,-18.6 3.33,-4.48 7.92,-6.72 13.75,-6.72 5.73,0 10.29,2.27 13.67,6.8 3.39,4.53 5.08,10.7 5.08,18.52 0,7.7 -1.69,13.85 -5.08,18.43 -3.38,4.59 -7.94,6.88 -13.67,6.88 z m 0,9.06 c 9.38,0 16.74,-3.05 22.11,-9.14 5.36,-6.09 8.05,-14.51 8.05,-25.23 0,-10.73 -2.69,-19.17 -8.05,-25.32 -5.37,-6.14 -12.73,-9.22 -22.11,-9.22 -9.37,0 -16.74,3.08 -22.11,9.22 -5.36,6.15 -8.05,14.59 -8.05,25.32 0,10.72 2.69,19.14 8.05,25.23 5.37,6.09 12.74,9.14 22.11,9.14 z m 102.64,-27.5 v -39.69 h -10.78 v 39.22 c 0,6.25 -1.23,10.91 -3.68,13.99 -2.44,3.07 -6.06,4.61 -10.86,4.61 -5.83,0 -10.44,-1.85 -13.82,-5.55 -3.39,-3.7 -5.08,-8.78 -5.08,-15.24 v -37.03 h -10.78 v 65.63 h 10.78 v -10.16 c 2.6,3.96 5.65,6.9 9.14,8.83 3.49,1.93 7.52,2.89 12.11,2.89 7.5,0 13.2,-2.32 17.11,-6.95 3.9,-4.64 5.86,-11.49 5.86,-20.55 z m 76.05,0 v -39.69 h -10.78 v 39.22 c 0,6.25 -1.22,10.91 -3.67,13.99 -2.45,3.07 -6.07,4.61 -10.86,4.61 -5.83,0 -10.44,-1.85 -13.83,-5.55 -3.38,-3.7 -5.08,-8.78 -5.08,-15.24 v -37.03 h -10.78 v 65.63 h 10.78 v -10.16 c 2.61,3.96 5.65,6.9 9.14,8.83 3.49,1.93 7.53,2.89 12.11,2.89 7.5,0 13.21,-2.32 17.11,-6.95 3.91,-4.64 5.86,-11.49 5.86,-20.55 z m 77.62,-4.22 v -5.15 h -49.69 c 0.52,-7.5 2.79,-13.18 6.8,-17.04 4.01,-3.85 9.56,-5.78 16.64,-5.78 4.17,0 8.2,0.5 12.11,1.49 3.9,0.99 7.78,2.52 11.64,4.61 v -10.32 c -3.96,-1.56 -7.97,-2.78 -12.03,-3.67 -4.07,-0.88 -8.18,-1.33 -12.35,-1.33 -10.41,0 -18.69,3.05 -24.84,9.15 -6.15,6.09 -9.22,14.34 -9.22,24.76 0,10.73 2.92,19.25 8.75,25.55 5.83,6.3 13.65,9.45 23.44,9.45 8.85,0 15.86,-2.84 21.01,-8.51 5.16,-5.68 7.74,-13.42 7.74,-23.21 z m -10.78,3.28 c -0.11,5.84 -1.77,10.52 -5,14.07 -3.23,3.54 -7.5,5.31 -12.82,5.31 -6.04,0 -10.85,-1.72 -14.45,-5.16 -3.59,-3.44 -5.65,-8.23 -6.17,-14.37 z m 79.45,14.22 c 2.71,4.9 5.94,8.49 9.69,10.78 3.75,2.29 8.18,3.44 13.28,3.44 6.87,0 12.16,-2.4 15.86,-7.19 3.7,-4.79 5.55,-11.56 5.55,-20.31 v -39.69 h -10.79 v 39.22 c 0,6.36 -1.12,11.04 -3.36,14.06 -2.23,3.03 -5.65,4.54 -10.23,4.54 -5.62,0 -10.05,-1.85 -13.28,-5.55 -3.23,-3.7 -4.84,-8.78 -4.84,-15.24 v -37.03 h -10.79 v 39.22 c 0,6.36 -1.12,11.04 -3.36,14.06 -2.23,3.03 -5.7,4.54 -10.39,4.54 -5.52,0 -9.89,-1.85 -13.12,-5.55 -3.23,-3.7 -4.84,-8.78 -4.84,-15.24 v -37.03 h -10.79 v 65.63 h 10.79 v -10.16 c 2.5,3.96 5.46,6.9 8.9,8.83 3.44,1.93 7.5,2.89 12.19,2.89 4.79,0 8.85,-1.2 12.19,-3.59 3.33,-2.4 5.78,-5.94 7.34,-10.63 z m 122.05,-17.5 v -5.15 h -49.69 c 0.52,-7.5 2.79,-13.18 6.8,-17.04 4.01,-3.85 9.56,-5.78 16.64,-5.78 4.17,0 8.2,0.5 12.11,1.49 3.91,0.99 7.79,2.52 11.64,4.61 v -10.32 c -3.96,-1.56 -7.97,-2.78 -12.03,-3.67 -4.06,-0.88 -8.18,-1.33 -12.34,-1.33 -10.42,0 -18.7,3.05 -24.85,9.15 -6.14,6.09 -9.22,14.34 -9.22,24.76 0,10.73 2.92,19.25 8.75,25.55 5.84,6.3 13.65,9.45 23.44,9.45 8.86,0 15.86,-2.84 21.02,-8.51 5.15,-5.68 7.73,-13.42 7.73,-23.21 z m -10.78,3.28 c -0.1,5.84 -1.77,10.52 -5,14.07 -3.23,3.54 -7.5,5.31 -12.81,5.31 -6.04,0 -10.86,-1.72 -14.46,-5.16 -3.59,-3.44 -5.65,-8.23 -6.17,-14.37 z m 83.05,0.94 v -39.69 h -10.78 v 39.22 c 0,6.25 -1.23,10.91 -3.68,13.99 -2.44,3.07 -6.06,4.61 -10.86,4.61 -5.83,0 -10.44,-1.85 -13.82,-5.55 -3.39,-3.7 -5.08,-8.78 -5.08,-15.24 v -37.03 h -10.78 v 65.63 h 10.78 v -10.16 c 2.6,3.96 5.65,6.9 9.14,8.83 3.49,1.93 7.52,2.89 12.11,2.89 7.5,0 13.2,-2.32 17.11,-6.95 3.9,-4.64 5.86,-11.49 5.86,-20.55 z m 32.15,44.53 v -18.59 h 22.18 v -8.44 h -22.18 v -35.62 c 0,-5.32 0.72,-8.73 2.18,-10.24 1.46,-1.51 4.43,-2.26 8.91,-2.26 h 11.09 v -9.07 h -11.09 c -8.33,0 -14.09,1.57 -17.27,4.69 -3.17,3.13 -4.76,8.75 -4.76,16.88 v 35.62 h -7.81 v 8.44 h 7.81 v 18.59 h 10.94" /><g
         id="g174"><g
           clip-path="url(#clipPath180)"
           id="g176"><path
             id="path188"
             style="fill:url(#linearGradient186);fill-opacity:1;fill-rule:nonzero;stroke:none"
             d="M 2850,610 V 290 c 0,-22.09 17.91,-40 40,-40 h 1120 c 22.09,0 40,17.91 40,40 v 320 c 0,22.09 -17.91,40 -40,40 H 2890 c -22.09,0 -40,-17.91 -40,-40" /></g></g><g
         id="g190"><g
           clip-path="url(#clipPath196)"
           id="g192"><path
             id="path198"
             style="fill:#0c87da;fill-opacity:1;fill-rule:nonzero;stroke:none"
             d="M 2850,610 V 290 c 0,-22.09 17.91,-40 40,-40 h 1120 c 22.09,0 40,17.91 40,40 v 320 c 0,22.09 -17.91,40 -40,40 H 2890 c -22.09,0 -40,-17.91 -40,-40" /></g></g><path
         id="path200"
         style="fill:none;stroke:#000000;stroke-width:10;stroke-linecap:butt;stroke-linejoin:miter;stroke-miterlimit:1.45000005;stroke-dasharray:none;stroke-opacity:1"
         d="M 2850,610 V 290 c 0,-22.09 17.91,-40 40,-40 h 1120 c 22.09,0 40,17.91 40,40 v 320 c 0,22.09 -17.91,40 -40,40 H 2890 c -22.09,0 -40,-17.91 -40,-40 z" /><path
         id="path202"
         style="fill:none;stroke:#000000;stroke-width:10;stroke-linecap:butt;stroke-linejoin:miter;stroke-miterlimit:1.45000005;stroke-dasharray:none;stroke-opacity:1"
         d="M 2850,390.309 H 4050" /><path
         id="path204"
         style="fill:#ffffff;fill-opacity:1;fill-rule:nonzero;stroke:none"
         d="m 3282.24,554.391 -16.1,-43.43 h 32.19 z m -6.72,11.718 h 13.44 l 33.28,-87.5 h -12.35 l -7.97,22.5 h -39.37 l -7.97,-22.5 h -12.5 z m 102.24,-53.898 c 0,7.809 -1.61,13.848 -4.84,18.121 -3.23,4.27 -7.76,6.41 -13.59,6.41 -5.73,0 -10.21,-2.14 -13.44,-6.41 -3.23,-4.273 -4.85,-10.312 -4.85,-18.121 0,-7.82 1.62,-13.859 4.85,-18.129 3.23,-4.273 7.71,-6.402 13.44,-6.402 5.83,0 10.36,2.129 13.59,6.402 3.23,4.27 4.84,10.309 4.84,18.129 z m 10.78,-25.469 c 0,-11.152 -2.47,-19.453 -7.42,-24.922 -4.94,-5.468 -12.58,-8.211 -22.89,-8.211 -3.75,0 -7.32,0.293 -10.7,0.86 -3.39,0.582 -6.64,1.429 -9.77,2.582 v 10.469 c 3.13,-1.668 6.25,-2.918 9.38,-3.75 3.12,-0.829 6.25,-1.25 9.37,-1.25 7.09,0 12.4,1.851 15.94,5.55 3.54,3.692 5.31,9.289 5.31,16.789 v 5.321 c -2.29,-3.86 -5.15,-6.75 -8.59,-8.68 -3.44,-1.918 -7.6,-2.891 -12.5,-2.891 -8.02,0 -14.51,3.082 -19.45,9.223 -4.95,6.148 -7.43,14.27 -7.43,24.379 0,10.098 2.48,18.23 7.43,24.371 4.94,6.148 11.43,9.219 19.45,9.219 4.9,0 9.06,-0.961 12.5,-2.891 3.44,-1.93 6.3,-4.82 8.59,-8.668 v 10 h 10.78 z m 78.36,27.34 v -5.152 h -49.68 c 0.52,-7.5 2.78,-13.18 6.79,-17.039 4.01,-3.852 9.56,-5.782 16.64,-5.782 4.17,0 8.21,0.5 12.11,1.493 3.91,0.988 7.79,2.519 11.64,4.609 v -10.32 c -3.95,-1.559 -7.96,-2.782 -12.03,-3.672 -4.06,-0.879 -8.17,-1.328 -12.34,-1.328 -10.42,0 -18.7,3.05 -24.84,9.148 -6.15,6.09 -9.22,14.34 -9.22,24.762 0,10.73 2.91,19.25 8.75,25.551 5.83,6.3 13.64,9.449 23.43,9.449 8.86,0 15.86,-2.84 21.02,-8.512 5.16,-5.68 7.73,-13.418 7.73,-23.207 z m -10.78,3.277 c -0.1,5.84 -1.77,10.52 -5,14.071 -3.23,3.539 -7.5,5.312 -12.81,5.312 -6.04,0 -10.86,-1.722 -14.45,-5.16 -3.6,-3.441 -5.65,-8.23 -6.17,-14.371 z m 83.05,0.942 v -39.692 h -10.78 v 39.223 c 0,6.25 -1.23,10.906 -3.67,13.988 -2.45,3.071 -6.07,4.61 -10.86,4.61 -5.84,0 -10.45,-1.848 -13.83,-5.551 -3.39,-3.699 -5.08,-8.777 -5.08,-15.238 v -37.032 h -10.78 v 65.633 h 10.78 v -10.16 c 2.61,3.957 5.65,6.898 9.14,8.828 3.49,1.93 7.53,2.891 12.11,2.891 7.5,0 13.2,-2.321 17.11,-6.949 3.91,-4.641 5.86,-11.493 5.86,-20.551 z m 32.15,44.527 v -18.586 h 22.19 v -8.441 h -22.19 V 500.18 c 0,-5.321 0.73,-8.731 2.19,-10.239 1.45,-1.511 4.42,-2.261 8.9,-2.261 h 11.1 v -9.071 h -11.1 c -8.33,0 -14.09,1.571 -17.26,4.692 -3.18,3.129 -4.77,8.75 -4.77,16.879 v 35.621 h -7.81 v 8.441 h 7.81 v 18.586 z m 78.14,-20.469 v -10.308 c -3.02,1.558 -6.17,2.738 -9.45,3.519 -3.28,0.782 -6.69,1.172 -10.23,1.172 -5.32,0 -9.33,-0.812 -12.04,-2.422 -2.7,-1.621 -4.06,-4.09 -4.06,-7.429 0,-2.5 0.97,-4.45 2.89,-5.852 1.93,-1.41 5.81,-2.738 11.64,-3.988 l 3.6,-0.942 c 7.7,-1.558 13.17,-3.847 16.4,-6.867 3.23,-3.023 4.85,-7.191 4.85,-12.5 0,-6.152 -2.43,-10.992 -7.27,-14.531 -4.84,-3.539 -11.48,-5.32 -19.92,-5.32 -3.54,0 -7.21,0.339 -11.02,1.019 -3.8,0.68 -7.78,1.692 -11.95,3.051 v 11.25 c 3.96,-2.09 7.86,-3.652 11.72,-4.691 3.85,-1.04 7.71,-1.559 11.56,-1.559 5,0 8.88,0.859 11.64,2.578 2.76,1.711 4.14,4.191 4.14,7.422 0,2.91 -0.99,5.148 -2.97,6.719 -1.98,1.562 -6.3,3.07 -12.96,4.531 l -3.75,0.781 c -6.67,1.457 -11.49,3.637 -14.46,6.559 -2.97,2.918 -4.45,6.879 -4.45,11.879 0,6.25 2.19,11.039 6.56,14.371 4.38,3.328 10.57,5 18.6,5 3.95,0 7.7,-0.289 11.25,-0.86 3.54,-0.57 6.77,-1.429 9.68,-2.582" /><g
         id="g206"><g
           clip-path="url(#clipPath212)"
           id="g208"><path
             id="path220"
             style="fill:url(#linearGradient218);fill-opacity:1;fill-rule:nonzero;stroke:none"
             d="M 1650,1210 V 890 c 0,-22.09 17.91,-40 40,-40 h 1120 c 22.09,0 40,17.91 40,40 v 320 c 0,22.09 -17.91,40 -40,40 H 1690 c -22.09,0 -40,-17.91 -40,-40" /></g></g><g
         id="g222"><g
           clip-path="url(#clipPath228)"
           id="g224"><path
             id="path230"
             style="fill:#0c87da;fill-opacity:1;fill-rule:nonzero;stroke:none"
             d="M 1650,1210 V 890 c 0,-22.09 17.91,-40 40,-40 h 1120 c 22.09,0 40,17.91 40,40 v 320 c 0,22.09 -17.91,40 -40,40 H 1690 c -22.09,0 -40,-17.91 -40,-40" /></g></g><path
         id="path232"
         style="fill:none;stroke:#000000;stroke-width:10;stroke-linecap:butt;stroke-linejoin:miter;stroke-miterlimit:1.45000005;stroke-dasharray:none;stroke-opacity:1"
         d="M 1650,1210 V 890 c 0,-22.09 17.91,-40 40,-40 h 1120 c 22.09,0 40,17.91 40,40 v 320 c 0,22.09 -17.91,40 -40,40 H 1690 c -22.09,0 -40,-17.91 -40,-40 z" /><path
         id="path234"
         style="fill:none;stroke:#000000;stroke-width:10;stroke-linecap:butt;stroke-linejoin:miter;stroke-miterlimit:1.45000005;stroke-dasharray:none;stroke-opacity:1"
         d="M 1650,990.309 H 2850" /><path
         id="path236"
         style="fill:#ffffff;fill-opacity:1;fill-rule:nonzero;stroke:none"
         d="m 1867.21,1158.14 c -8.65,0 -15.5,-3.2 -20.55,-9.6 -5.05,-6.41 -7.58,-15.19 -7.58,-26.33 0,-10.94 2.53,-19.61 7.58,-26.02 5.05,-6.4 11.9,-9.61 20.55,-9.61 8.54,0 15.34,3.21 20.39,9.61 5.05,6.41 7.58,15.08 7.58,26.02 0,11.14 -2.53,19.92 -7.58,26.33 -5.05,6.4 -11.85,9.6 -20.39,9.6 z m 0,9.54 c 12.18,0 21.95,-4.12 29.29,-12.35 7.35,-8.23 11.02,-19.27 11.02,-33.12 0,-13.75 -3.67,-24.74 -11.02,-32.97 -7.34,-8.23 -17.11,-12.35 -29.29,-12.35 -12.29,0 -22.14,4.12 -29.53,12.35 -7.4,8.23 -11.1,19.22 -11.1,32.97 0,13.85 3.7,24.89 11.1,33.12 7.39,8.23 17.24,12.35 29.53,12.35 z m 96.48,-33.44 c -1.25,0.62 -2.58,1.12 -3.98,1.48 -1.41,0.37 -3,0.55 -4.77,0.55 -6.04,0 -10.7,-1.98 -13.98,-5.94 -3.28,-3.96 -4.92,-9.69 -4.92,-17.19 v -34.53 h -10.79 v 65.63 h 10.79 v -10.16 c 2.29,3.96 5.26,6.9 8.9,8.83 3.65,1.93 8.07,2.89 13.28,2.89 0.73,0 1.54,-0.05 2.42,-0.16 0.89,-0.1 1.85,-0.26 2.9,-0.46 z m 54.49,0 v 35.62 h 10.78 v -91.25 h -10.78 v 9.85 c -2.29,-3.86 -5.15,-6.75 -8.59,-8.67 -3.44,-1.93 -7.6,-2.9 -12.5,-2.9 -7.92,0 -14.38,3.18 -19.38,9.54 -5,6.35 -7.5,14.68 -7.5,25 0,10.31 2.5,18.62 7.5,24.92 5,6.3 11.46,9.45 19.38,9.45 4.9,0 9.06,-0.94 12.5,-2.81 3.44,-1.88 6.3,-4.79 8.59,-8.75 z m -36.72,-22.81 c 0,-7.92 1.62,-14.14 4.85,-18.68 3.23,-4.53 7.71,-6.79 13.44,-6.79 5.73,0 10.23,2.26 13.51,6.79 3.28,4.54 4.92,10.76 4.92,18.68 0,7.91 -1.64,14.11 -4.92,18.59 -3.28,4.48 -7.78,6.72 -13.51,6.72 -5.73,0 -10.21,-2.24 -13.44,-6.72 -3.23,-4.48 -4.85,-10.68 -4.85,-18.59 z m 95.08,25.31 c -5.73,0 -10.28,-2.27 -13.67,-6.8 -3.38,-4.53 -5.08,-10.7 -5.08,-18.51 0,-7.92 1.67,-14.12 5,-18.6 3.34,-4.48 7.92,-6.72 13.75,-6.72 5.73,0 10.29,2.27 13.67,6.8 3.39,4.53 5.08,10.7 5.08,18.52 0,7.7 -1.69,13.85 -5.08,18.43 -3.38,4.59 -7.94,6.88 -13.67,6.88 z m 0,9.06 c 9.38,0 16.75,-3.05 22.11,-9.14 5.37,-6.09 8.05,-14.51 8.05,-25.23 0,-10.73 -2.68,-19.17 -8.05,-25.32 -5.36,-6.14 -12.73,-9.22 -22.11,-9.22 -9.37,0 -16.74,3.08 -22.11,9.22 -5.36,6.15 -8.04,14.59 -8.04,25.32 0,10.72 2.68,19.14 8.04,25.23 5.37,6.09 12.74,9.14 22.11,9.14 z m 102.64,-27.5 v -39.69 h -10.78 v 39.22 c 0,6.25 -1.23,10.91 -3.67,13.99 -2.45,3.07 -6.07,4.61 -10.86,4.61 -5.84,0 -10.45,-1.85 -13.83,-5.55 -3.39,-3.7 -5.08,-8.78 -5.08,-15.24 v -37.03 h -10.78 v 65.63 h 10.78 v -10.16 c 2.61,3.96 5.65,6.9 9.14,8.83 3.49,1.93 7.53,2.89 12.11,2.89 7.5,0 13.2,-2.32 17.11,-6.95 3.91,-4.64 5.86,-11.49 5.86,-20.55 z m 76.05,0 v -39.69 h -10.78 v 39.22 c 0,6.25 -1.22,10.91 -3.67,13.99 -2.45,3.07 -6.07,4.61 -10.86,4.61 -5.83,0 -10.44,-1.85 -13.83,-5.55 -3.38,-3.7 -5.07,-8.78 -5.07,-15.24 v -37.03 h -10.79 v 65.63 h 10.79 v -10.16 c 2.6,3.96 5.65,6.9 9.14,8.83 3.49,1.93 7.52,2.89 12.11,2.89 7.5,0 13.2,-2.32 17.11,-6.95 3.9,-4.64 5.85,-11.49 5.85,-20.55 z m 51.22,-6.72 c -8.65,0 -14.67,-0.99 -18.05,-2.97 -3.39,-1.98 -5.08,-5.36 -5.08,-10.15 0,-3.86 1.28,-6.9 3.83,-9.14 2.55,-2.24 5.96,-3.36 10.23,-3.36 6.04,0 10.86,2.11 14.46,6.33 3.59,4.21 5.39,9.86 5.39,16.95 v 2.34 z m 21.56,4.53 v -37.5 h -10.78 v 10 c -2.5,-3.96 -5.58,-6.9 -9.22,-8.82 -3.65,-1.93 -8.13,-2.9 -13.44,-2.9 -6.77,0 -12.14,1.91 -16.09,5.71 -3.96,3.8 -5.94,8.83 -5.94,15.08 0,7.39 2.47,12.96 7.42,16.71 4.95,3.75 12.32,5.63 22.11,5.63 h 15.16 v 1.09 c 0,5 -1.64,8.86 -4.93,11.57 -3.28,2.7 -7.83,4.06 -13.67,4.06 -3.75,0 -7.42,-0.47 -11.01,-1.41 -3.6,-0.94 -7.01,-2.29 -10.24,-4.06 v 10 c 3.96,1.56 7.79,2.71 11.49,3.44 3.7,0.73 7.31,1.09 10.86,1.09 9.48,0 16.56,-2.45 21.25,-7.34 4.68,-4.9 7.03,-12.35 7.03,-22.35 z m 76.81,2.19 v -39.69 h -10.78 v 39.22 c 0,6.25 -1.22,10.91 -3.67,13.99 -2.45,3.07 -6.07,4.61 -10.86,4.61 -5.83,0 -10.44,-1.85 -13.83,-5.55 -3.38,-3.7 -5.07,-8.78 -5.07,-15.24 v -37.03 h -10.79 v 65.63 h 10.79 v -10.16 c 2.6,3.96 5.65,6.9 9.14,8.83 3.49,1.93 7.52,2.89 12.11,2.89 7.5,0 13.2,-2.32 17.1,-6.95 3.91,-4.64 5.86,-11.49 5.86,-20.55 z m 68.72,23.44 v -10.16 c -3.13,1.77 -6.2,3.07 -9.22,3.91 -3.02,0.83 -6.1,1.25 -9.22,1.25 -7.09,0 -12.55,-2.22 -16.41,-6.64 -3.85,-4.43 -5.78,-10.65 -5.78,-18.67 0,-8.03 1.93,-14.25 5.78,-18.68 3.86,-4.42 9.32,-6.64 16.41,-6.64 3.12,0 6.2,0.42 9.22,1.25 3.02,0.84 6.09,2.09 9.22,3.75 v -10 c -3.03,-1.35 -6.15,-2.39 -9.38,-3.12 -3.23,-0.73 -6.67,-1.1 -10.31,-1.1 -9.9,0 -17.76,3.1 -23.6,9.3 -5.83,6.2 -8.75,14.61 -8.75,25.24 0,10.62 2.95,19.01 8.83,25.15 5.89,6.15 13.99,9.22 24.3,9.22 3.23,0 6.43,-0.34 9.61,-1.01 3.18,-0.68 6.27,-1.7 9.3,-3.05 z m 74.88,-27.66 v -5.15 h -49.69 c 0.52,-7.5 2.79,-13.18 6.8,-17.04 4.01,-3.85 9.55,-5.78 16.64,-5.78 4.16,0 8.2,0.5 12.11,1.49 3.9,0.99 7.78,2.52 11.64,4.61 v -10.32 c -3.96,-1.56 -7.97,-2.78 -12.03,-3.67 -4.07,-0.88 -8.18,-1.33 -12.35,-1.33 -10.41,0 -18.69,3.05 -24.84,9.15 -6.15,6.09 -9.22,14.34 -9.22,24.76 0,10.73 2.92,19.25 8.75,25.55 5.83,6.3 13.65,9.45 23.44,9.45 8.85,0 15.86,-2.84 21.01,-8.51 5.16,-5.68 7.74,-13.42 7.74,-23.21 z m -10.78,3.28 c -0.11,5.84 -1.77,10.52 -5,14.07 -3.23,3.54 -7.5,5.31 -12.82,5.31 -6.04,0 -10.86,-1.72 -14.45,-5.16 -3.59,-3.44 -5.65,-8.23 -6.17,-14.37 z m 27.26,-12.81 v 39.69 h 10.78 v -39.38 c 0,-6.14 1.23,-10.78 3.68,-13.9 2.44,-3.13 6.06,-4.69 10.85,-4.69 5.84,0 10.45,1.85 13.83,5.55 3.39,3.69 5.08,8.77 5.08,15.23 v 37.19 h 10.78 v -65.63 h -10.78 v 10.16 c -2.6,-4.06 -5.62,-7.06 -9.06,-8.98 -3.44,-1.93 -7.45,-2.9 -12.03,-2.9 -7.61,0 -13.36,2.35 -17.27,7.04 -3.9,4.68 -5.86,11.56 -5.86,20.62 z m 115.28,29.69 c -1.25,0.62 -2.58,1.12 -3.99,1.48 -1.4,0.37 -2.99,0.55 -4.76,0.55 -6.05,0 -10.71,-1.98 -13.99,-5.94 -3.28,-3.96 -4.92,-9.69 -4.92,-17.19 v -34.53 h -10.78 v 65.63 h 10.78 v -10.16 c 2.29,3.96 5.26,6.9 8.91,8.83 3.64,1.93 8.07,2.89 13.28,2.89 0.73,0 1.53,-0.05 2.42,-0.16 0.88,-0.1 1.85,-0.26 2.89,-0.46 l 0.16,-10.94" /><path
         id="path244"
         style="fill:url(#linearGradient242);fill-opacity:1;fill-rule:nonzero;stroke:none"
         d="m 4950,1930 450,-280 -450,-280 -450,280 z" /><path
         id="path246"
         style="fill:none;stroke:#000000;stroke-width:10;stroke-linecap:butt;stroke-linejoin:miter;stroke-miterlimit:1.45000005;stroke-dasharray:none;stroke-opacity:1"
         d="m 4950,1930 450,-280 -450,-280 -450,280 z" /><path
         id="path248"
         style="fill:#000000;fill-opacity:1;fill-rule:nonzero;stroke:none"
         d="m 4761.22,1620.96 v 23.43 h -19.37 v 9.85 h 31.09 v -37.66 c -4.58,-3.23 -9.61,-5.68 -15.08,-7.34 -5.47,-1.67 -11.33,-2.5 -17.58,-2.5 -13.75,0 -24.48,4.01 -32.18,12.03 -7.71,8.02 -11.57,19.11 -11.57,33.28 0,14.38 3.86,25.55 11.57,33.52 7.7,7.97 18.43,11.95 32.18,11.95 5.63,0 11.02,-0.7 16.18,-2.11 5.15,-1.41 9.92,-3.46 14.29,-6.17 v -12.66 c -4.37,3.75 -9.03,6.56 -13.98,8.44 -4.95,1.87 -10.13,2.81 -15.55,2.81 -10.73,0 -18.78,-2.99 -24.14,-8.98 -5.36,-5.99 -8.05,-14.92 -8.05,-26.8 0,-11.77 2.69,-20.65 8.05,-26.64 5.36,-5.99 13.41,-8.98 24.14,-8.98 4.17,0 7.89,0.36 11.17,1.09 3.28,0.73 6.23,1.87 8.83,3.44 z m 45.18,65.31 v -32.97 h 14.84 c 5.52,0 9.79,1.43 12.81,4.3 3.02,2.86 4.53,6.95 4.53,12.26 0,5.21 -1.51,9.25 -4.53,12.11 -3.02,2.87 -7.29,4.3 -12.81,4.3 z m -11.88,9.69 h 26.72 c 9.9,0 17.34,-2.22 22.34,-6.64 5,-4.43 7.5,-10.92 7.5,-19.46 0,-8.64 -2.5,-15.18 -7.5,-19.61 -5,-4.42 -12.44,-6.64 -22.34,-6.64 h -14.84 v -35.15 h -11.88 z m 132.05,-75 v 23.43 h -19.37 v 9.85 h 31.09 v -37.66 c -4.58,-3.23 -9.61,-5.68 -15.08,-7.34 -5.47,-1.67 -11.33,-2.5 -17.58,-2.5 -13.75,0 -24.47,4.01 -32.18,12.03 -7.71,8.02 -11.57,19.11 -11.57,33.28 0,14.38 3.86,25.55 11.57,33.52 7.71,7.97 18.43,11.95 32.18,11.95 5.63,0 11.02,-0.7 16.18,-2.11 5.15,-1.41 9.92,-3.46 14.29,-6.17 v -12.66 c -4.37,3.75 -9.03,6.56 -13.98,8.44 -4.95,1.87 -10.13,2.81 -15.55,2.81 -10.73,0 -18.77,-2.99 -24.14,-8.98 -5.36,-5.99 -8.05,-14.92 -8.05,-26.8 0,-11.77 2.69,-20.65 8.05,-26.64 5.37,-5.99 13.41,-8.98 24.14,-8.98 4.17,0 7.89,0.36 11.17,1.09 3.29,0.73 6.23,1.87 8.83,3.44 z m 45.18,65.31 v -32.97 h 14.84 c 5.52,0 9.79,1.43 12.81,4.3 3.03,2.86 4.54,6.95 4.54,12.26 0,5.21 -1.51,9.25 -4.54,12.11 -3.02,2.87 -7.29,4.3 -12.81,4.3 z m -11.88,9.69 h 26.72 c 9.9,0 17.35,-2.22 22.35,-6.64 5,-4.43 7.5,-10.92 7.5,-19.46 0,-8.64 -2.5,-15.18 -7.5,-19.61 -5,-4.42 -12.45,-6.64 -22.35,-6.64 h -14.84 v -35.15 h -11.88 z m 71.12,0 h 11.87 v -53.13 c 0,-9.37 1.69,-16.12 5.08,-20.23 3.38,-4.12 8.88,-6.17 16.48,-6.17 7.61,0 13.1,2.05 16.49,6.17 3.38,4.11 5.08,10.86 5.08,20.23 v 53.13 h 11.87 v -54.69 c 0,-11.35 -2.81,-19.95 -8.44,-25.78 -5.62,-5.84 -13.95,-8.75 -25,-8.75 -11.04,0 -19.37,2.91 -25,8.75 -5.62,5.83 -8.43,14.43 -8.43,25.78 z m 138.47,-72.66 h 11.88 v -14.84 h -11.88 z m 11.57,8.59 h -11.25 v 9.07 c 0,3.96 0.54,7.21 1.64,9.76 1.09,2.55 3.41,5.5 6.95,8.83 l 5.16,5.16 c 2.29,2.08 3.93,4.06 4.92,5.93 0.99,1.88 1.48,3.75 1.48,5.63 0,3.44 -1.27,6.25 -3.83,8.44 -2.55,2.18 -5.96,3.28 -10.23,3.28 -3.02,0 -6.28,-0.7 -9.77,-2.11 -3.49,-1.41 -7.16,-3.41 -11.01,-6.02 v 11.1 c 3.64,2.18 7.37,3.83 11.17,4.92 3.8,1.09 7.68,1.64 11.64,1.64 7.19,0 12.97,-1.9 17.34,-5.7 4.38,-3.81 6.57,-8.78 6.57,-14.93 0,-3.02 -0.71,-5.85 -2.11,-8.51 -1.41,-2.66 -3.88,-5.65 -7.42,-8.99 l -5.16,-5.15 c -1.77,-1.77 -3.05,-3.18 -3.83,-4.22 -0.78,-1.04 -1.33,-2.08 -1.64,-3.13 -0.21,-0.72 -0.36,-1.69 -0.47,-2.89 -0.1,-1.19 -0.15,-2.78 -0.15,-4.76 v -7.35" /><path
         id="path256"
         style="fill:url(#linearGradient254);fill-opacity:1;fill-rule:nonzero;stroke:none"
         d="M 150,150 H 350 V 1950 H 150 Z" /><path
         id="path258"
         style="fill:#ffffff;fill-opacity:1;fill-rule:nonzero;stroke:none"
         d="m 286.699,993.738 c 2.188,-4.168 3.828,-8.488 4.922,-12.968 1.094,-4.481 1.641,-9.168 1.641,-14.063 0,-14.582 -4.09,-26.144 -12.266,-34.687 -8.176,-8.543 -19.191,-12.813 -33.047,-12.813 -14.062,0 -25.156,4.27 -33.281,12.813 -8.125,8.543 -12.188,20.105 -12.188,34.687 0,4.895 0.547,9.582 1.641,14.063 1.094,4.48 2.734,8.8 4.922,12.968 h 17.969 c -2.813,-4.269 -4.871,-8.437 -6.172,-12.5 -1.301,-4.062 -1.953,-8.332 -1.953,-12.812 0,-8.02 2.578,-14.324 7.734,-18.906 5.156,-4.582 12.266,-6.875 21.328,-6.875 8.957,0 16.016,2.293 21.172,6.875 5.156,4.582 7.734,10.886 7.734,18.906 0,4.48 -0.652,8.75 -1.953,12.812 -1.3,4.063 -3.41,8.231 -6.328,12.5 z m -82.656,18.692 v 37.34 c 0,11.15 2.473,19.69 7.422,25.63 4.949,5.94 12.004,8.9 21.172,8.9 9.168,0 16.222,-2.96 21.172,-8.9 4.949,-5.94 7.421,-14.48 7.421,-25.63 v -14.84 h 30.313 v -22.5 z m 16.406,22.5 h 24.375 v 12.5 c 0,4.37 -1.066,7.76 -3.203,10.16 -2.137,2.39 -5.129,3.59 -8.984,3.59 -3.957,0 -6.981,-1.2 -9.063,-3.59 -2.082,-2.4 -3.125,-5.79 -3.125,-10.16 z m -16.406,65.45 v 22.5 h 52.5 c 7.187,0 12.344,1.17 15.469,3.51 3.125,2.35 4.687,6.23 4.687,11.65 0,5.31 -1.562,9.16 -4.687,11.56 -3.125,2.39 -8.282,3.59 -15.469,3.59 h -52.5 v 22.5 h 52.5 c 12.395,0 21.613,-3.1 27.656,-9.3 6.043,-6.19 9.063,-15.65 9.063,-28.35 0,-12.71 -3.02,-22.16 -9.063,-28.36 -6.043,-6.2 -15.261,-9.3 -27.656,-9.3 h -52.5" /><g
         id="g260"><g
           clip-path="url(#clipPath266)"
           id="g262"><path
             id="path274"
             style="fill:url(#linearGradient272);fill-opacity:1;fill-rule:nonzero;stroke:none"
             d="m 5250,2710 v -320 c 0,-22.09 17.91,-40 40,-40 h 1120 c 22.09,0 40,17.91 40,40 v 320 c 0,22.09 -17.91,40 -40,40 H 5290 c -22.09,0 -40,-17.91 -40,-40" /></g></g><g
         id="g276"><g
           clip-path="url(#clipPath282)"
           id="g278"><path
             id="path284"
             style="fill:#7cbf33;fill-opacity:1;fill-rule:nonzero;stroke:none"
             d="m 5250,2710 v -320 c 0,-22.09 17.91,-40 40,-40 h 1120 c 22.09,0 40,17.91 40,40 v 320 c 0,22.09 -17.91,40 -40,40 H 5290 c -22.09,0 -40,-17.91 -40,-40" /></g></g><path
         id="path286"
         style="fill:none;stroke:#000000;stroke-width:10;stroke-linecap:butt;stroke-linejoin:miter;stroke-miterlimit:1.45000005;stroke-dasharray:none;stroke-opacity:1"
         d="m 5250,2710 v -320 c 0,-22.09 17.91,-40 40,-40 h 1120 c 22.09,0 40,17.91 40,40 v 320 c 0,22.09 -17.91,40 -40,40 H 5290 c -22.09,0 -40,-17.91 -40,-40 z" /><path
         id="path288"
         style="fill:none;stroke:#000000;stroke-width:10;stroke-linecap:butt;stroke-linejoin:miter;stroke-miterlimit:1.45000005;stroke-dasharray:none;stroke-opacity:1"
         d="M 5250,2490.31 H 6450" /><path
         id="path290"
         style="fill:#ffffff;fill-opacity:1;fill-rule:nonzero;stroke:none"
         d="m 5466.62,2666.11 h 17.66 l 22.34,-59.53 22.5,59.53 h 17.66 v -87.5 h -11.57 v 76.88 l -22.65,-60 h -11.88 l -22.5,60 v -76.88 h -11.56 z m 128.54,-29.37 c -5.73,0 -10.29,-2.27 -13.68,-6.8 -3.38,-4.53 -5.07,-10.7 -5.07,-18.51 0,-7.92 1.66,-14.12 5,-18.6 3.33,-4.48 7.91,-6.72 13.75,-6.72 5.73,0 10.28,2.27 13.67,6.8 3.38,4.53 5.08,10.7 5.08,18.52 0,7.7 -1.7,13.85 -5.08,18.43 -3.39,4.59 -7.94,6.88 -13.67,6.88 z m 0,9.06 c 9.37,0 16.74,-3.05 22.11,-9.14 5.36,-6.09 8.04,-14.51 8.04,-25.23 0,-10.73 -2.68,-19.17 -8.04,-25.32 -5.37,-6.14 -12.74,-9.22 -22.11,-9.22 -9.38,0 -16.75,3.08 -22.11,9.22 -5.37,6.15 -8.05,14.59 -8.05,25.32 0,10.72 2.68,19.14 8.05,25.23 5.36,6.09 12.73,9.14 22.11,9.14 z m 91.23,-11.56 v 35.62 h 10.78 v -91.25 h -10.78 v 9.85 c -2.29,-3.86 -5.16,-6.75 -8.6,-8.67 -3.43,-1.93 -7.6,-2.9 -12.5,-2.9 -7.91,0 -14.37,3.18 -19.37,9.54 -5,6.35 -7.5,14.68 -7.5,25 0,10.31 2.5,18.62 7.5,24.92 5,6.3 11.46,9.45 19.37,9.45 4.9,0 9.07,-0.94 12.5,-2.81 3.44,-1.88 6.31,-4.79 8.6,-8.75 z m -36.72,-22.81 c 0,-7.92 1.61,-14.14 4.84,-18.68 3.23,-4.53 7.71,-6.79 13.44,-6.79 5.73,0 10.23,2.26 13.51,6.79 3.29,4.54 4.93,10.76 4.93,18.68 0,7.91 -1.64,14.11 -4.93,18.59 -3.28,4.48 -7.78,6.72 -13.51,6.72 -5.73,0 -10.21,-2.24 -13.44,-6.72 -3.23,-4.48 -4.84,-10.68 -4.84,-18.59 z m 68.51,-6.88 v 39.69 h 10.78 v -39.38 c 0,-6.14 1.23,-10.78 3.68,-13.9 2.44,-3.13 6.06,-4.69 10.86,-4.69 5.83,0 10.44,1.85 13.82,5.55 3.39,3.69 5.08,8.77 5.08,15.23 v 37.19 h 10.78 v -65.63 h -10.78 v 10.16 c -2.6,-4.06 -5.62,-7.06 -9.06,-8.98 -3.44,-1.93 -7.45,-2.9 -12.03,-2.9 -7.61,0 -13.36,2.35 -17.27,7.04 -3.9,4.68 -5.86,11.56 -5.86,20.62 z m 77.15,65.31 h 10.78 v -91.25 h -10.78 z m 89.59,-55.78 v -5.15 h -49.69 c 0.53,-7.5 2.79,-13.18 6.8,-17.04 4.01,-3.85 9.56,-5.78 16.64,-5.78 4.17,0 8.21,0.5 12.11,1.49 3.91,0.99 7.79,2.52 11.64,4.61 v -10.32 c -3.96,-1.56 -7.97,-2.78 -12.03,-3.67 -4.06,-0.88 -8.18,-1.33 -12.34,-1.33 -10.42,0 -18.7,3.05 -24.85,9.15 -6.14,6.09 -9.22,14.34 -9.22,24.76 0,10.73 2.92,19.25 8.75,25.55 5.84,6.3 13.65,9.45 23.44,9.45 8.86,0 15.86,-2.84 21.02,-8.51 5.15,-5.68 7.73,-13.42 7.73,-23.21 z m -10.78,3.28 c -0.1,5.84 -1.77,10.52 -5,14.07 -3.23,3.54 -7.5,5.31 -12.81,5.31 -6.04,0 -10.86,-1.72 -14.45,-5.16 -3.6,-3.44 -5.66,-8.23 -6.18,-14.37 z m 70.24,25 v -10.31 c -3.03,1.56 -6.18,2.74 -9.46,3.52 -3.28,0.78 -6.69,1.17 -10.23,1.17 -5.31,0 -9.33,-0.81 -12.03,-2.42 -2.71,-1.62 -4.07,-4.09 -4.07,-7.43 0,-2.5 0.97,-4.45 2.89,-5.85 1.93,-1.41 5.81,-2.74 11.64,-3.99 l 3.6,-0.94 c 7.71,-1.56 13.18,-3.85 16.4,-6.87 3.23,-3.02 4.85,-7.19 4.85,-12.5 0,-6.15 -2.42,-10.99 -7.27,-14.53 -4.84,-3.54 -11.48,-5.32 -19.92,-5.32 -3.54,0 -7.21,0.34 -11.01,1.02 -3.81,0.68 -7.79,1.69 -11.96,3.05 v 11.25 c 3.96,-2.09 7.87,-3.65 11.72,-4.69 3.86,-1.04 7.71,-1.56 11.56,-1.56 5,0 8.88,0.86 11.64,2.58 2.76,1.71 4.15,4.19 4.15,7.42 0,2.91 -0.99,5.15 -2.97,6.72 -1.98,1.56 -6.31,3.07 -12.97,4.53 l -3.75,0.78 c -6.67,1.46 -11.49,3.64 -14.46,6.56 -2.96,2.92 -4.45,6.88 -4.45,11.88 0,6.25 2.19,11.04 6.56,14.37 4.38,3.33 10.58,5 18.6,5 3.96,0 7.71,-0.29 11.25,-0.86 3.54,-0.57 6.77,-1.43 9.69,-2.58 z m 118.94,-51.25 v 23.44 h -19.37 v 9.84 h 31.09 v -37.65 c -4.58,-3.23 -9.61,-5.68 -15.08,-7.35 -5.47,-1.66 -11.33,-2.5 -17.58,-2.5 -13.75,0 -24.48,4.01 -32.18,12.04 -7.71,8.02 -11.57,19.11 -11.57,33.28 0,14.37 3.86,25.54 11.57,33.51 7.7,7.97 18.43,11.96 32.18,11.96 5.63,0 11.02,-0.71 16.17,-2.11 5.16,-1.41 9.93,-3.47 14.3,-6.18 v -12.65 c -4.37,3.75 -9.03,6.56 -13.98,8.44 -4.95,1.87 -10.13,2.81 -15.55,2.81 -10.73,0 -18.78,-3 -24.14,-8.99 -5.36,-5.99 -8.05,-14.92 -8.05,-26.79 0,-11.77 2.69,-20.65 8.05,-26.64 5.36,-5.99 13.41,-8.99 24.14,-8.99 4.17,0 7.89,0.37 11.17,1.1 3.28,0.72 6.23,1.87 8.83,3.43 z m 45.18,65.32 v -32.97 h 14.84 c 5.52,0 9.79,1.43 12.81,4.29 3.02,2.87 4.53,6.96 4.53,12.27 0,5.21 -1.51,9.24 -4.53,12.11 -3.02,2.86 -7.29,4.3 -12.81,4.3 z m -11.88,9.68 h 26.72 c 9.9,0 17.34,-2.21 22.34,-6.64 5,-4.42 7.5,-10.91 7.5,-19.45 0,-8.65 -2.5,-15.18 -7.5,-19.61 -5,-4.43 -12.44,-6.64 -22.34,-6.64 h -14.84 v -35.16 h -11.88 z m 71.11,0 h 11.88 v -53.12 c 0,-9.38 1.69,-16.12 5.08,-20.24 3.38,-4.11 8.88,-6.17 16.48,-6.17 7.61,0 13.1,2.06 16.49,6.17 3.38,4.12 5.07,10.86 5.07,20.24 v 53.12 h 11.88 v -54.68 c 0,-11.36 -2.81,-19.95 -8.44,-25.79 -5.62,-5.83 -13.96,-8.75 -25,-8.75 -11.04,0 -19.37,2.92 -25,8.75 -5.62,5.84 -8.44,14.43 -8.44,25.79 v 54.68" /><path
         id="path292"
         style="fill:none;stroke:#000000;stroke-width:10;stroke-linecap:butt;stroke-linejoin:miter;stroke-miterlimit:1.45000005;stroke-dasharray:60, 20;stroke-dashoffset:0;stroke-opacity:1"
         d="M 150,150 H 8850 V 1950 H 150 Z" /><path
         id="path300"
         style="fill:url(#linearGradient298);fill-opacity:1;fill-rule:nonzero;stroke:none"
         d="m 600,850 h 800 v 400 H 600 Z" /><path
         id="path302"
         style="fill:none;stroke:#000000;stroke-width:10;stroke-linecap:butt;stroke-linejoin:miter;stroke-miterlimit:1.45000005;stroke-dasharray:none;stroke-opacity:1"
         d="m 600,850 h 800 v 400 H 600 Z" /><path
         id="path304"
         style="fill:#000000;fill-opacity:1;fill-rule:nonzero;stroke:none"
         d="m 646.063,1095.96 h 11.875 v -87.5 h -11.875 z m 89.613,-47.82 v -39.68 h -10.781 v 39.22 c 0,6.25 -1.227,10.91 -3.672,13.98 -2.45,3.07 -6.071,4.61 -10.864,4.61 -5.832,0 -10.441,-1.85 -13.828,-5.55 -3.383,-3.7 -5.078,-8.77 -5.078,-15.23 v -37.03 h -10.777 v 65.62 h 10.777 v -10.15 c 2.606,3.95 5.652,6.9 9.145,8.82 3.488,1.93 7.523,2.89 12.105,2.89 7.5,0 13.203,-2.31 17.11,-6.95 3.91,-4.63 5.863,-11.48 5.863,-20.55 z m 21.367,25.94 h 10.777 v -65.62 h -10.777 z m 0,25.63 h 10.777 v -13.75 h -10.777 z m 44.117,-7.03 v -18.6 h 22.192 v -8.44 H 801.16 v -35.62 c 0,-5.31 0.731,-8.72 2.192,-10.23 1.457,-1.52 4.425,-2.27 8.906,-2.27 h 11.094 v -9.06 h -11.094 c -8.336,0 -14.09,1.56 -17.27,4.68 -3.175,3.13 -4.761,8.75 -4.761,16.88 v 35.62 h -7.817 v 8.44 h 7.817 v 18.6 z m 36.274,-18.6 h 10.781 v -65.62 h -10.781 z m 0,25.63 h 10.781 v -13.75 h -10.781 z m 63.179,-58.28 c -8.644,0 -14.66,-0.99 -18.047,-2.97 -3.382,-1.98 -5.078,-5.37 -5.078,-10.16 0,-3.85 1.278,-6.9 3.828,-9.14 2.555,-2.24 5.965,-3.36 10.239,-3.36 6.039,0 10.855,2.11 14.453,6.33 3.594,4.22 5.387,9.87 5.387,16.95 v 2.35 z m 21.567,4.53 v -37.5 h -10.785 v 10 c -2.5,-3.96 -5.571,-6.9 -9.215,-8.83 -3.649,-1.93 -8.125,-2.89 -13.442,-2.89 -6.769,0 -12.133,1.9 -16.093,5.7 -3.957,3.8 -5.934,8.83 -5.934,15.08 0,7.4 2.473,12.97 7.422,16.72 4.945,3.75 12.316,5.62 22.105,5.62 h 15.157 v 1.1 c 0,5 -1.637,8.85 -4.918,11.56 -3.286,2.71 -7.84,4.06 -13.672,4.06 -3.75,0 -7.422,-0.47 -11.02,-1.4 -3.594,-0.94 -7.004,-2.3 -10.23,-4.07 v 10 c 3.957,1.57 7.785,2.71 11.48,3.44 3.699,0.73 7.32,1.09 10.86,1.09 9.48,0 16.566,-2.44 21.25,-7.34 4.691,-4.9 7.035,-12.34 7.035,-22.34 z m 22.129,53.75 h 10.781 v -91.25 h -10.781 z m 33.336,-25.63 h 10.785 v -65.62 h -10.785 z m 0,25.63 h 10.785 v -13.75 h -10.785 z m 75.215,-27.5 v -10.32 c -3.02,1.57 -6.17,2.74 -9.45,3.52 -3.28,0.78 -6.7,1.17 -10.23,1.17 -5.32,0 -9.33,-0.81 -12.04,-2.42 -2.71,-1.61 -4.06,-4.09 -4.06,-7.42 0,-2.5 0.96,-4.45 2.89,-5.86 1.93,-1.41 5.81,-2.74 11.64,-3.99 l 3.6,-0.93 c 7.7,-1.57 13.17,-3.86 16.4,-6.88 3.23,-3.02 4.85,-7.19 4.85,-12.5 0,-6.14 -2.43,-10.99 -7.27,-14.53 -4.84,-3.54 -11.48,-5.31 -19.92,-5.31 -3.54,0 -7.22,0.34 -11.02,1.01 -3.8,0.68 -7.79,1.7 -11.95,3.05 v 11.25 c 3.96,-2.08 7.86,-3.65 11.72,-4.69 3.85,-1.04 7.71,-1.56 11.56,-1.56 5,0 8.88,0.86 11.64,2.58 2.76,1.72 4.14,4.19 4.14,7.42 0,2.92 -0.99,5.16 -2.97,6.72 -1.98,1.56 -6.3,3.07 -12.96,4.53 l -3.75,0.78 c -6.67,1.46 -11.49,3.65 -14.46,6.56 -2.97,2.92 -4.45,6.88 -4.45,11.88 0,6.25 2.18,11.04 6.56,14.37 4.37,3.34 10.57,5 18.6,5 3.95,0 7.7,-0.28 11.25,-0.85 3.53,-0.58 6.77,-1.44 9.68,-2.58 z m 50.49,-30.78 c -8.65,0 -14.66,-0.99 -18.05,-2.97 -3.38,-1.98 -5.07,-5.37 -5.07,-10.16 0,-3.85 1.27,-6.9 3.82,-9.14 2.56,-2.24 5.97,-3.36 10.24,-3.36 6.04,0 10.85,2.11 14.45,6.33 3.6,4.22 5.39,9.87 5.39,16.95 v 2.35 z m 21.56,4.53 v -37.5 h -10.78 v 10 c -2.5,-3.96 -5.57,-6.9 -9.22,-8.83 -3.64,-1.93 -8.12,-2.89 -13.43,-2.89 -6.78,0 -12.14,1.9 -16.1,5.7 -3.96,3.8 -5.94,8.83 -5.94,15.08 0,7.4 2.48,12.97 7.42,16.72 4.95,3.75 12.32,5.62 22.12,5.62 h 15.15 v 1.1 c 0,5 -1.64,8.85 -4.92,11.56 -3.28,2.71 -7.84,4.06 -13.67,4.06 -3.75,0 -7.43,-0.47 -11.02,-1.4 -3.59,-0.94 -7,-2.3 -10.23,-4.07 v 10 c 3.96,1.57 7.78,2.71 11.48,3.44 3.7,0.73 7.32,1.09 10.86,1.09 9.48,0 16.56,-2.44 21.25,-7.34 4.69,-4.9 7.03,-12.34 7.03,-22.34 z m 32.91,46.72 v -18.6 h 22.19 v -8.44 h -22.19 v -35.62 c 0,-5.31 0.73,-8.72 2.19,-10.23 1.46,-1.52 4.43,-2.27 8.91,-2.27 h 11.09 v -9.06 h -11.09 c -8.34,0 -14.09,1.56 -17.27,4.68 -3.18,3.13 -4.76,8.75 -4.76,16.88 v 35.62 h -7.82 v 8.44 h 7.82 v 18.6 z m 36.27,-18.6 h 10.79 v -65.62 h -10.79 z m 0,25.63 h 10.79 v -13.75 h -10.79 z m 58.81,-33.13 c -5.73,0 -10.29,-2.26 -13.67,-6.79 -3.39,-4.54 -5.08,-10.71 -5.08,-18.52 0,-7.92 1.67,-14.12 5,-18.59 3.33,-4.48 7.92,-6.72 13.75,-6.72 5.73,0 10.29,2.26 13.67,6.79 3.39,4.54 5.08,10.71 5.08,18.52 0,7.71 -1.69,13.85 -5.08,18.44 -3.38,4.58 -7.94,6.87 -13.67,6.87 z m 0,9.06 c 9.37,0 16.74,-3.04 22.11,-9.14 5.37,-6.09 8.05,-14.5 8.05,-25.23 0,-10.73 -2.68,-19.17 -8.05,-25.31 -5.37,-6.15 -12.74,-9.22 -22.11,-9.22 -9.38,0 -16.74,3.07 -22.11,9.22 -5.36,6.14 -8.05,14.58 -8.05,25.31 0,10.73 2.69,19.14 8.05,25.23 5.37,6.1 12.73,9.14 22.11,9.14 z m 102.64,-27.5 v -39.68 h -10.78 v 39.22 c 0,6.25 -1.23,10.91 -3.67,13.98 -2.45,3.07 -6.07,4.61 -10.86,4.61 -5.84,0 -10.45,-1.85 -13.84,-5.55 -3.38,-3.7 -5.07,-8.77 -5.07,-15.23 v -37.03 h -10.78 v 65.62 h 10.78 v -10.15 c 2.6,3.95 5.65,6.9 9.14,8.82 3.49,1.93 7.52,2.89 12.11,2.89 7.5,0 13.2,-2.31 17.11,-6.95 3.91,-4.63 5.86,-11.48 5.86,-20.55" /><path
         id="path306"
         style="fill:none;stroke:#000000;stroke-width:10;stroke-linecap:butt;stroke-linejoin:miter;stroke-miterlimit:1.45000005;stroke-dasharray:none;stroke-opacity:1"
         d="M 6450,1250.1 V 1650 h 519.71" /><path
         id="path308"
         style="fill:#000000;fill-opacity:1;fill-rule:nonzero;stroke:none"
         d="m 7049.71,1650 -120,50 30,-50 -30,-50 z" /><path
         id="path310"
         style="fill:none;stroke:#000000;stroke-width:10;stroke-linecap:butt;stroke-linejoin:miter;stroke-miterlimit:1.45000005;stroke-dasharray:none;stroke-opacity:1"
         d="M 6450,849.898 V 450 h 519.71" /><path
         id="path312"
         style="fill:#000000;fill-opacity:1;fill-rule:nonzero;stroke:none"
         d="m 7049.71,450 -120,50 30,-50 -30,-50 z" /><path
         id="path314"
         style="fill:none;stroke:#000000;stroke-width:10;stroke-linecap:butt;stroke-linejoin:miter;stroke-miterlimit:1.45000005;stroke-dasharray:none;stroke-opacity:1"
         d="M 7650,1449.9 V 1050 h 1619.84" /><path
         id="path316"
         style="fill:#000000;fill-opacity:1;fill-rule:nonzero;stroke:none"
         d="m 9349.84,1050 -120,50 30,-50 -30,-50 z" /><path
         id="path318"
         style="fill:none;stroke:#000000;stroke-width:10;stroke-linecap:butt;stroke-linejoin:miter;stroke-miterlimit:1.45000005;stroke-dasharray:none;stroke-opacity:1"
         d="M 7650,650.102 V 1050 h 1619.84" /><path
         id="path320"
         style="fill:#000000;fill-opacity:1;fill-rule:nonzero;stroke:none"
         d="m 9349.84,1050 -120,50 30,-50 -30,-50 z" /><path
         id="path322"
         style="fill:none;stroke:#000000;stroke-width:10;stroke-linecap:butt;stroke-linejoin:miter;stroke-miterlimit:1.45000005;stroke-dasharray:none;stroke-opacity:1"
         d="M 4050.22,450 H 4950 v 600 h 1019.73" /><path
         id="path324"
         style="fill:#000000;fill-opacity:1;fill-rule:nonzero;stroke:none"
         d="m 6049.73,1050 -120,50 30,-50 -30,-50 z" /><path
         id="path326"
         style="fill:none;stroke:#000000;stroke-width:10;stroke-linecap:butt;stroke-linejoin:miter;stroke-miterlimit:1.45000005;stroke-dasharray:none;stroke-opacity:1"
         d="M 2250,1250.1 V 1650 h 519.71" /><path
         id="path328"
         style="fill:#000000;fill-opacity:1;fill-rule:nonzero;stroke:none"
         d="m 2849.71,1650 -120,50 30,-50 -30,-50 z" /><path
         id="path330"
         style="fill:none;stroke:#000000;stroke-width:10;stroke-linecap:butt;stroke-linejoin:miter;stroke-miterlimit:1.45000005;stroke-dasharray:none;stroke-opacity:1"
         d="M 2250,849.898 V 450 h 519.71" /><path
         id="path332"
         style="fill:#000000;fill-opacity:1;fill-rule:nonzero;stroke:none"
         d="m 2849.71,450 -120,50 30,-50 -30,-50 z" /><path
         id="path334"
         style="fill:none;stroke:#000000;stroke-width:10;stroke-linecap:butt;stroke-linejoin:miter;stroke-miterlimit:1.45000005;stroke-dasharray:none;stroke-opacity:1"
         d="m 4050.22,1650 h 369.45" /><path
         id="path336"
         style="fill:#000000;fill-opacity:1;fill-rule:nonzero;stroke:none"
         d="m 4499.67,1650 -120,50 30,-50 -30,-50 z" /><path
         id="path338"
         style="fill:none;stroke:#000000;stroke-width:10;stroke-linecap:butt;stroke-linejoin:miter;stroke-miterlimit:1.45000005;stroke-dasharray:none;stroke-opacity:1"
         d="M 4950,1370.21 V 1050 h 1019.73" /><path
         id="path340"
         style="fill:#000000;fill-opacity:1;fill-rule:nonzero;stroke:none"
         d="m 6049.73,1050 -120,50 30,-50 -30,-50 z" /><path
         id="path342"
         style="fill:#000000;fill-opacity:1;fill-rule:nonzero;stroke:none"
         d="m 4743.17,1228.14 v -39.68 h -10.78 v 39.22 c 0,6.25 -1.22,10.91 -3.67,13.98 -2.45,3.07 -6.07,4.61 -10.86,4.61 -5.83,0 -10.44,-1.85 -13.83,-5.55 -3.38,-3.7 -5.07,-8.77 -5.07,-15.23 v -37.03 h -10.79 v 65.62 h 10.79 v -10.15 c 2.6,3.95 5.65,6.9 9.14,8.82 3.49,1.93 7.52,2.89 12.11,2.89 7.5,0 13.2,-2.31 17.1,-6.95 3.91,-4.63 5.86,-11.48 5.86,-20.55 z m 46.84,18.44 c -5.73,0 -10.29,-2.26 -13.67,-6.79 -3.39,-4.54 -5.08,-10.71 -5.08,-18.52 0,-7.92 1.67,-14.12 5,-18.59 3.33,-4.48 7.92,-6.72 13.75,-6.72 5.73,0 10.29,2.26 13.67,6.79 3.39,4.54 5.08,10.71 5.08,18.52 0,7.71 -1.69,13.85 -5.08,18.44 -3.38,4.58 -7.94,6.87 -13.67,6.87 z m 0,9.06 c 9.37,0 16.74,-3.04 22.11,-9.14 5.36,-6.09 8.05,-14.5 8.05,-25.23 0,-10.73 -2.69,-19.17 -8.05,-25.31 -5.37,-6.15 -12.74,-9.22 -22.11,-9.22 -9.38,0 -16.75,3.07 -22.11,9.22 -5.36,6.14 -8.05,14.58 -8.05,25.31 0,10.73 2.69,19.14 8.05,25.23 5.36,6.1 12.73,9.14 22.11,9.14 z m 102.64,-27.5 v -39.68 h -10.78 v 39.22 c 0,6.25 -1.23,10.91 -3.68,13.98 -2.44,3.07 -6.06,4.61 -10.86,4.61 -5.83,0 -10.44,-1.85 -13.82,-5.55 -3.39,-3.7 -5.08,-8.77 -5.08,-15.23 v -37.03 h -10.78 v 65.62 h 10.78 v -10.15 c 2.6,3.95 5.65,6.9 9.14,8.82 3.49,1.93 7.52,2.89 12.11,2.89 7.5,0 13.2,-2.31 17.11,-6.95 3.9,-4.63 5.86,-11.48 5.86,-20.55" /><path
         id="path344"
         style="fill:none;stroke:#000000;stroke-width:10;stroke-linecap:butt;stroke-linejoin:miter;stroke-miterlimit:1.45000005;stroke-dasharray:none;stroke-opacity:1"
         d="M 4950,1929.93 V 2550 h 220.15" /><path
         id="path346"
         style="fill:#000000;fill-opacity:1;fill-rule:nonzero;stroke:none"
         d="m 5250.15,2550 -120,50 30,-50 -30,-50 z" /><path
         id="path348"
         style="fill:#000000;fill-opacity:1;fill-rule:nonzero;stroke:none"
         d="m 5035.31,2366.58 c -5.73,0 -10.28,-2.26 -13.67,-6.79 -3.38,-4.54 -5.08,-10.71 -5.08,-18.52 0,-7.92 1.67,-14.12 5,-18.59 3.34,-4.48 7.92,-6.72 13.75,-6.72 5.73,0 10.29,2.26 13.67,6.79 3.39,4.54 5.08,10.71 5.08,18.52 0,7.71 -1.69,13.85 -5.08,18.44 -3.38,4.58 -7.94,6.87 -13.67,6.87 z m 0,9.06 c 9.38,0 16.75,-3.04 22.11,-9.14 5.37,-6.09 8.05,-14.5 8.05,-25.23 0,-10.73 -2.68,-19.17 -8.05,-25.31 -5.36,-6.15 -12.73,-9.22 -22.11,-9.22 -9.37,0 -16.74,3.07 -22.11,9.22 -5.36,6.14 -8.04,14.58 -8.04,25.31 0,10.73 2.68,19.14 8.04,25.23 5.37,6.1 12.74,9.14 22.11,9.14 z m 46.86,-41.25 v 39.69 h 10.78 v -39.37 c 0,-6.15 1.22,-10.78 3.67,-13.91 2.45,-3.12 6.07,-4.69 10.86,-4.69 5.83,0 10.44,1.85 13.83,5.55 3.38,3.7 5.08,8.78 5.08,15.23 v 37.19 h 10.78 v -65.62 h -10.78 v 10.15 c -2.61,-4.06 -5.63,-7.05 -9.07,-8.98 -3.43,-1.93 -7.44,-2.89 -12.03,-2.89 -7.6,0 -13.36,2.34 -17.26,7.03 -3.91,4.69 -5.86,11.56 -5.86,20.62 z m 77.15,39.69 h 10.78 v -65.62 h -10.78 z m 0,25.63 h 10.78 v -13.75 h -10.78 v 13.75" /><path
         id="path350"
         style="fill:none;stroke:#000000;stroke-width:10;stroke-linecap:butt;stroke-linejoin:miter;stroke-miterlimit:1.45000005;stroke-dasharray:none;stroke-opacity:1"
         d="M 5850,2349.68 V 1050 h 120.1" /><path
         id="path352"
         style="fill:#000000;fill-opacity:1;fill-rule:nonzero;stroke:none"
         d="m 6050.1,1050 -120,50 30,-50 -30,-50 z" /><path
         id="path354"
         style="fill:none;stroke:#000000;stroke-width:10;stroke-linecap:butt;stroke-linejoin:miter;stroke-miterlimit:1.45000005;stroke-dasharray:none;stroke-opacity:1"
         d="m 1400.09,1050 h 170.24" /><path
         id="path356"
         style="fill:#000000;fill-opacity:1;fill-rule:nonzero;stroke:none"
         d="m 1650.33,1050 -120,50 30,-50 -30,-50 z" /></g></g></svg>