<?xml version="1.0" encoding="UTF-8" standalone="no"?>
<svg
   xmlns:dc="http://purl.org/dc/elements/1.1/"
   xmlns:cc="http://creativecommons.org/ns#"
   xmlns:rdf="http://www.w3.org/1999/02/22-rdf-syntax-ns#"
   xmlns:svg="http://www.w3.org/2000/svg"
   xmlns="http://www.w3.org/2000/svg"
   viewBox="0 0 360 400"
   height="400"
   width="360"
   xml:space="preserve"
   id="svg2"
   version="1.1"><metadata
     id="metadata8"><rdf:RDF><cc:Work
         rdf:about=""><dc:format>image/svg+xml</dc:format><dc:type
           rdf:resource="http://purl.org/dc/dcmitype/StillImage" /></cc:Work></rdf:RDF></metadata><defs
     id="defs6"><clipPath
       id="clipPath26"
       clipPathUnits="userSpaceOnUse"><path
         id="path24"
         d="M 0,0.00390625 H 2700 V 2590.3139 H 0 Z" /></clipPath><linearGradient
       id="linearGradient32"
       spreadMethod="pad"
       gradientTransform="matrix(10,0,0,-10,-1050,3550)"
       gradientUnits="userSpaceOnUse"
       y2="110"
       x2="280"
       y1="95.968803"
       x1="200"><stop
         id="stop28"
         offset="0"
         style="stop-opacity:1;stop-color:#ffffff" /><stop
         id="stop30"
         offset="1"
         style="stop-opacity:1;stop-color:#ffffff" /></linearGradient><clipPath
       id="clipPath42"
       clipPathUnits="userSpaceOnUse"><path
         id="path40"
         d="m 0,2590.31 h 2700 v 409.688 H 0 Z" /></clipPath><clipPath
       id="clipPath58"
       clipPathUnits="userSpaceOnUse"><path
         id="path56"
         d="M 0,0 H 2700 V 1890.31 H 0 Z" /></clipPath><linearGradient
       id="linearGradient64"
       spreadMethod="pad"
       gradientTransform="matrix(10,0,0,-10,-1050,3550)"
       gradientUnits="userSpaceOnUse"
       y2="240"
       x2="360"
       y1="165.96899"
       x1="120"><stop
         id="stop60"
         offset="0"
         style="stop-opacity:1;stop-color:#ffffff" /><stop
         id="stop62"
         offset="1"
         style="stop-opacity:1;stop-color:#ffffff" /></linearGradient><clipPath
       id="clipPath74"
       clipPathUnits="userSpaceOnUse"><path
         id="path72"
         d="M 0,1890.31 H 2700 V 3000 H 0 Z" /></clipPath><linearGradient
       id="linearGradient96"
       spreadMethod="pad"
       gradientTransform="matrix(10,0,0,-10,-1050,3550)"
       gradientUnits="userSpaceOnUse"
       y2="340"
       x2="360"
       y1="270"
       x1="120"><stop
         id="stop92"
         offset="0"
         style="stop-opacity:1;stop-color:#ffffff" /><stop
         id="stop94"
         offset="1"
         style="stop-opacity:1;stop-color:#ffffff" /></linearGradient></defs><g
     transform="matrix(1.3333333,0,0,-1.3333333,0,400)"
     id="g10"><g
       transform="scale(0.1)"
       id="g12"><path
         id="path14"
         style="fill:#ffffff;fill-opacity:1;fill-rule:nonzero;stroke:none"
         d="M 0,3000 H 2700 V 0 H 0 v 3000" /><path
         id="path16"
         style="fill:#ffffff;fill-opacity:1;fill-rule:nonzero;stroke:none"
         d="M 0,3000 H 2700 V 0 H 0 v 3000" /><path
         id="path18"
         style="fill:#ffffff;fill-opacity:1;fill-rule:nonzero;stroke:none"
         d="M 0,3000 H 2700 V 0 H 0 v 3000" /><g
         id="g20"><g
           clip-path="url(#clipPath26)"
           id="g22"><path
             id="path34"
             style="fill:url(#linearGradient32);fill-opacity:1;fill-rule:nonzero;stroke:none"
             d="m 950,2810 v -320 c 0,-22.09 17.91,-40 40,-40 h 720 c 22.09,0 40,17.91 40,40 v 320 c 0,22.09 -17.91,40 -40,40 H 990 c -22.09,0 -40,-17.91 -40,-40" /></g></g><g
         id="g36"><g
           clip-path="url(#clipPath42)"
           id="g38"><path
             id="path44"
             style="fill:#7cbf33;fill-opacity:1;fill-rule:nonzero;stroke:none"
             d="m 950,2810 v -320 c 0,-22.09 17.91,-40 40,-40 h 720 c 22.09,0 40,17.91 40,40 v 320 c 0,22.09 -17.91,40 -40,40 H 990 c -22.09,0 -40,-17.91 -40,-40" /></g></g><path
         id="path46"
         style="fill:none;stroke:#000000;stroke-width:10;stroke-linecap:butt;stroke-linejoin:miter;stroke-miterlimit:1.45000005;stroke-dasharray:none;stroke-opacity:1"
         d="m 950,2810 v -320 c 0,-22.09 17.91,-40 40,-40 h 720 c 22.09,0 40,17.91 40,40 v 320 c 0,22.09 -17.91,40 -40,40 H 990 c -22.09,0 -40,-17.91 -40,-40 z" /><path
         id="path48"
         style="fill:none;stroke:#000000;stroke-width:10;stroke-linecap:butt;stroke-linejoin:miter;stroke-miterlimit:1.45000005;stroke-dasharray:none;stroke-opacity:1"
         d="m 950,2590.31 h 800" /><path
         id="path50"
         style="fill:#ffffff;fill-opacity:1;fill-rule:nonzero;stroke:none"
         d="m 1144.67,2734.24 v 35.62 h 10.78 v -91.25 h -10.78 v 9.85 c -2.29,-3.86 -5.16,-6.75 -8.6,-8.67 -3.43,-1.93 -7.6,-2.9 -12.5,-2.9 -7.91,0 -14.37,3.18 -19.37,9.54 -5,6.35 -7.5,14.68 -7.5,25 0,10.31 2.5,18.62 7.5,24.92 5,6.3 11.46,9.45 19.37,9.45 4.9,0 9.07,-0.94 12.5,-2.81 3.44,-1.88 6.31,-4.79 8.6,-8.75 z m -36.72,-22.81 c 0,-7.92 1.61,-14.14 4.84,-18.68 3.23,-4.53 7.71,-6.79 13.44,-6.79 5.73,0 10.23,2.26 13.52,6.79 3.28,4.54 4.92,10.76 4.92,18.68 0,7.91 -1.64,14.11 -4.92,18.59 -3.29,4.48 -7.79,6.72 -13.52,6.72 -5.73,0 -10.21,-2.24 -13.44,-6.72 -3.23,-4.48 -4.84,-10.68 -4.84,-18.59 z m 69.61,32.81 h 10.78 v -65.63 h -10.78 z m 0,25.62 h 10.78 v -13.75 h -10.78 z m 75.21,-27.5 v -10.31 c -3.02,1.56 -6.17,2.74 -9.45,3.52 -3.28,0.78 -6.69,1.17 -10.23,1.17 -5.32,0 -9.33,-0.81 -12.04,-2.42 -2.7,-1.62 -4.06,-4.09 -4.06,-7.43 0,-2.5 0.97,-4.45 2.89,-5.85 1.93,-1.41 5.81,-2.74 11.64,-3.99 l 3.6,-0.94 c 7.71,-1.56 13.17,-3.85 16.4,-6.87 3.23,-3.02 4.85,-7.19 4.85,-12.5 0,-6.15 -2.42,-10.99 -7.27,-14.53 -4.84,-3.55 -11.48,-5.32 -19.92,-5.32 -3.54,0 -7.21,0.34 -11.02,1.02 -3.8,0.68 -7.78,1.69 -11.95,3.05 v 11.25 c 3.96,-2.08 7.87,-3.65 11.72,-4.69 3.85,-1.04 7.71,-1.56 11.56,-1.56 5,0 8.88,0.86 11.64,2.58 2.76,1.71 4.14,4.19 4.14,7.42 0,2.92 -0.99,5.15 -2.97,6.72 -1.97,1.56 -6.3,3.07 -12.96,4.53 l -3.75,0.78 c -6.67,1.46 -11.49,3.64 -14.46,6.56 -2.97,2.92 -4.45,6.88 -4.45,11.88 0,6.25 2.19,11.04 6.56,14.37 4.38,3.33 10.58,5 18.6,5 3.95,0 7.7,-0.28 11.25,-0.86 3.54,-0.57 6.77,-1.43 9.68,-2.58 z m 31.12,-53.9 v -34.85 h -10.78 v 90.63 h 10.78 v -10 c 2.29,3.96 5.15,6.87 8.59,8.75 3.44,1.87 7.55,2.81 12.34,2.81 8.03,0 14.54,-3.15 19.54,-9.45 5,-6.3 7.5,-14.61 7.5,-24.92 0,-10.32 -2.5,-18.65 -7.5,-25 -5,-6.36 -11.51,-9.54 -19.54,-9.54 -4.79,0 -8.9,0.97 -12.34,2.9 -3.44,1.92 -6.3,4.81 -8.59,8.67 z m 36.72,22.97 c 0,7.91 -1.65,14.11 -4.93,18.59 -3.28,4.48 -7.73,6.72 -13.36,6.72 -5.72,0 -10.23,-2.24 -13.51,-6.72 -3.28,-4.48 -4.92,-10.68 -4.92,-18.59 0,-7.92 1.64,-14.14 4.92,-18.68 3.28,-4.53 7.79,-6.79 13.51,-6.79 5.63,0 10.08,2.26 13.36,6.79 3.28,4.54 4.93,10.76 4.93,18.68 z m 28.98,58.43 h 10.78 v -91.25 h -10.78 z m 63.18,-58.28 c -8.64,0 -14.66,-0.99 -18.04,-2.97 -3.39,-1.98 -5.08,-5.36 -5.08,-10.15 0,-3.86 1.27,-6.91 3.83,-9.14 2.55,-2.24 5.96,-3.36 10.23,-3.36 6.04,0 10.86,2.11 14.45,6.33 3.6,4.21 5.39,9.87 5.39,16.95 v 2.34 z m 21.57,4.53 v -37.5 h -10.79 v 10 c -2.5,-3.95 -5.57,-6.9 -9.21,-8.82 -3.65,-1.93 -8.13,-2.9 -13.44,-2.9 -6.77,0 -12.14,1.91 -16.1,5.71 -3.95,3.8 -5.93,8.83 -5.93,15.08 0,7.39 2.47,12.96 7.42,16.71 4.95,3.75 12.32,5.63 22.11,5.63 h 15.15 v 1.09 c 0,5 -1.64,8.86 -4.92,11.57 -3.28,2.7 -7.84,4.06 -13.67,4.06 -3.75,0 -7.42,-0.47 -11.01,-1.41 -3.6,-0.94 -7.01,-2.29 -10.24,-4.06 v 10 c 3.96,1.56 7.79,2.71 11.49,3.44 3.69,0.73 7.31,1.09 10.85,1.09 9.48,0 16.57,-2.45 21.25,-7.34 4.69,-4.9 7.04,-12.35 7.04,-22.35 z m 49.47,-43.59 c -3.02,-7.81 -5.99,-12.92 -8.91,-15.31 -2.91,-2.4 -6.77,-3.6 -11.56,-3.6 h -8.59 v 9.07 h 6.25 c 3.02,0 5.33,0.7 6.95,2.11 1.61,1.4 3.41,4.71 5.39,9.92 l 2.03,5 -26.56,64.53 h 11.4 l 20.47,-51.25 20.63,51.25 h 11.4 z m 69.61,97.19 c -5.21,-8.96 -9.09,-17.84 -11.64,-26.64 -2.55,-8.8 -3.83,-17.74 -3.83,-26.8 0,-8.96 1.28,-17.86 3.83,-26.72 2.55,-8.85 6.43,-17.76 11.64,-26.72 h -9.38 c -5.83,9.17 -10.21,18.18 -13.12,27.03 -2.92,8.86 -4.38,17.66 -4.38,26.41 0,8.75 1.46,17.53 4.38,26.33 2.91,8.8 7.29,17.84 13.12,27.11 z m 19.31,0 h 9.38 c 5.83,-9.27 10.21,-18.31 13.12,-27.11 2.92,-8.8 4.38,-17.58 4.38,-26.33 0,-8.75 -1.46,-17.55 -4.38,-26.41 -2.91,-8.85 -7.29,-17.86 -13.12,-27.03 h -9.38 c 5.11,8.96 8.96,17.87 11.57,26.72 2.6,8.86 3.9,17.76 3.9,26.72 0,9.06 -1.3,18 -3.9,26.8 -2.61,8.8 -6.46,17.68 -11.57,26.64" /><g
         id="g52"><g
           clip-path="url(#clipPath58)"
           id="g54"><path
             id="path66"
             style="fill:url(#linearGradient64);fill-opacity:1;fill-rule:nonzero;stroke:none"
             d="m 150,2110 v -920 c 0,-22.09 17.91,-40 40,-40 h 2320 c 22.09,0 40,17.91 40,40 v 920 c 0,22.09 -17.91,40 -40,40 H 190 c -22.09,0 -40,-17.91 -40,-40" /></g></g><g
         id="g68"><g
           clip-path="url(#clipPath74)"
           id="g70"><path
             id="path76"
             style="fill:#7cbf33;fill-opacity:1;fill-rule:nonzero;stroke:none"
             d="m 150,2110 v -920 c 0,-22.09 17.91,-40 40,-40 h 2320 c 22.09,0 40,17.91 40,40 v 920 c 0,22.09 -17.91,40 -40,40 H 190 c -22.09,0 -40,-17.91 -40,-40" /></g></g><path
         id="path78"
         style="fill:none;stroke:#000000;stroke-width:10;stroke-linecap:butt;stroke-linejoin:miter;stroke-miterlimit:1.45000005;stroke-dasharray:none;stroke-opacity:1"
         d="m 150,2110 v -920 c 0,-22.09 17.91,-40 40,-40 h 2320 c 22.09,0 40,17.91 40,40 v 920 c 0,22.09 -17.91,40 -40,40 H 190 c -22.09,0 -40,-17.91 -40,-40 z" /><path
         id="path80"
         style="fill:none;stroke:#000000;stroke-width:10;stroke-linecap:butt;stroke-linejoin:miter;stroke-miterlimit:1.45000005;stroke-dasharray:none;stroke-opacity:1"
         d="M 150,1890.31 H 2550" /><path
         id="path82"
         style="fill:#ffffff;fill-opacity:1;fill-rule:nonzero;stroke:none"
         d="m 1078.78,2034.24 c -1.25,0.62 -2.58,1.12 -3.99,1.48 -1.4,0.37 -2.99,0.55 -4.76,0.55 -6.04,0 -10.7,-1.98 -13.99,-5.94 -3.28,-3.96 -4.92,-9.69 -4.92,-17.19 v -34.53 h -10.78 v 65.63 h 10.78 v -10.16 c 2.29,3.96 5.26,6.9 8.91,8.83 3.65,1.93 8.07,2.89 13.28,2.89 0.73,0 1.54,-0.05 2.42,-0.16 0.89,-0.1 1.85,-0.26 2.89,-0.46 z m 10.12,-29.69 v 39.69 h 10.78 v -39.38 c 0,-6.14 1.22,-10.78 3.67,-13.9 2.45,-3.13 6.07,-4.69 10.86,-4.69 5.83,0 10.44,1.85 13.83,5.55 3.38,3.69 5.08,8.77 5.08,15.23 v 37.19 h 10.78 v -65.63 h -10.78 v 10.16 c -2.61,-4.06 -5.63,-7.06 -9.07,-8.98 -3.43,-1.93 -7.45,-2.9 -12.03,-2.9 -7.6,0 -13.36,2.35 -17.26,7.04 -3.91,4.68 -5.86,11.56 -5.86,20.62 z m 131.83,13.75 v -39.69 h -10.78 v 39.22 c 0,6.25 -1.22,10.91 -3.67,13.99 -2.45,3.07 -6.07,4.61 -10.86,4.61 -5.83,0 -10.44,-1.85 -13.83,-5.55 -3.38,-3.7 -5.08,-8.78 -5.08,-15.24 v -37.03 h -10.78 v 65.63 h 10.78 v -10.16 c 2.61,3.96 5.65,6.9 9.14,8.83 3.49,1.93 7.53,2.89 12.11,2.89 7.5,0 13.21,-2.32 17.11,-6.95 3.91,-4.64 5.86,-11.49 5.86,-20.55 z m 87.46,41.09 v -12.5 c -4.06,3.75 -8.33,6.54 -12.81,8.36 -4.48,1.83 -9.27,2.74 -14.37,2.74 -10,0 -17.66,-3.07 -22.97,-9.22 -5.32,-6.15 -7.97,-15 -7.97,-26.56 0,-11.46 2.65,-20.26 7.97,-26.41 5.31,-6.15 12.97,-9.22 22.97,-9.22 5.1,0 9.89,0.94 14.37,2.81 4.48,1.88 8.75,4.64 12.81,8.29 v -12.35 c -4.16,-2.81 -8.56,-4.92 -13.2,-6.33 -4.64,-1.4 -9.5,-2.11 -14.61,-2.11 -13.33,0 -23.8,4.07 -31.41,12.19 -7.6,8.13 -11.4,19.17 -11.4,33.13 0,14.06 3.8,25.15 11.4,33.28 7.61,8.12 18.08,12.19 31.41,12.19 5.21,0 10.13,-0.71 14.77,-2.11 4.63,-1.41 8.98,-3.47 13.04,-6.18 z m 16.92,6.72 h 11.87 v -53.12 c 0,-9.38 1.7,-16.12 5.08,-20.24 3.39,-4.11 8.88,-6.17 16.48,-6.17 7.61,0 13.1,2.06 16.49,6.17 3.38,4.12 5.08,10.86 5.08,20.24 v 53.12 h 11.87 v -54.68 c 0,-11.36 -2.81,-19.95 -8.44,-25.79 -5.62,-5.83 -13.95,-8.75 -25,-8.75 -11.04,0 -19.37,2.92 -25,8.75 -5.62,5.84 -8.43,14.43 -8.43,25.79 z m 100.95,-9.68 v -68.13 h 14.38 c 12.08,0 20.91,2.74 26.48,8.2 5.58,5.47 8.36,14.14 8.36,26.02 0,11.67 -2.78,20.23 -8.36,25.7 -5.57,5.47 -14.4,8.21 -26.48,8.21 z m -11.87,9.68 h 24.37 c 16.98,0 29.43,-3.51 37.35,-10.54 7.91,-7.03 11.87,-18.05 11.87,-33.05 0,-15.1 -3.98,-26.2 -11.95,-33.28 -7.97,-7.09 -20.39,-10.63 -37.27,-10.63 h -24.37 z m 121.78,-11.72 -16.1,-43.43 h 32.19 z m -6.72,11.72 h 13.44 l 33.28,-87.5 h -12.35 l -7.97,22.5 h -39.37 l -7.97,-22.5 h -12.5 z m 84.9,3.6 c -5.21,-8.96 -9.09,-17.84 -11.64,-26.64 -2.55,-8.81 -3.83,-17.74 -3.83,-26.8 0,-8.96 1.28,-17.87 3.83,-26.72 2.55,-8.85 6.43,-17.76 11.64,-26.72 h -9.37 c -5.84,9.17 -10.21,18.18 -13.13,27.03 -2.92,8.86 -4.37,17.66 -4.37,26.41 0,8.75 1.45,17.53 4.37,26.33 2.92,8.8 7.29,17.84 13.13,27.11 z m 19.32,0 h 9.37 c 5.84,-9.27 10.21,-18.31 13.13,-27.11 2.91,-8.8 4.37,-17.58 4.37,-26.33 0,-8.75 -1.46,-17.55 -4.37,-26.41 -2.92,-8.85 -7.29,-17.86 -13.13,-27.03 h -9.37 c 5.1,8.96 8.96,17.87 11.56,26.72 2.6,8.85 3.91,17.76 3.91,26.72 0,9.06 -1.31,17.99 -3.91,26.8 -2.6,8.8 -6.46,17.68 -11.56,26.64" /><path
         id="path84"
         style="fill:#000000;fill-opacity:1;fill-rule:nonzero;stroke:none"
         d="M 195.941,1756.58 H 227.5 v -9.53 h -31.559 z m 87.219,49.85 h 17.66 l 22.34,-59.54 22.5,59.54 h 17.66 v -87.5 h -11.558 v 76.87 l -22.66,-60 H 317.23 l -22.5,60 v -76.87 h -11.57 z m 132.91,-54.54 c -8.64,0 -14.66,-0.99 -18.039,-2.96 -3.39,-1.98 -5.082,-5.37 -5.082,-10.16 0,-3.85 1.281,-6.9 3.832,-9.14 2.547,-2.24 5.957,-3.36 10.231,-3.36 6.039,0 10.859,2.11 14.449,6.33 3.598,4.22 5.398,9.87 5.398,16.95 v 2.34 z m 21.571,4.54 v -37.5 h -10.782 v 10 c -2.5,-3.96 -5.578,-6.91 -9.218,-8.83 -3.653,-1.93 -8.129,-2.89 -13.442,-2.89 -6.769,0 -12.14,1.9 -16.09,5.7 -3.961,3.8 -5.937,8.83 -5.937,15.08 0,7.39 2.469,12.97 7.418,16.72 4.949,3.75 12.32,5.62 22.109,5.62 h 15.16 v 1.1 c 0,5 -1.648,8.85 -4.929,11.56 -3.282,2.71 -7.828,4.06 -13.668,4.06 -3.75,0 -7.422,-0.47 -11.012,-1.41 -3.602,-0.93 -7.012,-2.29 -10.238,-4.06 v 10 c 3.957,1.56 7.789,2.71 11.488,3.44 3.691,0.73 7.309,1.09 10.859,1.09 9.469,0 16.563,-2.44 21.25,-7.34 4.68,-4.9 7.032,-12.34 7.032,-22.34 z m 32.589,-27.66 v -34.84 h -10.781 v 90.62 h 10.781 v -10 c 2.301,3.96 5.161,6.88 8.598,8.75 3.442,1.88 7.551,2.81 12.344,2.81 8.019,0 14.527,-3.15 19.527,-9.45 5,-6.3 7.5,-14.61 7.5,-24.92 0,-10.31 -2.5,-18.65 -7.5,-25 -5,-6.36 -11.508,-9.53 -19.527,-9.53 -4.793,0 -8.902,0.96 -12.344,2.89 -3.437,1.92 -6.297,4.82 -8.598,8.67 z m 36.719,22.97 c 0,7.91 -1.64,14.11 -4.918,18.59 -3.281,4.48 -7.73,6.72 -13.359,6.72 -5.731,0 -10.231,-2.24 -13.512,-6.72 -3.281,-4.48 -4.93,-10.68 -4.93,-18.59 0,-7.92 1.649,-14.14 4.93,-18.67 3.281,-4.53 7.781,-6.8 13.512,-6.8 5.629,0 10.078,2.27 13.359,6.8 3.278,4.53 4.918,10.75 4.918,18.67 z m 39.461,-22.97 v -34.84 h -10.789 v 90.62 h 10.789 v -10 c 2.289,3.96 5.149,6.88 8.59,8.75 3.441,1.88 7.551,2.81 12.34,2.81 8.019,0 14.539,-3.15 19.539,-9.45 5,-6.3 7.5,-14.61 7.5,-24.92 0,-10.31 -2.5,-18.65 -7.5,-25 -5,-6.36 -11.52,-9.53 -19.539,-9.53 -4.789,0 -8.899,0.96 -12.34,2.89 -3.441,1.92 -6.301,4.82 -8.59,8.67 z m 36.711,22.97 c 0,7.91 -1.641,14.11 -4.922,18.59 -3.277,4.48 -7.73,6.72 -13.359,6.72 -5.731,0 -10.231,-2.24 -13.512,-6.72 -3.277,-4.48 -4.918,-10.68 -4.918,-18.59 0,-7.92 1.641,-14.14 4.918,-18.67 3.281,-4.53 7.781,-6.8 13.512,-6.8 5.629,0 10.082,2.27 13.359,6.8 3.281,4.53 4.922,10.75 4.922,18.67 z m 28.988,32.81 h 10.782 v -65.62 h -10.782 z m 0,25.63 h 10.782 v -13.75 h -10.782 z m 88.032,-51.57 v -39.68 h -10.782 v 39.21 c 0,6.25 -1.23,10.92 -3.679,13.99 -2.442,3.07 -6.059,4.61 -10.86,4.61 -5.832,0 -10.441,-1.85 -13.82,-5.55 -3.391,-3.7 -5.078,-8.77 -5.078,-15.23 v -37.03 h -10.781 v 65.62 h 10.781 v -10.16 c 2.598,3.96 5.648,6.91 9.137,8.83 3.492,1.93 7.519,2.89 12.113,2.89 7.5,0 13.199,-2.31 17.109,-6.95 3.899,-4.64 5.86,-11.48 5.86,-20.55 z m 64.648,-6.09 c 0,7.81 -1.617,13.85 -4.848,18.12 -3.23,4.28 -7.761,6.41 -13.589,6.41 -5.731,0 -10.211,-2.13 -13.442,-6.41 -3.23,-4.27 -4.84,-10.31 -4.84,-18.12 0,-7.81 1.61,-13.85 4.84,-18.13 3.231,-4.27 7.711,-6.4 13.442,-6.4 5.828,0 10.359,2.13 13.589,6.4 3.231,4.28 4.848,10.32 4.848,18.13 z m 10.781,-25.47 c 0,-11.15 -2.48,-19.45 -7.429,-24.92 -4.942,-5.47 -12.571,-8.2 -22.891,-8.2 -3.75,0 -7.309,0.28 -10.699,0.86 -3.379,0.57 -6.641,1.43 -9.762,2.57 v 10.47 c 3.121,-1.66 6.25,-2.91 9.371,-3.75 3.129,-0.83 6.25,-1.25 9.379,-1.25 7.082,0 12.391,1.85 15.93,5.55 3.543,3.7 5.32,9.3 5.32,16.8 v 5.31 c -2.301,-3.86 -5.16,-6.75 -8.598,-8.67 -3.441,-1.93 -7.601,-2.89 -12.5,-2.89 -8.019,0 -14.5,3.07 -19.453,9.21 -4.949,6.15 -7.418,14.28 -7.418,24.38 0,10.1 2.469,18.23 7.418,24.37 4.953,6.15 11.434,9.22 19.453,9.22 4.899,0 9.059,-0.96 12.5,-2.89 3.438,-1.92 6.297,-4.82 8.598,-8.67 v 10 h 10.781 z m 103.532,47.5 v 35.63 h 10.777 v -91.25 h -10.777 v 9.84 c -2.293,-3.85 -5.153,-6.75 -8.59,-8.67 -3.442,-1.93 -7.614,-2.89 -12.5,-2.89 -7.922,0 -14.383,3.17 -19.383,9.53 -5,6.35 -7.5,14.69 -7.5,25 0,10.31 2.5,18.62 7.5,24.92 5,6.3 11.461,9.45 19.383,9.45 4.886,0 9.058,-0.93 12.5,-2.81 3.437,-1.87 6.297,-4.79 8.59,-8.75 z m -36.723,-22.81 c 0,-7.92 1.621,-14.14 4.851,-18.67 3.231,-4.53 7.7,-6.8 13.43,-6.8 5.731,0 10.238,2.27 13.52,6.8 3.281,4.53 4.922,10.75 4.922,18.67 0,7.91 -1.641,14.11 -4.922,18.59 -3.282,4.48 -7.789,6.72 -13.52,6.72 -5.73,0 -10.199,-2.24 -13.43,-6.72 -3.23,-4.48 -4.851,-10.68 -4.851,-18.59 z m 68.519,-6.88 v 39.69 h 10.782 v -39.37 c 0,-6.15 1.218,-10.79 3.672,-13.91 2.449,-3.13 6.07,-4.69 10.859,-4.69 5.828,0 10.437,1.85 13.828,5.55 3.383,3.7 5.082,8.77 5.082,15.23 v 37.19 h 10.777 v -65.62 h -10.777 v 10.15 c -2.609,-4.06 -5.633,-7.06 -9.07,-8.98 -3.43,-1.93 -7.442,-2.89 -12.031,-2.89 -7.598,0 -13.36,2.34 -17.258,7.03 -3.91,4.69 -5.864,11.56 -5.864,20.62 z m 162.482,6.88 c 0,7.91 -1.64,14.11 -4.92,18.59 -3.28,4.48 -7.74,6.72 -13.36,6.72 -5.73,0 -10.24,-2.24 -13.52,-6.72 -3.28,-4.48 -4.92,-10.68 -4.92,-18.59 0,-7.92 1.64,-14.14 4.92,-18.67 3.28,-4.53 7.79,-6.8 13.52,-6.8 5.62,0 10.08,2.27 13.36,6.8 3.28,4.53 4.92,10.75 4.92,18.67 z m -36.72,22.81 c 2.29,3.96 5.16,6.88 8.59,8.75 3.44,1.88 7.56,2.81 12.35,2.81 8.02,0 14.53,-3.15 19.53,-9.45 5,-6.3 7.5,-14.61 7.5,-24.92 0,-10.31 -2.5,-18.65 -7.5,-25 -5,-6.36 -11.51,-9.53 -19.53,-9.53 -4.79,0 -8.91,0.96 -12.35,2.89 -3.43,1.92 -6.3,4.82 -8.59,8.67 v -9.84 h -10.78 v 91.25 h 10.78 z m 64.61,-29.69 v 39.69 h 10.78 v -39.37 c 0,-6.15 1.22,-10.79 3.67,-13.91 2.45,-3.13 6.07,-4.69 10.86,-4.69 5.84,0 10.44,1.85 13.83,5.55 3.39,3.7 5.08,8.77 5.08,15.23 v 37.19 h 10.78 v -65.62 h -10.78 v 10.15 c -2.61,-4.06 -5.63,-7.06 -9.06,-8.98 -3.44,-1.93 -7.45,-2.89 -12.04,-2.89 -7.6,0 -13.35,2.34 -17.26,7.03 -3.91,4.69 -5.86,11.56 -5.86,20.62 z m 110.43,65.32 v -9.07 h -10.31 c -3.86,0 -6.54,-0.78 -8.05,-2.34 -1.51,-1.56 -2.27,-4.38 -2.27,-8.44 v -5.78 h 17.82 v -8.44 h -17.82 v -57.18 h -10.78 v 57.18 h -10.31 v 8.44 h 10.31 v 4.53 c 0,7.29 1.7,12.63 5.08,16.02 3.39,3.38 8.78,5.08 16.17,5.08 z m 42.25,0 v -9.07 h -10.32 c -3.85,0 -6.53,-0.78 -8.04,-2.34 -1.51,-1.56 -2.27,-4.38 -2.27,-8.44 v -5.78 h 17.81 v -8.44 h -17.81 v -57.18 h -10.78 v 57.18 h -10.31 v 8.44 h 10.31 v 4.53 c 0,7.29 1.69,12.63 5.08,16.02 3.38,3.38 8.77,5.08 16.17,5.08 z m 65.21,-55.79 v -5.15 h -49.69 c 0.52,-7.5 2.79,-13.18 6.8,-17.03 4.01,-3.86 9.56,-5.78 16.64,-5.78 4.17,0 8.2,0.49 12.11,1.48 3.91,0.99 7.79,2.53 11.64,4.61 v -10.31 c -3.96,-1.57 -7.97,-2.79 -12.03,-3.67 -4.06,-0.89 -8.18,-1.33 -12.34,-1.33 -10.42,0 -18.7,3.04 -24.85,9.14 -6.14,6.09 -9.22,14.35 -9.22,24.76 0,10.73 2.92,19.25 8.75,25.55 5.84,6.3 13.65,9.45 23.44,9.45 8.85,0 15.86,-2.84 21.02,-8.51 5.15,-5.68 7.73,-13.41 7.73,-23.21 z m -10.78,3.29 c -0.11,5.83 -1.77,10.52 -5,14.06 -3.23,3.54 -7.5,5.31 -12.81,5.31 -6.05,0 -10.86,-1.72 -14.46,-5.16 -3.59,-3.43 -5.65,-8.22 -6.17,-14.37 z m 66.48,16.87 c -1.25,0.63 -2.57,1.12 -3.98,1.49 -1.41,0.36 -3,0.54 -4.77,0.54 -6.04,0 -10.7,-1.98 -13.98,-5.94 -3.28,-3.95 -4.92,-9.68 -4.92,-17.18 v -34.53 h -10.78 v 65.62 h 10.78 v -10.16 c 2.29,3.96 5.26,6.91 8.9,8.83 3.65,1.93 8.08,2.89 13.28,2.89 0.73,0 1.54,-0.05 2.43,-0.15 0.88,-0.11 1.85,-0.26 2.89,-0.47 z m 61.7,22.19 v -32.97 h 14.85 c 5.52,0 9.79,1.43 12.81,4.3 3.02,2.86 4.53,6.95 4.53,12.26 0,5.21 -1.51,9.25 -4.53,12.11 -3.02,2.87 -7.29,4.3 -12.81,4.3 z m -11.87,9.69 h 26.72 c 9.89,0 17.34,-2.22 22.34,-6.64 5,-4.43 7.5,-10.92 7.5,-19.46 0,-8.64 -2.5,-15.18 -7.5,-19.61 -5,-4.42 -12.45,-6.64 -22.34,-6.64 h -14.85 v -35.15 h -11.87 z m 84.24,-45.79 v -32.03 h 19.06 c 6.35,0 11.07,1.33 14.14,3.99 3.07,2.65 4.61,6.69 4.61,12.11 0,5.52 -1.54,9.55 -4.61,12.11 -3.07,2.55 -7.79,3.82 -14.14,3.82 z m 0,36.1 v -26.41 h 17.5 c 5.83,0 10.15,1.1 12.96,3.28 2.82,2.19 4.22,5.47 4.22,9.85 0,4.48 -1.4,7.81 -4.22,10 -2.81,2.18 -7.13,3.28 -12.96,3.28 z m -11.88,9.69 h 30.31 c 9.07,0 16.02,-1.88 20.86,-5.63 4.85,-3.75 7.27,-9.06 7.27,-15.94 0,-5.41 -1.25,-9.71 -3.75,-12.89 -2.5,-3.17 -6.15,-5.13 -10.94,-5.86 5.83,-1.25 10.37,-3.85 13.59,-7.81 3.23,-3.96 4.85,-8.91 4.85,-14.84 0,-7.82 -2.66,-13.86 -7.97,-18.13 -5.31,-4.27 -12.92,-6.4 -22.81,-6.4 h -31.41 z m 117.95,-7.97 c -8.65,0 -15.49,-3.21 -20.55,-9.61 -5.05,-6.41 -7.57,-15.18 -7.57,-26.33 0,-10.94 2.52,-19.61 7.57,-26.02 5.06,-6.4 11.9,-9.61 20.55,-9.61 8.54,0 15.34,3.21 20.39,9.61 5.05,6.41 7.58,15.08 7.58,26.02 0,11.15 -2.53,19.92 -7.58,26.33 -5.05,6.4 -11.85,9.61 -20.39,9.61 z m 0,9.53 c 12.19,0 21.95,-4.12 29.3,-12.35 7.34,-8.22 11.01,-19.27 11.01,-33.12 0,-13.75 -3.67,-24.74 -11.01,-32.97 -7.35,-8.23 -17.11,-12.34 -29.3,-12.34 -12.29,0 -22.14,4.11 -29.53,12.34 -7.4,8.23 -11.09,19.22 -11.09,32.97 0,13.85 3.69,24.9 11.09,33.12 7.39,8.23 17.24,12.35 29.53,12.35 z m 139.79,-33.44 v 35.63 h 10.78 v -91.25 h -10.78 v 9.84 c -2.3,-3.85 -5.16,-6.75 -8.6,-8.67 -3.44,-1.93 -7.6,-2.89 -12.5,-2.89 -7.92,0 -14.37,3.17 -19.37,9.53 -5,6.35 -7.5,14.69 -7.5,25 0,10.31 2.5,18.62 7.5,24.92 5,6.3 11.45,9.45 19.37,9.45 4.9,0 9.06,-0.93 12.5,-2.81 3.44,-1.87 6.3,-4.79 8.6,-8.75 z m -36.72,-22.81 c 0,-7.92 1.61,-14.14 4.84,-18.67 3.23,-4.53 7.71,-6.8 13.44,-6.8 5.73,0 10.23,2.27 13.51,6.8 3.28,4.53 4.93,10.75 4.93,18.67 0,7.91 -1.65,14.11 -4.93,18.59 -3.28,4.48 -7.78,6.72 -13.51,6.72 -5.73,0 -10.21,-2.24 -13.44,-6.72 -3.23,-4.48 -4.84,-10.68 -4.84,-18.59 z m 99.45,0.15 c -8.65,0 -14.66,-0.99 -18.05,-2.96 -3.38,-1.98 -5.08,-5.37 -5.08,-10.16 0,-3.85 1.28,-6.9 3.83,-9.14 2.55,-2.24 5.97,-3.36 10.24,-3.36 6.04,0 10.86,2.11 14.45,6.33 3.59,4.22 5.39,9.87 5.39,16.95 v 2.34 z m 21.56,4.54 v -37.5 h -10.78 v 10 c -2.5,-3.96 -5.57,-6.91 -9.22,-8.83 -3.64,-1.93 -8.12,-2.89 -13.44,-2.89 -6.77,0 -12.13,1.9 -16.09,5.7 -3.96,3.8 -5.94,8.83 -5.94,15.08 0,7.39 2.48,12.97 7.43,16.72 4.94,3.75 12.31,5.62 22.1,5.62 h 15.16 v 1.1 c 0,5 -1.64,8.85 -4.92,11.56 -3.28,2.71 -7.84,4.06 -13.67,4.06 -3.75,0 -7.42,-0.47 -11.02,-1.41 -3.59,-0.93 -7,-2.29 -10.23,-4.06 v 10 c 3.96,1.56 7.78,2.71 11.48,3.44 3.7,0.73 7.32,1.09 10.86,1.09 9.48,0 16.56,-2.44 21.25,-7.34 4.69,-4.9 7.03,-12.34 7.03,-22.34 z m 76.82,2.18 v -39.68 h -10.78 v 39.21 c 0,6.25 -1.23,10.92 -3.67,13.99 -2.45,3.07 -6.07,4.61 -10.86,4.61 -5.84,0 -10.45,-1.85 -13.83,-5.55 -3.39,-3.7 -5.08,-8.77 -5.08,-15.23 v -37.03 h -10.78 v 65.62 h 10.78 v -10.16 c 2.6,3.96 5.65,6.91 9.14,8.83 3.49,1.93 7.53,2.89 12.11,2.89 7.5,0 13.2,-2.31 17.11,-6.95 3.91,-4.64 5.86,-11.48 5.86,-20.55 z m 63.24,24.07 v -10.32 c -3.02,1.57 -6.17,2.74 -9.45,3.52 -3.28,0.78 -6.7,1.17 -10.24,1.17 -5.31,0 -9.32,-0.81 -12.03,-2.42 -2.71,-1.62 -4.06,-4.09 -4.06,-7.42 0,-2.5 0.96,-4.46 2.89,-5.86 1.93,-1.41 5.81,-2.74 11.64,-3.99 l 3.59,-0.93 c 7.71,-1.57 13.18,-3.86 16.41,-6.88 3.23,-3.02 4.84,-7.19 4.84,-12.5 0,-6.15 -2.42,-10.99 -7.26,-14.53 -4.85,-3.54 -11.49,-5.31 -19.92,-5.31 -3.54,0 -7.22,0.34 -11.02,1.01 -3.8,0.68 -7.79,1.7 -11.95,3.05 v 11.25 c 3.96,-2.08 7.86,-3.65 11.72,-4.69 3.85,-1.04 7.71,-1.56 11.56,-1.56 5,0 8.88,0.86 11.64,2.58 2.76,1.72 4.14,4.19 4.14,7.42 0,2.92 -0.99,5.16 -2.97,6.72 -1.98,1.56 -6.3,3.07 -12.97,4.53 l -3.75,0.78 c -6.66,1.46 -11.48,3.65 -14.45,6.56 -2.97,2.92 -4.45,6.88 -4.45,11.88 0,6.25 2.18,11.04 6.56,14.37 4.37,3.34 10.57,5 18.59,5 3.96,0 7.71,-0.28 11.25,-0.86 3.54,-0.57 6.77,-1.43 9.69,-2.57 z m 124.88,17.03 v -12.5 c -4.06,3.75 -8.33,6.53 -12.81,8.36 -4.48,1.82 -9.27,2.73 -14.37,2.73 -10,0 -17.66,-3.07 -22.97,-9.22 -5.32,-6.14 -7.97,-15 -7.97,-26.56 0,-11.46 2.65,-20.26 7.97,-26.41 5.31,-6.14 12.97,-9.22 22.97,-9.22 5.1,0 9.89,0.94 14.37,2.82 4.48,1.87 8.75,4.63 12.81,8.28 v -12.35 c -4.16,-2.81 -8.56,-4.92 -13.2,-6.32 -4.64,-1.41 -9.5,-2.11 -14.61,-2.11 -13.33,0 -23.8,4.06 -31.41,12.18 -7.6,8.13 -11.4,19.17 -11.4,33.13 0,14.06 3.8,25.16 11.4,33.28 7.61,8.13 18.08,12.19 31.41,12.19 5.21,0 10.13,-0.7 14.77,-2.11 4.63,-1.41 8.98,-3.46 13.04,-6.17 z m 16.92,6.72 h 11.87 v -53.13 c 0,-9.37 1.7,-16.12 5.08,-20.23 3.39,-4.12 8.88,-6.18 16.49,-6.18 7.6,0 13.09,2.06 16.48,6.18 3.38,4.11 5.08,10.86 5.08,20.23 v 53.13 h 11.87 v -54.69 c 0,-11.36 -2.81,-19.95 -8.43,-25.78 -5.63,-5.84 -13.96,-8.75 -25,-8.75 -11.05,0 -19.38,2.91 -25,8.75 -5.63,5.83 -8.44,14.42 -8.44,25.78 z m 100.95,-9.69 v -68.13 h 14.38 c 12.08,0 20.91,2.74 26.48,8.21 5.58,5.47 8.36,14.14 8.36,26.01 0,11.67 -2.78,20.24 -8.36,25.71 -5.57,5.46 -14.4,8.2 -26.48,8.2 z m -11.87,9.69 h 24.37 c 16.98,0 29.43,-3.52 37.35,-10.55 7.91,-7.03 11.87,-18.05 11.87,-33.05 0,-15.1 -3.98,-26.2 -11.95,-33.28 -7.97,-7.08 -20.39,-10.62 -37.27,-10.62 h -24.37 z m 121.78,-11.72 -16.1,-43.44 h 32.19 z m -6.72,11.72 h 13.44 l 33.28,-87.5 h -12.35 l -7.97,22.5 h -39.37 l -7.97,-22.5 h -12.5 l 33.44,87.5" /><path
         id="path86"
         style="fill:#000000;fill-opacity:1;fill-rule:nonzero;stroke:none"
         d="M 195.941,1616.89 H 227.5 v -9.53 h -31.559 z m 87.219,49.85 h 55.32 v -10 h -43.441 v -25.94 h 41.723 v -9.84 h -41.723 v -31.72 h 44.531 v -10 h -56.41 z m 130.039,-21.88 -23.75,-31.87 24.852,-33.75 h -12.66 l -19.063,25.78 -19.058,-25.78 h -12.821 l 25.473,34.37 -23.281,31.25 h 12.66 l 17.5,-23.43 17.34,23.43 z m 72.582,-30.15 v -5.16 H 436.09 c 0.519,-7.5 2.789,-13.18 6.801,-17.03 4.007,-3.85 9.558,-5.78 16.64,-5.78 4.168,0 8.199,0.49 12.11,1.48 3.91,0.99 7.789,2.53 11.64,4.61 v -10.31 c -3.961,-1.56 -7.972,-2.79 -12.031,-3.67 -4.059,-0.89 -8.18,-1.33 -12.34,-1.33 -10.422,0 -18.699,3.05 -24.851,9.14 -6.137,6.09 -9.219,14.35 -9.219,24.77 0,10.72 2.922,19.24 8.75,25.54 5.84,6.3 13.648,9.46 23.441,9.46 8.86,0 15.86,-2.84 21.02,-8.52 5.148,-5.68 7.73,-13.41 7.73,-23.2 z M 475,1617.99 c -0.102,5.83 -1.77,10.52 -5,14.06 -3.23,3.54 -7.5,5.31 -12.809,5.31 -6.043,0 -10.863,-1.72 -14.461,-5.15 -3.589,-3.44 -5.652,-8.23 -6.171,-14.38 z m -8.59,57.19 h 11.711 l -19.062,-22.04 H 450 Z m 84.289,-32.82 v -10.15 c -3.121,1.77 -6.187,3.07 -9.219,3.9 -3.019,0.84 -6.089,1.25 -9.21,1.25 -7.09,0 -12.559,-2.21 -16.411,-6.64 -3.847,-4.42 -5.781,-10.65 -5.781,-18.67 0,-8.02 1.934,-14.24 5.781,-18.67 3.852,-4.43 9.321,-6.64 16.411,-6.64 3.121,0 6.191,0.41 9.21,1.25 3.032,0.83 6.098,2.08 9.219,3.75 v -10 c -3.019,-1.36 -6.14,-2.4 -9.371,-3.13 -3.226,-0.73 -6.668,-1.09 -10.308,-1.09 -9.899,0 -17.758,3.1 -23.598,9.3 -5.832,6.19 -8.75,14.61 -8.75,25.23 0,10.63 2.937,19.01 8.828,25.16 5.891,6.14 13.98,9.22 24.301,9.22 3.23,0 6.429,-0.34 9.609,-1.02 3.168,-0.68 6.27,-1.69 9.289,-3.05 z m 17.539,-37.18 v 39.68 h 10.782 v -39.37 c 0,-6.15 1.23,-10.78 3.679,-13.91 2.442,-3.12 6.063,-4.69 10.852,-4.69 5.84,0 10.449,1.85 13.828,5.55 3.391,3.7 5.082,8.78 5.082,15.24 v 37.18 h 10.777 v -65.62 h -10.777 v 10.15 c -2.602,-4.06 -5.621,-7.05 -9.063,-8.98 -3.437,-1.93 -7.449,-2.89 -12.027,-2.89 -7.609,0 -13.359,2.34 -17.269,7.03 -3.903,4.69 -5.864,11.56 -5.864,20.63 z m 87.934,58.28 v -18.6 h 22.187 v -8.43 h -22.187 v -35.63 c 0,-5.31 0.726,-8.72 2.187,-10.23 1.461,-1.51 4.43,-2.27 8.911,-2.27 h 11.089 v -9.06 H 667.27 c -8.34,0 -14.09,1.56 -17.27,4.69 -3.18,3.12 -4.77,8.75 -4.77,16.87 v 35.63 h -7.808 v 8.43 h 7.808 v 18.6 z m 36.269,-18.6 h 10.778 v -65.62 h -10.778 z m 0,25.63 h 10.778 v -13.75 h -10.778 z m 58.809,-33.13 c -5.73,0 -10.289,-2.26 -13.672,-6.79 -3.387,-4.53 -5.078,-10.71 -5.078,-18.52 0,-7.92 1.672,-14.11 5,-18.59 3.328,-4.48 7.922,-6.72 13.75,-6.72 5.73,0 10.289,2.26 13.672,6.8 3.387,4.53 5.078,10.7 5.078,18.51 0,7.71 -1.691,13.85 -5.078,18.44 -3.383,4.58 -7.942,6.87 -13.672,6.87 z m 0,9.07 c 9.371,0 16.738,-3.05 22.109,-9.14 5.36,-6.1 8.051,-14.51 8.051,-25.24 0,-10.73 -2.691,-19.17 -8.051,-25.31 -5.371,-6.15 -12.738,-9.22 -22.109,-9.22 -9.371,0 -16.738,3.07 -22.109,9.22 -5.36,6.14 -8.051,14.58 -8.051,25.31 0,10.73 2.691,19.14 8.051,25.24 5.371,6.09 12.738,9.14 22.109,9.14 z m 102.641,-27.5 v -39.69 h -10.782 v 39.22 c 0,6.25 -1.23,10.91 -3.679,13.98 -2.442,3.07 -6.059,4.61 -10.86,4.61 -5.832,0 -10.441,-1.85 -13.82,-5.55 -3.391,-3.69 -5.078,-8.77 -5.078,-15.23 v -37.03 h -10.781 v 65.62 h 10.781 v -10.15 c 2.598,3.96 5.648,6.9 9.137,8.83 3.492,1.92 7.519,2.89 12.113,2.89 7.5,0 13.199,-2.32 17.109,-6.96 3.899,-4.63 5.86,-11.48 5.86,-20.54 z m 102.789,15.93 v 35.63 h 10.781 v -91.25 H 956.68 v 9.84 c -2.289,-3.85 -5.16,-6.74 -8.59,-8.67 -3.442,-1.93 -7.61,-2.89 -12.5,-2.89 -7.918,0 -14.379,3.18 -19.379,9.53 -5,6.35 -7.5,14.69 -7.5,25 0,10.31 2.5,18.62 7.5,24.92 5,6.3 11.461,9.46 19.379,9.46 4.89,0 9.058,-0.94 12.5,-2.82 3.43,-1.87 6.301,-4.79 8.59,-8.75 z m -36.719,-22.81 c 0,-7.92 1.621,-14.14 4.84,-18.67 3.23,-4.53 7.711,-6.8 13.437,-6.8 5.731,0 10.242,2.27 13.524,6.8 3.277,4.53 4.918,10.75 4.918,18.67 0,7.92 -1.641,14.12 -4.918,18.59 -3.282,4.48 -7.793,6.72 -13.524,6.72 -5.726,0 -10.207,-2.24 -13.437,-6.72 -3.219,-4.47 -4.84,-10.67 -4.84,-18.59 z m 68.519,-6.87 v 39.68 h 10.782 v -39.37 c 0,-6.15 1.218,-10.78 3.668,-13.91 2.45,-3.12 6.07,-4.69 10.86,-4.69 5.83,0 10.44,1.85 13.83,5.55 3.38,3.7 5.08,8.78 5.08,15.24 v 37.18 h 10.78 v -65.62 h -10.78 v 10.15 c -2.61,-4.06 -5.63,-7.05 -9.07,-8.98 -3.43,-1.93 -7.45,-2.89 -12.03,-2.89 -7.6,0 -13.362,2.34 -17.26,7.03 -3.91,4.69 -5.86,11.56 -5.86,20.63 z m 114.98,65.31 h 10.78 v -53.91 l 32.19,28.28 h 13.75 l -34.85,-30.62 36.41,-35 h -14.06 l -33.44,32.03 v -32.03 h -10.78 z m 126.05,-55.78 v -5.16 h -49.69 c 0.53,-7.5 2.79,-13.18 6.8,-17.03 4.01,-3.85 9.56,-5.78 16.64,-5.78 4.17,0 8.2,0.49 12.11,1.48 3.91,0.99 7.79,2.53 11.64,4.61 v -10.31 c -3.96,-1.56 -7.97,-2.79 -12.03,-3.67 -4.06,-0.89 -8.18,-1.33 -12.34,-1.33 -10.42,0 -18.7,3.05 -24.85,9.14 -6.14,6.09 -9.22,14.35 -9.22,24.77 0,10.72 2.92,19.24 8.75,25.54 5.84,6.3 13.65,9.46 23.44,9.46 8.86,0 15.86,-2.84 21.02,-8.52 5.15,-5.68 7.73,-13.41 7.73,-23.2 z m -10.78,3.28 c -0.1,5.83 -1.77,10.52 -5,14.06 -3.23,3.54 -7.5,5.31 -12.81,5.31 -6.04,0 -10.86,-1.72 -14.46,-5.15 -3.59,-3.44 -5.65,-8.23 -6.17,-14.38 z m 66.48,16.87 c -1.25,0.63 -2.57,1.12 -3.98,1.49 -1.41,0.36 -2.99,0.54 -4.77,0.54 -6.04,0 -10.7,-1.97 -13.98,-5.93 -3.28,-3.96 -4.92,-9.69 -4.92,-17.19 v -34.53 h -10.78 v 65.62 h 10.78 v -10.15 c 2.29,3.96 5.26,6.9 8.9,8.83 3.65,1.92 8.08,2.89 13.29,2.89 0.73,0 1.53,-0.06 2.42,-0.16 0.88,-0.1 1.85,-0.26 2.89,-0.47 z m 65.9,-15.93 v -39.69 h -10.78 v 39.22 c 0,6.25 -1.22,10.91 -3.67,13.98 -2.45,3.07 -6.07,4.61 -10.86,4.61 -5.83,0 -10.44,-1.85 -13.83,-5.55 -3.38,-3.69 -5.08,-8.77 -5.08,-15.23 v -37.03 h -10.78 v 65.62 h 10.78 v -10.15 c 2.61,3.96 5.66,6.9 9.15,8.83 3.48,1.92 7.52,2.89 12.1,2.89 7.5,0 13.21,-2.32 17.11,-6.96 3.91,-4.63 5.86,-11.48 5.86,-20.54 z m 77.62,-4.22 v -5.16 h -49.69 c 0.52,-7.5 2.79,-13.18 6.8,-17.03 4.01,-3.85 9.56,-5.78 16.64,-5.78 4.17,0 8.2,0.49 12.11,1.48 3.91,0.99 7.79,2.53 11.64,4.61 v -10.31 c -3.96,-1.56 -7.97,-2.79 -12.03,-3.67 -4.06,-0.89 -8.18,-1.33 -12.34,-1.33 -10.42,0 -18.7,3.05 -24.85,9.14 -6.14,6.09 -9.22,14.35 -9.22,24.77 0,10.72 2.92,19.24 8.75,25.54 5.84,6.3 13.65,9.46 23.44,9.46 8.85,0 15.86,-2.84 21.02,-8.52 5.15,-5.68 7.73,-13.41 7.73,-23.2 z m -10.78,3.28 c -0.1,5.83 -1.77,10.52 -5,14.06 -3.23,3.54 -7.5,5.31 -12.81,5.31 -6.04,0 -10.86,-1.72 -14.46,-5.15 -3.59,-3.44 -5.65,-8.23 -6.17,-14.38 z m 28.36,52.5 h 10.78 v -91.25 h -10.78 z m 137.58,-10.47 v -12.5 c -4.07,3.75 -8.34,6.54 -12.82,8.36 -4.47,1.82 -9.27,2.73 -14.37,2.73 -10,0 -17.66,-3.07 -22.97,-9.22 -5.31,-6.14 -7.97,-15 -7.97,-26.56 0,-11.46 2.66,-20.26 7.97,-26.4 5.31,-6.15 12.97,-9.22 22.97,-9.22 5.1,0 9.9,0.93 14.37,2.81 4.48,1.87 8.75,4.63 12.82,8.28 v -12.34 c -4.17,-2.82 -8.57,-4.92 -13.21,-6.33 -4.63,-1.41 -9.5,-2.11 -14.61,-2.11 -13.33,0 -23.8,4.06 -31.4,12.19 -7.61,8.12 -11.41,19.16 -11.41,33.12 0,14.06 3.8,25.16 11.41,33.28 7.6,8.13 18.07,12.19 31.4,12.19 5.21,0 10.13,-0.7 14.77,-2.11 4.64,-1.4 8.98,-3.46 13.05,-6.17 z m 16.91,6.72 h 11.88 v -53.13 c 0,-9.37 1.69,-16.12 5.07,-20.23 3.39,-4.12 8.88,-6.17 16.49,-6.17 7.6,0 13.1,2.05 16.48,6.17 3.39,4.11 5.08,10.86 5.08,20.23 v 53.13 h 11.88 v -54.69 c 0,-11.35 -2.82,-19.95 -8.44,-25.78 -5.63,-5.83 -13.96,-8.75 -25,-8.75 -11.04,0 -19.38,2.92 -25,8.75 -5.63,5.83 -8.44,14.43 -8.44,25.78 z m 100.96,-9.69 v -68.12 h 14.37 c 12.09,0 20.91,2.73 26.49,8.2 5.57,5.47 8.36,14.14 8.36,26.01 0,11.67 -2.79,20.24 -8.36,25.71 -5.58,5.47 -14.4,8.2 -26.49,8.2 z m -11.88,9.69 h 24.38 c 16.98,0 29.42,-3.52 37.34,-10.55 7.92,-7.03 11.88,-18.05 11.88,-33.05 0,-15.1 -3.99,-26.19 -11.96,-33.28 -7.97,-7.08 -20.39,-10.62 -37.26,-10.62 h -24.38 z m 121.78,-11.72 -16.09,-43.44 h 32.18 z m -6.72,11.72 h 13.44 l 33.28,-87.5 h -12.34 l -7.97,22.5 h -39.38 l -7.97,-22.5 h -12.5 l 33.44,87.5" /><path
         id="path88"
         style="fill:#000000;fill-opacity:1;fill-rule:nonzero;stroke:none"
         d="M 195.941,1477.21 H 227.5 v -9.53 h -31.559 z m 87.219,49.84 h 11.879 v -77.5 h 42.66 v -10 H 283.16 Z m 66.391,-21.87 h 10.781 v -65.63 h -10.781 z m 0,25.62 h 10.781 v -13.75 h -10.781 z m 80.527,-58.44 c 0,7.92 -1.637,14.12 -4.918,18.6 -3.281,4.48 -7.738,6.72 -13.359,6.72 -5.731,0 -10.242,-2.24 -13.52,-6.72 -3.281,-4.48 -4.922,-10.68 -4.922,-18.6 0,-7.91 1.641,-14.14 4.922,-18.67 3.278,-4.53 7.789,-6.8 13.52,-6.8 5.621,0 10.078,2.27 13.359,6.8 3.281,4.53 4.918,10.76 4.918,18.67 z m -36.719,22.82 c 2.289,3.95 5.161,6.87 8.59,8.75 3.442,1.87 7.563,2.81 12.352,2.81 8.019,0 14.527,-3.15 19.527,-9.45 5,-6.31 7.5,-14.61 7.5,-24.93 0,-10.31 -2.5,-18.64 -7.5,-25 -5,-6.35 -11.508,-9.53 -19.527,-9.53 -4.789,0 -8.91,0.97 -12.352,2.89 -3.429,1.93 -6.301,4.82 -8.59,8.67 v -9.84 h -10.781 v 91.25 h 10.781 z m 121.95,-20.16 v -5.16 h -49.688 c 0.527,-7.5 2.789,-13.17 6.801,-17.03 4.008,-3.85 9.558,-5.78 16.637,-5.78 4.171,0 8.211,0.5 12.113,1.49 3.906,0.98 7.789,2.52 11.637,4.6 v -10.31 c -3.957,-1.56 -7.969,-2.78 -12.028,-3.67 -4.062,-0.89 -8.179,-1.33 -12.34,-1.33 -10.421,0 -18.703,3.05 -24.851,9.14 -6.141,6.1 -9.211,14.35 -9.211,24.77 0,10.73 2.91,19.24 8.742,25.55 5.84,6.3 13.649,9.45 23.438,9.45 8.863,0 15.863,-2.84 21.019,-8.52 5.152,-5.67 7.731,-13.41 7.731,-23.2 z m -10.778,3.28 c -0.101,5.83 -1.769,10.52 -5,14.06 -3.23,3.54 -7.5,5.32 -12.812,5.32 -6.039,0 -10.86,-1.72 -14.449,-5.16 -3.598,-3.44 -5.661,-8.23 -6.18,-14.38 z m -8.59,57.19 h 11.719 l -19.07,-22.03 h -9.059 z m 75.079,-40.31 c -1.25,0.62 -2.579,1.12 -3.989,1.48 -1.41,0.36 -2.992,0.55 -4.761,0.55 -6.051,0 -10.711,-1.98 -13.989,-5.94 -3.281,-3.96 -4.922,-9.69 -4.922,-17.19 v -34.53 h -10.781 v 65.63 h 10.781 v -10.16 c 2.289,3.96 5.262,6.9 8.911,8.83 3.64,1.92 8.07,2.89 13.281,2.89 0.73,0 1.527,-0.05 2.418,-0.16 0.883,-0.1 1.851,-0.26 2.89,-0.47 z m 41.05,-22.66 c -8.648,0 -14.66,-0.99 -18.05,-2.97 -3.379,-1.98 -5.071,-5.36 -5.071,-10.16 0,-3.85 1.27,-6.9 3.821,-9.14 2.562,-2.24 5.968,-3.36 10.242,-3.36 6.039,0 10.859,2.11 14.449,6.33 3.59,4.22 5.391,9.87 5.391,16.96 v 2.34 z m 21.559,4.53 v -37.5 h -10.777 v 10 c -2.5,-3.96 -5.571,-6.9 -9.223,-8.83 -3.641,-1.92 -8.117,-2.89 -13.43,-2.89 -6.777,0 -12.14,1.9 -16.097,5.71 -3.961,3.8 -5.942,8.82 -5.942,15.07 0,7.4 2.481,12.97 7.43,16.72 4.941,3.75 12.308,5.63 22.109,5.63 h 15.153 v 1.09 c 0,5 -1.641,8.85 -4.922,11.56 -3.282,2.71 -7.84,4.07 -13.668,4.07 -3.75,0 -7.422,-0.47 -11.024,-1.41 -3.59,-0.94 -7,-2.29 -10.226,-4.06 v 10 c 3.957,1.56 7.777,2.71 11.476,3.43 3.703,0.73 7.321,1.1 10.864,1.1 9.48,0 16.558,-2.45 21.25,-7.35 4.687,-4.89 7.027,-12.34 7.027,-22.34 z m 32.91,46.72 v -18.59 h 22.191 v -8.44 h -22.191 v -35.63 c 0,-5.31 0.731,-8.72 2.191,-10.23 1.461,-1.51 4.43,-2.27 8.911,-2.27 h 11.089 v -9.06 h -11.089 c -8.34,0 -14.09,1.56 -17.27,4.69 -3.18,3.12 -4.762,8.75 -4.762,16.87 v 35.63 h -7.82 v 8.44 h 7.82 v 18.59 z m 36.27,-18.59 h 10.781 v -65.63 h -10.781 z m 0,25.62 h 10.781 v -13.75 h -10.781 z m 58.812,-33.12 c -5.73,0 -10.293,-2.27 -13.672,-6.8 -3.39,-4.53 -5.078,-10.7 -5.078,-18.52 0,-7.91 1.668,-14.11 5,-18.59 3.328,-4.48 7.918,-6.72 13.75,-6.72 5.731,0 10.289,2.27 13.668,6.8 3.391,4.53 5.082,10.7 5.082,18.51 0,7.71 -1.691,13.86 -5.082,18.44 -3.379,4.58 -7.937,6.88 -13.668,6.88 z m 0,9.06 c 9.379,0 16.75,-3.05 22.109,-9.14 5.372,-6.1 8.051,-14.51 8.051,-25.24 0,-10.73 -2.679,-19.16 -8.051,-25.31 -5.359,-6.15 -12.73,-9.22 -22.109,-9.22 -9.371,0 -16.742,3.07 -22.109,9.22 -5.364,6.15 -8.051,14.58 -8.051,25.31 0,10.73 2.687,19.14 8.051,25.24 5.367,6.09 12.738,9.14 22.109,9.14 z m 102.641,-27.5 v -39.69 H 853.48 v 39.22 c 0,6.25 -1.23,10.91 -3.679,13.98 -2.442,3.08 -6.063,4.61 -10.852,4.61 -5.84,0 -10.449,-1.85 -13.828,-5.54 -3.391,-3.7 -5.082,-8.78 -5.082,-15.24 v -37.03 h -10.777 v 65.63 h 10.777 v -10.16 c 2.602,3.96 5.652,6.9 9.141,8.83 3.492,1.92 7.531,2.89 12.109,2.89 7.5,0 13.199,-2.32 17.109,-6.95 3.903,-4.64 5.864,-11.49 5.864,-20.55 z m 102.789,15.94 v 35.62 h 10.781 v -91.25 h -10.781 v 9.84 c -2.289,-3.85 -5.16,-6.74 -8.59,-8.67 -3.441,-1.92 -7.609,-2.89 -12.5,-2.89 -7.922,0 -14.379,3.18 -19.379,9.53 -5,6.36 -7.5,14.69 -7.5,25 0,10.32 2.5,18.62 7.5,24.93 5,6.3 11.457,9.45 19.379,9.45 4.891,0 9.059,-0.94 12.5,-2.81 3.43,-1.88 6.301,-4.8 8.59,-8.75 z m -36.719,-22.82 c 0,-7.91 1.617,-14.14 4.848,-18.67 3.218,-4.53 7.699,-6.8 13.429,-6.8 5.731,0 10.243,2.27 13.52,6.8 3.281,4.53 4.922,10.76 4.922,18.67 0,7.92 -1.641,14.12 -4.922,18.6 -3.277,4.48 -7.789,6.72 -13.52,6.72 -5.73,0 -10.211,-2.24 -13.429,-6.72 -3.231,-4.48 -4.848,-10.68 -4.848,-18.6 z m 68.52,-6.87 v 39.69 h 10.778 v -39.38 c 0,-6.15 1.22,-10.78 3.67,-13.91 2.45,-3.12 6.07,-4.68 10.86,-4.68 5.83,0 10.44,1.85 13.83,5.54 3.38,3.7 5.08,8.78 5.08,15.24 v 37.19 h 10.78 v -65.63 h -10.78 v 10.16 c -2.61,-4.07 -5.63,-7.06 -9.07,-8.99 -3.43,-1.92 -7.44,-2.89 -12.03,-2.89 -7.6,0 -13.36,2.35 -17.26,7.03 -3.91,4.69 -5.858,11.57 -5.858,20.63 z m 162.478,6.87 c 0,7.92 -1.64,14.12 -4.92,18.6 -3.29,4.48 -7.74,6.72 -13.36,6.72 -5.73,0 -10.24,-2.24 -13.52,-6.72 -3.28,-4.48 -4.92,-10.68 -4.92,-18.6 0,-7.91 1.64,-14.14 4.92,-18.67 3.28,-4.53 7.79,-6.8 13.52,-6.8 5.62,0 10.07,2.27 13.36,6.8 3.28,4.53 4.92,10.76 4.92,18.67 z m -36.72,22.82 c 2.29,3.95 5.16,6.87 8.59,8.75 3.44,1.87 7.56,2.81 12.35,2.81 8.02,0 14.53,-3.15 19.53,-9.45 5,-6.31 7.5,-14.61 7.5,-24.93 0,-10.31 -2.5,-18.64 -7.5,-25 -5,-6.35 -11.51,-9.53 -19.53,-9.53 -4.79,0 -8.91,0.97 -12.35,2.89 -3.43,1.93 -6.3,4.82 -8.59,8.67 v -9.84 h -10.78 v 91.25 h 10.78 z m 64.61,-29.69 v 39.69 H 1200 v -39.38 c 0,-6.15 1.22,-10.78 3.67,-13.91 2.45,-3.12 6.07,-4.68 10.86,-4.68 5.83,0 10.44,1.85 13.83,5.54 3.38,3.7 5.08,8.78 5.08,15.24 v 37.19 h 10.78 v -65.63 h -10.78 v 10.16 c -2.61,-4.07 -5.63,-7.06 -9.06,-8.99 -3.44,-1.92 -7.45,-2.89 -12.04,-2.89 -7.6,0 -13.36,2.35 -17.26,7.03 -3.91,4.69 -5.86,11.57 -5.86,20.63 z m 110.43,65.31 v -9.06 h -10.31 c -3.86,0 -6.54,-0.78 -8.05,-2.35 -1.51,-1.56 -2.27,-4.37 -2.27,-8.43 v -5.78 h 17.82 v -8.44 h -17.82 v -57.19 h -10.78 v 57.19 h -10.31 v 8.44 h 10.31 v 4.53 c 0,7.29 1.69,12.63 5.08,16.01 3.39,3.39 8.78,5.08 16.17,5.08 z m 42.24,0 v -9.06 h -10.31 c -3.85,0 -6.53,-0.78 -8.04,-2.35 -1.52,-1.56 -2.27,-4.37 -2.27,-8.43 v -5.78 h 17.81 v -8.44 h -17.81 v -57.19 h -10.78 v 57.19 h -10.31 v 8.44 h 10.31 v 4.53 c 0,7.29 1.69,12.63 5.08,16.01 3.38,3.39 8.77,5.08 16.17,5.08 z m 65.22,-55.78 v -5.16 h -49.69 c 0.52,-7.5 2.79,-13.17 6.8,-17.03 4.01,-3.85 9.56,-5.78 16.64,-5.78 4.17,0 8.2,0.5 12.11,1.49 3.91,0.98 7.79,2.52 11.64,4.6 v -10.31 c -3.96,-1.56 -7.97,-2.78 -12.03,-3.67 -4.06,-0.89 -8.18,-1.33 -12.35,-1.33 -10.41,0 -18.69,3.05 -24.84,9.14 -6.15,6.1 -9.22,14.35 -9.22,24.77 0,10.73 2.92,19.24 8.75,25.55 5.84,6.3 13.65,9.45 23.44,9.45 8.85,0 15.86,-2.84 21.02,-8.52 5.15,-5.67 7.73,-13.41 7.73,-23.2 z m -10.78,3.28 c -0.11,5.83 -1.77,10.52 -5,14.06 -3.23,3.54 -7.5,5.32 -12.81,5.32 -6.05,0 -10.86,-1.72 -14.46,-5.16 -3.59,-3.44 -5.65,-8.23 -6.17,-14.38 z m 66.48,16.88 c -1.25,0.62 -2.58,1.12 -3.98,1.48 -1.41,0.36 -3,0.55 -4.77,0.55 -6.04,0 -10.7,-1.98 -13.98,-5.94 -3.28,-3.96 -4.92,-9.69 -4.92,-17.19 v -34.53 h -10.78 v 65.63 h 10.78 v -10.16 c 2.29,3.96 5.26,6.9 8.9,8.83 3.65,1.92 8.08,2.89 13.28,2.89 0.73,0 1.54,-0.05 2.43,-0.16 0.88,-0.1 1.84,-0.26 2.89,-0.47 z m 61.7,22.18 v -32.97 h 14.85 c 5.52,0 9.79,1.44 12.81,4.3 3.02,2.87 4.53,6.95 4.53,12.27 0,5.21 -1.51,9.24 -4.53,12.11 -3.02,2.86 -7.29,4.29 -12.81,4.29 z m -11.87,9.69 h 26.72 c 9.89,0 17.34,-2.21 22.34,-6.64 5,-4.43 7.5,-10.91 7.5,-19.45 0,-8.65 -2.5,-15.19 -7.5,-19.61 -5,-4.43 -12.45,-6.64 -22.34,-6.64 h -14.85 v -35.16 h -11.87 z m 84.24,-45.78 v -32.03 h 19.06 c 6.35,0 11.07,1.33 14.14,3.98 3.07,2.66 4.61,6.7 4.61,12.11 0,5.52 -1.54,9.56 -4.61,12.11 -3.07,2.55 -7.79,3.83 -14.14,3.83 z m 0,36.09 v -26.4 h 17.5 c 5.83,0 10.15,1.09 12.96,3.28 2.82,2.19 4.22,5.47 4.22,9.84 0,4.48 -1.4,7.81 -4.22,10 -2.81,2.19 -7.13,3.28 -12.96,3.28 z m -11.88,9.69 h 30.31 c 9.07,0 16.02,-1.87 20.86,-5.62 4.85,-3.75 7.27,-9.07 7.27,-15.94 0,-5.42 -1.25,-9.72 -3.75,-12.89 -2.5,-3.18 -6.15,-5.13 -10.94,-5.86 5.83,-1.25 10.36,-3.86 13.59,-7.81 3.23,-3.96 4.85,-8.91 4.85,-14.85 0,-7.81 -2.66,-13.85 -7.97,-18.12 -5.31,-4.27 -12.92,-6.41 -22.81,-6.41 H 1585 Z m 117.95,-7.97 c -8.65,0 -15.5,-3.2 -20.55,-9.61 -5.05,-6.4 -7.58,-15.18 -7.58,-26.33 0,-10.93 2.53,-19.6 7.58,-26.01 5.05,-6.41 11.9,-9.61 20.55,-9.61 8.54,0 15.34,3.2 20.39,9.61 5.05,6.41 7.58,15.08 7.58,26.01 0,11.15 -2.53,19.93 -7.58,26.33 -5.05,6.41 -11.85,9.61 -20.39,9.61 z m 0,9.53 c 12.19,0 21.95,-4.11 29.3,-12.34 7.34,-8.23 11.01,-19.27 11.01,-33.13 0,-13.75 -3.67,-24.74 -11.01,-32.96 -7.35,-8.23 -17.11,-12.35 -29.3,-12.35 -12.29,0 -22.14,4.12 -29.53,12.35 -7.4,8.22 -11.1,19.21 -11.1,32.96 0,13.86 3.7,24.9 11.1,33.13 7.39,8.23 17.24,12.34 29.53,12.34" /><path
         id="path90"
         style="fill:#000000;fill-opacity:1;fill-rule:nonzero;stroke:none"
         d="m 227.191,1390.96 c -5.211,-8.96 -9.089,-17.84 -11.64,-26.64 -2.563,-8.81 -3.832,-17.74 -3.832,-26.8 0,-8.96 1.269,-17.87 3.832,-26.72 2.551,-8.85 6.429,-17.76 11.64,-26.72 h -9.382 c -5.829,9.17 -10.207,18.18 -13.118,27.03 -2.921,8.86 -4.382,17.66 -4.382,26.41 0,8.75 1.461,17.53 4.382,26.33 2.911,8.8 7.289,17.84 13.118,27.11 z m 71.969,-38.13 c 2.711,4.9 5.942,8.49 9.692,10.78 3.75,2.29 8.168,3.44 13.277,3.44 6.871,0 12.16,-2.4 15.859,-7.19 3.703,-4.79 5.551,-11.56 5.551,-20.31 v -39.69 H 332.75 v 39.22 c 0,6.36 -1.121,11.04 -3.359,14.06 -2.243,3.03 -5.653,4.54 -10.231,4.54 -5.621,0 -10.051,-1.85 -13.281,-5.55 -3.231,-3.7 -4.84,-8.78 -4.84,-15.24 v -37.03 H 290.25 v 39.22 c 0,6.36 -1.121,11.04 -3.359,14.06 -2.243,3.03 -5.7,4.54 -10.391,4.54 -5.52,0 -9.891,-1.85 -13.121,-5.55 -3.231,-3.7 -4.84,-8.78 -4.84,-15.24 v -37.03 H 247.75 v 65.63 h 10.789 v -10.16 c 2.5,3.96 5.461,6.9 8.902,8.83 3.438,1.93 7.5,2.89 12.188,2.89 4.793,0 8.851,-1.2 12.191,-3.59 3.328,-2.4 5.782,-5.94 7.34,-10.63 z m 65.801,12.66 h 10.777 v -65.63 h -10.777 z m 0,25.62 h 10.777 v -13.75 h -10.777 z m 75.219,-27.5 v -10.31 c -3.032,1.56 -6.18,2.74 -9.461,3.52 -3.278,0.78 -6.688,1.17 -10.231,1.17 -5.308,0 -9.316,-0.81 -12.027,-2.42 -2.711,-1.62 -4.07,-4.09 -4.07,-7.43 0,-2.5 0.968,-4.45 2.898,-5.85 1.922,-1.41 5.801,-2.74 11.641,-3.99 l 3.59,-0.94 c 7.71,-1.56 13.179,-3.85 16.41,-6.87 3.218,-3.02 4.84,-7.19 4.84,-12.5 0,-6.15 -2.418,-10.99 -7.27,-14.53 -4.84,-3.54 -11.48,-5.32 -19.918,-5.32 -3.543,0 -7.211,0.34 -11.012,1.02 -3.808,0.68 -7.789,1.69 -11.961,3.05 v 11.25 c 3.961,-2.09 7.871,-3.65 11.723,-4.69 3.859,-1.04 7.707,-1.56 11.559,-1.56 5,0 8.879,0.86 11.648,2.58 2.762,1.71 4.141,4.19 4.141,7.42 0,2.91 -0.989,5.15 -2.969,6.72 -1.981,1.56 -6.313,3.07 -12.973,4.53 l -3.75,0.78 c -6.668,1.46 -11.488,3.64 -14.449,6.56 -2.969,2.92 -4.457,6.88 -4.457,11.88 0,6.25 2.188,11.04 6.559,14.37 4.379,3.33 10.578,5 18.597,5 3.961,0 7.711,-0.29 11.25,-0.86 3.543,-0.57 6.774,-1.43 9.692,-2.58 z m 76.89,-28.28 v -5.15 h -49.691 c 0.519,-7.5 2.793,-13.18 6.801,-17.04 4.011,-3.85 9.558,-5.78 16.64,-5.78 4.168,0 8.2,0.5 12.11,1.49 3.91,0.99 7.789,2.52 11.64,4.61 v -10.32 c -3.961,-1.56 -7.968,-2.78 -12.031,-3.67 -4.059,-0.88 -8.18,-1.33 -12.34,-1.33 -10.418,0 -18.699,3.05 -24.847,9.15 -6.141,6.09 -9.223,14.34 -9.223,24.76 0,10.73 2.922,19.25 8.75,25.55 5.84,6.3 13.652,9.45 23.441,9.45 8.852,0 15.86,-2.84 21.02,-8.51 5.148,-5.68 7.73,-13.42 7.73,-23.21 z m -10.781,3.28 c -0.109,5.84 -1.769,10.52 -5,14.07 -3.23,3.54 -7.5,5.31 -12.809,5.31 -6.05,0 -10.859,-1.72 -14.46,-5.16 -3.59,-3.44 -5.649,-8.23 -6.168,-14.37 z m 96.352,-5.78 c -8.653,0 -14.661,-0.99 -18.051,-2.97 -3.391,-1.98 -5.078,-5.36 -5.078,-10.15 0,-3.86 1.277,-6.9 3.828,-9.14 2.551,-2.24 5.961,-3.36 10.23,-3.36 6.051,0 10.86,2.11 14.461,6.33 3.59,4.21 5.391,9.86 5.391,16.95 v 2.34 z m 21.558,4.53 v -37.5 h -10.777 v 10 c -2.5,-3.96 -5.57,-6.9 -9.223,-8.82 -3.648,-1.93 -8.129,-2.9 -13.437,-2.9 -6.774,0 -12.133,1.91 -16.09,5.71 -3.961,3.8 -5.942,8.83 -5.942,15.08 0,7.39 2.469,12.96 7.418,16.71 4.954,3.75 12.321,5.63 22.114,5.63 h 15.16 v 1.09 c 0,5 -1.641,8.86 -4.922,11.57 -3.289,2.7 -7.84,4.06 -13.68,4.06 -3.75,0 -7.422,-0.47 -11.011,-1.41 -3.598,-0.94 -7.008,-2.29 -10.239,-4.06 v 10 c 3.961,1.56 7.789,2.71 11.489,3.44 3.703,0.73 7.32,1.09 10.863,1.09 9.476,0 16.558,-2.45 21.25,-7.34 4.687,-4.9 7.027,-12.35 7.027,-22.35 z m -31.09,58.44 16.403,-21.87 h -8.903 l -19.07,21.87 z m 134.641,-40.31 v 35.62 h 10.789 v -91.25 H 727.75 v 9.85 c -2.289,-3.86 -5.148,-6.75 -8.59,-8.67 -3.441,-1.93 -7.601,-2.9 -12.5,-2.9 -7.922,0 -14.371,3.18 -19.371,9.54 -5,6.35 -7.5,14.68 -7.5,25 0,10.31 2.5,18.62 7.5,24.92 5,6.3 11.449,9.45 19.371,9.45 4.899,0 9.059,-0.94 12.5,-2.81 3.442,-1.88 6.301,-4.79 8.59,-8.75 z m -36.711,-22.81 c 0,-7.92 1.609,-14.14 4.84,-18.68 3.23,-4.53 7.711,-6.79 13.441,-6.79 5.731,0 10.231,2.26 13.512,6.79 3.277,4.54 4.918,10.76 4.918,18.68 0,7.91 -1.641,14.11 -4.918,18.59 -3.281,4.48 -7.781,6.72 -13.512,6.72 -5.73,0 -10.211,-2.24 -13.441,-6.72 -3.231,-4.48 -4.84,-10.68 -4.84,-18.59 z m 69.602,32.81 h 10.789 v -65.63 h -10.789 z m 0,25.62 h 10.789 v -13.75 h -10.789 z m 75.218,-27.5 v -10.31 c -3.019,1.56 -6.168,2.74 -9.449,3.52 -3.289,0.78 -6.699,1.17 -10.238,1.17 -5.313,0 -9.32,-0.81 -12.031,-2.42 -2.711,-1.62 -4.063,-4.09 -4.063,-7.43 0,-2.5 0.961,-4.45 2.891,-5.85 1.929,-1.41 5.812,-2.74 11.64,-3.99 l 3.59,-0.94 c 7.711,-1.56 13.18,-3.85 16.41,-6.87 3.231,-3.02 4.84,-7.19 4.84,-12.5 0,-6.15 -2.418,-10.99 -7.258,-14.53 -4.851,-3.54 -11.492,-5.32 -19.921,-5.32 -3.551,0 -7.219,0.34 -11.02,1.02 -3.801,0.68 -7.789,1.69 -11.949,3.05 v 11.25 c 3.961,-2.09 7.859,-3.65 11.719,-4.69 3.851,-1.04 7.699,-1.56 11.558,-1.56 5,0 8.883,0.86 11.641,2.58 2.761,1.71 4.14,4.19 4.14,7.42 0,2.91 -0.988,5.15 -2.968,6.72 -1.981,1.56 -6.301,3.07 -12.969,4.53 l -3.75,0.78 c -6.66,1.46 -11.481,3.64 -14.453,6.56 -2.969,2.92 -4.449,6.88 -4.449,11.88 0,6.25 2.179,11.04 6.558,14.37 4.371,3.33 10.57,5 18.594,5 3.957,0 7.707,-0.29 11.25,-0.86 3.539,-0.57 6.769,-1.43 9.687,-2.58 z m 31.11,-53.9 v -34.85 h -10.778 v 90.63 h 10.778 v -10 c 2.293,3.96 5.16,6.87 8.601,8.75 3.43,1.87 7.551,2.81 12.34,2.81 8.02,0 14.531,-3.15 19.531,-9.45 5,-6.3 7.5,-14.61 7.5,-24.92 0,-10.32 -2.5,-18.65 -7.5,-25 -5,-6.36 -11.511,-9.54 -19.531,-9.54 -4.789,0 -8.91,0.97 -12.34,2.9 -3.441,1.92 -6.308,4.81 -8.601,8.67 z m 36.722,22.97 c 0,7.91 -1.64,14.11 -4.921,18.59 -3.282,4.48 -7.731,6.72 -13.36,6.72 -5.73,0 -10.23,-2.24 -13.519,-6.72 -3.282,-4.48 -4.922,-10.68 -4.922,-18.59 0,-7.92 1.64,-14.14 4.922,-18.68 3.289,-4.53 7.789,-6.79 13.519,-6.79 5.629,0 10.078,2.26 13.36,6.79 3.281,4.54 4.921,10.76 4.921,18.68 z m 54.45,25.31 c -5.719,0 -10.282,-2.27 -13.672,-6.8 -3.379,-4.53 -5.078,-10.7 -5.078,-18.51 0,-7.92 1.668,-14.12 5,-18.6 3.339,-4.48 7.918,-6.72 13.75,-6.72 5.73,0 10.289,2.27 13.679,6.8 3.379,4.53 5.071,10.7 5.071,18.52 0,7.7 -1.692,13.85 -5.071,18.43 -3.39,4.59 -7.949,6.88 -13.679,6.88 z m 0,9.06 c 9.379,0 16.75,-3.05 22.109,-9.14 5.371,-6.09 8.051,-14.51 8.051,-25.23 0,-10.73 -2.68,-19.17 -8.051,-25.32 -5.359,-6.14 -12.73,-9.22 -22.109,-9.22 -9.371,0 -16.743,3.08 -22.102,9.22 -5.367,6.15 -8.051,14.59 -8.051,25.32 0,10.72 2.684,19.14 8.051,25.23 5.359,6.09 12.731,9.14 22.102,9.14 z m 89.829,-3.44 v -10.31 c -3.02,1.56 -6.17,2.74 -9.45,3.52 -3.29,0.78 -6.7,1.17 -10.24,1.17 -5.31,0 -9.32,-0.81 -12.03,-2.42 -2.71,-1.62 -4.06,-4.09 -4.06,-7.43 0,-2.5 0.96,-4.45 2.89,-5.85 1.93,-1.41 5.81,-2.74 11.64,-3.99 l 3.59,-0.94 c 7.71,-1.56 13.18,-3.85 16.41,-6.87 3.23,-3.02 4.84,-7.19 4.84,-12.5 0,-6.15 -2.42,-10.99 -7.26,-14.53 -4.85,-3.54 -11.49,-5.32 -19.92,-5.32 -3.55,0 -7.22,0.34 -11.02,1.02 -3.8,0.68 -7.79,1.69 -11.95,3.05 v 11.25 c 3.95,-2.09 7.86,-3.65 11.71,-4.69 3.86,-1.04 7.71,-1.56 11.57,-1.56 5,0 8.88,0.86 11.64,2.58 2.76,1.71 4.14,4.19 4.14,7.42 0,2.91 -0.99,5.15 -2.97,6.72 -1.98,1.56 -6.3,3.07 -12.97,4.53 l -3.75,0.78 c -6.67,1.46 -11.48,3.64 -14.45,6.56 -2.97,2.92 -4.45,6.88 -4.45,11.88 0,6.25 2.18,11.04 6.56,14.37 4.37,3.33 10.57,5 18.59,5 3.96,0 7.71,-0.29 11.25,-0.86 3.54,-0.57 6.77,-1.43 9.69,-2.58 z m 20.64,1.88 h 10.78 v -65.63 h -10.78 z m 0,25.62 h 10.78 v -13.75 h -10.78 z m 44.12,-7.03 v -18.59 h 22.19 v -8.44 h -22.19 v -35.62 c 0,-5.32 0.73,-8.73 2.19,-10.24 1.46,-1.51 4.43,-2.26 8.91,-2.26 h 11.09 v -9.07 h -11.09 c -8.34,0 -14.09,1.57 -17.27,4.69 -3.17,3.13 -4.76,8.75 -4.76,16.88 v 35.62 h -7.82 v 8.44 h 7.82 v 18.59 z m 36.27,-18.59 h 10.79 v -65.63 H 1149 Z m 0,25.62 h 10.79 v -13.75 H 1149 Z m 58.81,-33.12 c -5.73,0 -10.28,-2.27 -13.67,-6.8 -3.38,-4.53 -5.08,-10.7 -5.08,-18.51 0,-7.92 1.67,-14.12 5,-18.6 3.34,-4.48 7.92,-6.72 13.75,-6.72 5.73,0 10.29,2.27 13.67,6.8 3.39,4.53 5.08,10.7 5.08,18.52 0,7.7 -1.69,13.85 -5.08,18.43 -3.38,4.59 -7.94,6.88 -13.67,6.88 z m 0,9.06 c 9.38,0 16.75,-3.05 22.11,-9.14 5.37,-6.09 8.05,-14.51 8.05,-25.23 0,-10.73 -2.68,-19.17 -8.05,-25.32 -5.36,-6.14 -12.73,-9.22 -22.11,-9.22 -9.37,0 -16.74,3.08 -22.11,9.22 -5.36,6.15 -8.04,14.59 -8.04,25.32 0,10.72 2.68,19.14 8.04,25.23 5.37,6.09 12.74,9.14 22.11,9.14 z m 102.64,-27.5 v -39.69 h -10.78 v 39.22 c 0,6.25 -1.23,10.91 -3.67,13.99 -2.45,3.07 -6.07,4.61 -10.86,4.61 -5.84,0 -10.45,-1.85 -13.83,-5.55 -3.39,-3.7 -5.08,-8.78 -5.08,-15.24 v -37.03 h -10.78 v 65.63 h 10.78 v -10.16 c 2.6,3.96 5.65,6.9 9.14,8.83 3.49,1.93 7.53,2.89 12.11,2.89 7.5,0 13.2,-2.32 17.11,-6.95 3.91,-4.64 5.86,-11.49 5.86,-20.55 z m 102.79,15.94 v 35.62 h 10.78 v -91.25 h -10.78 v 9.85 c -2.29,-3.86 -5.15,-6.75 -8.59,-8.67 -3.44,-1.93 -7.61,-2.9 -12.5,-2.9 -7.92,0 -14.38,3.18 -19.38,9.54 -5,6.35 -7.5,14.68 -7.5,25 0,10.31 2.5,18.62 7.5,24.92 5,6.3 11.46,9.45 19.38,9.45 4.89,0 9.06,-0.94 12.5,-2.81 3.44,-1.88 6.3,-4.79 8.59,-8.75 z m -36.72,-22.81 c 0,-7.92 1.62,-14.14 4.85,-18.68 3.23,-4.53 7.71,-6.79 13.43,-6.79 5.73,0 10.24,2.26 13.52,6.79 3.28,4.54 4.92,10.76 4.92,18.68 0,7.91 -1.64,14.11 -4.92,18.59 -3.28,4.48 -7.79,6.72 -13.52,6.72 -5.72,0 -10.2,-2.24 -13.43,-6.72 -3.23,-4.48 -4.85,-10.68 -4.85,-18.59 z m 99.46,0.15 c -8.65,0 -14.66,-0.99 -18.05,-2.97 -3.39,-1.98 -5.08,-5.36 -5.08,-10.15 0,-3.86 1.28,-6.9 3.83,-9.14 2.55,-2.24 5.96,-3.36 10.23,-3.36 6.05,0 10.86,2.11 14.46,6.33 3.59,4.21 5.39,9.86 5.39,16.95 v 2.34 z m 21.56,4.53 v -37.5 h -10.78 v 10 c -2.5,-3.96 -5.58,-6.9 -9.22,-8.82 -3.65,-1.93 -8.13,-2.9 -13.44,-2.9 -6.77,0 -12.13,1.91 -16.09,5.71 -3.96,3.8 -5.94,8.83 -5.94,15.08 0,7.39 2.47,12.96 7.42,16.71 4.95,3.75 12.32,5.63 22.11,5.63 h 15.16 v 1.09 c 0,5 -1.64,8.86 -4.92,11.57 -3.29,2.7 -7.84,4.06 -13.68,4.06 -3.75,0 -7.42,-0.47 -11.01,-1.41 -3.6,-0.94 -7.01,-2.29 -10.24,-4.06 v 10 c 3.96,1.56 7.79,2.71 11.49,3.44 3.7,0.73 7.32,1.09 10.86,1.09 9.48,0 16.56,-2.45 21.25,-7.34 4.69,-4.9 7.03,-12.35 7.03,-22.35 z m 76.82,2.19 v -39.69 h -10.79 v 39.22 c 0,6.25 -1.22,10.91 -3.67,13.99 -2.45,3.07 -6.07,4.61 -10.86,4.61 -5.83,0 -10.44,-1.85 -13.83,-5.55 -3.38,-3.7 -5.07,-8.78 -5.07,-15.24 v -37.03 h -10.78 v 65.63 h 10.78 v -10.16 c 2.6,3.96 5.65,6.9 9.14,8.83 3.49,1.93 7.52,2.89 12.11,2.89 7.5,0 13.2,-2.32 17.11,-6.95 3.9,-4.64 5.86,-11.49 5.86,-20.55 z m 63.24,24.06 v -10.31 c -3.02,1.56 -6.17,2.74 -9.46,3.52 -3.28,0.78 -6.69,1.17 -10.23,1.17 -5.31,0 -9.32,-0.81 -12.03,-2.42 -2.71,-1.62 -4.06,-4.09 -4.06,-7.43 0,-2.5 0.96,-4.45 2.89,-5.85 1.92,-1.41 5.8,-2.74 11.64,-3.99 l 3.59,-0.94 c 7.71,-1.56 13.18,-3.85 16.41,-6.87 3.23,-3.02 4.84,-7.19 4.84,-12.5 0,-6.15 -2.42,-10.99 -7.26,-14.53 -4.85,-3.54 -11.49,-5.32 -19.93,-5.32 -3.54,0 -7.21,0.34 -11.01,1.02 -3.8,0.68 -7.79,1.69 -11.95,3.05 v 11.25 c 3.95,-2.09 7.86,-3.65 11.71,-4.69 3.86,-1.04 7.71,-1.56 11.57,-1.56 5,0 8.88,0.86 11.64,2.58 2.76,1.71 4.14,4.19 4.14,7.42 0,2.91 -0.99,5.15 -2.97,6.72 -1.98,1.56 -6.3,3.07 -12.97,4.53 l -3.75,0.78 c -6.67,1.46 -11.48,3.64 -14.45,6.56 -2.97,2.92 -4.46,6.88 -4.46,11.88 0,6.25 2.19,11.04 6.57,14.37 4.37,3.33 10.57,5 18.59,5 3.96,0 7.71,-0.29 11.25,-0.86 3.54,-0.57 6.77,-1.43 9.69,-2.58 z m 94.88,15.78 c -8.65,0 -15.49,-3.2 -20.55,-9.6 -5.05,-6.41 -7.57,-15.19 -7.57,-26.33 0,-10.94 2.52,-19.61 7.57,-26.02 5.06,-6.4 11.9,-9.61 20.55,-9.61 8.54,0 15.34,3.21 20.39,9.61 5.05,6.41 7.58,15.08 7.58,26.02 0,11.14 -2.53,19.92 -7.58,26.33 -5.05,6.4 -11.85,9.6 -20.39,9.6 z m 0,9.54 c 12.19,0 21.95,-4.12 29.3,-12.35 7.34,-8.23 11.01,-19.27 11.01,-33.12 0,-13.75 -3.67,-24.74 -11.01,-32.97 -7.35,-8.23 -17.11,-12.35 -29.3,-12.35 -12.29,0 -22.13,4.12 -29.53,12.35 -7.4,8.23 -11.09,19.22 -11.09,32.97 0,13.85 3.69,24.89 11.09,33.12 7.4,8.23 17.24,12.35 29.53,12.35 z m 68.83,-79.22 v -34.85 h -10.78 v 90.63 h 10.78 v -10 c 2.29,3.96 5.15,6.87 8.59,8.75 3.44,1.87 7.55,2.81 12.35,2.81 8.02,0 14.53,-3.15 19.53,-9.45 5,-6.3 7.5,-14.61 7.5,-24.92 0,-10.32 -2.5,-18.65 -7.5,-25 -5,-6.36 -11.51,-9.54 -19.53,-9.54 -4.8,0 -8.91,0.97 -12.35,2.9 -3.44,1.92 -6.3,4.81 -8.59,8.67 z m 36.72,22.97 c 0,7.91 -1.64,14.11 -4.92,18.59 -3.29,4.48 -7.74,6.72 -13.36,6.72 -5.73,0 -10.24,-2.24 -13.52,-6.72 -3.28,-4.48 -4.92,-10.68 -4.92,-18.59 0,-7.92 1.64,-14.14 4.92,-18.68 3.28,-4.53 7.79,-6.79 13.52,-6.79 5.62,0 10.07,2.26 13.36,6.79 3.28,4.54 4.92,10.76 4.92,18.68 z m 85.23,2.65 v -5.15 h -49.69 c 0.53,-7.5 2.79,-13.18 6.8,-17.04 4.01,-3.85 9.56,-5.78 16.64,-5.78 4.17,0 8.2,0.5 12.11,1.49 3.91,0.99 7.79,2.52 11.64,4.61 v -10.32 c -3.96,-1.56 -7.97,-2.78 -12.03,-3.67 -4.06,-0.88 -8.18,-1.33 -12.34,-1.33 -10.42,0 -18.7,3.05 -24.85,9.15 -6.14,6.09 -9.22,14.34 -9.22,24.76 0,10.73 2.92,19.25 8.75,25.55 5.84,6.3 13.65,9.45 23.44,9.45 8.86,0 15.86,-2.84 21.02,-8.51 5.15,-5.68 7.73,-13.42 7.73,-23.21 z m -10.78,3.28 c -0.1,5.84 -1.77,10.52 -5,14.07 -3.23,3.54 -7.5,5.31 -12.81,5.31 -6.04,0 -10.86,-1.72 -14.46,-5.16 -3.59,-3.44 -5.65,-8.23 -6.17,-14.37 z m 83.05,0.94 v -39.69 h -10.78 v 39.22 c 0,6.25 -1.23,10.91 -3.68,13.99 -2.44,3.07 -6.06,4.61 -10.86,4.61 -5.83,0 -10.44,-1.85 -13.82,-5.55 -3.39,-3.7 -5.08,-8.78 -5.08,-15.24 v -37.03 h -10.78 v 65.63 h 10.78 v -10.16 c 2.6,3.96 5.65,6.9 9.14,8.83 3.49,1.93 7.53,2.89 12.11,2.89 7.5,0 13.2,-2.32 17.11,-6.95 3.9,-4.64 5.86,-11.49 5.86,-20.55 z m 81.52,-27.19 v 23.44 h -19.37 v 9.84 h 31.09 v -37.65 c -4.58,-3.23 -9.61,-5.68 -15.08,-7.35 -5.47,-1.66 -11.33,-2.5 -17.58,-2.5 -13.75,0 -24.48,4.01 -32.18,12.04 -7.71,8.02 -11.57,19.11 -11.57,33.28 0,14.37 3.86,25.54 11.57,33.51 7.7,7.97 18.43,11.96 32.18,11.96 5.63,0 11.02,-0.71 16.18,-2.11 5.15,-1.41 9.92,-3.47 14.29,-6.18 v -12.65 c -4.37,3.75 -9.03,6.56 -13.98,8.44 -4.95,1.87 -10.13,2.81 -15.55,2.81 -10.73,0 -18.78,-3 -24.14,-8.99 -5.36,-5.99 -8.05,-14.92 -8.05,-26.79 0,-11.77 2.69,-20.65 8.05,-26.64 5.36,-5.99 13.41,-8.99 24.14,-8.99 4.17,0 7.89,0.37 11.17,1.1 3.28,0.72 6.23,1.87 8.83,3.43 z m 33.3,75 h 11.88 v -77.5 h 42.65 v -10 h -54.53 z m 64.83,3.6 h 9.37 c 5.83,-9.27 10.21,-18.31 13.13,-27.11 2.91,-8.8 4.37,-17.58 4.37,-26.33 0,-8.75 -1.46,-17.55 -4.37,-26.41 -2.92,-8.85 -7.3,-17.86 -13.13,-27.03 h -9.37 c 5.1,8.96 8.95,17.87 11.56,26.72 2.6,8.85 3.9,17.76 3.9,26.72 0,9.06 -1.3,17.99 -3.9,26.8 -2.61,8.8 -6.46,17.68 -11.56,26.64" /><path
         id="path98"
         style="fill:url(#linearGradient96);fill-opacity:1;fill-rule:nonzero;stroke:none"
         d="M 150,150 H 2550 V 850 H 150 Z" /><path
         id="path100"
         style="fill:none;stroke:#000000;stroke-width:10;stroke-linecap:butt;stroke-linejoin:miter;stroke-miterlimit:1.45000005;stroke-dasharray:none;stroke-opacity:1"
         d="M 150,150 H 2550 V 850 H 150 Z" /><path
         id="path102"
         style="fill:#000000;fill-opacity:1;fill-rule:nonzero;stroke:none"
         d="m 201.41,705.641 h 31.559 v -9.532 H 201.41 Z m 87.219,49.851 h 11.883 v -77.5 h 42.648 v -10 h -54.531 z m 66.391,-21.883 h 10.781 V 667.992 H 355.02 Z m 0,25.633 h 10.781 v -13.75 H 355.02 Z m 63.179,-58.281 c -8.64,0 -14.66,-0.992 -18.039,-2.969 -3.39,-1.98 -5.082,-5.371 -5.082,-10.164 0,-3.848 1.274,-6.898 3.832,-9.137 2.551,-2.242 5.961,-3.363 10.231,-3.363 6.039,0 10.859,2.113 14.449,6.332 3.601,4.219 5.39,9.871 5.39,16.949 v 2.352 z m 21.571,4.531 v -37.5 h -10.79 v 10 c -2.5,-3.961 -5.57,-6.902 -9.21,-8.832 -3.649,-1.93 -8.129,-2.89 -13.442,-2.89 -6.769,0 -12.137,1.902 -16.098,5.699 -3.949,3.801 -5.929,8.832 -5.929,15.082 0,7.398 2.469,12.969 7.418,16.719 4.953,3.75 12.32,5.621 22.109,5.621 h 15.152 v 1.101 c 0,5 -1.64,8.848 -4.921,11.559 -3.278,2.711 -7.84,4.058 -13.668,4.058 -3.75,0 -7.422,-0.468 -11.012,-1.398 -3.598,-0.941 -7.008,-2.289 -10.238,-4.07 v 10 c 3.961,1.57 7.789,2.711 11.48,3.437 3.699,0.731 7.32,1.102 10.859,1.102 9.481,0 16.571,-2.45 21.25,-7.352 4.692,-4.887 7.04,-12.336 7.04,-22.336 z m 22.121,28.117 h 10.789 v -65.617 h -10.789 z m 0,25.633 h 10.789 v -13.75 h -10.789 z m 75.218,-27.5 V 721.43 c -3.019,1.562 -6.168,2.73 -9.449,3.511 -3.281,0.778 -6.699,1.168 -10.238,1.168 -5.313,0 -9.32,-0.8 -12.031,-2.418 -2.711,-1.609 -4.063,-4.089 -4.063,-7.421 0,-2.5 0.961,-4.45 2.891,-5.86 1.929,-1.41 5.812,-2.73 11.64,-3.98 l 3.59,-0.938 c 7.711,-1.562 13.18,-3.863 16.41,-6.883 3.231,-3.019 4.84,-7.179 4.84,-12.5 0,-6.14 -2.418,-10.988 -7.258,-14.531 -4.851,-3.539 -11.492,-5.308 -19.921,-5.308 -3.551,0 -7.219,0.339 -11.02,1.019 -3.801,0.672 -7.789,1.691 -11.949,3.039 v 11.25 c 3.961,-2.078 7.859,-3.637 11.719,-4.687 3.851,-1.039 7.699,-1.563 11.558,-1.563 5,0 8.883,0.863 11.641,2.582 2.761,1.719 4.14,4.192 4.14,7.418 0,2.922 -0.988,5.164 -2.968,6.723 -1.981,1.558 -6.301,3.07 -12.969,4.527 l -3.75,0.781 c -6.66,1.461 -11.481,3.653 -14.453,6.571 -2.969,2.91 -4.449,6.871 -4.449,11.871 0,6.25 2.179,11.039 6.558,14.379 4.371,3.332 10.57,5 18.594,5 3.957,0 7.707,-0.289 11.25,-0.86 3.539,-0.582 6.769,-1.441 9.687,-2.578 z m 46.11,-5.633 c -5.731,0 -10.278,-2.257 -13.668,-6.789 -3.379,-4.531 -5.082,-10.711 -5.082,-18.519 0,-7.922 1.672,-14.11 5,-18.59 3.34,-4.481 7.922,-6.719 13.75,-6.719 5.73,0 10.293,2.258 13.672,6.797 3.39,4.531 5.078,10.703 5.078,18.512 0,7.711 -1.688,13.847 -5.078,18.441 -3.379,4.578 -7.942,6.867 -13.672,6.867 z m 0,9.071 c 9.383,0 16.75,-3.051 22.113,-9.141 5.367,-6.098 8.047,-14.508 8.047,-25.238 0,-10.731 -2.68,-19.172 -8.047,-25.309 -5.363,-6.152 -12.73,-9.222 -22.113,-9.222 -9.367,0 -16.739,3.07 -22.11,9.222 -5.359,6.137 -8.039,14.578 -8.039,25.309 0,10.73 2.68,19.14 8.039,25.238 5.371,6.09 12.743,9.141 22.11,9.141 z m 102.64,-27.5 v -39.688 h -10.781 v 39.219 c 0,6.25 -1.226,10.91 -3.668,13.98 -2.449,3.071 -6.07,4.61 -10.859,4.61 -5.84,0 -10.449,-1.852 -13.832,-5.551 -3.391,-3.691 -5.078,-8.77 -5.078,-15.23 v -37.028 h -10.782 v 65.617 h 10.782 v -10.148 c 2.597,3.961 5.648,6.898 9.14,8.828 3.489,1.922 7.528,2.891 12.11,2.891 7.5,0 13.199,-2.321 17.109,-6.961 3.91,-4.629 5.859,-11.477 5.859,-20.539 z m 102.789,15.929 v 35.633 h 10.782 v -91.25 h -10.782 v 9.836 c -2.289,-3.848 -5.148,-6.738 -8.589,-8.668 -3.438,-1.93 -7.61,-2.89 -12.5,-2.89 -7.918,0 -14.379,3.179 -19.379,9.531 -5,6.347 -7.5,14.691 -7.5,25 0,10.308 2.5,18.621 7.5,24.918 5,6.301 11.461,9.461 19.379,9.461 4.89,0 9.062,-0.938 12.5,-2.821 3.441,-1.867 6.3,-4.789 8.589,-8.75 z M 751.93,700.801 c 0,-7.922 1.621,-14.141 4.851,-18.672 3.231,-4.527 7.707,-6.801 13.43,-6.801 5.73,0 10.238,2.274 13.519,6.801 3.282,4.531 4.918,10.75 4.918,18.672 0,7.918 -1.636,14.121 -4.918,18.59 -3.281,4.48 -7.789,6.718 -13.519,6.718 -5.723,0 -10.199,-2.238 -13.43,-6.718 -3.23,-4.469 -4.851,-10.672 -4.851,-18.59 z m 125.859,2.66 v -5.16 h -49.68 c 0.52,-7.5 2.782,-13.18 6.789,-17.031 4.012,-3.848 9.563,-5.778 16.641,-5.778 4.172,0 8.211,0.488 12.109,1.477 3.911,0.992 7.793,2.531 11.641,4.609 V 671.27 c -3.961,-1.559 -7.969,-2.79 -12.027,-3.668 -4.063,-0.891 -8.184,-1.332 -12.34,-1.332 -10.422,0 -18.703,3.05 -24.852,9.14 -6.14,6.09 -9.211,14.352 -9.211,24.77 0,10.718 2.911,19.242 8.75,25.539 5.832,6.301 13.641,9.461 23.43,9.461 8.859,0 15.859,-2.84 21.02,-8.52 5.152,-5.68 7.73,-13.41 7.73,-23.199 z m -10.777,3.281 c -0.102,5.828 -1.774,10.52 -5,14.059 -3.231,3.539 -7.5,5.308 -12.813,5.308 -6.039,0 -10.859,-1.718 -14.449,-5.148 -3.602,-3.441 -5.648,-8.231 -6.18,-14.383 z m 70.238,25 V 721.43 c -3.02,1.562 -6.18,2.73 -9.461,3.511 -3.277,0.778 -6.687,1.168 -10.23,1.168 -5.309,0 -9.321,-0.8 -12.028,-2.418 -2.711,-1.609 -4.07,-4.089 -4.07,-7.421 0,-2.5 0.969,-4.45 2.898,-5.86 1.922,-1.41 5.801,-2.73 11.641,-3.98 l 3.59,-0.938 c 7.711,-1.562 13.18,-3.863 16.41,-6.883 3.23,-3.019 4.84,-7.179 4.84,-12.5 0,-6.14 -2.418,-10.988 -7.27,-14.531 -4.84,-3.539 -11.48,-5.308 -19.922,-5.308 -3.539,0 -7.207,0.339 -11.007,1.019 -3.813,0.672 -7.789,1.691 -11.961,3.039 v 11.25 c 3.961,-2.078 7.871,-3.637 11.718,-4.687 3.864,-1.039 7.711,-1.563 11.563,-1.563 5,0 8.891,0.863 11.648,2.582 2.762,1.719 4.141,4.192 4.141,7.418 0,2.922 -0.988,5.164 -2.969,6.723 -1.98,1.558 -6.301,3.07 -12.972,4.527 l -3.75,0.781 c -6.668,1.461 -11.489,3.653 -14.45,6.571 -2.968,2.91 -4.461,6.871 -4.461,11.871 0,6.25 2.192,11.039 6.563,14.379 4.379,3.332 10.578,5 18.598,5 3.961,0 7.711,-0.289 11.25,-0.86 3.543,-0.582 6.769,-1.441 9.691,-2.578 z m 105.97,-30.941 c 0,7.918 -1.64,14.121 -4.92,18.59 -3.28,4.48 -7.73,6.718 -13.36,6.718 -5.73,0 -10.23,-2.238 -13.51,-6.718 -3.29,-4.469 -4.93,-10.672 -4.93,-18.59 0,-7.922 1.64,-14.141 4.93,-18.672 3.28,-4.527 7.78,-6.801 13.51,-6.801 5.63,0 10.08,2.274 13.36,6.801 3.28,4.531 4.92,10.75 4.92,18.672 z m -36.72,22.808 c 2.3,3.961 5.16,6.883 8.6,8.75 3.44,1.883 7.55,2.821 12.34,2.821 8.02,0 14.53,-3.16 19.53,-9.461 5,-6.297 7.5,-14.61 7.5,-24.918 0,-10.309 -2.5,-18.653 -7.5,-25 -5,-6.352 -11.51,-9.531 -19.53,-9.531 -4.79,0 -8.9,0.96 -12.34,2.89 -3.44,1.93 -6.3,4.82 -8.6,8.668 v -9.836 h -10.781 v 91.25 h 10.781 z m 64.61,-29.679 v 39.679 h 10.78 v -39.367 c 0,-6.152 1.23,-10.781 3.68,-13.914 2.44,-3.117 6.06,-4.687 10.86,-4.687 5.83,0 10.44,1.847 13.82,5.55 3.39,3.7 5.08,8.778 5.08,15.239 v 37.179 h 10.78 v -65.617 h -10.78 v 10.149 c -2.6,-4.063 -5.62,-7.051 -9.06,-8.981 -3.44,-1.93 -7.45,-2.89 -12.03,-2.89 -7.61,0 -13.36,2.339 -17.27,7.031 -3.9,4.691 -5.86,11.558 -5.86,20.629 z m 110.43,65.312 v -9.062 h -10.31 c -3.85,0 -6.54,-0.789 -8.05,-2.352 -1.51,-1.558 -2.26,-4.367 -2.26,-8.437 v -5.782 h 17.81 v -8.429 h -17.81 v -57.188 h -10.78 v 57.188 h -10.32 v 8.429 h 10.32 v 4.532 c 0,7.3 1.69,12.629 5.07,16.019 3.39,3.391 8.78,5.082 16.18,5.082 z m 42.25,0 v -9.062 h -10.31 c -3.86,0 -6.54,-0.789 -8.05,-2.352 -1.51,-1.558 -2.27,-4.367 -2.27,-8.437 v -5.782 h 17.82 v -8.429 h -17.82 v -57.188 h -10.78 v 57.188 h -10.31 v 8.429 h 10.31 v 4.532 c 0,7.3 1.7,12.629 5.08,16.019 3.39,3.391 8.78,5.082 16.17,5.082 z M 1289,703.461 v -5.16 h -49.68 c 0.52,-7.5 2.78,-13.18 6.79,-17.031 4.01,-3.848 9.56,-5.778 16.64,-5.778 4.17,0 8.21,0.488 12.11,1.477 3.91,0.992 7.79,2.531 11.64,4.609 V 671.27 c -3.95,-1.559 -7.96,-2.79 -12.03,-3.668 -4.06,-0.891 -8.17,-1.332 -12.34,-1.332 -10.42,0 -18.7,3.05 -24.84,9.14 -6.15,6.09 -9.22,14.352 -9.22,24.77 0,10.718 2.91,19.242 8.75,25.539 5.83,6.301 13.64,9.461 23.43,9.461 8.86,0 15.86,-2.84 21.02,-8.52 5.16,-5.68 7.73,-13.41 7.73,-23.199 z m -10.78,3.281 c -0.1,5.828 -1.77,10.52 -5,14.059 -3.23,3.539 -7.5,5.308 -12.81,5.308 -6.04,0 -10.86,-1.718 -14.45,-5.148 -3.6,-3.441 -5.65,-8.231 -6.17,-14.383 z m 66.49,16.867 c -1.25,0.633 -2.58,1.121 -3.99,1.493 -1.4,0.359 -2.99,0.539 -4.76,0.539 -6.04,0 -10.71,-1.969 -13.99,-5.93 -3.28,-3.961 -4.92,-9.691 -4.92,-17.191 v -34.528 h -10.78 v 65.617 h 10.78 v -10.148 c 2.29,3.961 5.26,6.898 8.91,8.828 3.64,1.922 8.07,2.891 13.28,2.891 0.73,0 1.53,-0.059 2.42,-0.16 0.89,-0.098 1.85,-0.258 2.89,-0.469 z m 53.08,8.133 V 721.43 c -3.02,1.562 -6.17,2.73 -9.45,3.511 -3.28,0.778 -6.69,1.168 -10.23,1.168 -5.32,0 -9.33,-0.8 -12.04,-2.418 -2.7,-1.609 -4.06,-4.089 -4.06,-7.421 0,-2.5 0.97,-4.45 2.89,-5.86 1.93,-1.41 5.81,-2.73 11.64,-3.98 l 3.6,-0.938 c 7.71,-1.562 13.17,-3.863 16.4,-6.883 3.23,-3.019 4.85,-7.179 4.85,-12.5 0,-6.14 -2.43,-10.988 -7.27,-14.531 -4.84,-3.539 -11.48,-5.308 -19.92,-5.308 -3.54,0 -7.21,0.339 -11.02,1.019 -3.8,0.672 -7.78,1.691 -11.95,3.039 v 11.25 c 3.96,-2.078 7.87,-3.637 11.72,-4.687 3.85,-1.039 7.71,-1.563 11.56,-1.563 5,0 8.88,0.863 11.64,2.582 2.76,1.719 4.14,4.192 4.14,7.418 0,2.922 -0.99,5.164 -2.97,6.723 -1.97,1.558 -6.3,3.07 -12.96,4.527 l -3.75,0.781 c -6.67,1.461 -11.49,3.653 -14.46,6.571 -2.97,2.91 -4.45,6.871 -4.45,11.871 0,6.25 2.19,11.039 6.56,14.379 4.38,3.332 10.57,5 18.6,5 3.95,0 7.7,-0.289 11.25,-0.86 3.54,-0.582 6.77,-1.441 9.68,-2.578" /><path
         id="path104"
         style="fill:#000000;fill-opacity:1;fill-rule:nonzero;stroke:none"
         d="m 201.41,565.961 h 31.559 V 556.43 H 201.41 Z m 87.219,49.84 h 11.883 v -77.5 h 42.648 v -10 H 288.629 Z M 355.02,593.93 h 10.781 V 528.301 H 355.02 Z m 0,25.621 h 10.781 v -13.75 H 355.02 Z m 63.179,-58.281 c -8.64,0 -14.66,-0.989 -18.039,-2.969 -3.39,-1.981 -5.082,-5.36 -5.082,-10.16 0,-3.852 1.274,-6.903 3.832,-9.141 2.551,-2.238 5.961,-3.359 10.231,-3.359 6.039,0 10.859,2.109 14.449,6.328 3.601,4.222 5.39,9.871 5.39,16.961 v 2.34 z m 21.571,4.531 v -37.5 h -10.79 v 10 c -2.5,-3.961 -5.57,-6.903 -9.21,-8.832 -3.649,-1.918 -8.129,-2.891 -13.442,-2.891 -6.769,0 -12.137,1.902 -16.098,5.711 -3.949,3.801 -5.929,8.82 -5.929,15.07 0,7.403 2.469,12.969 7.418,16.719 4.953,3.75 12.32,5.633 22.109,5.633 h 15.152 v 1.09 c 0,5 -1.64,8.847 -4.921,11.558 -3.278,2.711 -7.84,4.071 -13.668,4.071 -3.75,0 -7.422,-0.469 -11.012,-1.41 -3.598,-0.942 -7.008,-2.29 -10.238,-4.059 v 10 c 3.961,1.559 7.789,2.711 11.48,3.43 3.699,0.73 7.32,1.101 10.859,1.101 9.481,0 16.571,-2.453 21.25,-7.351 4.692,-4.891 7.04,-12.34 7.04,-22.34 z m 22.121,28.129 h 10.789 v -65.629 h -10.789 z m 0,25.621 h 10.789 v -13.75 h -10.789 z m 75.218,-27.5 v -10.309 c -3.019,1.559 -6.168,2.727 -9.449,3.508 -3.281,0.789 -6.699,1.18 -10.238,1.18 -5.313,0 -9.32,-0.809 -12.031,-2.43 -2.711,-1.609 -4.063,-4.078 -4.063,-7.422 0,-2.5 0.961,-4.449 2.891,-5.859 1.929,-1.399 5.812,-2.727 11.64,-3.977 l 3.59,-0.941 c 7.711,-1.559 13.18,-3.852 16.41,-6.871 3.231,-3.032 4.84,-7.188 4.84,-12.5 0,-6.149 -2.418,-10.989 -7.258,-14.539 -4.851,-3.539 -11.492,-5.313 -19.921,-5.313 -3.551,0 -7.219,0.344 -11.02,1.024 -3.801,0.668 -7.789,1.687 -11.949,3.039 v 11.25 c 3.961,-2.082 7.859,-3.641 11.719,-4.68 3.851,-1.039 7.699,-1.57 11.558,-1.57 5,0 8.883,0.859 11.641,2.578 2.761,1.722 4.14,4.203 4.14,7.422 0,2.918 -0.988,5.16 -2.968,6.718 -1.981,1.571 -6.301,3.082 -12.969,4.532 l -3.75,0.789 c -6.66,1.449 -11.481,3.64 -14.453,6.562 -2.969,2.906 -4.449,6.867 -4.449,11.867 0,6.25 2.179,11.039 6.558,14.383 4.371,3.328 10.57,5 18.594,5 3.957,0 7.707,-0.293 11.25,-0.863 3.539,-0.57 6.769,-1.43 9.687,-2.578 z m 46.11,-5.621 c -5.731,0 -10.278,-2.27 -13.668,-6.801 -3.379,-4.527 -5.082,-10.699 -5.082,-18.52 0,-7.91 1.672,-14.109 5,-18.589 3.34,-4.481 7.922,-6.719 13.75,-6.719 5.73,0 10.293,2.269 13.672,6.801 3.39,4.527 5.078,10.699 5.078,18.507 0,7.711 -1.688,13.86 -5.078,18.442 -3.379,4.578 -7.942,6.879 -13.672,6.879 z m 0,9.062 c 9.383,0 16.75,-3.051 22.113,-9.14 5.367,-6.102 8.047,-14.512 8.047,-25.243 0,-10.73 -2.68,-19.16 -8.047,-25.308 -5.363,-6.153 -12.73,-9.223 -22.113,-9.223 -9.367,0 -16.739,3.07 -22.11,9.223 -5.359,6.148 -8.039,14.578 -8.039,25.308 0,10.731 2.68,19.141 8.039,25.243 5.371,6.089 12.743,9.14 22.11,9.14 z m 102.64,-27.5 v -39.691 h -10.781 v 39.219 c 0,6.25 -1.226,10.91 -3.668,13.98 -2.449,3.082 -6.07,4.609 -10.859,4.609 -5.84,0 -10.449,-1.847 -13.832,-5.539 -3.391,-3.699 -5.078,-8.781 -5.078,-15.242 v -37.027 h -10.782 v 65.629 h 10.782 v -10.16 c 2.597,3.96 5.648,6.902 9.14,8.832 3.489,1.918 7.528,2.89 12.11,2.89 7.5,0 13.199,-2.32 17.109,-6.953 3.91,-4.641 5.859,-11.488 5.859,-20.547 z m 102.789,15.938 v 35.621 h 10.782 v -91.25 h -10.782 v 9.84 c -2.289,-3.852 -5.148,-6.743 -8.589,-8.672 -3.438,-1.918 -7.61,-2.891 -12.5,-2.891 -7.918,0 -14.379,3.184 -19.379,9.531 -5,6.36 -7.5,14.692 -7.5,25 0,10.321 2.5,18.621 7.5,24.93 5,6.301 11.461,9.453 19.379,9.453 4.89,0 9.062,-0.941 12.5,-2.812 3.441,-1.879 6.3,-4.801 8.589,-8.75 z M 751.93,561.109 c 0,-7.91 1.621,-14.14 4.851,-18.668 3.231,-4.531 7.707,-6.8 13.43,-6.8 5.73,0 10.238,2.269 13.519,6.8 3.282,4.528 4.918,10.758 4.918,18.668 0,7.922 -1.636,14.121 -4.918,18.602 -3.281,4.48 -7.789,6.719 -13.519,6.719 -5.723,0 -10.199,-2.239 -13.43,-6.719 -3.23,-4.481 -4.851,-10.68 -4.851,-18.602 z m 125.859,2.661 v -5.161 h -49.68 c 0.52,-7.5 2.782,-13.168 6.789,-17.031 4.012,-3.848 9.563,-5.777 16.641,-5.777 4.172,0 8.211,0.5 12.109,1.488 3.911,0.981 7.793,2.52 11.641,4.602 v -10.313 c -3.961,-1.558 -7.969,-2.777 -12.027,-3.668 -4.063,-0.89 -8.184,-1.332 -12.34,-1.332 -10.422,0 -18.703,3.051 -24.852,9.141 -6.14,6.101 -9.211,14.351 -9.211,24.773 0,10.727 2.911,19.238 8.75,25.547 5.832,6.301 13.641,9.453 23.43,9.453 8.859,0 15.859,-2.844 21.02,-8.523 5.152,-5.668 7.73,-13.41 7.73,-23.199 z m -10.777,3.281 c -0.102,5.828 -1.774,10.519 -5,14.058 -3.231,3.539 -7.5,5.321 -12.813,5.321 -6.039,0 -10.859,-1.719 -14.449,-5.16 -3.602,-3.442 -5.648,-8.231 -6.18,-14.379 z m 66.508,52.5 h 10.781 v -91.25 H 933.52 Z m 63.179,-58.281 c -8.648,0 -14.66,-0.989 -18.051,-2.969 -3.378,-1.981 -5.078,-5.36 -5.078,-10.16 0,-3.852 1.282,-6.903 3.828,-9.141 2.551,-2.238 5.973,-3.359 10.243,-3.359 6.039,0 10.859,2.109 14.449,6.328 3.59,4.222 5.39,9.871 5.39,16.961 v 2.34 z m 21.561,4.531 v -37.5 h -10.78 v 10 c -2.5,-3.961 -5.57,-6.903 -9.218,-8.832 -3.641,-1.918 -8.121,-2.891 -13.442,-2.891 -6.769,0 -12.129,1.902 -16.09,5.711 -3.96,3.801 -5.941,8.82 -5.941,15.07 0,7.403 2.481,12.969 7.422,16.719 4.949,3.75 12.32,5.633 22.109,5.633 h 15.16 v 1.09 c 0,5 -1.64,8.847 -4.92,11.558 -3.279,2.711 -7.841,4.071 -13.669,4.071 -3.75,0 -7.43,-0.469 -11.02,-1.41 -3.59,-0.942 -7,-2.29 -10.23,-4.059 v 10 c 3.961,1.559 7.781,2.711 11.48,3.43 3.699,0.73 7.32,1.101 10.859,1.101 9.481,0 16.56,-2.453 21.25,-7.351 4.69,-4.891 7.03,-12.34 7.03,-22.34 z m 71.06,46.719 v -18.59 h 22.18 v -8.438 h -22.18 v -35.633 c 0,-5.308 0.73,-8.718 2.18,-10.23 1.46,-1.508 4.43,-2.27 8.91,-2.27 h 11.09 v -9.058 h -11.09 c -8.33,0 -14.09,1.558 -17.27,4.691 -3.17,3.117 -4.76,8.75 -4.76,16.867 v 35.633 h -7.81 v 8.438 h 7.81 v 18.59 z m 92.52,-48.75 v -5.161 h -49.69 c 0.52,-7.5 2.78,-13.168 6.8,-17.031 4.01,-3.848 9.55,-5.777 16.64,-5.777 4.16,0 8.2,0.5 12.11,1.488 3.9,0.981 7.78,2.52 11.64,4.602 v -10.313 c -3.96,-1.558 -7.97,-2.777 -12.04,-3.668 -4.06,-0.89 -8.17,-1.332 -12.34,-1.332 -10.42,0 -18.7,3.051 -24.84,9.141 -6.15,6.101 -9.22,14.351 -9.22,24.773 0,10.727 2.92,19.238 8.75,25.547 5.83,6.301 13.64,9.453 23.44,9.453 8.85,0 15.86,-2.844 21.01,-8.523 5.16,-5.668 7.74,-13.41 7.74,-23.199 z m -10.79,3.281 c -0.1,5.828 -1.77,10.519 -5,14.058 -3.22,3.539 -7.5,5.321 -12.81,5.321 -6.04,0 -10.86,-1.719 -14.45,-5.16 -3.59,-3.442 -5.65,-8.231 -6.17,-14.379 z m 83.05,26.879 -23.75,-31.879 24.85,-33.75 h -12.66 l -19.06,25.777 -19.07,-25.777 h -12.81 l 25.47,34.379 -23.28,31.25 h 12.66 l 17.5,-23.438 17.34,23.438 z m 27.11,18.59 v -18.59 h 22.19 v -8.438 h -22.19 v -35.633 c 0,-5.308 0.73,-8.718 2.19,-10.23 1.46,-1.508 4.43,-2.27 8.9,-2.27 h 11.1 v -9.058 h -11.1 c -8.33,0 -14.08,1.558 -17.26,4.691 -3.18,3.117 -4.77,8.75 -4.77,16.867 v 35.633 h -7.81 v 8.438 h 7.81 v 18.59 z m 35.18,-58.278 v 39.688 h 10.78 v -39.379 c 0,-6.153 1.22,-10.781 3.67,-13.91 2.45,-3.121 6.07,-4.68 10.86,-4.68 5.83,0 10.44,1.848 13.83,5.539 3.38,3.699 5.08,8.781 5.08,15.242 v 37.188 h 10.78 v -65.629 h -10.78 v 10.16 c -2.61,-4.07 -5.63,-7.063 -9.07,-8.992 -3.43,-1.918 -7.44,-2.891 -12.03,-2.891 -7.6,0 -13.36,2.352 -17.26,7.031 -3.91,4.692 -5.86,11.571 -5.86,20.633 z m 115.27,29.688 c -1.25,0.621 -2.58,1.121 -3.98,1.48 -1.41,0.36 -3,0.551 -4.77,0.551 -6.04,0 -10.7,-1.981 -13.98,-5.941 -3.29,-3.961 -4.93,-9.692 -4.93,-17.192 v -34.527 h -10.78 V 593.93 H 1404 v -10.16 c 2.3,3.96 5.26,6.902 8.91,8.832 3.65,1.918 8.07,2.89 13.28,2.89 0.73,0 1.54,-0.051 2.42,-0.164 0.89,-0.098 1.85,-0.258 2.89,-0.469 z m 67.46,-20.16 v -5.161 h -49.69 c 0.52,-7.5 2.79,-13.168 6.8,-17.031 4.01,-3.848 9.56,-5.777 16.64,-5.777 4.17,0 8.2,0.5 12.11,1.488 3.91,0.981 7.79,2.52 11.64,4.602 v -10.313 c -3.96,-1.558 -7.97,-2.777 -12.03,-3.668 -4.06,-0.89 -8.18,-1.332 -12.34,-1.332 -10.42,0 -18.7,3.051 -24.85,9.141 -6.14,6.101 -9.22,14.351 -9.22,24.773 0,10.727 2.92,19.238 8.75,25.547 5.84,6.301 13.65,9.453 23.44,9.453 8.86,0 15.86,-2.844 21.02,-8.523 5.15,-5.668 7.73,-13.41 7.73,-23.199 z m -10.78,3.281 c -0.1,5.828 -1.77,10.519 -5,14.058 -3.23,3.539 -7.5,5.321 -12.81,5.321 -6.04,0 -10.86,-1.719 -14.46,-5.16 -3.59,-3.442 -5.65,-8.231 -6.17,-14.379 l 38.44,0.16" /><path
         id="path106"
         style="fill:#000000;fill-opacity:1;fill-rule:nonzero;stroke:none"
         d="m 201.41,426.27 h 31.559 v -9.528 H 201.41 Z m 116.602,38.121 -16.102,-43.43 h 32.192 z m -6.723,11.718 h 13.441 l 33.282,-87.5 H 345.66 l -7.961,22.5 H 298.32 l -7.968,-22.5 h -12.5 z m 92.25,3.75 v -9.058 h -10.32 c -3.848,0 -6.528,-0.781 -8.039,-2.34 -1.508,-1.57 -2.27,-4.383 -2.27,-8.441 v -5.778 h 17.809 v -8.441 H 382.91 v -57.192 h -10.781 v 57.192 H 361.82 v 8.441 h 10.309 v 4.528 c 0,7.289 1.691,12.628 5.082,16.019 3.379,3.383 8.769,5.07 16.168,5.07 z m 42.242,0 v -9.058 h -10.312 c -3.86,0 -6.539,-0.781 -8.047,-2.34 -1.512,-1.57 -2.262,-4.383 -2.262,-8.441 v -5.778 h 17.809 v -8.441 H 425.16 v -57.192 h -10.781 v 57.192 h -10.32 v 8.441 h 10.32 v 4.528 c 0,7.289 1.691,12.628 5.07,16.019 3.391,3.383 8.781,5.07 16.172,5.07 z m 8.969,-25.617 h 10.781 V 388.609 H 454.75 Z m 0,25.617 h 10.781 v -13.75 H 454.75 Z m 80.68,-28.117 v -10.164 c -3.129,1.774 -6.2,3.07 -9.219,3.914 -3.02,0.828 -6.09,1.25 -9.223,1.25 -7.078,0 -12.547,-2.222 -16.398,-6.64 -3.86,-4.43 -5.789,-10.653 -5.789,-18.672 0,-8.032 1.929,-14.25 5.789,-18.68 3.851,-4.418 9.32,-6.641 16.398,-6.641 3.133,0 6.203,0.422 9.223,1.25 3.019,0.84 6.09,2.09 9.219,3.75 v -10 c -3.02,-1.347 -6.149,-2.39 -9.379,-3.117 -3.219,-0.73 -6.66,-1.101 -10.313,-1.101 -9.886,0 -17.758,3.097 -23.59,9.3 -5.828,6.2 -8.75,14.61 -8.75,25.239 0,10.621 2.942,19.011 8.832,25.148 5.879,6.152 13.981,9.223 24.29,9.223 3.23,0 6.441,-0.34 9.609,-1.012 3.18,-0.68 6.281,-1.699 9.301,-3.047 z m 73.32,-23.441 v -39.692 h -10.781 v 39.219 c 0,6.25 -1.231,10.91 -3.668,13.992 -2.449,3.071 -6.071,4.61 -10.86,4.61 -5.839,0 -10.453,-1.848 -13.832,-5.551 -3.39,-3.699 -5.078,-8.777 -5.078,-15.238 V 388.609 H 553.75 v 91.25 h 10.781 v -35.781 c 2.61,3.961 5.649,6.902 9.141,8.832 3.488,1.93 7.527,2.891 12.109,2.891 7.5,0 13.199,-2.321 17.11,-6.949 3.91,-4.641 5.859,-11.493 5.859,-20.551 z m 51.211,-6.723 c -8.641,0 -14.66,-0.988 -18.051,-2.969 -3.379,-1.98 -5.07,-5.359 -5.07,-10.148 0,-3.859 1.269,-6.902 3.82,-9.141 2.559,-2.238 5.969,-3.359 10.238,-3.359 6.043,0 10.864,2.109 14.454,6.328 3.597,4.211 5.386,9.859 5.386,16.953 v 2.336 z m 21.559,4.531 v -37.5 h -10.782 v 10 c -2.5,-3.961 -5.566,-6.898 -9.218,-8.82 -3.641,-1.93 -8.122,-2.898 -13.43,-2.898 -6.77,0 -12.141,1.91 -16.102,5.711 -3.957,3.796 -5.937,8.828 -5.937,15.078 0,7.39 2.48,12.961 7.429,16.711 4.942,3.75 12.309,5.629 22.11,5.629 h 15.148 v 1.089 c 0,5 -1.636,8.86 -4.918,11.571 -3.281,2.699 -7.84,4.062 -13.672,4.062 -3.75,0 -7.418,-0.472 -11.019,-1.414 -3.59,-0.937 -7,-2.289 -10.231,-4.058 v 10 c 3.961,1.558 7.782,2.71 11.481,3.441 3.703,0.73 7.32,1.09 10.859,1.09 9.481,0 16.563,-2.449 21.25,-7.34 4.692,-4.902 7.032,-12.352 7.032,-22.352 z m 65.41,-3.898 c 0,7.809 -1.61,13.848 -4.84,18.117 -3.231,4.274 -7.762,6.414 -13.59,6.414 -5.73,0 -10.211,-2.14 -13.441,-6.414 -3.231,-4.269 -4.848,-10.308 -4.848,-18.117 0,-7.82 1.617,-13.859 4.848,-18.133 3.23,-4.269 7.711,-6.398 13.441,-6.398 5.828,0 10.359,2.129 13.59,6.398 3.23,4.274 4.84,10.313 4.84,18.133 z m 10.781,-25.469 c 0,-11.152 -2.473,-19.453 -7.422,-24.922 -4.937,-5.468 -12.578,-8.211 -22.891,-8.211 -3.75,0 -7.32,0.289 -10.699,0.86 -3.39,0.582 -6.64,1.429 -9.769,2.582 v 10.469 c 3.129,-1.668 6.25,-2.918 9.379,-3.75 3.121,-0.829 6.25,-1.25 9.371,-1.25 7.09,0 12.398,1.851 15.941,5.55 3.539,3.692 5.309,9.289 5.309,16.789 v 5.321 c -2.289,-3.86 -5.149,-6.75 -8.59,-8.68 -3.442,-1.918 -7.602,-2.891 -12.5,-2.891 -8.02,0 -14.512,3.082 -19.449,9.219 -4.95,6.152 -7.43,14.274 -7.43,24.383 0,10.098 2.48,18.23 7.43,24.367 4.937,6.152 11.429,9.223 19.449,9.223 4.898,0 9.058,-0.961 12.5,-2.891 3.441,-1.93 6.301,-4.82 8.59,-8.668 v 10 h 10.781 z m 78.359,27.336 v -5.148 h -49.679 c 0.519,-7.5 2.781,-13.18 6.789,-17.039 4.011,-3.852 9.558,-5.782 16.64,-5.782 4.168,0 8.211,0.5 12.11,1.493 3.91,0.988 7.789,2.519 11.64,4.609 v -10.32 c -3.949,-1.563 -7.961,-2.782 -12.031,-3.672 -4.059,-0.879 -8.168,-1.328 -12.34,-1.328 -10.418,0 -18.699,3.05 -24.84,9.148 -6.148,6.09 -9.218,14.34 -9.218,24.762 0,10.73 2.91,19.25 8.75,25.551 5.828,6.296 13.64,9.449 23.429,9.449 8.86,0 15.86,-2.84 21.02,-8.512 5.16,-5.68 7.73,-13.418 7.73,-23.211 z m -10.781,3.281 c -0.098,5.84 -1.769,10.52 -5,14.071 -3.23,3.539 -7.5,5.312 -12.809,5.312 -6.039,0 -10.859,-1.722 -14.449,-5.164 -3.601,-3.437 -5.652,-8.226 -6.172,-14.367 z m 109.789,16.883 v 35.617 h 10.781 v -91.25 h -10.781 v 9.852 c -2.289,-3.859 -5.156,-6.75 -8.598,-8.672 -3.429,-1.93 -7.601,-2.898 -12.5,-2.898 -7.91,0 -14.371,3.179 -19.371,9.539 -5,6.351 -7.5,14.679 -7.5,25 0,10.312 2.5,18.621 7.5,24.922 5,6.296 11.461,9.449 19.371,9.449 4.899,0 9.071,-0.942 12.5,-2.809 3.442,-1.883 6.309,-4.793 8.598,-8.75 z M 898.359,421.43 c 0,-7.918 1.61,-14.141 4.84,-18.68 3.231,-4.531 7.711,-6.789 13.442,-6.789 5.73,0 10.238,2.258 13.519,6.789 3.281,4.539 4.918,10.762 4.918,18.68 0,7.91 -1.637,14.109 -4.918,18.59 -3.281,4.48 -7.789,6.722 -13.519,6.722 -5.731,0 -10.211,-2.242 -13.442,-6.722 -3.23,-4.481 -4.84,-10.68 -4.84,-18.59 z m 125.861,2.648 v -5.148 h -49.689 c 0.52,-7.5 2.789,-13.18 6.797,-17.039 4.012,-3.852 9.563,-5.782 16.641,-5.782 4.171,0 8.201,0.5 12.111,1.493 3.9,0.988 7.78,2.519 11.64,4.609 v -10.32 c -3.96,-1.563 -7.97,-2.782 -12.03,-3.672 -4.07,-0.879 -8.18,-1.328 -12.35,-1.328 -10.41,0 -18.692,3.05 -24.84,9.148 -6.148,6.09 -9.219,14.34 -9.219,24.762 0,10.73 2.918,19.25 8.75,25.551 5.828,6.296 13.649,9.449 23.438,9.449 8.851,0 15.861,-2.84 21.011,-8.512 5.16,-5.68 7.74,-13.418 7.74,-23.211 z m -10.78,3.281 c -0.11,5.84 -1.77,10.52 -5,14.071 -3.23,3.539 -7.5,5.312 -12.819,5.312 -6.043,0 -10.851,-1.722 -14.449,-5.164 -3.594,-3.437 -5.652,-8.226 -6.172,-14.367 z m 66.5,52.5 h 10.78 v -91.25 h -10.78 z m 63.18,-58.281 c -8.64,0 -14.66,-0.988 -18.04,-2.969 -3.39,-1.98 -5.08,-5.359 -5.08,-10.148 0,-3.859 1.28,-6.902 3.83,-9.141 2.55,-2.238 5.96,-3.359 10.23,-3.359 6.04,0 10.86,2.109 14.46,6.328 3.59,4.211 5.39,9.859 5.39,16.953 v 2.336 z m 21.57,4.531 v -37.5 h -10.78 v 10 c -2.5,-3.961 -5.58,-6.898 -9.22,-8.82 -3.65,-1.93 -8.13,-2.898 -13.44,-2.898 -6.77,0 -12.14,1.91 -16.09,5.711 -3.96,3.796 -5.94,8.828 -5.94,15.078 0,7.39 2.47,12.961 7.42,16.711 4.95,3.75 12.32,5.629 22.11,5.629 h 15.16 v 1.089 c 0,5 -1.64,8.86 -4.93,11.571 -3.28,2.699 -7.83,4.062 -13.67,4.062 -3.75,0 -7.42,-0.472 -11.01,-1.414 -3.6,-0.937 -7.01,-2.289 -10.24,-4.058 v 10 c 3.96,1.558 7.79,2.71 11.49,3.441 3.69,0.73 7.31,1.09 10.86,1.09 9.48,0 16.56,-2.449 21.25,-7.34 4.68,-4.902 7.03,-12.352 7.03,-22.352 z m 71.05,46.719 v -18.586 h 22.19 v -8.441 h -22.19 V 410.18 c 0,-5.321 0.73,-8.731 2.19,-10.239 1.46,-1.511 4.43,-2.261 8.91,-2.261 h 11.09 v -9.071 h -11.09 c -8.34,0 -14.09,1.571 -17.27,4.692 -3.18,3.129 -4.77,8.75 -4.77,16.879 v 35.621 h -7.81 v 8.441 h 7.81 v 18.586 z m 92.52,-48.75 v -5.148 h -49.69 c 0.53,-7.5 2.79,-13.18 6.8,-17.039 4.01,-3.852 9.56,-5.782 16.64,-5.782 4.17,0 8.2,0.5 12.11,1.493 3.91,0.988 7.79,2.519 11.64,4.609 v -10.32 c -3.96,-1.563 -7.97,-2.782 -12.03,-3.672 -4.06,-0.879 -8.18,-1.328 -12.34,-1.328 -10.42,0 -18.7,3.05 -24.85,9.148 -6.14,6.09 -9.22,14.34 -9.22,24.762 0,10.73 2.92,19.25 8.75,25.551 5.84,6.296 13.65,9.449 23.44,9.449 8.86,0 15.86,-2.84 21.02,-8.512 5.15,-5.68 7.73,-13.418 7.73,-23.211 z m -10.78,3.281 c -0.1,5.84 -1.77,10.52 -5,14.071 -3.23,3.539 -7.5,5.312 -12.81,5.312 -6.04,0 -10.86,-1.722 -14.46,-5.164 -3.59,-3.437 -5.65,-8.226 -6.17,-14.367 z m 83.05,26.883 -23.75,-31.883 24.84,-33.75 h -12.66 l -19.06,25.782 -19.06,-25.782 h -12.81 l 25.47,34.383 -23.29,31.25 h 12.66 l 17.5,-23.441 17.34,23.441 z m 27.11,18.586 v -18.586 h 22.18 v -8.441 h -22.18 V 410.18 c 0,-5.321 0.73,-8.731 2.18,-10.239 1.46,-1.511 4.43,-2.261 8.91,-2.261 h 11.09 v -9.071 h -11.09 c -8.33,0 -14.09,1.571 -17.27,4.692 -3.17,3.129 -4.76,8.75 -4.76,16.879 v 35.621 h -7.81 v 8.441 h 7.81 v 18.586 z m 35.17,-58.277 v 39.691 h 10.78 v -39.383 c 0,-6.14 1.23,-10.781 3.68,-13.898 2.44,-3.133 6.06,-4.691 10.85,-4.691 5.84,0 10.45,1.851 13.83,5.55 3.39,3.692 5.08,8.77 5.08,15.231 v 37.191 h 10.78 v -65.633 h -10.78 v 10.161 c -2.6,-4.059 -5.62,-7.059 -9.06,-8.981 -3.44,-1.93 -7.45,-2.898 -12.03,-2.898 -7.61,0 -13.36,2.351 -17.27,7.039 -3.9,4.679 -5.86,11.562 -5.86,20.621 z m 115.28,29.691 c -1.25,0.617 -2.58,1.117 -3.99,1.477 -1.4,0.371 -2.99,0.551 -4.76,0.551 -6.05,0 -10.71,-1.981 -13.99,-5.942 -3.28,-3.957 -4.92,-9.687 -4.92,-17.187 v -34.532 h -10.78 v 65.633 h 10.78 v -10.164 c 2.29,3.961 5.26,6.902 8.91,8.832 3.64,1.93 8.07,2.891 13.28,2.891 0.73,0 1.53,-0.051 2.42,-0.16 0.88,-0.102 1.85,-0.262 2.89,-0.461 z m 67.46,-20.164 v -5.148 h -49.69 c 0.52,-7.5 2.79,-13.18 6.8,-17.039 4.01,-3.852 9.55,-5.782 16.64,-5.782 4.16,0 8.2,0.5 12.11,1.493 3.9,0.988 7.78,2.519 11.64,4.609 v -10.32 c -3.96,-1.563 -7.97,-2.782 -12.03,-3.672 -4.07,-0.879 -8.18,-1.328 -12.35,-1.328 -10.41,0 -18.7,3.05 -24.84,9.148 -6.15,6.09 -9.22,14.34 -9.22,24.762 0,10.73 2.92,19.25 8.75,25.551 5.83,6.296 13.65,9.449 23.44,9.449 8.85,0 15.86,-2.84 21.01,-8.512 5.16,-5.68 7.74,-13.418 7.74,-23.211 z m -10.78,3.281 c -0.11,5.84 -1.78,10.52 -5,14.071 -3.23,3.539 -7.5,5.312 -12.82,5.312 -6.04,0 -10.86,-1.722 -14.45,-5.164 -3.59,-3.437 -5.65,-8.226 -6.17,-14.367 l 38.44,0.148" /><path
         id="path108"
         style="fill:#000000;fill-opacity:1;fill-rule:nonzero;stroke:none"
         d="m 201.41,286.578 h 31.559 v -9.527 H 201.41 Z m 87.219,49.852 h 55.32 v -10 h -43.437 v -25.938 h 41.718 v -9.851 H 300.512 V 258.93 h 44.527 v -10 h -56.41 z m 122.699,-24.379 v -10.16 c -3.129,1.781 -6.199,3.078 -9.219,3.91 -3.019,0.828 -6.089,1.25 -9.218,1.25 -7.082,0 -12.551,-2.211 -16.411,-6.641 -3.851,-4.43 -5.781,-10.648 -5.781,-18.668 0,-8.023 1.93,-14.254 5.781,-18.672 3.86,-4.429 9.329,-6.64 16.411,-6.64 3.129,0 6.199,0.41 9.218,1.25 3.02,0.832 6.09,2.082 9.219,3.75 v -10 c -3.019,-1.36 -6.148,-2.399 -9.379,-3.129 -3.23,-0.731 -6.66,-1.09 -10.308,-1.09 -9.903,0 -17.762,3.098 -23.59,9.289 -5.84,6.199 -8.75,14.609 -8.75,25.242 0,10.617 2.937,19.008 8.82,25.149 5.891,6.148 13.988,9.218 24.301,9.218 3.226,0 6.43,-0.339 9.609,-1.007 3.18,-0.68 6.278,-1.704 9.297,-3.051 z m 73.32,-23.442 V 248.93 h -10.777 v 39.211 c 0,6.25 -1.23,10.918 -3.672,13.988 -2.449,3.07 -6.07,4.613 -10.859,4.613 -5.84,0 -10.449,-1.851 -13.828,-5.551 -3.391,-3.703 -5.082,-8.769 -5.082,-15.23 V 248.93 h -10.782 v 91.25 h 10.782 v -35.789 c 2.601,3.961 5.652,6.91 9.14,8.828 3.489,1.929 7.532,2.89 12.11,2.89 7.5,0 13.199,-2.308 17.109,-6.949 3.91,-4.64 5.859,-11.48 5.859,-20.551 z m 51.211,-6.718 c -8.648,0 -14.66,-0.993 -18.05,-2.961 -3.379,-1.981 -5.079,-5.371 -5.079,-10.16 0,-3.848 1.282,-6.899 3.829,-9.141 2.55,-2.238 5.972,-3.359 10.242,-3.359 6.039,0 10.859,2.109 14.449,6.332 3.59,4.218 5.391,9.867 5.391,16.949 v 2.34 z m 21.563,4.539 v -37.5 h -10.781 v 10 c -2.5,-3.961 -5.571,-6.91 -9.219,-8.828 -3.641,-1.93 -8.121,-2.891 -13.442,-2.891 -6.769,0 -12.128,1.898 -16.089,5.699 -3.961,3.801 -5.942,8.832 -5.942,15.082 0,7.387 2.481,12.969 7.43,16.719 4.941,3.75 12.312,5.617 22.101,5.617 h 15.161 v 1.102 c 0,5 -1.641,8.851 -4.922,11.562 -3.278,2.707 -7.84,4.059 -13.668,4.059 -3.75,0 -7.43,-0.473 -11.02,-1.41 -3.59,-0.93 -7,-2.289 -10.23,-4.063 v 10 c 3.961,1.563 7.777,2.711 11.48,3.442 3.699,0.73 7.321,1.089 10.86,1.089 9.48,0 16.558,-2.437 21.25,-7.339 4.687,-4.899 7.031,-12.34 7.031,-22.34 z m 76.816,2.179 V 248.93 h -10.777 v 39.211 c 0,6.25 -1.231,10.918 -3.672,13.988 -2.449,3.07 -6.07,4.613 -10.859,4.613 -5.84,0 -10.45,-1.851 -13.828,-5.551 -3.391,-3.703 -5.082,-8.769 -5.082,-15.23 V 248.93 h -10.782 v 65.621 h 10.782 v -10.16 c 2.601,3.961 5.652,6.91 9.14,8.828 3.488,1.929 7.531,2.89 12.11,2.89 7.5,0 13.199,-2.308 17.109,-6.949 3.91,-4.64 5.859,-11.48 5.859,-20.551 z m 64.653,-6.089 c 0,7.808 -1.621,13.851 -4.852,18.121 -3.23,4.281 -7.758,6.41 -13.59,6.41 -5.73,0 -10.211,-2.129 -13.437,-6.41 -3.231,-4.27 -4.84,-10.313 -4.84,-18.121 0,-7.809 1.609,-13.848 4.84,-18.129 3.226,-4.27 7.707,-6.399 13.437,-6.399 5.832,0 10.36,2.129 13.59,6.399 3.231,4.281 4.852,10.32 4.852,18.129 z m 10.781,-25.469 c 0,-11.153 -2.481,-19.449 -7.422,-24.922 -4.949,-5.469 -12.578,-8.199 -22.891,-8.199 -3.75,0 -7.32,0.281 -10.711,0.859 -3.378,0.57 -6.636,1.43 -9.757,2.57 v 10.469 c 3.121,-1.656 6.25,-2.906 9.371,-3.75 3.129,-0.828 6.25,-1.25 9.379,-1.25 7.078,0 12.39,1.852 15.929,5.551 3.551,3.703 5.321,9.301 5.321,16.801 v 5.312 c -2.289,-3.863 -5.161,-6.754 -8.602,-8.672 -3.43,-1.929 -7.598,-2.89 -12.5,-2.89 -8.019,0 -14.5,3.07 -19.449,9.211 -4.949,6.148 -7.418,14.281 -7.418,24.379 0,10.101 2.469,18.23 7.418,24.371 4.949,6.148 11.43,9.218 19.449,9.218 4.902,0 9.07,-0.961 12.5,-2.89 3.441,-1.918 6.313,-4.821 8.602,-8.668 v 10 h 10.781 z m 78.359,27.34 v -5.149 H 738.34 c 0.519,-7.5 2.789,-13.183 6.801,-17.031 4.007,-3.859 9.55,-5.781 16.64,-5.781 4.16,0 8.199,0.492 12.11,1.48 3.898,0.988 7.781,2.531 11.64,4.61 v -10.309 c -3.961,-1.57 -7.972,-2.789 -12.031,-3.672 -4.07,-0.891 -8.18,-1.328 -12.352,-1.328 -10.41,0 -18.699,3.039 -24.839,9.141 -6.149,6.089 -9.219,14.347 -9.219,24.757 0,10.731 2.922,19.25 8.75,25.551 5.832,6.301 13.648,9.449 23.441,9.449 8.848,0 15.86,-2.839 21.008,-8.507 5.16,-5.68 7.742,-13.411 7.742,-23.211 z m -10.781,3.289 c -0.109,5.832 -1.77,10.519 -5,14.062 -3.23,3.539 -7.5,5.309 -12.82,5.309 -6.039,0 -10.86,-1.723 -14.45,-5.16 -3.589,-3.43 -5.652,-8.219 -6.171,-14.371 z M 900,284.391 v -5.149 h -49.691 c 0.519,-7.5 2.793,-13.183 6.8,-17.031 4.012,-3.859 9.563,-5.781 16.641,-5.781 4.172,0 8.199,0.492 12.109,1.48 3.911,0.988 7.789,2.531 11.641,4.61 v -10.309 c -3.961,-1.57 -7.969,-2.789 -12.031,-3.672 -4.059,-0.891 -8.18,-1.328 -12.348,-1.328 -10.41,0 -18.691,3.039 -24.84,9.141 -6.14,6.089 -9.222,14.347 -9.222,24.757 0,10.731 2.921,19.25 8.75,25.551 5.839,6.301 13.652,9.449 23.441,9.449 8.852,0 15.859,-2.839 21.02,-8.507 5.152,-5.68 7.73,-13.411 7.73,-23.211 z m -10.781,3.289 c -0.11,5.832 -1.77,10.519 -5,14.062 -3.231,3.539 -7.5,5.309 -12.809,5.309 -6.051,0 -10.859,-1.723 -14.461,-5.16 -3.59,-3.43 -5.648,-8.219 -6.168,-14.371 z m 83.051,0.929 V 248.93 h -10.79 v 39.211 c 0,6.25 -1.218,10.918 -3.671,13.988 -2.45,3.07 -6.071,4.613 -10.86,4.613 -5.828,0 -10.437,-1.851 -13.828,-5.551 -3.383,-3.703 -5.07,-8.769 -5.07,-15.23 V 248.93 H 917.27 v 65.621 h 10.781 v -10.16 c 2.597,3.961 5.648,6.91 9.14,8.828 3.489,1.929 7.52,2.89 12.11,2.89 7.5,0 13.199,-2.308 17.109,-6.949 3.899,-4.64 5.86,-11.48 5.86,-20.551 z m 32.14,44.532 v -18.59 h 22.19 v -8.442 h -22.19 v -35.617 c 0,-5.312 0.73,-8.73 2.19,-10.242 1.46,-1.512 4.43,-2.258 8.91,-2.258 h 11.09 v -9.062 h -11.09 c -8.34,0 -14.09,1.562 -17.272,4.679 -3.168,3.133 -4.758,8.75 -4.758,16.883 v 35.617 h -7.82 v 8.442 h 7.82 v 18.59 z m 74.4,-28.59 c -1.25,0.629 -2.58,1.121 -3.99,1.488 -1.4,0.359 -2.99,0.539 -4.76,0.539 -6.04,0 -10.7,-1.976 -13.99,-5.937 -3.28,-3.95 -4.92,-9.68 -4.92,-17.18 V 248.93 h -10.78 v 65.621 h 10.78 v -10.16 c 2.29,3.961 5.26,6.91 8.91,8.828 3.64,1.929 8.07,2.89 13.28,2.89 0.73,0 1.54,-0.05 2.42,-0.148 0.89,-0.109 1.85,-0.262 2.89,-0.469 z m 67.46,-20.16 v -5.149 h -49.69 c 0.52,-7.5 2.79,-13.183 6.8,-17.031 4.01,-3.859 9.56,-5.781 16.64,-5.781 4.17,0 8.2,0.492 12.11,1.48 3.91,0.988 7.79,2.531 11.64,4.61 v -10.309 c -3.96,-1.57 -7.97,-2.789 -12.03,-3.672 -4.06,-0.891 -8.18,-1.328 -12.35,-1.328 -10.41,0 -18.69,3.039 -24.84,9.141 -6.15,6.089 -9.22,14.347 -9.22,24.757 0,10.731 2.92,19.25 8.75,25.551 5.84,6.301 13.65,9.449 23.44,9.449 8.85,0 15.86,-2.839 21.02,-8.507 5.15,-5.68 7.73,-13.411 7.73,-23.211 z m -10.78,3.289 c -0.11,5.832 -1.77,10.519 -5,14.062 -3.23,3.539 -7.5,5.309 -12.81,5.309 -6.05,0 -10.86,-1.723 -14.46,-5.16 -3.59,-3.43 -5.65,-8.219 -6.17,-14.371 z m 66.5,52.5 h 10.78 v -91.25 h -10.78 z m 89.59,-55.789 v -5.149 h -49.69 c 0.53,-7.5 2.79,-13.183 6.8,-17.031 4.01,-3.859 9.56,-5.781 16.64,-5.781 4.17,0 8.21,0.492 12.11,1.48 3.91,0.988 7.79,2.531 11.64,4.61 v -10.309 c -3.96,-1.57 -7.97,-2.789 -12.03,-3.672 -4.06,-0.891 -8.18,-1.328 -12.34,-1.328 -10.42,0 -18.7,3.039 -24.85,9.141 -6.14,6.089 -9.22,14.347 -9.22,24.757 0,10.731 2.92,19.25 8.75,25.551 5.84,6.301 13.65,9.449 23.44,9.449 8.86,0 15.86,-2.839 21.02,-8.507 5.15,-5.68 7.73,-13.411 7.73,-23.211 z m -10.78,3.289 c -0.1,5.832 -1.77,10.519 -5,14.062 -3.23,3.539 -7.5,5.309 -12.81,5.309 -6.04,0 -10.86,-1.723 -14.45,-5.16 -3.6,-3.43 -5.66,-8.219 -6.18,-14.371 z m 113.69,-5.938 c 0,7.906 -1.64,14.11 -4.92,18.586 -3.28,4.481 -7.73,6.723 -13.36,6.723 -5.73,0 -10.23,-2.242 -13.51,-6.723 -3.29,-4.476 -4.93,-10.68 -4.93,-18.586 0,-7.922 1.64,-14.14 4.93,-18.672 3.28,-4.531 7.78,-6.8 13.51,-6.8 5.63,0 10.08,2.269 13.36,6.8 3.28,4.532 4.92,10.75 4.92,18.672 z m -36.72,22.809 c 2.3,3.961 5.16,6.879 8.6,8.75 3.43,1.879 7.55,2.808 12.34,2.808 8.02,0 14.53,-3.148 19.53,-9.449 5,-6.301 7.5,-14.609 7.5,-24.918 0,-10.312 -2.5,-18.652 -7.5,-25 -5,-6.363 -11.51,-9.531 -19.53,-9.531 -4.79,0 -8.91,0.961 -12.34,2.891 -3.44,1.918 -6.3,4.82 -8.6,8.668 v -9.84 h -10.78 v 91.25 h 10.78 z m 64.61,-29.692 v 39.692 h 10.78 V 275.18 c 0,-6.149 1.23,-10.789 3.68,-13.91 2.44,-3.129 6.06,-4.692 10.86,-4.692 5.83,0 10.44,1.852 13.82,5.551 3.39,3.703 5.08,8.769 5.08,15.23 v 37.192 h 10.78 V 248.93 h -10.78 v 10.148 c -2.6,-4.058 -5.62,-7.058 -9.06,-8.976 -3.44,-1.93 -7.45,-2.891 -12.03,-2.891 -7.61,0 -13.36,2.34 -17.27,7.031 -3.9,4.688 -5.86,11.559 -5.86,20.617 z m 110.43,65.321 v -9.071 h -10.31 c -3.85,0 -6.54,-0.781 -8.05,-2.339 -1.51,-1.559 -2.26,-4.379 -2.26,-8.442 v -5.777 H 1530 v -8.442 h -17.81 V 248.93 h -10.78 v 57.179 h -10.32 v 8.442 h 10.32 v 4.527 c 0,7.293 1.69,12.633 5.07,16.024 3.39,3.378 8.78,5.078 16.18,5.078 z m 42.25,0 v -9.071 h -10.31 c -3.86,0 -6.54,-0.781 -8.05,-2.339 -1.51,-1.559 -2.27,-4.379 -2.27,-8.442 v -5.777 h 17.82 v -8.442 h -17.82 V 248.93 h -10.78 v 57.179 h -10.31 v 8.442 h 10.31 v 4.527 c 0,7.293 1.7,12.633 5.08,16.024 3.39,3.378 8.78,5.078 16.17,5.078 z m 65.21,-55.789 v -5.149 h -49.68 c 0.52,-7.5 2.78,-13.183 6.79,-17.031 4.01,-3.859 9.56,-5.781 16.64,-5.781 4.17,0 8.21,0.492 12.11,1.48 3.91,0.988 7.79,2.531 11.64,4.61 v -10.309 c -3.95,-1.57 -7.97,-2.789 -12.03,-3.672 -4.06,-0.891 -8.17,-1.328 -12.34,-1.328 -10.42,0 -18.7,3.039 -24.85,9.141 -6.14,6.089 -9.21,14.347 -9.21,24.757 0,10.731 2.91,19.25 8.75,25.551 5.83,6.301 13.64,9.449 23.43,9.449 8.86,0 15.86,-2.839 21.02,-8.507 5.16,-5.68 7.73,-13.411 7.73,-23.211 z m -10.78,3.289 c -0.1,5.832 -1.77,10.519 -5,14.062 -3.23,3.539 -7.5,5.309 -12.81,5.309 -6.04,0 -10.86,-1.723 -14.45,-5.16 -3.6,-3.43 -5.65,-8.219 -6.18,-14.371 z m 66.49,16.871 c -1.25,0.629 -2.58,1.121 -3.99,1.488 -1.4,0.359 -2.99,0.539 -4.76,0.539 -6.05,0 -10.71,-1.976 -13.99,-5.937 -3.28,-3.95 -4.92,-9.68 -4.92,-17.18 V 248.93 h -10.78 v 65.621 h 10.78 v -10.16 c 2.29,3.961 5.26,6.91 8.91,8.828 3.64,1.929 8.07,2.89 13.28,2.89 0.73,0 1.53,-0.05 2.42,-0.148 0.89,-0.109 1.85,-0.262 2.89,-0.469 z m 82.63,35.629 v -9.071 h -10.31 c -3.85,0 -6.54,-0.781 -8.05,-2.339 -1.51,-1.559 -2.26,-4.379 -2.26,-8.442 v -5.777 h 17.81 v -8.442 h -17.81 V 248.93 h -10.78 v 57.179 h -10.32 v 8.442 h 10.32 v 4.527 c 0,7.293 1.69,12.633 5.08,16.024 3.38,3.378 8.77,5.078 16.17,5.078 z m 47.09,-35.629 c -1.25,0.629 -2.58,1.121 -3.98,1.488 -1.41,0.359 -3,0.539 -4.77,0.539 -6.04,0 -10.7,-1.976 -13.98,-5.937 -3.28,-3.95 -4.92,-9.68 -4.92,-17.18 V 248.93 h -10.78 v 65.621 h 10.78 v -10.16 c 2.29,3.961 5.26,6.91 8.9,8.828 3.65,1.929 8.08,2.89 13.28,2.89 0.73,0 1.54,-0.05 2.43,-0.148 0.88,-0.109 1.85,-0.262 2.89,-0.469 z m 36.68,2.5 c -5.73,0 -10.28,-2.262 -13.67,-6.801 -3.38,-4.531 -5.08,-10.699 -5.08,-18.508 0,-7.922 1.67,-14.121 5,-18.601 3.34,-4.469 7.92,-6.711 13.75,-6.711 5.73,0 10.29,2.261 13.67,6.789 3.39,4.531 5.08,10.711 5.08,18.523 0,7.707 -1.69,13.848 -5.08,18.438 -3.38,4.582 -7.94,6.871 -13.67,6.871 z m 0,9.058 c 9.38,0 16.75,-3.039 22.11,-9.14 5.37,-6.09 8.05,-14.5 8.05,-25.227 0,-10.73 -2.68,-19.172 -8.05,-25.312 -5.36,-6.149 -12.73,-9.219 -22.11,-9.219 -9.37,0 -16.74,3.07 -22.11,9.219 -5.36,6.14 -8.04,14.582 -8.04,25.312 0,10.727 2.68,19.137 8.04,25.227 5.37,6.101 12.74,9.14 22.11,9.14 z m 102.64,-27.5 V 248.93 h -10.78 v 39.211 c 0,6.25 -1.23,10.918 -3.67,13.988 -2.45,3.07 -6.07,4.613 -10.86,4.613 -5.84,0 -10.45,-1.851 -13.83,-5.551 -3.39,-3.703 -5.08,-8.769 -5.08,-15.23 V 248.93 h -10.78 v 65.621 h 10.78 v -10.16 c 2.6,3.961 5.65,6.91 9.14,8.828 3.49,1.929 7.53,2.89 12.11,2.89 7.5,0 13.2,-2.308 17.11,-6.949 3.91,-4.64 5.86,-11.48 5.86,-20.551 z m 32.15,44.532 v -18.59 h 22.19 v -8.442 h -22.19 v -35.617 c 0,-5.312 0.73,-8.73 2.19,-10.242 1.45,-1.512 4.42,-2.258 8.9,-2.258 h 11.1 v -9.062 h -11.1 c -8.33,0 -14.09,1.562 -17.26,4.679 -3.18,3.133 -4.77,8.75 -4.77,16.883 v 35.617 h -7.81 v 8.442 h 7.81 v 18.59 z m 130.66,-48.75 v -5.149 h -49.69 c 0.53,-7.5 2.79,-13.183 6.8,-17.031 4.01,-3.859 9.56,-5.781 16.64,-5.781 4.17,0 8.21,0.492 12.11,1.48 3.91,0.988 7.79,2.531 11.64,4.61 v -10.309 c -3.96,-1.57 -7.97,-2.789 -12.03,-3.672 -4.06,-0.891 -8.18,-1.328 -12.34,-1.328 -10.42,0 -18.7,3.039 -24.85,9.141 -6.14,6.089 -9.22,14.347 -9.22,24.757 0,10.731 2.92,19.25 8.75,25.551 5.84,6.301 13.65,9.449 23.44,9.449 8.86,0 15.86,-2.839 21.02,-8.507 5.15,-5.68 7.73,-13.411 7.73,-23.211 z m -10.78,3.289 c -0.1,5.832 -1.77,10.519 -5,14.062 -3.23,3.539 -7.5,5.309 -12.81,5.309 -6.04,0 -10.86,-1.723 -14.45,-5.16 -3.6,-3.43 -5.66,-8.219 -6.18,-14.371 z m 39.14,45.461 v -18.59 h 22.19 v -8.442 h -22.19 v -35.617 c 0,-5.312 0.73,-8.73 2.19,-10.242 1.46,-1.512 4.43,-2.258 8.91,-2.258 h 11.09 v -9.062 h -11.09 c -8.34,0 -14.09,1.562 -17.27,4.679 -3.18,3.133 -4.77,8.75 -4.77,16.883 v 35.617 h -7.81 v 8.442 h 7.81 v 18.59 z m 121.6,-51.399 c 0,7.906 -1.64,14.11 -4.92,18.586 -3.28,4.481 -7.73,6.723 -13.36,6.723 -5.73,0 -10.23,-2.242 -13.51,-6.723 -3.29,-4.476 -4.93,-10.68 -4.93,-18.586 0,-7.922 1.64,-14.14 4.93,-18.672 3.28,-4.531 7.78,-6.8 13.51,-6.8 5.63,0 10.08,2.269 13.36,6.8 3.28,4.532 4.92,10.75 4.92,18.672 z m -36.72,22.809 c 2.3,3.961 5.16,6.879 8.6,8.75 3.44,1.879 7.55,2.808 12.34,2.808 8.02,0 14.53,-3.148 19.53,-9.449 5,-6.301 7.5,-14.609 7.5,-24.918 0,-10.312 -2.5,-18.652 -7.5,-25 -5,-6.363 -11.51,-9.531 -19.53,-9.531 -4.79,0 -8.9,0.961 -12.34,2.891 -3.44,1.918 -6.3,4.82 -8.6,8.668 v -9.84 h -10.78 v 91.25 h 10.78 z m 95.55,-22.66 c -8.64,0 -14.66,-0.993 -18.05,-2.961 -3.38,-1.981 -5.07,-5.371 -5.07,-10.16 0,-3.848 1.27,-6.899 3.82,-9.141 2.56,-2.238 5.97,-3.359 10.24,-3.359 6.04,0 10.86,2.109 14.45,6.332 3.6,4.218 5.39,9.867 5.39,16.949 v 2.34 z m 21.56,4.539 v -37.5 h -10.78 v 10 c -2.5,-3.961 -5.57,-6.91 -9.22,-8.828 -3.64,-1.93 -8.12,-2.891 -13.43,-2.891 -6.77,0 -12.14,1.898 -16.1,5.699 -3.96,3.801 -5.94,8.832 -5.94,15.082 0,7.387 2.48,12.969 7.43,16.719 4.94,3.75 12.31,5.617 22.11,5.617 h 15.15 v 1.102 c 0,5 -1.64,8.851 -4.92,11.562 -3.28,2.707 -7.84,4.059 -13.67,4.059 -3.75,0 -7.42,-0.473 -11.02,-1.41 -3.59,-0.93 -7,-2.289 -10.23,-4.063 v 10 c 3.96,1.563 7.79,2.711 11.48,3.442 3.7,0.73 7.32,1.089 10.86,1.089 9.48,0 16.56,-2.437 21.25,-7.339 4.69,-4.899 7.03,-12.34 7.03,-22.34 z m 69.48,25.621 v -10.16 c -3.13,1.781 -6.2,3.078 -9.22,3.91 -3.02,0.828 -6.1,1.25 -9.22,1.25 -7.08,0 -12.55,-2.211 -16.41,-6.641 -3.85,-4.43 -5.78,-10.648 -5.78,-18.668 0,-8.023 1.93,-14.254 5.78,-18.672 3.86,-4.429 9.33,-6.64 16.41,-6.64 3.12,0 6.2,0.41 9.22,1.25 3.02,0.832 6.09,2.082 9.22,3.75 v -10 c -3.02,-1.36 -6.15,-2.399 -9.38,-3.129 -3.23,-0.731 -6.67,-1.09 -10.31,-1.09 -9.9,0 -17.76,3.098 -23.59,9.289 -5.84,6.199 -8.76,14.609 -8.76,25.242 0,10.617 2.95,19.008 8.83,25.149 5.89,6.148 13.99,9.218 24.3,9.218 3.23,0 6.43,-0.339 9.61,-1.007 3.18,-0.68 6.28,-1.704 9.3,-3.051 z m 18.32,28.129 h 10.78 v -53.91 l 32.19,28.281 h 13.75 l -34.85,-30.621 36.41,-35 h -14.06 l -33.44,32.031 V 248.93 h -10.78 v 91.25" /><path
         id="path110"
         style="fill:none;stroke:#000000;stroke-width:10;stroke-linecap:butt;stroke-linejoin:miter;stroke-miterlimit:1.45000005;stroke-dasharray:none;stroke-opacity:1"
         d="m 1350,2450.29 v -220.5" /><path
         id="path112"
         style="fill:#000000;fill-opacity:1;fill-rule:nonzero;stroke:none"
         d="m 1350,2149.79 50,120 -50,-30 -50,30 z" /><path
         id="path114"
         style="fill:none;stroke:#000000;stroke-width:10;stroke-linecap:butt;stroke-linejoin:miter;stroke-miterlimit:1.45000005;stroke-dasharray:none;stroke-opacity:1"
         d="M 1350,1149.96 V 930.051" /><path
         id="path116"
         style="fill:#000000;fill-opacity:1;fill-rule:nonzero;stroke:none"
         d="m 1350,850.051 50,120 -50,-30 -50,30 z" /></g></g></svg>