<?xml version="1.0" encoding="UTF-8" standalone="no"?>
<svg
   xmlns:dc="http://purl.org/dc/elements/1.1/"
   xmlns:cc="http://creativecommons.org/ns#"
   xmlns:rdf="http://www.w3.org/1999/02/22-rdf-syntax-ns#"
   xmlns:svg="http://www.w3.org/2000/svg"
   xmlns="http://www.w3.org/2000/svg"
   viewBox="0 0 881.33331 253.33333"
   height="253.33333"
   width="881.33331"
   xml:space="preserve"
   id="svg2"
   version="1.1"><metadata
     id="metadata8"><rdf:RDF><cc:Work
         rdf:about=""><dc:format>image/svg+xml</dc:format><dc:type
           rdf:resource="http://purl.org/dc/dcmitype/StillImage" /></cc:Work></rdf:RDF></metadata><defs
     id="defs6"><linearGradient
       id="linearGradient24"
       spreadMethod="pad"
       gradientTransform="matrix(10,0,0,-10,-3120,3350)"
       gradientUnits="userSpaceOnUse"
       y2="260"
       x2="452.5"
       y1="220"
       x1="327.5"><stop
         id="stop20"
         offset="0"
         style="stop-opacity:1;stop-color:#eaeaea" /><stop
         id="stop22"
         offset="1"
         style="stop-opacity:1;stop-color:#ffffff" /></linearGradient><linearGradient
       id="linearGradient36"
       spreadMethod="pad"
       gradientTransform="matrix(10,0,0,-10,-3120,3350)"
       gradientUnits="userSpaceOnUse"
       y2="260"
       x2="640"
       y1="220"
       x1="500"><stop
         id="stop32"
         offset="0"
         style="stop-opacity:1;stop-color:#0c87da" /><stop
         id="stop34"
         offset="1"
         style="stop-opacity:1;stop-color:#7cbf33" /></linearGradient><linearGradient
       id="linearGradient48"
       spreadMethod="pad"
       gradientTransform="matrix(10,0,0,-10,-3120,3350)"
       gradientUnits="userSpaceOnUse"
       y2="320"
       x2="782.5"
       y1="280"
       x1="657.5"><stop
         id="stop44"
         offset="0"
         style="stop-opacity:1;stop-color:#eaeaea" /><stop
         id="stop46"
         offset="1"
         style="stop-opacity:1;stop-color:#ffffff" /></linearGradient><linearGradient
       id="linearGradient60"
       spreadMethod="pad"
       gradientTransform="matrix(10,0,0,-10,-3120,3350)"
       gradientUnits="userSpaceOnUse"
       y2="200"
       x2="782.5"
       y1="160"
       x1="657.5"><stop
         id="stop56"
         offset="0"
         style="stop-opacity:1;stop-color:#eaeaea" /><stop
         id="stop58"
         offset="1"
         style="stop-opacity:1;stop-color:#ffffff" /></linearGradient></defs><g
     transform="matrix(1.3333333,0,0,-1.3333333,0,253.33333)"
     id="g10"><g
       transform="scale(0.1)"
       id="g12"><path
         id="path14"
         style="fill:#ffffff;fill-opacity:1;fill-rule:nonzero;stroke:none"
         d="M 0,1900 H 6610 V 0 H 0 v 1900" /><path
         id="path16"
         style="fill:#ffffff;fill-opacity:1;fill-rule:nonzero;stroke:none"
         d="M 0,1900 H 6610 V 0 H 0 v 1900" /><path
         id="path18"
         style="fill:#ffffff;fill-opacity:1;fill-rule:nonzero;stroke:none"
         d="M 0,1900 H 6610 V 0 H 0 v 1900" /><path
         id="path26"
         style="fill:url(#linearGradient24);fill-opacity:1;fill-rule:nonzero;stroke:none"
         d="m 155,750 h 1250 v 400 H 155 Z" /><path
         id="path28"
         style="fill:none;stroke:#000000;stroke-width:10;stroke-linecap:butt;stroke-linejoin:miter;stroke-miterlimit:1.45000005;stroke-dasharray:none;stroke-opacity:1"
         d="m 155,750 h 1250 v 400 H 155 Z" /><path
         id="path30"
         style="fill:#000000;fill-opacity:1;fill-rule:nonzero;stroke:none"
         d="m 293.719,984.238 -16.09,-43.437 h 32.18 z M 287,995.961 h 13.441 l 33.278,-87.5 h -12.34 l -7.969,22.5 h -39.379 l -7.972,-22.5 h -12.5 z m 69.441,-77.66 v -34.84 h -10.793 v 90.621 h 10.793 v -10 c 2.289,3.957 5.149,6.879 8.59,8.75 3.438,1.879 7.551,2.809 12.34,2.809 8.02,0 14.527,-3.153 19.527,-9.45 5,-6.3 7.5,-14.609 7.5,-24.921 0,-10.309 -2.5,-18.649 -7.5,-25 -5,-6.348 -11.507,-9.532 -19.527,-9.532 -4.789,0 -8.902,0.961 -12.34,2.891 -3.441,1.93 -6.301,4.82 -8.59,8.672 z m 36.707,22.969 c 0,7.921 -1.636,14.109 -4.918,18.589 -3.281,4.481 -7.73,6.723 -13.359,6.723 -5.73,0 -10.23,-2.242 -13.512,-6.723 -3.277,-4.48 -4.918,-10.668 -4.918,-18.589 0,-7.918 1.641,-14.141 4.918,-18.668 3.282,-4.532 7.782,-6.801 13.512,-6.801 5.629,0 10.078,2.269 13.359,6.801 3.282,4.527 4.918,10.75 4.918,18.668 z m 39.461,-22.969 v -34.84 h -10.777 v 90.621 h 10.777 v -10 c 2.289,3.957 5.153,6.879 8.59,8.75 3.442,1.879 7.551,2.809 12.34,2.809 8.031,0 14.543,-3.153 19.543,-9.45 5,-6.3 7.5,-14.609 7.5,-24.921 0,-10.309 -2.5,-18.649 -7.5,-25 -5,-6.348 -11.512,-9.532 -19.543,-9.532 -4.789,0 -8.898,0.961 -12.34,2.891 -3.437,1.93 -6.301,4.82 -8.59,8.672 z m 36.723,22.969 c 0,7.921 -1.641,14.109 -4.934,18.589 -3.277,4.481 -7.726,6.723 -13.359,6.723 -5.719,0 -10.23,-2.242 -13.508,-6.723 -3.281,-4.48 -4.922,-10.668 -4.922,-18.589 0,-7.918 1.641,-14.141 4.922,-18.668 3.278,-4.532 7.789,-6.801 13.508,-6.801 5.633,0 10.082,2.269 13.359,6.801 3.293,4.527 4.934,10.75 4.934,18.668 z m 28.977,58.441 h 10.781 v -91.25 h -10.781 z m 33.339,-25.629 h 10.782 v -65.621 h -10.782 z m 0,25.629 h 10.782 v -13.75 h -10.782 z m 80.684,-28.129 V 961.43 c -3.121,1.769 -6.191,3.07 -9.211,3.902 -3.031,0.84 -6.101,1.25 -9.223,1.25 -7.089,0 -12.558,-2.211 -16.41,-6.641 -3.847,-4.429 -5.777,-10.652 -5.777,-18.671 0,-8.02 1.93,-14.25 5.777,-18.668 3.852,-4.43 9.321,-6.641 16.41,-6.641 3.122,0 6.192,0.41 9.223,1.25 3.02,0.828 6.09,2.078 9.211,3.75 v -10 c -3.023,-1.359 -6.141,-2.402 -9.371,-3.129 -3.231,-0.73 -6.672,-1.094 -10.313,-1.094 -9.898,0 -17.757,3.102 -23.597,9.301 -5.832,6.191 -8.75,14.602 -8.75,25.231 0,10.621 2.949,19.011 8.828,25.16 5.891,6.14 13.992,9.211 24.301,9.211 3.23,0 6.429,-0.332 9.609,-1.012 3.172,-0.68 6.27,-1.688 9.293,-3.047 z m 48.477,-30.152 c -8.649,0 -14.661,-0.989 -18.047,-2.969 -3.383,-1.981 -5.071,-5.371 -5.071,-10.16 0,-3.852 1.27,-6.903 3.821,-9.141 2.558,-2.238 5.968,-3.359 10.238,-3.359 6.039,0 10.859,2.109 14.449,6.328 3.59,4.223 5.391,9.871 5.391,16.953 v 2.348 z m 21.562,4.531 v -37.5 H 671.59 v 10 c -2.5,-3.961 -5.57,-6.902 -9.219,-8.832 -3.641,-1.93 -8.121,-2.891 -13.43,-2.891 -6.781,0 -12.14,1.903 -16.101,5.703 -3.961,3.797 -5.942,8.829 -5.942,15.079 0,7.402 2.481,12.968 7.434,16.718 4.938,3.75 12.309,5.621 22.109,5.621 h 15.149 v 1.102 c 0,5 -1.641,8.848 -4.918,11.559 -3.281,2.71 -7.84,4.062 -13.672,4.062 -3.75,0 -7.418,-0.473 -11.02,-1.402 -3.589,-0.942 -7,-2.301 -10.23,-4.071 v 10 c 3.961,1.571 7.781,2.711 11.48,3.442 3.7,0.73 7.321,1.09 10.86,1.09 9.48,0 16.558,-2.442 21.25,-7.34 4.691,-4.903 7.031,-12.34 7.031,-22.34 z m 32.91,46.719 v -18.598 h 22.188 v -8.441 H 715.281 V 930.02 c 0,-5.309 0.731,-8.719 2.188,-10.231 1.461,-1.519 4.429,-2.269 8.91,-2.269 h 11.09 v -9.059 h -11.09 c -8.34,0 -14.09,1.559 -17.27,4.68 -3.179,3.129 -4.757,8.75 -4.757,16.879 v 35.621 h -7.821 v 8.441 h 7.821 v 18.598 z m 36.27,-18.598 h 10.781 v -65.621 h -10.781 z m 0,25.629 h 10.781 v -13.75 h -10.781 z m 58.808,-33.129 c -5.73,0 -10.289,-2.262 -13.668,-6.793 -3.39,-4.539 -5.082,-10.707 -5.082,-18.519 0,-7.918 1.672,-14.122 5,-18.59 3.332,-4.481 7.922,-6.719 13.75,-6.719 5.731,0 10.289,2.258 13.672,6.789 3.391,4.539 5.078,10.711 5.078,18.52 0,7.71 -1.687,13.851 -5.078,18.441 -3.383,4.578 -7.941,6.871 -13.672,6.871 z m 0,9.059 c 9.379,0 16.75,-3.039 22.11,-9.141 5.371,-6.09 8.051,-14.5 8.051,-25.23 0,-10.731 -2.68,-19.168 -8.051,-25.309 -5.36,-6.152 -12.731,-9.223 -22.11,-9.223 -9.371,0 -16.738,3.071 -22.109,9.223 -5.359,6.141 -8.039,14.578 -8.039,25.309 0,10.73 2.68,19.14 8.039,25.23 5.371,6.102 12.738,9.141 22.109,9.141 z M 913,948.141 v -39.68 h -10.781 v 39.219 c 0,6.25 -1.231,10.91 -3.68,13.98 -2.437,3.07 -6.059,4.61 -10.848,4.61 -5.839,0 -10.453,-1.848 -13.832,-5.551 -3.39,-3.699 -5.078,-8.77 -5.078,-15.231 V 908.461 H 858 v 65.621 h 10.781 V 963.93 c 2.598,3.949 5.649,6.898 9.141,8.82 3.488,1.93 7.527,2.891 12.109,2.891 7.5,0 13.199,-2.313 17.11,-6.95 3.898,-4.632 5.859,-11.48 5.859,-20.55 z m 125.6,41.097 v -12.5 c -4.06,3.75 -8.33,6.532 -12.81,8.364 -4.48,1.82 -9.27,2.73 -14.37,2.73 -10,0 -17.658,-3.07 -22.971,-9.223 -5.32,-6.14 -7.969,-15 -7.969,-26.558 0,-11.461 2.649,-20.262 7.969,-26.41 5.313,-6.141 12.971,-9.211 22.971,-9.211 5.1,0 9.89,0.929 14.37,2.808 4.48,1.871 8.75,4.633 12.81,8.282 v -12.34 c -4.16,-2.821 -8.56,-4.93 -13.2,-6.328 -4.64,-1.411 -9.5,-2.114 -14.61,-2.114 -13.329,0 -23.798,4.063 -31.411,12.192 -7.598,8.121 -11.399,19.16 -11.399,33.121 0,14.058 3.801,25.16 11.399,33.281 7.613,8.129 18.082,12.188 31.411,12.188 5.21,0 10.13,-0.7 14.77,-2.11 4.63,-1.41 8.98,-3.461 13.04,-6.172 z m 16.92,6.723 h 11.87 v -53.129 c 0,-9.371 1.7,-16.121 5.08,-20.23 3.39,-4.122 8.88,-6.172 16.49,-6.172 7.6,0 13.09,2.05 16.48,6.172 3.38,4.109 5.08,10.859 5.08,20.23 v 53.129 h 11.87 V 941.27 c 0,-11.348 -2.81,-19.95 -8.43,-25.782 -5.63,-5.84 -13.96,-8.75 -25,-8.75 -11.05,0 -19.38,2.91 -25,8.75 -5.63,5.832 -8.44,14.434 -8.44,25.782 z m 100.95,-9.691 v -68.129 h 14.38 c 12.08,0 20.91,2.738 26.48,8.211 5.58,5.468 8.36,14.136 8.36,26.007 0,11.672 -2.78,20.243 -8.36,25.711 -5.57,5.469 -14.4,8.2 -26.48,8.2 z m -11.87,9.691 h 24.37 c 16.98,0 29.43,-3.52 37.35,-10.551 7.92,-7.031 11.87,-18.051 11.87,-33.051 0,-15.097 -3.98,-26.187 -11.95,-33.277 -7.97,-7.082 -20.39,-10.621 -37.27,-10.621 h -24.37 z m 121.78,-11.723 -16.1,-43.437 h 32.19 z m -6.72,11.723 h 13.44 l 33.28,-87.5 h -12.35 l -7.97,22.5 h -39.37 l -7.97,-22.5 h -12.5 l 33.44,87.5" /><path
         id="path38"
         style="fill:url(#linearGradient36);fill-opacity:1;fill-rule:nonzero;stroke:none"
         d="m 1880,750 h 1400 v 400 H 1880 Z" /><path
         id="path40"
         style="fill:none;stroke:#000000;stroke-width:10;stroke-linecap:butt;stroke-linejoin:miter;stroke-miterlimit:1.45000005;stroke-dasharray:none;stroke-opacity:1"
         d="m 1880,750 h 1400 v 400 H 1880 Z" /><path
         id="path42"
         style="fill:#ffffff;fill-opacity:1;fill-rule:nonzero;stroke:none"
         d="m 2100.18,989.238 v -12.5 c -4.07,3.75 -8.34,6.532 -12.82,8.364 -4.48,1.82 -9.27,2.73 -14.37,2.73 -10,0 -17.66,-3.07 -22.97,-9.223 -5.31,-6.14 -7.97,-15 -7.97,-26.558 0,-11.461 2.66,-20.262 7.97,-26.41 5.31,-6.141 12.97,-9.211 22.97,-9.211 5.1,0 9.89,0.929 14.37,2.808 4.48,1.871 8.75,4.633 12.82,8.282 v -12.34 c -4.17,-2.821 -8.57,-4.93 -13.21,-6.328 -4.63,-1.411 -9.5,-2.114 -14.61,-2.114 -13.33,0 -23.8,4.063 -31.4,12.192 -7.61,8.121 -11.41,19.16 -11.41,33.121 0,14.058 3.8,25.16 11.41,33.281 7.6,8.129 18.07,12.188 31.4,12.188 5.21,0 10.13,-0.7 14.77,-2.11 4.63,-1.41 8.98,-3.461 13.05,-6.172 z m 43.16,-22.656 c -5.73,0 -10.29,-2.262 -13.67,-6.793 -3.39,-4.539 -5.08,-10.707 -5.08,-18.519 0,-7.918 1.67,-14.122 5,-18.59 3.33,-4.481 7.92,-6.719 13.75,-6.719 5.73,0 10.29,2.258 13.67,6.789 3.39,4.539 5.08,10.711 5.08,18.52 0,7.71 -1.69,13.851 -5.08,18.441 -3.38,4.578 -7.94,6.871 -13.67,6.871 z m 0,9.059 c 9.37,0 16.74,-3.039 22.11,-9.141 5.36,-6.09 8.05,-14.5 8.05,-25.23 0,-10.731 -2.69,-19.168 -8.05,-25.309 -5.37,-6.152 -12.74,-9.223 -22.11,-9.223 -9.38,0 -16.74,3.071 -22.11,9.223 -5.36,6.141 -8.05,14.578 -8.05,25.309 0,10.73 2.69,19.14 8.05,25.23 5.37,6.102 12.73,9.141 22.11,9.141 z m 99.04,-14.211 c 2.71,4.89 5.94,8.492 9.69,10.781 3.75,2.289 8.18,3.43 13.28,3.43 6.88,0 12.16,-2.391 15.86,-7.18 3.7,-4.789 5.55,-11.57 5.55,-20.32 v -39.68 h -10.78 v 39.219 c 0,6.351 -1.12,11.039 -3.36,14.058 -2.24,3.024 -5.65,4.532 -10.24,4.532 -5.62,0 -10.05,-1.848 -13.28,-5.551 -3.23,-3.699 -4.84,-8.77 -4.84,-15.231 v -37.027 h -10.78 v 39.219 c 0,6.351 -1.12,11.039 -3.36,14.058 -2.24,3.024 -5.71,4.532 -10.39,4.532 -5.52,0 -9.9,-1.848 -13.13,-5.551 -3.23,-3.699 -4.84,-8.77 -4.84,-15.231 v -37.027 h -10.78 v 65.621 h 10.78 V 963.93 c 2.5,3.949 5.47,6.898 8.9,8.82 3.44,1.93 7.5,2.891 12.19,2.891 4.79,0 8.86,-1.192 12.19,-3.59 3.33,-2.403 5.78,-5.942 7.34,-10.621 z m 76.27,-43.129 v -34.84 h -10.78 v 90.621 h 10.78 v -10 c 2.29,3.957 5.16,6.879 8.6,8.75 3.43,1.879 7.55,2.809 12.34,2.809 8.02,0 14.53,-3.153 19.53,-9.45 5,-6.3 7.5,-14.609 7.5,-24.921 0,-10.309 -2.5,-18.649 -7.5,-25 -5,-6.348 -11.51,-9.532 -19.53,-9.532 -4.79,0 -8.91,0.961 -12.34,2.891 -3.44,1.93 -6.31,4.82 -8.6,8.672 z m 36.72,22.969 c 0,7.921 -1.64,14.109 -4.92,18.589 -3.28,4.481 -7.74,6.723 -13.36,6.723 -5.73,0 -10.23,-2.242 -13.52,-6.723 -3.28,-4.48 -4.92,-10.668 -4.92,-18.589 0,-7.918 1.64,-14.141 4.92,-18.668 3.29,-4.532 7.79,-6.801 13.52,-6.801 5.62,0 10.08,2.269 13.36,6.801 3.28,4.527 4.92,10.75 4.92,18.668 z m 28.99,32.812 h 10.78 v -65.621 h -10.78 z m 0,25.629 h 10.78 v -13.75 h -10.78 z m 33.34,0 h 10.78 v -91.25 h -10.78 z m 63.18,-58.281 c -8.65,0 -14.66,-0.989 -18.05,-2.969 -3.38,-1.981 -5.08,-5.371 -5.08,-10.16 0,-3.852 1.28,-6.903 3.83,-9.141 2.55,-2.238 5.97,-3.359 10.24,-3.359 6.04,0 10.86,2.109 14.45,6.328 3.59,4.223 5.39,9.871 5.39,16.953 v 2.348 z m 21.56,4.531 v -37.5 h -10.78 v 10 c -2.5,-3.961 -5.57,-6.902 -9.22,-8.832 -3.64,-1.93 -8.12,-2.891 -13.44,-2.891 -6.77,0 -12.13,1.903 -16.09,5.703 -3.96,3.797 -5.94,8.829 -5.94,15.079 0,7.402 2.48,12.968 7.42,16.718 4.95,3.75 12.32,5.621 22.11,5.621 h 15.16 v 1.102 c 0,5 -1.64,8.848 -4.92,11.559 -3.28,2.71 -7.84,4.062 -13.67,4.062 -3.75,0 -7.43,-0.473 -11.02,-1.402 -3.59,-0.942 -7,-2.301 -10.23,-4.071 v 10 c 3.95,1.571 7.78,2.711 11.48,3.442 3.7,0.73 7.32,1.09 10.86,1.09 9.48,0 16.56,-2.442 21.25,-7.34 4.69,-4.903 7.03,-12.34 7.03,-22.34 z m 32.91,46.719 v -18.598 h 22.19 v -8.441 h -22.19 V 930.02 c 0,-5.309 0.73,-8.719 2.19,-10.231 1.46,-1.519 4.43,-2.269 8.91,-2.269 h 11.09 v -9.059 h -11.09 c -8.34,0 -14.09,1.559 -17.27,4.68 -3.18,3.129 -4.77,8.75 -4.77,16.879 v 35.621 h -7.81 v 8.441 h 7.81 v 18.598 z m 92.52,-48.75 v -5.16 h -49.69 c 0.52,-7.5 2.79,-13.18 6.8,-17.032 4.01,-3.859 9.56,-5.777 16.64,-5.777 4.17,0 8.2,0.488 12.11,1.48 3.91,0.989 7.79,2.528 11.64,4.61 v -10.313 c -3.96,-1.558 -7.97,-2.789 -12.03,-3.668 -4.06,-0.89 -8.18,-1.332 -12.34,-1.332 -10.42,0 -18.7,3.051 -24.85,9.141 -6.14,6.09 -9.22,14.351 -9.22,24.762 0,10.73 2.92,19.25 8.75,25.55 5.84,6.297 13.65,9.45 23.44,9.45 8.86,0 15.86,-2.832 21.02,-8.512 5.15,-5.68 7.73,-13.41 7.73,-23.199 z m -10.78,3.281 c -0.1,5.828 -1.77,10.519 -5,14.059 -3.23,3.539 -7.5,5.312 -12.81,5.312 -6.04,0 -10.86,-1.723 -14.46,-5.152 -3.59,-3.442 -5.65,-8.231 -6.17,-14.379 z m 27.27,-12.82 v 39.691 h 10.78 v -39.371 c 0,-6.152 1.22,-10.781 3.67,-13.91 2.45,-3.121 6.07,-4.692 10.86,-4.692 5.83,0 10.44,1.852 13.83,5.551 3.38,3.699 5.07,8.781 5.07,15.231 v 37.191 h 10.79 v -65.621 h -10.79 v 10.148 c -2.6,-4.058 -5.62,-7.05 -9.06,-8.98 -3.44,-1.93 -7.45,-2.891 -12.03,-2.891 -7.6,0 -13.36,2.344 -17.27,7.032 -3.9,4.691 -5.85,11.562 -5.85,20.621 z m 115.27,29.691 c -1.25,0.629 -2.58,1.117 -3.99,1.488 -1.4,0.36 -2.99,0.539 -4.76,0.539 -6.04,0 -10.7,-1.98 -13.99,-5.929 -3.28,-3.961 -4.92,-9.692 -4.92,-17.192 v -34.527 h -10.78 v 65.621 h 10.78 V 963.93 c 2.29,3.949 5.26,6.898 8.91,8.82 3.64,1.93 8.07,2.891 13.28,2.891 0.73,0 1.54,-0.051 2.42,-0.153 0.89,-0.109 1.85,-0.258 2.89,-0.468 z m 49.82,31.879 h 15.94 l 38.91,-73.129 v 73.129 h 11.4 v -87.5 h -15.93 l -38.75,73.121 v -73.121 h -11.57 z m 112.43,-87.5 -33.44,87.5 h 12.34 l 27.81,-73.602 27.66,73.602 h 12.34 l -33.28,-87.5 z m 125.05,80.777 v -12.5 c -4.06,3.75 -8.33,6.532 -12.81,8.364 -4.48,1.82 -9.27,2.73 -14.37,2.73 -10,0 -17.66,-3.07 -22.97,-9.223 -5.32,-6.14 -7.97,-15 -7.97,-26.558 0,-11.461 2.65,-20.262 7.97,-26.41 5.31,-6.141 12.97,-9.211 22.97,-9.211 5.1,0 9.89,0.929 14.37,2.808 4.48,1.871 8.75,4.633 12.81,8.282 v -12.34 c -4.16,-2.821 -8.56,-4.93 -13.2,-6.328 -4.63,-1.411 -9.5,-2.114 -14.61,-2.114 -13.33,0 -23.8,4.063 -31.41,12.192 -7.6,8.121 -11.4,19.16 -11.4,33.121 0,14.058 3.8,25.16 11.4,33.281 7.61,8.129 18.08,12.188 31.41,12.188 5.21,0 10.13,-0.7 14.77,-2.11 4.63,-1.41 8.98,-3.461 13.04,-6.172 z m 83.79,0 v -12.5 c -4.06,3.75 -8.33,6.532 -12.81,8.364 -4.48,1.82 -9.27,2.73 -14.37,2.73 -10,0 -17.66,-3.07 -22.97,-9.223 -5.32,-6.14 -7.97,-15 -7.97,-26.558 0,-11.461 2.65,-20.262 7.97,-26.41 5.31,-6.141 12.97,-9.211 22.97,-9.211 5.1,0 9.89,0.929 14.37,2.808 4.48,1.871 8.75,4.633 12.81,8.282 v -12.34 c -4.16,-2.821 -8.57,-4.93 -13.2,-6.328 -4.64,-1.411 -9.51,-2.114 -14.61,-2.114 -13.33,0 -23.8,4.063 -31.41,12.192 -7.6,8.121 -11.4,19.16 -11.4,33.121 0,14.058 3.8,25.16 11.4,33.281 7.61,8.129 18.08,12.188 31.41,12.188 5.21,0 10.13,-0.7 14.77,-2.11 4.63,-1.41 8.98,-3.461 13.04,-6.172" /><path
         id="path50"
         style="fill:url(#linearGradient48);fill-opacity:1;fill-rule:nonzero;stroke:none"
         d="M 3455,150 H 4705 V 550 H 3455 Z" /><path
         id="path52"
         style="fill:none;stroke:#000000;stroke-width:10;stroke-linecap:butt;stroke-linejoin:miter;stroke-miterlimit:1.45000005;stroke-dasharray:none;stroke-opacity:1"
         d="M 3455,150 H 4705 V 550 H 3455 Z" /><path
         id="path54"
         style="fill:#000000;fill-opacity:1;fill-rule:nonzero;stroke:none"
         d="m 3870.73,389.242 v -12.5 c -4.06,3.75 -8.33,6.528 -12.81,8.36 -4.48,1.82 -9.27,2.726 -14.38,2.726 -10,0 -17.65,-3.066 -22.96,-9.219 -5.32,-6.14 -7.97,-15 -7.97,-26.558 0,-11.461 2.65,-20.262 7.97,-26.41 5.31,-6.141 12.96,-9.211 22.96,-9.211 5.11,0 9.9,0.929 14.38,2.812 4.48,1.867 8.75,4.629 12.81,8.278 v -12.34 c -4.16,-2.821 -8.57,-4.93 -13.2,-6.328 -4.64,-1.411 -9.51,-2.11 -14.61,-2.11 -13.33,0 -23.8,4.059 -31.41,12.188 -7.6,8.121 -11.4,19.16 -11.4,33.121 0,14.058 3.8,25.16 11.4,33.277 7.61,8.133 18.08,12.192 31.41,12.192 5.21,0 10.13,-0.7 14.77,-2.11 4.63,-1.41 8.98,-3.461 13.04,-6.168 z m 43.17,-22.664 c -5.73,0 -10.29,-2.258 -13.68,-6.789 -3.38,-4.539 -5.07,-10.711 -5.07,-18.519 0,-7.918 1.66,-14.122 5,-18.59 3.33,-4.481 7.91,-6.719 13.75,-6.719 5.73,0 10.28,2.258 13.67,6.789 3.38,4.539 5.08,10.711 5.08,18.52 0,7.71 -1.7,13.851 -5.08,18.441 -3.39,4.578 -7.94,6.867 -13.67,6.867 z m 0,9.063 c 9.37,0 16.74,-3.039 22.11,-9.141 5.36,-6.09 8.04,-14.5 8.04,-25.23 0,-10.731 -2.68,-19.168 -8.04,-25.309 -5.37,-6.152 -12.74,-9.219 -22.11,-9.219 -9.38,0 -16.75,3.067 -22.11,9.219 -5.37,6.141 -8.05,14.578 -8.05,25.309 0,10.73 2.68,19.14 8.05,25.23 5.36,6.102 12.73,9.141 22.11,9.141 z m 91.23,-11.563 v 35.633 h 10.78 v -91.25 h -10.78 v 9.84 c -2.29,-3.852 -5.16,-6.742 -8.6,-8.672 -3.43,-1.93 -7.6,-2.887 -12.5,-2.887 -7.91,0 -14.37,3.18 -19.37,9.528 -5,6.351 -7.5,14.691 -7.5,25 0,10.308 2.5,18.621 7.5,24.921 5,6.297 11.46,9.45 19.37,9.45 4.9,0 9.07,-0.93 12.5,-2.813 3.44,-1.867 6.31,-4.789 8.6,-8.75 z m -36.72,-22.808 c 0,-7.918 1.61,-14.141 4.84,-18.668 3.23,-4.532 7.71,-6.801 13.44,-6.801 5.73,0 10.23,2.269 13.52,6.801 3.28,4.527 4.92,10.75 4.92,18.668 0,7.921 -1.64,14.109 -4.92,18.589 -3.29,4.481 -7.79,6.719 -13.52,6.719 -5.73,0 -10.21,-2.238 -13.44,-6.719 -3.23,-4.48 -4.84,-10.668 -4.84,-18.589 z m 125.86,2.66 v -5.16 h -49.69 c 0.52,-7.5 2.79,-13.18 6.8,-17.028 4.01,-3.863 9.55,-5.781 16.64,-5.781 4.16,0 8.2,0.488 12.11,1.48 3.9,0.989 7.78,2.528 11.64,4.61 v -10.309 c -3.96,-1.562 -7.97,-2.793 -12.03,-3.672 -4.07,-0.89 -8.18,-1.328 -12.35,-1.328 -10.41,0 -18.7,3.047 -24.84,9.137 -6.15,6.09 -9.22,14.351 -9.22,24.762 0,10.73 2.92,19.25 8.75,25.55 5.83,6.297 13.65,9.45 23.44,9.45 8.85,0 15.86,-2.832 21.01,-8.512 5.16,-5.68 7.74,-13.41 7.74,-23.199 z m -10.78,3.281 c -0.11,5.828 -1.77,10.519 -5,14.059 -3.23,3.539 -7.5,5.308 -12.82,5.308 -6.04,0 -10.86,-1.719 -14.45,-5.148 -3.59,-3.438 -5.65,-8.231 -6.17,-14.379 z m 78.84,39.059 v -32.969 h 14.85 c 5.52,0 9.79,1.429 12.81,4.301 3.02,2.859 4.53,6.949 4.53,12.257 0,5.211 -1.51,9.25 -4.53,12.11 -3.02,2.871 -7.29,4.301 -12.81,4.301 z m -11.87,9.691 h 26.72 c 9.89,0 17.34,-2.223 22.34,-6.641 5,-4.429 7.5,-10.922 7.5,-19.461 0,-8.64 -2.5,-15.179 -7.5,-19.609 -5,-4.418 -12.45,-6.641 -22.34,-6.641 h -14.85 v -35.148 h -11.87 z m 60.33,0 h 73.91 v -10 h -30.94 v -77.5 h -11.88 v 77.5 h -31.09 z m 81.11,0 h 12.82 l 21.72,-32.5 21.87,32.5 h 12.66 l -28.13,-42.031 30,-45.469 h -12.65 l -24.69,37.18 -24.69,-37.18 H 4288 l 31.25,46.719 -27.35,40.781" /><path
         id="path62"
         style="fill:url(#linearGradient60);fill-opacity:1;fill-rule:nonzero;stroke:none"
         d="m 3455,1350 h 1250 v 400 H 3455 Z" /><path
         id="path64"
         style="fill:none;stroke:#000000;stroke-width:10;stroke-linecap:butt;stroke-linejoin:miter;stroke-miterlimit:1.45000005;stroke-dasharray:none;stroke-opacity:1"
         d="m 3455,1350 h 1250 v 400 H 3455 Z" /><path
         id="path66"
         style="fill:#000000;fill-opacity:1;fill-rule:nonzero;stroke:none"
         d="m 3741.97,1589.24 v -12.5 c -4.06,3.75 -8.33,6.53 -12.81,8.36 -4.48,1.82 -9.27,2.73 -14.37,2.73 -10,0 -17.66,-3.07 -22.97,-9.22 -5.32,-6.14 -7.97,-15 -7.97,-26.56 0,-11.46 2.65,-20.26 7.97,-26.41 5.31,-6.14 12.97,-9.21 22.97,-9.21 5.1,0 9.89,0.93 14.37,2.81 4.48,1.87 8.75,4.63 12.81,8.28 v -12.34 c -4.16,-2.82 -8.57,-4.93 -13.2,-6.33 -4.64,-1.41 -9.51,-2.11 -14.61,-2.11 -13.33,0 -23.8,4.06 -31.41,12.19 -7.6,8.12 -11.4,19.16 -11.4,33.12 0,14.06 3.8,25.16 11.4,33.28 7.61,8.13 18.08,12.19 31.41,12.19 5.21,0 10.13,-0.7 14.77,-2.11 4.63,-1.41 8.98,-3.46 13.04,-6.17 z m 43.17,-22.66 c -5.73,0 -10.29,-2.26 -13.68,-6.79 -3.38,-4.54 -5.07,-10.71 -5.07,-18.52 0,-7.92 1.66,-14.12 5,-18.59 3.33,-4.48 7.91,-6.72 13.75,-6.72 5.73,0 10.28,2.26 13.67,6.79 3.38,4.54 5.08,10.71 5.08,18.52 0,7.71 -1.7,13.85 -5.08,18.44 -3.39,4.58 -7.94,6.87 -13.67,6.87 z m 0,9.06 c 9.37,0 16.74,-3.04 22.11,-9.14 5.36,-6.09 8.04,-14.5 8.04,-25.23 0,-10.73 -2.68,-19.17 -8.04,-25.31 -5.37,-6.15 -12.74,-9.22 -22.11,-9.22 -9.38,0 -16.75,3.07 -22.11,9.22 -5.37,6.14 -8.05,14.58 -8.05,25.31 0,10.73 2.68,19.14 8.05,25.23 5.36,6.1 12.73,9.14 22.11,9.14 z m 91.23,-11.56 v 35.63 h 10.78 v -91.25 h -10.78 v 9.84 c -2.29,-3.85 -5.16,-6.74 -8.6,-8.67 -3.43,-1.93 -7.6,-2.89 -12.5,-2.89 -7.91,0 -14.37,3.18 -19.37,9.53 -5,6.35 -7.5,14.69 -7.5,25 0,10.31 2.5,18.62 7.5,24.92 5,6.3 11.46,9.45 19.37,9.45 4.9,0 9.07,-0.93 12.5,-2.81 3.44,-1.87 6.31,-4.79 8.6,-8.75 z m -36.72,-22.81 c 0,-7.92 1.61,-14.14 4.84,-18.67 3.23,-4.53 7.71,-6.8 13.44,-6.8 5.73,0 10.23,2.27 13.52,6.8 3.28,4.53 4.92,10.75 4.92,18.67 0,7.92 -1.64,14.11 -4.92,18.59 -3.29,4.48 -7.79,6.72 -13.52,6.72 -5.73,0 -10.21,-2.24 -13.44,-6.72 -3.23,-4.48 -4.84,-10.67 -4.84,-18.59 z m 125.86,2.66 v -5.16 h -49.69 c 0.52,-7.5 2.79,-13.18 6.8,-17.03 4.01,-3.86 9.55,-5.78 16.64,-5.78 4.16,0 8.2,0.49 12.11,1.48 3.9,0.99 7.78,2.53 11.64,4.61 v -10.31 c -3.96,-1.56 -7.97,-2.79 -12.03,-3.67 -4.07,-0.89 -8.18,-1.33 -12.35,-1.33 -10.41,0 -18.7,3.05 -24.84,9.14 -6.15,6.09 -9.22,14.35 -9.22,24.76 0,10.73 2.92,19.25 8.75,25.55 5.83,6.3 13.65,9.45 23.44,9.45 8.85,0 15.86,-2.83 21.01,-8.51 5.16,-5.68 7.74,-13.41 7.74,-23.2 z m -10.78,3.28 c -0.11,5.83 -1.77,10.52 -5,14.06 -3.23,3.54 -7.5,5.31 -12.82,5.31 -6.04,0 -10.86,-1.72 -14.45,-5.15 -3.59,-3.44 -5.65,-8.23 -6.17,-14.38 z m 132.59,42.03 v -12.5 c -4.06,3.75 -8.33,6.53 -12.81,8.36 -4.48,1.82 -9.27,2.73 -14.37,2.73 -10,0 -17.66,-3.07 -22.97,-9.22 -5.31,-6.14 -7.97,-15 -7.97,-26.56 0,-11.46 2.66,-20.26 7.97,-26.41 5.31,-6.14 12.97,-9.21 22.97,-9.21 5.1,0 9.89,0.93 14.37,2.81 4.48,1.87 8.75,4.63 12.81,8.28 v -12.34 c -4.16,-2.82 -8.56,-4.93 -13.2,-6.33 -4.63,-1.41 -9.5,-2.11 -14.61,-2.11 -13.33,0 -23.8,4.06 -31.4,12.19 -7.61,8.12 -11.41,19.16 -11.41,33.12 0,14.06 3.8,25.16 11.41,33.28 7.6,8.13 18.07,12.19 31.4,12.19 5.21,0 10.13,-0.7 14.77,-2.11 4.63,-1.41 8.98,-3.46 13.04,-6.17 z m 75.06,6.72 h 10 l -30.47,-98.6 h -10 z m 125.45,-6.72 v -12.5 c -4.06,3.75 -8.33,6.53 -12.81,8.36 -4.48,1.82 -9.27,2.73 -14.38,2.73 -10,0 -17.65,-3.07 -22.96,-9.22 -5.32,-6.14 -7.97,-15 -7.97,-26.56 0,-11.46 2.65,-20.26 7.97,-26.41 5.31,-6.14 12.96,-9.21 22.96,-9.21 5.11,0 9.9,0.93 14.38,2.81 4.48,1.87 8.75,4.63 12.81,8.28 v -12.34 c -4.16,-2.82 -8.57,-4.93 -13.2,-6.33 -4.64,-1.41 -9.51,-2.11 -14.61,-2.11 -13.33,0 -23.8,4.06 -31.41,12.19 -7.6,8.12 -11.4,19.16 -11.4,33.12 0,14.06 3.8,25.16 11.4,33.28 7.61,8.13 18.08,12.19 31.41,12.19 5.21,0 10.13,-0.7 14.77,-2.11 4.63,-1.41 8.98,-3.46 13.04,-6.17 z m 61.6,-5.47 v -32.66 h 32.66 v -10 h -32.66 v -32.65 h -9.84 v 32.65 h -32.66 v 10 h 32.66 v 32.66 z m 100.55,0 v -32.66 h 32.66 v -10 h -32.66 v -32.65 h -9.84 v 32.65 h -32.66 v 10 h 32.66 v 32.66 h 9.84" /><path
         id="path68"
         style="fill:#7cbf33;fill-opacity:1;fill-rule:nonzero;stroke:none"
         d="M 5055,150 H 6455 V 550 H 5055 Z" /><path
         id="path70"
         style="fill:none;stroke:#000000;stroke-width:10;stroke-linecap:butt;stroke-linejoin:miter;stroke-miterlimit:1.45000005;stroke-dasharray:none;stroke-opacity:1"
         d="M 5055,150 H 6455 V 550 H 5055 Z" /><path
         id="path72"
         style="fill:#ffffff;fill-opacity:1;fill-rule:nonzero;stroke:none"
         d="m 5362.85,349.551 c 2.5,-0.942 4.95,-2.809 7.35,-5.621 2.39,-2.821 4.84,-6.668 7.34,-11.571 l 12.03,-23.898 h -12.81 l -11.1,22.5 c -2.91,5.828 -5.73,9.711 -8.43,11.641 -2.71,1.918 -6.41,2.89 -11.1,2.89 h -12.97 v -37.031 h -11.87 v 87.5 h 26.72 c 10,0 17.47,-2.09 22.42,-6.25 4.95,-4.172 7.42,-10.469 7.42,-18.91 0,-5.52 -1.27,-10.102 -3.83,-13.75 -2.55,-3.653 -6.27,-6.153 -11.17,-7.5 z m -29.69,36.719 v -31.09 h 14.85 c 5.73,0 10.05,1.32 12.97,3.98 2.91,2.66 4.37,6.539 4.37,11.641 0,5.097 -1.46,8.961 -4.37,11.558 -2.92,2.61 -7.24,3.911 -12.97,3.911 z m 69.95,-51.879 v 39.687 h 10.78 v -39.367 c 0,-6.152 1.22,-10.781 3.67,-13.91 2.45,-3.121 6.07,-4.692 10.86,-4.692 5.83,0 10.44,1.852 13.83,5.551 3.38,3.699 5.07,8.781 5.07,15.231 v 37.187 h 10.79 v -65.617 h -10.79 v 10.148 c -2.6,-4.058 -5.62,-7.05 -9.06,-8.98 -3.44,-1.93 -7.45,-2.887 -12.03,-2.887 -7.6,0 -13.36,2.336 -17.27,7.028 -3.9,4.691 -5.85,11.558 -5.85,20.621 z m 131.83,13.75 v -39.68 h -10.78 v 39.219 c 0,6.25 -1.22,10.91 -3.67,13.98 -2.45,3.07 -6.07,4.61 -10.86,4.61 -5.83,0 -10.44,-1.848 -13.83,-5.551 -3.38,-3.699 -5.08,-8.77 -5.08,-15.227 v -37.031 h -10.78 v 65.617 h 10.78 V 363.93 c 2.61,3.949 5.65,6.902 9.14,8.82 3.49,1.93 7.53,2.891 12.11,2.891 7.5,0 13.21,-2.309 17.11,-6.95 3.91,-4.632 5.86,-11.48 5.86,-20.55 z m 32.15,44.539 v -18.602 h 22.19 v -8.437 h -22.19 V 330.02 c 0,-5.309 0.73,-8.719 2.19,-10.231 1.46,-1.519 4.42,-2.269 8.9,-2.269 h 11.1 v -9.059 h -11.1 c -8.33,0 -14.08,1.559 -17.26,4.68 -3.18,3.129 -4.77,8.75 -4.77,16.879 v 35.621 h -7.81 v 8.437 h 7.81 v 18.602 z m 36.27,-18.602 h 10.78 v -65.617 h -10.78 z m 0,25.633 h 10.78 v -13.75 h -10.78 z m 84.43,-38.281 c 2.71,4.89 5.94,8.492 9.69,10.781 3.75,2.289 8.18,3.43 13.28,3.43 6.88,0 12.16,-2.391 15.86,-7.18 3.7,-4.789 5.55,-11.57 5.55,-20.32 v -39.68 h -10.78 v 39.219 c 0,6.351 -1.12,11.039 -3.36,14.062 -2.24,3.02 -5.65,4.528 -10.24,4.528 -5.62,0 -10.05,-1.848 -13.28,-5.551 -3.23,-3.699 -4.84,-8.77 -4.84,-15.227 v -37.031 h -10.78 v 39.219 c 0,6.351 -1.12,11.039 -3.36,14.062 -2.24,3.02 -5.71,4.528 -10.39,4.528 -5.52,0 -9.9,-1.848 -13.13,-5.551 -3.23,-3.699 -4.84,-8.77 -4.84,-15.227 v -37.031 h -10.78 v 65.617 h 10.78 V 363.93 c 2.5,3.949 5.47,6.902 8.9,8.82 3.44,1.93 7.5,2.891 12.19,2.891 4.79,0 8.86,-1.192 12.19,-3.59 3.33,-2.403 5.78,-5.942 7.34,-10.621 z m 122.05,-17.5 v -5.16 h -49.68 c 0.52,-7.5 2.78,-13.18 6.79,-17.028 4.01,-3.863 9.56,-5.781 16.64,-5.781 4.17,0 8.21,0.488 12.11,1.48 3.91,0.989 7.79,2.528 11.64,4.61 v -10.309 c -3.95,-1.562 -7.96,-2.793 -12.03,-3.672 -4.06,-0.89 -8.17,-1.328 -12.34,-1.328 -10.42,0 -18.7,3.047 -24.85,9.137 -6.14,6.09 -9.21,14.351 -9.21,24.762 0,10.73 2.91,19.25 8.75,25.55 5.83,6.297 13.64,9.45 23.43,9.45 8.86,0 15.86,-2.832 21.02,-8.512 5.16,-5.68 7.73,-13.41 7.73,-23.199 z m -10.78,3.281 c -0.1,5.828 -1.77,10.519 -5,14.059 -3.23,3.539 -7.5,5.308 -12.81,5.308 -6.04,0 -10.86,-1.719 -14.45,-5.148 -3.6,-3.438 -5.65,-8.231 -6.18,-14.379 z m 132.6,42.031 v -12.5 c -4.06,3.75 -8.33,6.528 -12.81,8.36 -4.48,1.82 -9.27,2.726 -14.38,2.726 -10,0 -17.65,-3.066 -22.97,-9.219 -5.31,-6.14 -7.96,-15 -7.96,-26.558 0,-11.461 2.65,-20.262 7.96,-26.41 5.32,-6.141 12.97,-9.211 22.97,-9.211 5.11,0 9.9,0.929 14.38,2.812 4.48,1.867 8.75,4.629 12.81,8.278 v -12.34 c -4.17,-2.821 -8.57,-4.93 -13.2,-6.328 -4.64,-1.411 -9.51,-2.11 -14.61,-2.11 -13.34,0 -23.8,4.059 -31.41,12.188 -7.6,8.121 -11.4,19.16 -11.4,33.121 0,14.058 3.8,25.16 11.4,33.277 7.61,8.133 18.07,12.192 31.41,12.192 5.21,0 10.13,-0.7 14.76,-2.11 4.64,-1.41 8.99,-3.461 13.05,-6.168 z m 16.91,6.719 h 11.88 v -53.133 c 0,-9.367 1.69,-16.117 5.08,-20.226 3.38,-4.122 8.88,-6.172 16.48,-6.172 7.61,0 13.1,2.05 16.49,6.172 3.38,4.109 5.07,10.859 5.07,20.226 v 53.133 h 11.88 V 341.27 c 0,-11.348 -2.81,-19.95 -8.44,-25.778 -5.62,-5.844 -13.96,-8.75 -25,-8.75 -11.04,0 -19.37,2.906 -25,8.75 -5.62,5.828 -8.44,14.43 -8.44,25.778 z m 100.96,-9.691 v -68.129 h 14.38 c 12.08,0 20.91,2.738 26.48,8.211 5.57,5.468 8.36,14.14 8.36,26.007 0,11.672 -2.79,20.243 -8.36,25.711 -5.57,5.469 -14.4,8.2 -26.48,8.2 z m -11.87,9.691 h 24.37 c 16.98,0 29.43,-3.52 37.35,-10.551 7.91,-7.031 11.87,-18.051 11.87,-33.051 0,-15.097 -3.98,-26.187 -11.95,-33.281 -7.97,-7.078 -20.39,-10.617 -37.27,-10.617 h -24.37 z m 121.77,-11.719 -16.09,-43.441 h 32.19 z m -6.72,11.719 h 13.44 l 33.28,-87.5 h -12.34 l -7.97,22.5 h -39.37 l -7.97,-22.5 h -12.5 l 33.43,87.5" /><path
         id="path74"
         style="fill:#0c87da;fill-opacity:1;fill-rule:nonzero;stroke:none"
         d="m 5055,1350 h 1400 v 400 H 5055 Z" /><path
         id="path76"
         style="fill:none;stroke:#000000;stroke-width:10;stroke-linecap:butt;stroke-linejoin:miter;stroke-miterlimit:1.45000005;stroke-dasharray:none;stroke-opacity:1"
         d="m 5055,1350 h 1400 v 400 H 5055 Z" /><path
         id="path78"
         style="fill:#ffffff;fill-opacity:1;fill-rule:nonzero;stroke:none"
         d="m 5273.27,1595.96 h 11.88 v -87.5 h -11.88 z m 89.61,-47.82 v -39.68 h -10.78 v 39.22 c 0,6.25 -1.22,10.91 -3.67,13.98 -2.45,3.07 -6.07,4.61 -10.86,4.61 -5.83,0 -10.44,-1.85 -13.83,-5.55 -3.39,-3.7 -5.08,-8.77 -5.08,-15.23 v -37.03 h -10.78 v 65.62 h 10.78 v -10.15 c 2.61,3.95 5.65,6.9 9.14,8.82 3.49,1.93 7.53,2.89 12.11,2.89 7.5,0 13.21,-2.31 17.11,-6.95 3.91,-4.63 5.86,-11.48 5.86,-20.55 z m 63.24,24.07 v -10.32 c -3.02,1.57 -6.17,2.74 -9.45,3.52 -3.28,0.78 -6.69,1.17 -10.23,1.17 -5.32,0 -9.33,-0.81 -12.04,-2.42 -2.7,-1.61 -4.06,-4.09 -4.06,-7.42 0,-2.5 0.97,-4.45 2.89,-5.86 1.93,-1.41 5.81,-2.74 11.64,-3.99 l 3.6,-0.93 c 7.71,-1.57 13.17,-3.86 16.4,-6.88 3.23,-3.02 4.85,-7.19 4.85,-12.5 0,-6.14 -2.43,-10.99 -7.27,-14.53 -4.84,-3.54 -11.48,-5.31 -19.92,-5.31 -3.54,0 -7.21,0.34 -11.02,1.01 -3.8,0.68 -7.78,1.7 -11.95,3.05 v 11.25 c 3.96,-2.08 7.87,-3.65 11.72,-4.69 3.85,-1.04 7.71,-1.56 11.56,-1.56 5,0 8.88,0.86 11.64,2.58 2.76,1.72 4.14,4.19 4.14,7.42 0,2.92 -0.99,5.16 -2.97,6.72 -1.97,1.56 -6.3,3.07 -12.96,4.53 l -3.75,0.78 c -6.67,1.46 -11.49,3.65 -14.46,6.56 -2.97,2.92 -4.45,6.88 -4.45,11.88 0,6.25 2.19,11.04 6.56,14.37 4.38,3.34 10.57,5 18.6,5 3.95,0 7.7,-0.28 11.25,-0.85 3.54,-0.58 6.77,-1.44 9.68,-2.58 z m 31.43,20.47 v -18.6 h 22.19 v -8.44 h -22.19 v -35.62 c 0,-5.31 0.73,-8.72 2.19,-10.23 1.45,-1.52 4.42,-2.27 8.9,-2.27 h 11.1 v -9.06 h -11.1 c -8.33,0 -14.09,1.56 -17.26,4.68 -3.18,3.13 -4.77,8.75 -4.77,16.88 v 35.62 h -7.81 v 8.44 h 7.81 v 18.6 z m 74.39,-28.6 c -1.25,0.63 -2.57,1.12 -3.98,1.49 -1.41,0.36 -3,0.54 -4.77,0.54 -6.04,0 -10.7,-1.98 -13.98,-5.93 -3.28,-3.96 -4.92,-9.69 -4.92,-17.19 v -34.53 h -10.78 v 65.62 h 10.78 v -10.15 c 2.29,3.95 5.26,6.9 8.9,8.82 3.65,1.93 8.08,2.89 13.28,2.89 0.73,0 1.54,-0.05 2.43,-0.15 0.88,-0.11 1.85,-0.26 2.89,-0.47 z m 10.12,-29.69 v 39.69 h 10.78 v -39.37 c 0,-6.15 1.23,-10.78 3.67,-13.91 2.45,-3.12 6.07,-4.69 10.86,-4.69 5.84,0 10.45,1.85 13.83,5.55 3.39,3.7 5.08,8.78 5.08,15.23 v 37.19 h 10.78 v -65.62 h -10.78 v 10.15 c -2.6,-4.06 -5.63,-7.05 -9.06,-8.98 -3.44,-1.93 -7.45,-2.89 -12.03,-2.89 -7.61,0 -13.36,2.34 -17.27,7.03 -3.91,4.69 -5.86,11.56 -5.86,20.62 z m 124.49,37.19 v -10.15 c -3.12,1.77 -6.2,3.07 -9.22,3.9 -3.02,0.84 -6.09,1.25 -9.21,1.25 -7.09,0 -12.56,-2.21 -16.41,-6.64 -3.86,-4.43 -5.78,-10.65 -5.78,-18.67 0,-8.02 1.92,-14.25 5.78,-18.67 3.85,-4.43 9.32,-6.64 16.41,-6.64 3.12,0 6.19,0.41 9.21,1.25 3.02,0.83 6.1,2.08 9.22,3.75 v -10 c -3.02,-1.36 -6.14,-2.4 -9.37,-3.13 -3.23,-0.73 -6.67,-1.09 -10.31,-1.09 -9.9,0 -17.77,3.1 -23.6,9.3 -5.83,6.19 -8.75,14.6 -8.75,25.23 0,10.62 2.94,19.01 8.83,25.16 5.89,6.14 13.98,9.21 24.3,9.21 3.23,0 6.43,-0.33 9.61,-1.01 3.17,-0.68 6.27,-1.69 9.29,-3.05 z m 29.42,21.1 v -18.6 h 22.18 v -8.44 h -22.18 v -35.62 c 0,-5.31 0.73,-8.72 2.18,-10.23 1.46,-1.52 4.43,-2.27 8.91,-2.27 h 11.09 v -9.06 h -11.09 c -8.33,0 -14.09,1.56 -17.27,4.68 -3.17,3.13 -4.76,8.75 -4.76,16.88 v 35.62 h -7.81 v 8.44 h 7.81 v 18.6 z m 36.27,-18.6 h 10.78 v -65.62 h -10.78 z m 0,25.63 h 10.78 v -13.75 h -10.78 z m 58.8,-33.13 c -5.72,0 -10.28,-2.26 -13.67,-6.79 -3.38,-4.54 -5.08,-10.71 -5.08,-18.52 0,-7.92 1.67,-14.12 5,-18.59 3.34,-4.48 7.92,-6.72 13.75,-6.72 5.73,0 10.29,2.26 13.68,6.79 3.38,4.54 5.07,10.71 5.07,18.52 0,7.71 -1.69,13.85 -5.07,18.44 -3.39,4.58 -7.95,6.87 -13.68,6.87 z m 0,9.06 c 9.38,0 16.75,-3.04 22.11,-9.14 5.37,-6.09 8.05,-14.5 8.05,-25.23 0,-10.73 -2.68,-19.17 -8.05,-25.31 -5.36,-6.15 -12.73,-9.22 -22.11,-9.22 -9.37,0 -16.74,3.07 -22.1,9.22 -5.37,6.14 -8.05,14.58 -8.05,25.31 0,10.73 2.68,19.14 8.05,25.23 5.36,6.1 12.73,9.14 22.1,9.14 z m 102.64,-27.5 v -39.68 h -10.78 v 39.22 c 0,6.25 -1.22,10.91 -3.67,13.98 -2.45,3.07 -6.07,4.61 -10.86,4.61 -5.83,0 -10.44,-1.85 -13.83,-5.55 -3.38,-3.7 -5.08,-8.77 -5.08,-15.23 v -37.03 h -10.78 v 65.62 h 10.78 v -10.15 c 2.61,3.95 5.65,6.9 9.14,8.82 3.49,1.93 7.53,2.89 12.11,2.89 7.5,0 13.21,-2.31 17.11,-6.95 3.91,-4.63 5.86,-11.48 5.86,-20.55 z m 63.24,24.07 v -10.32 c -3.02,1.57 -6.17,2.74 -9.45,3.52 -3.28,0.78 -6.69,1.17 -10.23,1.17 -5.32,0 -9.33,-0.81 -12.03,-2.42 -2.71,-1.61 -4.07,-4.09 -4.07,-7.42 0,-2.5 0.97,-4.45 2.89,-5.86 1.93,-1.41 5.81,-2.74 11.64,-3.99 l 3.6,-0.93 c 7.71,-1.57 13.17,-3.86 16.4,-6.88 3.23,-3.02 4.85,-7.19 4.85,-12.5 0,-6.14 -2.42,-10.99 -7.27,-14.53 -4.84,-3.54 -11.48,-5.31 -19.92,-5.31 -3.54,0 -7.21,0.34 -11.02,1.01 -3.8,0.68 -7.78,1.7 -11.95,3.05 v 11.25 c 3.96,-2.08 7.87,-3.65 11.72,-4.69 3.85,-1.04 7.71,-1.56 11.56,-1.56 5,0 8.88,0.86 11.64,2.58 2.76,1.72 4.14,4.19 4.14,7.42 0,2.92 -0.99,5.16 -2.96,6.72 -1.98,1.56 -6.31,3.07 -12.97,4.53 l -3.75,0.78 c -6.67,1.46 -11.49,3.65 -14.46,6.56 -2.97,2.92 -4.45,6.88 -4.45,11.88 0,6.25 2.19,11.04 6.56,14.37 4.38,3.34 10.58,5 18.6,5 3.95,0 7.7,-0.28 11.25,-0.85 3.54,-0.58 6.77,-1.44 9.68,-2.58 z m 124.89,17.03 v -12.5 c -4.07,3.75 -8.34,6.53 -12.82,8.36 -4.48,1.82 -9.27,2.73 -14.37,2.73 -10,0 -17.66,-3.07 -22.97,-9.22 -5.31,-6.14 -7.97,-15 -7.97,-26.56 0,-11.46 2.66,-20.26 7.97,-26.41 5.31,-6.14 12.97,-9.21 22.97,-9.21 5.1,0 9.89,0.93 14.37,2.81 4.48,1.87 8.75,4.63 12.82,8.28 v -12.34 c -4.17,-2.82 -8.57,-4.93 -13.21,-6.33 -4.63,-1.41 -9.5,-2.11 -14.61,-2.11 -13.33,0 -23.8,4.06 -31.4,12.19 -7.61,8.12 -11.41,19.16 -11.41,33.12 0,14.06 3.8,25.16 11.41,33.28 7.6,8.13 18.07,12.19 31.4,12.19 5.21,0 10.13,-0.7 14.77,-2.11 4.64,-1.41 8.98,-3.46 13.05,-6.17 z m 30.04,-2.97 v -32.97 h 14.84 c 5.52,0 9.79,1.43 12.81,4.3 3.02,2.86 4.53,6.95 4.53,12.26 0,5.21 -1.51,9.25 -4.53,12.11 -3.02,2.87 -7.29,4.3 -12.81,4.3 z m -11.88,9.69 h 26.72 c 9.9,0 17.34,-2.22 22.34,-6.64 5,-4.43 7.5,-10.92 7.5,-19.46 0,-8.64 -2.5,-15.18 -7.5,-19.61 -5,-4.42 -12.44,-6.64 -22.34,-6.64 h -14.84 v -35.15 h -11.88 z m 71.11,0 h 11.88 v -53.13 c 0,-9.37 1.69,-16.12 5.08,-20.23 3.38,-4.12 8.88,-6.17 16.48,-6.17 7.61,0 13.1,2.05 16.49,6.17 3.38,4.11 5.07,10.86 5.07,20.23 v 53.13 h 11.88 v -54.69 c 0,-11.35 -2.81,-19.95 -8.44,-25.78 -5.62,-5.84 -13.96,-8.75 -25,-8.75 -11.04,0 -19.37,2.91 -25,8.75 -5.62,5.83 -8.44,14.43 -8.44,25.78 v 54.69" /><path
         id="path80"
         style="fill:none;stroke:#000000;stroke-width:10;stroke-linecap:butt;stroke-linejoin:miter;stroke-miterlimit:1.45000005;stroke-dasharray:none;stroke-opacity:1"
         d="m 1405.34,950 h 394.63" /><path
         id="path82"
         style="fill:#000000;fill-opacity:1;fill-rule:nonzero;stroke:none"
         d="m 1879.97,950 -120,50 30,-50 -30,-50 z" /><path
         id="path84"
         style="fill:none;stroke:#000000;stroke-width:10;stroke-linecap:butt;stroke-linejoin:miter;stroke-miterlimit:1.45000005;stroke-dasharray:none;stroke-opacity:1"
         d="M 2580,749.898 V 350 h 794.88" /><path
         id="path86"
         style="fill:#000000;fill-opacity:1;fill-rule:nonzero;stroke:none"
         d="m 3454.88,350 -120,50 30,-50 -30,-50 z" /><path
         id="path88"
         style="fill:none;stroke:#000000;stroke-width:10;stroke-linecap:butt;stroke-linejoin:miter;stroke-miterlimit:1.45000005;stroke-dasharray:none;stroke-opacity:1"
         d="M 2580,1150.1 V 1550 h 794.88" /><path
         id="path90"
         style="fill:#000000;fill-opacity:1;fill-rule:nonzero;stroke:none"
         d="m 3454.88,1550 -120,50 30,-50 -30,-50 z" /><path
         id="path92"
         style="fill:none;stroke:#000000;stroke-width:10;stroke-linecap:butt;stroke-linejoin:miter;stroke-miterlimit:1.45000005;stroke-dasharray:none;stroke-opacity:1"
         d="m 4705.26,350 h 269.83" /><path
         id="path94"
         style="fill:#000000;fill-opacity:1;fill-rule:nonzero;stroke:none"
         d="m 5055.09,350 -120,50 30,-50 -30,-50 z" /><path
         id="path96"
         style="fill:none;stroke:#000000;stroke-width:10;stroke-linecap:butt;stroke-linejoin:miter;stroke-miterlimit:1.45000005;stroke-dasharray:none;stroke-opacity:1"
         d="m 4705.26,1550 h 269.83" /><path
         id="path98"
         style="fill:#000000;fill-opacity:1;fill-rule:nonzero;stroke:none"
         d="m 5055.09,1550 -120,50 30,-50 -30,-50 z" /></g></g></svg>