<?xml version="1.0" encoding="UTF-8" standalone="no"?>
<svg
   xmlns:dc="http://purl.org/dc/elements/1.1/"
   xmlns:cc="http://creativecommons.org/ns#"
   xmlns:rdf="http://www.w3.org/1999/02/22-rdf-syntax-ns#"
   xmlns:svg="http://www.w3.org/2000/svg"
   xmlns="http://www.w3.org/2000/svg"
   viewBox="0 0 1040 173.33333"
   height="173.33333"
   width="1040"
   xml:space="preserve"
   id="svg2"
   version="1.1"><metadata
     id="metadata8"><rdf:RDF><cc:Work
         rdf:about=""><dc:format>image/svg+xml</dc:format><dc:type
           rdf:resource="http://purl.org/dc/dcmitype/StillImage" /></cc:Work></rdf:RDF></metadata><defs
     id="defs6"><linearGradient
       id="linearGradient24"
       spreadMethod="pad"
       gradientTransform="matrix(10,0,0,-10,-2100,3050)"
       gradientUnits="userSpaceOnUse"
       y2="290"
       x2="465"
       y1="260"
       x1="225"><stop
         id="stop20"
         offset="0"
         style="stop-opacity:1;stop-color:#0c87da" /><stop
         id="stop22"
         offset="1"
         style="stop-opacity:1;stop-color:#0c87da" /></linearGradient><linearGradient
       id="linearGradient34"
       spreadMethod="pad"
       gradientTransform="matrix(10,0,0,-10,-2100,3050)"
       gradientUnits="userSpaceOnUse"
       y2="290"
       x2="975"
       y1="260"
       x1="525"><stop
         id="stop30"
         offset="0"
         style="stop-opacity:1;stop-color:#0c87da" /><stop
         id="stop32"
         offset="1"
         style="stop-opacity:1;stop-color:#0c87da" /></linearGradient><linearGradient
       id="linearGradient44"
       spreadMethod="pad"
       gradientTransform="matrix(10,0,0,-10,-2100,3050)"
       gradientUnits="userSpaceOnUse"
       y2="230"
       x2="315"
       y1="190"
       x1="225"><stop
         id="stop40"
         offset="0"
         style="stop-opacity:1;stop-color:#eaeaea" /><stop
         id="stop42"
         offset="1"
         style="stop-opacity:1;stop-color:#ffffff" /></linearGradient><linearGradient
       id="linearGradient56"
       spreadMethod="pad"
       gradientTransform="matrix(10,0,0,-10,-2100,3050)"
       gradientUnits="userSpaceOnUse"
       y2="230"
       x2="465"
       y1="190"
       x1="375"><stop
         id="stop52"
         offset="0"
         style="stop-opacity:1;stop-color:#eaeaea" /><stop
         id="stop54"
         offset="1"
         style="stop-opacity:1;stop-color:#ffffff" /></linearGradient><linearGradient
       id="linearGradient68"
       spreadMethod="pad"
       gradientTransform="matrix(10,0,0,-10,-2100,3050)"
       gradientUnits="userSpaceOnUse"
       y2="230"
       x2="645"
       y1="190"
       x1="525"><stop
         id="stop64"
         offset="0"
         style="stop-opacity:1;stop-color:#eaeaea" /><stop
         id="stop66"
         offset="1"
         style="stop-opacity:1;stop-color:#ffffff" /></linearGradient><linearGradient
       id="linearGradient80"
       spreadMethod="pad"
       gradientTransform="matrix(10,0,0,-10,-2100,3050)"
       gradientUnits="userSpaceOnUse"
       y2="230"
       x2="825"
       y1="190"
       x1="705"><stop
         id="stop76"
         offset="0"
         style="stop-opacity:1;stop-color:#eaeaea" /><stop
         id="stop78"
         offset="1"
         style="stop-opacity:1;stop-color:#ffffff" /></linearGradient><linearGradient
       id="linearGradient92"
       spreadMethod="pad"
       gradientTransform="matrix(10,0,0,-10,-2100,3050)"
       gradientUnits="userSpaceOnUse"
       y2="230"
       x2="975"
       y1="190"
       x1="885"><stop
         id="stop88"
         offset="0"
         style="stop-opacity:1;stop-color:#eaeaea" /><stop
         id="stop90"
         offset="1"
         style="stop-opacity:1;stop-color:#ffffff" /></linearGradient></defs><g
     transform="matrix(1.3333333,0,0,-1.3333333,0,173.33333)"
     id="g10"><g
       transform="scale(0.1)"
       id="g12"><path
         id="path14"
         style="fill:#ffffff;fill-opacity:1;fill-rule:nonzero;stroke:none"
         d="M 0,1300 H 7800 V 0 H 0 v 1300" /><path
         id="path16"
         style="fill:#ffffff;fill-opacity:1;fill-rule:nonzero;stroke:none"
         d="M 0,1300 H 7800 V 0 H 0 v 1300" /><path
         id="path18"
         style="fill:#ffffff;fill-opacity:1;fill-rule:nonzero;stroke:none"
         d="M 0,1300 H 7800 V 0 H 0 v 1300" /><path
         id="path26"
         style="fill:url(#linearGradient24);fill-opacity:1;fill-rule:nonzero;stroke:none"
         d="M 150,150 H 2550 V 450 H 150 Z" /><path
         id="path28"
         style="fill:#ffffff;fill-opacity:1;fill-rule:nonzero;stroke:none"
         d="m 649.988,265.02 c -5.617,-2.809 -11.457,-4.899 -17.5,-6.25 -6.039,-1.348 -12.289,-2.028 -18.75,-2.028 -14.578,0 -26.148,4.09 -34.687,12.258 -8.539,8.18 -12.813,19.199 -12.813,33.051 0,14.168 4.352,25.289 13.051,33.359 8.703,8.07 20.602,12.11 35.699,12.11 5.731,0 11.282,-0.551 16.641,-1.641 5.371,-1.09 10.391,-2.738 15.082,-4.918 v -17.969 c -4.902,2.707 -9.742,4.738 -14.531,6.086 -4.789,1.363 -9.641,2.031 -14.532,2.031 -8.957,0 -15.859,-2.5 -20.707,-7.5 -4.839,-5 -7.261,-12.179 -7.261,-21.558 0,-9.172 2.34,-16.281 7.031,-21.332 4.687,-5.047 11.301,-7.578 19.84,-7.578 2.398,0 4.609,0.129 6.64,0.398 2.028,0.262 3.829,0.703 5.391,1.32 v 17.032 h -13.75 v 15.16 h 35.156 z m 84.434,26.41 v -5.938 h -49.063 c 0.52,-4.902 2.289,-8.601 5.313,-11.101 3.019,-2.5 7.297,-3.75 12.816,-3.75 4.371,0 8.883,0.679 13.512,2.039 4.641,1.351 9.398,3.332 14.301,5.929 V 262.52 c -5,-1.879 -9.981,-3.309 -14.922,-4.301 -4.949,-0.989 -9.918,-1.477 -14.918,-1.477 -11.879,0 -21.102,3.02 -27.66,9.059 -6.563,6.039 -9.84,14.527 -9.84,25.469 0,10.621 3.219,19.011 9.68,25.16 6.461,6.14 15.371,9.211 26.718,9.211 10.313,0 18.571,-3.09 24.77,-9.289 6.191,-6.204 9.293,-14.512 9.293,-24.922 z m -21.563,7.031 c 0,3.961 -1.168,7.16 -3.507,9.609 -2.352,2.442 -5.391,3.672 -9.141,3.672 -4.07,0 -7.371,-1.152 -9.93,-3.441 -2.551,-2.289 -4.14,-5.571 -4.761,-9.84 z m -6.089,55.93 h 16.562 l -21.723,-22.032 h -11.398 z m 92.32,-48.121 c -1.871,0.832 -3.719,1.46 -5.551,1.871 -1.82,0.418 -3.668,0.629 -5.539,0.629 -5.309,0 -9.43,-1.75 -12.352,-5.231 -2.91,-3.488 -4.367,-8.418 -4.367,-14.769 V 258.461 H 750.34 v 65.617 h 20.941 v -10.777 c 2.707,4.269 5.809,7.398 9.301,9.379 3.488,1.968 7.68,2.961 12.566,2.961 0.633,0 1.364,-0.02 2.192,-0.071 0.84,-0.058 2.031,-0.191 3.601,-0.39 z m 75.898,-14.84 v -5.938 H 825.93 c 0.519,-4.902 2.289,-8.601 5.308,-11.101 3.024,-2.5 7.293,-3.75 12.813,-3.75 4.379,0 8.879,0.679 13.519,2.039 4.629,1.351 9.399,3.332 14.301,5.929 V 262.52 c -5,-1.879 -9.98,-3.309 -14.93,-4.301 -4.941,-0.989 -9.921,-1.477 -14.921,-1.477 -11.872,0 -21.09,3.02 -27.649,9.059 -6.57,6.039 -9.851,14.527 -9.851,25.469 0,10.621 3.23,19.011 9.691,25.16 6.461,6.14 15.359,9.211 26.719,9.211 10.308,0 18.57,-3.09 24.761,-9.289 6.2,-6.204 9.297,-14.512 9.297,-24.922 z m -21.558,7.031 c 0,3.961 -1.168,7.16 -3.52,9.609 -2.34,2.442 -5.39,3.672 -9.14,3.672 -4.059,0 -7.372,-1.152 -9.918,-3.441 -2.551,-2.289 -4.141,-5.571 -4.77,-9.84 z m -6.098,55.93 h 16.566 L 842.18,332.359 h -11.41 z m 106.289,-86.399 v -34.531 h -20.93 v 90.617 h 20.93 v -9.527 c 2.918,3.75 6.117,6.539 9.609,8.359 3.489,1.82 7.532,2.731 12.11,2.731 8.129,0 14.769,-3.2 19.922,-9.602 5.158,-6.41 7.738,-14.668 7.738,-24.769 0,-10.098 -2.58,-18.391 -7.738,-24.84 -5.153,-6.461 -11.793,-9.688 -19.922,-9.688 -4.578,0 -8.621,0.906 -12.11,2.727 -3.492,1.832 -6.691,4.66 -9.609,8.523 z m 13.91,42.5 c -4.48,0 -7.922,-1.672 -10.312,-5 -2.399,-3.344 -3.598,-8.07 -3.598,-14.222 0,-6.25 1.199,-11.02 3.598,-14.301 2.39,-3.278 5.832,-4.918 10.312,-4.918 4.481,0 7.918,1.64 10.309,4.918 2.398,3.281 3.601,8.051 3.601,14.301 0,6.25 -1.203,11.019 -3.601,14.3 -2.391,3.282 -5.828,4.922 -10.309,4.922 z m 80.429,-22.5 c -4.38,0 -7.68,-0.73 -9.92,-2.191 -2.24,-1.461 -3.36,-3.653 -3.36,-6.559 0,-2.711 0.91,-4.82 2.73,-6.332 1.83,-1.512 4.3,-2.269 7.42,-2.269 3.96,0 7.3,1.441 10,4.3 2.71,2.868 4.07,6.43 4.07,10.7 v 2.351 z m 32.03,7.969 v -37.5 h -21.09 v 9.68 c -2.82,-3.95 -5.99,-6.84 -9.53,-8.672 -3.55,-1.821 -7.82,-2.727 -12.82,-2.727 -6.87,0 -12.42,1.977 -16.64,5.938 -4.22,3.949 -6.33,9.109 -6.33,15.461 0,7.711 2.66,13.359 7.97,16.961 5.32,3.589 13.6,5.39 24.85,5.39 h 12.5 v 1.559 c 0,3.328 -1.33,5.777 -3.99,7.34 -2.65,1.57 -6.74,2.351 -12.26,2.351 -4.48,0 -8.65,-0.441 -12.5,-1.332 -3.86,-0.89 -7.45,-2.269 -10.78,-4.14 v 16.089 c 4.47,1.039 8.98,1.852 13.51,2.43 4.53,0.57 9.04,0.852 13.52,0.852 11.87,0 20.44,-2.309 25.7,-6.95 5.26,-4.632 7.89,-12.211 7.89,-22.73 z m 68.32,10.309 c -1.87,0.832 -3.72,1.46 -5.55,1.871 -1.82,0.418 -3.67,0.629 -5.54,0.629 -5.32,0 -9.43,-1.75 -12.35,-5.231 -2.91,-3.488 -4.37,-8.418 -4.37,-14.769 v -30.309 h -20.94 v 65.617 h 20.94 v -10.777 c 2.71,4.269 5.81,7.398 9.29,9.379 3.49,1.968 7.69,2.961 12.58,2.961 0.63,0 1.36,-0.02 2.19,-0.071 0.83,-0.058 2.03,-0.191 3.59,-0.39 z m 52.21,43.441 h 20.94 v -91.25 h -20.94 z m 106.6,-58.281 v -5.938 h -49.06 c 0.52,-4.902 2.29,-8.601 5.31,-11.101 3.02,-2.5 7.29,-3.75 12.81,-3.75 4.38,0 8.88,0.679 13.52,2.039 4.63,1.351 9.4,3.332 14.29,5.929 V 262.52 c -5,-1.879 -9.97,-3.309 -14.92,-4.301 -4.95,-0.989 -9.92,-1.477 -14.92,-1.477 -11.87,0 -21.09,3.02 -27.66,9.059 -6.56,6.039 -9.84,14.527 -9.84,25.469 0,10.621 3.23,19.011 9.69,25.16 6.46,6.14 15.36,9.211 26.72,9.211 10.31,0 18.56,-3.09 24.76,-9.289 6.2,-6.204 9.3,-14.512 9.3,-24.922 z m -21.56,7.031 c 0,3.961 -1.18,7.16 -3.52,9.609 -2.34,2.442 -5.39,3.672 -9.14,3.672 -4.06,0 -7.37,-1.152 -9.92,-3.441 -2.55,-2.289 -4.14,-5.571 -4.77,-9.84 z m 100.19,-30.469 v -34.531 h -20.94 v 90.617 h 20.94 v -9.527 c 2.92,3.75 6.12,6.539 9.61,8.359 3.49,1.82 7.53,2.731 12.11,2.731 8.13,0 14.77,-3.2 19.92,-9.602 5.16,-6.41 7.74,-14.668 7.74,-24.769 0,-10.098 -2.58,-18.391 -7.74,-24.84 -5.15,-6.461 -11.79,-9.688 -19.92,-9.688 -4.58,0 -8.62,0.906 -12.11,2.727 -3.49,1.832 -6.69,4.66 -9.61,8.523 z m 13.91,42.5 c -4.48,0 -7.92,-1.672 -10.31,-5 -2.4,-3.344 -3.6,-8.07 -3.6,-14.222 0,-6.25 1.2,-11.02 3.6,-14.301 2.39,-3.278 5.83,-4.918 10.31,-4.918 4.48,0 7.91,1.64 10.31,4.918 2.4,3.281 3.59,8.051 3.59,14.301 0,6.25 -1.19,11.019 -3.59,14.3 -2.4,3.282 -5.83,4.922 -10.31,4.922 z m 99.8,-4.222 c -1.87,0.832 -3.72,1.46 -5.54,1.871 -1.83,0.418 -3.68,0.629 -5.55,0.629 -5.31,0 -9.43,-1.75 -12.34,-5.231 -2.92,-3.488 -4.38,-8.418 -4.38,-14.769 v -30.309 h -20.94 v 65.617 h 20.94 v -10.777 c 2.71,4.269 5.81,7.398 9.3,9.379 3.49,1.968 7.68,2.961 12.58,2.961 0.62,0 1.35,-0.02 2.18,-0.071 0.84,-0.058 2.03,-0.191 3.6,-0.39 z m 41.53,4.371 c -4.59,0 -8.1,-1.661 -10.55,-5 -2.45,-3.332 -3.67,-8.121 -3.67,-14.371 0,-6.348 1.22,-11.2 3.67,-14.528 2.45,-3.344 5.96,-5 10.55,-5 4.58,0 8.1,1.656 10.54,5 2.45,3.328 3.68,8.18 3.68,14.528 0,6.25 -1.23,11.039 -3.68,14.371 -2.44,3.339 -5.96,5 -10.54,5 z m 0,15 c 11.35,0 20.2,-3.039 26.56,-9.141 6.35,-6.09 9.53,-14.5 9.53,-25.23 0,-10.829 -3.18,-19.301 -9.53,-25.391 -6.36,-6.09 -15.21,-9.137 -26.56,-9.137 -11.25,0 -20.08,3.047 -26.49,9.137 -6.4,6.09 -9.61,14.562 -9.61,25.391 0,10.73 3.21,19.14 9.61,25.23 6.41,6.102 15.24,9.141 26.49,9.141 z m 95.88,-56.09 c -2.82,-3.75 -5.97,-6.539 -9.46,-8.36 -3.49,-1.82 -7.52,-2.73 -12.11,-2.73 -8.02,0 -14.63,3.148 -19.84,9.449 -5.21,6.301 -7.81,14.352 -7.81,24.141 0,9.789 2.6,17.808 7.81,24.058 5.21,6.25 11.82,9.383 19.84,9.383 4.59,0 8.62,-0.89 12.11,-2.664 3.49,-1.769 6.64,-4.578 9.46,-8.437 v 9.687 h 21.09 V 265.02 c 0,-10.52 -3.33,-18.571 -10,-24.141 -6.67,-5.57 -16.3,-8.359 -28.91,-8.359 -4.06,0 -8.02,0.308 -11.87,0.941 -3.86,0.617 -7.71,1.609 -11.56,2.969 v 16.25 c 3.64,-2.09 7.23,-3.649 10.78,-4.688 3.54,-1.043 7.08,-1.562 10.62,-1.562 6.88,0 11.9,1.511 15.08,4.531 3.18,3.019 4.77,7.711 4.77,14.059 z m -13.75,40.941 c -4.38,0 -7.77,-1.621 -10.16,-4.851 -2.4,-3.219 -3.59,-7.762 -3.59,-13.59 0,-6.039 1.17,-10.602 3.51,-13.672 2.34,-3.07 5.76,-4.609 10.24,-4.609 4.37,0 7.76,1.589 10.15,4.769 2.4,3.172 3.6,7.68 3.6,13.512 0,5.828 -1.2,10.371 -3.6,13.59 -2.39,3.23 -5.78,4.851 -10.15,4.851 z m 103.86,-4.222 c -1.87,0.832 -3.72,1.46 -5.54,1.871 -1.83,0.418 -3.68,0.629 -5.55,0.629 -5.31,0 -9.43,-1.75 -12.35,-5.231 -2.91,-3.488 -4.37,-8.418 -4.37,-14.769 v -30.309 h -20.94 v 65.617 h 20.94 v -10.777 c 2.71,4.269 5.81,7.398 9.3,9.379 3.49,1.968 7.68,2.961 12.57,2.961 0.63,0 1.36,-0.02 2.19,-0.071 0.84,-0.058 2.03,-0.191 3.6,-0.39 z m 39.81,-18.278 c -4.38,0 -7.69,-0.73 -9.92,-2.191 -2.24,-1.461 -3.36,-3.653 -3.36,-6.559 0,-2.711 0.91,-4.82 2.73,-6.332 1.82,-1.512 4.3,-2.269 7.42,-2.269 3.96,0 7.29,1.441 10,4.3 2.71,2.868 4.06,6.43 4.06,10.7 v 2.351 z m 32.03,7.969 v -37.5 h -21.1 v 9.68 c -2.81,-3.95 -5.98,-6.84 -9.53,-8.672 -3.54,-1.821 -7.81,-2.727 -12.81,-2.727 -6.87,0 -12.42,1.977 -16.64,5.938 -4.22,3.949 -6.33,9.109 -6.33,15.461 0,7.711 2.66,13.359 7.97,16.961 5.31,3.589 13.59,5.39 24.84,5.39 h 12.5 v 1.559 c 0,3.328 -1.32,5.777 -3.98,7.34 -2.66,1.57 -6.74,2.351 -12.27,2.351 -4.47,0 -8.64,-0.441 -12.5,-1.332 -3.85,-0.89 -7.44,-2.269 -10.78,-4.14 v 16.089 c 4.48,1.039 8.99,1.852 13.52,2.43 4.53,0.57 9.04,0.852 13.51,0.852 11.88,0 20.45,-2.309 25.71,-6.95 5.26,-4.632 7.89,-12.211 7.89,-22.73 z m 80.35,17.18 c 2.6,4.07 5.73,7.168 9.37,9.3 3.65,2.141 7.66,3.2 12.04,3.2 7.6,0 13.38,-2.309 17.34,-6.95 3.96,-4.632 5.94,-11.382 5.94,-20.23 v -40 h -21.1 v 34.219 c 0,0.519 0,1.039 0,1.562 0,0.52 0,1.297 0,2.336 0,4.692 -0.67,8.07 -2.03,10.164 -1.35,2.078 -3.54,3.117 -6.56,3.117 -3.96,0 -7.03,-1.64 -9.22,-4.918 -2.19,-3.281 -3.33,-8.05 -3.44,-14.3 v -32.18 h -21.09 v 34.219 c 0,7.289 -0.63,11.968 -1.88,14.062 -1.25,2.078 -3.48,3.117 -6.71,3.117 -3.96,0 -7.04,-1.64 -9.22,-4.918 -2.19,-3.281 -3.28,-7.992 -3.28,-14.14 v -32.34 h -21.1 v 65.617 h 21.1 v -9.527 c 2.6,3.648 5.57,6.41 8.9,8.277 3.34,1.883 6.98,2.813 10.94,2.813 4.58,0 8.62,-1.09 12.11,-3.282 3.49,-2.179 6.12,-5.257 7.89,-9.218 z m 125.04,0 c 2.6,4.07 5.73,7.168 9.37,9.3 3.65,2.141 7.66,3.2 12.04,3.2 7.6,0 13.38,-2.309 17.34,-6.95 3.96,-4.632 5.94,-11.382 5.94,-20.23 v -40 h -21.1 v 34.219 c 0,0.519 0,1.039 0,1.562 0,0.52 0,1.297 0,2.336 0,4.692 -0.67,8.07 -2.03,10.164 -1.35,2.078 -3.54,3.117 -6.56,3.117 -3.96,0 -7.03,-1.64 -9.22,-4.918 -2.19,-3.281 -3.33,-8.05 -3.44,-14.3 v -32.18 h -21.09 v 34.219 c 0,7.289 -0.63,11.968 -1.88,14.062 -1.25,2.078 -3.49,3.117 -6.71,3.117 -3.96,0 -7.04,-1.64 -9.22,-4.918 -2.19,-3.281 -3.28,-7.992 -3.28,-14.14 v -32.34 h -21.1 v 65.617 h 21.1 v -9.527 c 2.6,3.648 5.57,6.41 8.9,8.277 3.33,1.883 6.98,2.813 10.94,2.813 4.58,0 8.62,-1.09 12.11,-3.282 3.49,-2.179 6.12,-5.257 7.89,-9.218 z m 129.73,-21.711 v -5.938 h -49.07 c 0.52,-4.902 2.29,-8.601 5.32,-11.101 3.02,-2.5 7.29,-3.75 12.81,-3.75 4.37,0 8.88,0.679 13.51,2.039 4.64,1.351 9.4,3.332 14.3,5.929 V 262.52 c -5,-1.879 -9.97,-3.309 -14.92,-4.301 -4.95,-0.989 -9.92,-1.477 -14.92,-1.477 -11.88,0 -21.1,3.02 -27.66,9.059 -6.56,6.039 -9.84,14.527 -9.84,25.469 0,10.621 3.23,19.011 9.68,25.16 6.46,6.14 15.37,9.211 26.72,9.211 10.32,0 18.57,-3.09 24.77,-9.289 6.2,-6.204 9.3,-14.512 9.3,-24.922 z m -21.57,7.031 c 0,3.961 -1.17,7.16 -3.51,9.609 -2.35,2.442 -5.39,3.672 -9.14,3.672 -4.07,0 -7.37,-1.152 -9.93,-3.441 -2.55,-2.289 -4.14,-5.571 -4.76,-9.84 h 27.34" /><path
         id="path36"
         style="fill:url(#linearGradient34);fill-opacity:1;fill-rule:nonzero;stroke:none"
         d="M 3150,150 H 7650 V 450 H 3150 Z" /><path
         id="path38"
         style="fill:#ffffff;fill-opacity:1;fill-rule:nonzero;stroke:none"
         d="m 4320.13,265.02 c -5.63,-2.809 -11.46,-4.899 -17.5,-6.25 -6.04,-1.348 -12.29,-2.028 -18.75,-2.028 -14.59,0 -26.15,4.09 -34.69,12.258 -8.54,8.18 -12.81,19.199 -12.81,33.051 0,14.168 4.35,25.289 13.04,33.359 8.7,8.07 20.6,12.11 35.71,12.11 5.73,0 11.27,-0.551 16.64,-1.641 5.36,-1.09 10.39,-2.738 15.08,-4.918 v -17.969 c -4.9,2.707 -9.74,4.738 -14.54,6.086 -4.79,1.363 -9.63,2.031 -14.53,2.031 -8.96,0 -15.86,-2.5 -20.7,-7.5 -4.84,-5 -7.27,-12.179 -7.27,-21.558 0,-9.172 2.35,-16.281 7.04,-21.332 4.68,-5.047 11.3,-7.578 19.84,-7.578 2.4,0 4.61,0.129 6.64,0.398 2.03,0.262 3.83,0.703 5.39,1.32 v 17.032 h -13.75 v 15.16 h 35.16 z m 84.43,26.41 v -5.938 h -49.06 c 0.52,-4.902 2.29,-8.601 5.31,-11.101 3.02,-2.5 7.29,-3.75 12.81,-3.75 4.38,0 8.88,0.679 13.52,2.039 4.63,1.351 9.4,3.332 14.3,5.929 V 262.52 c -5,-1.879 -9.98,-3.309 -14.93,-4.301 -4.94,-0.989 -9.92,-1.477 -14.92,-1.477 -11.87,0 -21.09,3.02 -27.65,9.059 -6.57,6.039 -9.85,14.527 -9.85,25.469 0,10.621 3.23,19.011 9.69,25.16 6.46,6.14 15.36,9.211 26.72,9.211 10.31,0 18.57,-3.09 24.76,-9.289 6.2,-6.204 9.3,-14.512 9.3,-24.922 z m -21.56,7.031 c 0,3.961 -1.17,7.16 -3.52,9.609 -2.34,2.442 -5.39,3.672 -9.14,3.672 -4.06,0 -7.37,-1.152 -9.92,-3.441 -2.55,-2.289 -4.14,-5.571 -4.77,-9.84 z m -6.1,55.93 h 16.57 l -21.72,-22.032 h -11.41 z m 92.33,-48.121 c -1.88,0.832 -3.73,1.46 -5.55,1.871 -1.82,0.418 -3.67,0.629 -5.55,0.629 -5.31,0 -9.42,-1.75 -12.34,-5.231 -2.92,-3.488 -4.37,-8.418 -4.37,-14.769 v -30.309 h -20.94 v 65.617 h 20.94 v -10.777 c 2.7,4.269 5.8,7.398 9.29,9.379 3.49,1.968 7.69,2.961 12.58,2.961 0.63,0 1.36,-0.02 2.19,-0.071 0.83,-0.058 2.03,-0.191 3.59,-0.39 z m 75.9,-14.84 v -5.938 h -49.07 c 0.53,-4.902 2.3,-8.601 5.32,-11.101 3.02,-2.5 7.29,-3.75 12.81,-3.75 4.37,0 8.88,0.679 13.52,2.039 4.63,1.351 9.4,3.332 14.29,5.929 V 262.52 c -5,-1.879 -9.97,-3.309 -14.92,-4.301 -4.95,-0.989 -9.92,-1.477 -14.92,-1.477 -11.88,0 -21.1,3.02 -27.66,9.059 -6.56,6.039 -9.84,14.527 -9.84,25.469 0,10.621 3.23,19.011 9.69,25.16 6.45,6.14 15.36,9.211 26.71,9.211 10.32,0 18.57,-3.09 24.77,-9.289 6.2,-6.204 9.3,-14.512 9.3,-24.922 z m -21.57,7.031 c 0,3.961 -1.17,7.16 -3.51,9.609 -2.34,2.442 -5.39,3.672 -9.14,3.672 -4.06,0 -7.37,-1.152 -9.92,-3.441 -2.56,-2.289 -4.14,-5.571 -4.77,-9.84 z m -6.09,55.93 h 16.56 l -21.72,-22.032 h -11.4 z m 106.29,-86.399 v -34.531 h -20.94 v 90.617 h 20.94 v -9.527 c 2.92,3.75 6.12,6.539 9.61,8.359 3.49,1.82 7.53,2.731 12.11,2.731 8.12,0 14.76,-3.2 19.92,-9.602 5.16,-6.41 7.73,-14.668 7.73,-24.769 0,-10.098 -2.57,-18.391 -7.73,-24.84 -5.16,-6.461 -11.8,-9.688 -19.92,-9.688 -4.58,0 -8.62,0.906 -12.11,2.727 -3.49,1.832 -6.69,4.66 -9.61,8.523 z m 13.91,42.5 c -4.48,0 -7.92,-1.672 -10.32,-5 -2.39,-3.344 -3.59,-8.07 -3.59,-14.222 0,-6.25 1.2,-11.02 3.59,-14.301 2.4,-3.278 5.84,-4.918 10.32,-4.918 4.48,0 7.91,1.64 10.31,4.918 2.39,3.281 3.59,8.051 3.59,14.301 0,6.25 -1.2,11.019 -3.59,14.3 -2.4,3.282 -5.83,4.922 -10.31,4.922 z m 80.43,-22.5 c -4.38,0 -7.69,-0.73 -9.93,-2.191 -2.24,-1.461 -3.36,-3.653 -3.36,-6.559 0,-2.711 0.92,-4.82 2.74,-6.332 1.82,-1.512 4.3,-2.269 7.42,-2.269 3.96,0 7.29,1.441 10,4.3 2.71,2.868 4.06,6.43 4.06,10.7 v 2.351 z m 32.03,7.969 v -37.5 h -21.1 v 9.68 c -2.81,-3.95 -5.99,-6.84 -9.53,-8.672 -3.54,-1.821 -7.81,-2.727 -12.81,-2.727 -6.88,0 -12.42,1.977 -16.64,5.938 -4.22,3.949 -6.33,9.109 -6.33,15.461 0,7.711 2.66,13.359 7.97,16.961 5.31,3.589 13.59,5.39 24.84,5.39 h 12.5 v 1.559 c 0,3.328 -1.32,5.777 -3.98,7.34 -2.66,1.57 -6.75,2.351 -12.27,2.351 -4.48,0 -8.64,-0.441 -12.5,-1.332 -3.85,-0.89 -7.44,-2.269 -10.78,-4.14 v 16.089 c 4.48,1.039 8.99,1.852 13.52,2.43 4.53,0.57 9.03,0.852 13.51,0.852 11.88,0 20.45,-2.309 25.71,-6.95 5.26,-4.632 7.89,-12.211 7.89,-22.73 z m 68.32,10.309 c -1.88,0.832 -3.73,1.46 -5.55,1.871 -1.82,0.418 -3.67,0.629 -5.55,0.629 -5.31,0 -9.42,-1.75 -12.34,-5.231 -2.92,-3.488 -4.38,-8.418 -4.38,-14.769 v -30.309 h -20.93 v 65.617 h 20.93 v -10.777 c 2.71,4.269 5.81,7.398 9.3,9.379 3.49,1.968 7.68,2.961 12.58,2.961 0.62,0 1.35,-0.02 2.19,-0.071 0.83,-0.058 2.03,-0.191 3.59,-0.39 z m 52.2,43.441 h 20.94 v -91.25 h -20.94 z m 106.61,-58.281 v -5.938 h -49.07 c 0.52,-4.902 2.3,-8.601 5.32,-11.101 3.02,-2.5 7.29,-3.75 12.81,-3.75 4.37,0 8.88,0.679 13.51,2.039 4.64,1.351 9.41,3.332 14.3,5.929 V 262.52 c -5,-1.879 -9.97,-3.309 -14.92,-4.301 -4.95,-0.989 -9.92,-1.477 -14.92,-1.477 -11.88,0 -21.1,3.02 -27.66,9.059 -6.56,6.039 -9.84,14.527 -9.84,25.469 0,10.621 3.23,19.011 9.68,25.16 6.46,6.14 15.37,9.211 26.72,9.211 10.32,0 18.57,-3.09 24.77,-9.289 6.2,-6.204 9.3,-14.512 9.3,-24.922 z m -21.57,7.031 c 0,3.961 -1.17,7.16 -3.51,9.609 -2.35,2.442 -5.39,3.672 -9.14,3.672 -4.07,0 -7.37,-1.152 -9.92,-3.441 -2.56,-2.289 -4.15,-5.571 -4.77,-9.84 z m 130.51,23.59 v -15.942 c -4.48,1.883 -8.83,3.282 -13.05,4.219 -4.21,0.942 -8.15,1.414 -11.79,1.414 -4.07,0 -7.06,-0.504 -8.99,-1.492 -1.92,-0.988 -2.89,-2.52 -2.89,-4.609 0,-1.661 0.73,-2.942 2.19,-3.821 1.46,-0.89 4.11,-1.59 7.97,-2.109 l 3.59,-0.469 c 10.84,-1.363 18.1,-3.601 21.8,-6.722 3.7,-3.129 5.55,-8.02 5.55,-14.692 0,-6.976 -2.58,-12.238 -7.74,-15.777 -5.15,-3.539 -12.84,-5.309 -23.05,-5.309 -4.37,0 -8.88,0.34 -13.51,1.008 -4.64,0.68 -9.4,1.699 -14.3,3.051 v 15.941 c 4.17,-1.98 8.47,-3.492 12.89,-4.531 4.43,-1.039 8.88,-1.57 13.36,-1.57 4.17,0 7.27,0.578 9.3,1.718 2.03,1.153 3.05,2.871 3.05,5.161 0,1.871 -0.71,3.25 -2.11,4.14 -1.41,0.891 -4.25,1.59 -8.52,2.11 l -3.75,0.472 c -9.27,1.137 -15.78,3.309 -19.53,6.477 -3.75,3.179 -5.63,8 -5.63,14.461 0,6.968 2.37,12.129 7.11,15.461 4.74,3.339 12.06,5 21.96,5 3.85,0 7.91,-0.282 12.18,-0.852 4.28,-0.578 8.91,-1.488 13.91,-2.738 z m 11.43,2.027 h 21.09 l 17.66,-44.527 15,44.527 h 20.93 l -27.65,-71.867 c -2.71,-7.289 -5.91,-12.402 -9.61,-15.32 -3.7,-2.911 -8.57,-4.371 -14.61,-4.371 h -12.19 v 13.75 h 6.56 c 3.55,0 6.12,0.57 7.74,1.722 1.61,1.137 2.89,3.18 3.83,6.086 l 0.62,1.883 z m 138.22,-2.027 v -15.942 c -4.48,1.883 -8.83,3.282 -13.05,4.219 -4.22,0.942 -8.15,1.414 -11.79,1.414 -4.07,0 -7.06,-0.504 -8.99,-1.492 -1.93,-0.988 -2.89,-2.52 -2.89,-4.609 0,-1.661 0.73,-2.942 2.19,-3.821 1.46,-0.89 4.11,-1.59 7.97,-2.109 l 3.59,-0.469 c 10.83,-1.363 18.1,-3.601 21.8,-6.722 3.7,-3.129 5.54,-8.02 5.54,-14.692 0,-6.976 -2.57,-12.238 -7.73,-15.777 -5.16,-3.539 -12.84,-5.309 -23.05,-5.309 -4.37,0 -8.88,0.34 -13.51,1.008 -4.64,0.68 -9.4,1.699 -14.3,3.051 v 15.941 c 4.17,-1.98 8.46,-3.492 12.89,-4.531 4.43,-1.039 8.88,-1.57 13.36,-1.57 4.17,0 7.27,0.578 9.3,1.718 2.03,1.153 3.04,2.871 3.04,5.161 0,1.871 -0.7,3.25 -2.1,4.14 -1.41,0.891 -4.25,1.59 -8.52,2.11 l -3.75,0.472 c -9.27,1.137 -15.78,3.309 -19.53,6.477 -3.75,3.179 -5.63,8 -5.63,14.461 0,6.968 2.37,12.129 7.11,15.461 4.74,3.339 12.06,5 21.96,5 3.85,0 7.91,-0.282 12.18,-0.852 4.27,-0.578 8.91,-1.488 13.91,-2.738 z m 42.99,20.629 v -18.602 h 21.72 v -15 h -21.72 V 281.27 c 0,-3.02 0.6,-5.079 1.79,-6.168 1.2,-1.102 3.62,-1.641 7.27,-1.641 h 10.78 v -15 h -17.97 c -8.33,0 -14.22,1.719 -17.65,5.148 -3.44,3.442 -5.16,9.332 -5.16,17.661 v 27.808 h -10.47 v 15 h 10.47 v 18.602 z m 100.02,-51.25 v -5.938 h -49.07 c 0.53,-4.902 2.3,-8.601 5.32,-11.101 3.02,-2.5 7.29,-3.75 12.81,-3.75 4.37,0 8.88,0.679 13.52,2.039 4.63,1.351 9.4,3.332 14.29,5.929 V 262.52 c -5,-1.879 -9.97,-3.309 -14.92,-4.301 -4.95,-0.989 -9.92,-1.477 -14.92,-1.477 -11.88,0 -21.1,3.02 -27.66,9.059 -6.56,6.039 -9.84,14.527 -9.84,25.469 0,10.621 3.23,19.011 9.69,25.16 6.45,6.14 15.36,9.211 26.71,9.211 10.32,0 18.57,-3.09 24.77,-9.289 6.2,-6.204 9.3,-14.512 9.3,-24.922 z m -21.57,7.031 c 0,3.961 -1.17,7.16 -3.51,9.609 -2.34,2.442 -5.39,3.672 -9.14,3.672 -4.06,0 -7.37,-1.152 -9.92,-3.441 -2.56,-2.289 -4.14,-5.571 -4.77,-9.84 z m -22.03,55.93 16.57,-22.032 h -11.41 l -21.72,22.032 z m 120.3,-41.25 c 2.6,4.07 5.73,7.168 9.37,9.3 3.65,2.141 7.66,3.2 12.03,3.2 7.61,0 13.39,-2.309 17.35,-6.95 3.95,-4.632 5.93,-11.382 5.93,-20.23 v -40 h -21.09 v 34.219 c 0,0.519 0,1.039 0,1.562 0,0.52 0,1.297 0,2.336 0,4.692 -0.68,8.07 -2.03,10.164 -1.36,2.078 -3.54,3.117 -6.56,3.117 -3.96,0 -7.03,-1.64 -9.22,-4.918 -2.19,-3.281 -3.34,-8.05 -3.44,-14.3 v -32.18 h -21.09 v 34.219 c 0,7.289 -0.63,11.968 -1.88,14.062 -1.25,2.078 -3.49,3.117 -6.72,3.117 -3.96,0 -7.03,-1.64 -9.22,-4.918 -2.18,-3.281 -3.28,-7.992 -3.28,-14.14 v -32.34 h -21.09 v 65.617 h 21.09 v -9.527 c 2.61,3.648 5.58,6.41 8.91,8.277 3.33,1.883 6.98,2.813 10.94,2.813 4.58,0 8.62,-1.09 12.11,-3.282 3.49,-2.179 6.12,-5.257 7.89,-9.218 z m 129.72,-21.711 v -5.938 h -49.06 c 0.52,-4.902 2.29,-8.601 5.31,-11.101 3.02,-2.5 7.29,-3.75 12.82,-3.75 4.37,0 8.88,0.679 13.51,2.039 4.64,1.351 9.4,3.332 14.3,5.929 V 262.52 c -5,-1.879 -9.98,-3.309 -14.92,-4.301 -4.95,-0.989 -9.93,-1.477 -14.93,-1.477 -11.87,0 -21.09,3.02 -27.65,9.059 -6.56,6.039 -9.85,14.527 -9.85,25.469 0,10.621 3.23,19.011 9.69,25.16 6.46,6.14 15.37,9.211 26.72,9.211 10.31,0 18.57,-3.09 24.77,-9.289 6.19,-6.204 9.29,-14.512 9.29,-24.922 z m -21.56,7.031 c 0,3.961 -1.17,7.16 -3.51,9.609 -2.35,2.442 -5.4,3.672 -9.15,3.672 -4.06,0 -7.37,-1.152 -9.92,-3.441 -2.55,-2.289 -4.14,-5.571 -4.76,-9.84 z m 123.79,16.09 v 35.16 h 21.09 v -91.25 h -21.09 v 9.531 c -2.81,-3.863 -5.96,-6.691 -9.45,-8.523 -3.49,-1.821 -7.53,-2.727 -12.11,-2.727 -8.13,0 -14.77,3.227 -19.92,9.688 -5.16,6.449 -7.74,14.742 -7.74,24.84 0,10.101 2.58,18.359 7.74,24.769 5.15,6.402 11.79,9.602 19.92,9.602 4.48,0 8.49,-0.911 12.03,-2.731 3.54,-1.82 6.72,-4.609 9.53,-8.359 z m -13.75,-42.5 c 4.48,0 7.89,1.64 10.23,4.918 2.35,3.281 3.52,8.051 3.52,14.301 0,6.25 -1.17,11.019 -3.52,14.3 -2.34,3.282 -5.75,4.922 -10.23,4.922 -4.48,0 -7.89,-1.64 -10.23,-4.922 -2.35,-3.281 -3.52,-8.05 -3.52,-14.3 0,-6.25 1.17,-11.02 3.52,-14.301 2.34,-3.278 5.75,-4.918 10.23,-4.918 z m 70.27,73.91 v -32.5 h -13.9 v 32.5 z m 87.05,-54.531 v -5.938 h -49.06 c 0.52,-4.902 2.29,-8.601 5.31,-11.101 3.02,-2.5 7.3,-3.75 12.82,-3.75 4.37,0 8.88,0.679 13.51,2.039 4.64,1.351 9.4,3.332 14.3,5.929 V 262.52 c -5,-1.879 -9.97,-3.309 -14.92,-4.301 -4.95,-0.989 -9.92,-1.477 -14.92,-1.477 -11.88,0 -21.1,3.02 -27.66,9.059 -6.56,6.039 -9.84,14.527 -9.84,25.469 0,10.621 3.22,19.011 9.68,25.16 6.46,6.14 15.37,9.211 26.72,9.211 10.31,0 18.57,-3.09 24.77,-9.289 6.2,-6.204 9.29,-14.512 9.29,-24.922 z m -21.56,7.031 c 0,3.961 -1.17,7.16 -3.51,9.609 -2.35,2.442 -5.39,3.672 -9.14,3.672 -4.07,0 -7.37,-1.152 -9.93,-3.441 -2.55,-2.289 -4.14,-5.571 -4.76,-9.84 z m 54.04,-6.41 -23.75,32.027 H 5862 l 13.44,-19.367 13.59,19.367 h 22.19 l -23.59,-31.867 24.84,-33.75 h -22.19 l -14.84,20.781 -14.53,-20.781 h -22.19 z m 81.78,-24.059 v -34.531 h -20.94 v 90.617 h 20.94 v -9.527 c 2.92,3.75 6.12,6.539 9.61,8.359 3.49,1.82 7.53,2.731 12.11,2.731 8.13,0 14.77,-3.2 19.92,-9.602 5.16,-6.41 7.74,-14.668 7.74,-24.769 0,-10.098 -2.58,-18.391 -7.74,-24.84 -5.15,-6.461 -11.79,-9.688 -19.92,-9.688 -4.58,0 -8.62,0.906 -12.11,2.727 -3.49,1.832 -6.69,4.66 -9.61,8.523 z m 13.91,42.5 c -4.48,0 -7.92,-1.672 -10.31,-5 -2.4,-3.344 -3.6,-8.07 -3.6,-14.222 0,-6.25 1.2,-11.02 3.6,-14.301 2.39,-3.278 5.83,-4.918 10.31,-4.918 4.48,0 7.91,1.64 10.31,4.918 2.4,3.281 3.59,8.051 3.59,14.301 0,6.25 -1.19,11.019 -3.59,14.3 -2.4,3.282 -5.83,4.922 -10.31,4.922 z m 51.05,39.219 h 20.94 v -91.25 h -20.94 z m 72.23,-39.07 c -4.58,0 -8.1,-1.661 -10.55,-5 -2.45,-3.332 -3.67,-8.121 -3.67,-14.371 0,-6.348 1.22,-11.2 3.67,-14.528 2.45,-3.344 5.97,-5 10.55,-5 4.58,0 8.1,1.656 10.55,5 2.44,3.328 3.67,8.18 3.67,14.528 0,6.25 -1.23,11.039 -3.67,14.371 -2.45,3.339 -5.97,5 -10.55,5 z m 0,15 c 11.35,0 20.21,-3.039 26.56,-9.141 6.36,-6.09 9.53,-14.5 9.53,-25.23 0,-10.829 -3.17,-19.301 -9.53,-25.391 -6.35,-6.09 -15.21,-9.137 -26.56,-9.137 -11.25,0 -20.08,3.047 -26.49,9.137 -6.4,6.09 -9.6,14.562 -9.6,25.391 0,10.73 3.2,19.14 9.6,25.23 6.41,6.102 15.24,9.141 26.49,9.141 z m 51.35,-1.563 h 20.93 v -65.617 h -20.93 z m 0,25.633 h 20.93 V 332.52 h -20.93 z m 63.94,-7.031 v -18.602 h 21.72 v -15 h -21.72 V 281.27 c 0,-3.02 0.6,-5.079 1.8,-6.168 1.2,-1.102 3.62,-1.641 7.26,-1.641 h 10.79 v -15 h -17.97 c -8.34,0 -14.22,1.719 -17.66,5.148 -3.44,3.442 -5.16,9.332 -5.16,17.661 v 27.808 h -10.46 v 15 h 10.46 v 18.602 z m 63.93,-54.688 c -4.38,0 -7.68,-0.73 -9.92,-2.191 -2.24,-1.461 -3.36,-3.653 -3.36,-6.559 0,-2.711 0.91,-4.82 2.73,-6.332 1.82,-1.512 4.3,-2.269 7.42,-2.269 3.96,0 7.29,1.441 10,4.3 2.71,2.868 4.07,6.43 4.07,10.7 v 2.351 z m 32.03,7.969 v -37.5 h -21.09 v 9.68 c -2.82,-3.95 -5.99,-6.84 -9.54,-8.672 -3.54,-1.821 -7.81,-2.727 -12.81,-2.727 -6.87,0 -12.42,1.977 -16.64,5.938 -4.22,3.949 -6.33,9.109 -6.33,15.461 0,7.711 2.66,13.359 7.97,16.961 5.31,3.589 13.6,5.39 24.85,5.39 h 12.5 v 1.559 c 0,3.328 -1.33,5.777 -3.99,7.34 -2.66,1.57 -6.74,2.351 -12.26,2.351 -4.48,0 -8.65,-0.441 -12.5,-1.332 -3.86,-0.89 -7.45,-2.269 -10.79,-4.14 v 16.089 c 4.48,1.039 8.99,1.852 13.52,2.43 4.53,0.57 9.04,0.852 13.52,0.852 11.87,0 20.44,-2.309 25.7,-6.95 5.26,-4.632 7.89,-12.211 7.89,-22.73 z m 42.38,46.719 v -18.602 h 21.72 v -15 h -21.72 V 281.27 c 0,-3.02 0.6,-5.079 1.8,-6.168 1.2,-1.102 3.62,-1.641 7.26,-1.641 h 10.79 v -15 h -17.97 c -8.34,0 -14.22,1.719 -17.66,5.148 -3.44,3.442 -5.16,9.332 -5.16,17.661 v 27.808 h -10.46 v 15 h 10.46 v 18.602 z m 34.55,-18.602 h 20.94 v -65.617 h -20.94 z m 0,25.633 h 20.94 V 332.52 h -20.94 z m 72.23,-39.07 c -4.58,0 -8.1,-1.661 -10.55,-5 -2.45,-3.332 -3.67,-8.121 -3.67,-14.371 0,-6.348 1.22,-11.2 3.67,-14.528 2.45,-3.344 5.97,-5 10.55,-5 4.58,0 8.1,1.656 10.55,5 2.44,3.328 3.67,8.18 3.67,14.528 0,6.25 -1.23,11.039 -3.67,14.371 -2.45,3.339 -5.97,5 -10.55,5 z m 0,15 c 11.35,0 20.21,-3.039 26.56,-9.141 6.36,-6.09 9.53,-14.5 9.53,-25.23 0,-10.829 -3.17,-19.301 -9.53,-25.391 -6.35,-6.09 -15.21,-9.137 -26.56,-9.137 -11.25,0 -20.08,3.047 -26.48,9.137 -6.41,6.09 -9.61,14.562 -9.61,25.391 0,10.73 3.2,19.14 9.61,25.23 6.4,6.102 15.23,9.141 26.48,9.141 z m 117.28,-27.18 v -40 h -21.09 v 30.617 c 0,5.633 -0.13,9.512 -0.39,11.641 -0.26,2.14 -0.7,3.73 -1.33,4.773 -0.83,1.348 -1.95,2.418 -3.36,3.199 -1.4,0.778 -2.99,1.168 -4.76,1.168 -4.38,0 -7.82,-1.687 -10.32,-5.07 -2.5,-3.391 -3.75,-8.047 -3.75,-13.988 v -32.34 h -20.93 v 65.617 h 20.93 v -9.527 c 3.13,3.75 6.46,6.539 10,8.359 3.55,1.82 7.5,2.731 11.88,2.731 7.5,0 13.23,-2.309 17.19,-6.95 3.96,-4.632 5.93,-11.382 5.93,-20.23" /><path
         id="path46"
         style="fill:url(#linearGradient44);fill-opacity:1;fill-rule:nonzero;stroke:none"
         d="m 150,750 h 900 v 400 H 150 Z" /><path
         id="path48"
         style="fill:none;stroke:#000000;stroke-width:10;stroke-linecap:butt;stroke-linejoin:miter;stroke-miterlimit:1.45000005;stroke-dasharray:none;stroke-opacity:1"
         d="m 150,750 h 900 v 400 H 150 Z" /><path
         id="path50"
         style="fill:#000000;fill-opacity:1;fill-rule:nonzero;stroke:none"
         d="m 272.711,986.27 v -32.969 h 14.84 c 5.519,0 9.789,1.429 12.808,4.301 3.02,2.859 4.532,6.949 4.532,12.257 0,5.211 -1.512,9.25 -4.532,12.11 -3.019,2.871 -7.289,4.301 -12.808,4.301 z m -11.883,9.691 h 26.723 c 9.89,0 17.34,-2.223 22.34,-6.641 5,-4.429 7.5,-10.922 7.5,-19.461 0,-8.64 -2.5,-15.179 -7.5,-19.609 -5,-4.422 -12.45,-6.641 -22.34,-6.641 h -14.84 v -35.148 h -11.883 z m 110.024,-31.879 c -1.25,0.629 -2.582,1.117 -3.981,1.488 -1.41,0.36 -3,0.539 -4.769,0.539 -6.043,0 -10.704,-1.98 -13.981,-5.929 -3.289,-3.961 -4.93,-9.692 -4.93,-17.192 V 908.461 H 332.41 v 65.621 h 10.781 V 963.93 c 2.297,3.949 5.258,6.898 8.911,8.82 3.648,1.93 8.07,2.891 13.277,2.891 0.73,0 1.543,-0.051 2.422,-0.153 0.89,-0.109 1.847,-0.258 2.89,-0.468 z m 36.679,2.5 c -5.73,0 -10.293,-2.262 -13.672,-6.793 -3.39,-4.539 -5.078,-10.707 -5.078,-18.519 0,-7.918 1.668,-14.122 5,-18.59 3.328,-4.481 7.918,-6.719 13.75,-6.719 5.731,0 10.289,2.258 13.668,6.789 3.391,4.539 5.082,10.711 5.082,18.52 0,7.71 -1.691,13.851 -5.082,18.441 -3.379,4.578 -7.937,6.871 -13.668,6.871 z m 0,9.059 c 9.367,0 16.739,-3.039 22.11,-9.141 5.359,-6.09 8.05,-14.5 8.05,-25.23 0,-10.731 -2.691,-19.168 -8.05,-25.309 -5.371,-6.152 -12.743,-9.223 -22.11,-9.223 -9.383,0 -16.75,3.071 -22.109,9.223 -5.363,6.141 -8.051,14.578 -8.051,25.309 0,10.73 2.688,19.14 8.051,25.23 5.359,6.102 12.726,9.141 22.109,9.141 z m 91.231,-33.59 c 0,7.808 -1.614,13.847 -4.84,18.129 -3.231,4.269 -7.762,6.402 -13.602,6.402 -5.73,0 -10.211,-2.133 -13.441,-6.402 -3.219,-4.282 -4.84,-10.321 -4.84,-18.129 0,-7.813 1.621,-13.852 4.84,-18.121 3.23,-4.282 7.711,-6.41 13.441,-6.41 5.84,0 10.371,2.128 13.602,6.41 3.226,4.269 4.84,10.308 4.84,18.121 z m 10.777,-25.469 c 0,-11.141 -2.469,-19.453 -7.418,-24.922 -4.949,-5.469 -12.582,-8.199 -22.891,-8.199 -3.75,0 -7.32,0.277 -10.699,0.859 -3.39,0.571 -6.652,1.43 -9.769,2.571 v 10.468 c 3.117,-1.66 6.25,-2.91 9.367,-3.75 3.133,-0.828 6.25,-1.25 9.383,-1.25 7.078,0 12.398,1.852 15.937,5.551 3.539,3.699 5.313,9.301 5.313,16.801 v 5.309 c -2.293,-3.848 -5.16,-6.75 -8.59,-8.668 -3.442,-1.93 -7.613,-2.891 -12.5,-2.891 -8.024,0 -14.512,3.07 -19.461,9.219 -4.949,6.14 -7.422,14.269 -7.422,24.371 0,10.097 2.473,18.23 7.422,24.379 4.949,6.14 11.437,9.211 19.461,9.211 4.887,0 9.058,-0.961 12.5,-2.891 3.43,-1.922 6.297,-4.809 8.59,-8.668 v 10 h 10.777 z m 60.242,47.5 c -1.25,0.629 -2.582,1.117 -3.992,1.488 -1.41,0.36 -2.988,0.539 -4.758,0.539 -6.051,0 -10.711,-1.98 -13.992,-5.929 -3.277,-3.961 -4.918,-9.692 -4.918,-17.192 V 908.461 H 531.34 v 65.621 h 10.781 V 963.93 c 2.289,3.949 5.258,6.898 8.91,8.82 3.641,1.93 8.071,2.891 13.278,2.891 0.73,0 1.531,-0.051 2.421,-0.153 0.879,-0.109 1.852,-0.258 2.891,-0.468 z m 41.051,-22.652 c -8.652,0 -14.66,-0.989 -18.051,-2.969 -3.383,-1.981 -5.07,-5.371 -5.07,-10.16 0,-3.852 1.269,-6.903 3.82,-9.141 2.559,-2.238 5.969,-3.359 10.239,-3.359 6.039,0 10.859,2.109 14.449,6.328 3.59,4.223 5.39,9.871 5.39,16.953 v 2.348 z m 21.559,4.531 v -37.5 h -10.782 v 10 c -2.5,-3.961 -5.57,-6.902 -9.218,-8.832 -3.641,-1.93 -8.121,-2.891 -13.43,-2.891 -6.781,0 -12.141,1.903 -16.102,5.703 -3.961,3.797 -5.937,8.829 -5.937,15.079 0,7.402 2.476,12.968 7.43,16.718 4.937,3.75 12.308,5.621 22.109,5.621 h 15.148 v 1.102 c 0,5 -1.64,8.848 -4.918,11.559 -3.281,2.71 -7.839,4.062 -13.671,4.062 -3.75,0 -7.418,-0.473 -11.02,-1.402 -3.59,-0.942 -7,-2.301 -10.23,-4.071 v 10 c 3.96,1.571 7.781,2.711 11.48,3.442 3.699,0.73 7.32,1.09 10.859,1.09 9.481,0 16.563,-2.442 21.25,-7.34 4.692,-4.903 7.032,-12.34 7.032,-22.34 z m 73.23,15.469 c 2.699,4.89 5.93,8.492 9.68,10.781 3.75,2.289 8.179,3.43 13.281,3.43 6.879,0 12.168,-2.391 15.859,-7.18 3.7,-4.789 5.547,-11.57 5.547,-20.32 v -39.68 h -10.777 v 39.219 c 0,6.351 -1.121,11.039 -3.359,14.058 -2.243,3.024 -5.653,4.532 -10.231,4.532 -5.633,0 -10.062,-1.848 -13.289,-5.551 -3.23,-3.699 -4.844,-8.77 -4.844,-15.231 v -37.027 h -10.777 v 39.219 c 0,6.351 -1.121,11.039 -3.359,14.058 -2.243,3.024 -5.704,4.532 -10.391,4.532 -5.52,0 -9.902,-1.848 -13.129,-5.551 -3.23,-3.699 -4.844,-8.77 -4.844,-15.231 v -37.027 h -10.777 v 65.621 h 10.777 V 963.93 c 2.5,3.949 5.473,6.898 8.91,8.82 3.434,1.93 7.5,2.891 12.184,2.891 4.797,0 8.859,-1.192 12.188,-3.59 3.332,-2.403 5.781,-5.942 7.351,-10.621 z m 116.891,0 c 2.707,4.89 5.937,8.492 9.687,10.781 3.75,2.289 8.172,3.43 13.281,3.43 6.872,0 12.161,-2.391 15.86,-7.18 3.699,-4.789 5.539,-11.57 5.539,-20.32 v -39.68 h -10.777 v 39.219 c 0,6.351 -1.122,11.039 -3.364,14.058 -2.238,3.024 -5.648,4.532 -10.226,4.532 -5.633,0 -10.051,-1.848 -13.282,-5.551 -3.23,-3.699 -4.851,-8.77 -4.851,-15.231 v -37.027 h -10.777 v 39.219 c 0,6.351 -1.122,11.039 -3.364,14.058 -2.238,3.024 -5.699,4.532 -10.386,4.532 -5.52,0 -9.891,-1.848 -13.122,-5.551 -3.23,-3.699 -4.851,-8.77 -4.851,-15.231 v -37.027 h -10.777 v 65.621 h 10.777 V 963.93 c 2.5,3.949 5.473,6.898 8.91,8.82 3.441,1.93 7.5,2.891 12.191,2.891 4.79,0 8.852,-1.192 12.192,-3.59 3.328,-2.403 5.777,-5.942 7.34,-10.621 z m 122.047,-17.5 v -5.16 h -49.688 c 0.52,-7.5 2.789,-13.18 6.801,-17.032 4.008,-3.859 9.558,-5.777 16.637,-5.777 4.171,0 8.203,0.488 12.113,1.48 3.91,0.989 7.789,2.528 11.637,4.61 v -10.313 c -3.957,-1.558 -7.969,-2.789 -12.028,-3.668 -4.062,-0.89 -8.179,-1.332 -12.34,-1.332 -10.421,0 -18.703,3.051 -24.851,9.141 -6.141,6.09 -9.219,14.351 -9.219,24.762 0,10.73 2.918,19.25 8.75,25.55 5.84,6.297 13.649,9.45 23.438,9.45 8.851,0 15.863,-2.832 21.023,-8.512 5.148,-5.68 7.727,-13.41 7.727,-23.199 z m -10.778,3.281 c -0.101,5.828 -1.769,10.519 -5,14.059 -3.23,3.539 -7.5,5.312 -12.812,5.312 -6.039,0 -10.86,-1.723 -14.457,-5.152 -3.59,-3.442 -5.653,-8.231 -6.172,-14.379 l 38.441,0.16" /><path
         id="path58"
         style="fill:url(#linearGradient56);fill-opacity:1;fill-rule:nonzero;stroke:none"
         d="m 1650,750 h 900 v 400 h -900 z" /><path
         id="path60"
         style="fill:none;stroke:#000000;stroke-width:10;stroke-linecap:butt;stroke-linejoin:miter;stroke-miterlimit:1.45000005;stroke-dasharray:none;stroke-opacity:1"
         d="m 1650,750 h 900 v 400 h -900 z" /><path
         id="path62"
         style="fill:#000000;fill-opacity:1;fill-rule:nonzero;stroke:none"
         d="m 1907.17,987.988 c -8.65,0 -15.5,-3.199 -20.55,-9.609 -5.05,-6.41 -7.58,-15.18 -7.58,-26.328 0,-10.942 2.53,-19.61 7.58,-26.012 5.05,-6.41 11.9,-9.609 20.55,-9.609 8.54,0 15.34,3.199 20.39,9.609 5.05,6.402 7.58,15.07 7.58,26.012 0,11.148 -2.53,19.918 -7.58,26.328 -5.05,6.41 -11.85,9.609 -20.39,9.609 z m 0,9.532 c 12.19,0 21.95,-4.122 29.29,-12.34 7.35,-8.231 11.02,-19.282 11.02,-33.129 0,-13.75 -3.67,-24.742 -11.02,-32.969 -7.34,-8.23 -17.1,-12.344 -29.29,-12.344 -12.29,0 -22.14,4.114 -29.53,12.344 -7.4,8.227 -11.1,19.219 -11.1,32.969 0,13.847 3.7,24.898 11.1,33.129 7.39,8.218 17.24,12.34 29.53,12.34 z M 1976,918.301 v -34.84 h -10.79 v 90.621 H 1976 v -10 c 2.29,3.957 5.15,6.879 8.59,8.75 3.44,1.879 7.55,2.809 12.34,2.809 8.02,0 14.53,-3.153 19.53,-9.45 5,-6.3 7.5,-14.609 7.5,-24.921 0,-10.309 -2.5,-18.649 -7.5,-25 -5,-6.348 -11.51,-9.532 -19.53,-9.532 -4.79,0 -8.9,0.961 -12.34,2.891 -3.44,1.93 -6.3,4.82 -8.59,8.672 z m 36.71,22.969 c 0,7.921 -1.64,14.109 -4.92,18.589 -3.28,4.481 -7.73,6.723 -13.36,6.723 -5.73,0 -10.23,-2.242 -13.51,-6.723 -3.28,-4.48 -4.92,-10.668 -4.92,-18.589 0,-7.918 1.64,-14.141 4.92,-18.668 3.28,-4.532 7.78,-6.801 13.51,-6.801 5.63,0 10.08,2.269 13.36,6.801 3.28,4.527 4.92,10.75 4.92,18.668 z m 85.24,2.66 v -5.16 h -49.69 c 0.52,-7.5 2.79,-13.18 6.8,-17.032 4.01,-3.859 9.56,-5.777 16.64,-5.777 4.17,0 8.2,0.488 12.11,1.48 3.9,0.989 7.79,2.528 11.64,4.61 v -10.313 c -3.96,-1.558 -7.97,-2.789 -12.03,-3.668 -4.06,-0.89 -8.18,-1.332 -12.35,-1.332 -10.41,0 -18.69,3.051 -24.84,9.141 -6.15,6.09 -9.22,14.351 -9.22,24.762 0,10.73 2.92,19.25 8.75,25.55 5.84,6.297 13.65,9.45 23.44,9.45 8.85,0 15.86,-2.832 21.01,-8.512 5.16,-5.68 7.74,-13.41 7.74,-23.199 z m -10.78,3.281 c -0.11,5.828 -1.77,10.519 -5,14.059 -3.23,3.539 -7.5,5.312 -12.81,5.312 -6.05,0 -10.86,-1.723 -14.46,-5.152 -3.59,-3.442 -5.65,-8.231 -6.17,-14.379 z m 83.04,0.93 v -39.68 h -10.78 v 39.219 c 0,6.25 -1.22,10.91 -3.67,13.98 -2.45,3.07 -6.07,4.61 -10.86,4.61 -5.83,0 -10.44,-1.848 -13.83,-5.551 -3.38,-3.699 -5.07,-8.77 -5.07,-15.231 v -37.027 h -10.79 v 65.621 H 2126 V 963.93 c 2.6,3.949 5.65,6.898 9.14,8.82 3.49,1.93 7.52,2.891 12.11,2.891 7.5,0 13.2,-2.313 17.11,-6.95 3.9,-4.632 5.85,-11.48 5.85,-20.55 z m 81.53,-27.18 v 23.43 h -19.38 v 9.847 h 31.1 v -37.656 c -4.59,-3.23 -9.61,-5.684 -15.08,-7.344 -5.47,-1.668 -11.33,-2.5 -17.58,-2.5 -13.75,0 -24.48,4.012 -32.19,12.032 -7.71,8.019 -11.56,19.109 -11.56,33.281 0,14.379 3.85,25.551 11.56,33.519 7.71,7.969 18.44,11.95 32.19,11.95 5.63,0 11.02,-0.7 16.17,-2.11 5.16,-1.41 9.92,-3.461 14.3,-6.172 v -12.656 c -4.38,3.75 -9.04,6.559 -13.98,8.438 -4.95,1.871 -10.14,2.812 -15.55,2.812 -10.73,0 -18.78,-2.992 -24.14,-8.98 -5.37,-5.993 -8.05,-14.922 -8.05,-26.801 0,-11.77 2.68,-20.653 8.05,-26.641 5.36,-5.988 13.41,-8.98 24.14,-8.98 4.16,0 7.89,0.359 11.17,1.09 3.28,0.73 6.22,1.871 8.83,3.441 z m 33.3,75 h 11.87 v -77.5 h 42.66 v -10 h -54.53 v 87.5" /><path
         id="path70"
         style="fill:url(#linearGradient68);fill-opacity:1;fill-rule:nonzero;stroke:none"
         d="m 3150,750 h 1200 v 400 H 3150 Z" /><path
         id="path72"
         style="fill:none;stroke:#000000;stroke-width:10;stroke-linecap:butt;stroke-linejoin:miter;stroke-miterlimit:1.45000005;stroke-dasharray:none;stroke-opacity:1"
         d="m 3150,750 h 1200 v 400 H 3150 Z" /><path
         id="path74"
         style="fill:#000000;fill-opacity:1;fill-rule:nonzero;stroke:none"
         d="m 3239.02,949.551 c 2.5,-0.942 4.95,-2.813 7.35,-5.621 2.39,-2.821 4.84,-6.668 7.34,-11.571 l 12.03,-23.898 h -12.81 l -11.09,22.5 c -2.92,5.828 -5.73,9.711 -8.44,11.641 -2.71,1.918 -6.41,2.886 -11.1,2.886 h -12.96 v -37.027 h -11.88 v 87.5 h 26.72 c 10,0 17.47,-2.09 22.42,-6.25 4.95,-4.172 7.42,-10.473 7.42,-18.91 0,-5.52 -1.27,-10.102 -3.82,-13.75 -2.56,-3.653 -6.28,-6.153 -11.18,-7.5 z m -29.68,36.719 v -31.09 h 14.84 c 5.73,0 10.05,1.32 12.97,3.98 2.92,2.66 4.37,6.539 4.37,11.641 0,5.097 -1.45,8.961 -4.37,11.558 -2.92,2.61 -7.24,3.911 -12.97,3.911 z m 127.28,-42.34 v -5.16 h -49.69 c 0.52,-7.5 2.79,-13.18 6.8,-17.032 4.01,-3.859 9.56,-5.777 16.64,-5.777 4.17,0 8.2,0.488 12.11,1.48 3.91,0.989 7.79,2.528 11.64,4.61 v -10.313 c -3.96,-1.558 -7.97,-2.789 -12.03,-3.668 -4.06,-0.89 -8.18,-1.332 -12.34,-1.332 -10.42,0 -18.7,3.051 -24.85,9.141 -6.14,6.09 -9.22,14.351 -9.22,24.762 0,10.73 2.92,19.25 8.75,25.55 5.84,6.297 13.65,9.45 23.44,9.45 8.86,0 15.86,-2.832 21.02,-8.512 5.15,-5.68 7.73,-13.41 7.73,-23.199 z m -10.78,3.281 c -0.1,5.828 -1.77,10.519 -5,14.059 -3.23,3.539 -7.5,5.312 -12.81,5.312 -6.04,0 -10.86,-1.723 -14.46,-5.152 -3.59,-3.442 -5.65,-8.231 -6.17,-14.379 z m 83.05,0.93 v -39.68 h -10.78 v 39.219 c 0,6.25 -1.23,10.91 -3.68,13.98 -2.44,3.07 -6.06,4.61 -10.86,4.61 -5.83,0 -10.44,-1.848 -13.82,-5.551 -3.39,-3.699 -5.08,-8.77 -5.08,-15.231 v -37.027 h -10.78 v 65.621 h 10.78 V 963.93 c 2.6,3.949 5.65,6.898 9.14,8.82 3.49,1.93 7.52,2.891 12.11,2.891 7.5,0 13.2,-2.313 17.11,-6.95 3.9,-4.632 5.86,-11.48 5.86,-20.55 z m 64.65,15.941 v 35.629 h 10.78 v -91.25 h -10.78 v 9.84 c -2.3,-3.852 -5.16,-6.742 -8.6,-8.672 -3.44,-1.93 -7.6,-2.891 -12.5,-2.891 -7.92,0 -14.37,3.184 -19.37,9.532 -5,6.351 -7.5,14.691 -7.5,25 0,10.312 2.5,18.621 7.5,24.921 5,6.297 11.45,9.45 19.37,9.45 4.9,0 9.06,-0.93 12.5,-2.809 3.44,-1.871 6.3,-4.793 8.6,-8.75 z m -36.72,-22.812 c 0,-7.918 1.61,-14.141 4.84,-18.668 3.23,-4.532 7.71,-6.801 13.44,-6.801 5.73,0 10.23,2.269 13.51,6.801 3.28,4.527 4.93,10.75 4.93,18.668 0,7.921 -1.65,14.109 -4.93,18.589 -3.28,4.481 -7.78,6.723 -13.51,6.723 -5.73,0 -10.21,-2.242 -13.44,-6.723 -3.23,-4.48 -4.84,-10.668 -4.84,-18.589 z m 125.86,2.66 v -5.16 h -49.69 c 0.52,-7.5 2.78,-13.18 6.8,-17.032 4.01,-3.859 9.55,-5.777 16.64,-5.777 4.16,0 8.2,0.488 12.11,1.48 3.9,0.989 7.78,2.528 11.64,4.61 v -10.313 c -3.96,-1.558 -7.97,-2.789 -12.04,-3.668 -4.06,-0.89 -8.17,-1.332 -12.34,-1.332 -10.42,0 -18.7,3.051 -24.84,9.141 -6.15,6.09 -9.22,14.351 -9.22,24.762 0,10.73 2.91,19.25 8.75,25.55 5.83,6.297 13.64,9.45 23.44,9.45 8.85,0 15.86,-2.832 21.01,-8.512 5.16,-5.68 7.74,-13.41 7.74,-23.199 z m -10.79,3.281 c -0.1,5.828 -1.77,10.519 -5,14.059 -3.22,3.539 -7.5,5.312 -12.81,5.312 -6.04,0 -10.86,-1.723 -14.45,-5.152 -3.59,-3.442 -5.65,-8.231 -6.17,-14.379 z m 66.49,16.871 c -1.25,0.629 -2.58,1.117 -3.99,1.488 -1.4,0.36 -2.99,0.539 -4.76,0.539 -6.04,0 -10.7,-1.98 -13.99,-5.929 -3.28,-3.961 -4.92,-9.692 -4.92,-17.192 v -34.527 h -10.78 v 65.621 h 10.78 V 963.93 c 2.29,3.949 5.26,6.898 8.91,8.82 3.64,1.93 8.07,2.891 13.28,2.891 0.73,0 1.54,-0.051 2.42,-0.153 0.89,-0.109 1.85,-0.258 2.89,-0.468 z m 11.21,10 h 10.78 v -65.621 h -10.78 z m 0,25.629 h 10.78 v -13.75 h -10.78 z m 88.03,-51.57 v -39.68 h -10.78 v 39.219 c 0,6.25 -1.23,10.91 -3.68,13.98 -2.44,3.07 -6.06,4.61 -10.86,4.61 -5.83,0 -10.44,-1.848 -13.82,-5.551 -3.39,-3.699 -5.08,-8.77 -5.08,-15.231 v -37.027 h -10.78 v 65.621 h 10.78 V 963.93 c 2.6,3.949 5.65,6.898 9.14,8.82 3.49,1.93 7.53,2.891 12.11,2.891 7.5,0 13.2,-2.313 17.11,-6.95 3.9,-4.632 5.86,-11.48 5.86,-20.55 z m 64.65,-6.09 c 0,7.808 -1.62,13.847 -4.85,18.129 -3.23,4.269 -7.76,6.402 -13.59,6.402 -5.73,0 -10.21,-2.133 -13.44,-6.402 -3.23,-4.282 -4.84,-10.321 -4.84,-18.129 0,-7.813 1.61,-13.852 4.84,-18.121 3.23,-4.282 7.71,-6.41 13.44,-6.41 5.83,0 10.36,2.128 13.59,6.41 3.23,4.269 4.85,10.308 4.85,18.121 z m 10.78,-25.469 c 0,-11.141 -2.48,-19.453 -7.43,-24.922 -4.94,-5.469 -12.57,-8.199 -22.89,-8.199 -3.75,0 -7.31,0.277 -10.7,0.859 -3.38,0.571 -6.64,1.43 -9.76,2.571 v 10.468 c 3.12,-1.66 6.25,-2.91 9.37,-3.75 3.13,-0.828 6.25,-1.25 9.38,-1.25 7.08,0 12.39,1.852 15.93,5.551 3.54,3.699 5.32,9.301 5.32,16.801 v 5.309 c -2.3,-3.848 -5.16,-6.75 -8.6,-8.668 -3.44,-1.93 -7.6,-2.891 -12.5,-2.891 -8.02,0 -14.5,3.07 -19.45,9.219 -4.95,6.14 -7.42,14.269 -7.42,24.371 0,10.097 2.47,18.23 7.42,24.379 4.95,6.14 11.43,9.211 19.45,9.211 4.9,0 9.06,-0.961 12.5,-2.891 3.44,-1.922 6.3,-4.809 8.6,-8.668 v 10 h 10.78 z m 126.34,72.656 v -12.5 c -4.06,3.75 -8.33,6.532 -12.81,8.364 -4.48,1.82 -9.27,2.73 -14.37,2.73 -10,0 -17.66,-3.07 -22.97,-9.223 -5.31,-6.14 -7.97,-15 -7.97,-26.558 0,-11.461 2.66,-20.262 7.97,-26.41 5.31,-6.141 12.97,-9.211 22.97,-9.211 5.1,0 9.89,0.929 14.37,2.808 4.48,1.871 8.75,4.633 12.81,8.282 v -12.34 c -4.16,-2.821 -8.56,-4.93 -13.2,-6.328 -4.63,-1.411 -9.5,-2.114 -14.61,-2.114 -13.33,0 -23.8,4.063 -31.4,12.192 -7.61,8.121 -11.41,19.16 -11.41,33.121 0,14.058 3.8,25.16 11.41,33.281 7.6,8.129 18.07,12.188 31.4,12.188 5.21,0 10.13,-0.7 14.77,-2.11 4.63,-1.41 8.98,-3.461 13.04,-6.172 z m 43.17,-22.656 c -5.73,0 -10.29,-2.262 -13.67,-6.793 -3.39,-4.539 -5.08,-10.707 -5.08,-18.519 0,-7.918 1.67,-14.122 5,-18.59 3.33,-4.481 7.92,-6.719 13.75,-6.719 5.73,0 10.29,2.258 13.67,6.789 3.39,4.539 5.08,10.711 5.08,18.52 0,7.71 -1.69,13.851 -5.08,18.441 -3.38,4.578 -7.94,6.871 -13.67,6.871 z m 0,9.059 c 9.37,0 16.74,-3.039 22.11,-9.141 5.36,-6.09 8.04,-14.5 8.04,-25.23 0,-10.731 -2.68,-19.168 -8.04,-25.309 -5.37,-6.152 -12.74,-9.223 -22.11,-9.223 -9.38,0 -16.75,3.071 -22.11,9.223 -5.37,6.141 -8.05,14.578 -8.05,25.309 0,10.73 2.68,19.14 8.05,25.23 5.36,6.102 12.73,9.141 22.11,9.141 z m 102.64,-27.5 v -39.68 h -10.79 v 39.219 c 0,6.25 -1.22,10.91 -3.67,13.98 -2.45,3.07 -6.07,4.61 -10.86,4.61 -5.83,0 -10.44,-1.848 -13.83,-5.551 -3.38,-3.699 -5.07,-8.77 -5.07,-15.231 v -37.027 h -10.78 v 65.621 h 10.78 V 963.93 c 2.6,3.949 5.65,6.898 9.14,8.82 3.49,1.93 7.52,2.891 12.11,2.891 7.5,0 13.2,-2.313 17.11,-6.95 3.9,-4.632 5.86,-11.48 5.86,-20.55 z m 32.14,44.539 v -18.598 h 22.19 v -8.441 h -22.19 V 930.02 c 0,-5.309 0.73,-8.719 2.19,-10.231 1.46,-1.519 4.43,-2.269 8.91,-2.269 h 11.09 v -9.059 h -11.09 c -8.34,0 -14.09,1.559 -17.27,4.68 -3.18,3.129 -4.76,8.75 -4.76,16.879 v 35.621 h -7.82 v 8.441 h 7.82 v 18.598 z m 92.52,-48.75 v -5.16 h -49.68 c 0.52,-7.5 2.78,-13.18 6.79,-17.032 4.01,-3.859 9.56,-5.777 16.64,-5.777 4.17,0 8.21,0.488 12.11,1.48 3.91,0.989 7.79,2.528 11.64,4.61 v -10.313 c -3.96,-1.558 -7.97,-2.789 -12.03,-3.668 -4.06,-0.89 -8.18,-1.332 -12.34,-1.332 -10.42,0 -18.7,3.051 -24.85,9.141 -6.14,6.09 -9.21,14.351 -9.21,24.762 0,10.73 2.91,19.25 8.75,25.55 5.83,6.297 13.64,9.45 23.43,9.45 8.86,0 15.86,-2.832 21.02,-8.512 5.16,-5.68 7.73,-13.41 7.73,-23.199 z m -10.78,3.281 c -0.1,5.828 -1.77,10.519 -5,14.059 -3.23,3.539 -7.5,5.312 -12.81,5.312 -6.04,0 -10.86,-1.723 -14.45,-5.152 -3.6,-3.442 -5.65,-8.231 -6.18,-14.379 z m 83.05,26.871 -23.75,-31.871 24.84,-33.75 h -12.65 l -19.07,25.777 -19.06,-25.777 h -12.81 l 25.47,34.371 -23.28,31.25 h 12.65 l 17.5,-23.441 17.35,23.441 z m 27.11,18.598 v -18.598 h 22.19 v -8.441 h -22.19 V 930.02 c 0,-5.309 0.73,-8.719 2.19,-10.231 1.45,-1.519 4.42,-2.269 8.9,-2.269 h 11.1 v -9.059 h -11.1 c -8.33,0 -14.09,1.559 -17.26,4.68 -3.18,3.129 -4.77,8.75 -4.77,16.879 v 35.621 h -7.81 v 8.441 h 7.81 v 18.598 h 10.94" /><path
         id="path82"
         style="fill:url(#linearGradient80);fill-opacity:1;fill-rule:nonzero;stroke:none"
         d="m 4950,750 h 1200 v 400 H 4950 Z" /><path
         id="path84"
         style="fill:none;stroke:#000000;stroke-width:10;stroke-linecap:butt;stroke-linejoin:miter;stroke-miterlimit:1.45000005;stroke-dasharray:none;stroke-opacity:1"
         d="m 4950,750 h 1200 v 400 H 4950 Z" /><path
         id="path86"
         style="fill:#000000;fill-opacity:1;fill-rule:nonzero;stroke:none"
         d="m 5113.22,986.27 v -68.129 h 14.38 c 12.08,0 20.91,2.738 26.48,8.211 5.57,5.468 8.36,14.136 8.36,26.007 0,11.672 -2.79,20.243 -8.36,25.711 -5.57,5.469 -14.4,8.2 -26.48,8.2 z m -11.87,9.691 h 24.37 c 16.98,0 29.43,-3.52 37.35,-10.551 7.91,-7.031 11.87,-18.051 11.87,-33.051 0,-15.097 -3.98,-26.187 -11.95,-33.277 -7.97,-7.082 -20.39,-10.621 -37.27,-10.621 h -24.37 z m 148.18,-52.031 v -5.16 h -49.69 c 0.52,-7.5 2.79,-13.18 6.8,-17.032 4.01,-3.859 9.56,-5.777 16.64,-5.777 4.17,0 8.2,0.488 12.11,1.48 3.91,0.989 7.79,2.528 11.64,4.61 v -10.313 c -3.96,-1.558 -7.97,-2.789 -12.03,-3.668 -4.06,-0.89 -8.18,-1.332 -12.34,-1.332 -10.42,0 -18.7,3.051 -24.85,9.141 -6.14,6.09 -9.22,14.351 -9.22,24.762 0,10.73 2.92,19.25 8.75,25.55 5.84,6.297 13.65,9.45 23.44,9.45 8.86,0 15.86,-2.832 21.02,-8.512 5.15,-5.68 7.73,-13.41 7.73,-23.199 z m -10.78,3.281 c -0.1,5.828 -1.77,10.519 -5,14.059 -3.23,3.539 -7.5,5.312 -12.81,5.312 -6.04,0 -10.86,-1.723 -14.46,-5.152 -3.59,-3.442 -5.65,-8.231 -6.17,-14.379 z m 20.7,26.871 h 11.41 l 20.47,-55 20.62,55 h 11.41 l -24.69,-65.621 h -14.69 z m 78.67,0 h 10.79 v -65.621 h -10.79 z m 0,25.629 h 10.79 v -13.75 h -10.79 z m 80.69,-28.129 V 961.43 c -3.13,1.769 -6.2,3.07 -9.22,3.902 -3.02,0.84 -6.09,1.25 -9.22,1.25 -7.08,0 -12.55,-2.211 -16.41,-6.641 -3.85,-4.429 -5.78,-10.652 -5.78,-18.671 0,-8.02 1.93,-14.25 5.78,-18.668 3.86,-4.43 9.33,-6.641 16.41,-6.641 3.13,0 6.2,0.41 9.22,1.25 3.02,0.828 6.09,2.078 9.22,3.75 v -10 c -3.02,-1.359 -6.15,-2.402 -9.38,-3.129 -3.23,-0.73 -6.66,-1.094 -10.31,-1.094 -9.89,0 -17.76,3.102 -23.59,9.301 -5.84,6.191 -8.75,14.602 -8.75,25.231 0,10.621 2.94,19.011 8.83,25.16 5.88,6.14 13.98,9.211 24.29,9.211 3.23,0 6.43,-0.332 9.61,-1.012 3.18,-0.68 6.28,-1.688 9.3,-3.047 z m 74.88,-27.652 v -5.16 H 5444 c 0.52,-7.5 2.79,-13.18 6.8,-17.032 4.01,-3.859 9.56,-5.777 16.64,-5.777 4.17,0 8.2,0.488 12.11,1.48 3.91,0.989 7.79,2.528 11.64,4.61 v -10.313 c -3.96,-1.558 -7.97,-2.789 -12.03,-3.668 -4.06,-0.89 -8.18,-1.332 -12.34,-1.332 -10.42,0 -18.7,3.051 -24.85,9.141 -6.14,6.09 -9.22,14.351 -9.22,24.762 0,10.73 2.92,19.25 8.75,25.55 5.84,6.297 13.65,9.45 23.44,9.45 8.86,0 15.86,-2.832 21.02,-8.512 5.15,-5.68 7.73,-13.41 7.73,-23.199 z m -10.78,3.281 c -0.1,5.828 -1.77,10.519 -5,14.059 -3.23,3.539 -7.5,5.312 -12.81,5.312 -6.04,0 -10.86,-1.723 -14.46,-5.152 -3.59,-3.442 -5.65,-8.231 -6.17,-14.379 z m 132.6,42.027 v -12.5 c -4.06,3.75 -8.34,6.532 -12.81,8.364 -4.48,1.82 -9.28,2.73 -14.38,2.73 -10,0 -17.66,-3.07 -22.97,-9.223 -5.31,-6.14 -7.97,-15 -7.97,-26.558 0,-11.461 2.66,-20.262 7.97,-26.41 5.31,-6.141 12.97,-9.211 22.97,-9.211 5.1,0 9.9,0.929 14.38,2.808 4.47,1.871 8.75,4.633 12.81,8.282 v -12.34 c -4.17,-2.821 -8.57,-4.93 -13.21,-6.328 -4.63,-1.411 -9.5,-2.114 -14.6,-2.114 -13.34,0 -23.81,4.063 -31.41,12.192 -7.61,8.121 -11.41,19.16 -11.41,33.121 0,14.058 3.8,25.16 11.41,33.281 7.6,8.129 18.07,12.188 31.41,12.188 5.2,0 10.13,-0.7 14.76,-2.11 4.64,-1.41 8.99,-3.461 13.05,-6.172 z m 43.16,-22.656 c -5.73,0 -10.28,-2.262 -13.67,-6.793 -3.39,-4.539 -5.08,-10.707 -5.08,-18.519 0,-7.918 1.67,-14.122 5,-18.59 3.34,-4.481 7.92,-6.719 13.75,-6.719 5.73,0 10.29,2.258 13.67,6.789 3.39,4.539 5.08,10.711 5.08,18.52 0,7.71 -1.69,13.851 -5.08,18.441 -3.38,4.578 -7.94,6.871 -13.67,6.871 z m 0,9.059 c 9.38,0 16.75,-3.039 22.11,-9.141 5.37,-6.09 8.05,-14.5 8.05,-25.23 0,-10.731 -2.68,-19.168 -8.05,-25.309 -5.36,-6.152 -12.73,-9.223 -22.11,-9.223 -9.37,0 -16.74,3.071 -22.11,9.223 -5.36,6.141 -8.04,14.578 -8.04,25.309 0,10.73 2.68,19.14 8.04,25.23 5.37,6.102 12.74,9.141 22.11,9.141 z m 102.64,-27.5 v -39.68 h -10.78 v 39.219 c 0,6.25 -1.23,10.91 -3.67,13.98 -2.45,3.07 -6.07,4.61 -10.86,4.61 -5.84,0 -10.45,-1.848 -13.83,-5.551 -3.39,-3.699 -5.08,-8.77 -5.08,-15.231 v -37.027 h -10.78 v 65.621 h 10.78 V 963.93 c 2.6,3.949 5.65,6.898 9.14,8.82 3.49,1.93 7.53,2.891 12.11,2.891 7.5,0 13.2,-2.313 17.11,-6.95 3.91,-4.632 5.86,-11.48 5.86,-20.55 z m 32.15,44.539 v -18.598 h 22.18 v -8.441 h -22.18 V 930.02 c 0,-5.309 0.73,-8.719 2.18,-10.231 1.46,-1.519 4.43,-2.269 8.91,-2.269 h 11.09 v -9.059 h -11.09 c -8.33,0 -14.09,1.559 -17.26,4.68 -3.18,3.129 -4.77,8.75 -4.77,16.879 v 35.621 h -7.81 v 8.441 h 7.81 v 18.598 z m 92.52,-48.75 v -5.16 h -49.69 c 0.52,-7.5 2.79,-13.18 6.8,-17.032 4.01,-3.859 9.55,-5.777 16.64,-5.777 4.16,0 8.2,0.488 12.11,1.48 3.9,0.989 7.78,2.528 11.64,4.61 v -10.313 c -3.96,-1.558 -7.97,-2.789 -12.03,-3.668 -4.07,-0.89 -8.18,-1.332 -12.35,-1.332 -10.42,0 -18.7,3.051 -24.84,9.141 -6.15,6.09 -9.22,14.351 -9.22,24.762 0,10.73 2.92,19.25 8.75,25.55 5.83,6.297 13.64,9.45 23.44,9.45 8.85,0 15.86,-2.832 21.01,-8.512 5.16,-5.68 7.74,-13.41 7.74,-23.199 z m -10.78,3.281 c -0.11,5.828 -1.78,10.519 -5,14.059 -3.23,3.539 -7.5,5.312 -12.82,5.312 -6.04,0 -10.86,-1.723 -14.45,-5.152 -3.59,-3.442 -5.65,-8.231 -6.17,-14.379 z m 83.04,26.871 -23.75,-31.871 24.85,-33.75 h -12.66 l -19.06,25.777 -19.07,-25.777 h -12.81 l 25.47,34.371 -23.28,31.25 h 12.66 l 17.5,-23.441 17.34,23.441 z m 27.11,18.598 v -18.598 h 22.19 v -8.441 h -22.19 V 930.02 c 0,-5.309 0.73,-8.719 2.19,-10.231 1.46,-1.519 4.43,-2.269 8.91,-2.269 h 11.09 v -9.059 h -11.09 c -8.34,0 -14.09,1.559 -17.27,4.68 -3.18,3.129 -4.77,8.75 -4.77,16.879 v 35.621 h -7.81 v 8.441 h 7.81 v 18.598 h 10.94" /><path
         id="path94"
         style="fill:url(#linearGradient92);fill-opacity:1;fill-rule:nonzero;stroke:none"
         d="m 6750,750 h 900 v 400 h -900 z" /><path
         id="path96"
         style="fill:none;stroke:#000000;stroke-width:10;stroke-linecap:butt;stroke-linejoin:miter;stroke-miterlimit:1.45000005;stroke-dasharray:none;stroke-opacity:1"
         d="m 6750,750 h 900 v 400 h -900 z" /><path
         id="path98"
         style="fill:none;stroke:#000000;stroke-width:10;stroke-linecap:butt;stroke-linejoin:miter;stroke-miterlimit:1.45000005;stroke-dasharray:none;stroke-opacity:1"
         d="m 6780,1120 h 840 V 780 h -840 z" /><path
         id="path100"
         style="fill:#000000;fill-opacity:1;fill-rule:nonzero;stroke:none"
         d="m 6958.35,984.238 -16.09,-43.437 h 32.18 z m -6.72,11.723 h 13.44 l 33.28,-87.5 h -12.34 l -7.97,22.5 h -39.38 l -7.97,-22.5 h -12.5 z m 92.25,3.75 v -9.07 h -10.32 c -3.85,0 -6.53,-0.782 -8.04,-2.34 -1.51,-1.563 -2.27,-4.371 -2.27,-8.442 v -5.777 h 17.81 v -8.441 h -17.81 v -57.18 h -10.78 v 57.18 h -10.31 v 8.441 h 10.31 v 4.527 c 0,7.289 1.69,12.629 5.08,16.02 3.38,3.383 8.77,5.082 16.17,5.082 z m 42.24,0 v -9.07 h -10.31 c -3.85,0 -6.54,-0.782 -8.05,-2.34 -1.51,-1.563 -2.26,-4.371 -2.26,-8.442 v -5.777 h 17.81 v -8.441 h -17.81 v -57.18 h -10.78 v 57.18 h -10.32 v 8.441 h 10.32 v 4.527 c 0,7.289 1.69,12.629 5.07,16.02 3.39,3.383 8.78,5.082 16.18,5.082 z m 8.97,-25.629 h 10.78 v -65.621 h -10.78 z m 0,25.629 h 10.78 v -13.75 h -10.78 z m 80.68,-28.129 V 961.43 c -3.12,1.769 -6.2,3.07 -9.22,3.902 -3.02,0.84 -6.09,1.25 -9.22,1.25 -7.08,0 -12.55,-2.211 -16.4,-6.641 -3.86,-4.429 -5.78,-10.652 -5.78,-18.671 0,-8.02 1.92,-14.25 5.78,-18.668 3.85,-4.43 9.32,-6.641 16.4,-6.641 3.13,0 6.2,0.41 9.22,1.25 3.02,0.828 6.1,2.078 9.22,3.75 v -10 c -3.02,-1.359 -6.14,-2.402 -9.37,-3.129 -3.23,-0.73 -6.67,-1.094 -10.32,-1.094 -9.89,0 -17.76,3.102 -23.59,9.301 -5.83,6.191 -8.75,14.602 -8.75,25.231 0,10.621 2.94,19.011 8.83,25.16 5.88,6.14 13.98,9.211 24.3,9.211 3.22,0 6.43,-0.332 9.6,-1.012 3.18,-0.68 6.28,-1.688 9.3,-3.047 z m 73.32,-23.441 v -39.68 h -10.78 v 39.219 c 0,6.25 -1.22,10.91 -3.67,13.98 -2.45,3.07 -6.07,4.61 -10.86,4.61 -5.83,0 -10.44,-1.848 -13.83,-5.551 -3.38,-3.699 -5.08,-8.77 -5.08,-15.231 v -37.027 h -10.78 v 91.25 h 10.78 V 963.93 c 2.61,3.949 5.65,6.898 9.14,8.82 3.49,1.93 7.53,2.891 12.11,2.891 7.5,0 13.21,-2.313 17.11,-6.95 3.91,-4.632 5.86,-11.48 5.86,-20.55 z m 51.21,-6.711 c -8.64,0 -14.66,-0.989 -18.04,-2.969 -3.39,-1.981 -5.08,-5.371 -5.08,-10.16 0,-3.852 1.27,-6.903 3.83,-9.141 2.55,-2.238 5.96,-3.359 10.23,-3.359 6.04,0 10.86,2.109 14.45,6.328 3.6,4.223 5.39,9.871 5.39,16.953 v 2.348 z m 21.57,4.531 v -37.5 h -10.79 v 10 c -2.5,-3.961 -5.57,-6.902 -9.21,-8.832 -3.65,-1.93 -8.13,-2.891 -13.44,-2.891 -6.77,0 -12.14,1.903 -16.1,5.703 -3.95,3.797 -5.93,8.829 -5.93,15.079 0,7.402 2.47,12.968 7.42,16.718 4.95,3.75 12.32,5.621 22.11,5.621 h 15.15 v 1.102 c 0,5 -1.64,8.848 -4.92,11.559 -3.28,2.71 -7.84,4.062 -13.67,4.062 -3.75,0 -7.42,-0.473 -11.02,-1.402 -3.59,-0.942 -7,-2.301 -10.23,-4.071 v 10 c 3.96,1.571 7.79,2.711 11.48,3.442 3.7,0.73 7.32,1.09 10.86,1.09 9.48,0 16.57,-2.442 21.25,-7.34 4.69,-4.903 7.04,-12.34 7.04,-22.34 z m 65.41,-3.91 c 0,7.808 -1.62,13.847 -4.85,18.129 -3.23,4.269 -7.76,6.402 -13.59,6.402 -5.73,0 -10.21,-2.133 -13.44,-6.402 -3.23,-4.282 -4.84,-10.321 -4.84,-18.129 0,-7.813 1.61,-13.852 4.84,-18.121 3.23,-4.282 7.71,-6.41 13.44,-6.41 5.83,0 10.36,2.128 13.59,6.41 3.23,4.269 4.85,10.308 4.85,18.121 z m 10.78,-25.469 c 0,-11.141 -2.48,-19.453 -7.43,-24.922 -4.94,-5.469 -12.57,-8.199 -22.89,-8.199 -3.75,0 -7.31,0.277 -10.7,0.859 -3.38,0.571 -6.64,1.43 -9.76,2.571 v 10.468 c 3.12,-1.66 6.25,-2.91 9.37,-3.75 3.13,-0.828 6.25,-1.25 9.38,-1.25 7.08,0 12.39,1.852 15.93,5.551 3.54,3.699 5.32,9.301 5.32,16.801 v 5.309 c -2.3,-3.848 -5.16,-6.75 -8.6,-8.668 -3.44,-1.93 -7.6,-2.891 -12.5,-2.891 -8.02,0 -14.5,3.07 -19.45,9.219 -4.95,6.14 -7.42,14.269 -7.42,24.371 0,10.097 2.47,18.23 7.42,24.379 4.95,6.14 11.43,9.211 19.45,9.211 4.9,0 9.06,-0.961 12.5,-2.891 3.44,-1.922 6.3,-4.809 8.6,-8.668 v 10 h 10.78 z m 78.36,27.348 v -5.16 h -49.69 c 0.52,-7.5 2.78,-13.18 6.8,-17.032 4.01,-3.859 9.55,-5.777 16.64,-5.777 4.16,0 8.2,0.488 12.11,1.48 3.9,0.989 7.78,2.528 11.64,4.61 v -10.313 c -3.96,-1.558 -7.97,-2.789 -12.04,-3.668 -4.06,-0.89 -8.17,-1.332 -12.34,-1.332 -10.42,0 -18.7,3.051 -24.84,9.141 -6.15,6.09 -9.22,14.351 -9.22,24.762 0,10.73 2.92,19.25 8.75,25.55 5.83,6.297 13.64,9.45 23.44,9.45 8.85,0 15.86,-2.832 21.01,-8.512 5.16,-5.68 7.74,-13.41 7.74,-23.199 z m -10.79,3.281 c -0.1,5.828 -1.77,10.519 -5,14.059 -3.22,3.539 -7.5,5.312 -12.81,5.312 -6.04,0 -10.86,-1.723 -14.45,-5.152 -3.59,-3.442 -5.65,-8.231 -6.17,-14.379 l 38.43,0.16" /><path
         id="path102"
         style="fill:none;stroke:#000000;stroke-width:10;stroke-linecap:butt;stroke-linejoin:miter;stroke-miterlimit:1.45000005;stroke-dasharray:none;stroke-opacity:1"
         d="m 1050.07,950 h 520.07" /><path
         id="path104"
         style="fill:#000000;fill-opacity:1;fill-rule:nonzero;stroke:none"
         d="m 1650.14,950 -120,50 30,-50 -30,-50 z" /><path
         id="path106"
         style="fill:none;stroke:#000000;stroke-width:10;stroke-linecap:butt;stroke-linejoin:miter;stroke-miterlimit:1.45000005;stroke-dasharray:none;stroke-opacity:1"
         d="m 2549.96,950 h 520.31" /><path
         id="path108"
         style="fill:#000000;fill-opacity:1;fill-rule:nonzero;stroke:none"
         d="m 3150.27,950 -120,50 30,-50 -30,-50 z" /><path
         id="path110"
         style="fill:none;stroke:#000000;stroke-width:10;stroke-linecap:butt;stroke-linejoin:miter;stroke-miterlimit:1.45000005;stroke-dasharray:none;stroke-opacity:1"
         d="m 4349.85,950 h 520.37" /><path
         id="path112"
         style="fill:#000000;fill-opacity:1;fill-rule:nonzero;stroke:none"
         d="m 4950.22,950 -120,50 30,-50 -30,-50 z" /><path
         id="path114"
         style="fill:none;stroke:#000000;stroke-width:10;stroke-linecap:butt;stroke-linejoin:miter;stroke-miterlimit:1.45000005;stroke-dasharray:none;stroke-opacity:1"
         d="m 6149.82,950 h 520.21" /><path
         id="path116"
         style="fill:#000000;fill-opacity:1;fill-rule:nonzero;stroke:none"
         d="m 6750.03,950 -120,50 30,-50 -30,-50 z" /></g></g></svg>