<?xml version="1.0" encoding="UTF-8"?><svg xmlns="http://www.w3.org/2000/svg" xmlns:xlink="http://www.w3.org/1999/xlink" fill-opacity="1" color-rendering="auto" color-interpolation="auto" text-rendering="auto" stroke="black" stroke-linecap="square" width="681" stroke-miterlimit="10" shape-rendering="auto" stroke-opacity="1" fill="black" stroke-dasharray="none" font-weight="normal" stroke-width="1" height="170" font-family="'Dialog'" font-style="normal" stroke-linejoin="miter" font-size="12px" stroke-dashoffset="0" image-rendering="auto">
  <!--Generated by ySVG 2.5-->
  <defs id="genericDefs"/>
  <g>
    <defs id="defs1">
      <linearGradient x1="400" gradientUnits="userSpaceOnUse" x2="500" y1="220" y2="260" id="linearGradient1" spreadMethod="reflect">
        <stop stop-opacity="1" stop-color="rgb(234,234,234)" offset="0%"/>
        <stop stop-opacity="1" stop-color="rgb(204,204,204)" offset="100%"/>
      </linearGradient>
      <linearGradient x1="500" gradientUnits="userSpaceOnUse" x2="630" y1="280" y2="320" id="linearGradient2" spreadMethod="reflect">
        <stop stop-opacity="1" stop-color="rgb(234,234,234)" offset="0%"/>
        <stop stop-opacity="1" stop-color="rgb(204,204,204)" offset="100%"/>
      </linearGradient>
      <linearGradient x1="805" gradientUnits="userSpaceOnUse" x2="935" y1="220" y2="260" id="linearGradient3" spreadMethod="reflect">
        <stop stop-opacity="1" stop-color="rgb(234,234,234)" offset="0%"/>
        <stop stop-opacity="1" stop-color="rgb(204,204,204)" offset="100%"/>
      </linearGradient>
      <linearGradient x1="800" gradientUnits="userSpaceOnUse" x2="940" y1="280" y2="320" id="linearGradient4" spreadMethod="reflect">
        <stop stop-opacity="1" stop-color="rgb(234,234,234)" offset="0%"/>
        <stop stop-opacity="1" stop-color="rgb(204,204,204)" offset="100%"/>
      </linearGradient>
      <linearGradient x1="800" gradientUnits="userSpaceOnUse" x2="940" y1="340" y2="380" id="linearGradient5" spreadMethod="reflect">
        <stop stop-opacity="1" stop-color="rgb(234,234,234)" offset="0%"/>
        <stop stop-opacity="1" stop-color="rgb(204,204,204)" offset="100%"/>
      </linearGradient>
      <linearGradient x1="665" gradientUnits="userSpaceOnUse" x2="765" y1="246.7012" y2="320" id="linearGradient6" spreadMethod="reflect">
        <stop stop-opacity="1" stop-color="rgb(234,234,234)" offset="0%"/>
        <stop stop-opacity="1" stop-color="rgb(234,234,234)" offset="100%"/>
      </linearGradient>
      <linearGradient x1="970" gradientUnits="userSpaceOnUse" x2="1070" y1="246.7012" y2="320" id="linearGradient7" spreadMethod="reflect">
        <stop stop-opacity="1" stop-color="rgb(234,234,234)" offset="0%"/>
        <stop stop-opacity="1" stop-color="rgb(234,234,234)" offset="100%"/>
      </linearGradient>
      <clipPath clipPathUnits="userSpaceOnUse" id="clipPath1">
        <path d="M0 0 L681 0 L681 170 L0 170 L0 0 Z"/>
      </clipPath>
      <clipPath clipPathUnits="userSpaceOnUse" id="clipPath2">
        <path d="M394 215 L1075 215 L1075 385 L394 385 L394 215 Z"/>
      </clipPath>
      <clipPath clipPathUnits="userSpaceOnUse" id="clipPath3">
        <path d="M394 246.7012 L394 385 L1075 385 L1075 246.7012 Z"/>
      </clipPath>
      <clipPath clipPathUnits="userSpaceOnUse" id="clipPath4">
        <path d="M394 215 L394 246.7012 L1075 246.7012 L1075 215 Z"/>
      </clipPath>
    </defs>
    <g fill="url(#linearGradient1)" text-rendering="geometricPrecision" shape-rendering="geometricPrecision" transform="matrix(1,0,0,1,-394,-215)" stroke="url(#linearGradient1)">
      <rect x="400" width="100" height="40" y="220" clip-path="url(#clipPath2)" stroke="none"/>
    </g>
    <g text-rendering="geometricPrecision" stroke-miterlimit="1.45" shape-rendering="geometricPrecision" transform="matrix(1,0,0,1,-394,-215)" stroke-linecap="butt">
      <path fill="none" d="M400 255 L400 260 L500 260 L500 255" clip-path="url(#clipPath2)"/>
      <text x="410.9854" xml:space="preserve" y="244.7139" clip-path="url(#clipPath2)" font-family="sans-serif" stroke="none">Schémas XML</text>
    </g>
    <g fill="url(#linearGradient2)" text-rendering="geometricPrecision" shape-rendering="geometricPrecision" transform="matrix(1,0,0,1,-394,-215)" stroke="url(#linearGradient2)">
      <rect x="500" width="130" height="40" y="280" clip-path="url(#clipPath2)" stroke="none"/>
    </g>
    <g text-rendering="geometricPrecision" stroke-miterlimit="1.45" shape-rendering="geometricPrecision" transform="matrix(1,0,0,1,-394,-215)" stroke-linecap="butt">
      <path fill="none" d="M516.25 280 L500 280 L500 320 L516.25 320" clip-path="url(#clipPath2)"/>
      <text x="516.3086" xml:space="preserve" y="297.3633" clip-path="url(#clipPath2)" font-family="sans-serif" stroke="none">Modèles de fichier</text>
      <text x="545.998" xml:space="preserve" y="312.0645" clip-path="url(#clipPath2)" font-family="sans-serif" stroke="none"> XMML</text>
    </g>
    <g fill="url(#linearGradient3)" text-rendering="geometricPrecision" shape-rendering="geometricPrecision" transform="matrix(1,0,0,1,-394,-215)" stroke="url(#linearGradient3)">
      <rect x="805" width="130" height="40" y="220" clip-path="url(#clipPath2)" stroke="none"/>
    </g>
    <g text-rendering="geometricPrecision" stroke-miterlimit="1.45" shape-rendering="geometricPrecision" transform="matrix(1,0,0,1,-394,-215)" stroke-linecap="butt">
      <path fill="none" d="M821.25 220 L805 220 L805 260 L821.25 260" clip-path="url(#clipPath2)"/>
      <text x="837.3135" xml:space="preserve" y="237.3633" clip-path="url(#clipPath2)" font-family="sans-serif" stroke="none">Modèles de </text>
      <text x="823.3154" xml:space="preserve" y="252.0645" clip-path="url(#clipPath2)" font-family="sans-serif" stroke="none">simulations XSLT</text>
    </g>
    <g fill="url(#linearGradient4)" text-rendering="geometricPrecision" shape-rendering="geometricPrecision" transform="matrix(1,0,0,1,-394,-215)" stroke="url(#linearGradient4)">
      <rect x="800" width="140" height="40" y="280" clip-path="url(#clipPath2)" stroke="none"/>
    </g>
    <g text-rendering="geometricPrecision" stroke-miterlimit="1.45" shape-rendering="geometricPrecision" transform="matrix(1,0,0,1,-394,-215)" stroke-linecap="butt">
      <path fill="none" d="M817.5 280 L800 280 L800 320 L817.5 320" clip-path="url(#clipPath2)"/>
      <text x="860.3291" xml:space="preserve" y="297.3633" clip-path="url(#clipPath2)" font-family="sans-serif" stroke="none">API</text>
      <text x="812.7217" xml:space="preserve" y="312.0645" clip-path="url(#clipPath2)" font-family="sans-serif" stroke="none">"Dynamic Simulation"</text>
    </g>
    <g fill="url(#linearGradient5)" text-rendering="geometricPrecision" shape-rendering="geometricPrecision" transform="matrix(1,0,0,1,-394,-215)" stroke="url(#linearGradient5)">
      <rect x="800" width="140" height="40" y="340" clip-path="url(#clipPath2)" stroke="none"/>
    </g>
    <g text-rendering="geometricPrecision" stroke-miterlimit="1.45" shape-rendering="geometricPrecision" transform="matrix(1,0,0,1,-394,-215)" stroke-linecap="butt">
      <path fill="none" d="M800 345 L800 340 L940 340 L940 345" clip-path="url(#clipPath2)"/>
      <text x="811.9746" xml:space="preserve" y="357.3633" clip-path="url(#clipPath2)" font-family="sans-serif" stroke="none">Fichiers des fonctions</text>
      <text x="851.9854" xml:space="preserve" y="372.0645" clip-path="url(#clipPath2)" font-family="sans-serif" stroke="none">agents</text>
    </g>
    <g fill="url(#linearGradient6)" text-rendering="geometricPrecision" shape-rendering="geometricPrecision" transform="matrix(1,0,0,1,-394,-215)" stroke="url(#linearGradient6)">
      <rect x="665" y="220" clip-path="url(#clipPath3)" width="100" rx="4" ry="4" height="100" stroke="none"/>
      <rect x="665" y="220" clip-path="url(#clipPath4)" fill="rgb(204,204,204)" width="100" rx="4" ry="4" height="100" stroke="none"/>
    </g>
    <g stroke-linecap="round" transform="matrix(1,0,0,1,-394,-215)" stroke-dashoffset="2" text-rendering="geometricPrecision" shape-rendering="geometricPrecision" stroke-dasharray="0,4" stroke-miterlimit="1.45">
      <rect x="665" y="220" clip-path="url(#clipPath2)" fill="none" width="100" rx="4" ry="4" height="100"/>
      <line y2="246.7012" fill="none" x1="665" clip-path="url(#clipPath2)" x2="765" y1="246.7012"/>
    </g>
    <g text-rendering="geometricPrecision" stroke-miterlimit="1.45" shape-rendering="geometricPrecision" font-family="sans-serif" transform="matrix(1,0,0,1,-394,-215)" stroke-linecap="butt">
      <text x="685.3193" xml:space="preserve" y="238.0645" clip-path="url(#clipPath2)" stroke="none">Vérification</text>
      <text x="684.6543" xml:space="preserve" y="267.3633" clip-path="url(#clipPath2)" stroke="none">Processeur</text>
      <text x="699.9941" xml:space="preserve" y="282.0645" clip-path="url(#clipPath2)" stroke="none">XSLT</text>
    </g>
    <g fill="url(#linearGradient7)" text-rendering="geometricPrecision" shape-rendering="geometricPrecision" transform="matrix(1,0,0,1,-394,-215)" stroke="url(#linearGradient7)">
      <rect x="970" y="220" clip-path="url(#clipPath3)" width="100" rx="4" ry="4" height="100" stroke="none"/>
      <rect x="970" y="220" clip-path="url(#clipPath4)" fill="rgb(204,204,204)" width="100" rx="4" ry="4" height="100" stroke="none"/>
    </g>
    <g stroke-linecap="round" transform="matrix(1,0,0,1,-394,-215)" stroke-dashoffset="2" text-rendering="geometricPrecision" shape-rendering="geometricPrecision" stroke-dasharray="0,4" stroke-miterlimit="1.45">
      <rect x="970" y="220" clip-path="url(#clipPath2)" fill="none" width="100" rx="4" ry="4" height="100"/>
      <line y2="246.7012" fill="none" x1="970" clip-path="url(#clipPath2)" x2="1070" y1="246.7012"/>
    </g>
    <g text-rendering="geometricPrecision" stroke-miterlimit="1.45" shape-rendering="geometricPrecision" font-family="sans-serif" transform="matrix(1,0,0,1,-394,-215)" stroke-linecap="butt">
      <text x="990.3135" xml:space="preserve" y="238.0645" clip-path="url(#clipPath2)" stroke="none">Génération</text>
      <text x="986.9912" xml:space="preserve" y="267.3633" clip-path="url(#clipPath2)" stroke="none">Programme </text>
      <text x="984.6475" xml:space="preserve" y="282.0645" clip-path="url(#clipPath2)" stroke="none">de simulation</text>
    </g>
    <g text-rendering="geometricPrecision" stroke-miterlimit="1.45" shape-rendering="geometricPrecision" transform="matrix(1,0,0,1,-394,-215)" stroke-linecap="butt">
      <path fill="none" d="M450 260.0098 L450 300 L492.0037 300" clip-path="url(#clipPath2)"/>
    </g>
    <g text-rendering="geometricPrecision" stroke-miterlimit="1.45" shape-rendering="geometricPrecision" transform="matrix(1,0,0,1,-394,-215)" stroke-linecap="butt">
      <path d="M500.0037 300 L488.0037 295 L491.0037 300 L488.0037 305 Z" stroke="none" clip-path="url(#clipPath2)"/>
      <path fill="none" d="M870 339.9902 L870 328.0342" clip-path="url(#clipPath2)"/>
      <path d="M870 320.0342 L865 332.0342 L870 329.0342 L875 332.0342 Z" clip-path="url(#clipPath2)" stroke="none"/>
      <path fill="none" d="M629.9834 300 L656.9836 300" clip-path="url(#clipPath2)"/>
      <path d="M664.9836 300 L652.9836 295 L655.9836 300 L652.9836 305 Z" clip-path="url(#clipPath2)" stroke="none"/>
      <path fill="none" d="M804.9775 240 L773.0208 240" clip-path="url(#clipPath2)"/>
      <path d="M765.0208 240 L777.0208 245 L774.0208 240 L777.0208 235 Z" clip-path="url(#clipPath2)" stroke="none"/>
      <path fill="none" d="M764.991 300 L791.9855 300" clip-path="url(#clipPath2)"/>
      <path d="M799.9855 300 L787.9855 295 L790.9855 300 L787.9855 305 Z" clip-path="url(#clipPath2)" stroke="none"/>
      <path fill="none" d="M940.0123 300 L962.0342 300" clip-path="url(#clipPath2)"/>
      <path d="M970.0342 300 L958.0342 295 L961.0342 300 L958.0342 305 Z" clip-path="url(#clipPath2)" stroke="none"/>
    </g>
  </g>
</svg>
