<?xml version="1.0" encoding="UTF-8"?><svg xmlns="http://www.w3.org/2000/svg" xmlns:xlink="http://www.w3.org/1999/xlink" fill-opacity="1" color-rendering="auto" color-interpolation="auto" text-rendering="auto" stroke="black" stroke-linecap="square" width="705" stroke-miterlimit="10" shape-rendering="auto" stroke-opacity="1" fill="black" stroke-dasharray="none" font-weight="normal" stroke-width="1" height="210" font-family="'Dialog'" font-style="normal" stroke-linejoin="miter" font-size="12px" stroke-dashoffset="0" image-rendering="auto">
  <!--Generated by ySVG 2.5-->
  <defs id="genericDefs"/>
  <g>
    <defs id="defs1">
      <linearGradient x1="385.056" gradientUnits="userSpaceOnUse" x2="425.056" y1="340" y2="380" id="linearGradient1" spreadMethod="reflect">
        <stop stop-opacity="1" stop-color="rgb(124,191,51)" offset="0%"/>
        <stop stop-opacity="1" stop-color="rgb(51,153,102)" offset="100%"/>
      </linearGradient>
      <linearGradient x1="635.056" gradientUnits="userSpaceOnUse" x2="675.056" y1="340" y2="380" id="linearGradient2" spreadMethod="reflect">
        <stop stop-opacity="1" stop-color="rgb(124,191,51)" offset="0%"/>
        <stop stop-opacity="1" stop-color="rgb(51,153,102)" offset="100%"/>
      </linearGradient>
      <linearGradient x1="920" gradientUnits="userSpaceOnUse" x2="960" y1="340" y2="380" id="linearGradient3" spreadMethod="reflect">
        <stop stop-opacity="1" stop-color="rgb(124,191,51)" offset="0%"/>
        <stop stop-opacity="1" stop-color="rgb(51,153,102)" offset="100%"/>
      </linearGradient>
      <clipPath clipPathUnits="userSpaceOnUse" id="clipPath1">
        <path d="M0 0 L705 0 L705 210 L0 210 L0 0 Z"/>
      </clipPath>
      <clipPath clipPathUnits="userSpaceOnUse" id="clipPath2">
        <path d="M340 255 L1045 255 L1045 465 L340 465 L340 255 Z"/>
      </clipPath>
    </defs>
    <g fill="url(#linearGradient1)" text-rendering="geometricPrecision" shape-rendering="geometricPrecision" transform="matrix(1,0,0,1,-340,-255)" stroke="url(#linearGradient1)">
      <path d="M385.056 340 L425.056 340 L425.056 380 L385.056 380 Z" stroke="none" clip-path="url(#clipPath2)"/>
    </g>
    <g text-rendering="geometricPrecision" stroke-miterlimit="1.45" shape-rendering="geometricPrecision" transform="matrix(1,0,0,1,-340,-255)" stroke-linecap="butt">
      <path fill="none" d="M385.056 340 L425.056 340 L425.056 380 L385.056 380 Z" clip-path="url(#clipPath2)"/>
    </g>
    <g stroke-linecap="butt" font-size="10px" transform="matrix(1,0,0,1,-340,-255)" fill="white" text-rendering="geometricPrecision" font-family="sans-serif" shape-rendering="geometricPrecision" stroke="white" font-weight="bold" stroke-miterlimit="1.45">
      <text x="396.7137" xml:space="preserve" y="363.9282" clip-path="url(#clipPath2)" stroke="none">256</text>
    </g>
    <g text-rendering="geometricPrecision" stroke-miterlimit="1.45" shape-rendering="geometricPrecision" transform="matrix(1,0,0,1,-340,-255)" stroke-linecap="butt">
      <path fill="none" d="M385.056 300 L425.056 300 L425.056 340 L385.056 340 Z" clip-path="url(#clipPath2)"/>
      <text x="402.2752" font-size="10px" y="323.9282" clip-path="url(#clipPath2)" font-family="sans-serif" stroke="none" xml:space="preserve">0</text>
    </g>
    <g text-rendering="geometricPrecision" stroke-miterlimit="1.45" shape-rendering="geometricPrecision" transform="matrix(1,0,0,1,-340,-255)" stroke-linecap="butt">
      <path fill="none" d="M425.056 300 L465.056 300 L465.056 340 L425.056 340 Z" clip-path="url(#clipPath2)"/>
      <text x="442.2752" font-size="10px" y="323.9282" clip-path="url(#clipPath2)" font-family="sans-serif" stroke="none" xml:space="preserve">0</text>
    </g>
    <g text-rendering="geometricPrecision" stroke-miterlimit="1.45" shape-rendering="geometricPrecision" transform="matrix(1,0,0,1,-340,-255)" stroke-linecap="butt">
      <path fill="none" d="M345.056 300 L385.056 300 L385.056 340 L345.056 340 Z" clip-path="url(#clipPath2)"/>
      <text x="362.2752" font-size="10px" y="323.9282" clip-path="url(#clipPath2)" font-family="sans-serif" stroke="none" xml:space="preserve">0</text>
    </g>
    <g text-rendering="geometricPrecision" stroke-miterlimit="1.45" shape-rendering="geometricPrecision" transform="matrix(1,0,0,1,-340,-255)" stroke-linecap="butt">
      <path fill="none" d="M345.056 340 L385.056 340 L385.056 380 L345.056 380 Z" clip-path="url(#clipPath2)"/>
      <text x="362.2752" font-size="10px" y="363.9282" clip-path="url(#clipPath2)" font-family="sans-serif" stroke="none" xml:space="preserve">0</text>
    </g>
    <g text-rendering="geometricPrecision" stroke-miterlimit="1.45" shape-rendering="geometricPrecision" transform="matrix(1,0,0,1,-340,-255)" stroke-linecap="butt">
      <path fill="none" d="M345.056 380 L385.056 380 L385.056 420 L345.056 420 Z" clip-path="url(#clipPath2)"/>
      <text x="362.2752" font-size="10px" y="403.9282" clip-path="url(#clipPath2)" font-family="sans-serif" stroke="none" xml:space="preserve">0</text>
    </g>
    <g text-rendering="geometricPrecision" stroke-miterlimit="1.45" shape-rendering="geometricPrecision" transform="matrix(1,0,0,1,-340,-255)" stroke-linecap="butt">
      <path fill="none" d="M385.056 380 L425.056 380 L425.056 420 L385.056 420 Z" clip-path="url(#clipPath2)"/>
      <text x="402.2752" font-size="10px" y="403.9282" clip-path="url(#clipPath2)" font-family="sans-serif" stroke="none" xml:space="preserve">0</text>
    </g>
    <g text-rendering="geometricPrecision" stroke-miterlimit="1.45" shape-rendering="geometricPrecision" transform="matrix(1,0,0,1,-340,-255)" stroke-linecap="butt">
      <path fill="none" d="M425.056 380 L465.056 380 L465.056 420 L425.056 420 Z" clip-path="url(#clipPath2)"/>
      <text x="442.2752" font-size="10px" y="403.9282" clip-path="url(#clipPath2)" font-family="sans-serif" stroke="none" xml:space="preserve">0</text>
    </g>
    <g text-rendering="geometricPrecision" stroke-miterlimit="1.45" shape-rendering="geometricPrecision" transform="matrix(1,0,0,1,-340,-255)" stroke-linecap="butt">
      <path fill="none" d="M425.056 340 L465.056 340 L465.056 380 L425.056 380 Z" clip-path="url(#clipPath2)"/>
      <text x="442.2752" font-size="10px" y="363.9282" clip-path="url(#clipPath2)" font-family="sans-serif" stroke="none" xml:space="preserve">0</text>
    </g>
    <g fill="url(#linearGradient2)" text-rendering="geometricPrecision" shape-rendering="geometricPrecision" transform="matrix(1,0,0,1,-340,-255)" stroke="url(#linearGradient2)">
      <path d="M635.056 340 L675.056 340 L675.056 380 L635.056 380 Z" stroke="none" clip-path="url(#clipPath2)"/>
    </g>
    <g text-rendering="geometricPrecision" stroke-miterlimit="1.45" shape-rendering="geometricPrecision" transform="matrix(1,0,0,1,-340,-255)" stroke-linecap="butt">
      <path fill="none" d="M635.056 340 L675.056 340 L675.056 380 L635.056 380 Z" clip-path="url(#clipPath2)"/>
    </g>
    <g stroke-linecap="butt" font-size="10px" transform="matrix(1,0,0,1,-340,-255)" fill="white" text-rendering="geometricPrecision" font-family="sans-serif" shape-rendering="geometricPrecision" stroke="white" font-weight="bold" stroke-miterlimit="1.45">
      <text x="646.7137" xml:space="preserve" y="363.9282" clip-path="url(#clipPath2)" stroke="none">128</text>
    </g>
    <g text-rendering="geometricPrecision" stroke-miterlimit="1.45" shape-rendering="geometricPrecision" transform="matrix(1,0,0,1,-340,-255)" stroke-linecap="butt">
      <path fill="none" d="M635.056 300 L675.056 300 L675.056 340 L635.056 340 Z" clip-path="url(#clipPath2)"/>
      <text x="649.4945" font-size="10px" y="323.9282" clip-path="url(#clipPath2)" font-family="sans-serif" stroke="none" xml:space="preserve">16</text>
    </g>
    <g text-rendering="geometricPrecision" stroke-miterlimit="1.45" shape-rendering="geometricPrecision" transform="matrix(1,0,0,1,-340,-255)" stroke-linecap="butt">
      <path fill="none" d="M675.056 300 L715.056 300 L715.056 340 L675.056 340 Z" clip-path="url(#clipPath2)"/>
      <text x="692.2753" font-size="10px" y="323.9282" clip-path="url(#clipPath2)" font-family="sans-serif" stroke="none" xml:space="preserve">8</text>
    </g>
    <g text-rendering="geometricPrecision" stroke-miterlimit="1.45" shape-rendering="geometricPrecision" transform="matrix(1,0,0,1,-340,-255)" stroke-linecap="butt">
      <path fill="none" d="M595.056 300 L635.056 300 L635.056 340 L595.056 340 Z" clip-path="url(#clipPath2)"/>
      <text x="612.2753" font-size="10px" y="323.9282" clip-path="url(#clipPath2)" font-family="sans-serif" stroke="none" xml:space="preserve">8</text>
    </g>
    <g text-rendering="geometricPrecision" stroke-miterlimit="1.45" shape-rendering="geometricPrecision" transform="matrix(1,0,0,1,-340,-255)" stroke-linecap="butt">
      <path fill="none" d="M595.056 340 L635.056 340 L635.056 380 L595.056 380 Z" clip-path="url(#clipPath2)"/>
      <text x="609.4945" font-size="10px" y="363.9282" clip-path="url(#clipPath2)" font-family="sans-serif" stroke="none" xml:space="preserve">16</text>
    </g>
    <g text-rendering="geometricPrecision" stroke-miterlimit="1.45" shape-rendering="geometricPrecision" transform="matrix(1,0,0,1,-340,-255)" stroke-linecap="butt">
      <path fill="none" d="M595.056 380 L635.056 380 L635.056 420 L595.056 420 Z" clip-path="url(#clipPath2)"/>
      <text x="612.2753" font-size="10px" y="403.9282" clip-path="url(#clipPath2)" font-family="sans-serif" stroke="none" xml:space="preserve">8</text>
    </g>
    <g text-rendering="geometricPrecision" stroke-miterlimit="1.45" shape-rendering="geometricPrecision" transform="matrix(1,0,0,1,-340,-255)" stroke-linecap="butt">
      <path fill="none" d="M635.056 380 L675.056 380 L675.056 420 L635.056 420 Z" clip-path="url(#clipPath2)"/>
      <text x="649.4945" font-size="10px" y="403.9282" clip-path="url(#clipPath2)" font-family="sans-serif" stroke="none" xml:space="preserve">16</text>
    </g>
    <g text-rendering="geometricPrecision" stroke-miterlimit="1.45" shape-rendering="geometricPrecision" transform="matrix(1,0,0,1,-340,-255)" stroke-linecap="butt">
      <path fill="none" d="M675.056 380 L715.056 380 L715.056 420 L675.056 420 Z" clip-path="url(#clipPath2)"/>
      <text x="692.2753" font-size="10px" y="403.9282" clip-path="url(#clipPath2)" font-family="sans-serif" stroke="none" xml:space="preserve">8</text>
    </g>
    <g text-rendering="geometricPrecision" stroke-miterlimit="1.45" shape-rendering="geometricPrecision" transform="matrix(1,0,0,1,-340,-255)" stroke-linecap="butt">
      <path fill="none" d="M675.056 340 L715.056 340 L715.056 380 L675.056 380 Z" clip-path="url(#clipPath2)"/>
      <text x="689.4945" font-size="10px" y="363.9282" clip-path="url(#clipPath2)" font-family="sans-serif" stroke="none" xml:space="preserve">16</text>
    </g>
    <g fill="url(#linearGradient3)" text-rendering="geometricPrecision" shape-rendering="geometricPrecision" transform="matrix(1,0,0,1,-340,-255)" stroke="url(#linearGradient3)">
      <path d="M920 340 L960 340 L960 380 L920 380 Z" stroke="none" clip-path="url(#clipPath2)"/>
    </g>
    <g text-rendering="geometricPrecision" stroke-miterlimit="1.45" shape-rendering="geometricPrecision" transform="matrix(1,0,0,1,-340,-255)" stroke-linecap="butt">
      <path fill="none" d="M920 340 L960 340 L960 380 L920 380 Z" clip-path="url(#clipPath2)"/>
    </g>
    <g stroke-linecap="butt" font-size="10px" transform="matrix(1,0,0,1,-340,-255)" fill="white" text-rendering="geometricPrecision" font-family="sans-serif" shape-rendering="geometricPrecision" stroke="white" font-weight="bold" stroke-miterlimit="1.45">
      <text x="934.4385" xml:space="preserve" y="363.9282" clip-path="url(#clipPath2)" stroke="none">64</text>
    </g>
    <g text-rendering="geometricPrecision" stroke-miterlimit="1.45" shape-rendering="geometricPrecision" transform="matrix(1,0,0,1,-340,-255)" stroke-linecap="butt">
      <path fill="none" d="M920 300 L960 300 L960 340 L920 340 Z" clip-path="url(#clipPath2)"/>
      <text x="934.4385" font-size="10px" y="323.9282" clip-path="url(#clipPath2)" font-family="sans-serif" stroke="none" xml:space="preserve">24</text>
    </g>
    <g text-rendering="geometricPrecision" stroke-miterlimit="1.45" shape-rendering="geometricPrecision" transform="matrix(1,0,0,1,-340,-255)" stroke-linecap="butt">
      <path fill="none" d="M960 300 L1000 300 L1000 340 L960 340 Z" clip-path="url(#clipPath2)"/>
      <text x="974.4385" font-size="10px" y="323.9282" clip-path="url(#clipPath2)" font-family="sans-serif" stroke="none" xml:space="preserve">12</text>
    </g>
    <g text-rendering="geometricPrecision" stroke-miterlimit="1.45" shape-rendering="geometricPrecision" transform="matrix(1,0,0,1,-340,-255)" stroke-linecap="butt">
      <path fill="none" d="M880 300 L920 300 L920 340 L880 340 Z" clip-path="url(#clipPath2)"/>
      <text x="894.4385" font-size="10px" y="323.9282" clip-path="url(#clipPath2)" font-family="sans-serif" stroke="none" xml:space="preserve">12</text>
    </g>
    <g text-rendering="geometricPrecision" stroke-miterlimit="1.45" shape-rendering="geometricPrecision" transform="matrix(1,0,0,1,-340,-255)" stroke-linecap="butt">
      <path fill="none" d="M880 340 L920 340 L920 380 L880 380 Z" clip-path="url(#clipPath2)"/>
      <text x="894.4385" font-size="10px" y="363.9282" clip-path="url(#clipPath2)" font-family="sans-serif" stroke="none" xml:space="preserve">24</text>
    </g>
    <g text-rendering="geometricPrecision" stroke-miterlimit="1.45" shape-rendering="geometricPrecision" transform="matrix(1,0,0,1,-340,-255)" stroke-linecap="butt">
      <path fill="none" d="M880 380 L920 380 L920 420 L880 420 Z" clip-path="url(#clipPath2)"/>
      <text x="894.4385" font-size="10px" y="403.9282" clip-path="url(#clipPath2)" font-family="sans-serif" stroke="none" xml:space="preserve">12</text>
    </g>
    <g text-rendering="geometricPrecision" stroke-miterlimit="1.45" shape-rendering="geometricPrecision" transform="matrix(1,0,0,1,-340,-255)" stroke-linecap="butt">
      <path fill="none" d="M920 380 L960 380 L960 420 L920 420 Z" clip-path="url(#clipPath2)"/>
      <text x="934.4385" font-size="10px" y="403.9282" clip-path="url(#clipPath2)" font-family="sans-serif" stroke="none" xml:space="preserve">24</text>
    </g>
    <g text-rendering="geometricPrecision" stroke-miterlimit="1.45" shape-rendering="geometricPrecision" transform="matrix(1,0,0,1,-340,-255)" stroke-linecap="butt">
      <path fill="none" d="M960 380 L1000 380 L1000 420 L960 420 Z" clip-path="url(#clipPath2)"/>
      <text x="974.4385" font-size="10px" y="403.9282" clip-path="url(#clipPath2)" font-family="sans-serif" stroke="none" xml:space="preserve">12</text>
    </g>
    <g stroke-linecap="round" transform="matrix(1,0,0,1,-340,-255)" stroke-dashoffset="2" text-rendering="geometricPrecision" shape-rendering="geometricPrecision" stroke-dasharray="0,4" stroke-miterlimit="1.45">
      <path fill="none" d="M1000 260 L1040 260 L1040 300 L1000 300 Z" clip-path="url(#clipPath2)"/>
    </g>
    <g font-size="10px" stroke-linecap="butt" transform="matrix(1,0,0,1,-340,-255)" text-rendering="geometricPrecision" font-family="sans-serif" shape-rendering="geometricPrecision" stroke-miterlimit="1.45">
      <text x="1017.2192" xml:space="preserve" y="283.9282" clip-path="url(#clipPath2)" stroke="none">2</text>
    </g>
    <g stroke-linecap="round" transform="matrix(1,0,0,1,-340,-255)" stroke-dashoffset="2" text-rendering="geometricPrecision" shape-rendering="geometricPrecision" stroke-dasharray="0,4" stroke-miterlimit="1.45">
      <path fill="none" d="M840 260 L880 260 L880 300 L840 300 Z" clip-path="url(#clipPath2)"/>
    </g>
    <g font-size="10px" stroke-linecap="butt" transform="matrix(1,0,0,1,-340,-255)" text-rendering="geometricPrecision" font-family="sans-serif" shape-rendering="geometricPrecision" stroke-miterlimit="1.45">
      <text x="857.2192" xml:space="preserve" y="283.9282" clip-path="url(#clipPath2)" stroke="none">2</text>
    </g>
    <g stroke-linecap="round" transform="matrix(1,0,0,1,-340,-255)" stroke-dashoffset="2" text-rendering="geometricPrecision" shape-rendering="geometricPrecision" stroke-dasharray="0,4" stroke-miterlimit="1.45">
      <path fill="none" d="M880 260 L920 260 L920 300 L880 300 Z" clip-path="url(#clipPath2)"/>
    </g>
    <g font-size="10px" stroke-linecap="butt" transform="matrix(1,0,0,1,-340,-255)" text-rendering="geometricPrecision" font-family="sans-serif" shape-rendering="geometricPrecision" stroke-miterlimit="1.45">
      <text x="897.2192" xml:space="preserve" y="283.9282" clip-path="url(#clipPath2)" stroke="none">4</text>
    </g>
    <g stroke-linecap="round" transform="matrix(1,0,0,1,-340,-255)" stroke-dashoffset="2" text-rendering="geometricPrecision" shape-rendering="geometricPrecision" stroke-dasharray="0,4" stroke-miterlimit="1.45">
      <path fill="none" d="M920 260 L960 260 L960 300 L920 300 Z" clip-path="url(#clipPath2)"/>
    </g>
    <g font-size="10px" stroke-linecap="butt" transform="matrix(1,0,0,1,-340,-255)" text-rendering="geometricPrecision" font-family="sans-serif" shape-rendering="geometricPrecision" stroke-miterlimit="1.45">
      <text x="937.2192" xml:space="preserve" y="283.9282" clip-path="url(#clipPath2)" stroke="none">8</text>
    </g>
    <g stroke-linecap="round" transform="matrix(1,0,0,1,-340,-255)" stroke-dashoffset="2" text-rendering="geometricPrecision" shape-rendering="geometricPrecision" stroke-dasharray="0,4" stroke-miterlimit="1.45">
      <path fill="none" d="M960 260 L1000 260 L1000 300 L960 300 Z" clip-path="url(#clipPath2)"/>
    </g>
    <g font-size="10px" stroke-linecap="butt" transform="matrix(1,0,0,1,-340,-255)" text-rendering="geometricPrecision" font-family="sans-serif" shape-rendering="geometricPrecision" stroke-miterlimit="1.45">
      <text x="977.2192" xml:space="preserve" y="283.9282" clip-path="url(#clipPath2)" stroke="none">4</text>
    </g>
    <g stroke-linecap="round" transform="matrix(1,0,0,1,-340,-255)" stroke-dashoffset="2" text-rendering="geometricPrecision" shape-rendering="geometricPrecision" stroke-dasharray="0,4" stroke-miterlimit="1.45">
      <path fill="none" d="M1000 420 L1040 420 L1040 460 L1000 460 Z" clip-path="url(#clipPath2)"/>
    </g>
    <g font-size="10px" stroke-linecap="butt" transform="matrix(1,0,0,1,-340,-255)" text-rendering="geometricPrecision" font-family="sans-serif" shape-rendering="geometricPrecision" stroke-miterlimit="1.45">
      <text x="1017.2192" xml:space="preserve" y="443.9282" clip-path="url(#clipPath2)" stroke="none">2</text>
    </g>
    <g stroke-linecap="round" transform="matrix(1,0,0,1,-340,-255)" stroke-dashoffset="2" text-rendering="geometricPrecision" shape-rendering="geometricPrecision" stroke-dasharray="0,4" stroke-miterlimit="1.45">
      <path fill="none" d="M840 420 L880 420 L880 460 L840 460 Z" clip-path="url(#clipPath2)"/>
    </g>
    <g font-size="10px" stroke-linecap="butt" transform="matrix(1,0,0,1,-340,-255)" text-rendering="geometricPrecision" font-family="sans-serif" shape-rendering="geometricPrecision" stroke-miterlimit="1.45">
      <text x="857.2192" xml:space="preserve" y="443.9282" clip-path="url(#clipPath2)" stroke="none">2</text>
    </g>
    <g stroke-linecap="round" transform="matrix(1,0,0,1,-340,-255)" stroke-dashoffset="2" text-rendering="geometricPrecision" shape-rendering="geometricPrecision" stroke-dasharray="0,4" stroke-miterlimit="1.45">
      <path fill="none" d="M880 420 L920 420 L920 460 L880 460 Z" clip-path="url(#clipPath2)"/>
    </g>
    <g font-size="10px" stroke-linecap="butt" transform="matrix(1,0,0,1,-340,-255)" text-rendering="geometricPrecision" font-family="sans-serif" shape-rendering="geometricPrecision" stroke-miterlimit="1.45">
      <text x="897.2192" xml:space="preserve" y="443.9282" clip-path="url(#clipPath2)" stroke="none">4</text>
    </g>
    <g stroke-linecap="round" transform="matrix(1,0,0,1,-340,-255)" stroke-dashoffset="2" text-rendering="geometricPrecision" shape-rendering="geometricPrecision" stroke-dasharray="0,4" stroke-miterlimit="1.45">
      <path fill="none" d="M920 420 L960 420 L960 460 L920 460 Z" clip-path="url(#clipPath2)"/>
    </g>
    <g font-size="10px" stroke-linecap="butt" transform="matrix(1,0,0,1,-340,-255)" text-rendering="geometricPrecision" font-family="sans-serif" shape-rendering="geometricPrecision" stroke-miterlimit="1.45">
      <text x="937.2192" xml:space="preserve" y="443.9282" clip-path="url(#clipPath2)" stroke="none">8</text>
    </g>
    <g stroke-linecap="round" transform="matrix(1,0,0,1,-340,-255)" stroke-dashoffset="2" text-rendering="geometricPrecision" shape-rendering="geometricPrecision" stroke-dasharray="0,4" stroke-miterlimit="1.45">
      <path fill="none" d="M960 420 L1000 420 L1000 460 L960 460 Z" clip-path="url(#clipPath2)"/>
    </g>
    <g font-size="10px" stroke-linecap="butt" transform="matrix(1,0,0,1,-340,-255)" text-rendering="geometricPrecision" font-family="sans-serif" shape-rendering="geometricPrecision" stroke-miterlimit="1.45">
      <text x="977.2192" xml:space="preserve" y="443.9282" clip-path="url(#clipPath2)" stroke="none">4</text>
    </g>
    <g stroke-linecap="round" transform="matrix(1,0,0,1,-340,-255)" stroke-dashoffset="2" text-rendering="geometricPrecision" shape-rendering="geometricPrecision" stroke-dasharray="0,4" stroke-miterlimit="1.45">
      <path fill="none" d="M840 300 L880 300 L880 340 L840 340 Z" clip-path="url(#clipPath2)"/>
    </g>
    <g font-size="10px" stroke-linecap="butt" transform="matrix(1,0,0,1,-340,-255)" text-rendering="geometricPrecision" font-family="sans-serif" shape-rendering="geometricPrecision" stroke-miterlimit="1.45">
      <text x="857.2192" xml:space="preserve" y="323.9282" clip-path="url(#clipPath2)" stroke="none">4</text>
    </g>
    <g stroke-linecap="round" transform="matrix(1,0,0,1,-340,-255)" stroke-dashoffset="2" text-rendering="geometricPrecision" shape-rendering="geometricPrecision" stroke-dasharray="0,4" stroke-miterlimit="1.45">
      <path fill="none" d="M840 340 L880 340 L880 380 L840 380 Z" clip-path="url(#clipPath2)"/>
    </g>
    <g font-size="10px" stroke-linecap="butt" transform="matrix(1,0,0,1,-340,-255)" text-rendering="geometricPrecision" font-family="sans-serif" shape-rendering="geometricPrecision" stroke-miterlimit="1.45">
      <text x="857.2192" xml:space="preserve" y="363.9282" clip-path="url(#clipPath2)" stroke="none">8</text>
    </g>
    <g stroke-linecap="round" transform="matrix(1,0,0,1,-340,-255)" stroke-dashoffset="2" text-rendering="geometricPrecision" shape-rendering="geometricPrecision" stroke-dasharray="0,4" stroke-miterlimit="1.45">
      <path fill="none" d="M840 380 L880 380 L880 420 L840 420 Z" clip-path="url(#clipPath2)"/>
    </g>
    <g font-size="10px" stroke-linecap="butt" transform="matrix(1,0,0,1,-340,-255)" text-rendering="geometricPrecision" font-family="sans-serif" shape-rendering="geometricPrecision" stroke-miterlimit="1.45">
      <text x="857.2192" xml:space="preserve" y="403.9282" clip-path="url(#clipPath2)" stroke="none">4</text>
    </g>
    <g stroke-linecap="round" transform="matrix(1,0,0,1,-340,-255)" stroke-dashoffset="2" text-rendering="geometricPrecision" shape-rendering="geometricPrecision" stroke-dasharray="0,4" stroke-miterlimit="1.45">
      <path fill="none" d="M1000 300 L1040 300 L1040 340 L1000 340 Z" clip-path="url(#clipPath2)"/>
    </g>
    <g font-size="10px" stroke-linecap="butt" transform="matrix(1,0,0,1,-340,-255)" text-rendering="geometricPrecision" font-family="sans-serif" shape-rendering="geometricPrecision" stroke-miterlimit="1.45">
      <text x="1017.2192" xml:space="preserve" y="323.9282" clip-path="url(#clipPath2)" stroke="none">4</text>
    </g>
    <g stroke-linecap="round" transform="matrix(1,0,0,1,-340,-255)" stroke-dashoffset="2" text-rendering="geometricPrecision" shape-rendering="geometricPrecision" stroke-dasharray="0,4" stroke-miterlimit="1.45">
      <path fill="none" d="M1000 340 L1040 340 L1040 380 L1000 380 Z" clip-path="url(#clipPath2)"/>
    </g>
    <g font-size="10px" stroke-linecap="butt" transform="matrix(1,0,0,1,-340,-255)" text-rendering="geometricPrecision" font-family="sans-serif" shape-rendering="geometricPrecision" stroke-miterlimit="1.45">
      <text x="1017.2192" xml:space="preserve" y="363.9282" clip-path="url(#clipPath2)" stroke="none">8</text>
    </g>
    <g stroke-linecap="round" transform="matrix(1,0,0,1,-340,-255)" stroke-dashoffset="2" text-rendering="geometricPrecision" shape-rendering="geometricPrecision" stroke-dasharray="0,4" stroke-miterlimit="1.45">
      <path fill="none" d="M1000 380 L1040 380 L1040 420 L1000 420 Z" clip-path="url(#clipPath2)"/>
    </g>
    <g font-size="10px" stroke-linecap="butt" transform="matrix(1,0,0,1,-340,-255)" text-rendering="geometricPrecision" font-family="sans-serif" shape-rendering="geometricPrecision" stroke-miterlimit="1.45">
      <text x="1017.2192" xml:space="preserve" y="403.9282" clip-path="url(#clipPath2)" stroke="none">4</text>
    </g>
    <g text-rendering="geometricPrecision" stroke-miterlimit="1.45" shape-rendering="geometricPrecision" transform="matrix(1,0,0,1,-340,-255)" stroke-linecap="butt">
      <path fill="none" d="M960 340 L1000 340 L1000 380 L960 380 Z" clip-path="url(#clipPath2)"/>
      <text x="974.4385" font-size="10px" y="363.9282" clip-path="url(#clipPath2)" font-family="sans-serif" stroke="none" xml:space="preserve">24</text>
    </g>
    <g font-size="8px" stroke-linecap="butt" transform="matrix(1,0,0,1,-340,-255)" text-rendering="geometricPrecision" font-family="sans-serif" shape-rendering="geometricPrecision" font-weight="bold" stroke-miterlimit="1.45">
      <text x="501.7462" xml:space="preserve" y="380.043" clip-path="url(#clipPath2)" stroke="none">écriture des résultats</text>
    </g>
    <g font-size="10px" stroke-linecap="butt" transform="matrix(1,0,0,1,-340,-255)" text-rendering="geometricPrecision" font-family="sans-serif" shape-rendering="geometricPrecision" font-weight="bold" stroke-miterlimit="1.45">
      <text x="506.672" xml:space="preserve" y="345.8027" clip-path="url(#clipPath2)" stroke="none">Diffusion</text>
    </g>
    <g font-size="8px" stroke-linecap="butt" transform="matrix(1,0,0,1,-340,-255)" text-rendering="geometricPrecision" font-family="sans-serif" shape-rendering="geometricPrecision" font-weight="bold" stroke-miterlimit="1.45">
      <text x="748.1622" xml:space="preserve" y="380.043" clip-path="url(#clipPath2)" stroke="none">écriture des résultats</text>
    </g>
    <g font-size="10px" stroke-linecap="butt" transform="matrix(1,0,0,1,-340,-255)" text-rendering="geometricPrecision" font-family="sans-serif" shape-rendering="geometricPrecision" font-weight="bold" stroke-miterlimit="1.45">
      <text x="753.088" xml:space="preserve" y="345.8027" clip-path="url(#clipPath2)" stroke="none">Diffusion</text>
    </g>
    <g text-rendering="geometricPrecision" stroke-miterlimit="1.45" stroke-width="2" shape-rendering="geometricPrecision" transform="matrix(1,0,0,1,-340,-255)" stroke-linecap="butt">
      <path fill="none" d="M498.6476 360 L559.708 360" clip-path="url(#clipPath2)"/>
    </g>
    <g text-rendering="geometricPrecision" stroke-miterlimit="1.45" stroke-width="2" shape-rendering="geometricPrecision" transform="matrix(1,0,0,1,-340,-255)" stroke-linecap="butt">
      <path d="M568.708 360 L555.208 354.375 L558.583 360 L555.208 365.625 Z" stroke="none" clip-path="url(#clipPath2)"/>
      <path fill="none" d="M745.0636 360 L806.124 360" clip-path="url(#clipPath2)"/>
      <path d="M815.124 360 L801.624 354.375 L804.999 360 L801.624 365.625 Z" clip-path="url(#clipPath2)" stroke="none"/>
    </g>
  </g>
</svg>
