<?xml version="1.0" encoding="UTF-8"?><svg xmlns="http://www.w3.org/2000/svg" xmlns:xlink="http://www.w3.org/1999/xlink" fill-opacity="1" color-rendering="auto" color-interpolation="auto" text-rendering="auto" stroke="black" stroke-linecap="square" width="850" stroke-miterlimit="10" shape-rendering="auto" stroke-opacity="1" fill="black" stroke-dasharray="none" font-weight="normal" stroke-width="1" height="185" font-family="'Dialog'" font-style="normal" stroke-linejoin="miter" font-size="12px" stroke-dashoffset="0" image-rendering="auto">
  <!--Generated by ySVG 2.5-->
  <defs id="genericDefs"/>
  <g>
    <defs id="defs1">
      <linearGradient x1="670" gradientUnits="userSpaceOnUse" x2="830" y1="125" y2="175" id="linearGradient1" spreadMethod="reflect">
        <stop stop-opacity="1" stop-color="rgb(234,234,234)" offset="0%"/>
        <stop stop-opacity="1" stop-color="rgb(204,204,204)" offset="100%"/>
      </linearGradient>
      <linearGradient x1="640" gradientUnits="userSpaceOnUse" x2="860" y1="186.2" y2="236.2" id="linearGradient2" spreadMethod="reflect">
        <stop stop-opacity="1" stop-color="rgb(234,234,234)" offset="0%"/>
        <stop stop-opacity="1" stop-color="rgb(204,204,204)" offset="100%"/>
      </linearGradient>
      <linearGradient x1="402.5" gradientUnits="userSpaceOnUse" x2="617.5" y1="125" y2="175" id="linearGradient3" spreadMethod="reflect">
        <stop stop-opacity="1" stop-color="rgb(234,234,234)" offset="0%"/>
        <stop stop-opacity="1" stop-color="rgb(204,204,204)" offset="100%"/>
      </linearGradient>
      <linearGradient x1="885" gradientUnits="userSpaceOnUse" x2="1035" y1="125" y2="175" id="linearGradient4" spreadMethod="reflect">
        <stop stop-opacity="1" stop-color="rgb(234,234,234)" offset="0%"/>
        <stop stop-opacity="1" stop-color="rgb(204,204,204)" offset="100%"/>
      </linearGradient>
      <clipPath clipPathUnits="userSpaceOnUse" id="clipPath1">
        <path d="M0 0 L850 0 L850 185 L0 185 L0 0 Z"/>
      </clipPath>
      <clipPath clipPathUnits="userSpaceOnUse" id="clipPath2">
        <path d="M325 69 L1175 69 L1175 254 L325 254 L325 69 Z"/>
      </clipPath>
    </defs>
    <g stroke-linecap="round" transform="matrix(1,0,0,1,-325,-69)" stroke-dashoffset="2" fill="silver" text-rendering="geometricPrecision" shape-rendering="geometricPrecision" stroke-dasharray="0,4" stroke="silver" stroke-miterlimit="1.45">
      <path fill="none" d="M330 74 L1170 74 L1170 249 L330 249 Z" clip-path="url(#clipPath2)"/>
    </g>
    <g fill="url(#linearGradient1)" text-rendering="geometricPrecision" shape-rendering="geometricPrecision" transform="matrix(1,0,0,1,-325,-69)" stroke="url(#linearGradient1)">
      <path d="M670 125 L830 125 L830 175 L670 175 Z" stroke="none" clip-path="url(#clipPath2)"/>
    </g>
    <g text-rendering="geometricPrecision" stroke-miterlimit="1.45" shape-rendering="geometricPrecision" transform="matrix(1,0,0,1,-325,-69)" stroke-linecap="butt">
      <path fill="none" d="M670 125 L830 125 L830 175 L670 175 Z" clip-path="url(#clipPath2)"/>
      <text x="696.8262" xml:space="preserve" y="147.3633" clip-path="url(#clipPath2)" font-family="sans-serif" stroke="none">(1) Calcul de l'étape</text>
      <text x="690.6328" xml:space="preserve" y="162.0645" clip-path="url(#clipPath2)" font-family="sans-serif" stroke="none">de simulation suivante</text>
    </g>
    <g fill="url(#linearGradient2)" text-rendering="geometricPrecision" shape-rendering="geometricPrecision" transform="matrix(1,0,0,1,-325,-69)" stroke="url(#linearGradient2)">
      <rect x="640" width="220" height="50" y="186.2" clip-path="url(#clipPath2)" stroke="none"/>
    </g>
    <g text-rendering="geometricPrecision" stroke-miterlimit="1.45" shape-rendering="geometricPrecision" transform="matrix(1,0,0,1,-325,-69)" stroke-linecap="butt">
      <path fill="none" d="M640 192.45 L640 186.2 L860 186.2 L860 192.45" clip-path="url(#clipPath2)"/>
      <text x="675.2959" xml:space="preserve" y="201.2127" clip-path="url(#clipPath2)" font-family="sans-serif" stroke="none">Toutes les cellules calculent</text>
      <text x="686.959" xml:space="preserve" y="215.9139" clip-path="url(#clipPath2)" font-family="sans-serif" stroke="none">leur état pour le pas de </text>
      <text x="712.9834" xml:space="preserve" y="230.615" clip-path="url(#clipPath2)" font-family="sans-serif" stroke="none">temps suivant</text>
    </g>
    <g fill="url(#linearGradient3)" text-rendering="geometricPrecision" shape-rendering="geometricPrecision" transform="matrix(1,0,0,1,-325,-69)" stroke="url(#linearGradient3)">
      <rect x="402.5" width="215" height="50" y="125" clip-path="url(#clipPath2)" stroke="none"/>
    </g>
    <g text-rendering="geometricPrecision" stroke-miterlimit="1.45" shape-rendering="geometricPrecision" transform="matrix(1,0,0,1,-325,-69)" stroke-linecap="butt">
      <path fill="none" d="M590.625 125 L617.5 125 L617.5 175 L590.625 175" clip-path="url(#clipPath2)"/>
      <text x="423.2842" xml:space="preserve" y="147.3633" clip-path="url(#clipPath2)" font-family="sans-serif" stroke="none">Initialisation aléatoire de la grille </text>
      <text x="423.2842" xml:space="preserve" y="162.0645" clip-path="url(#clipPath2)" font-family="sans-serif" stroke="none">et de tous les états des cellules </text>
    </g>
    <g fill="url(#linearGradient4)" text-rendering="geometricPrecision" shape-rendering="geometricPrecision" transform="matrix(1,0,0,1,-325,-69)" stroke="url(#linearGradient4)">
      <path d="M885 125 L1035 125 L1035 175 L885 175 Z" stroke="none" clip-path="url(#clipPath2)"/>
    </g>
    <g text-rendering="geometricPrecision" stroke-miterlimit="1.45" shape-rendering="geometricPrecision" transform="matrix(1,0,0,1,-325,-69)" stroke-linecap="butt">
      <path fill="none" d="M885 125 L1035 125 L1035 175 L885 175 Z" clip-path="url(#clipPath2)"/>
      <text x="905.3115" xml:space="preserve" y="147.3633" clip-path="url(#clipPath2)" font-family="sans-serif" stroke="none">(2) Mise à jour de la </text>
      <text x="904.6377" xml:space="preserve" y="162.0645" clip-path="url(#clipPath2)" font-family="sans-serif" stroke="none">grille de visualisation</text>
    </g>
    <g text-rendering="geometricPrecision" stroke-miterlimit="1.45" shape-rendering="geometricPrecision" transform="matrix(1,0,0,1,-325,-69)" stroke-linecap="butt">
      <path fill="none" d="M750 175.0119 L750 186.2147" clip-path="url(#clipPath2)"/>
    </g>
    <g text-rendering="geometricPrecision" stroke-miterlimit="1.45" shape-rendering="geometricPrecision" transform="matrix(1,0,0,1,-325,-69)" stroke-linecap="butt">
      <path fill="none" d="M617.5199 150 L662.0135 150" clip-path="url(#clipPath2)"/>
      <path d="M670.0135 150 L658.0135 145 L661.0135 150 L658.0135 155 Z" clip-path="url(#clipPath2)" stroke="none"/>
      <path fill="none" d="M830.0061 150 L877.006 150" clip-path="url(#clipPath2)"/>
      <path d="M885.006 150 L873.006 145 L876.006 150 L873.006 155 Z" clip-path="url(#clipPath2)" stroke="none"/>
      <path fill="none" d="M1034.9735 150 L1050 150 L1050 90 L750 90 L750 117.0098" clip-path="url(#clipPath2)"/>
      <path d="M750 125.0098 L755 113.0098 L750 116.0098 L745 113.0098 Z" clip-path="url(#clipPath2)" stroke="none"/>
    </g>
  </g>
</svg>
