<?xml version="1.0" encoding="UTF-8"?><svg xmlns="http://www.w3.org/2000/svg" xmlns:xlink="http://www.w3.org/1999/xlink" fill-opacity="1" color-rendering="auto" color-interpolation="auto" text-rendering="auto" stroke="black" stroke-linecap="square" width="850" stroke-miterlimit="10" shape-rendering="auto" stroke-opacity="1" fill="black" stroke-dasharray="none" font-weight="normal" stroke-width="1" height="193" font-family="'Dialog'" font-style="normal" stroke-linejoin="miter" font-size="12px" stroke-dashoffset="0" image-rendering="auto">
  <!--Generated by ySVG 2.5-->
  <defs id="genericDefs"/>
  <g>
    <defs id="defs1">
      <linearGradient x1="540" gradientUnits="userSpaceOnUse" x2="680" y1="160" y2="200" id="linearGradient1" spreadMethod="reflect">
        <stop stop-opacity="1" stop-color="rgb(234,234,234)" offset="0%"/>
        <stop stop-opacity="1" stop-color="rgb(204,204,204)" offset="100%"/>
      </linearGradient>
      <linearGradient x1="535" gradientUnits="userSpaceOnUse" x2="685" y1="215.75" y2="265.75" id="linearGradient2" spreadMethod="reflect">
        <stop stop-opacity="1" stop-color="rgb(234,234,234)" offset="0%"/>
        <stop stop-opacity="1" stop-color="rgb(204,204,204)" offset="100%"/>
      </linearGradient>
      <linearGradient x1="270" gradientUnits="userSpaceOnUse" x2="510" y1="120" y2="160" id="linearGradient3" spreadMethod="reflect">
        <stop stop-opacity="1" stop-color="rgb(234,234,234)" offset="0%"/>
        <stop stop-opacity="1" stop-color="rgb(204,204,204)" offset="100%"/>
      </linearGradient>
      <linearGradient x1="740.03" gradientUnits="userSpaceOnUse" x2="850.03" y1="160" y2="200" id="linearGradient4" spreadMethod="reflect">
        <stop stop-opacity="1" stop-color="rgb(234,234,234)" offset="0%"/>
        <stop stop-opacity="1" stop-color="rgb(204,204,204)" offset="100%"/>
      </linearGradient>
      <linearGradient x1="715" gradientUnits="userSpaceOnUse" x2="875.06" y1="216" y2="265.5" id="linearGradient5" spreadMethod="reflect">
        <stop stop-opacity="1" stop-color="rgb(234,234,234)" offset="0%"/>
        <stop stop-opacity="1" stop-color="rgb(204,204,204)" offset="100%"/>
      </linearGradient>
      <linearGradient x1="933.61" gradientUnits="userSpaceOnUse" x2="1043.61" y1="160" y2="200" id="linearGradient6" spreadMethod="reflect">
        <stop stop-opacity="1" stop-color="rgb(234,234,234)" offset="0%"/>
        <stop stop-opacity="1" stop-color="rgb(204,204,204)" offset="100%"/>
      </linearGradient>
      <linearGradient x1="905.06" gradientUnits="userSpaceOnUse" x2="1072.16" y1="216" y2="265.5" id="linearGradient7" spreadMethod="reflect">
        <stop stop-opacity="1" stop-color="rgb(234,234,234)" offset="0%"/>
        <stop stop-opacity="1" stop-color="rgb(204,204,204)" offset="100%"/>
      </linearGradient>
      <clipPath clipPathUnits="userSpaceOnUse" id="clipPath1">
        <path d="M0 0 L850 0 L850 193 L0 193 L0 0 Z"/>
      </clipPath>
      <clipPath clipPathUnits="userSpaceOnUse" id="clipPath2">
        <path d="M247 93 L1097 93 L1097 286 L247 286 L247 93 Z"/>
      </clipPath>
    </defs>
    <g stroke-linecap="round" transform="matrix(1,0,0,1,-247,-93)" stroke-dashoffset="2" fill="silver" text-rendering="geometricPrecision" shape-rendering="geometricPrecision" stroke-dasharray="0,4" stroke="silver" stroke-miterlimit="1.45">
      <path fill="none" d="M252 98 L1092 98 L1092 280 L252 280 Z" clip-path="url(#clipPath2)"/>
    </g>
    <g fill="url(#linearGradient1)" text-rendering="geometricPrecision" shape-rendering="geometricPrecision" transform="matrix(1,0,0,1,-247,-93)" stroke="url(#linearGradient1)">
      <path d="M540 160 L680 160 L680 200 L540 200 Z" stroke="none" clip-path="url(#clipPath2)"/>
    </g>
    <g text-rendering="geometricPrecision" stroke-miterlimit="1.45" shape-rendering="geometricPrecision" transform="matrix(1,0,0,1,-247,-93)" stroke-linecap="butt">
      <path fill="none" d="M540 160 L680 160 L680 200 L540 200 Z" clip-path="url(#clipPath2)"/>
      <text x="569.6494" xml:space="preserve" y="177.3633" clip-path="url(#clipPath2)" font-family="sans-serif" stroke="none">(1) Initialisation</text>
      <text x="573.1621" xml:space="preserve" y="192.0645" clip-path="url(#clipPath2)" font-family="sans-serif" stroke="none">de l'agent fixe</text>
    </g>
    <g fill="url(#linearGradient2)" text-rendering="geometricPrecision" shape-rendering="geometricPrecision" transform="matrix(1,0,0,1,-247,-93)" stroke="url(#linearGradient2)">
      <rect x="535" width="150" height="50" y="215.75" clip-path="url(#clipPath2)" stroke="none"/>
    </g>
    <g text-rendering="geometricPrecision" stroke-miterlimit="1.45" shape-rendering="geometricPrecision" transform="matrix(1,0,0,1,-247,-93)" stroke-linecap="butt">
      <path fill="none" d="M535 222 L535 215.75 L685 215.75 L685 222" clip-path="url(#clipPath2)"/>
      <text x="550.6328" xml:space="preserve" y="230.7627" clip-path="url(#clipPath2)" font-family="sans-serif" stroke="none">Aléatoirement prendre</text>
      <text x="555.6309" xml:space="preserve" y="245.4639" clip-path="url(#clipPath2)" font-family="sans-serif" stroke="none"> un agent et lui faire </text>
      <text x="561.7188" xml:space="preserve" y="260.165" clip-path="url(#clipPath2)" font-family="sans-serif" stroke="none">jouer le rôle "stay"</text>
    </g>
    <g fill="url(#linearGradient3)" text-rendering="geometricPrecision" shape-rendering="geometricPrecision" transform="matrix(1,0,0,1,-247,-93)" stroke="url(#linearGradient3)">
      <rect x="270" width="240" height="40" y="120" clip-path="url(#clipPath2)" stroke="none"/>
    </g>
    <g text-rendering="geometricPrecision" stroke-miterlimit="1.45" shape-rendering="geometricPrecision" transform="matrix(1,0,0,1,-247,-93)" stroke-linecap="butt">
      <path fill="none" d="M270 155 L270 160 L510 160 L510 155" clip-path="url(#clipPath2)"/>
      <text x="295.5996" xml:space="preserve" y="137.3633" clip-path="url(#clipPath2)" font-family="sans-serif" stroke="none">Initialisation des agents, </text>
      <text x="295.5996" xml:space="preserve" y="152.0645" clip-path="url(#clipPath2)" font-family="sans-serif" stroke="none">chacun ayant une position aléatoire</text>
    </g>
    <g fill="url(#linearGradient4)" text-rendering="geometricPrecision" shape-rendering="geometricPrecision" transform="matrix(1,0,0,1,-247,-93)" stroke="url(#linearGradient4)">
      <path d="M740.03 160 L850.03 160 L850.03 200 L740.03 200 Z" stroke="none" clip-path="url(#clipPath2)"/>
    </g>
    <g text-rendering="geometricPrecision" stroke-miterlimit="1.45" shape-rendering="geometricPrecision" transform="matrix(1,0,0,1,-247,-93)" stroke-linecap="butt">
      <path fill="none" d="M740.03 160 L850.03 160 L850.03 200 L740.03 200 Z" clip-path="url(#clipPath2)"/>
      <text x="761.3474" xml:space="preserve" y="177.3633" clip-path="url(#clipPath2)" font-family="sans-serif" stroke="none">(2) Evolution</text>
      <text x="765.6746" xml:space="preserve" y="192.0645" clip-path="url(#clipPath2)" font-family="sans-serif" stroke="none">des agents</text>
    </g>
    <g fill="url(#linearGradient5)" text-rendering="geometricPrecision" shape-rendering="geometricPrecision" transform="matrix(1,0,0,1,-247,-93)" stroke="url(#linearGradient5)">
      <rect x="715" width="160.06" height="49.5" y="216" clip-path="url(#clipPath2)" stroke="none"/>
    </g>
    <g text-rendering="geometricPrecision" stroke-miterlimit="1.45" shape-rendering="geometricPrecision" transform="matrix(1,0,0,1,-247,-93)" stroke-linecap="butt">
      <path fill="none" d="M715 222.1875 L715 216 L875.06 216 L875.06 222.1875" clip-path="url(#clipPath2)"/>
      <text x="732.991" xml:space="preserve" y="230.7627" clip-path="url(#clipPath2)" font-family="sans-serif" stroke="none">Tous les agents jouent </text>
      <text x="768.3523" xml:space="preserve" y="245.4639" clip-path="url(#clipPath2)" font-family="sans-serif" stroke="none">leur rôle : </text>
      <text x="750.8269" xml:space="preserve" y="260.165" clip-path="url(#clipPath2)" font-family="sans-serif" stroke="none">"move" ou "stay"</text>
    </g>
    <g fill="url(#linearGradient6)" text-rendering="geometricPrecision" shape-rendering="geometricPrecision" transform="matrix(1,0,0,1,-247,-93)" stroke="url(#linearGradient6)">
      <path d="M933.61 160 L1043.61 160 L1043.61 200 L933.61 200 Z" stroke="none" clip-path="url(#clipPath2)"/>
    </g>
    <g text-rendering="geometricPrecision" stroke-miterlimit="1.45" shape-rendering="geometricPrecision" transform="matrix(1,0,0,1,-247,-93)" stroke-linecap="butt">
      <path fill="none" d="M933.61 160 L1043.61 160 L1043.61 200 L933.61 200 Z" clip-path="url(#clipPath2)"/>
      <text x="948.5992" xml:space="preserve" y="177.3633" clip-path="url(#clipPath2)" font-family="sans-serif" stroke="none">(3) Mise à jour </text>
      <text x="959.2545" xml:space="preserve" y="192.0645" clip-path="url(#clipPath2)" font-family="sans-serif" stroke="none">des agents</text>
    </g>
    <g fill="url(#linearGradient7)" text-rendering="geometricPrecision" shape-rendering="geometricPrecision" transform="matrix(1,0,0,1,-247,-93)" stroke="url(#linearGradient7)">
      <rect x="905.06" width="167.1" height="49.5" y="216" clip-path="url(#clipPath2)" stroke="none"/>
    </g>
    <g text-rendering="geometricPrecision" stroke-miterlimit="1.45" shape-rendering="geometricPrecision" transform="matrix(1,0,0,1,-247,-93)" stroke-linecap="butt">
      <path fill="none" d="M905.06 222.1875 L905.06 216 L1072.16 216 L1072.16 222.1875" clip-path="url(#clipPath2)"/>
      <text x="931.5865" xml:space="preserve" y="230.7627" clip-path="url(#clipPath2)" font-family="sans-serif" stroke="none">Mise à jour des rôles </text>
      <text x="924.567" xml:space="preserve" y="245.4639" clip-path="url(#clipPath2)" font-family="sans-serif" stroke="none">des agents (en fonction </text>
      <text x="941.2487" xml:space="preserve" y="260.165" clip-path="url(#clipPath2)" font-family="sans-serif" stroke="none">de leur voisinage)</text>
    </g>
    <g text-rendering="geometricPrecision" stroke-miterlimit="1.45" shape-rendering="geometricPrecision" transform="matrix(1,0,0,1,-247,-93)" stroke-linecap="butt">
      <path fill="none" d="M610 200.0226 L610 215.7329" clip-path="url(#clipPath2)"/>
    </g>
    <g text-rendering="geometricPrecision" stroke-miterlimit="1.45" shape-rendering="geometricPrecision" transform="matrix(1,0,0,1,-247,-93)" stroke-linecap="butt">
      <path fill="none" d="M390 159.9609 L390 180 L531.9878 180" clip-path="url(#clipPath2)"/>
      <path d="M539.9878 180 L527.9878 175 L530.9878 180 L527.9878 185 Z" clip-path="url(#clipPath2)" stroke="none"/>
      <path fill="none" d="M679.9735 180 L732.0579 180" clip-path="url(#clipPath2)"/>
      <path d="M740.0579 180 L728.0579 175 L731.0579 180 L728.0579 185 Z" clip-path="url(#clipPath2)" stroke="none"/>
      <path fill="none" d="M795.03 200.0226 L795.03 215.9715" clip-path="url(#clipPath2)"/>
      <path fill="none" d="M849.9943 180 L925.6172 180" clip-path="url(#clipPath2)"/>
      <path d="M933.6172 180 L921.6172 175 L924.6172 180 L921.6172 185 Z" clip-path="url(#clipPath2)" stroke="none"/>
      <path fill="none" d="M1043.6315 180 L1080 180 L1080 120 L795.03 120 L795.03 151.9902" clip-path="url(#clipPath2)"/>
      <path d="M795.03 159.9902 L800.03 147.9902 L795.03 150.9902 L790.03 147.9902 Z" clip-path="url(#clipPath2)" stroke="none"/>
      <path fill="none" d="M988.61 200.0226 L988.61 215.9715" clip-path="url(#clipPath2)"/>
    </g>
  </g>
</svg>
