<?xml version="1.0" encoding="UTF-8"?><svg xmlns="http://www.w3.org/2000/svg" xmlns:xlink="http://www.w3.org/1999/xlink" fill-opacity="1" color-rendering="auto" color-interpolation="auto" text-rendering="auto" stroke="black" stroke-linecap="square" width="850" stroke-miterlimit="10" shape-rendering="auto" stroke-opacity="1" fill="black" stroke-dasharray="none" font-weight="normal" stroke-width="1" height="224" font-family="'Dialog'" font-style="normal" stroke-linejoin="miter" font-size="12px" stroke-dashoffset="0" image-rendering="auto">
  <!--Generated by ySVG 2.5-->
  <defs id="genericDefs"/>
  <g>
    <defs id="defs1">
      <linearGradient x1="606.52" gradientUnits="userSpaceOnUse" x2="706.52" y1="125" y2="175" id="linearGradient1" spreadMethod="reflect">
        <stop stop-opacity="1" stop-color="rgb(234,234,234)" offset="0%"/>
        <stop stop-opacity="1" stop-color="rgb(204,204,204)" offset="100%"/>
      </linearGradient>
      <linearGradient x1="601.52" gradientUnits="userSpaceOnUse" x2="711.52" y1="185" y2="235" id="linearGradient2" spreadMethod="reflect">
        <stop stop-opacity="1" stop-color="rgb(234,234,234)" offset="0%"/>
        <stop stop-opacity="1" stop-color="rgb(204,204,204)" offset="100%"/>
      </linearGradient>
      <linearGradient x1="503.04" gradientUnits="userSpaceOnUse" x2="723.04" y1="55" y2="95" id="linearGradient3" spreadMethod="reflect">
        <stop stop-opacity="1" stop-color="rgb(234,234,234)" offset="0%"/>
        <stop stop-opacity="1" stop-color="rgb(204,204,204)" offset="100%"/>
      </linearGradient>
      <linearGradient x1="753.04" gradientUnits="userSpaceOnUse" x2="893.04" y1="125" y2="175" id="linearGradient4" spreadMethod="reflect">
        <stop stop-opacity="1" stop-color="rgb(234,234,234)" offset="0%"/>
        <stop stop-opacity="1" stop-color="rgb(204,204,204)" offset="100%"/>
      </linearGradient>
      <linearGradient x1="753.04" gradientUnits="userSpaceOnUse" x2="893.04" y1="185" y2="235" id="linearGradient5" spreadMethod="reflect">
        <stop stop-opacity="1" stop-color="rgb(234,234,234)" offset="0%"/>
        <stop stop-opacity="1" stop-color="rgb(204,204,204)" offset="100%"/>
      </linearGradient>
      <linearGradient x1="939.56" gradientUnits="userSpaceOnUse" x2="1089.5601" y1="125" y2="175" id="linearGradient6" spreadMethod="reflect">
        <stop stop-opacity="1" stop-color="rgb(234,234,234)" offset="0%"/>
        <stop stop-opacity="1" stop-color="rgb(204,204,204)" offset="100%"/>
      </linearGradient>
      <linearGradient x1="929.56" gradientUnits="userSpaceOnUse" x2="1099.5601" y1="185" y2="235" id="linearGradient7" spreadMethod="reflect">
        <stop stop-opacity="1" stop-color="rgb(234,234,234)" offset="0%"/>
        <stop stop-opacity="1" stop-color="rgb(204,204,204)" offset="100%"/>
      </linearGradient>
      <linearGradient x1="1136.08" gradientUnits="userSpaceOnUse" x2="1296.08" y1="125" y2="175" id="linearGradient8" spreadMethod="reflect">
        <stop stop-opacity="1" stop-color="rgb(234,234,234)" offset="0%"/>
        <stop stop-opacity="1" stop-color="rgb(204,204,204)" offset="100%"/>
      </linearGradient>
      <clipPath clipPathUnits="userSpaceOnUse" id="clipPath1">
        <path d="M0 0 L850 0 L850 224 L0 224 L0 0 Z"/>
      </clipPath>
      <clipPath clipPathUnits="userSpaceOnUse" id="clipPath2">
        <path d="M475 30 L1325 30 L1325 254 L475 254 L475 30 Z"/>
      </clipPath>
    </defs>
    <g stroke-linecap="round" transform="matrix(1,0,0,1,-475,-30)" stroke-dashoffset="2" fill="silver" text-rendering="geometricPrecision" shape-rendering="geometricPrecision" stroke-dasharray="0,4" stroke="silver" stroke-miterlimit="1.45">
      <path fill="none" d="M480 35 L1320 35 L1320 249 L480 249 Z" clip-path="url(#clipPath2)"/>
    </g>
    <g fill="url(#linearGradient1)" text-rendering="geometricPrecision" shape-rendering="geometricPrecision" transform="matrix(1,0,0,1,-475,-30)" stroke="url(#linearGradient1)">
      <path d="M606.52 125 L706.52 125 L706.52 175 L606.52 175 Z" stroke="none" clip-path="url(#clipPath2)"/>
    </g>
    <g text-rendering="geometricPrecision" stroke-miterlimit="1.45" shape-rendering="geometricPrecision" transform="matrix(1,0,0,1,-475,-30)" stroke-linecap="butt">
      <path fill="none" d="M606.52 125 L706.52 125 L706.52 175 L606.52 175 Z" clip-path="url(#clipPath2)"/>
      <text x="618.1763" xml:space="preserve" y="147.3633" clip-path="url(#clipPath2)" font-family="sans-serif" stroke="none">(1) Mise à jour</text>
      <text x="627.1646" xml:space="preserve" y="162.0645" clip-path="url(#clipPath2)" font-family="sans-serif" stroke="none">des agents</text>
    </g>
    <g fill="url(#linearGradient2)" text-rendering="geometricPrecision" shape-rendering="geometricPrecision" transform="matrix(1,0,0,1,-475,-30)" stroke="url(#linearGradient2)">
      <rect x="601.52" width="110" height="50" y="185" clip-path="url(#clipPath2)" stroke="none"/>
    </g>
    <g text-rendering="geometricPrecision" stroke-miterlimit="1.45" shape-rendering="geometricPrecision" transform="matrix(1,0,0,1,-475,-30)" stroke-linecap="butt">
      <path fill="none" d="M601.52 191.25 L601.52 185 L711.52 185 L711.52 191.25" clip-path="url(#clipPath2)"/>
      <text x="624.8325" xml:space="preserve" y="200.0127" clip-path="url(#clipPath2)" font-family="sans-serif" stroke="none">En fonction </text>
      <text x="617.1597" xml:space="preserve" y="214.7139" clip-path="url(#clipPath2)" font-family="sans-serif" stroke="none">de leur niveau </text>
      <text x="626.1597" xml:space="preserve" y="229.415" clip-path="url(#clipPath2)" font-family="sans-serif" stroke="none">de bonheur</text>
    </g>
    <g fill="url(#linearGradient3)" text-rendering="geometricPrecision" shape-rendering="geometricPrecision" transform="matrix(1,0,0,1,-475,-30)" stroke="url(#linearGradient3)">
      <rect x="503.04" width="220" height="40" y="55" clip-path="url(#clipPath2)" stroke="none"/>
    </g>
    <g text-rendering="geometricPrecision" stroke-miterlimit="1.45" shape-rendering="geometricPrecision" transform="matrix(1,0,0,1,-475,-30)" stroke-linecap="butt">
      <path fill="none" d="M503.04 90 L503.04 95 L723.04 95 L723.04 90" clip-path="url(#clipPath2)"/>
      <text x="518.6396" xml:space="preserve" y="72.3633" clip-path="url(#clipPath2)" font-family="sans-serif" stroke="none">Initialisation des agents, </text>
      <text x="518.6396" xml:space="preserve" y="87.0645" clip-path="url(#clipPath2)" font-family="sans-serif" stroke="none">chacun ayant une position aléatoire</text>
    </g>
    <g fill="url(#linearGradient4)" text-rendering="geometricPrecision" shape-rendering="geometricPrecision" transform="matrix(1,0,0,1,-475,-30)" stroke="url(#linearGradient4)">
      <path d="M753.04 125 L893.04 125 L893.04 175 L753.04 175 Z" stroke="none" clip-path="url(#clipPath2)"/>
    </g>
    <g text-rendering="geometricPrecision" stroke-miterlimit="1.45" shape-rendering="geometricPrecision" transform="matrix(1,0,0,1,-475,-30)" stroke-linecap="butt">
      <path fill="none" d="M753.04 125 L893.04 125 L893.04 175 L753.04 175 Z" clip-path="url(#clipPath2)"/>
      <text x="768.3427" xml:space="preserve" y="147.3633" clip-path="url(#clipPath2)" font-family="sans-serif" stroke="none">(2) Récupération de </text>
      <text x="774.6855" xml:space="preserve" y="162.0645" clip-path="url(#clipPath2)" font-family="sans-serif" stroke="none">la liste des voisins</text>
    </g>
    <g fill="url(#linearGradient5)" text-rendering="geometricPrecision" shape-rendering="geometricPrecision" transform="matrix(1,0,0,1,-475,-30)" stroke="url(#linearGradient5)">
      <rect x="753.04" width="140" height="50" y="185" clip-path="url(#clipPath2)" stroke="none"/>
    </g>
    <g text-rendering="geometricPrecision" stroke-miterlimit="1.45" shape-rendering="geometricPrecision" transform="matrix(1,0,0,1,-475,-30)" stroke-linecap="butt">
      <path fill="none" d="M753.04 191.25 L753.04 185 L893.04 185 L893.04 191.25" clip-path="url(#clipPath2)"/>
      <text x="779.0156" xml:space="preserve" y="200.0127" clip-path="url(#clipPath2)" font-family="sans-serif" stroke="none">Tous les agents </text>
      <text x="768.6738" xml:space="preserve" y="214.7139" clip-path="url(#clipPath2)" font-family="sans-serif" stroke="none">récupèrent une liste </text>
      <text x="796.3593" xml:space="preserve" y="229.415" clip-path="url(#clipPath2)" font-family="sans-serif" stroke="none">de voisins</text>
    </g>
    <g fill="url(#linearGradient6)" text-rendering="geometricPrecision" shape-rendering="geometricPrecision" transform="matrix(1,0,0,1,-475,-30)" stroke="url(#linearGradient6)">
      <path d="M939.56 125 L1089.5601 125 L1089.5601 175 L939.56 175 Z" stroke="none" clip-path="url(#clipPath2)"/>
    </g>
    <g text-rendering="geometricPrecision" stroke-miterlimit="1.45" shape-rendering="geometricPrecision" transform="matrix(1,0,0,1,-475,-30)" stroke-linecap="butt">
      <path fill="none" d="M939.56 125 L1089.5601 125 L1089.5601 175 L939.56 175 Z" clip-path="url(#clipPath2)"/>
      <text x="956.8598" xml:space="preserve" y="147.3633" clip-path="url(#clipPath2)" font-family="sans-serif" stroke="none">(3) Calcul du bonheur</text>
      <text x="969.853" xml:space="preserve" y="162.0645" clip-path="url(#clipPath2)" font-family="sans-serif" stroke="none">de chaque agent</text>
    </g>
    <g fill="url(#linearGradient7)" text-rendering="geometricPrecision" shape-rendering="geometricPrecision" transform="matrix(1,0,0,1,-475,-30)" stroke="url(#linearGradient7)">
      <rect x="929.56" width="170" height="50" y="185" clip-path="url(#clipPath2)" stroke="none"/>
    </g>
    <g text-rendering="geometricPrecision" stroke-miterlimit="1.45" shape-rendering="geometricPrecision" transform="matrix(1,0,0,1,-475,-30)" stroke-linecap="butt">
      <path fill="none" d="M929.56 191.25 L929.56 185 L1099.5601 185 L1099.5601 191.25" clip-path="url(#clipPath2)"/>
      <text x="945.1879" xml:space="preserve" y="200.0127" clip-path="url(#clipPath2)" font-family="sans-serif" stroke="none">Tous les agents calculent </text>
      <text x="951.5131" xml:space="preserve" y="214.7139" clip-path="url(#clipPath2)" font-family="sans-serif" stroke="none">leur niveau de bonheur </text>
      <text x="958.1899" xml:space="preserve" y="229.415" clip-path="url(#clipPath2)" font-family="sans-serif" stroke="none">en fonction de la liste</text>
    </g>
    <g fill="url(#linearGradient8)" text-rendering="geometricPrecision" shape-rendering="geometricPrecision" transform="matrix(1,0,0,1,-475,-30)" stroke="url(#linearGradient8)">
      <path d="M1136.08 125 L1296.08 125 L1296.08 175 L1136.08 175 Z" stroke="none" clip-path="url(#clipPath2)"/>
    </g>
    <g text-rendering="geometricPrecision" stroke-miterlimit="1.45" shape-rendering="geometricPrecision" transform="matrix(1,0,0,1,-475,-30)" stroke-linecap="butt">
      <path fill="none" d="M1136.08 125 L1296.08 125 L1296.08 175 L1136.08 175 Z" clip-path="url(#clipPath2)"/>
      <text x="1167.7137" xml:space="preserve" y="140.0127" clip-path="url(#clipPath2)" font-family="sans-serif" stroke="none">(4) Chaque agent </text>
      <text x="1167.3768" xml:space="preserve" y="154.7139" clip-path="url(#clipPath2)" font-family="sans-serif" stroke="none">évolue en fonction</text>
      <text x="1158.0487" xml:space="preserve" y="169.415" clip-path="url(#clipPath2)" font-family="sans-serif" stroke="none">de son comportement</text>
    </g>
    <g text-rendering="geometricPrecision" stroke-miterlimit="1.45" shape-rendering="geometricPrecision" transform="matrix(1,0,0,1,-475,-30)" stroke-linecap="butt">
      <path fill="none" d="M656.52 174.9902 L656.52 185.0077" clip-path="url(#clipPath2)"/>
    </g>
    <g text-rendering="geometricPrecision" stroke-miterlimit="1.45" shape-rendering="geometricPrecision" transform="matrix(1,0,0,1,-475,-30)" stroke-linecap="butt">
      <path fill="none" d="M540 95.0078 L540 150 L598.5505 150" clip-path="url(#clipPath2)"/>
      <path d="M606.5505 150 L594.5505 145 L597.5505 150 L594.5505 155 Z" clip-path="url(#clipPath2)" stroke="none"/>
      <path fill="none" d="M706.4841 150 L745.0667 150" clip-path="url(#clipPath2)"/>
      <path d="M753.0667 150 L741.0667 145 L744.0667 150 L741.0667 155 Z" clip-path="url(#clipPath2)" stroke="none"/>
      <path fill="none" d="M823.04 174.9902 L823.04 185.0077" clip-path="url(#clipPath2)"/>
      <path fill="none" d="M893.0364 150 L931.5869 150" clip-path="url(#clipPath2)"/>
      <path d="M939.5869 150 L927.5869 145 L930.5869 150 L927.5869 155 Z" clip-path="url(#clipPath2)" stroke="none"/>
      <path fill="none" d="M1014.56 174.9902 L1014.56 185.0077" clip-path="url(#clipPath2)"/>
      <path fill="none" d="M1089.5889 150 L1128.0657 150" clip-path="url(#clipPath2)"/>
      <path d="M1136.0657 150 L1124.0657 145 L1127.0657 150 L1124.0657 155 Z" clip-path="url(#clipPath2)" stroke="none"/>
      <path fill="none" d="M1296.0551 150 L1307.92 150 L1307.92 106.384 L660 106.384 L659.9852 116.9794" clip-path="url(#clipPath2)"/>
      <path d="M659.9741 124.9794 L664.9908 112.9864 L659.9866 115.9794 L654.9908 112.9724 Z" clip-path="url(#clipPath2)" stroke="none"/>
    </g>
  </g>
</svg>
