<?xml version="1.0" encoding="UTF-8"?><svg xmlns="http://www.w3.org/2000/svg" xmlns:xlink="http://www.w3.org/1999/xlink" fill-opacity="1" color-rendering="auto" color-interpolation="auto" text-rendering="auto" stroke="black" stroke-linecap="square" width="851" stroke-miterlimit="10" shape-rendering="auto" stroke-opacity="1" fill="black" stroke-dasharray="none" font-weight="normal" stroke-width="1" height="181" font-family="'Dialog'" font-style="normal" stroke-linejoin="miter" font-size="12px" stroke-dashoffset="0" image-rendering="auto">
  <!--Generated by ySVG 2.5-->
  <defs id="genericDefs"/>
  <g>
    <defs id="defs1">
      <linearGradient x1="449.9064" gradientUnits="userSpaceOnUse" x2="629.9064" y1="155" y2="205" id="linearGradient1" spreadMethod="reflect">
        <stop stop-opacity="1" stop-color="rgb(234,234,234)" offset="0%"/>
        <stop stop-opacity="1" stop-color="rgb(204,204,204)" offset="100%"/>
      </linearGradient>
      <linearGradient x1="700.7" gradientUnits="userSpaceOnUse" x2="830.7" y1="95" y2="145" id="linearGradient2" spreadMethod="reflect">
        <stop stop-opacity="1" stop-color="rgb(234,234,234)" offset="0%"/>
        <stop stop-opacity="1" stop-color="rgb(204,204,204)" offset="100%"/>
      </linearGradient>
      <linearGradient x1="685.7" gradientUnits="userSpaceOnUse" x2="845.7" y1="155" y2="205" id="linearGradient3" spreadMethod="reflect">
        <stop stop-opacity="1" stop-color="rgb(234,234,234)" offset="0%"/>
        <stop stop-opacity="1" stop-color="rgb(204,204,204)" offset="100%"/>
      </linearGradient>
      <linearGradient x1="399.9064" gradientUnits="userSpaceOnUse" x2="629.9064" y1="95" y2="145" id="linearGradient4" spreadMethod="reflect">
        <stop stop-opacity="1" stop-color="rgb(234,234,234)" offset="0%"/>
        <stop stop-opacity="1" stop-color="rgb(204,204,204)" offset="100%"/>
      </linearGradient>
      <linearGradient x1="901.3639" gradientUnits="userSpaceOnUse" x2="1071.3639" y1="95" y2="145" id="linearGradient5" spreadMethod="reflect">
        <stop stop-opacity="1" stop-color="rgb(234,234,234)" offset="0%"/>
        <stop stop-opacity="1" stop-color="rgb(204,204,204)" offset="100%"/>
      </linearGradient>
      <linearGradient x1="901.3639" gradientUnits="userSpaceOnUse" x2="1071.3639" y1="155" y2="205" id="linearGradient6" spreadMethod="reflect">
        <stop stop-opacity="1" stop-color="rgb(234,234,234)" offset="0%"/>
        <stop stop-opacity="1" stop-color="rgb(204,204,204)" offset="100%"/>
      </linearGradient>
      <clipPath clipPathUnits="userSpaceOnUse" id="clipPath1">
        <path d="M0 0 L851 0 L851 181 L0 181 L0 0 Z"/>
      </clipPath>
      <clipPath clipPathUnits="userSpaceOnUse" id="clipPath2">
        <path d="M340 45 L1191 45 L1191 226 L340 226 L340 45 Z"/>
      </clipPath>
    </defs>
    <g stroke-linecap="round" transform="matrix(1,0,0,1,-340,-45)" stroke-dashoffset="2" fill="silver" text-rendering="geometricPrecision" shape-rendering="geometricPrecision" stroke-dasharray="0,4" stroke="silver" stroke-miterlimit="1.45">
      <path fill="none" d="M345.7 50.5 L1185.7 50.5 L1185.7 220.5 L345.7 220.5 Z" clip-path="url(#clipPath2)"/>
    </g>
    <g fill="url(#linearGradient1)" text-rendering="geometricPrecision" shape-rendering="geometricPrecision" transform="matrix(1,0,0,1,-340,-45)" stroke="url(#linearGradient1)">
      <rect x="449.9064" width="180" height="50" y="155" clip-path="url(#clipPath2)" stroke="none"/>
    </g>
    <g text-rendering="geometricPrecision" stroke-miterlimit="1.45" shape-rendering="geometricPrecision" transform="matrix(1,0,0,1,-340,-45)" stroke-linecap="butt">
      <path fill="none" d="M607.4064 155 L629.9064 155 L629.9064 205 L607.4064 205" clip-path="url(#clipPath2)"/>
      <text x="477.5333" xml:space="preserve" y="177.3633" clip-path="url(#clipPath2)" font-family="sans-serif" stroke="none">Initialisation aléatoire </text>
      <text x="477.5333" xml:space="preserve" y="192.0645" clip-path="url(#clipPath2)" font-family="sans-serif" stroke="none">de la source de chaleur</text>
    </g>
    <g fill="url(#linearGradient2)" text-rendering="geometricPrecision" shape-rendering="geometricPrecision" transform="matrix(1,0,0,1,-340,-45)" stroke="url(#linearGradient2)">
      <path d="M700.7 95 L830.7 95 L830.7 145 L700.7 145 Z" stroke="none" clip-path="url(#clipPath2)"/>
    </g>
    <g text-rendering="geometricPrecision" stroke-miterlimit="1.45" shape-rendering="geometricPrecision" transform="matrix(1,0,0,1,-340,-45)" stroke-linecap="butt">
      <path fill="none" d="M700.7 95 L830.7 95 L830.7 145 L700.7 145 Z" clip-path="url(#clipPath2)"/>
      <text x="725.6893" xml:space="preserve" y="117.3633" clip-path="url(#clipPath2)" font-family="sans-serif" stroke="none">(1) Mise à jour </text>
      <text x="715.1893" xml:space="preserve" y="132.0645" clip-path="url(#clipPath2)" font-family="sans-serif" stroke="none">de l'environnement</text>
    </g>
    <g fill="url(#linearGradient3)" text-rendering="geometricPrecision" shape-rendering="geometricPrecision" transform="matrix(1,0,0,1,-340,-45)" stroke="url(#linearGradient3)">
      <rect x="685.7" width="160" height="50" y="155" clip-path="url(#clipPath2)" stroke="none"/>
    </g>
    <g text-rendering="geometricPrecision" stroke-miterlimit="1.45" shape-rendering="geometricPrecision" transform="matrix(1,0,0,1,-340,-45)" stroke-linecap="butt">
      <path fill="none" d="M685.7 161.25 L685.7 155 L845.7 155 L845.7 161.25" clip-path="url(#clipPath2)"/>
      <text x="700.6668" xml:space="preserve" y="170.0127" clip-path="url(#clipPath2)" font-family="sans-serif" stroke="none">Pour toutes les cellules :</text>
      <text x="713.0067" xml:space="preserve" y="184.7139" clip-path="url(#clipPath2)" font-family="sans-serif" stroke="none">calculer la diffusion </text>
      <text x="731.3436" xml:space="preserve" y="199.415" clip-path="url(#clipPath2)" font-family="sans-serif" stroke="none">de la chaleur</text>
    </g>
    <g fill="url(#linearGradient4)" text-rendering="geometricPrecision" shape-rendering="geometricPrecision" transform="matrix(1,0,0,1,-340,-45)" stroke="url(#linearGradient4)">
      <rect x="399.9064" width="230" height="50" y="95" clip-path="url(#clipPath2)" stroke="none"/>
    </g>
    <g text-rendering="geometricPrecision" stroke-miterlimit="1.45" shape-rendering="geometricPrecision" transform="matrix(1,0,0,1,-340,-45)" stroke-linecap="butt">
      <path fill="none" d="M601.1564 95 L629.9064 95 L629.9064 145 L601.1564 145" clip-path="url(#clipPath2)"/>
      <text x="420.506" xml:space="preserve" y="117.3633" clip-path="url(#clipPath2)" font-family="sans-serif" stroke="none">Initialisation des agents, </text>
      <text x="420.506" xml:space="preserve" y="132.0645" clip-path="url(#clipPath2)" font-family="sans-serif" stroke="none">chacun ayant une position aléatoire</text>
    </g>
    <g fill="url(#linearGradient5)" text-rendering="geometricPrecision" shape-rendering="geometricPrecision" transform="matrix(1,0,0,1,-340,-45)" stroke="url(#linearGradient5)">
      <path d="M901.3639 95 L1071.3639 95 L1071.3639 145 L901.3639 145 Z" stroke="none" clip-path="url(#clipPath2)"/>
    </g>
    <g text-rendering="geometricPrecision" stroke-miterlimit="1.45" shape-rendering="geometricPrecision" transform="matrix(1,0,0,1,-340,-45)" stroke-linecap="butt">
      <path fill="none" d="M901.3639 95 L1071.3639 95 L1071.3639 145 L901.3639 145 Z" clip-path="url(#clipPath2)"/>
      <text x="946.3531" xml:space="preserve" y="117.3633" clip-path="url(#clipPath2)" font-family="sans-serif" stroke="none">(2) Mise à jour </text>
      <text x="957.0084" xml:space="preserve" y="132.0645" clip-path="url(#clipPath2)" font-family="sans-serif" stroke="none">des agents</text>
    </g>
    <g fill="url(#linearGradient6)" text-rendering="geometricPrecision" shape-rendering="geometricPrecision" transform="matrix(1,0,0,1,-340,-45)" stroke="url(#linearGradient6)">
      <rect x="901.3639" width="170" height="50" y="155" clip-path="url(#clipPath2)" stroke="none"/>
    </g>
    <g text-rendering="geometricPrecision" stroke-miterlimit="1.45" shape-rendering="geometricPrecision" transform="matrix(1,0,0,1,-340,-45)" stroke-linecap="butt">
      <path fill="none" d="M901.3639 161.25 L901.3639 155 L1071.3639 155 L1071.3639 161.25" clip-path="url(#clipPath2)"/>
      <text x="917.9938" xml:space="preserve" y="170.0127" clip-path="url(#clipPath2)" font-family="sans-serif" stroke="none">Tous les agents réalisent </text>
      <text x="930.3424" xml:space="preserve" y="184.7139" clip-path="url(#clipPath2)" font-family="sans-serif" stroke="none">leurs comportements</text>
      <text x="946.6813" xml:space="preserve" y="199.415" clip-path="url(#clipPath2)" font-family="sans-serif" stroke="none">(live, burn, die)</text>
    </g>
    <g text-rendering="geometricPrecision" stroke-miterlimit="1.45" shape-rendering="geometricPrecision" transform="matrix(1,0,0,1,-340,-45)" stroke-linecap="butt">
      <path fill="none" d="M629.8886 180 L660 180 L660 120 L692.6569 120" clip-path="url(#clipPath2)"/>
    </g>
    <g text-rendering="geometricPrecision" stroke-miterlimit="1.45" shape-rendering="geometricPrecision" transform="matrix(1,0,0,1,-340,-45)" stroke-linecap="butt">
      <path d="M700.6569 120 L688.6569 115 L691.6569 120 L688.6569 125 Z" stroke="none" clip-path="url(#clipPath2)"/>
      <path fill="none" d="M765.7 144.9902 L765.7 155.0077" clip-path="url(#clipPath2)"/>
      <path fill="none" d="M629.9257 120 L660 120 L660 120 L692.6956 120" clip-path="url(#clipPath2)"/>
      <path d="M700.6956 120 L688.6956 115 L691.6956 120 L688.6956 125 Z" clip-path="url(#clipPath2)" stroke="none"/>
      <path fill="none" d="M830.6978 120 L893.348 120" clip-path="url(#clipPath2)"/>
      <path d="M901.348 120 L889.348 115 L892.348 120 L889.348 125 Z" clip-path="url(#clipPath2)" stroke="none"/>
      <path fill="none" d="M1071.3673 120 L1098.3096 120 L1098.3096 60 L765.7 60 L765.7 87.0098" clip-path="url(#clipPath2)"/>
      <path d="M765.7 95.0098 L770.7 83.0098 L765.7 86.0098 L760.7 83.0098 Z" clip-path="url(#clipPath2)" stroke="none"/>
      <path fill="none" d="M986.3639 144.9902 L986.3639 155.0077" clip-path="url(#clipPath2)"/>
    </g>
  </g>
</svg>
