<?xml version="1.0" encoding="UTF-8"?><svg xmlns="http://www.w3.org/2000/svg" xmlns:xlink="http://www.w3.org/1999/xlink" fill-opacity="1" color-rendering="auto" color-interpolation="auto" text-rendering="auto" stroke="black" stroke-linecap="square" width="920" stroke-miterlimit="10" shape-rendering="auto" stroke-opacity="1" fill="black" stroke-dasharray="none" font-weight="normal" stroke-width="1" height="261" font-family="'Dialog'" font-style="normal" stroke-linejoin="miter" font-size="12px" stroke-dashoffset="0" image-rendering="auto">
  <!--Generated by ySVG 2.5-->
  <defs id="genericDefs"/>
  <g>
    <defs id="defs1">
      <linearGradient x1="240" gradientUnits="userSpaceOnUse" x2="900" y1="135" y2="165" id="linearGradient1" spreadMethod="reflect">
        <stop stop-opacity="1" stop-color="rgb(12,135,218)" offset="0%"/>
        <stop stop-opacity="1" stop-color="rgb(12,135,218)" offset="100%"/>
      </linearGradient>
      <linearGradient x1="950" gradientUnits="userSpaceOnUse" x2="1150" y1="135" y2="165" id="linearGradient2" spreadMethod="reflect">
        <stop stop-opacity="1" stop-color="rgb(124,191,51)" offset="0%"/>
        <stop stop-opacity="1" stop-color="rgb(124,191,51)" offset="100%"/>
      </linearGradient>
      <linearGradient x1="560" gradientUnits="userSpaceOnUse" x2="650" y1="222.4652" y2="278.4652" id="linearGradient3" spreadMethod="reflect">
        <stop stop-opacity="1" stop-color="rgb(234,234,234)" offset="0%"/>
        <stop stop-opacity="1" stop-color="rgb(204,204,204)" offset="100%"/>
      </linearGradient>
      <linearGradient x1="250" gradientUnits="userSpaceOnUse" x2="350" y1="230.4652" y2="270.4652" id="linearGradient4" spreadMethod="reflect">
        <stop stop-opacity="1" stop-color="rgb(234,234,234)" offset="0%"/>
        <stop stop-opacity="1" stop-color="white" offset="100%"/>
      </linearGradient>
      <linearGradient x1="382.5" gradientUnits="userSpaceOnUse" x2="522.5" y1="280" y2="320" id="linearGradient5" spreadMethod="reflect">
        <stop stop-opacity="1" stop-color="rgb(234,234,234)" offset="0%"/>
        <stop stop-opacity="1" stop-color="white" offset="100%"/>
      </linearGradient>
      <linearGradient x1="382.5" gradientUnits="userSpaceOnUse" x2="522.5" y1="340" y2="380" id="linearGradient6" spreadMethod="reflect">
        <stop stop-opacity="1" stop-color="rgb(234,234,234)" offset="0%"/>
        <stop stop-opacity="1" stop-color="white" offset="100%"/>
      </linearGradient>
      <linearGradient x1="687.5" gradientUnits="userSpaceOnUse" x2="882.5" y1="230.4652" y2="270.4652" id="linearGradient7" spreadMethod="reflect">
        <stop stop-opacity="1" stop-color="rgb(234,234,234)" offset="0%"/>
        <stop stop-opacity="1" stop-color="white" offset="100%"/>
      </linearGradient>
      <linearGradient x1="970" gradientUnits="userSpaceOnUse" x2="1130" y1="230.4652" y2="270.4652" id="linearGradient8" spreadMethod="reflect">
        <stop stop-opacity="1" stop-color="white" offset="0%"/>
        <stop stop-opacity="1" stop-color="rgb(234,234,234)" offset="100%"/>
      </linearGradient>
      <linearGradient x1="695" gradientUnits="userSpaceOnUse" x2="875" y1="281.8692" y2="321.8692" id="linearGradient9" spreadMethod="reflect">
        <stop stop-opacity="1" stop-color="rgb(234,234,234)" offset="0%"/>
        <stop stop-opacity="1" stop-color="white" offset="100%"/>
      </linearGradient>
      <clipPath clipPathUnits="userSpaceOnUse" id="clipPath1">
        <path d="M0 0 L920 0 L920 261 L0 261 L0 0 Z"/>
      </clipPath>
      <clipPath clipPathUnits="userSpaceOnUse" id="clipPath2">
        <path d="M235 130 L1155 130 L1155 391 L235 391 L235 130 Z"/>
      </clipPath>
      <clipPath clipPathUnits="userSpaceOnUse" id="clipPath3">
        <path d="M235 220.0012 L235 391 L1155 391 L1155 220.0012 Z"/>
      </clipPath>
      <clipPath clipPathUnits="userSpaceOnUse" id="clipPath4">
        <path d="M235 130 L235 220.0012 L1155 220.0012 L1155 130 Z"/>
      </clipPath>
    </defs>
    <g fill="url(#linearGradient1)" text-rendering="geometricPrecision" shape-rendering="geometricPrecision" transform="matrix(1,0,0,1,-235,-130)" stroke="url(#linearGradient1)">
      <path d="M240 135 L900 135 L900 165 L240 165 Z" stroke="none" clip-path="url(#clipPath2)"/>
    </g>
    <g stroke-linecap="butt" transform="matrix(1,0,0,1,-235,-130)" fill="white" text-rendering="geometricPrecision" font-family="sans-serif" shape-rendering="geometricPrecision" stroke="white" font-weight="bold" stroke-miterlimit="1.45">
      <text x="557.332" xml:space="preserve" y="154.7139" clip-path="url(#clipPath2)" stroke="none">CPU</text>
    </g>
    <g fill="url(#linearGradient2)" text-rendering="geometricPrecision" shape-rendering="geometricPrecision" transform="matrix(1,0,0,1,-235,-130)" stroke="url(#linearGradient2)">
      <path d="M950 135 L1150 135 L1150 165 L950 165 Z" stroke="none" clip-path="url(#clipPath2)"/>
    </g>
    <g stroke-linecap="butt" transform="matrix(1,0,0,1,-235,-130)" fill="white" text-rendering="geometricPrecision" font-family="sans-serif" shape-rendering="geometricPrecision" stroke="white" font-weight="bold" stroke-miterlimit="1.45">
      <text x="1036.998" xml:space="preserve" y="154.7139" clip-path="url(#clipPath2)" stroke="none">GPU</text>
    </g>
    <g fill="url(#linearGradient3)" text-rendering="geometricPrecision" shape-rendering="geometricPrecision" transform="matrix(1,0,0,1,-235,-130)" stroke="url(#linearGradient3)">
      <path d="M605 222.4652 L650 250.4652 L605 278.4652 L560 250.4652 Z" stroke="none" clip-path="url(#clipPath2)"/>
    </g>
    <g text-rendering="geometricPrecision" stroke-miterlimit="1.45" shape-rendering="geometricPrecision" transform="matrix(1,0,0,1,-235,-130)" stroke-linecap="butt">
      <path fill="none" d="M605 222.4652 L650 250.4652 L605 278.4652 L560 250.4652 Z" clip-path="url(#clipPath2)"/>
      <text x="578.3252" xml:space="preserve" y="255.1791" clip-path="url(#clipPath2)" font-family="sans-serif" stroke="none">GPGPU ?</text>
    </g>
    <g fill="white" text-rendering="geometricPrecision" shape-rendering="geometricPrecision" transform="matrix(1,0,0,1,-235,-130)" stroke="white">
      <rect x="240" y="193.3" clip-path="url(#clipPath3)" width="300" rx="4" ry="4" height="192.6" stroke="none"/>
      <rect x="240" y="193.3" clip-path="url(#clipPath4)" fill="rgb(204,204,204)" width="300" rx="4" ry="4" height="192.6" stroke="none"/>
    </g>
    <g text-rendering="geometricPrecision" stroke-miterlimit="1.45" shape-rendering="geometricPrecision" transform="matrix(1,0,0,1,-235,-130)" stroke-linecap="butt">
      <rect x="240" y="193.3" clip-path="url(#clipPath2)" fill="none" width="300" rx="4" ry="4" height="192.6"/>
      <line y2="220.0012" fill="none" x1="240" clip-path="url(#clipPath2)" x2="540" y1="220.0012"/>
      <text x="371.3203" xml:space="preserve" y="211.3645" clip-path="url(#clipPath2)" font-family="sans-serif" stroke="none">Agents</text>
    </g>
    <g fill="url(#linearGradient4)" text-rendering="geometricPrecision" shape-rendering="geometricPrecision" transform="matrix(1,0,0,1,-235,-130)" stroke="url(#linearGradient4)">
      <path d="M250 230.4652 L350 230.4652 L350 270.4652 L250 270.4652 Z" stroke="none" clip-path="url(#clipPath2)"/>
    </g>
    <g text-rendering="geometricPrecision" stroke-miterlimit="1.45" shape-rendering="geometricPrecision" transform="matrix(1,0,0,1,-235,-130)" stroke-linecap="butt">
      <path fill="none" d="M250 230.4652 L350 230.4652 L350 270.4652 L250 270.4652 Z" clip-path="url(#clipPath2)"/>
      <text x="270.6562" xml:space="preserve" y="255.1791" clip-path="url(#clipPath2)" font-family="sans-serif" stroke="none">Mise à jour</text>
    </g>
    <g fill="url(#linearGradient5)" text-rendering="geometricPrecision" shape-rendering="geometricPrecision" transform="matrix(1,0,0,1,-235,-130)" stroke="url(#linearGradient5)">
      <path d="M382.5 280 L522.5 280 L522.5 320 L382.5 320 Z" stroke="none" clip-path="url(#clipPath2)"/>
    </g>
    <g text-rendering="geometricPrecision" stroke-miterlimit="1.45" shape-rendering="geometricPrecision" transform="matrix(1,0,0,1,-235,-130)" stroke-linecap="butt">
      <path fill="none" d="M382.5 280 L522.5 280 L522.5 320 L382.5 320 Z" clip-path="url(#clipPath2)"/>
      <text x="395.8047" xml:space="preserve" y="304.7139" clip-path="url(#clipPath2)" font-family="sans-serif" stroke="none">Détection des voisins</text>
    </g>
    <g fill="url(#linearGradient6)" text-rendering="geometricPrecision" shape-rendering="geometricPrecision" transform="matrix(1,0,0,1,-235,-130)" stroke="url(#linearGradient6)">
      <path d="M382.5 340 L522.5 340 L522.5 380 L382.5 380 Z" stroke="none" clip-path="url(#clipPath2)"/>
    </g>
    <g text-rendering="geometricPrecision" stroke-miterlimit="1.45" shape-rendering="geometricPrecision" transform="matrix(1,0,0,1,-235,-130)" stroke-linecap="butt">
      <path fill="none" d="M382.5 340 L522.5 340 L522.5 380 L382.5 380 Z" clip-path="url(#clipPath2)"/>
      <text x="403.7998" xml:space="preserve" y="364.7139" clip-path="url(#clipPath2)" font-family="sans-serif" stroke="none">Calcul du bonheur</text>
    </g>
    <g fill="white" text-rendering="geometricPrecision" shape-rendering="geometricPrecision" transform="matrix(1,0,0,1,-235,-130)" stroke="white">
      <rect x="670" y="193.3" clip-path="url(#clipPath3)" width="230" rx="4" ry="4" height="135" stroke="none"/>
      <rect x="670" y="193.3" clip-path="url(#clipPath4)" fill="rgb(204,204,204)" width="230" rx="4" ry="4" height="135" stroke="none"/>
    </g>
    <g text-rendering="geometricPrecision" stroke-miterlimit="1.45" shape-rendering="geometricPrecision" transform="matrix(1,0,0,1,-235,-130)" stroke-linecap="butt">
      <rect x="670" y="193.3" clip-path="url(#clipPath2)" fill="none" width="230" rx="4" ry="4" height="135"/>
      <line y2="220.0012" fill="none" x1="670" clip-path="url(#clipPath2)" x2="900" y1="220.0012"/>
      <text x="744.6436" xml:space="preserve" y="211.3645" clip-path="url(#clipPath2)" font-family="sans-serif" stroke="none">Environnement</text>
    </g>
    <g fill="url(#linearGradient7)" text-rendering="geometricPrecision" shape-rendering="geometricPrecision" transform="matrix(1,0,0,1,-235,-130)" stroke="url(#linearGradient7)">
      <path d="M687.5 230.4652 L882.5 230.4652 L882.5 270.4652 L687.5 270.4652 Z" stroke="none" clip-path="url(#clipPath2)"/>
    </g>
    <g text-rendering="geometricPrecision" stroke-miterlimit="1.45" shape-rendering="geometricPrecision" transform="matrix(1,0,0,1,-235,-130)" stroke-linecap="butt">
      <path fill="none" d="M687.5 230.4652 L882.5 230.4652 L882.5 270.4652 L687.5 270.4652 Z" clip-path="url(#clipPath2)"/>
      <text x="729.9688" xml:space="preserve" y="247.8285" clip-path="url(#clipPath2)" font-family="sans-serif" stroke="none">Données sur le type </text>
      <text x="703.9883" xml:space="preserve" y="262.5297" clip-path="url(#clipPath2)" font-family="sans-serif" stroke="none">d'agents dans l'environnement</text>
    </g>
    <g text-rendering="geometricPrecision" stroke-miterlimit="1.45" stroke-dasharray="6,2" shape-rendering="geometricPrecision" transform="matrix(1,0,0,1,-235,-130)" stroke-linecap="butt">
      <path fill="none" d="M950 193.3 L1150 193.3 L1150 328.3 L950 328.3 Z" clip-path="url(#clipPath2)"/>
      <text x="956" y="211.3645" clip-path="url(#clipPath2)" font-family="sans-serif" stroke-dasharray="none" stroke="none" xml:space="preserve">Module GPU</text>
    </g>
    <g fill="url(#linearGradient8)" text-rendering="geometricPrecision" shape-rendering="geometricPrecision" transform="matrix(1,0,0,1,-235,-130)" stroke="url(#linearGradient8)">
      <path d="M970 230.4652 L1130 230.4652 L1130 270.4652 L970 270.4652 Z" stroke="none" clip-path="url(#clipPath2)"/>
    </g>
    <g text-rendering="geometricPrecision" stroke-miterlimit="1.45" shape-rendering="geometricPrecision" transform="matrix(1,0,0,1,-235,-130)" stroke-linecap="butt">
      <path fill="none" d="M970 230.4652 L1130 230.4652 L1130 270.4652 L970 270.4652 Z" clip-path="url(#clipPath2)"/>
      <text x="1023.6475" xml:space="preserve" y="255.1791" clip-path="url(#clipPath2)" font-family="sans-serif" stroke="none">Voisinage</text>
    </g>
    <g fill="url(#linearGradient9)" text-rendering="geometricPrecision" shape-rendering="geometricPrecision" transform="matrix(1,0,0,1,-235,-130)" stroke="url(#linearGradient9)">
      <path d="M695 281.8692 L875 281.8692 L875 321.8692 L695 321.8692 Z" stroke="none" clip-path="url(#clipPath2)"/>
    </g>
    <g text-rendering="geometricPrecision" stroke-miterlimit="1.45" shape-rendering="geometricPrecision" transform="matrix(1,0,0,1,-235,-130)" stroke-linecap="butt">
      <path fill="none" d="M695 281.8692 L875 281.8692 L875 321.8692 L695 321.8692 Z" clip-path="url(#clipPath2)"/>
      <text x="733.9648" xml:space="preserve" y="306.583" clip-path="url(#clipPath2)" font-family="sans-serif" stroke="none">Données voisinage</text>
    </g>
    <g text-rendering="geometricPrecision" stroke-miterlimit="1.45" shape-rendering="geometricPrecision" transform="matrix(1,0,0,1,-235,-130)" stroke-linecap="butt">
      <path fill="none" d="M350.0018 250.4652 L552.0204 250.4652" clip-path="url(#clipPath2)"/>
    </g>
    <g text-rendering="geometricPrecision" stroke-miterlimit="1.45" shape-rendering="geometricPrecision" transform="matrix(1,0,0,1,-235,-130)" stroke-linecap="butt">
      <path d="M560.0204 250.4652 L548.0204 245.4652 L551.0204 250.4652 L548.0204 255.4652 Z" stroke="none" clip-path="url(#clipPath2)"/>
      <path fill="none" d="M605 278.4737 L605 300 L530.5391 300" clip-path="url(#clipPath2)"/>
      <path d="M522.5391 300 L534.5391 305 L531.5391 300 L534.5391 295 Z" clip-path="url(#clipPath2)" stroke="none"/>
      <text x="577.8596" xml:space="preserve" y="292.5005" clip-path="url(#clipPath2)" font-family="sans-serif" stroke="none">non</text>
      <path fill="none" d="M452.5 320.0098 L452.5 331.9658" clip-path="url(#clipPath2)"/>
      <path d="M452.5 339.9658 L457.5 327.9658 L452.5 330.9658 L447.5 327.9658 Z" clip-path="url(#clipPath2)" stroke="none"/>
      <path fill="none" d="M382.4677 360 L300 360 L300 278.4414" clip-path="url(#clipPath2)"/>
      <path d="M300 270.4414 L295 282.4414 L300 279.4414 L305 282.4414 Z" clip-path="url(#clipPath2)" stroke="none"/>
      <path fill="none" d="M649.9561 250.4652 L679.5085 250.4652" clip-path="url(#clipPath2)"/>
      <path d="M687.5085 250.4652 L675.5085 245.4652 L678.5085 250.4652 L675.5085 255.4652 Z" clip-path="url(#clipPath2)" stroke="none"/>
      <text x="647.9932" xml:space="preserve" y="266.7139" clip-path="url(#clipPath2)" font-family="sans-serif" stroke="none">oui</text>
      <path fill="none" d="M882.4675 250.4652 L962.0376 250.4652" clip-path="url(#clipPath2)"/>
      <path d="M970.0376 250.4652 L958.0376 245.4652 L961.0376 250.4652 L958.0376 255.4652 Z" clip-path="url(#clipPath2)" stroke="none"/>
      <path fill="none" d="M1050 270.4696 L1050 301.8692 L883.0262 301.8692" clip-path="url(#clipPath2)"/>
      <path d="M875.0262 301.8692 L887.0262 306.8692 L884.0262 301.8692 L887.0262 296.8692 Z" clip-path="url(#clipPath2)" stroke="none"/>
      <path fill="none" d="M785 321.88 L785 360 L530.5391 360" clip-path="url(#clipPath2)"/>
      <path d="M522.5391 360 L534.5391 365 L531.5391 360 L534.5391 355 Z" clip-path="url(#clipPath2)" stroke="none"/>
    </g>
  </g>
</svg>
